<svg xmlns="http://www.w3.org/2000/svg" xmlns:xlink="http://www.w3.org/1999/xlink" width="295" height="208.553" viewBox="0 0 295 208.553">
  <defs>
    <clipPath id="clip-path">
      <rect id="Rectángulo_46579" data-name="Rectángulo 46579" width="295" height="208.553" fill="none"/>
    </clipPath>
  </defs>
  <g id="Grupo_159164" data-name="Grupo 159164" transform="translate(-285 -1254.523)">
    <g id="Grupo_159163" data-name="Grupo 159163" transform="translate(285 1254.523)">
      <g id="Grupo_159160" data-name="Grupo 159160">
        <g id="Grupo_159159" data-name="Grupo 159159" clip-path="url(#clip-path)">
          <path id="Trazado_600745" data-name="Trazado 600745" d="M18.7,89.039l110.66-61.054a32.684,32.684,0,0,1,35.272,2.374l117,86.861c22.843,16.958,14.617,52.98-13.322,58.342L108.746,206.188a32.684,32.684,0,0,1-27.016-6.933L13.637,142.823A32.685,32.685,0,0,1,18.7,89.039" transform="translate(-0.836 -11.07)" fill="#91e8d6"/>
        </g>
      </g>
      <path id="Trazado_600746" data-name="Trazado 600746" d="M65.085,347.3H49.436l-3.172-16.278H68.257Z" transform="translate(-21.412 -153.202)" fill="#ffc154"/>
      <path id="Trazado_600747" data-name="Trazado 600747" d="M47.7,338.388l19.642-2.664.916-4.7H46.264Z" transform="translate(-21.411 -153.202)" fill="#ff9e55"/>
      <g id="Grupo_159162" data-name="Grupo 159162">
        <g id="Grupo_159161" data-name="Grupo 159161" clip-path="url(#clip-path)">
          <path id="Trazado_600748" data-name="Trazado 600748" d="M62.837,310.687c9.427-13.071.121-20.853,0-20.953v0l0,0v0c-.12.1-9.427,7.882,0,20.953v0l0,0Z" transform="translate(-27.129 -134.092)" fill="#a7e070"/>
          <path id="Trazado_600749" data-name="Trazado 600749" d="M65.167,317.73c.117-17.884,11.222-19.17,20.456-12.741Z" transform="translate(-30.16 -139.517)" fill="#75b75a"/>
          <path id="Trazado_600750" data-name="Trazado 600750" d="M68,323.615c0-11.455,12.975-15.312,19.638-2.221Z" transform="translate(-31.469 -144.935)" fill="#a7e070"/>
          <path id="Trazado_600751" data-name="Trazado 600751" d="M50.154,317.73c-.117-17.884-11.222-19.17-20.456-12.741Z" transform="translate(-13.745 -139.517)" fill="#75b75a"/>
          <path id="Trazado_600752" data-name="Trazado 600752" d="M48.03,323.615c0-11.455-12.975-15.312-19.638-2.221Z" transform="translate(-13.14 -144.935)" fill="#a7e070"/>
          <rect id="Rectángulo_46580" data-name="Rectángulo 46580" width="25.024" height="3.736" transform="translate(23.125 177.163)" fill="#ffc154"/>
          <path id="Trazado_600753" data-name="Trazado 600753" d="M149.393,118.189l-10.718-7.611V65.393a4.015,4.015,0,0,0-4.014-4.015H50.883a4.015,4.015,0,0,0-4.015,4.015v72.869a4.015,4.015,0,0,0,4.015,4.015H134.66a4.015,4.015,0,0,0,4.014-4.015V125.8Z" transform="translate(-21.691 -28.407)" fill="#fff"/>
          <path id="Trazado_600754" data-name="Trazado 600754" d="M73.569,85.092a5.454,5.454,0,1,1-5.454-5.454,5.454,5.454,0,0,1,5.454,5.454" transform="translate(-29 -36.858)" fill="#a7e070"/>
          <path id="Trazado_600755" data-name="Trazado 600755" d="M147.939,91.131H89.764a1.439,1.439,0,0,0,0,2.878h58.175a1.439,1.439,0,0,0,0-2.878" transform="translate(-40.878 -42.177)" fill="#d6e6fd"/>
          <path id="Trazado_600756" data-name="Trazado 600756" d="M89.764,85.972h26.474a1.439,1.439,0,0,0,0-2.878H89.764a1.439,1.439,0,0,0,0,2.878" transform="translate(-40.878 -38.457)" fill="#bdd3f4"/>
          <path id="Trazado_600757" data-name="Trazado 600757" d="M181.673,115.832a5.454,5.454,0,1,0,5.454-5.454,5.454,5.454,0,0,0-5.454,5.454" transform="translate(-84.081 -51.084)" fill="#ffc154"/>
          <path id="Trazado_600758" data-name="Trazado 600758" d="M122.275,121.871H64.1a1.439,1.439,0,0,0,0,2.878h58.175a1.439,1.439,0,1,0,0-2.878" transform="translate(-29 -56.404)" fill="#d6e6fd"/>
          <path id="Trazado_600759" data-name="Trazado 600759" d="M64.1,116.712H90.574a1.439,1.439,0,0,0,0-2.878H64.1a1.439,1.439,0,0,0,0,2.878" transform="translate(-29 -52.684)" fill="#bdd3f4"/>
          <path id="Trazado_600760" data-name="Trazado 600760" d="M73.569,147.136a5.454,5.454,0,1,1-5.454-5.454,5.454,5.454,0,0,1,5.454,5.454" transform="translate(-29 -65.572)" fill="#a7e070"/>
          <path id="Trazado_600761" data-name="Trazado 600761" d="M147.939,153.175H89.764a1.439,1.439,0,1,0,0,2.878h58.175a1.439,1.439,0,1,0,0-2.878" transform="translate(-40.878 -70.892)" fill="#d6e6fd"/>
          <path id="Trazado_600762" data-name="Trazado 600762" d="M89.764,148.016h26.474a1.439,1.439,0,1,0,0-2.878H89.764a1.439,1.439,0,0,0,0,2.878" transform="translate(-40.878 -67.172)" fill="#bdd3f4"/>
          <path id="Trazado_600763" data-name="Trazado 600763" d="M181.673,177.876a5.454,5.454,0,1,0,5.454-5.454,5.454,5.454,0,0,0-5.454,5.454" transform="translate(-84.081 -79.799)" fill="#ffc154"/>
          <path id="Trazado_600764" data-name="Trazado 600764" d="M122.275,183.915H64.1a1.439,1.439,0,0,0,0,2.878h58.175a1.439,1.439,0,1,0,0-2.878" transform="translate(-29 -85.118)" fill="#d6e6fd"/>
          <path id="Trazado_600765" data-name="Trazado 600765" d="M64.1,178.756H90.574a1.439,1.439,0,1,0,0-2.878H64.1a1.439,1.439,0,0,0,0,2.878" transform="translate(-29 -81.399)" fill="#bdd3f4"/>
          <path id="Trazado_600766" data-name="Trazado 600766" d="M230.906,272.765l-4.45-46.161a8.446,8.446,0,1,0-16.815,1.621l3.767,39.087-52.417,14.335a6.065,6.065,0,0,0,2.743,11.807L224.41,281.8l7.233-1.389Z" transform="translate(-72.442 -101.341)" fill="#ffa67a"/>
          <path id="Trazado_600767" data-name="Trazado 600767" d="M272.19,232.473c-.027-.28-.069-.554-.122-.825l-16.718,1.305a8.531,8.531,0,0,0,.024,1.14l2.093,21.711,17.087,1.2Z" transform="translate(-118.176 -107.21)" fill="#ef946c"/>
          <path id="Trazado_600768" data-name="Trazado 600768" d="M274.561,239.708l-27.322,2.509-2.008-21.87a11.778,11.778,0,0,1,10.652-12.806l3.864-.355a11.779,11.779,0,0,1,12.806,10.652Z" transform="translate(-113.473 -95.865)" fill="#3b7dab"/>
          <path id="Trazado_600769" data-name="Trazado 600769" d="M138.546,345.418c-5.57.338-15.236.24-19.091-4,0,0-8.489,3.187-10.849,3.332a3.542,3.542,0,0,1-3.333-1.8s14.043-10.567,17.1-11.68,16.963,1.669,16.963,1.669l2.267,8.219a3.375,3.375,0,0,1-3.06,4.263" transform="translate(-48.722 -153.194)" fill="#ffa67a"/>
          <path id="Trazado_600770" data-name="Trazado 600770" d="M297.123,191.457c-15.915,0-28.189,3.9-35.93,9.061l8.669,43.825-1.792,42.009s30.9,7.269,62,0l-3.591-42.018,3.106-44.406s-12.55-6.146-32.461-8.471" transform="translate(-120.884 -88.609)" fill="#488ab8"/>
          <path id="Trazado_600771" data-name="Trazado 600771" d="M325.317,199.913c0,6.909-8.05,12.511-17.979,12.511s-17.979-5.6-17.979-12.511,8.049-6.313,17.979-6.313,17.979-.6,17.979,6.313" transform="translate(-133.919 -89.595)" fill="#ffb692"/>
          <path id="Trazado_600772" data-name="Trazado 600772" d="M342.893,272.765,338.443,226.6a8.446,8.446,0,1,0-16.815,1.621l3.767,39.087-52.417,14.335a6.065,6.065,0,0,0,2.743,11.807L336.4,281.8l7.233-1.389Z" transform="translate(-124.272 -101.341)" fill="#ffb692"/>
          <path id="Trazado_600773" data-name="Trazado 600773" d="M385.275,244.683l-16.86,1.157,1.464,15.189,17.158,1.926Z" transform="translate(-170.508 -113.243)" fill="#d88d87"/>
          <path id="Trazado_600774" data-name="Trazado 600774" d="M386.548,239.708l-27.322,2.509-2.008-21.87a11.778,11.778,0,0,1,10.652-12.806l3.865-.355a11.778,11.778,0,0,1,12.806,10.652Z" transform="translate(-165.302 -95.865)" fill="#3b7dab"/>
          <path id="Trazado_600775" data-name="Trazado 600775" d="M250.533,345.418c-5.57.338-15.236.24-19.091-4,0,0-8.489,3.187-10.849,3.332a3.542,3.542,0,0,1-3.333-1.8s14.043-10.567,17.1-11.68,16.963,1.669,16.963,1.669l2.267,8.219a3.375,3.375,0,0,1-3.06,4.263" transform="translate(-100.551 -153.194)" fill="#ffb692"/>
          <path id="Trazado_600776" data-name="Trazado 600776" d="M262.555,125.953c.3,5.471,4.073,9.713,8.432,9.475s7.65-4.866,7.351-10.337-4.073-9.713-8.432-9.475-7.65,4.866-7.351,10.337" transform="translate(-121.505 -53.505)" fill="#6d86aa"/>
          <path id="Trazado_600777" data-name="Trazado 600777" d="M268.911,125.607c.3,5.472,4.073,9.713,8.431,9.476s7.65-4.866,7.351-10.337-4.073-9.713-8.431-9.475-7.65,4.866-7.351,10.336" transform="translate(-124.447 -53.345)" fill="#fff"/>
          <path id="Trazado_600778" data-name="Trazado 600778" d="M272.876,94.727c-11.457,11.157,3.744,23.709,3.744,23.709L275.9,94.394Z" transform="translate(-124.313 -43.687)" fill="#323244"/>
          <path id="Trazado_600779" data-name="Trazado 600779" d="M325.107,181.894c-1.526-27.963-6.193-13.133-12.928-12.765s-12.89-12.064-11.462,14.1c.535,9.8,5.949,8.655,12.684,8.288s12.242.181,11.707-9.619" transform="translate(-139.079 -76.306)" fill="#ffb692"/>
          <path id="Trazado_600780" data-name="Trazado 600780" d="M300.539,175.043c.332-15.032,5.771-5.593,11.654-5.913,6.522-.356,11.1-14.27,12.774,10.231-10.234,3.975-18.535.463-24.427-4.318" transform="translate(-139.094 -76.306)" fill="#d88d87"/>
          <path id="Trazado_600781" data-name="Trazado 600781" d="M303.922,76.242l-10.852.593a15.464,15.464,0,0,0-14.556,16.236l1.223,22.414a21.532,21.532,0,1,0,43-2.346l-1.15-21.059a16.825,16.825,0,0,0-17.665-15.837" transform="translate(-128.889 -35.274)" fill="#ffb692"/>
          <path id="Trazado_600782" data-name="Trazado 600782" d="M345.243,123.6c.289,5.3,3.814,9.529,8.22,10.275a21.429,21.429,0,0,0,.158-3.985l-.954-17.484c-4.491,1.057-7.721,5.747-7.424,11.194" transform="translate(-159.774 -52.021)" fill="#d88d87"/>
          <path id="Trazado_600783" data-name="Trazado 600783" d="M325.949,91.158a16.829,16.829,0,0,0-17.588-14.915l-10.852.592a15.328,15.328,0,0,0-9.427,3.921c11.539,14.672,27.728,13.29,37.867,10.4" transform="translate(-133.328 -35.274)" fill="#d88d87"/>
          <path id="Trazado_600784" data-name="Trazado 600784" d="M330.3,113.613l-3.631-1.171a2.146,2.146,0,1,1,1.317-4.085l3.631,1.171a2.146,2.146,0,1,1-1.317,4.085" transform="translate(-150.496 -50.102)" fill="#323244"/>
          <path id="Trazado_600785" data-name="Trazado 600785" d="M297.3,114.431l-3.339,1.846a2.146,2.146,0,0,1-2.077-3.757l3.339-1.846a2.146,2.146,0,0,1,2.077,3.757" transform="translate(-134.576 -51.098)" fill="#323244"/>
          <path id="Trazado_600786" data-name="Trazado 600786" d="M308.465,146.834s5.666.721,5.749,1.772-2.62,1.7-3.4,1.29-2.353-3.062-2.353-3.062" transform="translate(-142.762 -67.957)" fill="#d88d87"/>
          <path id="Trazado_600787" data-name="Trazado 600787" d="M300.046,126.179a2.368,2.368,0,1,1-2.494-2.235,2.368,2.368,0,0,1,2.494,2.235" transform="translate(-136.675 -57.361)" fill="#34344f"/>
          <path id="Trazado_600788" data-name="Trazado 600788" d="M331.7,124.452a2.368,2.368,0,1,1-2.494-2.235,2.368,2.368,0,0,1,2.494,2.235" transform="translate(-151.323 -56.562)" fill="#34344f"/>
          <path id="Trazado_600789" data-name="Trazado 600789" d="M312.039,123.695a107.993,107.993,0,0,1-3.158,12.285c-.008.011-.017.08,0-.032a.328.328,0,0,0-.024-.128c.653.752,1.787,1.535,2.566,2.364a10.112,10.112,0,0,1-1.978-.778,3.59,3.59,0,0,1-1.547-1.211.619.619,0,0,1-.052-.253.422.422,0,0,1,.019-.158,109.454,109.454,0,0,1,4.178-12.088" transform="translate(-142.473 -57.248)" fill="#34344f"/>
          <path id="Trazado_600790" data-name="Trazado 600790" d="M308.068,154.747a55.075,55.075,0,0,0,10.362-4.358c2.37-1.34,5.033,1.529,4.112,4.472a10.015,10.015,0,0,1-7.383,7.273c-3.541.849-5.972.243-7.632-.869-2.349-1.574-1.984-5.729.54-6.518" transform="translate(-141.6 -69.445)" fill="#34344f"/>
          <path id="Trazado_600791" data-name="Trazado 600791" d="M318.56,164.9a10.015,10.015,0,0,0,7.383-7.273,4,4,0,0,0,.177-1.3,10.166,10.166,0,0,0-6.462.573,9.908,9.908,0,0,0-6.354,8.136c0,.006,0,.012,0,.019a11.191,11.191,0,0,0,5.258-.151" transform="translate(-145.001 -72.214)" fill="#ff9292"/>
          <path id="Trazado_600792" data-name="Trazado 600792" d="M318.056,162.664c.54.675,2.178.309,3.657-.817s2.241-2.586,1.7-3.261-2.178-.309-3.658.817-2.241,2.586-1.7,3.261" transform="translate(-147.12 -73.239)" fill="#ffabab"/>
          <path id="Trazado_600793" data-name="Trazado 600793" d="M308.07,154.747a55.074,55.074,0,0,0,10.362-4.358,2.767,2.767,0,0,1,3.8,1.339,20.326,20.326,0,0,1-9.023,5.782,22.783,22.783,0,0,1-7.195,1.252,3.5,3.5,0,0,1,2.059-4.015" transform="translate(-141.602 -69.446)" fill="#fff"/>
          <path id="Trazado_600794" data-name="Trazado 600794" d="M303.343,77.851C249.413,91.123,254.8,63.983,254.8,63.983l2.919,4.166S255.4,55.457,267.3,50.85l1.574,7.974s18.675-9.549,37,1.816,8.924,38.5,8.924,38.5-7.889.356-11.45-21.292" transform="translate(-117.858 -23.534)" fill="#323244"/>
          <path id="Trazado_600795" data-name="Trazado 600795" d="M311.117,73.56a22.726,22.726,0,0,0-5.191-4.416c-12.862,9.2-32.325,18.294-48.382,5.322a15.06,15.06,0,0,0,.178,2.149L254.8,72.449a12.859,12.859,0,0,0-.057,3.586c17.921,16.061,42.045,8.857,56.371-2.475" transform="translate(-117.857 -32.001)" fill="#49496b"/>
          <path id="Trazado_600796" data-name="Trazado 600796" d="M353.481,122.109c-.434,4.07,1.422,7.663,4.145,8.028s5.283-2.639,5.717-6.709-1.422-7.663-4.146-8.028-5.283,2.639-5.717,6.709" transform="translate(-163.567 -53.395)" fill="#ffb692"/>
          <path id="Trazado_600797" data-name="Trazado 600797" d="M357.837,124.522a2.311,2.311,0,0,0-1.214.176c.005-.068.008-.134.015-.2.287-2.689,1.977-4.673,3.777-4.432s3.025,2.616,2.739,5.3a5.1,5.1,0,0,1-2.563,4.257c.205-2.6-1-4.867-2.754-5.1" transform="translate(-165.05 -55.558)" fill="#d88d87"/>
          <path id="Trazado_600798" data-name="Trazado 600798" d="M366.458,123.323c.3,5.471-2.993,10.1-7.351,10.337s-8.133-4-8.432-9.475,2.993-10.1,7.351-10.337,8.133,4,8.432,9.475" transform="translate(-162.289 -52.686)" fill="#fff"/>
          <path id="Trazado_600799" data-name="Trazado 600799" d="M372.813,122.976c.3,5.471-2.992,10.1-7.351,10.337s-8.133-4-8.432-9.475,2.993-10.1,7.351-10.337,8.133,4,8.432,9.475" transform="translate(-165.23 -52.525)" fill="#6d86aa"/>
          <path id="Trazado_600800" data-name="Trazado 600800" d="M372.275,127.463c.149,2.735-1.5,5.05-3.675,5.168s-4.067-2-4.216-4.737,1.5-5.05,3.675-5.169,4.066,2,4.216,4.738" transform="translate(-168.638 -56.797)" fill="#ffac52"/>
          <path id="Trazado_600801" data-name="Trazado 600801" d="M347.863,92.181c2.515-17.576-7.767-28.208-20.442-29.41l3.875-.48s23.331-.086,21.559,30.227Z" transform="translate(-151.535 -28.829)" fill="#6d86aa"/>
          <path id="Trazado_600802" data-name="Trazado 600802" d="M271.609,149.458c-.438,13.867,13.747,12.716,13.747,12.716" transform="translate(-125.7 -69.171)" fill="none" stroke="#6d86aa" stroke-miterlimit="10" stroke-width="2"/>
          <path id="Trazado_600803" data-name="Trazado 600803" d="M297.779,173.31l-2.321.069a1.593,1.593,0,0,1-.095-3.184l2.321-.069a1.593,1.593,0,0,1,.095,3.184" transform="translate(-135.983 -78.737)" fill="#fff"/>
          <path id="Trazado_600804" data-name="Trazado 600804" d="M426.793,0H388a9.363,9.363,0,0,0-9.363,9.363V28.758a9.356,9.356,0,0,0,8.694,9.329V48.6L397.813,38.12h28.981a9.362,9.362,0,0,0,9.363-9.363V9.363A9.363,9.363,0,0,0,426.793,0" transform="translate(-175.24)" fill="#144567"/>
          <path id="Trazado_600805" data-name="Trazado 600805" d="M403.861,29.526a4.015,4.015,0,1,0,4.015,4.015,4.016,4.016,0,0,0-4.015-4.015" transform="translate(-185.054 -13.665)" fill="#fff"/>
          <path id="Trazado_600806" data-name="Trazado 600806" d="M428.715,29.526a4.015,4.015,0,1,0,4.015,4.015,4.016,4.016,0,0,0-4.015-4.015" transform="translate(-196.557 -13.665)" fill="#fff"/>
          <path id="Trazado_600807" data-name="Trazado 600807" d="M453.568,29.526a4.015,4.015,0,1,0,4.015,4.015,4.016,4.016,0,0,0-4.015-4.015" transform="translate(-208.059 -13.665)" fill="#fff"/>
          <path id="Trazado_600808" data-name="Trazado 600808" d="M287.668,375.6H7.332a7.332,7.332,0,0,1,0-14.663H287.668a7.332,7.332,0,1,1,0,14.663" transform="translate(0 -167.046)" fill="#144567"/>
          <path id="Trazado_600809" data-name="Trazado 600809" d="M86.593,307.227l76.776-.01-16.032-53.985H70.64Z" transform="translate(-32.693 -117.199)" fill="#fff"/>
          <rect id="Rectángulo_46581" data-name="Rectángulo 46581" width="112.278" height="3.835" transform="translate(53.906 190.008)" fill="#a0b8e8"/>
          <rect id="Rectángulo_46582" data-name="Rectángulo 46582" width="76.767" height="3.835" transform="translate(53.906 190.008)" fill="#eff6ff"/>
          <path id="Trazado_600810" data-name="Trazado 600810" d="M213.415,253.232h2.914l16.26,54.148-3.145-.172Z" transform="translate(-98.772 -117.199)" fill="#8ba6d1"/>
          <path id="Trazado_600811" data-name="Trazado 600811" d="M141.9,304.439c1.256,3.858,4.952,6.113,8.255,5.038s4.963-5.075,3.707-8.932-4.952-6.113-8.255-5.038-4.962,5.074-3.706,8.932" transform="translate(-65.481 -136.641)" fill="#a0b8e8"/>
          <path id="Trazado_600812" data-name="Trazado 600812" d="M445.176,336.036H432.7a4.457,4.457,0,0,1-4.457-4.456V307.141h21.387V331.58a4.456,4.456,0,0,1-4.456,4.456" transform="translate(-198.198 -142.149)" fill="#fff"/>
          <path id="Trazado_600813" data-name="Trazado 600813" d="M468.116,332.79h-6.939V312.541h6.939a5.922,5.922,0,0,1,5.915,5.916v8.418a5.922,5.922,0,0,1-5.915,5.915m-3.868-3.072h3.868a2.847,2.847,0,0,0,2.844-2.843v-8.418a2.848,2.848,0,0,0-2.844-2.844h-3.868Z" transform="translate(-213.439 -144.648)" fill="#fff"/>
          <path id="Trazado_600814" data-name="Trazado 600814" d="M433.327,346.629h11.225a5.081,5.081,0,0,0,5.081-5.081v-3.327c-5.823,4.257-14.351-5.1-21.387-8.193v11.519a5.081,5.081,0,0,0,5.081,5.081" transform="translate(-198.198 -152.742)" fill="#eff6ff"/>
          <path id="Trazado_600815" data-name="Trazado 600815" d="M470.717,150.955h-62.64a2.882,2.882,0,0,0-2.883,2.883v4.134l-7.593,3.81,7.593,3.81v4.134a2.883,2.883,0,0,0,2.883,2.883h62.64a2.883,2.883,0,0,0,2.883-2.883V153.838a2.883,2.883,0,0,0-2.883-2.883" transform="translate(-184.016 -69.864)" fill="#833343"/>
          <path id="Trazado_600816" data-name="Trazado 600816" d="M424.494,170.831l-2.87,1.021.084-3.045-1.858-2.414,2.922-.861,1.722-2.512,1.722,2.512,2.921.861-1.857,2.414.083,3.045Z" transform="translate(-194.313 -75.448)" fill="#ffc154"/>
          <path id="Trazado_600817" data-name="Trazado 600817" d="M448.113,170.831l-2.87,1.021.083-3.045-1.857-2.414,2.921-.861,1.722-2.512,1.722,2.512,2.922.861-1.858,2.414.084,3.045Z" transform="translate(-205.244 -75.448)" fill="#ffc154"/>
          <path id="Trazado_600818" data-name="Trazado 600818" d="M471.732,170.831l-2.87,1.021.083-3.045-1.857-2.414,2.921-.861,1.722-2.512,1.722,2.512,2.922.861-1.858,2.414.084,3.045Z" transform="translate(-216.175 -75.448)" fill="#ffc154"/>
          <path id="Trazado_600819" data-name="Trazado 600819" d="M495.352,170.831l-2.87,1.021.084-3.045-1.858-2.414,2.922-.861,1.722-2.512,1.722,2.512,2.921.861-1.857,2.414.083,3.045Z" transform="translate(-227.107 -75.448)" fill="#ffc154"/>
          <path id="Trazado_600820" data-name="Trazado 600820" d="M518.971,170.831l-2.87,1.021.083-3.045-1.857-2.414,2.921-.861,1.722-2.512,1.722,2.512,2.922.861-1.858,2.414.084,3.045Z" transform="translate(-238.038 -75.448)" fill="#fff"/>
        </g>
      </g>
    </g>
  </g>
</svg>
