<svg xmlns="http://www.w3.org/2000/svg" xmlns:xlink="http://www.w3.org/1999/xlink" width="167.17" height="167.17" viewBox="0 0 167.17 167.17">
  <defs>
    <linearGradient id="linear-gradient" x1="0.5" x2="0.5" y2="1" gradientUnits="objectBoundingBox">
      <stop offset="0" stop-color="#fff"/>
      <stop offset="1" stop-color="#ececec"/>
    </linearGradient>
    <clipPath id="clip-path">
      <rect id="Rectángulo_46859" data-name="Rectángulo 46859" width="78.206" height="111.965" fill="none"/>
    </clipPath>
  </defs>
  <g id="Grupo_160858" data-name="Grupo 160858" transform="translate(6263 5041)">
    <path id="Trazado_600921" data-name="Trazado 600921" d="M105.982,0,22.4,22.4,0,105.981,61.188,167.17l83.585-22.4,22.4-83.586Z" transform="translate(-6263 -5041)" fill="url(#linear-gradient)"/>
    <path id="Trazado_601794" data-name="Trazado 601794" d="M-.2-1.47,2.22-2.828v46l-2.279,1.25Z" transform="matrix(0.259, 0.966, -0.966, 0.259, -6195.307, -5040.075)" fill="#833343"/>
    <g id="Grupo_160857" data-name="Grupo 160857" transform="translate(-6220 -5011.634)">
      <rect id="Rectángulo_46851" data-name="Rectángulo 46851" width="29.574" height="8.365" transform="translate(4.228 103.6)" fill="#9b7676"/>
      <rect id="Rectángulo_46852" data-name="Rectángulo 46852" width="23.237" height="8.364" transform="translate(38.027 103.601)" fill="#afafaf"/>
      <g id="Grupo_160856" data-name="Grupo 160856">
        <g id="Grupo_160855" data-name="Grupo 160855" clip-path="url(#clip-path)">
          <path id="Trazado_601840" data-name="Trazado 601840" d="M96.118,181.208c.061,2.328.03,4.659.03,7.09H66.6V148.337H62.411v29.413H53.9v-1.3q0-11.748,0-23.5A15.483,15.483,0,0,1,69.109,137.7c1.926,0,3.851,0,5.915,0v1.657c0,12.54-.016,25.08.035,37.62a5.619,5.619,0,0,0,.8,2.682c1.069,1.816,2.3,3.541,3.485,5.284,1.222,1.789,2.777,1.8,4.006.055a2.419,2.419,0,0,1,.149-.218c3.483-3.922,4.489-8.427,4.308-13.686-.364-10.592-.109-21.2-.109-31.809v-1.491a71.9,71.9,0,0,1,8.878.061c6.637.848,11.861,6.908,12.217,13.763.028.527.029,1.056.029,1.584,0,7.435,0,16.987,0,24.531h-8.409V148.341H96.229" transform="translate(-34.883 -89.109)" fill="#dcc0a8"/>
          <path id="Trazado_601841" data-name="Trazado 601841" d="M107.544,36.085h15.169c.027.392.074.77.075,1.148,0,4.749-.048,9.5.022,14.246a5.672,5.672,0,0,1-3.981,5.967c-3.173,1.224-4.482,3.309-4.487,6.7,0,1.136,0,2.272,0,3.49h-4.226c0-1.3.013-2.559,0-3.821-.037-2.925-1.3-5.157-4.069-6.173-3.244-1.192-4.45-3.364-4.456-6.759,0-2.418.425-4.335,2.441-5.788a5.822,5.822,0,0,0,2.232-3.89c.322-1.716.842-3.395,1.284-5.123m4.579,4.246h-4.037v4.107h4.037Zm8.492.018h-4.061v4.07h4.061Z" transform="translate(-65.751 -23.356)" fill="#ffdec2"/>
          <path id="Trazado_601842" data-name="Trazado 601842" d="M127.733,195.846a7.878,7.878,0,0,1-2.145-5.444c.147-9.015.061-18.034.061-27.052v-1.475h4.226v1.4c0,8.886-.076,17.772.051,26.656a7.661,7.661,0,0,1-2.193,5.919" transform="translate(-81.285 -104.772)" fill="#91e8d6"/>
          <path id="Trazado_601843" data-name="Trazado 601843" d="M122.855,12v4.2h-3.314q-6.528,0-13.055,0c-1.609,0-2.208.468-2.611,2.02-.624,2.4-1.225,4.808-2.036,7.181,0-2.65-.164-5.313.044-7.946a5.948,5.948,0,0,1,5.591-5.415C112.561,11.9,117.655,12,122.855,12" transform="translate(-65.874 -7.746)" fill="#af6848"/>
          <path id="Trazado_601844" data-name="Trazado 601844" d="M63.153,270c-2.017,0-3.98.024-5.941-.028a1.041,1.041,0,0,1-.776-.6c-.418-1.829-.757-3.676-1.14-5.618h7.857Z" transform="translate(-35.79 -170.709)" fill="#ffdec2"/>
          <rect id="Rectángulo_46853" data-name="Rectángulo 46853" width="4.072" height="4.063" transform="translate(44.429 48.691)" fill="#91e8d6"/>
          <rect id="Rectángulo_46854" data-name="Rectángulo 46854" width="4.037" height="4.106" transform="translate(42.335 16.976)"/>
          <rect id="Rectángulo_46855" data-name="Rectángulo 46855" width="4.061" height="4.07" transform="translate(50.803 16.994)"/>
          <path id="Trazado_601845" data-name="Trazado 601845" d="M178.06,167.909h-4.185v27.148c-.092.042.3.085.212.127h3.973Z" transform="translate(-112.529 -108.677)"/>
          <path id="Trazado_601846" data-name="Trazado 601846" d="M61.264,93.768c.018,1.778,0,3.57,0,5.421H31.722V59.228H27.528V88.641H19.015v-1.3q0-11.749,0-23.5A15.483,15.483,0,0,1,34.226,48.592c1.926,0,3.851,0,5.915,0v1.657c0,12.54-.016,25.08.035,37.62a5.616,5.616,0,0,0,.8,2.682c1.069,1.816,2.295,3.54,3.485,5.283,1.222,1.789,2.777,1.8,4.006.055a2.4,2.4,0,0,1,.149-.218C52.1,91.75,53.1,87.245,52.923,81.986c-.364-10.591-.109-21.2-.109-31.809V48.686a71.827,71.827,0,0,1,8.878.061c6.638.848,11.861,6.908,12.218,13.762.027.527.029,1.056.029,1.584,0,7.436,0,14.871,0,22.415l4.224-.192V64.236c0-6.947-2.567-11.091-4.291-13.093v.013c-4.079-4.092-6.5-5.805-10.264-6.373a77.868,77.868,0,0,0-8.677-.411c-.684-.026-1.37,0-2.118,0,0-1.283,0-2.379,0-3.475.005-1.862.272-2.256,1.992-2.964,4.433-1.824,6.442-4.77,6.452-9.57q.025-12.8,0-25.609c0-2.047-.714-2.74-2.8-2.741C53.18,0,47.9-.007,42.619.01A10.546,10.546,0,0,0,31.7,10.9q-.029,8.712.013,17.425a14.031,14.031,0,0,0,.388,3.26c.816,3.281,3.122,5.2,6.145,6.373.97.375,1.8.873,1.861,1.98.082,1.434.02,2.876.02,4.528-6.157-.454-12.083-.234-17.13,3.6-.814.645-4.928,4.043-6.706,8.278a19.134,19.134,0,0,0-1.5,7.208c0,8.886-.107,17.774.067,26.657.053,2.686.89,5.356,1.366,8.034.053.3.1.6.172,1.046H13.2c-3.563,0-7.126-.011-10.69.005C.782,99.3.018,100.074.01,101.8-.007,105.191,0,108.578,0,111.965H4.229V103.6H33.8v8.365h4.225V103.6H61.265v8.364h4.224V98.053ZM46.449,91.075A7.881,7.881,0,0,1,44.3,85.631c.147-9.015.061-18.035.061-27.052V57.1h4.226v1.4c0,8.886-.076,17.773.052,26.656a7.664,7.664,0,0,1-2.193,5.919M44.43,48.691H48.5v4.063H44.43ZM36.009,9.714A5.948,5.948,0,0,1,41.6,4.3c5.088-.144,10.182-.04,15.381-.04v4.2H53.667q-6.528,0-13.055,0C39,8.463,38.4,8.927,38,10.479c-.624,2.4-1.225,4.808-2.036,7.181,0-2.65-.164-5.313.044-7.946M35.837,27.53c0-2.418.424-4.335,2.441-5.788a5.818,5.818,0,0,0,2.232-3.889c.322-1.716.842-3.395,1.284-5.123H56.963c.026.392.074.77.074,1.148,0,4.749-.048,9.5.022,14.247a5.671,5.671,0,0,1-3.98,5.967c-3.174,1.224-4.483,3.309-4.488,6.7,0,1.136,0,2.272,0,3.491H44.365c0-1.3.013-2.559,0-3.821-.037-2.925-1.3-5.157-4.07-6.174-3.244-1.191-4.45-3.364-4.455-6.759M27.364,99.29c-2.017,0-3.98.024-5.941-.028a1.041,1.041,0,0,1-.776-.6c-.418-1.829-.757-3.676-1.14-5.618h7.857Z" transform="translate(0 0)"/>
          <rect id="Rectángulo_46856" data-name="Rectángulo 46856" width="4.266" height="28.032" transform="translate(61.264 73.878)"/>
          <rect id="Rectángulo_46857" data-name="Rectángulo 46857" width="4.266" height="19.163" transform="translate(73.939 73.878)"/>
          <rect id="Rectángulo_46858" data-name="Rectángulo 46858" width="15.132" height="4.332" transform="translate(63.024 88.709)"/>
          <path id="Trazado_601847" data-name="Trazado 601847" d="M195.853,259.126l1.332,1.631L193.3,272.225h-9.4v-3.75h6.25l3.1-9.35Z" transform="translate(-119.029 -167.716)"/>
          <path id="Trazado_601848" data-name="Trazado 601848" d="M193.84,263.749l-2.559,7.719h-5.635v-7.719Z" transform="translate(-120.157 -170.708)" fill="#ffdec2"/>
        </g>
      </g>
    </g>
  </g>
</svg>
