<svg xmlns="http://www.w3.org/2000/svg" xmlns:xlink="http://www.w3.org/1999/xlink" width="167.17" height="167.17" viewBox="0 0 167.17 167.17">
  <defs>
    <linearGradient id="linear-gradient" x1="0.5" x2="0.5" y2="1" gradientUnits="objectBoundingBox">
      <stop offset="0" stop-color="#fff"/>
      <stop offset="1" stop-color="#ececec"/>
    </linearGradient>
    <clipPath id="clip-path">
      <rect id="Rectángulo_46824" data-name="Rectángulo 46824" width="105" height="94.47" fill="none"/>
    </clipPath>
    <clipPath id="clip-path-2">
      <rect id="Rectángulo_46826" data-name="Rectángulo 46826" width="19.564" height="20.969" fill="none"/>
    </clipPath>
  </defs>
  <g id="Grupo_160854" data-name="Grupo 160854" transform="translate(-365 -6659)">
    <g id="Grupo_160840" data-name="Grupo 160840">
      <path id="Trazado_600879" data-name="Trazado 600879" d="M105.982,0,22.4,22.4,0,105.981,61.188,167.17l83.585-22.4,22.4-83.586Z" transform="translate(365 6659)" fill="url(#linear-gradient)"/>
      <path id="Trazado_601790" data-name="Trazado 601790" d="M-.2-1.47,2.22-2.828v46l-2.279,1.25Z" transform="matrix(0.259, 0.966, -0.966, 0.259, 432.331, 6659.925)" fill="#833343"/>
      <g id="Grupo_160839" data-name="Grupo 160839">
        <g id="Grupo_160835" data-name="Grupo 160835" transform="translate(0.5 -0.122)">
          <g id="Grupo_160834" data-name="Grupo 160834" transform="translate(395.5 6695.122)">
            <g id="Grupo_160833" data-name="Grupo 160833" clip-path="url(#clip-path)">
              <path id="Trazado_601778" data-name="Trazado 601778" d="M117.528,68.047V11.977h-1.16q-31.367,0-62.735,0c-3.88,0-5.981,2.119-5.982,6.028q0,17.709,0,35.419c0,2.331-.463,4.8.16,6.956.655,2.266,2.359,4.227,3.6,6.326.43.728.961,1.341,1.889,1.221.955-.124,1.367-.814,1.6-1.7.625-2.425,1.244-4.855,1.964-7.253A5.26,5.26,0,0,1,66.96,61.9c-.81,3.155-1.667,6.3-2.515,9.489h39.171c0-.451,0-.844,0-1.236,0-3.68-.013-7.361,0-11.041a5.242,5.242,0,0,1,10.482,0c.018,2.66,0,5.32.006,7.98,0,.347.028.694.04.952Z" transform="translate(-33.622 -8.48)" fill="#def8f3"/>
              <path id="Trazado_601779" data-name="Trazado 601779" d="M299.786,69.883c2.14-.323,3.3-.344,4.335.561a4.868,4.868,0,0,0,3.613,1.015c3.889-.033,5.992-2.123,5.993-6.027q0-17.321,0-34.642,0-6.448,0-12.9c0-3.76-2.141-5.914-5.869-5.92q-3.551-.006-7.1,0c-.315,0-.631.037-.97.058Z" transform="translate(-212.255 -8.476)" fill="#91e8d6"/>
              <path id="Trazado_601780" data-name="Trazado 601780" d="M100.925,65.1a32.006,32.006,0,0,1,.522,3.846c.057,4.845.032,9.692.011,14.538a4.522,4.522,0,0,1-.274,1.589c-1.027,2.641-2.126,5.254-3.146,7.9a2.1,2.1,0,0,1-2.231,1.5q-12.677-.042-25.354,0a2.3,2.3,0,0,1-2.225-1.235c-1.563-2.668-3.2-5.294-4.747-7.969a3.669,3.669,0,0,1-.463-1.74c-.035-5.064-.025-10.129-.014-15.194,0-.575.1-1.151.153-1.795H29.909a14.155,14.155,0,0,0-.128,1.831A13.607,13.607,0,0,1,28.029,75.7c-.689,1.281-1.29,2.609-1.965,3.9a13.7,13.7,0,0,0-1.545,6.621c.021,2.113.016,4.227,0,6.34a1.669,1.669,0,0,1-1.771,1.892q-10.491.023-20.983,0A1.644,1.644,0,0,1,.045,92.72c-.014-.254,0-.51,0-.765C.041,77.2.12,62.441,0,47.685A12.56,12.56,0,0,1,10.534,35.079V33.848q0-12.461,0-24.923A8.673,8.673,0,0,1,19.412,0Q57.772,0,96.132,0a8.664,8.664,0,0,1,8.834,8.855c.006,15.923-.041,31.846.035,47.769.017,3.7-1.171,6.6-4.075,8.473M83.907,59.567V3.5H20.012c-3.88,0-5.981,2.119-5.982,6.028q0,17.709,0,35.419c0,2.331-.463,4.8.16,6.956.655,2.266,2.359,4.227,3.6,6.326.43.728.961,1.341,1.889,1.221.955-.124,1.367-.814,1.6-1.7.625-2.426,1.244-4.855,1.964-7.253a5.26,5.26,0,0,1,10.1,2.932c-.81,3.155-1.667,6.3-2.515,9.489H69.994V61.675c0-3.68-.013-7.361,0-11.041a5.242,5.242,0,0,1,10.482,0c.018,2.66,0,5.32.006,7.98,0,.347.028.694.039.952ZM21.027,90.906c0-1.462-.052-2.876.014-4.284a17.319,17.319,0,0,1,.449-4.639A62.212,62.212,0,0,1,24.739,74.4a13.222,13.222,0,0,0,1.548-6.6,6.685,6.685,0,0,1,.161-1.948c1.108-4.363,2.263-8.714,3.381-13.074a2.57,2.57,0,0,0,.059-1.27,1.565,1.565,0,0,0-1.629-1.2,1.719,1.719,0,0,0-1.694,1.437c-.646,2.383-1.259,4.775-1.912,7.156a5.106,5.106,0,0,1-4.262,4.028,5.08,5.08,0,0,1-5.514-2.676c-1.265-2.126-2.582-4.222-3.8-6.374a4.2,4.2,0,0,1-.518-1.942c-.047-4.008-.023-8.017-.023-12.025V38.741a8.626,8.626,0,0,0-6.985,8.6Q3.505,68.763,3.541,90.19a5.956,5.956,0,0,0,.085.715Zm66.5-29.5c2.14-.323,3.3-.344,4.335.561a4.867,4.867,0,0,0,3.613,1.015c3.889-.033,5.992-2.123,5.993-6.027q0-17.321,0-34.642,0-6.447,0-12.895c0-3.76-2.141-5.914-5.869-5.92q-3.551-.006-7.1,0c-.315,0-.631.036-.97.058ZM83.985,71.661c0-.325,0-.575,0-.824,0-2,.027-4.007-.016-6.009A1.77,1.77,0,0,0,82.2,62.984a1.819,1.819,0,0,0-1.7,1.8c-.031.4-.01.8-.01,1.2q0,2.822,0,5.647h-3.5V70.258q0-9.56,0-19.121c0-1.284-.681-2.111-1.7-2.147-1.053-.037-1.771.824-1.8,2.158,0,.255,0,.51,0,.765V78.628h-3.5c0-3.323.019-6.562-.018-9.8a2.419,2.419,0,0,0-.434-1.609,2.471,2.471,0,0,0-1.791-.577c-.956.14-1.256.99-1.256,1.908,0,4.771-.01,9.543.017,14.314a2.564,2.564,0,0,0,.394,1.2c1.211,2.072,2.431,4.141,3.714,6.168a1.64,1.64,0,0,0,1.152.694c7.5.041,15,.023,22.5.044a.94.94,0,0,0,1.032-.7c.8-2.066,1.638-4.116,2.443-6.179a2.988,2.988,0,0,0,.216-1.051q.021-7.211.005-14.423c0-1.277-.694-2.107-1.711-2.133-1.056-.027-1.766.828-1.782,2.171-.012,1,0,2.007,0,3.008h-3.5c0-1.682.025-3.312-.008-4.94-.027-1.372-1.055-2.256-2.169-1.907a1.859,1.859,0,0,0-1.324,2.018c.006,1.593,0,3.185,0,4.83Z" transform="translate(0 0)"/>
              <path id="Trazado_601781" data-name="Trazado 601781" d="M89.546,69.941c-2.737-.091-4.645-1.284-5.428-3.932A5.127,5.127,0,0,1,89,59.434a3.338,3.338,0,0,0,3.405-1.864,18.11,18.11,0,0,1,10.188-7.786c.338-.111.674-.227,1.006-.34-.824-3.062-.26-5.146,1.754-6.584a5.29,5.29,0,0,1,6.039-.062c2.082,1.445,2.672,3.537,1.837,6.672a19.962,19.962,0,0,1,7.052,3.508,17.465,17.465,0,0,1,4.637,5.313,1.812,1.812,0,0,0,2.044,1.114,5.264,5.264,0,1,1,.918,10.478c-.177.009-.354.027-.589.045-.328,1.321-.646,2.619-.973,3.915A3.574,3.574,0,0,1,122.4,76.88q-13.986,0-27.972,0a3.577,3.577,0,0,1-3.914-3.037c-.328-1.295-.644-2.592-.969-3.9m18.887-3.553q9.4,0,18.792,0c1.333,0,2.2-.74,2.163-1.791-.032-1.019-.859-1.677-2.141-1.7-.182,0-.364,0-.546,0H90.1c-.291,0-.585-.017-.874.009a1.741,1.741,0,1,0-.022,3.481c.289.028.582.01.874.01h18.355m12.981-7.048c-3.284-4.514-7.564-6.89-12.942-6.9-5.42-.014-9.742,2.352-13.051,6.9ZM94.054,73.313h28.732l.817-3.387H93.232l.822,3.387m14.409-24.432a1.739,1.739,0,1,0-1.782-1.719,1.835,1.835,0,0,0,1.782,1.719" transform="translate(-59.411 -29.654)"/>
              <path id="Trazado_601782" data-name="Trazado 601782" d="M316.1,101.109a5.244,5.244,0,1,1-5.125-5.249,5.2,5.2,0,0,1,5.125,5.249m-3.51-.019a1.737,1.737,0,1,0-1.751,1.752,1.834,1.834,0,0,0,1.751-1.752" transform="translate(-216.38 -67.871)"/>
              <path id="Trazado_601783" data-name="Trazado 601783" d="M245.223,190.457c0-.325,0-.575,0-.824,0-2,.027-4.007-.016-6.009a1.77,1.77,0,0,0-1.769-1.844,1.819,1.819,0,0,0-1.7,1.8c-.031.4-.01.8-.01,1.2q0,2.822,0,5.647h-3.5v-1.379q0-9.56,0-19.121c0-1.284-.681-2.111-1.7-2.147-1.053-.037-1.771.824-1.8,2.158,0,.255,0,.51,0,.765v26.716h-3.5c0-3.323.019-6.562-.018-9.8a2.419,2.419,0,0,0-.434-1.609,2.471,2.471,0,0,0-1.791-.577c-.956.14-1.255.99-1.255,1.908,0,4.771-.01,9.543.017,14.314a2.564,2.564,0,0,0,.394,1.2c1.211,2.072,2.431,4.141,3.714,6.168a1.64,1.64,0,0,0,1.152.694c7.5.041,15,.023,22.5.044a.94.94,0,0,0,1.032-.7c.8-2.066,1.638-4.116,2.443-6.179a2.988,2.988,0,0,0,.216-1.051q.021-7.211.005-14.423c0-1.277-.694-2.107-1.711-2.133-1.056-.027-1.766.828-1.782,2.171-.012,1,0,2.007,0,3.008h-3.5c0-1.682.025-3.312-.008-4.94-.027-1.372-1.055-2.256-2.169-1.907a1.859,1.859,0,0,0-1.324,2.018c.006,1.593,0,3.185,0,4.83Z" transform="translate(-161.239 -118.796)" fill="#ffdec2"/>
              <path id="Trazado_601784" data-name="Trazado 601784" d="M29.591,184.85c0-1.462-.052-2.876.014-4.284a17.32,17.32,0,0,1,.449-4.639A62.187,62.187,0,0,1,33.3,168.34a13.224,13.224,0,0,0,1.548-6.605,6.685,6.685,0,0,1,.161-1.948c1.108-4.363,2.263-8.714,3.382-13.074a2.569,2.569,0,0,0,.059-1.27,1.565,1.565,0,0,0-1.629-1.2,1.719,1.719,0,0,0-1.694,1.437c-.647,2.383-1.259,4.775-1.912,7.156a5.276,5.276,0,0,1-9.776,1.352c-1.265-2.126-2.582-4.222-3.8-6.374a4.2,4.2,0,0,1-.519-1.942c-.046-4.008-.023-8.017-.023-12.025v-1.163a8.626,8.626,0,0,0-6.985,8.6q-.044,21.426-.008,42.853a5.9,5.9,0,0,0,.085.715Z" transform="translate(-8.565 -93.944)" fill="#ffdec2"/>
              <path id="Trazado_601785" data-name="Trazado 601785" d="M117.006,117.31q9.4,0,18.792,0c1.333,0,2.2-.74,2.163-1.791-.033-1.019-.859-1.678-2.141-1.7-.182,0-.364,0-.546,0h-36.6c-.291,0-.585-.017-.874.009a1.741,1.741,0,1,0-.022,3.481c.289.028.582.011.873.011h18.355" transform="translate(-67.983 -80.576)" fill="#fff492"/>
              <path id="Trazado_601786" data-name="Trazado 601786" d="M149.327,84.929c-3.283-4.514-7.563-6.89-12.942-6.9-5.42-.014-9.742,2.352-13.051,6.9Z" transform="translate(-87.323 -55.243)" fill="#fff492"/>
              <path id="Trazado_601787" data-name="Trazado 601787" d="M116.658,141.318H145.39l.817-3.387H115.836l.822,3.387" transform="translate(-82.014 -97.658)" fill="#fff492"/>
              <path id="Trazado_601788" data-name="Trazado 601788" d="M163.681,57.422A1.739,1.739,0,1,0,161.9,55.7a1.835,1.835,0,0,0,1.782,1.719" transform="translate(-114.628 -38.194)" fill="#fff492"/>
              <path id="Trazado_601789" data-name="Trazado 601789" d="M321.09,109.587a1.737,1.737,0,1,0-1.751,1.752,1.834,1.834,0,0,0,1.751-1.752" transform="translate(-224.879 -76.368)" fill="#f5f5f5"/>
            </g>
          </g>
        </g>
        <g id="Grupo_160838" data-name="Grupo 160838" transform="translate(457.381 6701.721)">
          <rect id="Rectángulo_46825" data-name="Rectángulo 46825" width="5.081" height="14.06" transform="translate(8.434 12.547) rotate(-40.871)"/>
          <g id="Grupo_160837" data-name="Grupo 160837" transform="translate(0 0)">
            <g id="Grupo_160836" data-name="Grupo 160836" clip-path="url(#clip-path-2)">
              <path id="Trazado_601795" data-name="Trazado 601795" d="M16.765,17.475a6.818,6.818,0,1,0-9.617-.694,6.818,6.818,0,0,0,9.617.694" transform="translate(-4.187 -4.2)" fill="#fff"/>
              <path id="Trazado_601796" data-name="Trazado 601796" d="M8.128,16.24q-.3,0-.6-.021A8.12,8.12,0,0,1,2.8,1.98,8.12,8.12,0,1,1,13.429,14.26a8.058,8.058,0,0,1-5.3,1.98M8.107,2.6a5.517,5.517,0,1,0,3.618,9.689h0A5.517,5.517,0,0,0,8.513,2.618q-.2-.015-.406-.015" transform="translate(0 0)"/>
            </g>
          </g>
        </g>
      </g>
    </g>
  </g>
</svg>
