<svg xmlns="http://www.w3.org/2000/svg" xmlns:xlink="http://www.w3.org/1999/xlink" width="820" height="232" viewBox="0 0 820 232">
  <defs>
    <clipPath id="clip-path">
      <rect id="Rectángulo_46628" data-name="Rectángulo 46628" width="18.266" height="23.916" fill="#144567"/>
    </clipPath>
    <clipPath id="clip-path-2">
      <rect id="Rectángulo_46628-2" data-name="Rectángulo 46628" width="18.266" height="23.916" fill="#636363"/>
    </clipPath>
    <clipPath id="clip-path-3">
      <rect id="Rectángulo_46628-3" data-name="Rectángulo 46628" width="18.266" height="23.916" fill="#395e56"/>
    </clipPath>
    <clipPath id="clip-path-4">
      <rect id="Rectángulo_46628-4" data-name="Rectángulo 46628" width="18.266" height="23.916" fill="#833343"/>
    </clipPath>
    <clipPath id="clip-path-5">
      <rect id="Rectángulo_46673" data-name="Rectángulo 46673" width="93.119" height="93.077" fill="#144567"/>
    </clipPath>
  </defs>
  <g id="Grupo_160610" data-name="Grupo 160610" transform="translate(-390 -4655)">
    <rect id="Rectángulo_46661" data-name="Rectángulo 46661" width="335" height="55" transform="translate(875 4655)" fill="#f6efe9"/>
    <rect id="Rectángulo_46664" data-name="Rectángulo 46664" width="335" height="55" transform="translate(390 4655)" fill="#e2e8ec"/>
    <rect id="Rectángulo_46662" data-name="Rectángulo 46662" width="335" height="55" transform="translate(875 4832)" fill="#e2e8ec"/>
    <rect id="Rectángulo_46663" data-name="Rectángulo 46663" width="335" height="55" transform="translate(390 4832)" fill="#f6efe9"/>
    <text id="Satisfacción" transform="translate(505 4672)" fill="#12263f" font-size="17" font-family="Roboto-Regular, Roboto"><tspan x="0" y="16">Satisfacción</tspan></text>
    <text id="Estrategias_de_marketing_y_publicidad" data-name="Estrategias de marketing y publicidad" transform="translate(900 4672)" fill="#12263f" font-size="17" font-family="Roboto-Regular, Roboto"><tspan x="0" y="18">Estrategias de </tspan><tspan y="18" font-family="Roboto-Italic, Roboto" font-style="italic">marketing </tspan><tspan y="18">y publicidad</tspan></text>
    <text id="Conocimiento_del_producto_o_servicio_" data-name="Conocimiento del producto o servicio " transform="translate(900 4850)" fill="#12263f" font-size="17" font-family="Roboto-Regular, Roboto"><tspan x="0" y="16">Conocimiento del producto o servicio </tspan></text>
    <text id="Comunicación_con_el_cliente" data-name="Comunicación con el cliente" transform="translate(449 4850)" fill="#12263f" font-size="17" font-family="Roboto-Regular, Roboto"><tspan x="0" y="16">Comunicación con el cliente</tspan></text>
    <g id="Grupo_160597" data-name="Grupo 160597" transform="translate(99 3102.918)">
      <g id="Grupo_160582" data-name="Grupo 160582" transform="translate(932 1634)">
        <g id="Grupo_160578" data-name="Grupo 160578" transform="translate(23.916 54.166) rotate(90)">
          <g id="Grupo_160577" data-name="Grupo 160577" transform="translate(0 0)" clip-path="url(#clip-path)">
            <path id="Trazado_600822" data-name="Trazado 600822" d="M1.787,23.916A1.787,1.787,0,0,1,.523,20.866l8.908-8.908L.523,3.05A1.787,1.787,0,0,1,3.05.523L13.222,10.695a1.787,1.787,0,0,1,0,2.527L3.05,23.393a1.784,1.784,0,0,1-1.263.523" transform="translate(4.521 0)" fill="#144567"/>
          </g>
        </g>
        <rect id="Rectángulo_46641" data-name="Rectángulo 46641" width="61.683" height="3.417" rx="1.708" transform="translate(13.667) rotate(90)" fill="#144567"/>
      </g>
      <path id="Trazado_600829" data-name="Trazado 600829" d="M1.266,16.944a1.266,1.266,0,0,1-.9-2.161L6.682,8.472.371,2.161A1.266,1.266,0,0,1,2.161.371L9.367,7.577a1.266,1.266,0,0,1,0,1.79L2.161,16.574a1.264,1.264,0,0,1-.9.371" transform="translate(952.5 1688.167) rotate(90)" fill="#144567"/>
    </g>
    <g id="Grupo_160600" data-name="Grupo 160600" transform="translate(1501.917 6443.35) rotate(180)">
      <g id="Grupo_160582-2" data-name="Grupo 160582" transform="translate(932 1634)">
        <g id="Grupo_160578-2" data-name="Grupo 160578" transform="translate(23.916 54.166) rotate(90)">
          <g id="Grupo_160577-2" data-name="Grupo 160577" transform="translate(0 0)" clip-path="url(#clip-path-2)">
            <path id="Trazado_600822-2" data-name="Trazado 600822" d="M1.787,23.916A1.787,1.787,0,0,1,.523,20.866l8.908-8.908L.523,3.05A1.787,1.787,0,0,1,3.05.523L13.222,10.695a1.787,1.787,0,0,1,0,2.527L3.05,23.393a1.784,1.784,0,0,1-1.263.523" transform="translate(4.521 0)" fill="#636363"/>
          </g>
        </g>
        <rect id="Rectángulo_46641-2" data-name="Rectángulo 46641" width="61.683" height="3.417" rx="1.708" transform="translate(13.667) rotate(90)" fill="#636363"/>
      </g>
      <path id="Trazado_600829-2" data-name="Trazado 600829" d="M1.266,16.944a1.266,1.266,0,0,1-.9-2.161L6.682,8.472.371,2.161A1.266,1.266,0,0,1,2.161.371L9.367,7.577a1.266,1.266,0,0,1,0,1.79L2.161,16.574a1.264,1.264,0,0,1-.9.371" transform="translate(952.5 1688.167) rotate(90)" fill="#636363"/>
    </g>
    <g id="Grupo_160598" data-name="Grupo 160598" transform="translate(2493.854 3914.083) rotate(90)">
      <g id="Grupo_160582-3" data-name="Grupo 160582" transform="translate(932 1634)">
        <g id="Grupo_160578-3" data-name="Grupo 160578" transform="translate(23.916 104.02) rotate(90)">
          <g id="Grupo_160577-3" data-name="Grupo 160577" transform="translate(0 0)" clip-path="url(#clip-path-3)">
            <path id="Trazado_600822-3" data-name="Trazado 600822" d="M1.787,23.916A1.787,1.787,0,0,1,.523,20.866l8.908-8.908L.523,3.05A1.787,1.787,0,0,1,3.05.523L13.222,10.695a1.787,1.787,0,0,1,0,2.527L3.05,23.393a1.784,1.784,0,0,1-1.263.523" transform="translate(4.521 0)" fill="#395e56"/>
          </g>
        </g>
        <rect id="Rectángulo_46641-3" data-name="Rectángulo 46641" width="111.537" height="3.417" rx="1.708" transform="translate(13.667) rotate(90)" fill="#395e56"/>
      </g>
      <path id="Trazado_600829-3" data-name="Trazado 600829" d="M1.266,16.944a1.266,1.266,0,0,1-.9-2.161L6.682,8.472.371,2.161A1.266,1.266,0,0,1,2.161.371L9.367,7.577a1.266,1.266,0,0,1,0,1.79L2.161,16.574a1.264,1.264,0,0,1-.9.371" transform="translate(952.5 1738.02) rotate(90)" fill="#395e56"/>
    </g>
    <g id="Grupo_160599" data-name="Grupo 160599" transform="translate(-896.433 5627.917) rotate(-90)">
      <g id="Grupo_160582-4" data-name="Grupo 160582" transform="translate(932 1634)">
        <g id="Grupo_160578-4" data-name="Grupo 160578" transform="translate(23.916 104.02) rotate(90)">
          <g id="Grupo_160577-4" data-name="Grupo 160577" transform="translate(0 0)" clip-path="url(#clip-path-4)">
            <path id="Trazado_600822-4" data-name="Trazado 600822" d="M1.787,23.916A1.787,1.787,0,0,1,.523,20.866l8.908-8.908L.523,3.05A1.787,1.787,0,0,1,3.05.523L13.222,10.695a1.787,1.787,0,0,1,0,2.527L3.05,23.393a1.784,1.784,0,0,1-1.263.523" transform="translate(4.521 0)" fill="#833343"/>
          </g>
        </g>
        <rect id="Rectángulo_46641-4" data-name="Rectángulo 46641" width="111.537" height="3.417" rx="1.708" transform="translate(13.667) rotate(90)" fill="#833343"/>
      </g>
      <path id="Trazado_600829-4" data-name="Trazado 600829" d="M1.266,16.944a1.266,1.266,0,0,1-.9-2.161L6.682,8.472.371,2.161A1.266,1.266,0,0,1,2.161.371L9.367,7.577a1.266,1.266,0,0,1,0,1.79L2.161,16.574a1.264,1.264,0,0,1-.9.371" transform="translate(952.5 1738.02) rotate(90)" fill="#833343"/>
    </g>
    <g id="Grupo_160607" data-name="Grupo 160607" transform="translate(753.44 4726.596)">
      <g id="Grupo_160606" data-name="Grupo 160606" clip-path="url(#clip-path-5)">
        <path id="Trazado_600848" data-name="Trazado 600848" d="M25.421,21.648A33.217,33.217,0,0,1,44.8,13.986a25.909,25.909,0,0,0-.041-2.9c-.032-.283-.518-.566-.85-.754a5.518,5.518,0,0,1-2.714-6.214,5.528,5.528,0,0,1,10.682-.04,5.35,5.35,0,0,1-2.677,6.2,1.436,1.436,0,0,0-.916,1.61c.057.651.012,1.311.012,2.09a33.03,33.03,0,0,1,19.425,7.734c1.743-1.615,3.468-3.211,5.189-4.81,1.936-1.8,3.84-3.632,5.819-5.383a1.643,1.643,0,0,0,.582-1.948,5.374,5.374,0,0,1,2.758-6.156,5.524,5.524,0,0,1,7.03,8.142,5.875,5.875,0,0,1-6.36,1.981,1.427,1.427,0,0,0-1.165.142c-3.717,3.405-7.4,6.853-11.082,10.292a1.089,1.089,0,0,0-.129.226,33.084,33.084,0,0,1,8.984,20.6,20.506,20.506,0,0,0,2.592-.038c.293-.038.6-.478.781-.8a5.443,5.443,0,0,1,5.471-2.876,5.288,5.288,0,0,1,4.648,3.794,5.481,5.481,0,0,1-2.895,6.651A5.319,5.319,0,0,1,83.017,49.5a2.073,2.073,0,0,0-2.377-1.228,10.344,10.344,0,0,1-1.265.008A33.229,33.229,0,0,1,70.569,69.2c.467.382.921.7,1.315,1.081q5.1,4.93,10.173,9.888a1.4,1.4,0,0,0,1.539.435A5.414,5.414,0,0,1,89.7,83.3a5.5,5.5,0,1,1-9.9.628,2.472,2.472,0,0,0-.019-1.081c-.013-.107-.186-.2-.286-.292L68.184,71.57c-.974.736-1.891,1.475-2.853,2.147A31.773,31.773,0,0,1,49.257,79.5c-.781.059-.966.325-.987,1.069a2.272,2.272,0,0,0,1.276,2.47A5.178,5.178,0,0,1,51.808,89.2a5.487,5.487,0,0,1-5.446,3.88,5.5,5.5,0,0,1-2.63-10.233c.37-.222.942-.449,1.009-.762a6.43,6.43,0,0,0,0-2.172c-.022-.162-.535-.348-.834-.373a32.563,32.563,0,0,1-16.766-6.255c-.7-.509-1.37-1.062-2.116-1.643-.211.183-.418.348-.607.531-3.468,3.367-6.923,6.746-10.411,10.092a1.223,1.223,0,0,0-.363,1.43c.617,2.249-.387,6.355-3.31,7.128A5.607,5.607,0,0,1,3.474,87.6,5.3,5.3,0,0,1,4.5,81.866a5.365,5.365,0,0,1,5.506-1.631,1.518,1.518,0,0,0,1.179-.15c3.7-3.529,7.353-7.1,11.017-10.664a2.358,2.358,0,0,0,.22-.32,33.033,33.033,0,0,1-8.7-20.817,20.018,20.018,0,0,0-2.6.04c-.29.039-.58.5-.766.833a5.52,5.52,0,0,1-6.005,2.781,5.6,5.6,0,0,1-4.32-4.791,5.54,5.54,0,0,1,3.368-5.691A5.37,5.37,0,0,1,10.231,43.8c.426.782.864,1.148,1.755,1.02a11.068,11.068,0,0,1,1.6-.014c.424-2.231.767-4.381,1.257-6.5a31.621,31.621,0,0,1,1.266-3.852c.474-1.274,1.38-1.767,2.39-1.4,1.028.374,1.379,1.423.876,2.7a28.238,28.238,0,0,0,.13,22.327C24.137,68.708,32.374,74.85,43.952,75.958a29.286,29.286,0,0,0,7.732-58.009A28.777,28.777,0,0,0,26.16,25.733a2,2,0,0,1-2.232.691,1.751,1.751,0,0,1-1.1-2.025c.027-.232-.226-.554-.432-.747q-5.407-5.061-10.853-10.08a1.64,1.64,0,0,0-1.078-.259c-.619.025-1.233.23-1.852.244a5.052,5.052,0,0,1-5.523-5.3,5.494,5.494,0,1,1,10.981.278,1.556,1.556,0,0,1-.065.618c-.7,1.323.12,2.035,1,2.841,3.466,3.162,6.885,6.376,10.409,9.652M3.522,46.555a1.975,1.975,0,0,0,1.955,2,2.022,2.022,0,0,0,.074-4.043,1.985,1.985,0,0,0-2.03,2.038m86.05.018a1.978,1.978,0,0,0-2.006-2.056,2.022,2.022,0,0,0,.038,4.044,1.97,1.97,0,0,0,1.968-1.988M48.561,5.547a2.017,2.017,0,0,0-4.032-.07,2.016,2.016,0,0,0,4.032.07M8.49,10.308a2.047,2.047,0,0,0,2.13-1.956A2.1,2.1,0,0,0,8.687,6.287,2.087,2.087,0,0,0,6.559,8.259a2.047,2.047,0,0,0,1.931,2.05m.144,77.28a2.094,2.094,0,0,0,1.983-2.014,2.129,2.129,0,0,0-2.072-2.04,2.027,2.027,0,0,0,.089,4.054m37.872,1.964a1.967,1.967,0,0,0,2.055-2,2.017,2.017,0,0,0-4.033.026,1.967,1.967,0,0,0,1.978,1.973M82.629,8.262a2,2,0,1,0,4,.084,2,2,0,1,0-4-.084m.219,77.7a2,2,0,1,0,1.961-2.042,2.057,2.057,0,0,0-1.961,2.042" transform="translate(0 0)" fill="#144567"/>
        <path id="Trazado_600849" data-name="Trazado 600849" d="M115.835,136.049V115.113l-3.532,1.972c-1.334.746-2.65,1.525-4.008,2.224a1.309,1.309,0,0,0-.815,1.368c.038,3.65.019,7.3.018,10.951,0,2.05-.527,2.567-2.613,2.572-.762,0-1.524,0-2.542,0,.567.783,1.009,1.411,1.469,2.024a4.51,4.51,0,0,1,.9,3.829,4.38,4.38,0,0,1-3.419,3.55,4.476,4.476,0,0,1-4.914-1.72c-1.681-2.257-3.3-4.56-4.921-6.862a2,2,0,0,0-1.491-.947,4.719,4.719,0,0,1-4.179-4.389c-.129-2.7-.145-5.425-.006-8.128a4.9,4.9,0,0,1,5.148-4.571c4.277-.02,8.554-.029,12.83.011a5.352,5.352,0,0,0,2.853-.735c3.188-1.84,6.411-3.619,9.625-5.415,1.949-1.089,3.177-.378,3.177,1.838q0,12.881,0,25.761c0,2.278-1.222,2.98-3.233,1.859-2.427-1.353-4.864-2.688-7.262-4.09a2.264,2.264,0,0,1-1.111-1.25,2.478,2.478,0,0,1,.529-1.755,1.524,1.524,0,0,1,2.012-.176c1.461.8,2.911,1.624,4.369,2.434.327.182.665.345,1.119.579M103.926,120.5c-4.453,0-8.8-.015-13.138.011-1.064.006-1.563.6-1.575,1.784-.021,2.12-.014,4.24,0,6.36.007,1.55.5,2.034,2.086,2.037q5.162.01,10.324,0h2.309Zm-8.664,13.814c1.348,1.883,2.6,3.662,3.887,5.415a1.1,1.1,0,0,0,1.722.248,1.075,1.075,0,0,0,.132-1.651,24.274,24.274,0,0,1-1.983-2.664c-.843-1.548-2.1-1.674-3.758-1.349" transform="translate(-61.803 -79.595)" fill="#144567"/>
        <path id="Trazado_600850" data-name="Trazado 600850" d="M218.884,105.249a5.531,5.531,0,0,1,1.276,1.265,1.443,1.443,0,0,1-.516,1.941c-2.529,1.573-5.079,3.113-7.661,4.6a1.718,1.718,0,0,1-1.739-2.929c2.524-1.579,5.091-3.091,7.65-4.614a4.841,4.841,0,0,1,.99-.259" transform="translate(-151.165 -75.919)" fill="#144567"/>
        <path id="Trazado_600851" data-name="Trazado 600851" d="M220.292,202.824c-.027,1.758-1.413,2.508-2.713,1.781-1.364-.762-2.688-1.595-4.027-2.4-1.012-.608-2.034-1.2-3.027-1.838a1.744,1.744,0,1,1,1.745-3.018c2.4,1.4,4.785,2.825,7.13,4.313a3.674,3.674,0,0,1,.892,1.161" transform="translate(-151.175 -142.151)" fill="#144567"/>
        <path id="Trazado_600852" data-name="Trazado 600852" d="M215.25,161.221c-1.147,0-2.3.023-3.441-.006a1.777,1.777,0,0,1-1.948-1.728,1.741,1.741,0,0,1,1.93-1.73q3.493-.028,6.987,0a1.731,1.731,0,1,1,.018,3.45c-1.181.034-2.364.008-3.545.008v.006" transform="translate(-151.378 -113.783)" fill="#144567"/>
      </g>
    </g>
  </g>
</svg>
