<svg xmlns="http://www.w3.org/2000/svg" xmlns:xlink="http://www.w3.org/1999/xlink" width="167.17" height="167.17" viewBox="0 0 167.17 167.17">
  <defs>
    <linearGradient id="linear-gradient" x1="0.5" x2="0.5" y2="1" gradientUnits="objectBoundingBox">
      <stop offset="0" stop-color="#fff"/>
      <stop offset="1" stop-color="#ececec"/>
    </linearGradient>
    <clipPath id="clip-path">
      <rect id="Rectángulo_46832" data-name="Rectángulo 46832" width="105" height="104.979" fill="none"/>
    </clipPath>
  </defs>
  <g id="Grupo_160853" data-name="Grupo 160853" transform="translate(-716 -6659)">
    <path id="Trazado_600880" data-name="Trazado 600880" d="M105.982,0,22.4,22.4,0,105.981,61.188,167.17l83.585-22.4,22.4-83.586Z" transform="translate(716 6659)" fill="url(#linear-gradient)"/>
    <path id="Trazado_601791" data-name="Trazado 601791" d="M-.2-1.47,2.22-2.828v46l-2.279,1.25Z" transform="matrix(0.259, 0.966, -0.966, 0.259, 783.693, 6659.925)" fill="#833343"/>
    <g id="Grupo_160842" data-name="Grupo 160842" transform="translate(747.5 6684.021)">
      <g id="Grupo_160841" data-name="Grupo 160841" clip-path="url(#clip-path)">
        <path id="Trazado_601797" data-name="Trazado 601797" d="M147.232,270.682H99.4V240.6a12.268,12.268,0,0,1,12.268-12.268h24.847a10.715,10.715,0,0,1,10.715,10.715Z" transform="translate(-72.174 -165.787)" fill="#d2e1f1"/>
        <path id="Trazado_601798" data-name="Trazado 601798" d="M166.2,137.911a18.865,18.865,0,0,0-.472,1.926,9.342,9.342,0,0,1-3.563,6.422,1.541,1.541,0,0,0-.5,1.026c-.061,1.089-.04,2.185,0,3.276a3.811,3.811,0,0,0,2.307,3.574c.277.13.56.248.844.364a5.036,5.036,0,0,1,3.392,5.08c0,.4,0,.791,0,1.169h3.254c.012-.247.036-.418.025-.586a5.352,5.352,0,0,1,3.892-5.88,3.873,3.873,0,0,0,2.664-3.958c.01-2.595.007-5.19.008-7.785,0-1.527,0-3.054,0-4.628Z" transform="translate(-117.356 -100.134)" fill="#ffdec2"/>
        <path id="Trazado_601799" data-name="Trazado 601799" d="M0,156.937q8.2-9.826,16.394-19.657c.577-.693,1.171-1.3,2.162-.951,1.031.359,1.145,1.217,1.135,2.168-.024,2.486-.008,4.973-.008,7.516h6.511a39.917,39.917,0,0,1,2.351-5.045,13.37,13.37,0,0,1,11.3-6.355c2.521-.1,5.049-.017,7.559-.017.488-2.029.168-2.716-1.641-3.476a7.211,7.211,0,0,1-4.756-7.19c-.007-4.613-.022-9.225,0-13.838a8.168,8.168,0,0,1,8.321-8.306c4.2-.024,8.4-.01,12.608,0,1.418,0,2.023.583,2.025,1.968.007,6.8.024,13.6-.01,20.4a6.927,6.927,0,0,1-4.579,6.873c-1.659.67-2.208,1.058-1.871,3.565H62.07c7.7,0,12.572,3.667,14.711,11.071a3.05,3.05,0,0,0,.171.383H85.3v-3.357c0-1.538.007-3.075,0-4.613a1.665,1.665,0,0,1,3.037-1.1q8.037,9.644,16.069,19.292c.819.984.8,1.61-.058,2.638q-7.966,9.57-15.939,19.134a1.684,1.684,0,0,1-3.113-1.1c.016-2.591.005-5.182.005-7.839H77.124v9.7h-3.31v-1.184q0-14.2,0-28.393c0-6.851-4.506-11.35-11.359-11.354H57.411v1.246c0,9.738.014,19.475-.028,29.213a4.587,4.587,0,0,1-.653,2.176c-.825,1.413-1.779,2.752-2.708,4.1-.912,1.327-2.138,1.336-3.046.017-1.006-1.463-2.022-2.922-2.935-4.442a3.715,3.715,0,0,1-.452-1.829q-.041-14.555-.019-29.11v-1.373c-.508,0-.97-.007-1.432,0a65.563,65.563,0,0,0-7.567.2,10.414,10.414,0,0,0-9.039,10.617c-.023,8.883-.007,17.767-.007,26.65v3.46H26.27v-9.7H19.683v2.287c0,1.743-.02,3.485.008,5.228.015.95-.1,1.809-1.134,2.169-.99.345-1.586-.256-2.163-.95Q8.207,167.988,0,158.168v-1.23m88.785-14.288-.209.085c0,1.461,0,2.922,0,4.382,0,1.725-.521,2.232-2.277,2.234q-4.1,0-8.2,0h-.952v16.4c2.5,0,4.956.03,7.407-.007,4-.06,4.109-.02,4.024,3.98-.019.9,0,1.8,0,2.979L101.2,157.553l-12.419-14.9m-72.382.075-.222-.057-12.4,14.889L16.4,172.7c0-1.71,0-3.074,0-4.439,0-2.088.417-2.5,2.517-2.5h7.26v-16.4c-2.621,0-5.176.006-7.732,0-1.467-.005-2.034-.58-2.042-2.053-.008-1.524,0-3.048,0-4.571m32.442-31.051a18.728,18.728,0,0,0-.472,1.926,9.341,9.341,0,0,1-3.563,6.422,1.541,1.541,0,0,0-.5,1.026c-.061,1.089-.041,2.185,0,3.276a3.81,3.81,0,0,0,2.307,3.574c.277.13.56.248.844.364a5.036,5.036,0,0,1,3.392,5.08c0,.4,0,.791,0,1.169H54.1c.012-.248.036-.418.025-.586a5.352,5.352,0,0,1,3.892-5.88,3.872,3.872,0,0,0,2.664-3.958c.01-2.595.007-5.19.008-7.785,0-1.527,0-3.054,0-4.628Zm3.623,59.183a5.937,5.937,0,0,0,1.7-4.593c-.1-6.9-.04-13.8-.04-20.7v-1.049H50.849c0,7.428.064,14.772-.047,22.114a6.135,6.135,0,0,0,1.667,4.227M44.295,115.48l.2.027c.434-1.741.863-3.484,1.3-5.223.423-1.671.769-1.939,2.469-1.94q5.478,0,10.957,0h1.4v-3.266c-4,0-7.919-.076-11.838.028a4.767,4.767,0,0,0-4.474,4.645c-.058,1.908-.012,3.82-.012,5.73m6.64,25.6h3.118V137.89H50.935Z" transform="translate(0 -73.896)"/>
        <path id="Trazado_601800" data-name="Trazado 601800" d="M0,109.171c.2-1.794.43-3.585.595-5.382.575-6.257,1.124-12.517,1.692-18.774.111-1.229.643-1.739,1.9-1.854q12.344-1.129,24.689-2.253a1.813,1.813,0,0,1,2.072.938c.427.9-.025,1.561-.648,2.176-1.8,1.775-3.581,3.562-5.387,5.36l14.044,14.04-2.447,2.293c-.142-.123-.374-.3-.58-.506Q28.828,98.109,21.728,91c-1.159-1.16-1.165-1.887,0-3.036,1.064-1.052,2.154-2.078,3.233-3.116l-.127-.246c-1.7.147-3.4.29-5.1.443-4.319.389-8.635.815-12.958,1.149-1.007.078-1.369.382-1.454,1.424-.475,5.82-1.034,11.633-1.563,17.449-.018.2-.028.406-.054.779.3-.239.5-.375.677-.546,1.358-1.349,2.7-2.714,4.065-4.053a1.617,1.617,0,0,1,2.594-.037q9.724,9.7,19.423,19.426a.663.663,0,0,1,.091.177l-2.333,2.167-18.5-18.507c-.993,1.037-1.918,2.024-2.866,2.988-1.174,1.194-2.365,2.37-3.551,3.552-1.326,1.321-2.006,1.32-3.3,0v-1.845" transform="translate(0 -58.731)"/>
        <path id="Trazado_601801" data-name="Trazado 601801" d="M136.468,0l19.575,16.331c.158.131.318.259.471.4a1.594,1.594,0,0,1,.562,1.831,1.614,1.614,0,0,1-1.656,1.124q-3.434,0-6.867,0h-1.18v6.481h-3.318V21.3c0-.991-.011-1.982,0-2.973.02-1.332.611-1.914,1.963-1.925,1.557-.013,3.114,0,4.986,0L135.86,3.777,120.707,16.4c1.833,0,3.354-.006,4.876,0,1.482.007,2.06.571,2.066,2.031.01,2.558,0,5.115,0,7.74H124.4V19.683h-2.688c-1.674,0-3.349-.02-5.022.008-.928.015-1.724-.163-2.064-1.136-.327-.935.2-1.538.872-2.1Q125.377,8.238,135.238,0Z" transform="translate(-83.158)"/>
        <path id="Trazado_601802" data-name="Trazado 601802" d="M256,89.58c-1.984-1.978-3.818-3.758-5.584-5.6a2.721,2.721,0,0,1-.75-1.583c-.048-.972.863-1.571,2.044-1.469,3.2.278,6.393.58,9.589.873,4.93.451,9.859.915,14.791,1.344,1.848.161,2.238.545,2.4,2.354q.964,10.815,1.97,21.626c.087.952.169,1.9.262,2.856a1.693,1.693,0,0,1-.946,1.87,1.655,1.655,0,0,1-2.028-.5q-3.324-3.34-6.634-6.662l-18.536,18.559-2.435-2.408c.236-.254.456-.5.691-.74q9.238-9.242,18.479-18.481c1.341-1.341,2-1.346,3.326-.015,1.395,1.4,2.781,2.806,4.4,4.441-.164-1.943-.293-3.575-.44-5.206q-.606-6.734-1.22-13.466c-.051-.566-.082-1.032-.866-1.1-6.189-.532-12.374-1.1-18.881-1.689.977.98,1.77,1.778,2.566,2.574,2.29,2.291,2.29,2.4-.027,4.713q-6.594,6.6-13.188,13.19c-.239.239-.488.468-.773.741l-2.145-2.311L256,89.58" transform="translate(-175.756 -58.748)"/>
        <rect id="Rectángulo_46827" data-name="Rectángulo 46827" width="3.155" height="31.035" transform="translate(34.519 73.861)"/>
        <rect id="Rectángulo_46828" data-name="Rectángulo 46828" width="3.156" height="31.035" transform="translate(65.684 73.861)"/>
        <rect id="Rectángulo_46829" data-name="Rectángulo 46829" width="3.146" height="3.189" transform="translate(49.268 41.058)"/>
        <rect id="Rectángulo_46830" data-name="Rectángulo 46830" width="3.177" height="3.159" transform="translate(55.814 41.078)"/>
        <path id="Trazado_601803" data-name="Trazado 601803" d="M161.659,124.166l.2.027c.434-1.741.863-3.484,1.3-5.223.423-1.671.769-1.939,2.469-1.94q5.478,0,10.957,0h1.4v-3.266c-4,0-7.919-.075-11.838.028a4.768,4.768,0,0,0-4.474,4.645c-.058,1.908-.012,3.82-.012,5.73" transform="translate(-117.365 -82.582)" fill="#af6848"/>
        <path id="Trazado_601804" data-name="Trazado 601804" d="M187.128,284.147a5.937,5.937,0,0,0,1.7-4.593c-.1-6.9-.04-13.8-.04-20.7v-1.049h-3.282c0,7.428.065,14.772-.047,22.114a6.133,6.133,0,0,0,1.667,4.227" transform="translate(-134.66 -187.188)" fill="#91e8d6"/>
        <rect id="Rectángulo_46831" data-name="Rectángulo 46831" width="3.118" height="3.191" transform="translate(50.935 63.994)" fill="#91e8d6"/>
      </g>
    </g>
  </g>
</svg>
