<svg xmlns="http://www.w3.org/2000/svg" xmlns:xlink="http://www.w3.org/1999/xlink" width="167.17" height="167.17" viewBox="0 0 167.17 167.17">
  <defs>
    <linearGradient id="linear-gradient" x1="0.5" x2="0.5" y2="1" gradientUnits="objectBoundingBox">
      <stop offset="0" stop-color="#fff"/>
      <stop offset="1" stop-color="#ececec"/>
    </linearGradient>
    <clipPath id="clip-path">
      <rect id="Rectángulo_46845" data-name="Rectángulo 46845" width="110.128" height="125.41" fill="none"/>
    </clipPath>
    <clipPath id="clip-path-2">
      <path id="Trazado_601839" data-name="Trazado 601839" d="M87.708,192.6a29.378,29.378,0,1,0,29.378-29.379A29.378,29.378,0,0,0,87.708,192.6" transform="translate(-87.708 -163.222)" fill="none"/>
    </clipPath>
  </defs>
  <g id="Grupo_160859" data-name="Grupo 160859" transform="translate(6616 5041)">
    <g id="Grupo_160851" data-name="Grupo 160851">
      <path id="Trazado_600920" data-name="Trazado 600920" d="M105.982,0,22.4,22.4,0,105.981,61.188,167.17l83.585-22.4,22.4-83.586Z" transform="translate(-6616 -5041)" fill="url(#linear-gradient)"/>
      <path id="Trazado_601793" data-name="Trazado 601793" d="M-.2-1.47,2.22-2.828v46l-2.279,1.25Z" transform="matrix(0.259, 0.966, -0.966, 0.259, -6548.307, -5040.075)" fill="#833343"/>
      <g id="Grupo_160850" data-name="Grupo 160850" transform="translate(-6587.064 -5009.41)">
        <g id="Grupo_160847" data-name="Grupo 160847">
          <g id="Grupo_160846" data-name="Grupo 160846" clip-path="url(#clip-path)">
            <path id="Trazado_601825" data-name="Trazado 601825" d="M54.41,0c.485.225.989.416,1.45.681a5.5,5.5,0,0,1,2.884,5.042c.018,2.325,0,4.649,0,7.124h1.464c14.487,0,28.976.073,43.462-.046,4.2-.035,6.505,2.78,6.454,6.481q-.191,13.7,0,27.4c.057,3.975-2.536,6.816-6.432,6.465a6.623,6.623,0,0,0-.985.074c0,2.473.029,4.9-.009,7.323a3.446,3.446,0,0,1-3.293,3.546,5.366,5.366,0,0,1-2.743-.813Q88.913,58.6,81.256,53.768a4.883,4.883,0,0,0-3.323-.56A32.9,32.9,0,0,1,88.025,75.856a32.05,32.05,0,0,1-8.359,23.221A33.073,33.073,0,1,1,51.294,44.171V40.4c-.343-.015-.725-.048-1.107-.048-6.443,0-12.886-.017-19.329.02a3.713,3.713,0,0,0-1.82.525c-5.249,3.2-10.469,6.441-15.7,9.662-1.76,1.083-3.419,1.012-4.728-.186a3.612,3.612,0,0,1-1.2-2.82c.015-2.356,0-4.714,0-7.205-.576,0-1.037.006-1.5,0A5.563,5.563,0,0,1,.048,34.432q-.018-9.553,0-19.106c0-2.766.111-5.537-.028-8.3C-.157,3.608,1.052,1.177,4.386,0ZM25.751,76.953a29.313,29.313,0,1,0,29.4-29.3,29.329,29.329,0,0,0-29.4,29.3M11.07,47.613c.507-.294.818-.465,1.119-.651,4.952-3.055,9.917-6.091,14.846-9.183a6.933,6.933,0,0,1,3.893-1.127c7.207.048,14.416.023,21.623.021,1.9,0,2.512-.6,2.513-2.452q0-14.085,0-28.171c0-1.762-.6-2.364-2.351-2.364q-23.316,0-46.633,0c-1.76,0-2.348.594-2.349,2.36q-.006,6.934,0,13.867,0,7.261,0,14.522c0,1.536.666,2.2,2.175,2.237.291.006.582,0,.874,0,2.9.006,4.276,1.375,4.287,4.278.008,2.143,0,4.286,0,6.661m44-3.659c.673.042,1.25.083,1.828.111,4.267.206,8.49.971,12.134,3.152A17.018,17.018,0,0,0,79.6,49.507a5.1,5.1,0,0,1,3.181.916c5,3.118,10.018,6.2,15.032,9.288.349.215.708.414,1.241.725,0-2.284-.008-4.319,0-6.354.016-3.3,1.282-4.569,4.54-4.577h.218c2.038-.009,2.586-.557,2.587-2.6q0-13.809,0-27.617c0-2.341-.451-2.79-2.814-2.79H58.748v1.307q0,8.3,0,16.592a5.648,5.648,0,0,1-3.112,5.355,1.06,1.06,0,0,0-.544.669c-.056,1.154-.025,2.313-.025,3.529" transform="translate(0)"/>
            <path id="Trazado_601826" data-name="Trazado 601826" d="M20.122,56.56c0-2.374.006-4.517,0-6.661-.011-2.9-1.388-4.272-4.287-4.278-.291,0-.583.005-.874,0-1.509-.034-2.173-.7-2.175-2.237q-.012-7.261,0-14.522,0-6.933,0-13.867c0-1.766.589-2.36,2.35-2.36q23.316,0,46.633,0c1.753,0,2.35.6,2.35,2.365q0,14.085,0,28.17c0,1.857-.61,2.452-2.513,2.452-7.208,0-14.416.027-21.623-.021a6.935,6.935,0,0,0-3.893,1.127c-4.929,3.092-9.893,6.128-14.846,9.183-.3.186-.612.356-1.119.651M38.45,18.12H22.723c-.291,0-.584-.017-.873.01a1.82,1.82,0,0,0-.166,3.615,6.2,6.2,0,0,0,1.088.046q15.672,0,31.344,0a4.937,4.937,0,0,0,1.4-.143,1.643,1.643,0,0,0,1.223-1.833,1.7,1.7,0,0,0-1.473-1.655,4.5,4.5,0,0,0-.98-.035q-7.918,0-15.836,0m-.036,9.165H22.687a5.72,5.72,0,0,0-.981.027A1.688,1.688,0,0,0,20.166,28.9a1.665,1.665,0,0,0,1.242,1.923,4.045,4.045,0,0,0,1.182.137q15.836.011,31.672,0a4.711,4.711,0,0,0,1.082-.089,1.729,1.729,0,0,0,1.393-1.931,1.712,1.712,0,0,0-1.614-1.636,6.791,6.791,0,0,0-.982-.02H38.414M28.38,36.458c-2.073,0-4.146-.012-6.219,0a1.832,1.832,0,1,0-.028,3.648q6.219.039,12.439,0A1.835,1.835,0,0,0,36.6,38.289c.008-1.117-.784-1.82-2.106-1.828-2.037-.012-4.074,0-6.11,0" transform="translate(-9.052 -8.947)" fill="#def8f3"/>
            <path id="Trazado_601827" data-name="Trazado 601827" d="M188.751,84.024c0-1.216-.031-2.375.025-3.529a1.06,1.06,0,0,1,.544-.67,5.648,5.648,0,0,0,3.112-5.355q0-8.3,0-16.592V56.572h44.839c2.363,0,2.814.449,2.814,2.79q0,13.808,0,27.617c0,2.039-.549,2.587-2.587,2.6h-.219c-3.258.007-4.524,1.278-4.54,4.577-.01,2.035,0,4.07,0,6.354-.533-.31-.892-.509-1.241-.725-5.014-3.091-10.035-6.17-15.032-9.288a5.1,5.1,0,0,0-3.181-.916,17.02,17.02,0,0,1-10.572-2.289c-3.643-2.181-7.866-2.946-12.134-3.151-.578-.028-1.155-.07-1.828-.111m25.78-21.936H200.336c-.837,0-1.676-.026-2.511.02a1.717,1.717,0,0,0-1.7,1.651,1.743,1.743,0,0,0,1.537,1.918,7.332,7.332,0,0,0,1.2.064q15.559,0,31.118,0a6.956,6.956,0,0,0,1.3-.084,1.707,1.707,0,0,0,1.433-1.89,1.677,1.677,0,0,0-1.585-1.653,8.328,8.328,0,0,0-1.09-.025h-15.5m0,9.158q-7.861,0-15.722,0a6.792,6.792,0,0,0-1.2.047,1.794,1.794,0,0,0-.059,3.523,6.532,6.532,0,0,0,1.3.069q15.558,0,31.117,0a6.016,6.016,0,0,0,1.41-.091,1.638,1.638,0,0,0,1.328-1.755,1.655,1.655,0,0,0-1.374-1.725,5.748,5.748,0,0,0-1.3-.067q-7.752-.006-15.5,0M207.1,80.421c-1.164,0-2.329-.018-3.493,0a1.813,1.813,0,1,0-.076,3.615q3.546.064,7.094,0a1.814,1.814,0,1,0-.033-3.617c-1.164-.025-2.329-.006-3.493-.006" transform="translate(-133.685 -40.069)" fill="#e2e8ec"/>
            <path id="Trazado_601828" data-name="Trazado 601828" d="M56.335,31.428q7.918,0,15.836,0a4.5,4.5,0,0,1,.979.035,1.7,1.7,0,0,1,1.473,1.655A1.643,1.643,0,0,1,73.4,34.952a4.933,4.933,0,0,1-1.4.143q-15.672.011-31.344,0a6.2,6.2,0,0,1-1.088-.046,1.82,1.82,0,0,1,.166-3.615c.289-.027.582-.01.873-.01H56.335" transform="translate(-26.938 -22.255)"/>
            <path id="Trazado_601829" data-name="Trazado 601829" d="M56.315,62.847H72.042a6.833,6.833,0,0,1,.982.02,1.812,1.812,0,0,1,.222,3.567,4.7,4.7,0,0,1-1.082.089q-15.836.006-31.672,0a4.045,4.045,0,0,1-1.182-.137,1.665,1.665,0,0,1-1.242-1.923,1.688,1.688,0,0,1,1.541-1.587,5.72,5.72,0,0,1,.981-.027H56.315" transform="translate(-26.954 -44.509)"/>
            <path id="Trazado_601830" data-name="Trazado 601830" d="M46.265,94.3c2.037,0,4.074-.009,6.11,0,1.322.008,2.115.711,2.106,1.828a1.835,1.835,0,0,1-2.026,1.822q-6.219.036-12.439,0a1.832,1.832,0,1,1,.028-3.648c2.073-.016,4.146,0,6.219,0" transform="translate(-26.938 -66.791)"/>
            <path id="Trazado_601831" data-name="Trazado 601831" d="M232.437,75.468h15.5a8.277,8.277,0,0,1,1.09.025,1.676,1.676,0,0,1,1.585,1.653,1.707,1.707,0,0,1-1.433,1.89,6.933,6.933,0,0,1-1.3.084q-15.559.007-31.118,0a7.366,7.366,0,0,1-1.2-.064,1.743,1.743,0,0,1-1.537-1.919,1.717,1.717,0,0,1,1.7-1.651c.835-.045,1.674-.02,2.511-.02h14.194" transform="translate(-151.592 -53.448)"/>
            <path id="Trazado_601832" data-name="Trazado 601832" d="M232.46,106.873q7.752,0,15.5,0a5.752,5.752,0,0,1,1.3.067,1.655,1.655,0,0,1,1.374,1.725,1.638,1.638,0,0,1-1.329,1.755,6.03,6.03,0,0,1-1.41.09q-15.558.007-31.116,0a6.536,6.536,0,0,1-1.3-.069,1.794,1.794,0,0,1,.059-3.523,6.789,6.789,0,0,1,1.2-.047q7.861,0,15.722,0" transform="translate(-151.614 -75.696)"/>
            <path id="Trazado_601833" data-name="Trazado 601833" d="M238.348,138.313c1.164,0,2.329-.02,3.493.006a1.814,1.814,0,1,1,.033,3.617q-3.546.059-7.094,0a1.813,1.813,0,1,1,.076-3.615c1.164-.023,2.329,0,3.493,0" transform="translate(-164.936 -97.961)"/>
          </g>
        </g>
        <g id="Grupo_160849" data-name="Grupo 160849" transform="translate(25.585 47.613)">
          <g id="Grupo_160848" data-name="Grupo 160848" clip-path="url(#clip-path-2)">
            <path id="Trazado_601834" data-name="Trazado 601834" d="M152.2,333.157H107.2V306.382a13.065,13.065,0,0,1,13.065-13.065h20.519A11.411,11.411,0,0,1,152.2,304.728Z" transform="translate(-101.515 -255.367)" fill="#91e8d6"/>
            <path id="Trazado_601835" data-name="Trazado 601835" d="M166.47,213.443a17.706,17.706,0,0,0-.444,1.812,8.789,8.789,0,0,1-3.351,6.041,1.45,1.45,0,0,0-.47.965c-.057,1.024-.038,2.055,0,3.082a3.585,3.585,0,0,0,2.17,3.362c.261.123.527.233.794.343a4.737,4.737,0,0,1,3.191,4.779c0,.372,0,.743,0,1.1h3.061c.011-.233.034-.393.023-.552a5.034,5.034,0,0,1,3.661-5.531,3.643,3.643,0,0,0,2.506-3.724c.01-2.441.006-4.882.008-7.323,0-1.436,0-2.873,0-4.354Z" transform="translate(-140.448 -198.793)" fill="#ffdec2"/>
            <rect id="Rectángulo_46846" data-name="Rectángulo 46846" width="2.968" height="29.195" transform="translate(12.544 48.595)"/>
            <rect id="Rectángulo_46847" data-name="Rectángulo 46847" width="2.968" height="29.195" transform="translate(41.862 48.595)"/>
            <rect id="Rectángulo_46848" data-name="Rectángulo 46848" width="2.959" height="3" transform="translate(26.419 17.736)"/>
            <rect id="Rectángulo_46849" data-name="Rectángulo 46849" width="2.989" height="2.971" transform="translate(32.577 17.756)"/>
            <path id="Trazado_601836" data-name="Trazado 601836" d="M151.769,226.45c-.065-1.621-.373-3.647-.4-3.826-2.04-6.842-6.6-10.233-13.784-10.233h-4.292c-.317-2.359.2-2.723,1.76-3.354a6.516,6.516,0,0,0,4.307-6.466c.032-6.4.016-12.792.01-19.189,0-1.3-.571-1.849-1.9-1.851-3.953-.007-7.907-.02-11.86,0a7.683,7.683,0,0,0-7.828,7.813c-.024,4.339-.01,8.678,0,13.017a6.783,6.783,0,0,0,4.474,6.763c1.7.715,2,1.361,1.544,3.27-2.361,0-4.738-.074-7.11.016a12.578,12.578,0,0,0-10.633,5.978,27.078,27.078,0,0,0-1.908,4.055h0l-.045.106c-.088.314-.272,1.566-.272,6.544,0,4.808.046,12.182.07,15.749h.015v9.129h3.063v-3.255c0-8.357-.016-16.714.006-25.07a9.8,9.8,0,0,1,8.5-9.987,61.628,61.628,0,0,1,7.119-.186c.435-.008.87,0,1.347,0v1.291q0,13.693.018,27.385a3.5,3.5,0,0,0,.425,1.72c.859,1.43,1.815,2.8,2.762,4.179.854,1.241,2.007,1.233,2.865-.016.873-1.271,1.771-2.53,2.547-3.859a4.313,4.313,0,0,0,.614-2.048c.04-9.16.027-18.32.027-27.481v-1.172h4.745c6.447,0,10.684,4.236,10.686,10.681q0,13.355,0,26.71v1.114h3.114v-4.8s-.072-20.032.023-21.712Zm-30.9-37.424a4.485,4.485,0,0,1,4.209-4.37c3.687-.1,7.378-.026,11.136-.026V187.7h-1.312q-5.154,0-10.307,0c-1.6,0-1.924.253-2.322,1.825-.415,1.636-.818,3.276-1.226,4.914l-.188-.025c0-1.8-.044-3.595.011-5.39m7.678,57.483a5.77,5.77,0,0,1-1.568-3.977c.105-6.906.044-13.815.044-20.8h3.087v.987c0,6.491-.055,12.982.038,19.472a5.585,5.585,0,0,1-1.6,4.321M127.108,215.5h2.933v3h-2.933Zm3-3.731c.01.158-.013.319-.023.551h-3.061c0-.356,0-.728,0-1.1a4.737,4.737,0,0,0-3.191-4.779c-.267-.109-.533-.22-.794-.343a3.585,3.585,0,0,1-2.17-3.362c-.033-1.027-.052-2.057,0-3.082a1.45,1.45,0,0,1,.469-.965,8.788,8.788,0,0,0,3.352-6.041,17.607,17.607,0,0,1,.443-1.812h11.145c0,1.481,0,2.917,0,4.354,0,2.441,0,4.882-.008,7.323a3.643,3.643,0,0,1-2.506,3.723,5.034,5.034,0,0,0-3.661,5.531" transform="translate(-99.121 -176.184)"/>
            <path id="Trazado_601837" data-name="Trazado 601837" d="M162.2,201.9l.188.025c.408-1.638.812-3.277,1.226-4.914.4-1.572.724-1.824,2.322-1.825q5.154,0,10.307,0h1.312v-3.072c-3.759,0-7.45-.071-11.136.026a4.485,4.485,0,0,0-4.209,4.37c-.055,1.8-.011,3.593-.011,5.39" transform="translate(-140.457 -183.668)" fill="#af6848"/>
            <path id="Trazado_601838" data-name="Trazado 601838" d="M184.789,344.133a5.584,5.584,0,0,0,1.6-4.321c-.093-6.489-.038-12.981-.038-19.472v-.987h-3.087c0,6.988.061,13.9-.045,20.8a5.77,5.77,0,0,0,1.568,3.977" transform="translate(-155.359 -273.809)" fill="#833343"/>
            <rect id="Rectángulo_46850" data-name="Rectángulo 46850" width="2.933" height="3.002" transform="translate(27.988 39.313)" fill="#833343"/>
          </g>
        </g>
      </g>
    </g>
  </g>
</svg>
