<svg xmlns="http://www.w3.org/2000/svg" xmlns:xlink="http://www.w3.org/1999/xlink" width="1030" height="413.118" viewBox="0 0 1030 413.118">
  <defs>
    <linearGradient id="linear-gradient" x1="0.506" y1="1.027" x2="0.5" gradientUnits="objectBoundingBox">
      <stop offset="0" stop-color="#def8f3"/>
      <stop offset="1" stop-color="#fff"/>
    </linearGradient>
    <linearGradient id="linear-gradient-2" x1="0.506" y1="1.027" x2="0.5" gradientUnits="objectBoundingBox">
      <stop offset="0" stop-color="#def8f3"/>
      <stop offset="0.414" stop-color="#e4f9f5"/>
      <stop offset="1" stop-color="#f6fdfc"/>
    </linearGradient>
    <clipPath id="clip-path">
      <path id="Trazado_600868" data-name="Trazado 600868" d="M17,0h996a17.173,17.173,0,0,1,17,17.341V395.777a17.173,17.173,0,0,1-17,17.341H17A17.173,17.173,0,0,1,0,395.777V17.341A17.173,17.173,0,0,1,17,0Z" fill="url(#linear-gradient)"/>
    </clipPath>
    <clipPath id="clip-path-2">
      <rect id="Rectángulo_46690" data-name="Rectángulo 46690" width="66.986" height="75.5" fill="#fff"/>
    </clipPath>
    <clipPath id="clip-path-3">
      <rect id="Rectángulo_46699" data-name="Rectángulo 46699" width="73.648" height="73.66" fill="#fff"/>
    </clipPath>
    <clipPath id="clip-path-4">
      <rect id="Rectángulo_46700" data-name="Rectángulo 46700" width="49.051" height="73.659" fill="#fff"/>
    </clipPath>
    <clipPath id="clip-path-5">
      <rect id="Rectángulo_46701" data-name="Rectángulo 46701" width="68.523" height="68.466" fill="#fff"/>
    </clipPath>
  </defs>
  <g id="Grupo_160637" data-name="Grupo 160637" transform="translate(-285 -5971)">
    <g id="Grupo_160628" data-name="Grupo 160628">
      <path id="Trazado_600867" data-name="Trazado 600867" d="M17,0h996a17.173,17.173,0,0,1,17,17.341V395.777a17.173,17.173,0,0,1-17,17.341H17A17.173,17.173,0,0,1,0,395.777V17.341A17.173,17.173,0,0,1,17,0Z" transform="translate(285 5971)" fill="url(#linear-gradient-2)"/>
      <g id="Enmascarar_grupo_67" data-name="Enmascarar grupo 67" transform="translate(285 5971)" clip-path="url(#clip-path)">
        <path id="Trazado_113530" data-name="Trazado 113530" d="M1842.37,0V18.755h-7.909V42.4h-21.969v28.54h-13.184V142.7l-25.482,23.649v38.734h-15.38V167.576l-44.379-41.18V79.1h-20.209V68.5h-31.639v8.154h-19.332V168.8h-22.849V137h-15.818l-27.243,25.277v30.989h-16.7V57.081l-52.729,48.926h-21.968V87.253h-14.059v19.571h-24.607v53.817h-18.454V115.793h-28.121v24.463h-36.03v11.417h-15.818V163.09h-23.726V200.6h-14.062v-96.22l-87.878-13.866v10.6h-10.545V242.188h-16.7V161.459h-16.7V198.97h-13.181v51.372h-13.184v-82.36H1116.5v-8.154H1077.94V199.68l-21.2-19.67h-34.934l-19.551,18.143V97.853H961.83v75.02H947.987v50.763l-18.232,16.92V172.467l-24.167-22.426L880.1,173.69v82.36H858.134V212.016H833.527v32.617H822.1V186.739H811.118v33.026l-27.684-25.689V169.613h14.94v-7.134H697.534l-20.872,19.366v27.317L652.5,186.739H630.527V175.73H594.057l-10.983,10.191v28.543H569.893V173.69l-29.88-27.726V44.035H446.862V212.83H432.8V194.89l-12.3-11.414V168.8H411.71v13.046H401.6v-37.1l-17.136-15.9V104.378H362.5V127.21H351.075V105.193H338.331v23.24l-19.769,18.349H303.619v13.86h-8.787V253.6H277.256V165.536l-12.3-11.414V94.593h-8.787v59.529L246.5,163.09v87.252H218.377V92.147l-21.09-19.574V35.064H133.135v31.8h-21.09V91.33h-29V197.747H73.16V151.876L47.453,175.73h-14.5V282.145H10.545v-92.96H0V346.128H2045.81v-218.1H1994.4V231.588h-21.091V198.153l-34.272,31.8v-31.8h-21.093V74.207h-49.209V18.755h-17.579V0Z" transform="translate(-445 98.943)" fill="#91e8d6" opacity="0.15"/>
        <path id="Trazado_600882" data-name="Trazado 600882" d="M108.758,0,22.983,22.983,0,108.757l62.79,62.792,85.774-22.983L171.55,62.79Z" transform="translate(543.45 234.568)" fill="#fff" opacity="0.41"/>
        <path id="Trazado_600883" data-name="Trazado 600883" d="M100.788,0,21.3,21.3,0,100.787,58.19,158.978l79.489-21.3,21.3-79.49Z" transform="translate(277.021 113.03)" fill="#fff" opacity="0.41"/>
      </g>
    </g>
    <path id="Rectángulo_46682" data-name="Rectángulo 46682" d="M0,0H400a0,0,0,0,1,0,0V29a26,26,0,0,1-26,26H23A23,23,0,0,1,0,32V0A0,0,0,0,1,0,0Z" transform="translate(600 5971)" fill="#91e8d6"/>
    <path id="Trazado_603491" data-name="Trazado 603491" d="M10.177,5.931h-3.7V16H3.984V5.931H.332V3.914h9.845Zm5.769,3.337a6.517,6.517,0,0,0-.863-.066,1.757,1.757,0,0,0-1.785.921V16H10.9V7.019h2.266l.066,1.071a2.223,2.223,0,0,1,2-1.237,2.514,2.514,0,0,1,.747.108ZM19.631,16H17.224V7.019h2.407ZM17.083,4.694a1.181,1.181,0,0,1,.361-.888,1.556,1.556,0,0,1,1.963,0,1.175,1.175,0,0,1,.365.888,1.178,1.178,0,0,1-.369.9,1.539,1.539,0,0,1-1.951,0A1.178,1.178,0,0,1,17.083,4.694ZM26.812,16a2.664,2.664,0,0,1-.241-.805,2.9,2.9,0,0,1-2.266.971,3.189,3.189,0,0,1-2.187-.764,2.456,2.456,0,0,1-.867-1.926,2.538,2.538,0,0,1,1.058-2.191,5.222,5.222,0,0,1,3.059-.772h1.1V10a1.48,1.48,0,0,0-.32-1,1.257,1.257,0,0,0-1.009-.374,1.429,1.429,0,0,0-.95.291.987.987,0,0,0-.344.8h-2.4a2.41,2.41,0,0,1,.481-1.444A3.182,3.182,0,0,1,23.292,7.23a4.961,4.961,0,0,1,1.976-.378,3.92,3.92,0,0,1,2.635.834,2.918,2.918,0,0,1,.975,2.345v3.893a4.294,4.294,0,0,0,.357,1.934V16Zm-1.984-1.668a2.066,2.066,0,0,0,.979-.237,1.554,1.554,0,0,0,.664-.635V11.916h-.9q-1.8,0-1.917,1.245l-.008.141a.96.96,0,0,0,.315.739A1.225,1.225,0,0,0,24.828,14.332ZM25.741,3.25h2.615l-2.3,2.573H24.105Zm7.188,3.769L33,8.056a3.136,3.136,0,0,1,2.582-1.2,2.606,2.606,0,0,1,2.125.838,3.912,3.912,0,0,1,.714,2.507V16h-2.4V10.256a1.556,1.556,0,0,0-.332-1.108,1.486,1.486,0,0,0-1.1-.344,1.65,1.65,0,0,0-1.519.863V16h-2.4V7.019Zm6.964,4.424a5.264,5.264,0,0,1,.984-3.329,3.187,3.187,0,0,1,2.652-1.262,2.8,2.8,0,0,1,2.3,1.013l.1-.847H48.1V15.7a3.839,3.839,0,0,1-.535,2.05,3.439,3.439,0,0,1-1.507,1.328,5.3,5.3,0,0,1-2.274.457,4.925,4.925,0,0,1-1.926-.394,3.418,3.418,0,0,1-1.419-1.017L41.5,16.664a2.81,2.81,0,0,0,2.175,1,2.057,2.057,0,0,0,1.486-.51,1.915,1.915,0,0,0,.531-1.448v-.481a2.775,2.775,0,0,1-2.183.938A3.179,3.179,0,0,1,40.894,14.9a5.262,5.262,0,0,1-1-3.358Zm2.4.179a3.278,3.278,0,0,0,.49,1.916,1.558,1.558,0,0,0,1.345.694,1.666,1.666,0,0,0,1.569-.823V9.626A1.662,1.662,0,0,0,44.144,8.8a1.568,1.568,0,0,0-1.357.707A3.694,3.694,0,0,0,42.292,11.621Zm13.032,3.465a3.008,3.008,0,0,1-2.457,1.079,2.837,2.837,0,0,1-2.2-.83,3.543,3.543,0,0,1-.776-2.432V7.019h2.4v5.809q0,1.4,1.278,1.4a1.732,1.732,0,0,0,1.677-.848V7.019h2.407V16H55.391ZM61.99,16H59.583V3.25H61.99Zm1.6-4.574a5.327,5.327,0,0,1,.515-2.382,3.768,3.768,0,0,1,1.482-1.619,4.323,4.323,0,0,1,2.245-.573A4.09,4.09,0,0,1,70.8,7.965a4.464,4.464,0,0,1,1.282,3.021l.017.614a4.694,4.694,0,0,1-1.154,3.316,4.472,4.472,0,0,1-6.2,0,4.777,4.777,0,0,1-1.158-3.387Zm2.4.17a3.357,3.357,0,0,0,.481,1.958,1.73,1.73,0,0,0,2.739.008,3.674,3.674,0,0,0,.49-2.141,3.324,3.324,0,0,0-.49-1.945,1.592,1.592,0,0,0-1.378-.69,1.566,1.566,0,0,0-1.361.686A3.736,3.736,0,0,0,65.991,11.6Zm11.447-.154A5.413,5.413,0,0,1,78.38,8.1a3.057,3.057,0,0,1,2.577-1.245,2.751,2.751,0,0,1,2.167.979V3.25h2.407V16H83.365l-.116-.955a2.823,2.823,0,0,1-2.308,1.121A3.049,3.049,0,0,1,78.4,14.917,5.587,5.587,0,0,1,77.438,11.443Zm2.4.179a3.546,3.546,0,0,0,.44,1.937,1.433,1.433,0,0,0,1.278.673,1.605,1.605,0,0,0,1.569-.939V9.743A1.582,1.582,0,0,0,81.572,8.8Q79.837,8.8,79.837,11.621Zm11.688,4.545a4.409,4.409,0,0,1-3.217-1.212,4.308,4.308,0,0,1-1.241-3.229v-.232a5.426,5.426,0,0,1,.523-2.42,3.838,3.838,0,0,1,1.482-1.644,4.159,4.159,0,0,1,2.187-.577,3.727,3.727,0,0,1,2.9,1.162,4.722,4.722,0,0,1,1.058,3.3v.979H89.5a2.229,2.229,0,0,0,.7,1.411,2.12,2.12,0,0,0,1.482.531,2.589,2.589,0,0,0,2.167-1l1.179,1.32a3.6,3.6,0,0,1-1.461,1.191A4.793,4.793,0,0,1,91.524,16.166ZM91.25,8.787a1.5,1.5,0,0,0-1.158.484,2.5,2.5,0,0,0-.569,1.384h3.337v-.192a1.786,1.786,0,0,0-.432-1.238A1.547,1.547,0,0,0,91.25,8.787Zm14.427,4.731a.773.773,0,0,0-.436-.693,4.95,4.95,0,0,0-1.4-.452q-3.2-.672-3.2-2.723a2.468,2.468,0,0,1,.992-2,4,4,0,0,1,2.594-.8,4.307,4.307,0,0,1,2.735.805,2.538,2.538,0,0,1,1.025,2.092h-2.4a1.161,1.161,0,0,0-.332-.851,1.405,1.405,0,0,0-1.038-.336,1.436,1.436,0,0,0-.938.274.865.865,0,0,0-.332.7.739.739,0,0,0,.378.643,3.885,3.885,0,0,0,1.274.423,10.407,10.407,0,0,1,1.511.4,2.482,2.482,0,0,1,1.9,2.416,2.343,2.343,0,0,1-1.054,1.988,4.548,4.548,0,0,1-2.723.76,4.75,4.75,0,0,1-2-.4,3.363,3.363,0,0,1-1.374-1.1,2.565,2.565,0,0,1-.5-1.515h2.274a1.252,1.252,0,0,0,.473.979,1.877,1.877,0,0,0,1.179.34,1.737,1.737,0,0,0,1.042-.261A.814.814,0,0,0,105.677,13.518Zm8.01,2.648a4.409,4.409,0,0,1-3.217-1.212,4.308,4.308,0,0,1-1.241-3.229v-.232a5.426,5.426,0,0,1,.523-2.42,3.838,3.838,0,0,1,1.482-1.644,4.159,4.159,0,0,1,2.187-.577,3.727,3.727,0,0,1,2.9,1.162,4.722,4.722,0,0,1,1.058,3.3v.979h-5.719a2.229,2.229,0,0,0,.7,1.411,2.12,2.12,0,0,0,1.482.531,2.589,2.589,0,0,0,2.167-1l1.179,1.32a3.6,3.6,0,0,1-1.461,1.191A4.793,4.793,0,0,1,113.688,16.166Zm-.274-7.379a1.5,1.5,0,0,0-1.158.484,2.5,2.5,0,0,0-.569,1.384h3.337v-.192a1.786,1.786,0,0,0-.432-1.238A1.547,1.547,0,0,0,113.414,8.787Zm10.376.481a6.517,6.517,0,0,0-.863-.066,1.757,1.757,0,0,0-1.785.921V16h-2.4V7.019h2.266l.066,1.071a2.223,2.223,0,0,1,2-1.237,2.514,2.514,0,0,1,.747.108Zm4.665,3.8,1.668-6.051h2.507L129.6,16h-2.291l-3.03-8.981h2.507ZM136.216,16h-2.407V7.019h2.407ZM133.667,4.694a1.181,1.181,0,0,1,.361-.888,1.556,1.556,0,0,1,1.963,0,1.175,1.175,0,0,1,.365.888,1.178,1.178,0,0,1-.369.9,1.539,1.539,0,0,1-1.951,0A1.178,1.178,0,0,1,133.667,4.694Zm8.259,9.538a1.573,1.573,0,0,0,1.079-.365,1.28,1.28,0,0,0,.432-.971h2.25a3.077,3.077,0,0,1-.5,1.673,3.286,3.286,0,0,1-1.341,1.179,4.2,4.2,0,0,1-1.88.419,3.9,3.9,0,0,1-3.038-1.224,4.845,4.845,0,0,1-1.112-3.383V11.4a4.79,4.79,0,0,1,1.1-3.312,3.854,3.854,0,0,1,3.03-1.237,3.778,3.778,0,0,1,2.7.959,3.4,3.4,0,0,1,1.033,2.552h-2.25a1.648,1.648,0,0,0-.432-1.139,1.6,1.6,0,0,0-2.362.173,3.541,3.541,0,0,0-.427,1.983v.249a3.586,3.586,0,0,0,.423,2A1.463,1.463,0,0,0,141.927,14.232ZM149.588,16h-2.407V7.019h2.407ZM147.04,4.694a1.181,1.181,0,0,1,.361-.888,1.556,1.556,0,0,1,1.963,0,1.175,1.175,0,0,1,.365.888,1.178,1.178,0,0,1-.369.9,1.539,1.539,0,0,1-1.951,0A1.178,1.178,0,0,1,147.04,4.694Zm4.15,6.732a5.327,5.327,0,0,1,.515-2.382,3.767,3.767,0,0,1,1.482-1.619,4.323,4.323,0,0,1,2.245-.573A4.09,4.09,0,0,1,158.4,7.965a4.464,4.464,0,0,1,1.282,3.021l.017.614a4.694,4.694,0,0,1-1.154,3.316,4.472,4.472,0,0,1-6.2,0,4.777,4.777,0,0,1-1.158-3.387Zm2.4.17a3.357,3.357,0,0,0,.481,1.958,1.73,1.73,0,0,0,2.739.008,3.674,3.674,0,0,0,.49-2.141,3.324,3.324,0,0,0-.49-1.945,1.592,1.592,0,0,0-1.378-.69,1.566,1.566,0,0,0-1.361.686A3.735,3.735,0,0,0,153.589,11.6Z" transform="translate(719 5988)" fill="#12263f"/>
    <path id="Trazado_603493" data-name="Trazado 603493" d="M8.292,10.6H3.329v3.719h5.8V16h-7.9V3.914H9.073V5.607H3.329V8.944H8.292ZM15.68,13.56a.914.914,0,0,0-.444-.822,4.723,4.723,0,0,0-1.473-.5,7.574,7.574,0,0,1-1.718-.548,2.293,2.293,0,0,1-1.511-2.117,2.391,2.391,0,0,1,.979-1.942A3.872,3.872,0,0,1,14,6.853a4.029,4.029,0,0,1,2.6.8A2.529,2.529,0,0,1,17.6,9.716H15.581a1.243,1.243,0,0,0-.432-.967A1.654,1.654,0,0,0,14,8.363a1.787,1.787,0,0,0-1.083.307.968.968,0,0,0-.419.822.818.818,0,0,0,.39.722,5.365,5.365,0,0,0,1.577.519,7.466,7.466,0,0,1,1.864.623,2.639,2.639,0,0,1,1,.867,2.212,2.212,0,0,1,.328,1.229,2.34,2.34,0,0,1-1,1.963,4.283,4.283,0,0,1-2.631.751,4.644,4.644,0,0,1-1.967-.4,3.238,3.238,0,0,1-1.345-1.1,2.594,2.594,0,0,1-.481-1.5h1.959a1.421,1.421,0,0,0,.54,1.1,2.1,2.1,0,0,0,1.32.386,2.04,2.04,0,0,0,1.212-.3A.938.938,0,0,0,15.68,13.56Zm6.267-8.724V7.019h1.585V8.513H21.947v5.014a1.1,1.1,0,0,0,.2.743.943.943,0,0,0,.726.228,3.107,3.107,0,0,0,.706-.083v1.561a4.968,4.968,0,0,1-1.328.191q-2.324,0-2.324-2.565V8.513H18.453V7.019H19.93V4.835Zm7.828,4.026a4.991,4.991,0,0,0-.822-.066,1.85,1.85,0,0,0-1.868,1.063V16H25.068V7.019h1.926l.05,1a2.273,2.273,0,0,1,2.025-1.17,1.888,1.888,0,0,1,.714.116ZM36.167,16a3.113,3.113,0,0,1-.232-.838,3.393,3.393,0,0,1-4.565.232,2.47,2.47,0,0,1-.855-1.909,2.55,2.55,0,0,1,1.067-2.2,5.169,5.169,0,0,1,3.051-.768h1.237V9.924a1.573,1.573,0,0,0-.39-1.116,1.547,1.547,0,0,0-1.187-.419,1.777,1.777,0,0,0-1.129.344,1.066,1.066,0,0,0-.44.876H30.7a2.239,2.239,0,0,1,.49-1.382,3.263,3.263,0,0,1,1.332-1.009,4.68,4.68,0,0,1,1.88-.365,3.769,3.769,0,0,1,2.515.793,2.827,2.827,0,0,1,.963,2.229v4.051a4.591,4.591,0,0,0,.34,1.934V16ZM33.95,14.547a2.294,2.294,0,0,0,1.125-.291,1.941,1.941,0,0,0,.793-.78V11.783H34.78a2.973,2.973,0,0,0-1.685.39,1.264,1.264,0,0,0-.564,1.1,1.179,1.179,0,0,0,.386.926A1.5,1.5,0,0,0,33.95,14.547Zm8.575-9.712V7.019H44.11V8.513H42.525v5.014a1.1,1.1,0,0,0,.2.743.943.943,0,0,0,.726.228,3.107,3.107,0,0,0,.706-.083v1.561a4.968,4.968,0,0,1-1.328.191q-2.324,0-2.324-2.565V8.513H39.03V7.019h1.478V4.835Zm7.081,11.331A4.173,4.173,0,0,1,46.5,14.958a4.381,4.381,0,0,1-1.191-3.217v-.249a5.389,5.389,0,0,1,.519-2.4,3.949,3.949,0,0,1,1.457-1.648,3.851,3.851,0,0,1,2.092-.589,3.525,3.525,0,0,1,2.835,1.17,4.949,4.949,0,0,1,1,3.312v.813H47.339a2.7,2.7,0,0,0,.743,1.76,2.23,2.23,0,0,0,1.639.647,2.731,2.731,0,0,0,2.258-1.121l1.087,1.038a3.631,3.631,0,0,1-1.44,1.249A4.509,4.509,0,0,1,49.605,16.166Zm-.241-7.695a1.7,1.7,0,0,0-1.341.581,3.012,3.012,0,0,0-.652,1.619h3.843v-.149a2.452,2.452,0,0,0-.54-1.531A1.686,1.686,0,0,0,49.365,8.471Zm5.055,2.972A5.253,5.253,0,0,1,55.4,8.1a3.157,3.157,0,0,1,2.611-1.249A2.958,2.958,0,0,1,60.43,7.923l.091-.9h1.818v8.708a3.619,3.619,0,0,1-1.1,2.789,4.189,4.189,0,0,1-2.968,1.021,4.783,4.783,0,0,1-1.93-.411A3.429,3.429,0,0,1,54.91,18.05l.955-1.212a2.883,2.883,0,0,0,2.291,1.1,2.228,2.228,0,0,0,1.585-.544,2.084,2.084,0,0,0,.581-1.6v-.606A2.97,2.97,0,0,1,58,16.166a3.15,3.15,0,0,1-2.577-1.253A5.423,5.423,0,0,1,54.42,11.443Zm2.009.174a3.616,3.616,0,0,0,.552,2.129,1.775,1.775,0,0,0,1.531.776,1.941,1.941,0,0,0,1.81-1.046V9.525A1.913,1.913,0,0,0,58.529,8.5a1.782,1.782,0,0,0-1.548.789A4.049,4.049,0,0,0,56.429,11.617ZM66.556,16H64.539V7.019h2.017ZM64.414,4.686a1.071,1.071,0,0,1,.295-.772,1.113,1.113,0,0,1,.843-.307,1.127,1.127,0,0,1,.847.307,1.062,1.062,0,0,1,.3.772,1.038,1.038,0,0,1-.3.76,1.136,1.136,0,0,1-.847.3,1.122,1.122,0,0,1-.843-.3A1.046,1.046,0,0,1,64.414,4.686ZM74.118,16a3.113,3.113,0,0,1-.232-.838,3.393,3.393,0,0,1-4.565.232,2.47,2.47,0,0,1-.855-1.909,2.55,2.55,0,0,1,1.067-2.2,5.169,5.169,0,0,1,3.051-.768h1.237V9.924a1.573,1.573,0,0,0-.39-1.116,1.547,1.547,0,0,0-1.187-.419,1.777,1.777,0,0,0-1.129.344,1.066,1.066,0,0,0-.44.876H68.656a2.239,2.239,0,0,1,.49-1.382,3.263,3.263,0,0,1,1.332-1.009,4.68,4.68,0,0,1,1.88-.365,3.769,3.769,0,0,1,2.515.793,2.827,2.827,0,0,1,.963,2.229v4.051a4.591,4.591,0,0,0,.34,1.934V16ZM71.9,14.547a2.294,2.294,0,0,0,1.125-.291,1.941,1.941,0,0,0,.793-.78V11.783H72.731a2.973,2.973,0,0,0-1.685.39,1.264,1.264,0,0,0-.564,1.1,1.179,1.179,0,0,0,.386.926A1.5,1.5,0,0,0,71.9,14.547Z" transform="translate(1127 6106)" fill="#12263f"/>
    <path id="Trazado_603492" data-name="Trazado 603492" d="M10.451,12.065a4.364,4.364,0,0,1-1.428,3.017,4.867,4.867,0,0,1-3.312,1.083,4.713,4.713,0,0,1-2.544-.685,4.5,4.5,0,0,1-1.7-1.947A7.024,7.024,0,0,1,.847,10.6V9.476a7.075,7.075,0,0,1,.606-3.013A4.567,4.567,0,0,1,3.192,4.454a4.851,4.851,0,0,1,2.619-.706A4.672,4.672,0,0,1,9.031,4.831,4.527,4.527,0,0,1,10.451,7.9H8.359a2.985,2.985,0,0,0-.76-1.88,2.51,2.51,0,0,0-1.789-.577,2.452,2.452,0,0,0-2.1,1A5,5,0,0,0,2.955,9.38v1.072a5.308,5.308,0,0,0,.7,2.991,2.328,2.328,0,0,0,2.054,1.03,2.715,2.715,0,0,0,1.859-.556,2.9,2.9,0,0,0,.789-1.851ZM14.277,16H12.26V3.25h2.017Zm4.341,0H16.6V7.019h2.017ZM16.477,4.686a1.071,1.071,0,0,1,.295-.772,1.113,1.113,0,0,1,.843-.307,1.127,1.127,0,0,1,.847.307,1.062,1.062,0,0,1,.3.772,1.038,1.038,0,0,1-.3.76,1.136,1.136,0,0,1-.847.3,1.122,1.122,0,0,1-.843-.3A1.046,1.046,0,0,1,16.477,4.686Zm8.292,11.48a4.173,4.173,0,0,1-3.109-1.208,4.381,4.381,0,0,1-1.191-3.217v-.249a5.389,5.389,0,0,1,.519-2.4,3.949,3.949,0,0,1,1.457-1.648,3.851,3.851,0,0,1,2.092-.589,3.525,3.525,0,0,1,2.835,1.17,4.949,4.949,0,0,1,1,3.312v.813H22.5a2.7,2.7,0,0,0,.743,1.76,2.23,2.23,0,0,0,1.639.647,2.731,2.731,0,0,0,2.258-1.121l1.087,1.038a3.631,3.631,0,0,1-1.44,1.249A4.509,4.509,0,0,1,24.77,16.166Zm-.241-7.695a1.7,1.7,0,0,0-1.341.581,3.012,3.012,0,0,0-.652,1.619H26.38v-.149a2.452,2.452,0,0,0-.54-1.531A1.686,1.686,0,0,0,24.529,8.471Zm7.28-1.453.058,1.038a3.229,3.229,0,0,1,2.615-1.2q2.806,0,2.855,3.212V16H35.32V10.181a1.85,1.85,0,0,0-.369-1.266A1.554,1.554,0,0,0,33.743,8.5a1.944,1.944,0,0,0-1.818,1.1V16H29.908V7.019Zm10.11-2.183V7.019H43.5V8.513H41.919v5.014a1.1,1.1,0,0,0,.2.743.943.943,0,0,0,.726.228,3.107,3.107,0,0,0,.706-.083v1.561a4.968,4.968,0,0,1-1.328.191q-2.324,0-2.324-2.565V8.513H38.424V7.019H39.9V4.835ZM49,16.166a4.173,4.173,0,0,1-3.109-1.208A4.381,4.381,0,0,1,44.7,11.742v-.249a5.389,5.389,0,0,1,.519-2.4,3.949,3.949,0,0,1,1.457-1.648,3.851,3.851,0,0,1,2.092-.589A3.525,3.525,0,0,1,51.6,8.023a4.949,4.949,0,0,1,1,3.312v.813H46.733a2.7,2.7,0,0,0,.743,1.76,2.23,2.23,0,0,0,1.639.647,2.731,2.731,0,0,0,2.258-1.121l1.087,1.038a3.631,3.631,0,0,1-1.44,1.249A4.509,4.509,0,0,1,49,16.166Zm-.241-7.695a1.7,1.7,0,0,0-1.341.581,3.012,3.012,0,0,0-.652,1.619H50.61v-.149a2.452,2.452,0,0,0-.54-1.531A1.686,1.686,0,0,0,48.759,8.471Z" transform="translate(416 6106)" fill="#12263f"/>
    <path id="Trazado_603495" data-name="Trazado 603495" d="M7.545,12.887a1.459,1.459,0,0,0-.56-1.229,6.741,6.741,0,0,0-2.021-.872A9.76,9.76,0,0,1,2.64,9.808,3.1,3.1,0,0,1,.988,7.1,2.945,2.945,0,0,1,2.179,4.694a4.821,4.821,0,0,1,3.092-.946,5.223,5.223,0,0,1,2.25.465A3.692,3.692,0,0,1,9.073,5.537a3.4,3.4,0,0,1,.564,1.905H7.545A1.894,1.894,0,0,0,6.952,5.96a2.45,2.45,0,0,0-1.7-.535,2.558,2.558,0,0,0-1.6.44,1.465,1.465,0,0,0-.569,1.229A1.325,1.325,0,0,0,3.7,8.2a7.076,7.076,0,0,0,2.025.863,9.317,9.317,0,0,1,2.266.955,3.6,3.6,0,0,1,1.253,1.229,3.2,3.2,0,0,1,.4,1.623,2.876,2.876,0,0,1-1.158,2.4,5.023,5.023,0,0,1-3.142.892,5.9,5.9,0,0,1-2.411-.486,4.051,4.051,0,0,1-1.71-1.341,3.341,3.341,0,0,1-.61-1.992h2.1A1.955,1.955,0,0,0,3.4,13.941a2.981,2.981,0,0,0,1.951.564,2.59,2.59,0,0,0,1.648-.444A1.433,1.433,0,0,0,7.545,12.887ZM13.439,16H11.422V7.019h2.017ZM11.3,4.686a1.071,1.071,0,0,1,.295-.772,1.113,1.113,0,0,1,.843-.307,1.127,1.127,0,0,1,.847.307,1.062,1.062,0,0,1,.3.772,1.038,1.038,0,0,1-.3.76,1.136,1.136,0,0,1-.847.3,1.122,1.122,0,0,1-.843-.3A1.046,1.046,0,0,1,11.3,4.686Zm9.372,8.874a.914.914,0,0,0-.444-.822,4.723,4.723,0,0,0-1.473-.5,7.574,7.574,0,0,1-1.718-.548,2.293,2.293,0,0,1-1.511-2.117A2.391,2.391,0,0,1,16.5,7.633a3.872,3.872,0,0,1,2.49-.78,4.029,4.029,0,0,1,2.6.8,2.529,2.529,0,0,1,.992,2.067H20.569a1.243,1.243,0,0,0-.432-.967,1.654,1.654,0,0,0-1.146-.386,1.787,1.787,0,0,0-1.083.307.968.968,0,0,0-.419.822.818.818,0,0,0,.39.722,5.365,5.365,0,0,0,1.577.519,7.466,7.466,0,0,1,1.864.623,2.639,2.639,0,0,1,1,.867,2.212,2.212,0,0,1,.328,1.229,2.34,2.34,0,0,1-1,1.963,4.283,4.283,0,0,1-2.631.751,4.644,4.644,0,0,1-1.967-.4,3.238,3.238,0,0,1-1.345-1.1,2.594,2.594,0,0,1-.481-1.5h1.959a1.421,1.421,0,0,0,.54,1.1,2.1,2.1,0,0,0,1.32.386,2.04,2.04,0,0,0,1.212-.3A.938.938,0,0,0,20.669,13.56Zm6.267-8.724V7.019h1.585V8.513H26.936v5.014a1.1,1.1,0,0,0,.2.743.943.943,0,0,0,.726.228,3.107,3.107,0,0,0,.706-.083v1.561a4.968,4.968,0,0,1-1.328.191q-2.324,0-2.324-2.565V8.513H23.441V7.019h1.478V4.835Zm7.081,11.331a4.173,4.173,0,0,1-3.109-1.208,4.381,4.381,0,0,1-1.191-3.217v-.249a5.389,5.389,0,0,1,.519-2.4,3.949,3.949,0,0,1,1.457-1.648,3.851,3.851,0,0,1,2.092-.589,3.525,3.525,0,0,1,2.835,1.17,4.949,4.949,0,0,1,1,3.312v.813H31.75a2.7,2.7,0,0,0,.743,1.76,2.23,2.23,0,0,0,1.639.647,2.731,2.731,0,0,0,2.258-1.121l1.087,1.038a3.631,3.631,0,0,1-1.44,1.249A4.509,4.509,0,0,1,34.017,16.166Zm-.241-7.695a1.7,1.7,0,0,0-1.341.581,3.012,3.012,0,0,0-.652,1.619h3.843v-.149a2.452,2.452,0,0,0-.54-1.531A1.686,1.686,0,0,0,33.776,8.471Zm7.3-1.453.058.938a3.232,3.232,0,0,1,2.59-1.1A2.483,2.483,0,0,1,46.194,8.23,3.186,3.186,0,0,1,48.95,6.853a2.8,2.8,0,0,1,2.212.822A3.618,3.618,0,0,1,51.9,10.1V16H49.888V10.156A1.786,1.786,0,0,0,49.514,8.9a1.635,1.635,0,0,0-1.237-.4,1.679,1.679,0,0,0-1.125.369,1.948,1.948,0,0,0-.61.967L46.551,16H44.534V10.09A1.439,1.439,0,0,0,42.915,8.5a1.776,1.776,0,0,0-1.718.988V16H39.18V7.019ZM59.342,16a3.113,3.113,0,0,1-.232-.838,3.393,3.393,0,0,1-4.565.232,2.47,2.47,0,0,1-.855-1.909,2.55,2.55,0,0,1,1.067-2.2,5.169,5.169,0,0,1,3.051-.768h1.237V9.924a1.573,1.573,0,0,0-.39-1.116,1.547,1.547,0,0,0-1.187-.419,1.777,1.777,0,0,0-1.129.344,1.066,1.066,0,0,0-.44.876H53.88a2.239,2.239,0,0,1,.49-1.382A3.263,3.263,0,0,1,55.7,7.218a4.68,4.68,0,0,1,1.88-.365,3.769,3.769,0,0,1,2.515.793,2.827,2.827,0,0,1,.963,2.229v4.051a4.591,4.591,0,0,0,.34,1.934V16Zm-2.216-1.453a2.294,2.294,0,0,0,1.125-.291,1.941,1.941,0,0,0,.793-.78V11.783H57.956a2.973,2.973,0,0,0-1.685.39,1.264,1.264,0,0,0-.564,1.1,1.179,1.179,0,0,0,.386.926A1.5,1.5,0,0,0,57.126,14.547Z" transform="translate(407 6266)" fill="#12263f"/>
    <path id="Trazado_603494" data-name="Trazado 603494" d="M3.329,11.518V16h-2.1V3.914H5.852A4.675,4.675,0,0,1,9.069,4.969,3.549,3.549,0,0,1,10.26,7.761a3.431,3.431,0,0,1-1.166,2.767,4.9,4.9,0,0,1-3.266.989Zm0-1.693H5.852A2.485,2.485,0,0,0,7.562,9.3a1.937,1.937,0,0,0,.589-1.523,2.09,2.09,0,0,0-.6-1.565,2.3,2.3,0,0,0-1.644-.6H3.329Zm12.418,6.342a4.173,4.173,0,0,1-3.109-1.208,4.381,4.381,0,0,1-1.191-3.217v-.249a5.389,5.389,0,0,1,.519-2.4,3.949,3.949,0,0,1,1.457-1.648,3.851,3.851,0,0,1,2.092-.589,3.525,3.525,0,0,1,2.835,1.17,4.949,4.949,0,0,1,1,3.312v.813H13.48a2.7,2.7,0,0,0,.743,1.76,2.23,2.23,0,0,0,1.639.647,2.731,2.731,0,0,0,2.258-1.121l1.087,1.038a3.631,3.631,0,0,1-1.44,1.249A4.509,4.509,0,0,1,15.747,16.166Zm-.241-7.695a1.7,1.7,0,0,0-1.341.581,3.012,3.012,0,0,0-.652,1.619h3.843v-.149a2.452,2.452,0,0,0-.54-1.531A1.686,1.686,0,0,0,15.506,8.471Zm10.11.39a4.991,4.991,0,0,0-.822-.066,1.85,1.85,0,0,0-1.868,1.063V16H20.91V7.019h1.926l.05,1a2.273,2.273,0,0,1,2.025-1.17,1.888,1.888,0,0,1,.714.116Zm6.309,4.7a.914.914,0,0,0-.444-.822,4.723,4.723,0,0,0-1.473-.5,7.574,7.574,0,0,1-1.718-.548,2.293,2.293,0,0,1-1.511-2.117,2.391,2.391,0,0,1,.979-1.942,3.872,3.872,0,0,1,2.49-.78,4.029,4.029,0,0,1,2.6.8,2.529,2.529,0,0,1,.992,2.067H31.825a1.243,1.243,0,0,0-.432-.967,1.654,1.654,0,0,0-1.146-.386,1.787,1.787,0,0,0-1.083.307.968.968,0,0,0-.419.822.818.818,0,0,0,.39.722,5.365,5.365,0,0,0,1.577.519,7.466,7.466,0,0,1,1.864.623,2.639,2.639,0,0,1,1,.867,2.212,2.212,0,0,1,.328,1.229,2.34,2.34,0,0,1-1,1.963,4.283,4.283,0,0,1-2.631.751,4.644,4.644,0,0,1-1.967-.4,3.238,3.238,0,0,1-1.345-1.1,2.594,2.594,0,0,1-.481-1.5h1.959a1.421,1.421,0,0,0,.54,1.1,2.1,2.1,0,0,0,1.32.386,2.04,2.04,0,0,0,1.212-.3A.938.938,0,0,0,31.925,13.56Zm3.362-2.133a5.3,5.3,0,0,1,.523-2.378,3.819,3.819,0,0,1,1.469-1.627,4.14,4.14,0,0,1,2.175-.569A3.923,3.923,0,0,1,42.4,8.023a4.6,4.6,0,0,1,1.224,3.1l.008.473a5.343,5.343,0,0,1-.51,2.374,3.773,3.773,0,0,1-1.461,1.619,4.17,4.17,0,0,1-2.2.573A3.9,3.9,0,0,1,36.428,14.9a4.848,4.848,0,0,1-1.141-3.374ZM37.3,11.6a3.619,3.619,0,0,0,.573,2.171,1.862,1.862,0,0,0,1.594.784,1.842,1.842,0,0,0,1.59-.8,4,4,0,0,0,.569-2.333,3.572,3.572,0,0,0-.585-2.158,1.973,1.973,0,0,0-3.158-.012A3.922,3.922,0,0,0,37.3,11.6Zm9.911-4.582.058,1.038a3.229,3.229,0,0,1,2.615-1.2q2.806,0,2.855,3.212V16H50.726V10.181a1.85,1.85,0,0,0-.369-1.266A1.554,1.554,0,0,0,49.149,8.5a1.944,1.944,0,0,0-1.818,1.1V16H45.314V7.019ZM60.164,16a3.113,3.113,0,0,1-.232-.838,3.393,3.393,0,0,1-4.565.232,2.47,2.47,0,0,1-.855-1.909,2.55,2.55,0,0,1,1.067-2.2,5.169,5.169,0,0,1,3.051-.768h1.237V9.924a1.573,1.573,0,0,0-.39-1.116,1.547,1.547,0,0,0-1.187-.419,1.777,1.777,0,0,0-1.129.344,1.066,1.066,0,0,0-.44.876H54.7a2.239,2.239,0,0,1,.49-1.382,3.263,3.263,0,0,1,1.332-1.009,4.68,4.68,0,0,1,1.88-.365,3.769,3.769,0,0,1,2.515.793,2.827,2.827,0,0,1,.963,2.229v4.051a4.591,4.591,0,0,0,.34,1.934V16Zm-2.216-1.453a2.294,2.294,0,0,0,1.125-.291,1.941,1.941,0,0,0,.793-.78V11.783H58.778a2.973,2.973,0,0,0-1.685.39,1.264,1.264,0,0,0-.564,1.1,1.179,1.179,0,0,0,.386.926A1.5,1.5,0,0,0,57.948,14.547ZM66.141,16H64.124V3.25h2.017Z" transform="translate(1127 6266)" fill="#12263f"/>
    <path id="Polígono_5" data-name="Polígono 5" d="M86.5,0,173,151H0Z" transform="translate(712 6040)" fill="#727997"/>
    <path id="Polígono_6" data-name="Polígono 6" d="M85.5,0,171,149H0Z" transform="translate(807 6206)" fill="#2b8b77"/>
    <path id="Trazado_600861" data-name="Trazado 600861" d="M85.5,0,171,149H0Z" transform="translate(618 6206)" fill="#988575"/>
    <path id="Polígono_8" data-name="Polígono 8" d="M90,0l90,156H0Z" transform="translate(888 6355) rotate(180)" fill="#144567"/>
    <path id="Sustracción_1" data-name="Sustracción 1" d="M8399,11863h-86l86-150.129V11863Z" transform="translate(-7601 -5672)" fill="#8b92b1"/>
    <path id="Sustracción_2" data-name="Sustracción 2" d="M8403,11864h0l-90-156h90v156h0v0Z" transform="translate(-7605 -5509)" fill="#1a5177"/>
    <path id="Trazado_600857" data-name="Trazado 600857" d="M-7640.5-5604.83h253.007" transform="translate(8457.492 11720.33)" fill="none" stroke="#727997" stroke-width="2"/>
    <path id="Trazado_600858" data-name="Trazado 600858" d="M-7640.5-5604.83h157.922" transform="translate(8552.578 11880.83)" fill="none" stroke="#2b8b77" stroke-width="2"/>
    <path id="Trazado_600859" data-name="Trazado 600859" d="M-7640.5-5604.83h157.922" transform="translate(8165.5 11880.83)" fill="#988575" stroke="#988575" stroke-width="2"/>
    <path id="Trazado_600860" data-name="Trazado 600860" d="M-7640.5-5604.83h135.922l88.6,88.6" transform="translate(8165.5 11720.83)" fill="none" stroke="#144567" stroke-width="2"/>
    <rect id="Rectángulo_46685" data-name="Rectángulo 46685" width="610" height="4" transform="translate(495 5971)" fill="#66b9a8"/>
    <g id="Grupo_160627" data-name="Grupo 160627" transform="translate(764.507 6098)">
      <g id="Grupo_160626" data-name="Grupo 160626" clip-path="url(#clip-path-2)">
        <path id="Trazado_600866" data-name="Trazado 600866" d="M36.146,0a3.558,3.558,0,0,1,2.518,3.427c.1,1.123.329,2.234.478,3.353a.689.689,0,0,0,.615.675,25.207,25.207,0,0,1,7.778,3.235.621.621,0,0,0,.836-.076Q49.987,9.392,51.628,8.2a3.043,3.043,0,0,1,4.258.32Q57.2,9.81,58.492,11.128a3.035,3.035,0,0,1,.312,4.2Q57.6,17,56.347,18.646a.625.625,0,0,0-.028.84A25.1,25.1,0,0,1,59.5,27.128a.828.828,0,0,0,.821.739c1.339.173,2.673.383,4.007.592a3,3,0,0,1,2.641,3.05q.025,1.99,0,3.981a2.96,2.96,0,0,1-2.579,3.02c-1.4.248-2.816.426-4.216.677a.853.853,0,0,0-.584.472,27.853,27.853,0,0,1-3.53,8.278q1.308,1.775,2.614,3.546a3.108,3.108,0,0,1-.343,4.54q-1.17,1.175-2.346,2.345a3.1,3.1,0,0,1-4.487.325c-1.052-.767-2.086-1.559-3.149-2.309a.83.83,0,0,0-.694-.121C46.613,56.8,45.6,57.39,44.493,58c.155.237.3.479.465.707a5.884,5.884,0,0,1,.953,3.783.9.9,0,0,0,.319.693c2.083,1.183,2.649,2.5,2.036,4.953.165.072.337.147.509.224a3.584,3.584,0,0,1,2.292,3.314c.032.785.015,1.572.01,2.359-.007,1.1-.359,1.459-1.45,1.46q-4.718,0-9.436,0H17.559c-1.357,0-1.649-.289-1.652-1.628,0-.467,0-.934,0-1.4,0-2.409.613-3.36,2.782-4.324-.473-2.842.02-3.909,2.322-5.078a16.057,16.057,0,0,1,.279-2.705,14.858,14.858,0,0,1,1.114-2.4c-1.008-.566-2.064-1.179-3.146-1.741-.145-.076-.461.05-.634.173-1.1.785-2.173,1.6-3.268,2.4a3.054,3.054,0,0,1-4.259-.32c-.875-.862-1.747-1.728-2.606-2.606a3.037,3.037,0,0,1-.311-4.2q1.188-1.641,2.411-3.257a.668.668,0,0,0,.073-.9,25.011,25.011,0,0,1-3.206-7.711.722.722,0,0,0-.725-.642c-1.361-.191-2.723-.386-4.076-.624A2.98,2.98,0,0,1,.008,35.338C0,34.06-.006,32.782.01,31.5a3,3,0,0,1,2.644-3.047q2-.312,4.006-.6c.418-.059.686-.163.8-.665a25.016,25.016,0,0,1,3.2-7.712.624.624,0,0,0-.03-.839c-.835-1.093-1.651-2.2-2.457-3.315a3.031,3.031,0,0,1,.315-4.2Q9.807,9.783,11.152,8.47a3.022,3.022,0,0,1,4.145-.31c1.136.818,2.245,1.674,3.393,2.474a.839.839,0,0,0,.746.036,26.312,26.312,0,0,1,7.791-3.214.69.69,0,0,0,.614-.676c.149-1.119.381-2.23.478-3.353A3.554,3.554,0,0,1,30.838,0ZM29.674,27.275c0-.808-.018-1.542,0-2.276a2.255,2.255,0,0,1,2.3-2.286c.909-.019,1.818-.007,2.728,0a2.33,2.33,0,0,1,2.609,2.647c0,.631,0,1.263,0,1.893H38.6c0-.84-.035-1.624.008-2.405a2.193,2.193,0,0,1,2.206-2.128c.933-.025,1.868-.021,2.8,0A2.213,2.213,0,0,1,45.888,25q.025,3.207,0,6.414a3.508,3.508,0,0,1-1.779,3.039c-.2.128-.411.24-.6.351.705,2.773.151,3.966-2.394,5.26a.544.544,0,0,0-.285.35c-.03.577-.013,1.156-.013,1.722,1.417.112,1.9.381,1.893,1.1-.015,1.252-1.02,1.148-1.835,1.2a15.514,15.514,0,0,0,.5,5.74c.111-.043.226-.079.335-.131A18.477,18.477,0,0,0,28.15,15.8c-.88.249-1.472.01-1.675-.675-.191-.643.178-1.17,1.018-1.426A20.687,20.687,0,0,1,44.028,51.3c-.693.411-1.419.766-2.239,1.205l1.5,3.636c1.345-.769,2.6-1.443,3.8-2.189a1.419,1.419,0,0,1,1.815.066c1.309,1,2.653,1.948,3.966,2.941a1,1,0,0,0,1.494-.093c.774-.79,1.563-1.564,2.343-2.348.716-.72.737-.965.148-1.764-.961-1.306-1.917-2.615-2.892-3.91a1.26,1.26,0,0,1-.088-1.621,24.367,24.367,0,0,0,3.73-8.981,1.246,1.246,0,0,1,1.181-1.106c1.629-.221,3.253-.483,4.88-.727.883-.132,1.09-.361,1.093-1.245q.007-1.659,0-3.317c0-.908-.151-1.1-1.08-1.245-1.527-.243-3.058-.462-4.589-.683-1.078-.156-1.332-.359-1.534-1.364a24.171,24.171,0,0,0-3.551-8.584c-.566-.862-.546-1.126.084-1.981.962-1.3,1.916-2.615,2.889-3.912a.959.959,0,0,0-.105-1.432c-.807-.792-1.6-1.6-2.4-2.4-.7-.694-.922-.711-1.7-.138-1.326.975-2.652,1.949-3.97,2.935a1.22,1.22,0,0,1-1.558.083A24.266,24.266,0,0,0,38.2,9.373a1.21,1.21,0,0,1-1.063-1.139c-.217-1.581-.475-3.155-.706-4.734-.162-1.109-.351-1.287-1.455-1.288q-1.475,0-2.949,0c-1.124,0-1.312.171-1.471,1.269-.227,1.555-.488,3.1-.689,4.662A1.335,1.335,0,0,1,28.66,9.409a23.629,23.629,0,0,0-8.781,3.635,1.373,1.373,0,0,1-1.807-.072c-1.306-1-2.649-1.954-3.962-2.945a.981.981,0,0,0-1.488.1c-.8.832-1.634,1.633-2.445,2.454-.593.6-.611.894-.1,1.595.915,1.248,1.839,2.489,2.759,3.734.706.956.716,1.173.068,2.165a24.054,24.054,0,0,0-3.451,8.312c-.249,1.188-.43,1.359-1.62,1.534-1.579.232-3.154.482-4.734.709a.914.914,0,0,0-.884,1.046c.013,1.13,0,2.261,0,3.391,0,1.021.18,1.2,1.22,1.353,1.555.225,3.1.5,4.661.693a1.366,1.366,0,0,1,1.31,1.248,23.673,23.673,0,0,0,3.646,8.778,1.343,1.343,0,0,1-.071,1.749C11.978,50.219,11,51.575,10,52.912a.966.966,0,0,0,.1,1.436c.824.809,1.632,1.634,2.454,2.446.608.6.913.627,1.6.127,1.249-.913,2.491-1.837,3.736-2.756.984-.727,1.163-.7,2.233-.061,1.145.687,2.325,1.314,3.581,2.018L25.194,52.5c-.239-.132-.383-.22-.533-.294a20.621,20.621,0,0,1-6.082-33A33.279,33.279,0,0,1,22.806,15.8a1.072,1.072,0,0,1,1.611.261,1.116,1.116,0,0,1-.423,1.587c-.1.072-.206.133-.309.2a18.436,18.436,0,0,0-1.276,30.41c.995.761,2.119,1.353,3.183,2.024l.283-.151c.127-1.885.254-3.771.38-5.645-1.586-.2-2-.455-1.978-1.171.007-.23.08-.577.236-.663a15.322,15.322,0,0,1,1.666-.688,7.979,7.979,0,0,1,.008-1.024c.067-.578-.139-.838-.71-1.05a3.2,3.2,0,0,1-2.163-2.506,17.022,17.022,0,0,1-.027-2.7,3.857,3.857,0,0,1-2.214-4.068c.073-1.766.013-3.538.016-5.307s.859-2.6,2.636-2.6c.713,0,1.425,0,2.138,0A2.28,2.28,0,0,1,28.4,25.2c.011.681,0,1.363,0,2.075ZM23.355,62.947h.82c1.032,0,2.065-.015,3.1.011a1.038,1.038,0,0,1,1.091,1.053,1.091,1.091,0,0,1-1.022,1.139,4.476,4.476,0,0,1-.589.016c-1.524,0-3.047-.01-4.571.007a1.436,1.436,0,0,0-1.513,1.387,1.482,1.482,0,0,0,1.395,1.524,6.324,6.324,0,0,0,.736.017H42.189c.786,0,1.573.012,2.359-.007a2.714,2.714,0,0,0,.865-.138,1.449,1.449,0,0,0-.682-2.786q-6.23-.01-12.459-.007a3.189,3.189,0,0,1-.873-.079,1,1,0,0,1-.772-1.111,1.016,1.016,0,0,1,.982-1.011,5.9,5.9,0,0,1,.663-.013H43.619a4.371,4.371,0,0,0-.677-3.282A23.684,23.684,0,0,1,38.6,46.28c-.011-.608,0-1.216,0-1.851H28.4c0,.32,0,.609,0,.9a24.108,24.108,0,0,1-4.44,14.468,4.335,4.335,0,0,0-.6,3.154M23.3,24.955c0,2.034,0,4.017,0,6,0,1.307.476,1.789,1.764,1.791q3.5.006,7,0c.491,0,.985-.028,1.473.017a1.1,1.1,0,0,1,.242,2.15,2.574,2.574,0,0,1-.731.049c-2.014,0-4.029,0-6.043,0a1.516,1.516,0,0,0-1.485.894,1.2,1.2,0,0,0,.2,1.5,2.683,2.683,0,0,0,1.491.592c1.987.066,3.978.028,5.968.027,2.26,0,4.52.013,6.78-.008A1.5,1.5,0,0,0,41.6,36.458a1.54,1.54,0,0,0-1.67-1.49c-.565-.012-1.13,0-1.695,0-.925-.009-1.415-.409-1.4-1.131.017-.686.507-1.079,1.382-1.084,1.277-.007,2.555.005,3.832,0a1.432,1.432,0,0,0,1.626-1.631c.009-1.695,0-3.39,0-5.085V24.973H40.805v1.216c0,2.874-.538,3.4-3.407,3.338a2.118,2.118,0,0,1-2.3-2.29c-.01-.752,0-1.5,0-2.26h-3.21c0,.489-.027.929,0,1.364.183,2.526-.815,3.328-3.254,3.2-1.632-.086-2.431-.819-2.455-2.458-.011-.7,0-1.4,0-2.129Zm-5.17,48.29H48.794c.233-2.092.058-2.978-2.447-2.959-8.67.065-17.341.025-26.012.025-.27,0-.541-.008-.81.012a1.394,1.394,0,0,0-1.383,1.354c-.034.507-.007,1.019-.007,1.567m20.4-32.974H28.45v1.888H38.532Z" transform="translate(0)" fill="#fff"/>
      </g>
    </g>
    <path id="Intersección_1" data-name="Intersección 1" d="M8380,11862l85.5-149,.5.872V11862Z" transform="translate(-7573 -5507)" fill="#379e88"/>
    <path id="Intersección_2" data-name="Intersección 2" d="M8461,11856v-148.127l.5-.872,85.5,149Z" transform="translate(-7758 -5501)" fill="#847365"/>
    <g id="Grupo_160632" data-name="Grupo 160632" transform="translate(666.176 6269)">
      <g id="Grupo_160631" data-name="Grupo 160631" clip-path="url(#clip-path-3)">
        <path id="Trazado_600875" data-name="Trazado 600875" d="M11.849,23.165a8.908,8.908,0,0,1,1.07.577c1.08.8,2.153,1.6,3.2,2.44a.842.842,0,0,0,1.024.083c1.295-.579,2.61-1.115,3.934-1.625a.84.84,0,0,0,.662-.785c.164-1.413.391-2.819.611-4.225a1.3,1.3,0,0,1,1.435-1.263,2.5,2.5,0,0,1,.574,0,1.485,1.485,0,0,0,1.854-1.1,1.151,1.151,0,0,0-.146-1.378c-.816-.994-1.574-2.036-2.344-3.068a1.367,1.367,0,0,1,.128-2.1q2.6-2.626,5.229-5.231a1.358,1.358,0,0,1,2.1-.168c1.1.81,2.2,1.625,3.281,2.469a.9.9,0,0,0,1.1.13c1.289-.592,2.606-1.129,3.933-1.631a.833.833,0,0,0,.656-.785c.169-1.413.393-2.819.613-4.225A1.3,1.3,0,0,1,42.2.01q3.821-.021,7.642,0c.9,0,1.324.4,1.465,1.325.211,1.38.436,2.759.594,4.145.054.473.28.618.672.771,1.322.515,2.617,1.1,3.945,1.6a1.249,1.249,0,0,0,1-.089c1.128-.774,2.2-1.624,3.3-2.437a1.4,1.4,0,0,1,2.167.161q2.595,2.577,5.171,5.173a1.41,1.41,0,0,1,.127,2.23c-.805,1.073-1.609,2.148-2.438,3.2a.85.85,0,0,0-.126,1.025c.6,1.317,1.1,2.676,1.694,4a1.141,1.141,0,0,0,.7.59c1.4.255,2.813.43,4.219.648a1.319,1.319,0,0,1,1.305,1.484q.019,3.78,0,7.561a1.328,1.328,0,0,1-1.288,1.5c-1.379.217-2.759.434-4.145.6a.834.834,0,0,0-.8.632c-.515,1.351-1.113,2.671-1.625,4.024a1.159,1.159,0,0,0,.086.927c.779,1.125,1.626,2.2,2.439,3.3a1.391,1.391,0,0,1-.117,2.17q-2.611,2.619-5.247,5.213a1.364,1.364,0,0,1-2.106.133c-1.1-.811-2.209-1.619-3.282-2.469a.78.78,0,0,0-1.093-.065c-.463.362-1.265.276-1.249,1.253.041,2.521-.006,2.519-2.53,2.877-.976.138-1.946.33-2.926.416-.484.043-.616.287-.767.673-.518,1.322-1.1,2.617-1.6,3.945a1.25,1.25,0,0,0,.1,1c.758,1.106,1.591,2.16,2.389,3.239.676.914.651,1.454-.123,2.234q-2.576,2.6-5.171,5.172a1.379,1.379,0,0,1-2.169.12c-1.078-.8-2.163-1.589-3.22-2.415a.907.907,0,0,0-1.1-.133c-1.315.6-2.676,1.1-4,1.687a1.055,1.055,0,0,0-.55.652c-.25,1.4-.429,2.813-.646,4.22a1.341,1.341,0,0,1-1.529,1.35q-3.739.016-7.478,0a1.341,1.341,0,0,1-1.55-1.328c-.224-1.35-.45-2.7-.628-4.056a.923.923,0,0,0-.694-.863c-1.328-.5-2.639-1.048-3.934-1.626a.844.844,0,0,0-1.027.094c-1.046.839-2.124,1.64-3.2,2.443a1.392,1.392,0,0,1-2.169-.121q-2.625-2.605-5.23-5.23a1.358,1.358,0,0,1-.126-2.1c.814-1.1,1.623-2.206,2.472-3.279a.908.908,0,0,0,.091-1.1c-.584-1.293-1.077-2.627-1.657-3.922a1.146,1.146,0,0,0-.7-.6c-1.4-.256-2.811-.436-4.218-.648A1.319,1.319,0,0,1,.009,49.835q-.019-3.78,0-7.561c0-.953.387-1.369,1.359-1.518,1.38-.211,2.766-.383,4.138-.634a1.143,1.143,0,0,0,.7-.593q.886-1.98,1.655-4.011a1.159,1.159,0,0,0-.073-.928c-.8-1.147-1.661-2.245-2.488-3.37a1.371,1.371,0,0,1,.15-2.1c1.779-1.785,3.561-3.567,5.365-5.327a5.317,5.317,0,0,1,1.032-.624M2.668,48.832c1.408.19,2.786.406,4.171.554a1.789,1.789,0,0,1,1.632,1.441,46.936,46.936,0,0,0,2.171,5.2,1.913,1.913,0,0,1-.16,2.321c-.86,1.091-1.651,2.235-2.4,3.263l4,3.956c1.1-.822,2.291-1.7,3.464-2.591a1.622,1.622,0,0,1,1.83-.129c1.842.818,3.7,1.6,5.582,2.322a1.639,1.639,0,0,1,1.234,1.441c.182,1.459.42,2.911.636,4.373h5.591c.2-1.467.418-2.9.575-4.339.095-.869.587-1.231,1.363-1.52,1.811-.675,3.6-1.411,5.36-2.22A1.73,1.73,0,0,1,39.686,63c1.188.878,2.4,1.727,3.533,2.542l3.966-3.969c-.838-1.123-1.711-2.311-2.6-3.483a1.62,1.62,0,0,1-.14-1.828c.82-1.842,1.6-3.7,2.319-5.586a1.632,1.632,0,0,1,1.455-1.215c1.456-.18,2.9-.417,4.322-.626V43.279c-1.445-.205-2.824-.427-4.209-.588a1.83,1.83,0,0,1-1.641-1.448,55.233,55.233,0,0,0-2.156-5.209,1.858,1.858,0,0,1,.132-2.186c.872-1.144,1.684-2.335,2.4-3.34l-3.974-4c-1.084.811-2.249,1.673-3.4,2.552a1.626,1.626,0,0,1-1.829.157c-1.841-.82-3.7-1.6-5.582-2.322a1.637,1.637,0,0,1-1.231-1.443c-.181-1.459-.42-2.91-.635-4.368H24.821c-.2,1.469-.417,2.9-.576,4.342-.1.869-.593,1.23-1.368,1.517-1.762.651-3.509,1.358-5.215,2.142-1.057.486-1.34.545-2.308-.177-1.114-.83-2.23-1.659-3.249-2.417L8.127,30.457c.84,1.128,1.715,2.319,2.608,3.5a1.565,1.565,0,0,1,.116,1.757c-.828,1.868-1.629,3.749-2.364,5.654A1.646,1.646,0,0,1,7.05,42.605c-1.46.183-2.913.42-4.382.637ZM61.742,8.026c-1.261.94-2.451,1.815-3.627,2.707a1.419,1.419,0,0,1-1.749.108,19.775,19.775,0,0,0-5.729-2.393,1.453,1.453,0,0,1-1.175-1.387c-.188-1.461-.421-2.916-.639-4.4H43.234c-.2,1.455-.415,2.885-.587,4.32A1.663,1.663,0,0,1,41.33,8.441c-1.814.667-3.609,1.4-5.353,2.232a1.843,1.843,0,0,1-2.181-.133c-1.124-.861-2.3-1.657-3.324-2.392L26.49,12.122c.7.936,1.4,1.987,2.212,2.938a2,2,0,0,1,.192,2.863,1.465,1.465,0,0,0-.16.422c1.36.341,2.858-.46,4.012.668,4.191-5.743,9.741-8.408,16.77-6.881a14.771,14.771,0,0,1,11.981,12c1.515,7.036-1.151,12.582-6.919,16.775,1.146,1.128.339,2.637.709,4a2.225,2.225,0,0,0,.52-.216,1.915,1.915,0,0,1,2.662.153c1.037.835,2.159,1.563,3.117,2.247l3.978-3.973c-.812-1.087-1.667-2.256-2.549-3.4a1.66,1.66,0,0,1-.148-1.9c.817-1.812,1.583-3.65,2.285-5.509a1.675,1.675,0,0,1,1.506-1.265c1.436-.169,2.864-.411,4.307-.625V24.866c-1.446-.205-2.848-.432-4.258-.594-.927-.106-1.314-.626-1.616-1.472a53.447,53.447,0,0,0-2.125-5.132,1.869,1.869,0,0,1,.126-2.252c.882-1.108,1.7-2.267,2.55-3.408-.142-.159-.227-.264-.322-.36-1.173-1.188-2.347-2.375-3.58-3.622m-15.69,6.434a13.1,13.1,0,0,0-12.416,8.821c-.314.892-.171,1.094.632,1.4,1.273.492,2.536,1.015,3.775,1.587a.9.9,0,0,0,1.1-.087c1.076-.846,2.181-1.655,3.283-2.467a1.371,1.371,0,0,1,2.105.144q2.627,2.6,5.231,5.23a1.362,1.362,0,0,1,.151,2.106c-.828,1.125-1.693,2.223-2.491,3.368a1.151,1.151,0,0,0-.1.923c.521,1.379,1.136,2.722,1.649,4.1a.707.707,0,0,0,.849.546,3.878,3.878,0,0,0,.865-.239,13.142,13.142,0,0,0-4.636-25.44" transform="translate(0 0)" fill="#fff"/>
        <path id="Trazado_600876" data-name="Trazado 600876" d="M85.49,153.586a15.778,15.778,0,1,1-15.608-15.78,15.8,15.8,0,0,1,15.608,15.78m-28.926-.028a13.148,13.148,0,1,0,13.28-13.123,13.168,13.168,0,0,0-13.28,13.123" transform="translate(-42.093 -107.549)" fill="#fff"/>
      </g>
    </g>
    <g id="Grupo_160634" data-name="Grupo 160634" transform="translate(865.949 6269)">
      <g id="Grupo_160633" data-name="Grupo 160633" clip-path="url(#clip-path-4)">
        <path id="Trazado_600877" data-name="Trazado 600877" d="M49.051,70.148V61.422c0-4.441-5.14-7.323-7.308-8.34v.043c-2.188-.891-4.237-1.716-6.276-2.561-1.024-.424-2.435-.625-2.937-1.4-.532-.823-.117-2.217-.252-3.346-.24-2.024.118-3.767,1.906-5A2.748,2.748,0,0,0,34.7,40.2a24.721,24.721,0,0,0,4.8-12.147,2.819,2.819,0,0,1,.478-1.581,14.934,14.934,0,0,0,3.948-7.281,6.219,6.219,0,0,0-2.584-7.05,1.46,1.46,0,0,1-.747-1.471,6.352,6.352,0,0,0-5.47-6.63,20.5,20.5,0,0,0-4,.22c.026.036-.086-.114-.194-.267a7.59,7.59,0,0,0-9.5-2.891A1.807,1.807,0,0,1,20.111.884,6.514,6.514,0,0,0,10.972,3.6,2.179,2.179,0,0,1,9.5,4.826,8.51,8.51,0,0,0,4.568,16.959a6.872,6.872,0,0,1,.844,3.355c.035,2.475.465,4.948,2.454,6.583a6.042,6.042,0,0,1,2.379,4.41.643.643,0,0,0,.021.113,1.814,1.814,0,0,0,2.17,1.548,1.739,1.739,0,0,0,1.222-2.252c-.175-.98-.342-1.963-.574-2.93a1.426,1.426,0,0,1,.861-1.778,9.324,9.324,0,0,0,2.387-1.354,5.9,5.9,0,0,1,3.827-1.577,9.7,9.7,0,0,0,6.675-4.029c1.633.347,3.111.651,4.583.987a1.415,1.415,0,0,1,.621.393c1.078,1.067,2.184,2.111,3.19,3.244a3.127,3.127,0,0,1,.967,1.8c-.191,4.949-1.5,9.543-4.879,13.32-3.86,4.322-9.588,4.318-13.516.067-.312-.338-.6-.7-.893-1.053-.84-1-1.742-1.2-2.587-.56s-.911,1.705-.082,2.731c.624.773,1.373,1.447,1.99,2.225a2.6,2.6,0,0,1,.608,1.36c.075,1.569-.011,3.146.046,4.717a1.2,1.2,0,0,1-.9,1.344Q11.916,51.228,7.9,52.944c-1.405.6-3.081.984-4.086,2.005a3.736,3.736,0,0,1-1.781,1.108h0A8.188,8.188,0,0,0,.478,59.675l.1.043c-.059.116-.116.232-.17.348a71.453,71.453,0,0,0-.4,9.352v.724h0C.007,71.457,0,72.624,0,73.66H49.051ZM34.71,17.872c-.635-1.386-1.11-1.753-2.55-1.432a3.91,3.91,0,0,1-4.1-1.422c-1.21-1.411-2.538-1.209-3.28.477-1.44,3.268-3.865,4.617-7.449,4.12A1.975,1.975,0,0,0,15.152,20.7a5.347,5.347,0,0,1-1.532,1.57c-1.059.732-2.2,1.339-3.468,2.091a5.253,5.253,0,0,1-1.265-3.432,11.33,11.33,0,0,1-.045-2.067,4.243,4.243,0,0,0-.9-2.967A5.1,5.1,0,0,1,11.655,7.87,2.021,2.021,0,0,0,13.75,6.031a2.931,2.931,0,0,1,2.284-2.468,3.044,3.044,0,0,1,3.119.979c.992,1.015,1.626,1.059,2.814.26,2.783-1.871,5.876-.645,6.646,2.634.417,1.777,1.774,2.2,3.122.979a3.092,3.092,0,0,1,4.068-.5,3.133,3.133,0,0,1,1.013,3.974c-.514,1.424-.061,2.264,1.423,2.632a2.9,2.9,0,0,1,2.315,3.9c-.4,1.339-.982,2.624-1.481,3.928a33,33,0,0,1-2.812-2.267,7.771,7.771,0,0,1-1.552-2.213M20.318,44.749a13.122,13.122,0,0,0,8.519-.018c0,1.652.03,3.166-.027,4.677-.01.27-.33.585-.583.782a6.179,6.179,0,0,1-7.289.025,1.445,1.445,0,0,1-.592-.885c-.062-1.483-.028-2.97-.028-4.582M3.564,70.157c0-3.039-.088-5.987.035-8.927a4.255,4.255,0,0,1,2.429-3.685c1.838-.92,3.769-1.653,5.707-2.487A30.332,30.332,0,0,1,18,70.157Zm17.952.018a34.644,34.644,0,0,0-6.438-16.45c.884-.368,1.67-.752,2.5-1.009a1.441,1.441,0,0,1,1.1.16,9.683,9.683,0,0,0,11.775,0,1.454,1.454,0,0,1,1.1-.165c.8.241,1.558.615,2.442.98a34.5,34.5,0,0,0-6.474,16.481Zm24.061-.013H31.028a30.133,30.133,0,0,1,5.116-13.52,4.156,4.156,0,0,0,.328-.471c.48-.977,1.113-1.134,2.107-.626,1.223.624,2.545,1.05,3.8,1.608a4.821,4.821,0,0,1,3.162,4.3c.124,2.861.031,5.73.031,8.707" transform="translate(0 -0.001)" fill="#fff"/>
      </g>
    </g>
    <g id="Grupo_160636" data-name="Grupo 160636" transform="translate(763.739 6214.534)">
      <g id="Grupo_160635" data-name="Grupo 160635" clip-path="url(#clip-path-5)">
        <path id="Trazado_600878" data-name="Trazado 600878" d="M59.681,58.522c0,2.86,0,5.62,0,8.379,0,1.228-.332,1.565-1.544,1.565H10.416c-1.255,0-1.572-.325-1.573-1.6q0-3.763,0-7.526v-.814h-3.7c-1.243,0-2.486,0-3.729,0C.379,58.517,0,58.142,0,57.1Q0,49.956,0,42.81a5.481,5.481,0,0,1,3.527-5.276c3.012-1.256,6.021-2.518,9.042-3.751a1.022,1.022,0,0,0,.719-1.039,3.234,3.234,0,0,0-1.537-3.349,9.78,9.78,0,0,1-3.785-6.141c-2.549-.559-3.608-1.563-3.608-3.41,0-1.732,1.109-2.917,3.2-3.365-.485-.972-.963-1.93-1.441-2.888A6.906,6.906,0,0,1,10.147,3.535a7.132,7.132,0,0,0,1.7-1.144A11.189,11.189,0,0,1,18.834,0a8.2,8.2,0,0,1,2.851.4,33.289,33.289,0,0,1,6.129,2.773C31.1,5.3,32.158,8.545,31.572,12.294h4.869a4.093,4.093,0,0,0-.057-.419,6.942,6.942,0,0,1,4.572-8.3A7.476,7.476,0,0,0,42.79,2.393,11.226,11.226,0,0,1,49.773,0a8.257,8.257,0,0,1,2.851.4,37.264,37.264,0,0,1,6.082,2.719A8.708,8.708,0,0,1,62.1,13.67c-.362.941-.783,1.859-1.178,2.792,2.309.566,3.354,1.8,3.2,3.737-.137,1.694-1.445,2.822-3.534,3-.083.3-.164.63-.264.952a10.851,10.851,0,0,1-4.6,6.086.826.826,0,0,0-.462.818c.033.8.01,1.607.01,2.421,3.152,1.314,6.266,2.62,9.386,3.912a5.59,5.59,0,0,1,3.876,5.807q0,6.9,0,13.809c0,1.173-.346,1.518-1.52,1.519-2.413,0-4.825,0-7.32,0M39.788,45.507c.232.07.407.127.583.176C45.462,47.1,50.56,48.5,55.642,49.951a5.286,5.286,0,0,1,3.948,4.426,16.4,16.4,0,0,1,.139,1.88h6.584c0-4.4,0-8.754,0-13.1a3.427,3.427,0,0,0-2.476-3.705c-3.287-1.373-6.571-2.752-9.864-4.11a1.305,1.305,0,0,1-.931-1.359q.035-1.933,0-3.867a1.391,1.391,0,0,1,.779-1.337,11.934,11.934,0,0,0,1.911-1.344A8.435,8.435,0,0,0,58.462,22.3c.166-1.093.471-1.342,1.6-1.345a5.7,5.7,0,0,0,.828-.015,1.095,1.095,0,0,0-.013-2.18c-.365-.036-.736,0-1.1-.017a1.131,1.131,0,0,1-1.2-1.214,4.248,4.248,0,0,1,.406-2.2c.4-.8.743-1.632,1.058-2.471A6.646,6.646,0,0,0,56.8,4.523c-1.209-.611-2.453-1.157-3.7-1.678a8.527,8.527,0,0,0-4.259-.6,9.338,9.338,0,0,0-4.784,1.965A10.34,10.34,0,0,1,41.241,5.9a4.31,4.31,0,0,0-2.8,3.567A4.642,4.642,0,0,0,39.293,13a4.519,4.519,0,0,0,1.571,1c.442.242.923.413,1.376.638A8.752,8.752,0,0,1,47.1,23.749a22.567,22.567,0,0,1-1.179,3.723c-.132.394-.317.77-.5,1.218.423,0,.722-.006,1.02,0a3.312,3.312,0,0,1,.01,6.625c-.454.011-.908,0-1.348,0a11.293,11.293,0,0,1-4.952,7.142.855.855,0,0,0-.347.579c-.039.8-.016,1.608-.016,2.469M23.044,28.647c-.586-1.179-1.158-2.277-1.682-3.4a6.793,6.793,0,0,1,3.366-9.169,13.813,13.813,0,0,0,2.759-1.649c.314-.232.665-.416.967-.661a1.742,1.742,0,0,0,.516-.607,6.665,6.665,0,0,0-3.119-8.646c-1.209-.611-2.452-1.161-3.7-1.677a8.805,8.805,0,0,0-5.281-.428,11.612,11.612,0,0,0-4.7,2.508,3.974,3.974,0,0,1-1.175.69,4.684,4.684,0,0,0-2.95,6.863c.547,1.114,1.187,2.19,1.633,3.343A5.084,5.084,0,0,1,9.886,17.9a.964.964,0,0,1-1.032.839c-.391.019-.784-.014-1.173.018a1.1,1.1,0,0,0-.022,2.186c.319.032.644.01.966.013.908.009,1.268.283,1.4,1.17A8.737,8.737,0,0,0,14.722,28.8a1.323,1.323,0,0,1,.756,1.281c-.013,1.22,0,2.44,0,3.659,0,1.085-.126,1.271-1.149,1.7q-4.869,2.025-9.739,4.048a3.384,3.384,0,0,0-2.374,3.568q0,6.249,0,12.5v.727H8.843c0-.28,0-.527,0-.773a5.557,5.557,0,0,1,4.266-5.642q5.115-1.42,10.233-2.827c1.79-.5,3.578-1,5.394-1.513,0-.773-.025-1.509.009-2.242a.932.932,0,0,0-.5-.941,10.81,10.81,0,0,1-4.652-6.37c-.059-.214-.133-.423-.194-.616-3.262-.24-4.591-1.205-4.609-3.317-.018-2.066,1.339-3.174,4.251-3.391M11.057,66.213h6.657V57.455h2.2V66.2H48.656V57.466h2.221v8.751h6.545a1.462,1.462,0,0,0,.044-.234c0-3.614.019-7.228-.008-10.842a3.234,3.234,0,0,0-2.5-3.1c-5.134-1.437-10.275-2.854-15.407-4.3a.834.834,0,0,0-.954.272c-1.04,1.075-2.11,2.122-3.169,3.179-.946.944-1.373.949-2.3.025-1.092-1.09-2.172-2.191-3.283-3.261a.869.869,0,0,0-.689-.22q-7.882,2.148-15.75,4.352A3.168,3.168,0,0,0,11.067,55.1c-.028,3.682-.009,7.365-.009,11.117M41.624,25.992c-4.951,3.622-9.83,3.6-14.687.032-.95,1.59-1.8,3.143-1.533,5.061a17,17,0,0,1,.018,2.138,8.835,8.835,0,0,0,17.291,2.446c.664-2.188.3-4.434.377-6.655a.594.594,0,0,0-.09-.256c-.448-.9-.9-1.805-1.377-2.766m-17.3.195c.359-.713.657-1.3.953-1.9.661-1.324,1.169-1.45,2.338-.584.573.425,1.132.871,1.728,1.261a8.723,8.723,0,0,0,7.387,1.151A13.187,13.187,0,0,0,41.053,23.6c.952-.711,1.557-.569,2.086.478.314.62.626,1.242.968,1.92a6.567,6.567,0,0,0-1.732-8.625,16.027,16.027,0,0,0-7.335-2.982,8.651,8.651,0,0,0-5.449,1.3,7.613,7.613,0,0,1,4.449,3.558L32.258,20.44c-.261-.343-.477-.669-.735-.957a4.891,4.891,0,0,0-5.089-1.68A4.466,4.466,0,0,0,23,21.46c-.373,1.743.475,3.163,1.332,4.727m6.619,17.47c0,.43-.012.773,0,1.115.018.406-.1.954.119,1.193,1.011,1.118,2.115,2.152,3.206,3.235,1.059-1.056,2.072-2.058,3.071-3.074a.786.786,0,0,0,.221-.469c.025-.64.01-1.282.01-2a11.4,11.4,0,0,1-6.631,0M23.187,30.906c-.775.037-1.61-.262-2.016.586a1.365,1.365,0,0,0,.07,1.135c.464.723,1.235.46,1.946.446ZM45.337,33.1c.776-.032,1.61.26,2.014-.586a1.364,1.364,0,0,0-.07-1.134c-.464-.724-1.235-.458-1.945-.445Z" transform="translate(0 0)" fill="#fff"/>
      </g>
    </g>
  </g>
</svg>
