<svg xmlns="http://www.w3.org/2000/svg" xmlns:xlink="http://www.w3.org/1999/xlink" width="1030" height="400.169" viewBox="0 0 1030 400.169">
  <defs>
    <clipPath id="clip-path">
      <rect id="Rectángulo_46628" data-name="Rectángulo 46628" width="26.731" height="35" fill="#395e56"/>
    </clipPath>
    <clipPath id="clip-path-2">
      <rect id="Rectángulo_46628-2" data-name="Rectángulo 46628" width="26.731" height="35" fill="#144567"/>
    </clipPath>
    <clipPath id="clip-path-3">
      <rect id="Rectángulo_46628-3" data-name="Rectángulo 46628" width="26.731" height="35" fill="#833343"/>
    </clipPath>
    <clipPath id="clip-path-4">
      <rect id="Rectángulo_46628-4" data-name="Rectángulo 46628" width="26.731" height="35" fill="#636363"/>
    </clipPath>
    <clipPath id="clip-path-5">
      <rect id="Rectángulo_46646" data-name="Rectángulo 46646" width="51.208" height="77.978" fill="none"/>
    </clipPath>
    <clipPath id="clip-path-6">
      <rect id="Rectángulo_46647" data-name="Rectángulo 46647" width="69.41" height="76.772" fill="none"/>
    </clipPath>
    <clipPath id="clip-path-7">
      <rect id="Rectángulo_46648" data-name="Rectángulo 46648" width="73.877" height="74.633" fill="none"/>
    </clipPath>
  </defs>
  <g id="Grupo_161495" data-name="Grupo 161495" transform="translate(-285 -3814)">
    <g id="Grupo_160593" data-name="Grupo 160593" transform="translate(0 2180)">
      <path id="Trazado_600825" data-name="Trazado 600825" d="M95.24,0,20.126,20.126,0,95.239l54.986,54.988L130.1,130.1l20.128-75.115Z" transform="translate(285 1783.662)" fill="#f8f4ef"/>
      <path id="Trazado_600826" data-name="Trazado 600826" d="M95.24,0,20.126,20.126,0,95.239l54.986,54.988L130.1,130.1l20.128-75.115Z" transform="translate(653 1783.662)" fill="#f8f4ef"/>
      <path id="Trazado_600827" data-name="Trazado 600827" d="M95.24,0,20.126,20.126,0,95.239l54.986,54.988L130.1,130.1l20.128-75.115Z" transform="translate(1020 1783.662)" fill="#f8f4ef"/>
      <text id="Etapa_de_contacto_" data-name="Etapa de contacto " transform="translate(355 1822.169)" fill="#12263f" font-size="17" font-family="Roboto-Bold, Roboto" font-weight="700"><tspan x="0" y="16">Etapa de contacto </tspan></text>
      <text id="Se_debe_identificar_el_momento_de_verdad_el_contacto_que_existe_entre_el_cliente_y_la_organización_se_debe_tener_en_cuenta_las_características_de_cada_cliente_y_cómo_se_llega_a_ellos_el_marketing_y_las_comunicaciones._" data-name="Se debe identificar el momento de verdad, el contacto que existe entre el cliente y la organización, se debe tener en cuenta las características de cada cliente y cómo se llega a ellos; el marketing y las comunicaciones. 
" transform="translate(285 1870.169)" fill="#12263f" font-size="17" font-family="Roboto-Regular, Roboto"><tspan x="0" y="16">Se debe identificar el momento de </tspan><tspan x="0" y="40">verdad, el contacto que existe entre el </tspan><tspan x="0" y="64">cliente y la organización, se debe tener </tspan><tspan x="0" y="88">en cuenta las características de cada </tspan><tspan x="0" y="112">cliente y cómo se llega a ellos; el </tspan><tspan x="0" y="136" font-family="Roboto-Italic, Roboto" font-style="italic">marketing </tspan><tspan y="136">y las comunicaciones. </tspan><tspan x="0" y="160"></tspan></text>
      <text id="Se_deben_priorizar_las_áreas_que_requieren_intervención_con_los_planes_de_acción_aquí_se_incluyen_todas_las_áreas_de_la_empresa_al_ser_el_servicio_al_cliente_transversal_a_toda_la_organización._" data-name="Se deben priorizar las áreas que requieren intervención con los planes de acción, aquí se incluyen todas las áreas de la empresa al ser el servicio al cliente transversal a toda la organización.
" transform="translate(653 1870.169)" fill="#12263f" font-size="17" font-family="Roboto-Regular, Roboto"><tspan x="0" y="16">Se deben priorizar las áreas que </tspan><tspan x="0" y="40">requieren intervención con los planes </tspan><tspan x="0" y="64">de acción, aquí se incluyen todas las </tspan><tspan x="0" y="88">áreas de la empresa al ser el servicio </tspan><tspan x="0" y="112">al cliente transversal a toda la </tspan><tspan x="0" y="136">organización.</tspan><tspan x="0" y="160"></tspan></text>
      <text id="En_la_cual_el_cliente_manifiesta_a_la_organización_cómo_fue_su_experiencia_adquiriendo_productos_o_servicios_qué_piensa_y_cuál_es_el_nivel_de_fidelización_que_se_logra._" data-name="En la cual el cliente manifiesta a la organización cómo fue su experiencia adquiriendo productos o servicios, qué piensa y cuál es el nivel de fidelización que se logra.
" transform="translate(1020 1870.169)" fill="#12263f" font-size="17" font-family="Roboto-Regular, Roboto"><tspan x="0" y="16">En la cual el cliente manifiesta a la </tspan><tspan x="0" y="40">organización cómo fue su experiencia </tspan><tspan x="0" y="64">adquiriendo productos o servicios, qué </tspan><tspan x="0" y="88">piensa y cuál es el nivel de fidelización </tspan><tspan x="0" y="112">que se logra.</tspan><tspan x="0" y="136"></tspan></text>
      <rect id="Rectángulo_46638" data-name="Rectángulo 46638" width="30" height="30" transform="translate(315 1815.169)" fill="#833343"/>
      <rect id="Rectángulo_46644" data-name="Rectángulo 46644" width="30" height="30" transform="translate(683 1815.169)" fill="#4e4e4e"/>
      <rect id="Rectángulo_46645" data-name="Rectángulo 46645" width="30" height="30" transform="translate(1050 1815.169)" fill="#144567"/>
      <text id="_1." data-name="1." transform="translate(325 1820.169)" fill="#fff" font-size="17" font-family="Roboto-Bold, Roboto" font-weight="700"><tspan x="0" y="16">1.</tspan></text>
      <text id="_2." data-name="2." transform="translate(693 1820.169)" fill="#fff" font-size="17" font-family="Roboto-Bold, Roboto" font-weight="700"><tspan x="0" y="16">2.</tspan></text>
      <text id="_3." data-name="3." transform="translate(1060 1820.169)" fill="#fff" font-size="17" font-family="Roboto-Bold, Roboto" font-weight="700"><tspan x="0" y="16">3.</tspan></text>
      <text id="Etapa_de_venta_" data-name="Etapa de venta " transform="translate(726 1820.055)" fill="#12263f" font-size="17" font-family="Roboto-Bold, Roboto" font-weight="700"><tspan x="0" y="16">Etapa de venta </tspan></text>
      <text id="Etapa_posventa" data-name="Etapa posventa" transform="translate(1093 1820.055)" fill="#12263f" font-size="17" font-family="Roboto-Bold, Roboto" font-weight="700"><tspan x="0" y="16">Etapa posventa</tspan></text>
      <rect id="Rectángulo_46639" data-name="Rectángulo 46639" width="440" height="44" transform="translate(580 1665)" fill="#e2e8ec"/>
      <text id="Ciclo_de_servicio_al_cliente" data-name="Ciclo de servicio al cliente" transform="translate(691 1677)" fill="#12263f" font-size="18" font-family="Roboto-Bold, Roboto" font-weight="700"><tspan x="0" y="17">Ciclo de servicio al cliente</tspan></text>
      <g id="Grupo_160584" data-name="Grupo 160584" transform="translate(470 1634)">
        <g id="Grupo_160577" data-name="Grupo 160577" transform="translate(653.269)">
          <g id="Grupo_160577-2" data-name="Grupo 160577" clip-path="url(#clip-path)">
            <path id="Trazado_600822" data-name="Trazado 600822" d="M15.325,35a2.615,2.615,0,0,1-1.849-4.464L26.511,17.5,13.475,4.464a2.615,2.615,0,1,1,3.7-3.7L32.058,15.651a2.615,2.615,0,0,1,0,3.7L17.174,34.234A2.611,2.611,0,0,1,15.325,35" transform="translate(-6.094 0)" fill="#395e56"/>
          </g>
        </g>
        <rect id="Rectángulo_46640" data-name="Rectángulo 46640" width="664.269" height="5" rx="2.5" transform="translate(0 15)" fill="#395e56"/>
        <path id="Trazado_600828" data-name="Trazado 600828" d="M14.562,24.8a1.853,1.853,0,0,1-1.31-3.163L22.488,12.4,13.252,3.163a1.853,1.853,0,0,1,2.62-2.62L26.418,11.089a1.853,1.853,0,0,1,0,2.62L15.872,24.255a1.85,1.85,0,0,1-1.31.543" transform="translate(640.56 5)" fill="#395e56"/>
      </g>
      <g id="Grupo_160583" data-name="Grupo 160583" transform="translate(218)">
        <g id="Grupo_160582" data-name="Grupo 160582">
          <g id="Grupo_160578" data-name="Grupo 160578" transform="translate(967 1713.269) rotate(90)">
            <g id="Grupo_160577-3" data-name="Grupo 160577" transform="translate(0 0)" clip-path="url(#clip-path-2)">
              <path id="Trazado_600822-2" data-name="Trazado 600822" d="M15.325,35a2.615,2.615,0,0,1-1.849-4.464L26.511,17.5,13.475,4.464a2.615,2.615,0,1,1,3.7-3.7L32.058,15.651a2.615,2.615,0,0,1,0,3.7L17.174,34.234A2.611,2.611,0,0,1,15.325,35" transform="translate(-6.094 0)" fill="#144567"/>
            </g>
          </g>
          <rect id="Rectángulo_46641" data-name="Rectángulo 46641" width="90.269" height="5" rx="2.5" transform="translate(952 1634) rotate(90)" fill="#144567"/>
        </g>
        <path id="Trazado_600829" data-name="Trazado 600829" d="M14.562,24.8a1.853,1.853,0,0,1-1.31-3.163L22.488,12.4,13.252,3.163a1.853,1.853,0,0,1,2.62-2.62L26.418,11.089a1.853,1.853,0,0,1,0,2.62L15.872,24.255a1.85,1.85,0,0,1-1.31.543" transform="translate(962 1700.56) rotate(90)" fill="#144567"/>
      </g>
      <g id="Grupo_160581" data-name="Grupo 160581" transform="translate(-202)">
        <g id="Grupo_160579" data-name="Grupo 160579" transform="translate(617 1660.731) rotate(-90)">
          <g id="Grupo_160577-4" data-name="Grupo 160577" transform="translate(0 0)" clip-path="url(#clip-path-3)">
            <path id="Trazado_600822-3" data-name="Trazado 600822" d="M15.325,35a2.615,2.615,0,0,1-1.849-4.464L26.511,17.5,13.475,4.464a2.615,2.615,0,1,1,3.7-3.7L32.058,15.651a2.615,2.615,0,0,1,0,3.7L17.174,34.234A2.611,2.611,0,0,1,15.325,35" transform="translate(-6.094 0)" fill="#833343"/>
          </g>
        </g>
        <rect id="Rectángulo_46642" data-name="Rectángulo 46642" width="90.269" height="5" rx="2.5" transform="translate(632 1740) rotate(-90)" fill="#833343"/>
        <path id="Trazado_600830" data-name="Trazado 600830" d="M14.562,24.8a1.853,1.853,0,0,1-1.31-3.163L22.488,12.4,13.252,3.163a1.853,1.853,0,0,1,2.62-2.62L26.418,11.089a1.853,1.853,0,0,1,0,2.62L15.872,24.255a1.85,1.85,0,0,1-1.31.543" transform="translate(622 1673.44) rotate(-90)" fill="#833343"/>
      </g>
      <g id="Grupo_160585" data-name="Grupo 160585" transform="translate(450 1705)">
        <g id="Grupo_160580" data-name="Grupo 160580" transform="translate(26.731 35) rotate(180)">
          <g id="Grupo_160577-5" data-name="Grupo 160577" transform="translate(0)" clip-path="url(#clip-path-4)">
            <path id="Trazado_600822-4" data-name="Trazado 600822" d="M2.615,35A2.615,2.615,0,0,1,.766,30.536L13.8,17.5.766,4.464a2.615,2.615,0,0,1,3.7-3.7L19.349,15.651a2.615,2.615,0,0,1,0,3.7L4.464,34.234A2.611,2.611,0,0,1,2.615,35" transform="translate(6.616 0)" fill="#636363"/>
          </g>
        </g>
        <rect id="Rectángulo_46643" data-name="Rectángulo 46643" width="659.269" height="5" rx="2.5" transform="translate(675 20) rotate(180)" fill="#636363"/>
        <path id="Trazado_600831" data-name="Trazado 600831" d="M1.853,24.8a1.853,1.853,0,0,1-1.31-3.163L9.778,12.4.543,3.162A1.853,1.853,0,0,1,3.163.542L13.708,11.088a1.853,1.853,0,0,1,0,2.62L3.163,24.254a1.85,1.85,0,0,1-1.31.543" transform="translate(26.731 30) rotate(180)" fill="#636363"/>
      </g>
      <path id="Trazado_600832" data-name="Trazado 600832" d="M-7207.251-10026.661h43.027v96.482h-145v32.612" transform="translate(8374.225 11713.661)" fill="none" stroke="#144567" stroke-width="1" stroke-dasharray="4"/>
      <path id="Trazado_600833" data-name="Trazado 600833" d="M-7309.224-9974.564v93.594" transform="translate(8007.224 11697.065)" fill="none" stroke="#4e4e4e" stroke-width="1" stroke-dasharray="4"/>
      <path id="Trazado_600834" data-name="Trazado 600834" d="M-7309.224-9846.473v-128.094h101.5" transform="translate(7639.224 11662.566)" fill="none" stroke="#833343" stroke-width="1" stroke-dasharray="4"/>
      <g id="Grupo_160587" data-name="Grupo 160587" transform="translate(528.792 1764.191)">
        <g id="Grupo_160586" data-name="Grupo 160586" clip-path="url(#clip-path-5)">
          <path id="Trazado_600835" data-name="Trazado 600835" d="M26.662,0c.405.122.814.233,1.215.368A7.3,7.3,0,0,1,31.346,11.8c-.121.158-.243.314-.409.529a9.406,9.406,0,0,1,4,2.025c.1.087.371.041.532-.021.423-.164.83-.371,1.335-.6A6.127,6.127,0,0,1,35.681,7.75,5.939,5.939,0,0,1,38.189,4.6a6.069,6.069,0,0,1,7.551.856c2.2,2.207,2.335,5.1.342,8.257.233.1.458.192.676.3a7.383,7.383,0,0,1,4.429,6.647c.242,3.508-1.613,5.134-4.883,4.956-2.706-.148-5.427-.022-8.141-.039a.835.835,0,0,0-.87.517,3.466,3.466,0,0,1-3.222,1.922q-8.485.018-16.969,0a3.447,3.447,0,0,1-3.21-1.939.828.828,0,0,0-.883-.5q-4.528.018-9.055.005A3.714,3.714,0,0,1,.005,21.625a7.565,7.565,0,0,1,2.649-6.5A22.221,22.221,0,0,1,5.064,13.6,6.034,6.034,0,0,1,3.847,8.321a5.922,5.922,0,0,1,2.13-3.334,6.062,6.062,0,0,1,7.715.112c2.493,2.1,2.739,4.908.741,8.643.451.212.9.439,1.356.627a.554.554,0,0,0,.469-.015,9.373,9.373,0,0,1,4.02-2.034A7.315,7.315,0,0,1,23.971.182c.19-.047.373-.12.559-.181ZM25.577,25.578q4.107,0,8.214,0c1.13,0,1.544-.425,1.548-1.57s.019-2.282-.007-3.422a6.067,6.067,0,0,0-5.992-5.959q-3.764-.05-7.529,0A5.907,5.907,0,0,0,16,19.573a32.067,32.067,0,0,0-.148,4.4c-.017,1.2.4,1.606,1.583,1.607q4.069.005,8.137,0M14.65,16.349A14.943,14.943,0,0,0,12.3,15.86c-1.7-.068-3.4-.045-5.093-.017A4.7,4.7,0,0,0,2.8,19a9.422,9.422,0,0,0-.327,2.538c-.047,1.193.392,1.6,1.577,1.6q4.334.005,8.668,0c.219,0,.438-.027.718-.045-.06-2.279-.149-4.523,1.217-6.746m23.067,6.794c2.936,0,5.72-.051,8.5.015,2.6.061,2.577-.471,2.513-2.593A4.853,4.853,0,0,0,44,15.844c-1.7-.035-3.4-.056-5.093.017a12.071,12.071,0,0,0-2.133.454,27.174,27.174,0,0,1,.908,3.389,26.369,26.369,0,0,1,.033,3.438M25.569,12.178a4.87,4.87,0,1,0-4.843-4.915,4.887,4.887,0,0,0,4.843,4.915M13.414,9.716A3.652,3.652,0,1,0,9.752,13.4a3.666,3.666,0,0,0,3.662-3.681m31.667.059A3.652,3.652,0,1,0,41.435,13.4a3.668,3.668,0,0,0,3.645-3.621" transform="translate(0 -0.001)"/>
          <path id="Trazado_600836" data-name="Trazado 600836" d="M6.005,173.4q0-5.061,0-10.122c0-1.193.4-1.593,1.6-1.594q5.708,0,11.415,0c1.193,0,1.6.4,1.6,1.6,0,6.367-.013,12.734.006,19.1A9.737,9.737,0,0,0,40.1,182.5c.035-6.342.009-12.684.01-19.025,0-1.454.336-1.791,1.785-1.791q5.594,0,11.187,0c1.248,0,1.642.39,1.642,1.63q0,9.436,0,18.873a24.334,24.334,0,0,1-48.248,4.723,45.676,45.676,0,0,1-.45-6.357c-.073-2.382-.017-4.769-.017-7.153m2.435-.739v.88c0,2.639-.02,5.278.009,7.916a30.092,30.092,0,0,0,.2,3.871,21.885,21.885,0,0,0,43.472-.768c.3-3.885.117-7.807.151-11.713,0-.044-.037-.087-.068-.156h-9.66v.87c0,3.07.038,6.141-.015,9.21a12.174,12.174,0,0,1-24.342-.466c-.011-2.943,0-5.886,0-8.83v-.815Zm9.69-8.482H8.481v6h9.65Zm24.446,5.99H52.24v-6H42.577Z" transform="translate(-4.767 -128.797)"/>
        </g>
      </g>
      <g id="Grupo_160590" data-name="Grupo 160590" transform="translate(83.59 157.298)">
        <g id="Grupo_160589" data-name="Grupo 160589" transform="translate(782 1611)">
          <g id="Grupo_160588" data-name="Grupo 160588" clip-path="url(#clip-path-6)">
            <path id="Trazado_600837" data-name="Trazado 600837" d="M13.032,123.929a8.293,8.293,0,0,1-3.626-1.674,6.949,6.949,0,0,1-2.167-3.431c-.507-1.826-.955-3.669-1.434-5.5a1.131,1.131,0,0,1,.474-1.372c.674-.428,1.44-.06,1.692.849.453,1.634.871,3.278,1.3,4.919.805,3.089,3.054,4.448,6.164,3.732,2.091-.481,4.186-.943,6.277-1.422a5,5,0,0,0,3.622-6.495c-2.26-6.1-4.559-12.193-6.843-18.289-.043-.114-.1-.225-.173-.4l-5.028,1.43c-1.343.382-2.688.757-4.03,1.147a4.869,4.869,0,0,0-3.612,6.351c.327,1.281.661,2.56.981,3.843.209.84-.09,1.444-.77,1.6-.632.149-1.176-.234-1.386-1.038-.41-1.568-.842-3.133-1.174-4.718a7.092,7.092,0,0,1,5.247-8.176c3.149-.872,6.31-1.712,9.414-2.725a26.787,26.787,0,0,0,4.085-2c.16-.085.228-.467.229-.712.015-3.123,0-6.246.015-9.369.015-2.432,1.279-4.3,3.5-4.652a16.7,16.7,0,0,1,5.13,0c2.194.346,3.472,2.214,3.518,4.581.022,1.146,0,2.293,0,3.583a17.792,17.792,0,0,0,1.834-1c.174-.121.205-.527.206-.8q.02-5.134.006-10.269a5.13,5.13,0,0,1,2.826-4.977c2.526-1.315,6.6-.617,8.227,1.384a5.62,5.62,0,0,1,1.123,3.716q0,11.093,0,22.186v.847a.971.971,0,0,0,.164.047C50.7,95,50.7,95,50.7,93.164q0-16,0-32.005a5.223,5.223,0,0,1,1.959-4.482,4.318,4.318,0,0,1,1.642-.845c2.073-.421,4.178-.634,6.119.484A4.545,4.545,0,0,1,62.8,60.08c.085,1.244.072,2.5.057,3.744-.01.8-.438,1.23-1.111,1.227s-1.079-.431-1.1-1.239c-.03-.949,0-1.9-.014-2.848a2.842,2.842,0,0,0-3.153-3.152c-.625,0-1.25-.019-1.873.014a2.746,2.746,0,0,0-2.576,2.309,4.9,4.9,0,0,0-.073.819q-.005,16.19,0,32.38c0,.124.013.248.027.5a7.646,7.646,0,0,0,1-.5c2.106-1.473,4.212-2.948,6.284-4.469a1.341,1.341,0,0,0,.351-.965c.02-6.2.014-12.392.017-18.588a6.25,6.25,0,0,1,.058-.97.99.99,0,0,1,1.05-.879,1,1,0,0,1,1.084.928,6.682,6.682,0,0,1,.044.9q0,8.395,0,16.79v.778a21.074,21.074,0,0,1,2.711-1.018,5.076,5.076,0,0,1,5.789,2.676,4.97,4.97,0,0,1-.917,6.306c-1.6,1.5-3.348,2.846-5.045,4.242-2.585,2.126-5.169,4.254-7.779,6.349a14.234,14.234,0,0,1-5.66,2.621q-11.7,2.856-23.405,5.721c-.215.053-.426.123-.577.168a22.082,22.082,0,0,1-.268,3.062,6.327,6.327,0,0,1-4.674,4.979c-2.567.717-5.191,1.226-7.79,1.828-.144.033-.282.09-.423.135Zm14.056-12.158c.157-.02.255-.024.348-.046q12.172-2.976,24.343-5.958a11.7,11.7,0,0,0,4.677-2.27q6.006-4.906,11.986-9.842a4.081,4.081,0,0,0,.786-.9,2.837,2.837,0,0,0,.232-3.047,3.1,3.1,0,0,0-2.733-1.8,3.6,3.6,0,0,0-2.287.785c-2.875,2.031-5.764,4.043-8.636,6.077a12.439,12.439,0,0,1-6.471,2.544c-3.362.184-6.739.113-10.11.114a2.275,2.275,0,0,1-2.256-1.659,2.377,2.377,0,0,1,.73-2.715c.617-.546,1.266-1.055,1.908-1.571a8.793,8.793,0,0,0,3.067-5.174,2.216,2.216,0,0,0-1.305-2.515,2.431,2.431,0,0,0-2.215.257Q30.034,88.9,20.911,93.741c-.15.08-.289.181-.47.3l6.647,17.734M46.418,95.149v-.828q0-11.162,0-22.324a6.374,6.374,0,0,0-.046-.821,2.79,2.79,0,0,0-2.694-2.538c-.522-.034-1.048-.014-1.573-.014-2.276,0-3.354,1.069-3.359,3.341q-.009,4.457,0,8.915c0,.243.021.487.035.777.3-.066.54-.116.777-.168a4.405,4.405,0,0,1,5.349,4.965,14.941,14.941,0,0,1-1.086,3.325c-.864,2-2.541,3.295-4.2,4.592-.242.189-.488.371-.733.557l.158.223ZM24.584,89.235c2.509-1.33,4.905-2.594,7.289-3.88a.7.7,0,0,0,.312-.511c.021-1.57.052-3.143-.008-4.711a2.262,2.262,0,0,0-2.332-2.239c-.922-.023-1.845-.014-2.767-.005a2.309,2.309,0,0,0-2.542,2.556c-.016,2.718-.005,5.436,0,8.153,0,.17.026.339.051.638" transform="translate(-2.683 -47.157)"/>
            <path id="Trazado_600838" data-name="Trazado 600838" d="M33.675,6.955c-.36-.022-.53-.028-.7-.044A3.2,3.2,0,0,1,29.84,3.572,3.367,3.367,0,0,1,33.024.058q4.793-.118,9.591,0a3.086,3.086,0,0,1,3.1,3.21q.069,4.72,0,9.442a3.362,3.362,0,0,1-3.123,3.262,3.086,3.086,0,0,1-3.474-2.405c-.168-.569-.243-1.165-.379-1.84-.194.176-.388.346-.574.524q-3.916,3.767-7.829,7.535c-1.622,1.558-2.893,1.745-4.872.724-.82-.423-1.656-.821-2.45-1.29a.908.908,0,0,0-1.322.19Q13.98,27.227,6.229,35a3.5,3.5,0,0,1-3.1,1.321A3.441,3.441,0,0,1,.28,34.179a3.286,3.286,0,0,1,.5-3.451,7.238,7.238,0,0,1,.6-.665q8.655-8.727,17.313-17.45c1.679-1.692,2.91-1.883,5.036-.787.909.468,1.81.955,2.734,1.392a.8.8,0,0,0,.7-.021c2.139-2.022,4.252-4.071,6.5-6.242m9.81,1.029h0c0-1.5.012-3,0-4.5-.01-.846-.352-1.209-1.178-1.214q-4.42-.023-8.841,0A1.224,1.224,0,0,0,32.1,3.46c-.011.731.519,1.2,1.4,1.215s1.8.009,2.7,0a1.228,1.228,0,0,1,1.327.755,1.2,1.2,0,0,1-.461,1.387q-4.481,4.312-8.955,8.631a1.358,1.358,0,0,1-1.761.261c-1.257-.665-2.523-1.311-3.788-1.959-1.125-.577-1.268-.554-2.142.327Q11.706,22.851,3,31.628a3.583,3.583,0,0,0-.57.687A1.092,1.092,0,0,0,2.707,33.8a1.092,1.092,0,0,0,1.5.019,7.484,7.484,0,0,0,.593-.571L20.85,17.079c.868-.874,1.11-.909,2.222-.338q1.7.872,3.393,1.746c1.154.594,1.375.567,2.3-.324q5.1-4.907,10.2-9.819a1.2,1.2,0,0,1,1.408-.4,1.226,1.226,0,0,1,.7,1.288q-.011,1.5,0,3c.007.947.45,1.5,1.192,1.507s1.207-.548,1.213-1.485c.008-1.423,0-2.847,0-4.271" transform="translate(0 0.001)"/>
            <path id="Trazado_600839" data-name="Trazado 600839" d="M68.258,427.378a4.419,4.419,0,1,1,.034-8.839,4.484,4.484,0,0,1,4.392,4.41,4.438,4.438,0,0,1-4.427,4.428m-.035-2.25a2.171,2.171,0,0,0,2.213-2.143,2.214,2.214,0,0,0-2.179-2.2,2.186,2.186,0,0,0-2.164,2.127,2.147,2.147,0,0,0,2.13,2.215" transform="translate(-54.254 -355.673)"/>
          </g>
        </g>
      </g>
      <g id="Grupo_160592" data-name="Grupo 160592" transform="translate(1241.124 1770.536)">
        <g id="Grupo_160591" data-name="Grupo 160591" clip-path="url(#clip-path-7)">
          <path id="Trazado_600840" data-name="Trazado 600840" d="M71.077,151.828c-1.817-.393-3.65-.729-5.447-1.2-1.261-.331-2.455-.913-3.712-1.265-2.446-.685-4.962-.444-7.484-.472a1.83,1.83,0,0,0-.1.274,2.292,2.292,0,0,1-2.358,2.044c-2.356.026-4.713.03-7.069,0a2.312,2.312,0,0,1-2.375-2.489c-.012-2.72,0-5.44,0-8.161v-.863H41.6q-8.746,0-17.491,0a5.373,5.373,0,0,1-5.423-4.006,5.759,5.759,0,0,1,.1-3.161c2.257-7.837,7.306-12.845,15.2-14.952.117-.031.234-.062.348-.1a.91.91,0,0,0,.162-.112c-.317-.241-.624-.468-.925-.7a11.646,11.646,0,0,1-3.467-13.778c.141-.32.346-.738.622-.84a1.6,1.6,0,0,1,1.195.075c.512.283.467.825.3,1.36a16.286,16.286,0,0,0-.81,3,8.99,8.99,0,0,0,4.314,9.008,8.9,8.9,0,0,0,9.985.119,9.461,9.461,0,0,0-.988-16.712,9.149,9.149,0,0,0-9.519.972c-.14.1-.27.207-.415.3a1.071,1.071,0,0,1-1.5-.2,1.051,1.051,0,0,1,.211-1.547,11.058,11.058,0,0,1,4.6-2.25,11.559,11.559,0,0,1,14.226,9.572c.729,4.794-1.088,8.65-5.04,11.479-.2.141-.4.267-.7.464.254.091.434.164.619.219a22.82,22.82,0,0,1,10.82,6.811,1.743,1.743,0,0,1,.409,1.28,1.037,1.037,0,0,1-1.795.392c-.617-.584-1.172-1.234-1.805-1.8a20.965,20.965,0,0,0-13.8-5.4,21.271,21.271,0,0,0-9.82,1.616,18.187,18.187,0,0,0-10.4,12.632,3.124,3.124,0,0,0,3.049,4.066c6.1.04,12.2.013,18.292.011a2.764,2.764,0,0,0,.363-.059v-2.319c0-1.433,0-2.866,0-4.3a2.352,2.352,0,0,1,2.662-2.627q3.243,0,6.486,0a2.315,2.315,0,0,1,2.668,2.532c0,.094.026.188.038.275,3.156.53,5.51-.633,6.348-3.611,1.32-4.691,2.721-9.358,4.09-14.035.792-2.707,3.33-3.421,5.42-1.521a5.729,5.729,0,0,1,1.916,4.473c-.012,2.356,0,4.712,0,7.068,0,1.6.485,2.073,2.093,2.074,3.45,0,6.9-.014,10.349.016a3.934,3.934,0,0,1,3.777,2.392,3.974,3.974,0,0,1-.574,4.371c-.088.112-.182.22-.3.367a4.43,4.43,0,0,1,1.264,3.011,4.186,4.186,0,0,1-1.257,3,4.362,4.362,0,0,1,.023,6.119,4.141,4.141,0,0,1,.892,4.629,4.355,4.355,0,0,1-3.051,2.473ZM54.382,146.7c.932,0,1.824.022,2.715,0a21.926,21.926,0,0,1,8.8,1.666,14.458,14.458,0,0,0,4.641,1.1c4.633.18,9.275.142,13.914.174a1.929,1.929,0,1,0,.024-3.843c-1.044-.022-2.089,0-3.134-.01-.862-.01-1.357-.414-1.364-1.082s.485-1.085,1.343-1.1c1.069-.013,2.138.019,3.206-.014a1.9,1.9,0,0,0,2.033-1.988,1.921,1.921,0,0,0-2.086-1.866c-1.044-.013-2.089,0-3.134,0-.852,0-1.355-.406-1.363-1.074s.5-1.1,1.337-1.108c1.117-.009,2.235.018,3.352-.011a1.88,1.88,0,0,0,1.885-2.115,1.844,1.844,0,0,0-1.855-1.7c-1.189-.04-2.38-.006-3.57-.029-.6-.011-1.1-.326-1.1-.93a2.011,2.011,0,0,1,.6-1.123c.132-.15.5-.113.767-.117,1.045-.012,2.09.019,3.133-.014a1.912,1.912,0,0,0,2.021-2.207,1.949,1.949,0,0,0-2.138-1.657c-3.571-.011-7.142,0-10.713-.017a3.33,3.33,0,0,1-3.095-1.715,5.426,5.426,0,0,1-.6-2.345c-.076-2.4-.036-4.808-.025-7.212a3.6,3.6,0,0,0-1.453-3.1c-.689-.513-1.246-.333-1.52.466-.055.16-.1.325-.146.487q-2.052,7.016-4.105,14.031a6.715,6.715,0,0,1-5.957,5.017c-.785.08-1.585.012-2.406.012Zm-2.266-16.272H44.77a2.042,2.042,0,0,0-.054.314q0,8.878-.013,17.757c0,.5.241.54.631.538,2.111-.011,4.222,0,6.333-.008a3.449,3.449,0,0,0,.449-.062Z" transform="translate(-14.905 -77.195)"/>
          <path id="Trazado_600841" data-name="Trazado 600841" d="M95.671,13.644c.074-.747.147-1.643.258-2.534a1.429,1.429,0,0,0-.4-1.311c-.615-.619-1.166-1.3-1.736-1.964a1.826,1.826,0,0,1,1.024-3.165c.779-.182,1.552-.4,2.341-.527a1.69,1.69,0,0,0,1.388-.987c.355-.715.8-1.388,1.215-2.07a1.842,1.842,0,0,1,3.371.024c.456.745.923,1.485,1.332,2.255a1.322,1.322,0,0,0,1,.717c.9.184,1.8.379,2.7.606a1.82,1.82,0,0,1,.994,3.062c-.6.729-1.278,1.4-1.851,2.153a1.845,1.845,0,0,0-.337,1.091c.024.944.183,1.884.224,2.829a1.792,1.792,0,0,1-2.584,1.828c-.9-.352-1.774-.788-2.684-1.12a1.58,1.58,0,0,0-1,.016c-.887.325-1.739.742-2.617,1.092-1.441.574-2.682-.3-2.633-1.995m9.313-.2c-.09-.93-.152-1.775-.259-2.614a2.441,2.441,0,0,1,.689-2.129c.582-.607,1.115-1.261,1.754-1.99-.95-.215-1.768-.42-2.594-.58a2.4,2.4,0,0,1-1.763-1.265c-.415-.762-.882-1.5-1.37-2.318-.475.8-.926,1.487-1.311,2.213a2.526,2.526,0,0,1-1.921,1.39c-.8.14-1.59.361-2.485.57.616.708,1.131,1.351,1.7,1.94a2.447,2.447,0,0,1,.721,2.118c-.1.854-.157,1.713-.24,2.663.93-.4,1.76-.728,2.571-1.1a2.186,2.186,0,0,1,1.9-.018c.82.362,1.646.709,2.61,1.122" transform="translate(-75.063 -0.001)"/>
          <path id="Trazado_600842" data-name="Trazado 600842" d="M1.994,24.216a10.7,10.7,0,0,1,.149-1.671,2.1,2.1,0,0,0-.7-2.265A9.034,9.034,0,0,1,.43,19.135,1.624,1.624,0,0,1,1.307,16.4a4.84,4.84,0,0,0,4.214-3.061,1.566,1.566,0,0,1,2.834.027,4.813,4.813,0,0,0,4.162,3.022,1.631,1.631,0,0,1,.9,2.77,5.105,5.105,0,0,1-.773.869,2.7,2.7,0,0,0-.9,2.906,6.41,6.41,0,0,1,.107,1.085A1.62,1.62,0,0,1,9.518,25.69a4.851,4.851,0,0,0-5.2.015,1.618,1.618,0,0,1-2.322-1.489m4.944-9.024a4.484,4.484,0,0,1-4.355,3.145A4.341,4.341,0,0,1,4.278,23.4,4.469,4.469,0,0,1,9.6,23.342a4.39,4.39,0,0,1,1.63-5.036,4.36,4.36,0,0,1-4.3-3.115" transform="translate(0 -10.031)"/>
          <path id="Trazado_600843" data-name="Trazado 600843" d="M196.88,23.093c.545-1.255-.3-2.49-1.5-3.71-1.256-1.278-.757-2.806,1.024-3.051a4.3,4.3,0,0,0,3.615-2.625c.8-1.651,2.449-1.647,3.26,0a4.3,4.3,0,0,0,3.543,2.607c1.895.278,2.385,1.8,1.041,3.125a3.837,3.837,0,0,0-1.342,4.043,2.56,2.56,0,0,1,.024.941,1.669,1.669,0,0,1-2.353,1.3c-.724-.275-1.417-.633-2.143-.9a1.291,1.291,0,0,0-.81,0,10.431,10.431,0,0,0-1.735.743c-1.5.856-3.112-.226-2.628-2.475m4.762-7.9a4.4,4.4,0,0,1-4.314,3.148,4.413,4.413,0,0,1,1.666,5.068,4.2,4.2,0,0,1,5.227.02,10.039,10.039,0,0,1,.06-2.878,9.937,9.937,0,0,1,1.678-2.343,4.171,4.171,0,0,1-4.317-3.016" transform="translate(-156.788 -10.043)"/>
        </g>
      </g>
    </g>
  </g>
</svg>
