<svg xmlns="http://www.w3.org/2000/svg" xmlns:xlink="http://www.w3.org/1999/xlink" width="151.284" height="151.284" viewBox="0 0 151.284 151.284">
  <defs>
    <clipPath id="clip-path">
      <rect id="Rectángulo_47334" data-name="Rectángulo 47334" width="132.543" height="127.912" fill="none"/>
    </clipPath>
    <clipPath id="clip-path-3">
      <rect id="Rectángulo_47313" data-name="Rectángulo 47313" width="26.935" height="6.804" fill="none"/>
    </clipPath>
    <clipPath id="clip-path-4">
      <rect id="Rectángulo_47314" data-name="Rectángulo 47314" width="8.549" height="18.651" fill="none"/>
    </clipPath>
    <clipPath id="clip-path-5">
      <rect id="Rectángulo_47315" data-name="Rectángulo 47315" width="59.048" height="51.956" fill="none"/>
    </clipPath>
    <clipPath id="clip-path-6">
      <rect id="Rectángulo_47319" data-name="Rectángulo 47319" width="24.903" height="32.156" fill="none"/>
    </clipPath>
    <clipPath id="clip-path-7">
      <rect id="Rectángulo_47317" data-name="Rectángulo 47317" width="18.493" height="23.88" fill="none"/>
    </clipPath>
    <clipPath id="clip-path-8">
      <rect id="Rectángulo_47318" data-name="Rectángulo 47318" width="5.675" height="7.329" fill="none"/>
    </clipPath>
    <clipPath id="clip-path-9">
      <rect id="Rectángulo_47332" data-name="Rectángulo 47332" width="39.944" height="47.117" fill="none"/>
    </clipPath>
    <clipPath id="clip-path-11">
      <rect id="Rectángulo_47320" data-name="Rectángulo 47320" width="7.007" height="8.299" fill="none"/>
    </clipPath>
    <clipPath id="clip-path-13">
      <rect id="Rectángulo_47322" data-name="Rectángulo 47322" width="4.148" height="2.293" fill="none"/>
    </clipPath>
    <clipPath id="clip-path-14">
      <rect id="Rectángulo_47323" data-name="Rectángulo 47323" width="8.255" height="11.278" fill="none"/>
    </clipPath>
    <clipPath id="clip-path-15">
      <rect id="Rectángulo_47324" data-name="Rectángulo 47324" width="9.531" height="12.779" fill="none"/>
    </clipPath>
    <clipPath id="clip-path-16">
      <rect id="Rectángulo_47325" data-name="Rectángulo 47325" width="11.499" height="8.576" fill="none"/>
    </clipPath>
    <clipPath id="clip-path-17">
      <rect id="Rectángulo_47326" data-name="Rectángulo 47326" width="11.799" height="7.371" fill="none"/>
    </clipPath>
    <clipPath id="clip-path-18">
      <rect id="Rectángulo_47327" data-name="Rectángulo 47327" width="11.516" height="11.145" fill="none"/>
    </clipPath>
    <clipPath id="clip-path-19">
      <rect id="Rectángulo_47328" data-name="Rectángulo 47328" width="3.89" height="2.674" fill="none"/>
    </clipPath>
    <clipPath id="clip-path-20">
      <rect id="Rectángulo_47329" data-name="Rectángulo 47329" width="35.508" height="41.478" fill="none"/>
    </clipPath>
    <clipPath id="clip-path-21">
      <rect id="Rectángulo_47330" data-name="Rectángulo 47330" width="6.383" height="7.636" fill="none"/>
    </clipPath>
  </defs>
  <g id="Grupo_161487" data-name="Grupo 161487" transform="translate(-409.306 -12216.472)">
    <g id="Grupo_161420" data-name="Grupo 161420" transform="translate(409.306 12216.472)">
      <g id="Grupo_160825" data-name="Grupo 160825" transform="translate(0 0)">
        <path id="Trazado_600949" data-name="Trazado 600949" d="M95.91,0,20.268,20.268,0,95.909l55.373,55.374,75.641-20.268,20.269-75.643Z" transform="translate(-0.001 0.001)" fill="#fff"/>
      </g>
      <path id="Trazado_113531" data-name="Trazado 113531" d="M0,1.087,1.937,0V36.823l-1.825,1Z" transform="matrix(0.259, 0.966, -0.966, 0.259, 55.249, 0)" fill="#833343"/>
    </g>
    <g id="Grupo_161486" data-name="Grupo 161486" transform="translate(424.784 12228.553)">
      <g id="Grupo_161485" data-name="Grupo 161485" transform="translate(0 0)">
        <g id="Grupo_161484" data-name="Grupo 161484" clip-path="url(#clip-path)">
          <g id="Grupo_161483" data-name="Grupo 161483">
            <g id="Grupo_161482" data-name="Grupo 161482" clip-path="url(#clip-path)">
              <path id="Trazado_603183" data-name="Trazado 603183" d="M138.26,108.857a2.963,2.963,0,0,1,2.664,0,.929.929,0,0,1,.552.763V143.1a.929.929,0,0,1-.552.763,2.963,2.963,0,0,1-2.664,0,.929.929,0,0,1-.552-.763V109.62a.929.929,0,0,1,.552-.763" transform="translate(-79.307 -62.51)" fill="#4d4d4d"/>
              <path id="Trazado_603184" data-name="Trazado 603184" d="M87.5,150.349v2.679l21.254-12.176a.578.578,0,0,0,.239-.531,1.81,1.81,0,0,0-.83-1.423.566.566,0,0,0-.584-.056Z" transform="translate(-50.394 -79.928)"/>
              <path id="Trazado_603185" data-name="Trazado 603185" d="M127.758,188.708a1.814,1.814,0,0,1-.828,1.423.586.586,0,0,1-.586.058L87.387,167.9a.575.575,0,0,1-.242-.532,1.812,1.812,0,0,1,.828-1.423.586.586,0,0,1,.585-.058l38.957,22.285a.577.577,0,0,1,.243.532" transform="translate(-50.188 -95.507)"/>
              <path id="Trazado_603186" data-name="Trazado 603186" d="M178.471,197.374v33.48a.928.928,0,0,0,.548.76,2.981,2.981,0,0,0,2.665,0,.924.924,0,0,0,.556-.76v-33.48a.916.916,0,0,0-.556-.761,2.941,2.941,0,0,0-2.665,0,.921.921,0,0,0-.548.761" transform="translate(-102.783 -113.048)" fill="#4d4d4d"/>
              <path id="Trazado_603187" data-name="Trazado 603187" d="M82.146,140.753a2.963,2.963,0,0,1,2.664,0,.929.929,0,0,1,.552.763v33.477a.93.93,0,0,1-.552.763,2.963,2.963,0,0,1-2.664,0,.93.93,0,0,1-.552-.763V141.516a.929.929,0,0,1,.552-.763" transform="translate(-46.991 -80.879)" fill="#4d4d4d"/>
              <path id="Trazado_603188" data-name="Trazado 603188" d="M234.474,164.718a2.963,2.963,0,0,1,2.664,0,.929.929,0,0,1,.552.763v33.477a.93.93,0,0,1-.552.763,2.963,2.963,0,0,1-2.664,0,.93.93,0,0,1-.552-.763V165.481a.929.929,0,0,1,.552-.763" transform="translate(-134.718 -94.681)" fill="#4d4d4d"/>
              <path id="Trazado_603189" data-name="Trazado 603189" d="M78.486,126.483l44.244,25.353,26.964-15.45v-2.23l-44.244-23.123L78.486,124.253Z" transform="translate(-45.201 -63.944)"/>
              <path id="Trazado_603190" data-name="Trazado 603190" d="M78.486,121.225l44.244,25.353,26.964-15.45-44.244-25.353Z" transform="translate(-45.201 -60.917)" fill="#e6e6e6"/>
              <path id="Trazado_603191" data-name="Trazado 603191" d="M182.853,158.633l9.971,5.714-13.476,7.722-10.009-5.692Z" transform="translate(-97.524 -91.358)" fill="#fff"/>
              <path id="Trazado_603192" data-name="Trazado 603192" d="M187.356,199.787v2.679L208.61,190.29a.578.578,0,0,0,.239-.531,1.812,1.812,0,0,0-.829-1.424.566.566,0,0,0-.584-.056Z" transform="translate(-107.9 -108.399)"/>
              <path id="Trazado_603193" data-name="Trazado 603193" d="M112.576,143.338l17.9,10.337L141.8,147.14v-.628l-17.9-9.709-11.317,5.906Z" transform="translate(-64.834 -78.787)" fill="#1a1a1a"/>
              <path id="Trazado_603194" data-name="Trazado 603194" d="M112.576,141.858l17.9,10.337L141.8,145.66l-17.9-10.337Z" transform="translate(-64.834 -77.934)" fill="#4d4d4d"/>
              <path id="Trazado_603195" data-name="Trazado 603195" d="M147.043,147.162l-14.228-8.215-6.527,3.769,14.227,8.214Z" transform="translate(-72.731 -80.021)" fill="#4d4d4d"/>
              <path id="Trazado_603196" data-name="Trazado 603196" d="M171.8,157.455l-1.1-.635-.839.484,1.1.635Z" transform="translate(-97.824 -90.314)" fill="#4d4d4d"/>
              <path id="Trazado_603197" data-name="Trazado 603197" d="M168.782,155.714l-1.1-.634-.839.484,1.1.635Z" transform="translate(-96.087 -89.312)" fill="#4d4d4d"/>
              <path id="Trazado_603198" data-name="Trazado 603198" d="M165.766,153.972l-1.1-.635-.839.484,1.1.635Z" transform="translate(-94.35 -88.309)" fill="#4d4d4d"/>
              <path id="Trazado_603199" data-name="Trazado 603199" d="M162.75,152.231l-1.1-.635-.839.484,1.1.635Z" transform="translate(-92.613 -87.306)" fill="#4d4d4d"/>
              <path id="Trazado_603200" data-name="Trazado 603200" d="M159.734,150.49l-1.1-.635-.839.484,1.1.635Z" transform="translate(-90.877 -86.303)" fill="#4d4d4d"/>
              <path id="Trazado_603201" data-name="Trazado 603201" d="M156.719,148.749l-1.1-.635-.839.484,1.1.635Z" transform="translate(-89.14 -85.3)" fill="#4d4d4d"/>
              <path id="Trazado_603202" data-name="Trazado 603202" d="M153.7,147.008l-1.1-.635-.839.484,1.1.635Z" transform="translate(-87.403 -84.298)" fill="#4d4d4d"/>
              <path id="Trazado_603203" data-name="Trazado 603203" d="M150.687,145.267l-1.1-.635-.839.484,1.1.635Z" transform="translate(-85.666 -83.295)" fill="#4d4d4d"/>
              <path id="Trazado_603204" data-name="Trazado 603204" d="M147.671,143.525l-1.1-.635-.839.484,1.1.635Z" transform="translate(-83.929 -82.292)" fill="#4d4d4d"/>
              <path id="Trazado_603205" data-name="Trazado 603205" d="M144.655,141.784l-1.1-.635-.839.484,1.1.635Z" transform="translate(-82.192 -81.289)" fill="#4d4d4d"/>
              <path id="Trazado_603206" data-name="Trazado 603206" d="M141.639,140.043l-1.1-.635-.839.484,1.1.635Z" transform="translate(-80.455 -80.287)" fill="#4d4d4d"/>
              <path id="Trazado_603207" data-name="Trazado 603207" d="M168.252,159.5l-1.1-.635-.839.484,1.1.635Z" transform="translate(-95.782 -91.493)" fill="#4d4d4d"/>
              <path id="Trazado_603208" data-name="Trazado 603208" d="M165.236,157.761l-1.1-.635-.839.484,1.1.635Z" transform="translate(-94.045 -90.491)" fill="#4d4d4d"/>
              <path id="Trazado_603209" data-name="Trazado 603209" d="M162.22,156.02l-1.1-.635-.839.484,1.1.635Z" transform="translate(-92.308 -89.488)" fill="#4d4d4d"/>
              <path id="Trazado_603210" data-name="Trazado 603210" d="M159.2,154.278l-1.1-.635-.839.484,1.1.635Z" transform="translate(-90.571 -88.485)" fill="#4d4d4d"/>
              <path id="Trazado_603211" data-name="Trazado 603211" d="M156.188,152.537l-1.1-.635-.839.484,1.1.635Z" transform="translate(-88.834 -87.482)" fill="#4d4d4d"/>
              <path id="Trazado_603212" data-name="Trazado 603212" d="M153.173,150.8l-1.1-.635-.839.484,1.1.635Z" transform="translate(-87.098 -86.48)" fill="#4d4d4d"/>
              <path id="Trazado_603213" data-name="Trazado 603213" d="M150.157,149.055l-1.1-.635-.839.484,1.1.635Z" transform="translate(-85.361 -85.477)" fill="#4d4d4d"/>
              <path id="Trazado_603214" data-name="Trazado 603214" d="M147.141,147.314l-1.1-.635-.839.484,1.1.635Z" transform="translate(-83.624 -84.474)" fill="#4d4d4d"/>
              <path id="Trazado_603215" data-name="Trazado 603215" d="M144.125,145.573l-1.1-.635-.839.484,1.1.635Z" transform="translate(-81.887 -83.471)" fill="#4d4d4d"/>
              <path id="Trazado_603216" data-name="Trazado 603216" d="M141.109,143.831l-1.1-.635-.839.484,1.1.635Z" transform="translate(-80.15 -82.468)" fill="#4d4d4d"/>
              <path id="Trazado_603217" data-name="Trazado 603217" d="M138.094,142.09l-1.1-.635-.839.484,1.1.635Z" transform="translate(-78.413 -81.466)" fill="#4d4d4d"/>
              <path id="Trazado_603218" data-name="Trazado 603218" d="M165.984,160.811l-1.1-.635-.839.484,1.1.635Z" transform="translate(-94.476 -92.247)" fill="#4d4d4d"/>
              <path id="Trazado_603219" data-name="Trazado 603219" d="M162.969,159.07l-1.1-.635-.839.484,1.1.635Z" transform="translate(-92.739 -91.244)" fill="#4d4d4d"/>
              <path id="Trazado_603220" data-name="Trazado 603220" d="M159.953,157.329l-1.1-.635-.839.484,1.1.635Z" transform="translate(-91.002 -90.242)" fill="#4d4d4d"/>
              <path id="Trazado_603221" data-name="Trazado 603221" d="M156.937,155.588l-1.1-.634-.839.484,1.1.635Z" transform="translate(-89.265 -89.239)" fill="#4d4d4d"/>
              <path id="Trazado_603222" data-name="Trazado 603222" d="M153.921,153.846l-1.1-.635-.839.484,1.1.635Z" transform="translate(-87.529 -88.236)" fill="#4d4d4d"/>
              <path id="Trazado_603223" data-name="Trazado 603223" d="M150.905,152.105l-1.1-.635-.839.484,1.1.635Z" transform="translate(-85.792 -87.233)" fill="#4d4d4d"/>
              <path id="Trazado_603224" data-name="Trazado 603224" d="M147.889,150.364l-1.1-.635-.839.484,1.1.635Z" transform="translate(-84.055 -86.231)" fill="#4d4d4d"/>
              <path id="Trazado_603225" data-name="Trazado 603225" d="M144.874,148.623l-1.1-.634-.839.484,1.1.635Z" transform="translate(-82.318 -85.228)" fill="#4d4d4d"/>
              <path id="Trazado_603226" data-name="Trazado 603226" d="M141.858,146.882l-1.1-.634-.839.484,1.1.635Z" transform="translate(-80.581 -84.226)" fill="#4d4d4d"/>
              <path id="Trazado_603227" data-name="Trazado 603227" d="M138.842,145.141l-1.1-.634-.839.484,1.1.635Z" transform="translate(-78.844 -83.223)" fill="#4d4d4d"/>
              <path id="Trazado_603228" data-name="Trazado 603228" d="M163.717,162.12l-1.1-.635-.839.484,1.1.635Z" transform="translate(-93.17 -93.001)" fill="#4d4d4d"/>
              <path id="Trazado_603229" data-name="Trazado 603229" d="M160.7,160.379l-1.1-.635-.839.484,1.1.635Z" transform="translate(-91.433 -91.998)" fill="#4d4d4d"/>
              <path id="Trazado_603230" data-name="Trazado 603230" d="M157.685,158.638l-1.1-.635-.839.484,1.1.635Z" transform="translate(-89.696 -90.996)" fill="#4d4d4d"/>
              <path id="Trazado_603231" data-name="Trazado 603231" d="M154.67,156.9l-1.1-.635-.839.484,1.1.635Z" transform="translate(-87.96 -89.993)" fill="#4d4d4d"/>
              <path id="Trazado_603232" data-name="Trazado 603232" d="M151.654,155.156l-1.1-.634-.839.484,1.1.635Z" transform="translate(-86.223 -88.991)" fill="#4d4d4d"/>
              <path id="Trazado_603233" data-name="Trazado 603233" d="M148.638,153.414l-1.1-.635-.839.484,1.1.635Z" transform="translate(-84.486 -87.987)" fill="#4d4d4d"/>
              <path id="Trazado_603234" data-name="Trazado 603234" d="M145.622,151.673l-1.1-.635-.839.484,1.1.635Z" transform="translate(-82.749 -86.985)" fill="#4d4d4d"/>
              <path id="Trazado_603235" data-name="Trazado 603235" d="M142.606,149.932l-1.1-.635-.839.484,1.1.635Z" transform="translate(-81.012 -85.982)" fill="#4d4d4d"/>
              <path id="Trazado_603236" data-name="Trazado 603236" d="M139.59,148.191l-1.1-.635-.839.484,1.1.635Z" transform="translate(-79.275 -84.979)" fill="#4d4d4d"/>
              <path id="Trazado_603237" data-name="Trazado 603237" d="M134.52,143.4l-.962.555,1.279.738-.839.484-1.279-.738-.321-.185-.779-.45.714-.412.125-.072.962-.555Z" transform="translate(-75.802 -82.22)" fill="#4d4d4d"/>
              <path id="Trazado_603238" data-name="Trazado 603238" d="M158.1,161.495l.335.193,1.279.738-.838.484-1.279-.738-.335-.193-.765-.441.839-.484Z" transform="translate(-90.127 -92.752)" fill="#4d4d4d"/>
              <path id="Trazado_603239" data-name="Trazado 603239" d="M155.418,159.947l-1.1-.635-.839.484,1.1.635Z" transform="translate(-88.391 -91.75)" fill="#4d4d4d"/>
              <path id="Trazado_603240" data-name="Trazado 603240" d="M152.4,158.206l-1.1-.635-.839.484,1.1.635Z" transform="translate(-86.654 -90.747)" fill="#4d4d4d"/>
              <path id="Trazado_603241" data-name="Trazado 603241" d="M149.386,156.465l-1.1-.635-.839.484,1.1.635Z" transform="translate(-84.917 -89.744)" fill="#4d4d4d"/>
              <path id="Trazado_603242" data-name="Trazado 603242" d="M146.371,154.723l-1.1-.635-.839.484,1.1.635Z" transform="translate(-83.18 -88.741)" fill="#4d4d4d"/>
              <path id="Trazado_603243" data-name="Trazado 603243" d="M143.355,152.983l-1.1-.634-.839.484,1.1.635Z" transform="translate(-81.443 -87.739)" fill="#4d4d4d"/>
              <path id="Trazado_603244" data-name="Trazado 603244" d="M140.339,151.242l-1.1-.634-.839.484,1.1.635Z" transform="translate(-79.706 -86.736)" fill="#4d4d4d"/>
              <path id="Trazado_603245" data-name="Trazado 603245" d="M137.323,149.5l-1.1-.635-.839.484,1.1.635Z" transform="translate(-77.97 -85.733)" fill="#4d4d4d"/>
              <path id="Trazado_603246" data-name="Trazado 603246" d="M131.471,146.122l.188.109.911.526-.839.484-.911-.526-.188-.109-1.279-.738.839-.484Z" transform="translate(-74.496 -83.728)" fill="#4d4d4d"/>
              <path id="Trazado_603247" data-name="Trazado 603247" d="M159.182,164.738l-1.1-.635-.839.484,1.1.635Z" transform="translate(-90.558 -94.509)" fill="#4d4d4d"/>
              <path id="Trazado_603248" data-name="Trazado 603248" d="M156.166,163l-1.1-.635-.839.484,1.1.635Z" transform="translate(-88.822 -93.506)" fill="#4d4d4d"/>
              <path id="Trazado_603249" data-name="Trazado 603249" d="M153.15,161.256l-1.1-.635-.839.484,1.1.635Z" transform="translate(-87.085 -92.504)" fill="#4d4d4d"/>
              <path id="Trazado_603250" data-name="Trazado 603250" d="M137.522,152.233l.55.317.18.1,1.1.635.18.1,1.1.635.179.1,1.1.635,1.279.738-.838.484-1.279-.738-1.1-.635-.179-.1-1.1-.634-.18-.1-1.1-.634-.18-.1-.55-.317-.55-.317.839-.484Z" transform="translate(-78.401 -87.49)" fill="#4d4d4d"/>
              <path id="Trazado_603251" data-name="Trazado 603251" d="M135.056,150.809l-1.1-.635-.839.484,1.1.635Z" transform="translate(-76.664 -86.487)" fill="#4d4d4d"/>
              <path id="Trazado_603252" data-name="Trazado 603252" d="M132.04,149.068l-1.1-.635-.839.484,1.1.635Z" transform="translate(-74.927 -85.484)" fill="#4d4d4d"/>
              <path id="Trazado_603253" data-name="Trazado 603253" d="M129.024,147.327l-1.1-.635-.839.484,1.1.635Z" transform="translate(-73.19 -84.481)" fill="#4d4d4d"/>
              <path id="Trazado_603254" data-name="Trazado 603254" d="M171.8,157.16l-1.1-.634-.839.484,1.1.635Z" transform="translate(-97.824 -90.145)" fill="#e6e6e6"/>
              <path id="Trazado_603255" data-name="Trazado 603255" d="M168.782,155.418l-1.1-.635-.839.484,1.1.635Z" transform="translate(-96.087 -89.141)" fill="#b3b3b3"/>
              <path id="Trazado_603256" data-name="Trazado 603256" d="M165.766,153.677l-1.1-.635-.839.484,1.1.635Z" transform="translate(-94.35 -88.139)" fill="#b3b3b3"/>
              <path id="Trazado_603257" data-name="Trazado 603257" d="M162.75,151.936l-1.1-.635-.839.484,1.1.635Z" transform="translate(-92.613 -87.136)" fill="#b3b3b3"/>
              <path id="Trazado_603258" data-name="Trazado 603258" d="M159.734,150.2l-1.1-.634-.839.484,1.1.635Z" transform="translate(-90.877 -86.134)" fill="#b3b3b3"/>
              <path id="Trazado_603259" data-name="Trazado 603259" d="M156.719,148.453l-1.1-.635-.839.484,1.1.635Z" transform="translate(-89.14 -85.13)" fill="#b3b3b3"/>
              <path id="Trazado_603260" data-name="Trazado 603260" d="M153.7,146.712l-1.1-.635-.839.484,1.1.635Z" transform="translate(-87.403 -84.128)" fill="#b3b3b3"/>
              <path id="Trazado_603261" data-name="Trazado 603261" d="M150.687,144.971l-1.1-.635-.839.484,1.1.635Z" transform="translate(-85.666 -83.125)" fill="#b3b3b3"/>
              <path id="Trazado_603262" data-name="Trazado 603262" d="M147.671,143.23l-1.1-.635-.839.484,1.1.635Z" transform="translate(-83.929 -82.122)" fill="#b3b3b3"/>
              <path id="Trazado_603263" data-name="Trazado 603263" d="M144.655,141.489l-1.1-.635-.839.484,1.1.635Z" transform="translate(-82.192 -81.119)" fill="#b3b3b3"/>
              <path id="Trazado_603264" data-name="Trazado 603264" d="M141.639,139.748l-1.1-.635-.839.484,1.1.635Z" transform="translate(-80.455 -80.117)" fill="#b3b3b3"/>
              <path id="Trazado_603265" data-name="Trazado 603265" d="M168.252,159.207l-1.1-.635-.839.484,1.1.635Z" transform="translate(-95.782 -91.323)" fill="#b3b3b3"/>
              <path id="Trazado_603266" data-name="Trazado 603266" d="M165.236,157.466l-1.1-.635-.839.484,1.1.635Z" transform="translate(-94.045 -90.321)" fill="#b3b3b3"/>
              <path id="Trazado_603267" data-name="Trazado 603267" d="M162.22,155.724l-1.1-.635-.839.484,1.1.635Z" transform="translate(-92.308 -89.318)" fill="#b3b3b3"/>
              <path id="Trazado_603268" data-name="Trazado 603268" d="M159.2,153.983l-1.1-.635-.839.484,1.1.635Z" transform="translate(-90.571 -88.315)" fill="#b3b3b3"/>
              <path id="Trazado_603269" data-name="Trazado 603269" d="M156.188,152.242l-1.1-.635-.839.484,1.1.635Z" transform="translate(-88.834 -87.312)" fill="#b3b3b3"/>
              <path id="Trazado_603270" data-name="Trazado 603270" d="M153.173,150.5l-1.1-.635-.839.484,1.1.635Z" transform="translate(-87.098 -86.309)" fill="#b3b3b3"/>
              <path id="Trazado_603271" data-name="Trazado 603271" d="M150.157,148.759l-1.1-.635-.839.484,1.1.635Z" transform="translate(-85.361 -85.307)" fill="#b3b3b3"/>
              <path id="Trazado_603272" data-name="Trazado 603272" d="M147.141,147.019l-1.1-.634-.839.484,1.1.635Z" transform="translate(-83.624 -84.304)" fill="#b3b3b3"/>
              <path id="Trazado_603273" data-name="Trazado 603273" d="M144.125,145.277l-1.1-.635-.839.484,1.1.635Z" transform="translate(-81.887 -83.301)" fill="#b3b3b3"/>
              <path id="Trazado_603274" data-name="Trazado 603274" d="M141.109,143.536l-1.1-.635-.839.484,1.1.635Z" transform="translate(-80.15 -82.298)" fill="#b3b3b3"/>
              <path id="Trazado_603275" data-name="Trazado 603275" d="M138.094,141.795l-1.1-.635-.839.484,1.1.635Z" transform="translate(-78.413 -81.296)" fill="#b3b3b3"/>
              <path id="Trazado_603276" data-name="Trazado 603276" d="M165.984,160.516l-1.1-.635-.839.484,1.1.635Z" transform="translate(-94.476 -92.077)" fill="#b3b3b3"/>
              <path id="Trazado_603277" data-name="Trazado 603277" d="M162.969,158.775l-1.1-.635-.839.484,1.1.635Z" transform="translate(-92.739 -91.074)" fill="#b3b3b3"/>
              <path id="Trazado_603278" data-name="Trazado 603278" d="M159.953,157.033l-1.1-.635-.839.484,1.1.635Z" transform="translate(-91.002 -90.072)" fill="#b3b3b3"/>
              <path id="Trazado_603279" data-name="Trazado 603279" d="M156.937,155.292l-1.1-.635-.839.484,1.1.635Z" transform="translate(-89.265 -89.069)" fill="#b3b3b3"/>
              <path id="Trazado_603280" data-name="Trazado 603280" d="M153.921,153.551l-1.1-.634-.839.484,1.1.635Z" transform="translate(-87.529 -88.067)" fill="#b3b3b3"/>
              <path id="Trazado_603281" data-name="Trazado 603281" d="M150.905,151.81l-1.1-.635-.839.484,1.1.635Z" transform="translate(-85.792 -87.063)" fill="#b3b3b3"/>
              <path id="Trazado_603282" data-name="Trazado 603282" d="M147.889,150.069l-1.1-.635-.839.484,1.1.635Z" transform="translate(-84.055 -86.061)" fill="#b3b3b3"/>
              <path id="Trazado_603283" data-name="Trazado 603283" d="M144.874,148.328l-1.1-.634-.839.484,1.1.635Z" transform="translate(-82.318 -85.058)" fill="#b3b3b3"/>
              <path id="Trazado_603284" data-name="Trazado 603284" d="M141.858,146.587l-1.1-.634-.839.484,1.1.635Z" transform="translate(-80.581 -84.056)" fill="#b3b3b3"/>
              <path id="Trazado_603285" data-name="Trazado 603285" d="M138.842,144.845l-1.1-.635-.839.484,1.1.635Z" transform="translate(-78.844 -83.052)" fill="#b3b3b3"/>
              <path id="Trazado_603286" data-name="Trazado 603286" d="M163.717,161.825l-1.1-.635-.839.484,1.1.635Z" transform="translate(-93.17 -92.831)" fill="#b3b3b3"/>
              <path id="Trazado_603287" data-name="Trazado 603287" d="M160.7,160.084l-1.1-.635-.839.484,1.1.635Z" transform="translate(-91.433 -91.828)" fill="#b3b3b3"/>
              <path id="Trazado_603288" data-name="Trazado 603288" d="M157.685,158.342l-1.1-.635-.839.484,1.1.635Z" transform="translate(-89.696 -90.826)" fill="#b3b3b3"/>
              <path id="Trazado_603289" data-name="Trazado 603289" d="M154.67,156.6l-1.1-.635-.839.484,1.1.635Z" transform="translate(-87.96 -89.823)" fill="#b3b3b3"/>
              <path id="Trazado_603290" data-name="Trazado 603290" d="M151.654,154.861l-1.1-.634-.839.484,1.1.635Z" transform="translate(-86.223 -88.82)" fill="#b3b3b3"/>
              <path id="Trazado_603291" data-name="Trazado 603291" d="M148.638,153.119l-1.1-.635-.839.484,1.1.635Z" transform="translate(-84.486 -87.817)" fill="#b3b3b3"/>
              <path id="Trazado_603292" data-name="Trazado 603292" d="M145.622,151.378l-1.1-.635-.839.484,1.1.635Z" transform="translate(-82.749 -86.815)" fill="#b3b3b3"/>
              <path id="Trazado_603293" data-name="Trazado 603293" d="M142.606,149.637l-1.1-.635-.839.484,1.1.635Z" transform="translate(-81.012 -85.812)" fill="#b3b3b3"/>
              <path id="Trazado_603294" data-name="Trazado 603294" d="M139.59,147.9l-1.1-.635-.839.484,1.1.635Z" transform="translate(-79.275 -84.809)" fill="#b3b3b3"/>
              <path id="Trazado_603295" data-name="Trazado 603295" d="M134.52,143.1l-.962.555,1.279.738-.839.484-1.279-.738-.321-.185-.779-.45.714-.412.125-.072.962-.555Z" transform="translate(-75.802 -82.05)" fill="#e6e6e6"/>
              <path id="Trazado_603296" data-name="Trazado 603296" d="M158.1,161.2l.335.193,1.279.738-.838.484-1.279-.738-.335-.193-.765-.441.839-.484Z" transform="translate(-90.127 -92.582)" fill="#e6e6e6"/>
              <path id="Trazado_603297" data-name="Trazado 603297" d="M155.418,159.652l-1.1-.635-.839.484,1.1.635Z" transform="translate(-88.391 -91.579)" fill="#b3b3b3"/>
              <path id="Trazado_603298" data-name="Trazado 603298" d="M152.4,157.91l-1.1-.635-.839.484,1.1.635Z" transform="translate(-86.654 -90.577)" fill="#b3b3b3"/>
              <path id="Trazado_603299" data-name="Trazado 603299" d="M149.386,156.169l-1.1-.635-.839.484,1.1.635Z" transform="translate(-84.917 -89.574)" fill="#b3b3b3"/>
              <path id="Trazado_603300" data-name="Trazado 603300" d="M146.371,154.428l-1.1-.635-.839.484,1.1.635Z" transform="translate(-83.18 -88.571)" fill="#b3b3b3"/>
              <path id="Trazado_603301" data-name="Trazado 603301" d="M143.355,152.687l-1.1-.635-.839.484,1.1.635Z" transform="translate(-81.443 -87.568)" fill="#b3b3b3"/>
              <path id="Trazado_603302" data-name="Trazado 603302" d="M140.339,150.946l-1.1-.635-.839.484,1.1.635Z" transform="translate(-79.706 -86.566)" fill="#b3b3b3"/>
              <path id="Trazado_603303" data-name="Trazado 603303" d="M137.323,149.2l-1.1-.635-.839.484,1.1.635Z" transform="translate(-77.97 -85.563)" fill="#b3b3b3"/>
              <path id="Trazado_603304" data-name="Trazado 603304" d="M131.471,145.826l.188.109.911.526-.839.484-.911-.526-.188-.109-1.279-.738.839-.484Z" transform="translate(-74.496 -83.558)" fill="#e6e6e6"/>
              <path id="Trazado_603305" data-name="Trazado 603305" d="M159.182,164.443l-1.1-.635-.839.484,1.1.635Z" transform="translate(-90.558 -94.339)" fill="#e6e6e6"/>
              <path id="Trazado_603306" data-name="Trazado 603306" d="M156.166,162.7l-1.1-.635-.839.484,1.1.635Z" transform="translate(-88.822 -93.336)" fill="#b3b3b3"/>
              <path id="Trazado_603307" data-name="Trazado 603307" d="M153.15,160.961l-1.1-.635-.839.484,1.1.635Z" transform="translate(-87.085 -92.333)" fill="#b3b3b3"/>
              <path id="Trazado_603308" data-name="Trazado 603308" d="M137.522,151.938l.55.317.18.1,1.1.635.18.1,1.1.635.179.1,1.1.635,1.279.738-.838.484-1.279-.738-1.1-.635-.179-.1-1.1-.634-.18-.1-1.1-.634-.18-.1-.55-.317-.55-.318.839-.484Z" transform="translate(-78.401 -87.32)" fill="#e6e6e6"/>
              <path id="Trazado_603309" data-name="Trazado 603309" d="M135.056,150.514l-1.1-.635-.839.484,1.1.635Z" transform="translate(-76.664 -86.317)" fill="#b3b3b3"/>
              <path id="Trazado_603310" data-name="Trazado 603310" d="M132.04,148.772l-1.1-.635-.839.484,1.1.635Z" transform="translate(-74.927 -85.314)" fill="#b3b3b3"/>
              <path id="Trazado_603311" data-name="Trazado 603311" d="M129.024,147.031l-1.1-.635-.839.484,1.1.635Z" transform="translate(-73.19 -84.311)" fill="#e6e6e6"/>
              <path id="Trazado_603312" data-name="Trazado 603312" d="M140.434,117.549l17.407,10.5.5-.163,3.427-12.805-17.9-10.337-.5.163Z" transform="translate(-80.877 -60.323)" fill="#1a1a1a"/>
              <path id="Trazado_603313" data-name="Trazado 603313" d="M139.262,117.934l17.9,10.337,3.427-12.805-17.9-10.337Z" transform="translate(-80.202 -60.545)" fill="#333"/>
              <path id="Trazado_603314" data-name="Trazado 603314" d="M140.739,118.784l16.938,9.779.053-.195,3.086-11.533-16.743-9.666-.195-.114Z" transform="translate(-81.053 -61.655)" fill="#fff"/>
              <path id="Trazado_603315" data-name="Trazado 603315" d="M141.322,118.857l16.743,9.666,3.086-11.533-16.743-9.665Z" transform="translate(-81.389 -61.809)" fill="#91e8d6"/>
              <path id="Trazado_603316" data-name="Trazado 603316" d="M130.328,156.318l4.227,2.441,2.654-1.532-4.228-2.441Z" transform="translate(-75.057 -89.143)" fill="#333"/>
              <path id="Trazado_603317" data-name="Trazado 603317" d="M157.919,120.766l-1.634,6.088-9.572-5.616,1.634-6.088Z" transform="translate(-84.493 -66.316)" fill="#fff"/>
              <path id="Trazado_603318" data-name="Trazado 603318" d="M150.768,113.37l9.572,5.616-.2.755-9.572-5.616Z" transform="translate(-86.712 -65.291)" fill="gray"/>
              <path id="Trazado_603319" data-name="Trazado 603319" d="M169.7,127.736l.7.409.116-.432-.7-.409Z" transform="translate(-97.732 -73.316)" fill="#ffb133"/>
              <path id="Trazado_603320" data-name="Trazado 603320" d="M164.941,124.942l1.839,1.079.056-.209L165,124.733Z" transform="translate(-94.991 -71.835)"/>
              <path id="Trazado_603321" data-name="Trazado 603321" d="M169.249,129.416l.7.409.116-.432-.7-.409Z" transform="translate(-97.472 -74.284)" fill="#ffb133"/>
              <path id="Trazado_603322" data-name="Trazado 603322" d="M162.46,125.432l2.7,1.584.056-.209-2.7-1.584Z" transform="translate(-93.562 -72.117)"/>
              <path id="Trazado_603323" data-name="Trazado 603323" d="M168.8,131.1l.7.409.116-.432-.7-.409Z" transform="translate(-97.213 -75.251)" fill="#ffb133"/>
              <path id="Trazado_603324" data-name="Trazado 603324" d="M165.094,128.68l1.416.831-.056.209-1.416-.831Z" transform="translate(-95.047 -74.108)"/>
              <path id="Trazado_603325" data-name="Trazado 603325" d="M168.347,132.777l.7.409.116-.432-.7-.409Z" transform="translate(-96.953 -76.219)" fill="#ffb133"/>
              <path id="Trazado_603326" data-name="Trazado 603326" d="M161.558,128.793l2.7,1.584.056-.21-2.7-1.584Z" transform="translate(-93.043 -74.053)"/>
              <path id="Trazado_603327" data-name="Trazado 603327" d="M167.9,134.458l.7.409.116-.432-.7-.409Z" transform="translate(-96.693 -77.187)" fill="#ffb133"/>
              <path id="Trazado_603328" data-name="Trazado 603328" d="M162.414,131.24l2.146,1.259.056-.209-2.146-1.259Z" transform="translate(-93.536 -75.462)"/>
              <path id="Trazado_603329" data-name="Trazado 603329" d="M167.445,136.139l.7.409.116-.432-.7-.409Z" transform="translate(-96.433 -78.155)" fill="#ffb133"/>
              <path id="Trazado_603330" data-name="Trazado 603330" d="M163.609,133.887l1.448.849.056-.209-1.448-.849Z" transform="translate(-94.224 -76.987)"/>
              <path id="Trazado_603331" data-name="Trazado 603331" d="M166.994,137.82l.7.409.116-.432-.7-.409Z" transform="translate(-96.174 -79.123)" fill="#ffb133"/>
              <path id="Trazado_603332" data-name="Trazado 603332" d="M162.235,135.026l1.839,1.079.056-.209-1.839-1.079Z" transform="translate(-93.433 -77.643)"/>
              <path id="Trazado_603333" data-name="Trazado 603333" d="M166.543,139.5l.7.409.116-.432-.7-.409Z" transform="translate(-95.914 -80.091)" fill="#ffb133"/>
              <path id="Trazado_603334" data-name="Trazado 603334" d="M161.784,136.707l1.839,1.079.056-.21L161.84,136.5Z" transform="translate(-93.173 -78.61)"/>
              <path id="Trazado_603335" data-name="Trazado 603335" d="M157.283,120.451l.7.409.116-.432-.7-.408Z" transform="translate(-90.581 -69.12)" fill="#ffb133"/>
              <path id="Trazado_603336" data-name="Trazado 603336" d="M152.523,117.657l1.839,1.079.056-.209-1.839-1.079Z" transform="translate(-87.84 -67.639)"/>
              <path id="Trazado_603337" data-name="Trazado 603337" d="M156.832,122.131l.7.409.116-.432-.7-.409Z" transform="translate(-90.321 -70.088)" fill="#ffb133"/>
              <path id="Trazado_603338" data-name="Trazado 603338" d="M151.6,119.061l2.039,1.2.056-.209-2.039-1.2Z" transform="translate(-87.309 -68.448)"/>
              <path id="Trazado_603339" data-name="Trazado 603339" d="M156.381,123.812l.7.409.116-.432-.7-.409Z" transform="translate(-90.061 -71.056)" fill="#ffb133"/>
              <path id="Trazado_603340" data-name="Trazado 603340" d="M150.095,120.122l2.487,1.459.056-.209-2.487-1.459Z" transform="translate(-86.441 -69.059)"/>
              <path id="Trazado_603341" data-name="Trazado 603341" d="M155.93,125.492l.7.409.116-.432-.7-.409Z" transform="translate(-89.802 -72.024)" fill="#ffb133"/>
              <path id="Trazado_603342" data-name="Trazado 603342" d="M152.472,123.462l1.288.755.056-.209-1.288-.755Z" transform="translate(-87.81 -70.983)"/>
              <path id="Trazado_603343" data-name="Trazado 603343" d="M155.479,127.173l.7.409.116-.432-.7-.409Z" transform="translate(-89.542 -72.992)" fill="#ffb133"/>
              <path id="Trazado_603344" data-name="Trazado 603344" d="M150.719,124.379l1.839,1.079.056-.209-1.839-1.079Z" transform="translate(-86.801 -71.511)"/>
              <path id="Trazado_603345" data-name="Trazado 603345" d="M155.028,128.854l.7.409.116-.432-.7-.409Z" transform="translate(-89.282 -73.96)" fill="#ffb133"/>
              <path id="Trazado_603346" data-name="Trazado 603346" d="M150.268,126.06l1.839,1.079.056-.21-1.839-1.079Z" transform="translate(-86.541 -72.479)"/>
              <path id="Trazado_603347" data-name="Trazado 603347" d="M154.577,130.535l.7.409.116-.432-.7-.408Z" transform="translate(-89.022 -74.928)" fill="#ffb133"/>
              <path id="Trazado_603348" data-name="Trazado 603348" d="M149.817,127.741l1.839,1.079.056-.209-1.839-1.079Z" transform="translate(-86.281 -73.447)"/>
              <path id="Trazado_603349" data-name="Trazado 603349" d="M154.126,132.215l.7.409.116-.432-.7-.409Z" transform="translate(-88.763 -75.895)" fill="#ffb133"/>
              <path id="Trazado_603350" data-name="Trazado 603350" d="M149.367,129.421l1.839,1.079.056-.209-1.839-1.079Z" transform="translate(-86.022 -74.415)"/>
              <path id="Trazado_603351" data-name="Trazado 603351" d="M160.179,123.448l.751.441-.178.665-.751-.441Z" transform="translate(-92.146 -71.095)" fill="#833343"/>
              <path id="Trazado_603352" data-name="Trazado 603352" d="M170.77,129.662l-.178.665-8.821-5.175.179-.665Z" transform="translate(-93.166 -71.694)" fill="#fff"/>
              <path id="Trazado_603353" data-name="Trazado 603353" d="M167.32,130.631l-1.658,6.179-9.572-5.616,1.658-6.179Z" transform="translate(-89.894 -71.997)"/>
              <path id="Trazado_603354" data-name="Trazado 603354" d="M170.348,132.995l-.046.171-3.684-2.161.046-.171Z" transform="translate(-95.957 -75.349)" fill="#6d9647"/>
              <path id="Trazado_603355" data-name="Trazado 603355" d="M176.188,136.421l1.632.958-.046.171-1.632-.958Z" transform="translate(-101.442 -78.567)" fill="#91e8d6"/>
              <path id="Trazado_603356" data-name="Trazado 603356" d="M173.543,135.872l2.656,1.558-.046.171-2.656-1.558Z" transform="translate(-99.919 -78.25)" fill="#6d9647"/>
              <path id="Trazado_603357" data-name="Trazado 603357" d="M175.12,137.8l.469.275-.046.171-.469-.275Z" transform="translate(-100.827 -79.361)" fill="#6d9647"/>
              <path id="Trazado_603358" data-name="Trazado 603358" d="M176.8,138.783l1.178.691-.046.171-1.177-.691Z" transform="translate(-101.792 -79.927)" fill="#833343"/>
              <path id="Trazado_603359" data-name="Trazado 603359" d="M170.8,136.268l3.622,2.125-.046.171-3.622-2.125Z" transform="translate(-98.339 -78.478)" fill="#6d9647"/>
              <path id="Trazado_603360" data-name="Trazado 603360" d="M174.923,139.69l1.774,1.041-.046.171-1.774-1.041Z" transform="translate(-100.714 -80.449)" fill="#833343"/>
              <path id="Trazado_603361" data-name="Trazado 603361" d="M171.632,137.759l-.046.171-1.066-.626.046-.171Z" transform="translate(-98.204 -78.977)" fill="#6d9647"/>
              <path id="Trazado_603362" data-name="Trazado 603362" d="M176.836,141.815l.865.507-.046.171-.865-.507Z" transform="translate(-101.815 -81.673)" fill="#6d9647"/>
              <path id="Trazado_603363" data-name="Trazado 603363" d="M174.255,140.3l.668.392-.046.171-.668-.392Z" transform="translate(-100.329 -80.801)" fill="#6d9647"/>
              <path id="Trazado_603364" data-name="Trazado 603364" d="M170.034,138.827l3.651,2.142-.046.171L169.989,139Z" transform="translate(-97.898 -79.952)" fill="#6d9647"/>
              <path id="Trazado_603365" data-name="Trazado 603365" d="M175.568,144.08l1.106.649-.046.171-1.106-.649Z" transform="translate(-101.085 -82.977)" fill="#6d9647"/>
              <path id="Trazado_603366" data-name="Trazado 603366" d="M173.423,142.821l.455.267-.046.171-.455-.267Z" transform="translate(-99.85 -82.252)" fill="#6d9647"/>
              <path id="Trazado_603367" data-name="Trazado 603367" d="M174.6,144.513l1.419.832-.046.171-1.419-.832Z" transform="translate(-100.527 -83.227)" fill="#833343"/>
              <path id="Trazado_603368" data-name="Trazado 603368" d="M173.6,144.927l1.746,1.025-.046.171-1.746-1.024Z" transform="translate(-99.949 -83.465)" fill="#6d9647"/>
              <path id="Trazado_603369" data-name="Trazado 603369" d="M175.709,147.17l.751.441-.046.171-.751-.441Z" transform="translate(-101.166 -84.757)" fill="#833343"/>
              <path id="Trazado_603370" data-name="Trazado 603370" d="M172.86,145.5l.824.483-.046.171-.824-.483Z" transform="translate(-99.526 -83.794)" fill="#6d9647"/>
              <path id="Trazado_603371" data-name="Trazado 603371" d="M171.522,145.716l2.428,1.425-.046.171-2.428-1.425Z" transform="translate(-98.755 -83.92)" fill="#6d9647"/>
              <path id="Trazado_603372" data-name="Trazado 603372" d="M174.138,148.254l1.22.716-.046.171-1.22-.716Z" transform="translate(-100.261 -85.381)" fill="#6d9647"/>
              <path id="Trazado_603373" data-name="Trazado 603373" d="M212.9,169.156l-5.816-3.358,1.413-.819,4.4,2.716a1.928,1.928,0,0,1,0,1.461" transform="translate(-119.264 -95.013)" fill="#833343"/>
              <path id="Trazado_603374" data-name="Trazado 603374" d="M213.457,168.014l-5.707-3.3v-1.461l5.816,3.358a1.68,1.68,0,0,1-.109,1.4" transform="translate(-119.645 -94.022)" fill="#f4c099"/>
              <path id="Trazado_603375" data-name="Trazado 603375" d="M229.126,161.513l-8.324,4.806a2,2,0,0,0,0-1.461l8.324-4.806a2.155,2.155,0,0,1,0,1.461" transform="translate(-127.162 -92.176)" fill="#833343"/>
              <path id="Trazado_603376" data-name="Trazado 603376" d="M221.227,155.492,212.9,160.3l-5.816-3.358,8.324-4.806Z" transform="translate(-119.264 -87.615)" fill="#833343"/>
              <path id="Trazado_603377" data-name="Trazado 603377" d="M209.8,166.152l-5.816-3.358,1.413-.819,4.4,2.716a1.926,1.926,0,0,1,0,1.461" transform="translate(-117.479 -93.283)" fill="#094559"/>
              <path id="Trazado_603378" data-name="Trazado 603378" d="M210.358,165.01l-5.707-3.3v-1.461l5.816,3.358a1.68,1.68,0,0,1-.109,1.4" transform="translate(-117.861 -92.292)" fill="#f4c099"/>
              <path id="Trazado_603379" data-name="Trazado 603379" d="M227.2,156.916,217.7,162.4a2,2,0,0,0,0-1.461l9.493-5.481a2.15,2.15,0,0,1,0,1.461" transform="translate(-125.377 -89.528)" fill="#094559"/>
              <path id="Trazado_603380" data-name="Trazado 603380" d="M219.3,150.9l-9.493,5.481-5.816-3.358,9.493-5.481Z" transform="translate(-117.479 -84.968)" fill="#91e8d6"/>
              <path id="Trazado_603381" data-name="Trazado 603381" d="M211.635,160.13l-5.652-3.263,1.89-1.1,3.762,2.4a2.578,2.578,0,0,1,0,1.954" transform="translate(-118.628 -89.71)" fill="#3a4d5c"/>
              <path id="Trazado_603382" data-name="Trazado 603382" d="M212.374,158.6l-5.506-3.179v-1.954l5.652,3.263a2.245,2.245,0,0,1-.146,1.87" transform="translate(-119.137 -88.386)" fill="#f4c099"/>
              <path id="Trazado_603383" data-name="Trazado 603383" d="M227.971,151.6l-8.661,5a2.671,2.671,0,0,0,0-1.954l8.661-5a2.876,2.876,0,0,1,0,1.954" transform="translate(-126.303 -86.185)" fill="#394c5a"/>
              <path id="Trazado_603384" data-name="Trazado 603384" d="M220.3,145.218l-8.661,5-5.652-3.263,8.661-5Z" transform="translate(-118.628 -81.753)" fill="#547085"/>
              <path id="Trazado_603385" data-name="Trazado 603385" d="M95.167,126.637l2.758-1.064c1.293-.684,1.79-3.133,1.989-4.933l.417-3.773-.643-2.4-8.8-.462-2.239,5.882,1.056,5.849Z" transform="translate(-51.052 -65.658)" fill="#ffb294"/>
              <path id="Trazado_603386" data-name="Trazado 603386" d="M90.937,141.593l3.044-4.407-7.045-2.538-2.211,2.3c2.016.977,3.419,2.557,6.212,4.642" transform="translate(-48.794 -77.546)" fill="#ffb294"/>
              <path id="Trazado_603387" data-name="Trazado 603387" d="M98.951,114.353l-2.262,1.811a1.912,1.912,0,0,0-.69,1.18l-.309,1.87-1.239.941L94.4,121.74a2.4,2.4,0,0,1-1.8.8c-.79.027-2.039-.68-3.554-1.34-1.711-.745-2.387-1.4-2.607-4.239-.213-2.756-.084-5.419,2.649-7.326,2.488-1.737,7.479-1.234,9.262.732.93,1.025,1.511,2.832.6,3.989" transform="translate(-49.741 -62.527)"/>
              <path id="Trazado_603388" data-name="Trazado 603388" d="M104.6,130.942a2.511,2.511,0,0,0-.344,1.274,1.914,1.914,0,0,0,.234,1.175.819.819,0,0,0,1.057.306,4.066,4.066,0,0,0,.875-2.564c-.133-.97-1.357-.891-1.823-.192" transform="translate(-60.037 -75.105)" fill="#ffb294"/>
              <path id="Trazado_603389" data-name="Trazado 603389" d="M112.593,145.068l2.059-1.335,2.642-3.1,2.469-.951,1.6-.193a.674.674,0,0,1,.346.05l.33.142h.409a.669.669,0,0,1,.618.413l.449.221a.35.35,0,0,1-.142.6h-.559l-.97.292-1.54.844-.831,1.614s.19.348.261.367a6.7,6.7,0,0,0,1.7.081l.554-.1c.506.13.782.522.31.75l-.741.318-2.934.807-2.29.1-3.171.944Z" transform="translate(-64.843 -80.333)" fill="#ffb294"/>
              <path id="Trazado_603390" data-name="Trazado 603390" d="M102.2,149.5a2.913,2.913,0,0,1,.161,3.732l-7.558,4.287-3.83-5.908Z" transform="translate(-52.394 -86.097)" fill="#afafaf"/>
              <path id="Trazado_603391" data-name="Trazado 603391" d="M97.988,232.191c2.564.512,2.976,2.43,2,4.1L97.1,240.21c-1.084,1.808-2.539,2.657-4.442,2.351-1.71-.677-1.941-1.759-1.466-3.034l.095-2.723,1.726-5.041Z" transform="translate(-52.394 -133.475)"/>
              <path id="Trazado_603392" data-name="Trazado 603392" d="M47.325,258.945c9.581,5.377,25.649,1.271,25.408-6.428-.156-5.774-5.963-8.868-11.732-9.644l-.254-.033a80.548,80.548,0,0,1-.76-9.8.841.841,0,0,0-.028-.139.872.872,0,0,0-.022-.108c-.522-1.433-4.022-1.33-4.47.033a.769.769,0,0,0-.02.106.807.807,0,0,0-.023.121,80.305,80.305,0,0,1-.684,9.7c-.009.05-.014.075-.019.1-7.525.976-11.231,5-11.788,8.307-.61,3.623,1.093,5.931,4.391,7.781M42.8,252.39c0-.03,0-.059.006-.088,0,.015-.006.074-.006.088" transform="translate(-24.65 -133.475)" fill="#ccc"/>
              <path id="Trazado_603393" data-name="Trazado 603393" d="M72.719,267.455c-.084-3.562-2.006-5.909-5.055-7.662a1.331,1.331,0,0,0-1.234.149c4.936,2.77,5.054,7.343.251,10.214s-12.7,2.95-17.635.178c-2.569-1.441-3.832-3.37-3.777-5.292.178-6.275,13.305-9.509,21.162-5.1a1.331,1.331,0,0,1,1.234-.149,19.429,19.429,0,0,0-7.974-2.268,23.645,23.645,0,0,0-4.287.043c-6.157.623-12.636,3.807-12.633,9.971.006,2.257,1.523,4.506,4.537,6.2,5.93,3.328,15.411,3.232,21.175-.214,2.835-1.694,4.243-3.884,4.237-6.067" transform="translate(-24.632 -148.267)" fill="gray"/>
              <path id="Trazado_603394" data-name="Trazado 603394" d="M73.6,251.918c-8.89-.528-9.764-3.213-10.237-17.137.04,1.174-2.41,1.8-3.87.981a1.134,1.134,0,0,1-.691-.968c-.394,13.926-1.254,16.616-10.14,17.194-.054,1.923,1.209,3.851,3.777,5.293,4.939,2.771,12.835,2.691,17.635-.179,2.417-1.445,3.589-3.322,3.526-5.184" transform="translate(-28.022 -135.213)" fill="#fff"/>
              <path id="Trazado_603395" data-name="Trazado 603395" d="M72.666,203.083l17.363,10.024-6.986,7.321L72.282,223.9,67.8,208.755Z" transform="translate(-39.044 -116.958)" fill="#91e8d6"/>
              <path id="Trazado_603396" data-name="Trazado 603396" d="M27.353,179.766,44.715,189.79,40.926,148.1,23.564,138.078Z" transform="translate(-13.571 -79.521)" fill="#91e8d6"/>
              <path id="Trazado_603397" data-name="Trazado 603397" d="M16.512,141.944c2.026,17.763,3.439,26.762,4.405,32.757,1.554,9.641,7.5,4.565,20.728-3.122,2.935-1.706,2.958-7.587.035-5.978-11.509,6.525-15.206,10.126-16.646,4.389-.545-2.171-.944-5.443-1.689-10.217-1.886-11.785-2.625-17.381-3.059-20.334-.518-3.525-4.168-.944-3.775,2.5" transform="translate(-9.492 -79.335)" fill="#91e8d6"/>
              <path id="Trazado_603398" data-name="Trazado 603398" d="M57.453,165.582c2.026,17.763,3.439,26.762,4.4,32.757,1.554,9.641,7.5,4.565,20.729-3.122,2.934-1.706,2.958-7.587.035-5.978-11.509,6.526-15.207,10.126-16.647,4.389-.545-2.171-.944-5.443-1.689-10.217-1.885-11.785-2.625-17.381-3.059-20.334-.518-3.525-4.168-.944-3.774,2.5" transform="translate(-33.071 -92.948)" fill="#075b82"/>
              <path id="Trazado_603399" data-name="Trazado 603399" d="M84.346,195.418s1.432-15.675-.637-16.073a29.29,29.29,0,0,0-13.367,4.137c-5.967,3.9,14,11.935,14,11.935" transform="translate(-39.87 -103.287)" fill="#2d4057"/>
              <path id="Trazado_603400" data-name="Trazado 603400" d="M128.992,254.43c-.941,1.587-.509,4.235.046,5.435,1.641.617,3.015.74,3.97.086,3.1-.186,4.837.229,6.433-.225,1.7-.483,2.854-.993,3.723-2.688a1.834,1.834,0,0,0-1.508-2.385c-2.577-.105-4.891-.316-6.152-.948l-2.2-4.021-4,3.15Z" transform="translate(-73.97 -143.795)"/>
              <path id="Trazado_603401" data-name="Trazado 603401" d="M47.547,209.621c1.352,3.087,4.695,6.047,10.577,6.786,1.808.219,4.43-.338,7.3-1.27,2.311-.749,4.777-1.735,7.088-2.731l.63-.274c1.041-.457,2.036-.9,2.968-1.334.165-.073.329-.146.484-.228.749-.347,1.452-.676,2.092-.978a37.426,37.426,0,0,1,3.525-1.571c-1.032,3.818-.366,17.765-.366,17.765,2.256,2.165,6.165.42,6.522-1.928,0,0,1.909-13.444,2.229-18.3a7.958,7.958,0,0,0-.292-2.923,4.267,4.267,0,0,0-2.494-2.886,21.25,21.25,0,0,0-9.124-.657c-1.251.146-2.466.356-3.6.6-.393.082-.767.165-1.133.256-.274.064-.548.137-.8.2-.365.091-.712.183-1.041.283-.137.036-.274.082-.411.119-.183.055-.356.1-.521.155-.365.109-.7.219-1.023.32-.21.073-.4.137-.584.2-.247.082-.466.165-.658.237-.082.028-.165.055-.237.082-.457.173-.7.274-.7.274l-2.466-.292L48.14,199.437c-1.187,4.01-1.425,8.275-.594,10.184" transform="translate(-27.099 -114.543)" fill="#2d4057"/>
              <g id="Grupo_161427" data-name="Grupo 161427" transform="translate(36.267 84.347)" opacity="0.5" style="mix-blend-mode: multiply;isolation: isolate">
                <g id="Grupo_161426" data-name="Grupo 161426">
                  <g id="Grupo_161425" data-name="Grupo 161425" clip-path="url(#clip-path-3)">
                    <path id="Trazado_603402" data-name="Trazado 603402" d="M85.517,205.694c13.134-3.288,13.189-3.361,15.628-3.726,5.069-.749,9.563-.42,11.307.667a4.267,4.267,0,0,0-2.494-2.886,21.252,21.252,0,0,0-9.125-.657,39.209,39.209,0,0,0-4.731.858,46.3,46.3,0,0,0-5.982,1.872,14.609,14.609,0,0,1-4.6,3.873" transform="translate(-85.517 -198.89)" fill="#283440"/>
                  </g>
                </g>
              </g>
              <path id="Trazado_603403" data-name="Trazado 603403" d="M54.687,167.649a10.028,10.028,0,0,0,10.056.3,14.673,14.673,0,0,0,4.613-3.882,53.743,53.743,0,0,1,3.105-8.942,19.082,19.082,0,0,0,.84-2.429,28.276,28.276,0,0,0,.85-9.764s-5.807-5.461-10.224-8.035a12.214,12.214,0,0,0-8.736-1.246c-4.558,1.379-4.8,11.609-4.377,15.536s-.584,7.088-1.288,12.495c-.511,4,2.082,4.211,5.16,5.964" transform="translate(-28.486 -76.79)" fill="#afafaf"/>
              <g id="Grupo_161430" data-name="Grupo 161430" transform="translate(36.267 72.5)" opacity="0.75" style="mix-blend-mode: multiply;isolation: isolate">
                <g id="Grupo_161429" data-name="Grupo 161429">
                  <g id="Grupo_161428" data-name="Grupo 161428" clip-path="url(#clip-path-4)">
                    <path id="Trazado_603404" data-name="Trazado 603404" d="M85.517,189.606a14.609,14.609,0,0,0,4.6-3.873,53.742,53.742,0,0,1,3.105-8.942,19.153,19.153,0,0,0,.841-2.429l-3.1-3.407a40.276,40.276,0,0,1-5.453,18.651" transform="translate(-85.517 -170.955)" fill="#b0e3f7"/>
                  </g>
                </g>
              </g>
              <path id="Trazado_603405" data-name="Trazado 603405" d="M146.591,164.753l1.756-1.925,1.607-.718,1.989-1.629,1.2-.658.473.017h.659c.625.051.726-.625.119-.763l-1.182-.156-1.3.311-.067-.311,1.441-.947.868-.214c.393,0,.612-.6.043-.81l-.849-.1-.54-.317a1.383,1.383,0,0,0-.9-.176l-.582.087-.762-.479a.766.766,0,0,0-.832.011l-1.208.806-1.373,1.21a1.59,1.59,0,0,0-1.26.608c-.376.43.2,1.893.2,1.893l-2.241,2.182Z" transform="translate(-82.837 -89.755)" fill="#ffb294"/>
              <path id="Trazado_603406" data-name="Trazado 603406" d="M117.581,159.487a2.66,2.66,0,0,1,2.407,2.606s-6.264,9.707-10.293,9.389c0,0-3.718-.271-12.148-7.376-4.255-3.967-3.551-7.49,1.769-10.159a16.482,16.482,0,0,1,5.912,6.077l4.467,4.695Z" transform="translate(-54.586 -88.66)" fill="#afafaf"/>
              <path id="Trazado_603407" data-name="Trazado 603407" d="M19.486,137.927c0-.012,17.361,10.012,17.361,10.012a2.045,2.045,0,0,1,.8,1.548c.391,2.658,2.545,28.875,3.546,31.631,1.441,5.737,6.338,1.057,17.848-5.469,2.922-1.609,2.9,4.272-.035,5.978-9.576,5.563-15.331,9.754-18.371,7.994,0,.006-17.362-10.019-17.362-10.019-1.162-.678-1.928-2.214-2.358-4.878-.966-5.995-2.379-14.994-4.405-32.757-.3-2.634,1.755-4.752,2.975-4.04" transform="translate(-9.492 -79.353)" fill="#91e8d6"/>
              <path id="Trazado_603408" data-name="Trazado 603408" d="M57.453,165.582c2.026,17.763,3.439,26.762,4.4,32.757,1.554,9.641,7.5,4.565,20.729-3.122,2.934-1.706,2.958-7.587.035-5.978-11.509,6.526-15.207,10.126-16.647,4.389-.545-2.171-.944-5.443-1.689-10.217-1.885-11.785-2.625-17.381-3.059-20.334-.518-3.525-4.168-.944-3.774,2.5" transform="translate(-33.071 -92.948)" fill="#3a8773"/>
              <g id="Grupo_161433" data-name="Grupo 161433" style="isolation: isolate">
                <g id="Grupo_161432" data-name="Grupo 161432">
                  <g id="Grupo_161431" data-name="Grupo 161431" clip-path="url(#clip-path-5)">
                    <path id="Trazado_603409" data-name="Trazado 603409" d="M119.13,4.262,113.465.97,115.28,2l5.665,3.292Z" transform="translate(-65.346 -0.558)" fill="#91e8d6"/>
                    <path id="Trazado_603410" data-name="Trazado 603410" d="M112.5,7.829l-5.665-3.292L109.646.97l5.665,3.292Z" transform="translate(-61.527 -0.559)" fill="#3a8773"/>
                    <path id="Trazado_603411" data-name="Trazado 603411" d="M112.5,7.829l-5.665-3.292L109.646.97l5.665,3.292Z" transform="translate(-61.527 -0.559)" fill="#3a8773"/>
                    <path id="Trazado_603412" data-name="Trazado 603412" d="M70.38,80.692,64.715,77.4l-1.159-1.626,5.665,3.292Z" transform="translate(-36.603 -43.639)" fill="#91e8d6"/>
                    <path id="Trazado_603413" data-name="Trazado 603413" d="M107.783,12.275l-5.665-3.292,2,.168,5.665,3.292Z" transform="translate(-58.811 -5.174)" fill="#91e8d6"/>
                    <path id="Trazado_603414" data-name="Trazado 603414" d="M60.565,80.352,54.9,77.06,54.232,74.6,59.9,77.9Z" transform="translate(-31.233 -42.965)" fill="#91e8d6"/>
                    <path id="Trazado_603415" data-name="Trazado 603415" d="M102.059,3.958,96.394.666,98.867,0l5.665,3.292Z" transform="translate(-55.514 0)" fill="#91e8d6"/>
                    <path id="Trazado_603416" data-name="Trazado 603416" d="M66.645,66.068,60.98,62.775l-.008-2.648,5.665,3.292Z" transform="translate(-35.115 -34.628)" fill="#3a8773"/>
                    <path id="Trazado_603417" data-name="Trazado 603417" d="M92.89,16.151l-5.665-3.292,2.3-1.329,5.665,3.292Z" transform="translate(-50.234 -6.641)" fill="#3a8773"/>
                    <path id="Trazado_603418" data-name="Trazado 603418" d="M69.142,47.075l-5.665-3.292,1.145-2.956,5.665,3.292Z" transform="translate(-36.557 -23.512)" fill="#3a8773"/>
                    <path id="Trazado_603419" data-name="Trazado 603419" d="M78.743,28.8,73.078,25.51l1.992-2.474,5.665,3.292Z" transform="translate(-42.086 -13.267)" fill="#3a8773"/>
                    <path id="Trazado_603420" data-name="Trazado 603420" d="M59.855,58.635,54.19,55.343l.651-3.217,5.665,3.292Z" transform="translate(-31.209 -30.02)" fill="#91e8d6"/>
                    <path id="Trazado_603421" data-name="Trazado 603421" d="M83.283,14.529l-5.665-3.292,2.469-2.187,5.665,3.292Z" transform="translate(-44.701 -5.212)" fill="#91e8d6"/>
                    <path id="Trazado_603422" data-name="Trazado 603422" d="M92.842,78.289l1.606,2.381,5.665,3.292-1.606-2.381Z" transform="translate(-53.469 -45.087)" fill="#296d59"/>
                    <path id="Trazado_603423" data-name="Trazado 603423" d="M121.97,33l-2.877-.176,5.665,3.293,2.876.176Z" transform="translate(-68.587 -18.904)" fill="#296d59"/>
                    <path id="Trazado_603424" data-name="Trazado 603424" d="M64.278,74.851,60.369,72.58l2.394-2.916L57.1,66.371l-2.866,3.492,4.838,2.811L57.663,76.2l5.665,3.292.922-2.31-.006.461,5.665,3.292.046-3.81L64.29,73.834Z" transform="translate(-31.233 -38.224)" fill="#296d59"/>
                    <path id="Trazado_603425" data-name="Trazado 603425" d="M125.462,15.849,119.8,12.557l-3.287,1.96,5.665,3.292Z" transform="translate(-67.099 -7.232)" fill="#296d59"/>
                    <path id="Trazado_603426" data-name="Trazado 603426" d="M99.9,4.863,94.239,1.57,92.652,5.794l5.665,3.292Z" transform="translate(-53.359 -0.904)" fill="#296d59"/>
                    <path id="Trazado_603427" data-name="Trazado 603427" d="M64.679,51.089,59.014,47.8l-3.287,1.836,5.665,3.292Z" transform="translate(-32.093 -27.527)" fill="#296d59"/>
                    <path id="Trazado_603428" data-name="Trazado 603428" d="M83.35,21.244,83.283,17.5l-5.665-3.292.067,3.744Z" transform="translate(-44.701 -8.182)" fill="#296d59"/>
                    <path id="Trazado_603429" data-name="Trazado 603429" d="M69.535,41.044l-1.7-2.264L62.17,35.487l1.7,2.264Z" transform="translate(-35.804 -20.437)" fill="#296d59"/>
                    <path id="Trazado_603430" data-name="Trazado 603430" d="M74.909,31.736l-5.665-3.292-2.823-.313,5.665,3.292Z" transform="translate(-38.253 -16.201)" fill="#296d59"/>
                    <path id="Trazado_603431" data-name="Trazado 603431" d="M67.835,34.542,62.17,31.25l1.8-3.12,5.665,3.293Z" transform="translate(-35.804 -16.2)" fill="#91e8d6"/>
                    <path id="Trazado_603432" data-name="Trazado 603432" d="M48.74,52.158l-5.665-3.292,1.542.879,5.665,3.292Z" transform="translate(-24.807 -28.142)" fill="#833343"/>
                    <path id="Trazado_603433" data-name="Trazado 603433" d="M27.641,105.305l1.109,2.024,5.665,3.292L33.306,108.6Z" transform="translate(-15.919 -60.646)" fill="#144567"/>
                    <path id="Trazado_603434" data-name="Trazado 603434" d="M47.98,46.717l-5.665-3.292-.97.768-4.883-2.838L34.7,44.513l5.665,3.292.863-1.552,4.229,2.458Z" transform="translate(-19.987 -23.817)" fill="#144567"/>
                    <path id="Trazado_603435" data-name="Trazado 603435" d="M9.434,101.316,3.769,98.023l-1.855,3.1,4.915,2.856L6.665,105.1l5.665,3.292.464-3.168-4.229-2.457Z" transform="translate(-1.102 -56.453)" fill="#144567"/>
                    <path id="Trazado_603436" data-name="Trazado 603436" d="M9.12,84.474,3.455,81.182.913,83.031l5.665,3.292Z" transform="translate(-0.526 -46.754)" fill="#144567"/>
                    <path id="Trazado_603437" data-name="Trazado 603437" d="M26.373,53.787,20.708,50.5l-.323,3.113L26.051,56.9Z" transform="translate(-11.74 -29.081)" fill="#144567"/>
                    <path id="Trazado_603438" data-name="Trazado 603438" d="M13.21,75.33l-1.234-1.878L6.311,70.16l1.234,1.878Z" transform="translate(-3.635 -40.406)" fill="#144567"/>
                    <path id="Trazado_603439" data-name="Trazado 603439" d="M18.431,66.284l-5.665-3.292-2.257-.109,5.665,3.292Z" transform="translate(-6.052 -36.215)" fill="#144567"/>
                    <path id="Trazado_603440" data-name="Trazado 603440" d="M85.446,8.429l2.473-.666-.046,3.81,2,.168,2.812-3.567L94.5,9.206l-1.682,4.217,1.159,1.626,3.287-1.96.668,2.455-2.866,3.492.007,2.648,2.877.176L97.3,25.077l-3.287,1.836-1.146,2.956,1.7,2.264-1.8,3.12-2.823-.316-1.992,2.476.067,3.745-2.469,2.187L83.94,40.965l-2.3,1.329-1.587,4.224-2.473.666.046-3.81-2-.171-2.812,3.57L71,45.741l1.682-4.217L71.521,39.9l-3.287,1.96L67.566,39.4l2.866-3.492-.007-2.648-2.877-.176.651-3.218,3.287-1.835,1.146-2.956-1.7-2.264,1.8-3.12,2.823.313,1.992-2.474-.067-3.744L79.953,11.6l1.605,2.381,2.3-1.329Z" transform="translate(-38.902 -4.471)" fill="#91e8d6"/>
                    <path id="Trazado_603441" data-name="Trazado 603441" d="M54.133,63.259l-2.321.076,5.665,3.292,2.321-.076Z" transform="translate(-29.84 -36.432)" fill="#256c93"/>
                    <path id="Trazado_603442" data-name="Trazado 603442" d="M46.769,44.664,41.1,41.372l-2.257-.017,5.665,3.292Z" transform="translate(-22.372 -23.817)" fill="#256c93"/>
                    <path id="Trazado_603443" data-name="Trazado 603443" d="M26.165,47.492l-2.523-1.466-2.5,1.9,5.665,3.292L28.278,50.1l2.137,1.242,2.146-.846L26.9,47.2Z" transform="translate(-12.178 -26.507)" fill="#256c93"/>
                    <path id="Trazado_603444" data-name="Trazado 603444" d="M1.914,105.325l1.154,1.927,5.665,3.292-1.154-1.927Z" transform="translate(-1.102 -60.658)" fill="#256c93"/>
                    <path id="Trazado_603445" data-name="Trazado 603445" d="M5.831,90.6l.221-1.769L.387,85.541,0,88.635l2.558,1.486.109.713,5.665,3.292-.346-2.272Z" transform="translate(0 -49.264)" fill="#256c93"/>
                    <path id="Trazado_603446" data-name="Trazado 603446" d="M6.906,77.385l5.665,3.292.982-2.8L7.888,74.588Z" transform="translate(-3.977 -42.956)" fill="#256c93"/>
                    <path id="Trazado_603447" data-name="Trazado 603447" d="M15.831,60.085,21.5,63.377l1.932-2.249-5.665-3.292Z" transform="translate(-9.117 -33.308)" fill="#256c93"/>
                    <path id="Trazado_603448" data-name="Trazado 603448" d="M6.311,65.97l5.665,3.292,1.78-3.086L8.092,62.884Z" transform="translate(-3.635 -36.215)" fill="#256c93"/>
                    <path id="Trazado_603449" data-name="Trazado 603449" d="M24.822,51.1l1.108,2.024,2.146-.846,1.757-3.159,2.257.017L31.626,52.3l1.542.879,2.518-1.994,1.154,1.924-1.855,3.1.346,2.272,2.321-.076-.387,3.1-2.542,1.849-.981,2.8,1.234,1.877L33.2,71.113,30.942,71l-1.934,2.251-.323,3.113-2.5,1.9-1.108-2.024-2.147.846-1.757,3.158-2.257-.017.464-3.168-1.542-.879-2.518,1.994-1.154-1.927,1.855-3.1-.346-2.272-2.321.073.387-3.094,2.542-1.849.982-2.8-1.234-1.878,1.78-3.086,2.257.109L22,56.107l.323-3.113Z" transform="translate(-7.693 -28.287)" fill="#dce3e8"/>
                  </g>
                </g>
              </g>
              <path id="Trazado_603450" data-name="Trazado 603450" d="M40.348,68.634c0,4.207-3.41,9.586-7.617,12.014s-7.617.988-7.617-3.219,3.41-9.586,7.617-12.014,7.617-.987,7.617,3.219" transform="translate(-14.463 -36.994)" fill="#fff"/>
              <path id="Trazado_603451" data-name="Trazado 603451" d="M99.835,32.917c0,5.488-4.449,12.506-9.937,15.674s-9.937,1.288-9.937-4.2S84.41,31.886,89.9,28.718s9.937-1.288,9.937,4.2" transform="translate(-46.05 -15.652)" fill="#fff"/>
              <path id="Trazado_603452" data-name="Trazado 603452" d="M41.975,78.387A6.369,6.369,0,0,1,38.9,83.231c-1.7.979-3.071.4-3.071-1.3A6.37,6.37,0,0,1,38.9,77.089c1.7-.979,3.071-.4,3.071,1.3" transform="translate(-20.637 -44.123)" fill="#256c93"/>
              <path id="Trazado_603453" data-name="Trazado 603453" d="M101.863,45.074c0,2.359-1.913,5.376-4.272,6.738s-4.271.554-4.271-1.805,1.912-5.376,4.271-6.738,4.272-.554,4.272,1.805" transform="translate(-53.743 -24.538)" fill="#3a8773"/>
              <rect id="Rectángulo_47316" data-name="Rectángulo 47316" width="3.126" height="35.217" transform="translate(82.817 13.467) rotate(-29.999)" fill="#154c8c"/>
              <path id="Trazado_603454" data-name="Trazado 603454" d="M193.064,35.008c0,7.94,5.575,17.6,12.451,21.566s12.451.752,12.451-7.188-5.574-17.6-12.451-21.566-12.451-.751-12.451,7.189" transform="translate(-111.188 -15.042)" fill="#592633"/>
              <g id="Grupo_161442" data-name="Grupo 161442" transform="translate(79.169 12.639)">
                <g id="Grupo_161441" data-name="Grupo 161441">
                  <g id="Grupo_161440" data-name="Grupo 161440" clip-path="url(#clip-path-6)">
                    <path id="Trazado_603455" data-name="Trazado 603455" d="M186.682,38.693c0-7.94,5.574-11.159,12.451-7.189s12.45,13.626,12.45,21.566-5.575,11.159-12.45,7.188-12.451-13.626-12.451-21.566" transform="translate(-186.682 -29.803)" fill="#833343"/>
                    <g id="Grupo_161436" data-name="Grupo 161436" transform="translate(3.205 4.138)">
                      <g id="Grupo_161435" data-name="Grupo 161435">
                        <g id="Grupo_161434" data-name="Grupo 161434" clip-path="url(#clip-path-7)">
                          <path id="Trazado_603456" data-name="Trazado 603456" d="M194.238,46.161c0-5.9,4.14-8.287,9.246-5.338s9.247,10.119,9.247,16.015-4.14,8.287-9.247,5.339-9.246-10.119-9.246-16.016" transform="translate(-194.238 -39.56)" fill="#fff"/>
                        </g>
                      </g>
                    </g>
                    <path id="Trazado_603457" data-name="Trazado 603457" d="M201.794,53.631c0-3.853,2.705-5.415,6.042-3.489a13.356,13.356,0,0,1,6.042,10.465c0,3.853-2.705,5.415-6.042,3.489a13.356,13.356,0,0,1-6.042-10.465" transform="translate(-195.385 -41.041)" fill="#833343"/>
                    <g id="Grupo_161439" data-name="Grupo 161439" transform="translate(9.614 12.414)">
                      <g id="Grupo_161438" data-name="Grupo 161438">
                        <g id="Grupo_161437" data-name="Grupo 161437" clip-path="url(#clip-path-8)">
                          <path id="Trazado_603458" data-name="Trazado 603458" d="M209.35,61.1c0-1.81,1.271-2.543,2.838-1.638a6.272,6.272,0,0,1,2.838,4.915c0,1.81-1.27,2.543-2.838,1.638A6.272,6.272,0,0,1,209.35,61.1" transform="translate(-209.35 -59.074)" fill="#ffb133"/>
                        </g>
                      </g>
                    </g>
                  </g>
                </g>
              </g>
              <path id="Trazado_603459" data-name="Trazado 603459" d="M177.5,88.337l-5.123,2.958c-.436.251-.721-.04-.53-.542l.908-2.384,7.127-4.115-.856,2.248a3.755,3.755,0,0,1-1.526,1.835" transform="translate(-98.933 -48.523)" fill="#ffb133"/>
              <path id="Trazado_603460" data-name="Trazado 603460" d="M170.372,78.633c-.349.229.031.979.521.685l19.33-11.16c.35-.237-.056-.933-.441-.732Z" transform="translate(-98.041 -38.811)" fill="#2d4057"/>
              <path id="Trazado_603461" data-name="Trazado 603461" d="M177.5,79.436l-5.123,2.958c-.436.251-.721.872-.53,1.153l.908,1.337,7.127-4.115-.856-1.26c-.285-.419-.877-.447-1.526-.073" transform="translate(-98.933 -45.597)" fill="#ffb133"/>
              <path id="Trazado_603462" data-name="Trazado 603462" d="M294.489,174.861V201.59l-4.856-2.8V172.058Z" transform="translate(-166.803 -99.09)" fill="#3a8773"/>
              <path id="Trazado_603463" data-name="Trazado 603463" d="M299.346,168.25l-4.856,2.8-4.857-2.8,4.857-2.8Z" transform="translate(-166.802 -95.282)" fill="#57bca4"/>
              <path id="Trazado_603464" data-name="Trazado 603464" d="M301.084,174.861V201.59l4.856-2.8V172.058Z" transform="translate(-173.398 -99.09)" fill="#91e8d6"/>
              <path id="Trazado_603465" data-name="Trazado 603465" d="M279.816,192.051v23.031l-4.856-2.8V189.248Z" transform="translate(-158.352 -108.99)" fill="#3a8773"/>
              <path id="Trazado_603466" data-name="Trazado 603466" d="M284.672,185.44l-4.856,2.8-4.857-2.8,4.857-2.8Z" transform="translate(-158.352 -105.182)" fill="#57bca4"/>
              <path id="Trazado_603467" data-name="Trazado 603467" d="M286.41,192.051v23.031l4.856-2.8V189.248Z" transform="translate(-164.947 -108.99)" fill="#91e8d6"/>
              <path id="Trazado_603468" data-name="Trazado 603468" d="M265.142,212.882v17.79l-4.856-2.8v-17.79Z" transform="translate(-149.901 -120.987)" fill="#3a8773"/>
              <path id="Trazado_603469" data-name="Trazado 603469" d="M270,206.271l-4.856,2.8-4.857-2.8,4.857-2.8Z" transform="translate(-149.901 -117.179)" fill="#57bca4"/>
              <path id="Trazado_603470" data-name="Trazado 603470" d="M271.737,212.882v17.79l4.856-2.8v-17.79Z" transform="translate(-156.496 -120.987)" fill="#91e8d6"/>
              <path id="Trazado_603471" data-name="Trazado 603471" d="M250.419,227.351v15.213l-4.856-2.8V224.547Z" transform="translate(-141.422 -129.319)" fill="#3a8773"/>
              <path id="Trazado_603472" data-name="Trazado 603472" d="M255.275,220.74l-4.857,2.8-4.856-2.8,4.856-2.8Z" transform="translate(-141.422 -125.512)" fill="#57bca4"/>
              <path id="Trazado_603473" data-name="Trazado 603473" d="M257.013,227.351v15.213l4.857-2.8V224.547Z" transform="translate(-148.017 -129.319)" fill="#91e8d6"/>
              <path id="Trazado_603474" data-name="Trazado 603474" d="M235.7,239.78v13.5l-4.856-2.8v-13.5Z" transform="translate(-132.943 -136.477)" fill="#3a8773"/>
              <path id="Trazado_603475" data-name="Trazado 603475" d="M240.551,233.169l-4.856,2.8-4.857-2.8,4.857-2.8Z" transform="translate(-132.942 -132.67)" fill="#57bca4"/>
              <path id="Trazado_603476" data-name="Trazado 603476" d="M242.29,239.78v13.5l4.856-2.8v-13.5Z" transform="translate(-139.537 -136.477)" fill="#91e8d6"/>
              <path id="Trazado_603477" data-name="Trazado 603477" d="M220.972,255.988v10.185l-4.856-2.8V253.184Z" transform="translate(-124.463 -145.811)" fill="#3a8773"/>
              <path id="Trazado_603478" data-name="Trazado 603478" d="M225.828,249.376l-4.857,2.8-4.856-2.8,4.856-2.8Z" transform="translate(-124.463 -142.004)" fill="#57bca4"/>
              <path id="Trazado_603479" data-name="Trazado 603479" d="M227.566,255.988v10.185l4.857-2.8V253.184Z" transform="translate(-131.058 -145.811)" fill="#91e8d6"/>
              <g id="Grupo_161481" data-name="Grupo 161481" transform="translate(89.564 56.193)">
                <g id="Grupo_161480" data-name="Grupo 161480">
                  <g id="Grupo_161479" data-name="Grupo 161479" clip-path="url(#clip-path-9)">
                    <g id="Grupo_161478" data-name="Grupo 161478" style="isolation: isolate">
                      <g id="Grupo_161477" data-name="Grupo 161477">
                        <g id="Grupo_161476" data-name="Grupo 161476" clip-path="url(#clip-path-9)">
                          <g id="Grupo_161445" data-name="Grupo 161445" transform="translate(32.937)">
                            <g id="Grupo_161444" data-name="Grupo 161444">
                              <g id="Grupo_161443" data-name="Grupo 161443" clip-path="url(#clip-path-11)">
                                <path id="Trazado_603480" data-name="Trazado 603480" d="M295.862,140.8l-6.383-3.721-.624-.663,6.053-3.915.623.662Z" transform="translate(-288.856 -132.503)" fill="#961f24"/>
                              </g>
                            </g>
                          </g>
                          <g id="Grupo_161448" data-name="Grupo 161448" transform="translate(32.937)">
                            <g id="Grupo_161447" data-name="Grupo 161447">
                              <g id="Grupo_161446" data-name="Grupo 161446" clip-path="url(#clip-path-11)">
                                <path id="Trazado_603481" data-name="Trazado 603481" d="M295.862,140.8l-6.383-3.721-.624-.663,6.053-3.915.623.662Z" transform="translate(-288.856 -132.503)" fill="#ab2137"/>
                              </g>
                            </g>
                          </g>
                          <g id="Grupo_161451" data-name="Grupo 161451" transform="translate(34.9 3.581)">
                            <g id="Grupo_161450" data-name="Grupo 161450">
                              <g id="Grupo_161449" data-name="Grupo 161449" clip-path="url(#clip-path-13)">
                                <path id="Trazado_603482" data-name="Trazado 603482" d="M297.025,143.005l-3.54-2.057.607.236,3.54,2.057Z" transform="translate(-293.485 -140.948)" fill="#961f24"/>
                              </g>
                            </g>
                          </g>
                          <g id="Grupo_161454" data-name="Grupo 161454" transform="translate(30.185 3.581)">
                            <g id="Grupo_161453" data-name="Grupo 161453">
                              <g id="Grupo_161452" data-name="Grupo 161452" clip-path="url(#clip-path-14)">
                                <path id="Trazado_603483" data-name="Trazado 603483" d="M285.906,152.226l-3.54-2.057,4.715-9.221,3.54,2.057Z" transform="translate(-282.366 -140.948)" fill="#ea2d4b"/>
                              </g>
                            </g>
                          </g>
                          <g id="Grupo_161457" data-name="Grupo 161457" transform="translate(16.236 19.32)">
                            <g id="Grupo_161456" data-name="Grupo 161456">
                              <g id="Grupo_161455" data-name="Grupo 161455" clip-path="url(#clip-path-15)">
                                <path id="Trazado_603484" data-name="Trazado 603484" d="M253.015,190.838l-3.54-2.057,5.99-10.722,3.54,2.057Z" transform="translate(-249.475 -178.06)" fill="#ea2d4b"/>
                              </g>
                            </g>
                          </g>
                          <g id="Grupo_161460" data-name="Grupo 161460" transform="translate(22.226 12.802)">
                            <g id="Grupo_161459" data-name="Grupo 161459">
                              <g id="Grupo_161458" data-name="Grupo 161458" clip-path="url(#clip-path-16)">
                                <path id="Trazado_603485" data-name="Trazado 603485" d="M267.14,171.265l-3.54-2.057,7.958-6.518,3.54,2.057Z" transform="translate(-263.6 -162.69)" fill="#ff4d53"/>
                              </g>
                            </g>
                          </g>
                          <g id="Grupo_161463" data-name="Grupo 161463" transform="translate(7.976 30.042)">
                            <g id="Grupo_161462" data-name="Grupo 161462">
                              <g id="Grupo_161461" data-name="Grupo 161461" clip-path="url(#clip-path-17)">
                                <path id="Trazado_603486" data-name="Trazado 603486" d="M233.539,210.713,230,208.655l8.26-5.314,3.54,2.057Z" transform="translate(-229.999 -203.341)" fill="#ff4d53"/>
                              </g>
                            </g>
                          </g>
                          <g id="Grupo_161466" data-name="Grupo 161466" transform="translate(0 35.356)">
                            <g id="Grupo_161465" data-name="Grupo 161465">
                              <g id="Grupo_161464" data-name="Grupo 161464" clip-path="url(#clip-path-18)">
                                <path id="Trazado_603487" data-name="Trazado 603487" d="M214.731,227.017l-3.54-2.057,7.976-9.087,3.54,2.057Z" transform="translate(-211.191 -215.872)" fill="#ea2d4b"/>
                              </g>
                            </g>
                          </g>
                          <g id="Grupo_161469" data-name="Grupo 161469" transform="translate(0 44.443)">
                            <g id="Grupo_161468" data-name="Grupo 161468">
                              <g id="Grupo_161467" data-name="Grupo 161467" clip-path="url(#clip-path-19)">
                                <path id="Trazado_603488" data-name="Trazado 603488" d="M215.081,239.974l-3.54-2.057-.349-.616,3.54,2.057Z" transform="translate(-211.191 -237.3)" fill="#961f24"/>
                              </g>
                            </g>
                          </g>
                          <g id="Grupo_161472" data-name="Grupo 161472" transform="translate(3.54 5.639)">
                            <g id="Grupo_161471" data-name="Grupo 161471">
                              <g id="Grupo_161470" data-name="Grupo 161470" clip-path="url(#clip-path-20)">
                                <path id="Trazado_603489" data-name="Trazado 603489" d="M254.438,145.8l.607.236-4.889,9.561-7.985,6.54-6.039,10.8-8.411,5.412-7.834,8.925-.35-.616,7.976-9.087,8.26-5.314,5.991-10.721,7.958-6.518Z" transform="translate(-219.538 -145.799)" fill="#ab2137"/>
                              </g>
                            </g>
                          </g>
                          <g id="Grupo_161475" data-name="Grupo 161475" transform="translate(32.937)">
                            <g id="Grupo_161474" data-name="Grupo 161474">
                              <g id="Grupo_161473" data-name="Grupo 161473" clip-path="url(#clip-path-21)">
                                <path id="Trazado_603490" data-name="Trazado 603490" d="M295.239,140.139l-6.383-3.721,6.053-3.916Z" transform="translate(-288.856 -132.503)" fill="#ea2d4b"/>
                              </g>
                            </g>
                          </g>
                        </g>
                      </g>
                    </g>
                  </g>
                </g>
              </g>
            </g>
          </g>
        </g>
      </g>
    </g>
  </g>
</svg>
