<svg xmlns="http://www.w3.org/2000/svg" xmlns:xlink="http://www.w3.org/1999/xlink" width="1030" height="354.001" viewBox="0 0 1030 354.001">
  <defs>
    <linearGradient id="linear-gradient" x1="0.5" y1="-0.152" x2="0.5" y2="1" gradientUnits="objectBoundingBox">
      <stop offset="0" stop-color="#f6efe9"/>
      <stop offset="1" stop-color="#fff"/>
    </linearGradient>
    <clipPath id="clip-path">
      <path id="Trazado_601776" data-name="Trazado 601776" d="M17,0h996c9.389,0,17,6.646,17,14.844V338.793c0,8.2-7.611,14.844-17,14.844H17c-9.389,0-17-6.646-17-14.844V14.844C0,6.646,7.611,0,17,0Z" fill="#dcc0a8"/>
    </clipPath>
    <linearGradient id="linear-gradient-2" x1="0.5" x2="0.5" y2="1" gradientUnits="objectBoundingBox">
      <stop offset="0" stop-color="#91e8d6"/>
      <stop offset="1" stop-color="#56ab99"/>
    </linearGradient>
    <clipPath id="clip-path-2">
      <rect id="Rectángulo_46628" data-name="Rectángulo 46628" width="26.731" height="35" fill="#395e56"/>
    </clipPath>
    <clipPath id="clip-path-3">
      <rect id="Rectángulo_46771" data-name="Rectángulo 46771" width="151.779" height="151.78" fill="#91e8d6"/>
    </clipPath>
  </defs>
  <g id="Grupo_160828" data-name="Grupo 160828" transform="translate(-285 -10318)">
    <rect id="Rectángulo_46770" data-name="Rectángulo 46770" width="1030" height="354" transform="translate(1315 10672) rotate(180)" fill="url(#linear-gradient)"/>
    <g id="Enmascarar_grupo_69" data-name="Enmascarar grupo 69" transform="translate(285 10318.364)" clip-path="url(#clip-path)">
      <path id="Trazado_601775" data-name="Trazado 601775" d="M1842.37,0V16.055h-7.909V36.3h-21.969V60.73h-13.184v61.426L1773.827,142.4v33.157h-15.38V143.448L1714.067,108.2V67.71h-20.209V58.636h-31.639v6.98h-19.332v78.879h-22.849V117.271h-15.818l-27.243,21.638v26.527h-16.7V48.863l-52.729,41.881h-21.968V74.69h-14.059V91.444h-24.607v46.069h-18.454V99.121h-28.121v20.941h-36.03v9.773h-15.818v9.773h-23.726v32.108h-14.062V89.35l-87.878-11.869v9.076h-10.545v120.76h-16.7V138.212h-16.7v32.111h-13.181V214.3h-13.184V143.8H1116.5v-6.98H1077.94V170.93l-21.2-16.838h-34.934l-19.551,15.531V83.764H961.83v64.219H947.987v43.454l-18.232,14.484V147.635l-24.167-19.2L880.1,148.682v70.5H858.134V181.49H833.527v27.921H822.1V159.852H811.118v28.271l-27.684-21.99V145.192h14.94v-6.107H697.534l-20.872,16.577v23.384L652.5,159.852H630.527v-9.424H594.057l-10.983,8.724v24.433H569.893v-34.9l-29.88-23.734V37.7H446.862V182.187H432.8V166.83l-12.3-9.771V144.495H411.71v11.167H401.6V123.9l-17.136-13.611V89.35H362.5v19.544H351.075V90.047H338.331v19.894l-19.769,15.707H303.619v11.864h-8.787v79.578H277.256V141.7l-12.3-9.771V80.973h-8.787v50.958l-9.667,7.677V214.3H218.377V78.88l-21.09-16.756V30.015H133.135V57.239h-21.09V78.18h-29v91.1H73.16V130.009l-25.707,20.42h-14.5v91.093H10.545V161.946H0V296.292H2045.81v-186.7H1994.4v88.652h-21.091V169.623l-34.272,27.224V169.623h-21.093V63.523h-49.209V16.055h-17.579V0Z" transform="translate(-445 84.697)" fill="#dcc0a8" opacity="0.15"/>
    </g>
    <path id="Trazado_601777" data-name="Trazado 601777" d="M8.785,76.736S-4.94,62.607,1.922,46.055,49.962-1.176,144.829.035,267.55,23.045,282.89,41.615s0,29.469-12.918,48.846-93.531,175.7-93.531,175.7-5.482,10.351-35.523,10.092S106.6,266.16,106.6,266.16Z" transform="translate(594 10640.653) rotate(-90)" fill="#91e8d6"/>
    <ellipse id="Elipse_5620" data-name="Elipse 5620" cx="134.488" cy="48.802" rx="134.488" ry="48.802" transform="translate(601.681 10628.628) rotate(-90)" fill="url(#linear-gradient-2)"/>
    <rect id="Rectángulo_46819" data-name="Rectángulo 46819" width="254" height="54" rx="16" transform="translate(390 10550)" fill="#144567"/>
    <rect id="Rectángulo_46820" data-name="Rectángulo 46820" width="254" height="54" rx="16" transform="translate(435 10469)" fill="#1e3e54"/>
    <rect id="Rectángulo_46821" data-name="Rectángulo 46821" width="222" height="66" rx="16" transform="translate(976 10554)" fill="#4a4a4a"/>
    <rect id="Rectángulo_46822" data-name="Rectángulo 46822" width="254" height="54" rx="16" transform="translate(390 10387)" fill="#144567"/>
    <text id="Evaluación_del_desempeño" data-name="Evaluación del desempeño" transform="translate(415 10567)" fill="#fff" font-size="17" font-family="Roboto-Medium, Roboto" font-weight="500"><tspan x="0" y="16">Evaluación del desempeño</tspan></text>
    <text id="Enfoque_alta_dirección_" data-name="Enfoque alta dirección " transform="translate(476 10486)" fill="#fff" font-size="17" font-family="Roboto-Medium, Roboto" font-weight="500"><tspan x="0" y="16">Enfoque alta dirección </tspan></text>
    <text id="Operación" transform="translate(477 10404)" fill="#fff" font-size="17" font-family="Roboto-Medium, Roboto" font-weight="500"><tspan x="0" y="16">Operación</tspan></text>
    <g id="Grupo_160826" data-name="Grupo 160826" transform="translate(284 10483)">
      <g id="Grupo_160577" data-name="Grupo 160577" transform="translate(653.269)">
        <g id="Grupo_160577-2" data-name="Grupo 160577" clip-path="url(#clip-path-2)">
          <path id="Trazado_600822" data-name="Trazado 600822" d="M15.325,35a2.615,2.615,0,0,1-1.849-4.464L26.511,17.5,13.475,4.464a2.615,2.615,0,1,1,3.7-3.7L32.058,15.651a2.615,2.615,0,0,1,0,3.7L17.174,34.234A2.611,2.611,0,0,1,15.325,35" transform="translate(-6.094 0)" fill="#395e56"/>
        </g>
      </g>
      <rect id="Rectángulo_46640" data-name="Rectángulo 46640" width="58.269" height="5" rx="2.5" transform="translate(606 15)" fill="#395e56"/>
      <path id="Trazado_600828" data-name="Trazado 600828" d="M14.562,24.8a1.853,1.853,0,0,1-1.31-3.163L22.488,12.4,13.252,3.163a1.853,1.853,0,0,1,2.62-2.62L26.418,11.089a1.853,1.853,0,0,1,0,2.62L15.872,24.255a1.85,1.85,0,0,1-1.31.543" transform="translate(640.56 5)" fill="#395e56"/>
    </g>
    <text id="Servicio_al_Cliente" data-name="Servicio al Cliente" transform="translate(1018 10565)" fill="#fff" font-size="17" font-family="Roboto-Medium, Roboto" font-weight="500"><tspan x="0" y="16">Servicio al Cliente</tspan></text>
    <text id="ISO_9001:2015" data-name="ISO 9001:2015" transform="translate(1029 10587)" fill="#fff" font-size="17" font-family="Roboto-Medium, Roboto" font-weight="500"><tspan x="0" y="16">ISO 9001:2015</tspan></text>
    <g id="Grupo_160827" data-name="Grupo 160827" transform="translate(1011.517 10387)">
      <g id="Grupo_160683" data-name="Grupo 160683" clip-path="url(#clip-path-3)">
        <path id="Trazado_600927" data-name="Trazado 600927" d="M151.78,75.895a75.683,75.683,0,0,1-27.44,58.4c-1.672,1.4-3.4,2.71-5.189,3.954a74.8,74.8,0,0,1-6.616,4.12q-2.042,1.12-4.169,2.129a75.45,75.45,0,0,1-28.139,7.17h-.078c-.806.038-1.6.067-2.408.086-.71.019-1.42.029-2.137.029a75.442,75.442,0,0,1-30.977-6.724c-1.8-.805-3.555-1.689-5.265-2.632q-2.888-1.589-5.6-3.41a74.151,74.151,0,0,1-6.222-4.635A75.887,75.887,0,1,1,151.78,75.895" transform="translate(0)" fill="#91e8d6"/>
        <path id="Trazado_600928" data-name="Trazado 600928" d="M122.35,126.934q-2.508,2.1-5.189,3.954a74.8,74.8,0,0,1-6.616,4.12q-2.042,1.122-4.169,2.129a75.45,75.45,0,0,1-28.139,7.17h-.078c-.806.038-1.6.068-2.408.086-.71.019-1.421.03-2.139.03A75.459,75.459,0,0,1,42.636,137.7c-1.8-.805-3.555-1.689-5.265-2.632q-2.888-1.588-5.6-3.41a73.976,73.976,0,0,1-6.222-4.635c2.079-11.329,4.8-23.834,6.782-24.175.517-.087,1.478-.32,2.731-.661.5-.135,1.058-.281,1.652-.446,3.681-1.01,8.909-2.545,13.6-3.945.407-.126.806-.243,1.2-.36,2.419-.729,4.636-1.4,6.354-1.914L61.33,94.47H86.564s.874.262,2.3.7c1.6.486,3.9,1.186,6.51,1.963h.01c.582.175,1.176.349,1.787.535,5.539,1.652,11.932,3.527,15.664,4.517.321.088.622.166.884.234.223.059.428.107.622.155.049.009.1.03.146.039.234.047.428.1.612.146s.341.069.467.087a.928.928,0,0,1,.524.35,2.861,2.861,0,0,1,.37.515,7.039,7.039,0,0,1,.572,1.137c.137.3.264.632.39.991q.1.264.2.553c.126.389.262.8.407,1.235.2.65.4,1.35.6,2.108.136.5.281,1.009.406,1.554.282,1.069.555,2.215.827,3.41.146.592.272,1.205.407,1.817s.273,1.252.41,1.884.252,1.284.387,1.924c.447,2.187.876,4.421,1.274,6.608" transform="translate(1.99 7.358)" fill="#005894"/>
        <path id="Trazado_600929" data-name="Trazado 600929" d="M94.237,51.006c0,18.237-8.333,22.614-21.087,22.614S50.058,66.723,50.058,51.4c0-15.6,10.338-22.223,23.093-22.223,11.4,0,21.087,7.985,21.087,21.83" transform="translate(3.899 2.272)"/>
        <path id="Trazado_600930" data-name="Trazado 600930" d="M60.811,81.283v23.1s9.319,14.757,10.446,14.757c1.539,0,10.445-14.284,10.445-14.284V76.742Z" transform="translate(4.736 5.977)" fill="#d69962"/>
        <path id="Trazado_600931" data-name="Trazado 600931" d="M89.81,64.3c0,15.506-8.063,28.077-18.007,28.077S53.8,79.806,53.8,64.3,61.856,36.222,71.8,36.222,89.81,48.792,89.81,64.3" transform="translate(4.19 2.821)" fill="#eeae77"/>
        <path id="Trazado_600932" data-name="Trazado 600932" d="M56.728,64.153c.52,5.033-.905,9.3-3.183,9.539S49,70.037,48.48,65s.905-9.3,3.182-9.54,4.547,3.655,5.066,8.689" transform="translate(3.767 4.319)"/>
        <path id="Trazado_600933" data-name="Trazado 600933" d="M85.155,64.153c-.52,5.033.905,9.3,3.184,9.539S92.885,70.037,93.4,65s-.905-9.3-3.183-9.54-4.547,3.655-5.066,8.689" transform="translate(6.624 4.319)"/>
        <path id="Trazado_600934" data-name="Trazado 600934" d="M37.623,118.564c0,1.613,0,3.274-.019,4.956-.019,3.595-.058,7.3-.233,10.988q-2.888-1.588-5.6-3.41a73.769,73.769,0,0,1-6.219-4.635c2.078-11.329,4.8-23.834,6.782-24.175.515-.087,1.478-.319,2.73-.661.233.583.447,1.2.65,1.846a50.65,50.65,0,0,1,1.906,15.09" transform="translate(1.99 7.915)" fill="#0069b0"/>
        <path id="Trazado_600935" data-name="Trazado 600935" d="M116.227,126.376q-2.508,2.1-5.189,3.954a74.8,74.8,0,0,1-6.616,4.12c-.244-5.383-.244-10.843-.244-15.886,0-7.355.932-12.874,2.536-16.937.321.088.622.166.884.234.223.059.428.107.622.155.049.009.1.03.146.039.234.047.428.1.612.146s.341.069.467.087a.928.928,0,0,1,.524.35,2.861,2.861,0,0,1,.37.515,7.038,7.038,0,0,1,.572,1.137c.137.3.264.632.39.991q.1.264.2.553c.136.389.272.8.407,1.235.2.65.4,1.35.6,2.108.144.5.281,1.009.406,1.554.282,1.069.555,2.215.827,3.41.146.592.272,1.205.407,1.817s.273,1.252.41,1.884.252,1.284.387,1.924c.447,2.187.876,4.421,1.274,6.608" transform="translate(8.114 7.915)" fill="#0069b0"/>
        <path id="Trazado_600936" data-name="Trazado 600936" d="M88.387,70.409S86.136,80.829,73.1,81.421" transform="translate(5.693 5.484)" fill="none" stroke="#000" stroke-miterlimit="10" stroke-width="2"/>
        <path id="Trazado_600937" data-name="Trazado 600937" d="M74.788,80.026c0,1.1-1.194,1.985-2.667,1.985s-2.665-.888-2.665-1.985,1.192-1.983,2.665-1.983,2.667.888,2.667,1.983" transform="translate(5.409 6.078)"/>
        <path id="Trazado_600938" data-name="Trazado 600938" d="M52.935,57.753S49.97,41.222,58.3,36s12.945-3.28,12.945-3.28,21.062-3.068,20.571,17.609c0,.068,0,.136,0,.2V57.18l-2.378,2.68s-2.224-14.089-5.867-14.987-10.949,1.37-18.238.4-7.572,1.558-8.819,4.747a38.054,38.054,0,0,0-2.278,9.143Z" transform="translate(4.083 2.521)" fill="#8c6756"/>
        <path id="Trazado_600939" data-name="Trazado 600939" d="M91.327,96.633c-5.753,15.236-19.569,23.387-19.569,23.387C59.856,113.8,53.85,98.5,53.073,96.4c-.058-.155-.087-.241-.087-.241l2.565-.506.2-.04,5.394-1.069,5.091-1.009L68.2,94.543l3.556,1.838,4-1.838,2.1-.96,4.246.96,6.782,1.536,2.391.543c.019,0,.029.011.049.011" transform="translate(4.127 7.285)" fill="#b0d3dc"/>
        <path id="Trazado_600940" data-name="Trazado 600940" d="M91.321,96.56c-2.97,22.887-19.569,44.757-19.569,44.757C59.85,135.1,53.844,98.425,53.067,96.326c.9-.272,1.73-.524,2.478-.747.068-.02.126-.04.194-.059l3.448-1.05H68.8l2.867,1.478,3.225-1.478h9.532s.874.263,2.3.7c1.186.36,2.75.835,4.548,1.379.019,0,.029.011.049.011" transform="translate(4.133 7.358)" fill="#b0d3dc"/>
        <path id="Trazado_600941" data-name="Trazado 600941" d="M58.427,40.783s6.467,14.568,30.315,10.046c0,0,.488-11.728-13.094-13.851s-17.221,3.4-17.221,3.4" transform="translate(4.55 2.842)" fill="#8c6756"/>
        <path id="Trazado_600942" data-name="Trazado 600942" d="M72.275,141.278l-16.242-46.3-9.69,2.659,9.79,15.71L52.9,114.42l16.169,29.9,3.314.067Z" transform="translate(3.609 7.397)" fill="#0069b0"/>
        <path id="Trazado_600943" data-name="Trazado 600943" d="M70.373,141.278l16.415-46.3L96.3,97.632l-9.79,15.71,3.234,1.078-16.169,29.9-3.314.067Z" transform="translate(5.472 7.397)" fill="#0069b0"/>
        <path id="Trazado_600944" data-name="Trazado 600944" d="M64.677,97.889l3.953,7.995L66.91,130.051l3.9,11.224,4.07-11.479L71.953,105.7l3.209-7.455-3.916-3.236Z" transform="translate(5.037 7.4)" fill="#833343"/>
        <path id="Trazado_600945" data-name="Trazado 600945" d="M85.371,96.445l-.091.127-6.642,8.822-8.462-9.542,6.151-3.679,4.755-3.016Z" transform="translate(5.465 6.944)" fill="#fff"/>
        <path id="Trazado_600946" data-name="Trazado 600946" d="M71.853,95.936l-9.485,9.234-5.48-9.687-.011-.015L60.72,88.83l4.916,3.139Z" transform="translate(4.43 6.918)" fill="#fff"/>
        <path id="Trazado_600947" data-name="Trazado 600947" d="M54.364,64.113c.447,4.323-.148,8.037-2.632,8.294s-5.927-3.041-6.374-7.365,2.161-8.038,4.648-8.3,3.913,3.042,4.358,7.366" transform="translate(3.529 4.418)" fill="#333"/>
        <path id="Trazado_600948" data-name="Trazado 600948" d="M87.572,64.113c-.446,4.323.147,8.037,2.633,8.294s5.926-3.041,6.372-7.365S94.416,57,91.93,56.747s-3.911,3.042-4.358,7.366" transform="translate(6.81 4.418)" fill="#333"/>
      </g>
    </g>
  </g>
</svg>
