<svg xmlns="http://www.w3.org/2000/svg" xmlns:xlink="http://www.w3.org/1999/xlink" width="1030" height="328" viewBox="0 0 1030 328">
  <defs>
    <clipPath id="clip-path">
      <rect id="Rectángulo_46628" data-name="Rectángulo 46628" width="16.576" height="23.916" fill="#833343"/>
    </clipPath>
    <clipPath id="clip-path-3">
      <rect id="Rectángulo_46628-3" data-name="Rectángulo 46628" width="16.576" height="23.916" fill="#144567"/>
    </clipPath>
    <clipPath id="clip-path-4">
      <rect id="Rectángulo_46628-4" data-name="Rectángulo 46628" width="16.576" height="23.916" fill="#395e56"/>
    </clipPath>
    <clipPath id="clip-path-7">
      <rect id="Rectángulo_47199" data-name="Rectángulo 47199" width="104.532" height="104.527" fill="#144567"/>
    </clipPath>
  </defs>
  <g id="Grupo_161255" data-name="Grupo 161255" transform="translate(-285 -3258)">
    <rect id="Rectángulo_46664" data-name="Rectángulo 46664" width="268" height="87" transform="translate(285 3258)" fill="#f6efe9"/>
    <rect id="Rectángulo_47151" data-name="Rectángulo 47151" width="268" height="87" transform="translate(285 3497)" fill="#e2e8ec"/>
    <rect id="Rectángulo_47149" data-name="Rectángulo 47149" width="268" height="87" transform="translate(666 3259)" fill="#e2e8ec"/>
    <rect id="Rectángulo_47152" data-name="Rectángulo 47152" width="268" height="87" transform="translate(666 3498)" fill="#def8f3"/>
    <rect id="Rectángulo_47150" data-name="Rectángulo 47150" width="268" height="87" transform="translate(1047 3260)" fill="#def8f3"/>
    <rect id="Rectángulo_47153" data-name="Rectángulo 47153" width="268" height="87" transform="translate(1047 3499)" fill="#f6efe9"/>
    <g id="Grupo_160599" data-name="Grupo 160599" transform="translate(570.859 3313.458) rotate(-90)">
      <g id="Grupo_160582" data-name="Grupo 160582" transform="translate(0 0)">
        <g id="Grupo_160578" data-name="Grupo 160578" transform="translate(23.916 60.56) rotate(90)">
          <g id="Grupo_160577" data-name="Grupo 160577" transform="translate(0)" clip-path="url(#clip-path)">
            <path id="Trazado_600822" data-name="Trazado 600822" d="M1.622,23.916a1.544,1.544,0,0,1-1.147-.523,1.918,1.918,0,0,1,0-2.527l8.084-8.908L.475,3.05a1.918,1.918,0,0,1,0-2.527,1.518,1.518,0,0,1,2.293,0L12,10.695a1.918,1.918,0,0,1,0,2.527L2.768,23.393a1.546,1.546,0,0,1-1.147.523" transform="translate(4.103 0)" fill="#833343"/>
          </g>
        </g>
        <rect id="Rectángulo_46641" data-name="Rectángulo 46641" width="67.382" height="3.417" rx="1.708" transform="translate(13.667 0) rotate(90)" fill="#833343"/>
      </g>
      <path id="Trazado_600829" data-name="Trazado 600829" d="M1.149,16.944a1.094,1.094,0,0,1-.812-.371,1.359,1.359,0,0,1,0-1.791L6.064,8.472.337,2.161a1.359,1.359,0,0,1,0-1.79,1.076,1.076,0,0,1,1.625,0L8.5,7.577a1.359,1.359,0,0,1,0,1.79L1.961,16.574a1.1,1.1,0,0,1-.812.371" transform="translate(20.5 60.561) rotate(90)" fill="#833343"/>
    </g>
    <g id="Grupo_161208" data-name="Grupo 161208" transform="translate(1029.141 3533) rotate(90)">
      <g id="Grupo_160582-2" data-name="Grupo 160582" transform="translate(0 0)">
        <g id="Grupo_160578-2" data-name="Grupo 160578" transform="translate(23.916 60.56) rotate(90)">
          <g id="Grupo_160577-2" data-name="Grupo 160577" transform="translate(0)" clip-path="url(#clip-path)">
            <path id="Trazado_600822-2" data-name="Trazado 600822" d="M1.622,23.916a1.544,1.544,0,0,1-1.147-.523,1.918,1.918,0,0,1,0-2.527l8.084-8.908L.475,3.05a1.918,1.918,0,0,1,0-2.527,1.518,1.518,0,0,1,2.293,0L12,10.695a1.918,1.918,0,0,1,0,2.527L2.768,23.393a1.546,1.546,0,0,1-1.147.523" transform="translate(4.103 0)" fill="#833343"/>
          </g>
        </g>
        <rect id="Rectángulo_46641-2" data-name="Rectángulo 46641" width="67.382" height="3.417" rx="1.708" transform="translate(13.667 0) rotate(90)" fill="#833343"/>
      </g>
      <path id="Trazado_600829-2" data-name="Trazado 600829" d="M1.149,16.944a1.094,1.094,0,0,1-.812-.371,1.359,1.359,0,0,1,0-1.791L6.064,8.472.337,2.161a1.359,1.359,0,0,1,0-1.79,1.076,1.076,0,0,1,1.625,0L8.5,7.577a1.359,1.359,0,0,1,0,1.79L1.961,16.574a1.1,1.1,0,0,1-.812.371" transform="translate(20.5 60.561) rotate(90)" fill="#833343"/>
    </g>
    <g id="Grupo_161206" data-name="Grupo 161206" transform="translate(952.004 3313.458) rotate(-90)">
      <g id="Grupo_160582-3" data-name="Grupo 160582" transform="translate(0 0)">
        <g id="Grupo_160578-3" data-name="Grupo 160578" transform="translate(23.916 60.56) rotate(90)">
          <g id="Grupo_160577-3" data-name="Grupo 160577" transform="translate(0)" clip-path="url(#clip-path-3)">
            <path id="Trazado_600822-3" data-name="Trazado 600822" d="M1.622,23.916a1.544,1.544,0,0,1-1.147-.523,1.918,1.918,0,0,1,0-2.527l8.084-8.908L.475,3.05a1.918,1.918,0,0,1,0-2.527,1.518,1.518,0,0,1,2.293,0L12,10.695a1.918,1.918,0,0,1,0,2.527L2.768,23.393a1.546,1.546,0,0,1-1.147.523" transform="translate(4.103 0)" fill="#144567"/>
          </g>
        </g>
        <rect id="Rectángulo_46641-3" data-name="Rectángulo 46641" width="67.382" height="3.417" rx="1.708" transform="translate(13.667 0) rotate(90)" fill="#144567"/>
      </g>
      <path id="Trazado_600829-3" data-name="Trazado 600829" d="M1.149,16.944a1.094,1.094,0,0,1-.812-.371,1.359,1.359,0,0,1,0-1.791L6.064,8.472.337,2.161a1.359,1.359,0,0,1,0-1.79,1.076,1.076,0,0,1,1.625,0L8.5,7.577a1.359,1.359,0,0,1,0,1.79L1.961,16.574a1.1,1.1,0,0,1-.812.371" transform="translate(20.5 60.561) rotate(90)" fill="#144567"/>
    </g>
    <g id="Grupo_161209" data-name="Grupo 161209" transform="translate(647.996 3533) rotate(90)">
      <g id="Grupo_160582-4" data-name="Grupo 160582" transform="translate(0 0)">
        <g id="Grupo_160578-4" data-name="Grupo 160578" transform="translate(23.916 60.56) rotate(90)">
          <g id="Grupo_160577-4" data-name="Grupo 160577" transform="translate(0)" clip-path="url(#clip-path-4)">
            <path id="Trazado_600822-4" data-name="Trazado 600822" d="M1.622,23.916a1.544,1.544,0,0,1-1.147-.523,1.918,1.918,0,0,1,0-2.527l8.084-8.908L.475,3.05a1.918,1.918,0,0,1,0-2.527,1.518,1.518,0,0,1,2.293,0L12,10.695a1.918,1.918,0,0,1,0,2.527L2.768,23.393a1.546,1.546,0,0,1-1.147.523" transform="translate(4.103 0)" fill="#395e56"/>
          </g>
        </g>
        <rect id="Rectángulo_46641-4" data-name="Rectángulo 46641" width="67.382" height="3.417" rx="1.708" transform="translate(13.667 0) rotate(90)" fill="#395e56"/>
      </g>
      <path id="Trazado_600829-4" data-name="Trazado 600829" d="M1.149,16.944a1.094,1.094,0,0,1-.812-.371,1.359,1.359,0,0,1,0-1.791L6.064,8.472.337,2.161a1.359,1.359,0,0,1,0-1.79,1.076,1.076,0,0,1,1.625,0L8.5,7.577a1.359,1.359,0,0,1,0,1.79L1.961,16.574a1.1,1.1,0,0,1-.812.371" transform="translate(20.5 60.561) rotate(90)" fill="#395e56"/>
    </g>
    <g id="Grupo_161207" data-name="Grupo 161207" transform="translate(1165.042 3358.932)">
      <g id="Grupo_160582-5" data-name="Grupo 160582" transform="translate(0 0)">
        <g id="Grupo_160578-5" data-name="Grupo 160578" transform="translate(23.916 102.455) rotate(90)">
          <g id="Grupo_160577-5" data-name="Grupo 160577" transform="translate(0)" clip-path="url(#clip-path-4)">
            <path id="Trazado_600822-5" data-name="Trazado 600822" d="M1.622,23.916a1.544,1.544,0,0,1-1.147-.523,1.918,1.918,0,0,1,0-2.527l8.084-8.908L.475,3.05a1.918,1.918,0,0,1,0-2.527,1.518,1.518,0,0,1,2.293,0L12,10.695a1.918,1.918,0,0,1,0,2.527L2.768,23.393a1.546,1.546,0,0,1-1.147.523" transform="translate(4.103 0)" fill="#395e56"/>
          </g>
        </g>
        <rect id="Rectángulo_46641-5" data-name="Rectángulo 46641" width="109.276" height="3.417" rx="1.708" transform="translate(13.667) rotate(90)" fill="#395e56"/>
      </g>
      <path id="Trazado_600829-5" data-name="Trazado 600829" d="M1.149,16.944a1.094,1.094,0,0,1-.812-.371,1.359,1.359,0,0,1,0-1.791L6.064,8.472.337,2.161a1.359,1.359,0,0,1,0-1.79,1.076,1.076,0,0,1,1.625,0L8.5,7.577a1.359,1.359,0,0,1,0,1.79L1.961,16.574a1.1,1.1,0,0,1-.812.371" transform="translate(20.5 102.455) rotate(90)" fill="#395e56"/>
    </g>
    <g id="Grupo_161210" data-name="Grupo 161210" transform="translate(431.458 3477.962) rotate(180)">
      <g id="Grupo_160582-6" data-name="Grupo 160582" transform="translate(0 0)">
        <g id="Grupo_160578-6" data-name="Grupo 160578" transform="translate(23.916 102.454) rotate(90)">
          <g id="Grupo_160577-6" data-name="Grupo 160577" transform="translate(0)" clip-path="url(#clip-path-3)">
            <path id="Trazado_600822-6" data-name="Trazado 600822" d="M1.622,23.916a1.544,1.544,0,0,1-1.147-.523,1.918,1.918,0,0,1,0-2.527l8.084-8.908L.475,3.05a1.918,1.918,0,0,1,0-2.527,1.518,1.518,0,0,1,2.293,0L12,10.695a1.918,1.918,0,0,1,0,2.527L2.768,23.393a1.546,1.546,0,0,1-1.147.523" transform="translate(4.103 0)" fill="#144567"/>
          </g>
        </g>
        <rect id="Rectángulo_46641-6" data-name="Rectángulo 46641" width="109.276" height="3.417" rx="1.708" transform="translate(13.667 0) rotate(90)" fill="#144567"/>
      </g>
      <path id="Trazado_600829-6" data-name="Trazado 600829" d="M1.149,16.944a1.094,1.094,0,0,1-.812-.371,1.359,1.359,0,0,1,0-1.791L6.064,8.472.337,2.161a1.359,1.359,0,0,1,0-1.79,1.076,1.076,0,0,1,1.625,0L8.5,7.577a1.359,1.359,0,0,1,0,1.79L1.961,16.574a1.1,1.1,0,0,1-.812.371" transform="translate(20.5 102.455) rotate(90)" fill="#144567"/>
    </g>
    <text id="Retroalimentación" transform="translate(348 3292)" fill="#12263f" font-size="17" font-family="Roboto-Medium, Roboto" font-weight="500"><tspan x="0" y="16">Retroalimentación</tspan></text>
    <text id="Satisfacción_del_cliente" data-name="Satisfacción del cliente" transform="translate(711 3293)" fill="#12263f" font-size="17" font-family="Roboto-Medium, Roboto" font-weight="500"><tspan x="0" y="16">Satisfacción del cliente</tspan></text>
    <text id="Quejas" transform="translate(1153 3294)" fill="#12263f" font-size="17" font-family="Roboto-Medium, Roboto" font-weight="500"><tspan x="0" y="16">Quejas</tspan></text>
    <text id="Servicio_al_cliente" data-name="Servicio al cliente" transform="translate(1110 3533)" fill="#12263f" font-size="17" font-family="Roboto-Medium, Roboto" font-weight="500"><tspan x="0" y="16">Servicio al cliente</tspan></text>
    <text id="Código_de_conducta_de_la_satisfacción_del_cliente" data-name="Código de conducta de la satisfacción del cliente" transform="translate(695 3520)" fill="#12263f" font-size="17" font-family="Roboto-Medium, Roboto" font-weight="500"><tspan x="0" y="16">Código de conducta de la </tspan><tspan x="0" y="40">satisfacción del cliente</tspan></text>
    <text id="Conflicto" transform="translate(380 3531)" fill="#12263f" font-size="17" font-family="Roboto-Medium, Roboto" font-weight="500"><tspan x="0" y="16">Conflicto</tspan></text>
    <g id="Grupo_161253" data-name="Grupo 161253" transform="translate(748 3366.184)">
      <g id="Grupo_161252" data-name="Grupo 161252" clip-path="url(#clip-path-7)">
        <path id="Trazado_603140" data-name="Trazado 603140" d="M35.481,76.538c-3.73,3.909-7.986,5.241-13.142,3.851.034.413.049.774.094,1.132.306,2.438.648,4.871.92,7.313a4.859,4.859,0,0,1-5.064,5.609q-6.585.021-13.17,0A4.91,4.91,0,0,1,.062,88.632q1.56-12.167,3.07-24.341c.288-2.305,1.2-3.265,3.556-3.628V59.029c-2.116.137-4.112-.084-5.544-1.865A4.99,4.99,0,0,1,0,53.746c.119-3.06,2.159-4.57,6.327-4.863.657-.986,1.05-2.08,1.828-2.605a7.65,7.65,0,0,1,2.972-.72,10.485,10.485,0,0,1,1.683-.016c2.489,0,3.553.853,4.126,3.345,5.838.115,8.079,4.1,9.338,8.936,1.326-2.089,2.484-4.222,3.941-6.125a12.049,12.049,0,0,1,6.1-3.894,20.418,20.418,0,0,1-4.966-8.58,27.447,27.447,0,0,1-.965-6.1c-.137-4.914-.077-9.835-.039-14.752A18.517,18.517,0,0,1,48.695.025a86.7,86.7,0,0,1,9.572.225A18.22,18.22,0,0,1,73.951,15.983a88.388,88.388,0,0,1,.222,9.047c0,3.4.072,6.821-.176,10.211a20.216,20.216,0,0,1-5.235,11.94c-.158.182-.3.376-.505.631a12.168,12.168,0,0,1,6.07,3.905c1.435,1.88,2.58,3.982,3.883,6.036.278-.758.615-1.6.9-2.467,1.347-4.061,4.151-6.2,8.158-6.4.649-.979,1.037-2.088,1.817-2.6a8.22,8.22,0,0,1,3.076-.727,9.67,9.67,0,0,1,1.578-.015c2.5,0,3.572.86,4.131,3.372,2.027-.121,4,.056,5.441,1.783a4.994,4.994,0,0,1,1.216,3.391c-.057,3.105-2.069,4.631-6.665,5.009v1.509c2.575.6,3.222,1.288,3.558,3.923q1.552,12.168,3.066,24.34a4.849,4.849,0,0,1-5,5.574q-6.638.028-13.276,0A4.9,4.9,0,0,1,81.2,88.6q.491-3.705.952-7.415a5.888,5.888,0,0,0,0-.726c-6.268.955-7.221.683-13.118-3.782-.318,1.845-.484,3.661-.965,5.39-.629,2.262-.073,3.763,1.724,5.412a35.958,35.958,0,0,1,9.959,16.705,2.284,2.284,0,0,1,.043.345H24.571c.792-2.053,1.47-4.06,2.33-5.986a36.175,36.175,0,0,1,9.351-12.578,1.521,1.521,0,0,0,.556-1.636c-.458-2.507-.861-5.025-1.327-7.788M60.7,49.32c0,1.14.012,2.016,0,2.892a5.053,5.053,0,0,1-5.153,5.13c-1.791.021-3.588.09-5.372-.025a2.629,2.629,0,0,0-2.7,1.371c3.206,2.556,3.915,5.72,2.178,9.468.3.178.564.337.83.493a6.72,6.72,0,0,1,3.2,7.766,41.808,41.808,0,0,1-2.134,4.831c-6.766-1.2-9.247-6.058-6.835-11.087-4.427-3.047-4.892-4.591-3.16-10.6a10.436,10.436,0,0,1-4.508-8.372c-5.363,1.624-6.458,6.543-8.761,10.663l5.484,2.35V60.72h3.306c.057,8.078,2.013,15.758,3.1,23.544h24.2c1.1-7.852,3.048-15.532,3.1-23.468h3.368v3.378L76.364,61.8a84.755,84.755,0,0,0-4.337-7.529A8.573,8.573,0,0,0,68.292,51.5a77.716,77.716,0,0,0-7.6-2.184m-1.213-7.246c.045.2.084.361.121.527.737,3.288.733,3.3,4.063,4.017a1.524,1.524,0,0,0,1.177-.3,17.4,17.4,0,0,0,5.927-12.714c.139-5.23.116-10.468.013-15.7A14.935,14.935,0,0,0,57.961,3.621a75.789,75.789,0,0,0-9.148-.226,15.144,15.144,0,0,0-15.089,15.1q-.042,7.218,0,14.437A18,18,0,0,0,37.819,44.4c.825,1.026,2.112,1.836,2.537,2.985.446,1.207.062,2.706.13,4.073a6.457,6.457,0,0,0,2.833,5.159,1.056,1.056,0,0,0,.9.1A5.316,5.316,0,0,0,46.9,50.209a9.236,9.236,0,0,0-2.033-2.875,1.914,1.914,0,0,1-.589-2.2c.338-.986.528-2.022.787-3.055-.222-.147-.392-.265-.568-.375a14.445,14.445,0,0,1-7.24-11.265c-.312-3.451-.148-6.946-.16-10.422-.018-4.952,1.87-7.591,6.54-9.214a1.983,1.983,0,0,0,.277-.149V6.808H47.1a31.594,31.594,0,0,0,.343,3.683A3.708,3.708,0,0,0,49.712,13.1a3.857,3.857,0,0,0,3.614-.089c-1.206-1.954-1.144-4.064-1-6.2h3.315c0,.809-.013,1.573,0,2.336a4.122,4.122,0,0,0,2.592,3.987,4.035,4.035,0,0,0,4.737-.941A16.718,16.718,0,0,0,64.3,10.537l2.615,2.448-1.371,1.493A11.011,11.011,0,0,1,67.453,21.4c-.061,2.035-.059,4.076,0,6.111.171,6.357-2.451,11.177-7.967,14.562m15.542,59.072a3.06,3.06,0,0,0-.11-.445,33.737,33.737,0,0,0-9.381-12.644,1.9,1.9,0,0,0-1.145-.34q-12.109-.029-24.217.005a2.187,2.187,0,0,0-1.309.462A33.818,33.818,0,0,0,29.833,100.2c-.132.294-.236.6-.372.949ZM64.249,24.8l-.183-.015c0-1.509.111-3.03-.037-4.525a15.959,15.959,0,0,0-.869-3.209c-.17-.529-.527-.7-1.149-.51a7.437,7.437,0,0,1-5.805-.624,1.3,1.3,0,0,0-1.018.008,7.608,7.608,0,0,1-9.339-1.572,1.265,1.265,0,0,0-.874-.37A5.065,5.065,0,0,0,40.473,19c-.031,3.3-.013,6.6,0,9.9a11.226,11.226,0,0,0,.169,1.671A11.8,11.8,0,0,0,51.53,40.459a11.621,11.621,0,0,0,12.076-8.77,50.572,50.572,0,0,0,.643-6.884M75.2,65.976c-1.6.689-2.962,1.242-4.288,1.875a1.332,1.332,0,0,0-.594.847c-.75,3.641-.74,3.643,1.913,6.225.151.147.3.3.461.432a8.572,8.572,0,0,0,9.239,1.509,1.284,1.284,0,0,0,.923-1.217c.418-3.661.961-7.308,1.335-10.973.226-2.222,1.125-3.714,3.407-4.007V52.323A4.961,4.961,0,0,0,82.649,55.5c-.629,1.56-1.163,3.158-1.739,4.739l-3.456,9.472L74.32,68.572l.877-2.6m-58.29-5.327c2.343.552,3.061,1.34,3.362,3.7.485,3.795.941,7.592,1.467,11.381a1.56,1.56,0,0,0,.774,1.047,8.355,8.355,0,0,0,9.314-1.422,32.1,32.1,0,0,0,2.54-2.522,1.3,1.3,0,0,0,.347-.9c-.118-1.115-.309-2.223-.508-3.328-.045-.247-.178-.594-.368-.681-1.419-.649-2.863-1.243-4.492-1.937l.862,2.6-3.121,1.119c-.406-1.1-.786-2.109-1.155-3.125-1.307-3.59-2.59-7.19-3.924-10.771a4.869,4.869,0,0,0-5.1-3.439ZM3.419,89.116c2.149-1.789,4.061-3.417,6.019-4.987a1.705,1.705,0,0,0,.69-1.513c-.023-5.824-.014-11.648-.014-17.472V64.137H6.539c-1.031,8.255-2.058,16.477-3.12,24.979M98,64.164h-3.58V65.38c0,5.613.027,11.227-.026,16.84a2.454,2.454,0,0,0,1.045,2.2c1.862,1.46,3.653,3.009,5.674,4.69C100.054,80.63,99.03,72.428,98,64.164m-10.33-.03c-1.03,8.256-2.053,16.447-3.112,24.932,2.083-1.77,3.9-3.356,5.774-4.881a1.831,1.831,0,0,0,.731-1.6c-.024-5.8-.013-11.593-.016-17.39,0-.34-.03-.68-.048-1.057ZM19.975,89.05l-3.11-24.894h-3.38v1.2c0,4.883.17,9.775-.068,14.646-.128,2.62.547,4.453,2.751,5.876a40.748,40.748,0,0,1,3.808,3.17M50.345,53.97c1.854,0,3.57.03,5.283-.011a1.638,1.638,0,0,0,1.687-1.765A28.466,28.466,0,0,0,57.3,48.3c-.186-1.649-.583-3.275-.911-5.026a15.656,15.656,0,0,1-8.329-.011c0,.93-.316,1.944.053,2.382a9.4,9.4,0,0,1,2.236,8.322M10.187,60.634H13.43V48.961H10.187ZM94.345,49H91.1V60.673h3.244ZM6.453,90.984H17.026L11.793,86.54l-5.34,4.443m91.714.092L92.745,86.53l-5.325,4.546H98.167ZM44.747,61.193c-1.644,2.39-.894,5.1,1.6,5.772,1.549-2.49.873-4.937-1.6-5.772m4.915,15.963c1.616-2.532.961-4.944-1.532-5.851-1.644,2.323-1.03,4.743,1.532,5.851M6.687,55.633V52.315c-1.1.026-2.31-.409-2.973.747a2.152,2.152,0,0,0,0,1.819c.661,1.158,1.875.727,2.976.752m91.1-3.27V55.6c2.4.171,3.373-.33,3.364-1.639s-1.014-1.816-3.364-1.6" transform="translate(0 0)" fill="#144567"/>
        <path id="Trazado_603141" data-name="Trazado 603141" d="M155.742,96.056h16.764c.321,3.59-.662,6.6-3.717,8.62a7.93,7.93,0,0,1-9.03.182c-3.261-1.981-4.329-5.055-4.017-8.8m13.018,3.4H159.5a4.9,4.9,0,0,0,9.256,0" transform="translate(-111.861 -69.015)" fill="#144567"/>
        <path id="Trazado_603142" data-name="Trazado 603142" d="M203.655,73.537a1.679,1.679,0,1,1,1.6,1.759,1.7,1.7,0,0,1-1.6-1.759" transform="translate(-146.321 -51.687)" fill="#144567"/>
        <path id="Trazado_603143" data-name="Trazado 603143" d="M157.461,75.3a1.678,1.678,0,1,1,1.636-1.72,1.694,1.694,0,0,1-1.636,1.72" transform="translate(-111.899 -51.691)" fill="#144567"/>
      </g>
    </g>
  </g>
</svg>
