<svg xmlns="http://www.w3.org/2000/svg" xmlns:xlink="http://www.w3.org/1999/xlink" width="1030" height="328" viewBox="0 0 1030 328">
  <defs>
    <clipPath id="clip-path">
      <rect id="Rectángulo_46628" data-name="Rectángulo 46628" width="16.576" height="23.916" fill="#833343"/>
    </clipPath>
    <clipPath id="clip-path-3">
      <rect id="Rectángulo_46628-3" data-name="Rectángulo 46628" width="16.576" height="23.916" fill="#144567"/>
    </clipPath>
    <clipPath id="clip-path-4">
      <rect id="Rectángulo_46628-4" data-name="Rectángulo 46628" width="16.576" height="23.916" fill="#395e56"/>
    </clipPath>
    <clipPath id="clip-path-7">
      <rect id="Rectángulo_47199" data-name="Rectángulo 47199" width="104.532" height="104.527" fill="#144567"/>
    </clipPath>
  </defs>
  <g id="Grupo_161255" data-name="Grupo 161255" transform="translate(-285 -3258)">
    <rect id="Rectángulo_46664" data-name="Rectángulo 46664" width="268" height="87" transform="translate(285 3258)" fill="#f6efe9"/>
    <rect id="Rectángulo_47151" data-name="Rectángulo 47151" width="268" height="87" transform="translate(285 3497)" fill="#e2e8ec"/>
    <rect id="Rectángulo_47149" data-name="Rectángulo 47149" width="268" height="87" transform="translate(666 3259)" fill="#e2e8ec"/>
    <rect id="Rectángulo_47152" data-name="Rectángulo 47152" width="268" height="87" transform="translate(666 3498)" fill="#def8f3"/>
    <rect id="Rectángulo_47150" data-name="Rectángulo 47150" width="268" height="87" transform="translate(1047 3260)" fill="#def8f3"/>
    <rect id="Rectángulo_47153" data-name="Rectángulo 47153" width="268" height="87" transform="translate(1047 3499)" fill="#f6efe9"/>
    <g id="Grupo_160599" data-name="Grupo 160599" transform="translate(570.859 3313.458) rotate(-90)">
      <g id="Grupo_160582" data-name="Grupo 160582" transform="translate(0 0)">
        <g id="Grupo_160578" data-name="Grupo 160578" transform="translate(23.916 60.56) rotate(90)">
          <g id="Grupo_160577" data-name="Grupo 160577" transform="translate(0)" clip-path="url(#clip-path)">
            <path id="Trazado_600822" data-name="Trazado 600822" d="M1.622,23.916a1.544,1.544,0,0,1-1.147-.523,1.918,1.918,0,0,1,0-2.527l8.084-8.908L.475,3.05a1.918,1.918,0,0,1,0-2.527,1.518,1.518,0,0,1,2.293,0L12,10.695a1.918,1.918,0,0,1,0,2.527L2.768,23.393a1.546,1.546,0,0,1-1.147.523" transform="translate(4.103 0)" fill="#833343"/>
          </g>
        </g>
        <rect id="Rectángulo_46641" data-name="Rectángulo 46641" width="67.382" height="3.417" rx="1.708" transform="translate(13.667 0) rotate(90)" fill="#833343"/>
      </g>
      <path id="Trazado_600829" data-name="Trazado 600829" d="M1.149,16.944a1.094,1.094,0,0,1-.812-.371,1.359,1.359,0,0,1,0-1.791L6.064,8.472.337,2.161a1.359,1.359,0,0,1,0-1.79,1.076,1.076,0,0,1,1.625,0L8.5,7.577a1.359,1.359,0,0,1,0,1.79L1.961,16.574a1.1,1.1,0,0,1-.812.371" transform="translate(20.5 60.561) rotate(90)" fill="#833343"/>
    </g>
    <g id="Grupo_161208" data-name="Grupo 161208" transform="translate(1029.141 3533) rotate(90)">
      <g id="Grupo_160582-2" data-name="Grupo 160582" transform="translate(0 0)">
        <g id="Grupo_160578-2" data-name="Grupo 160578" transform="translate(23.916 60.56) rotate(90)">
          <g id="Grupo_160577-2" data-name="Grupo 160577" transform="translate(0)" clip-path="url(#clip-path)">
            <path id="Trazado_600822-2" data-name="Trazado 600822" d="M1.622,23.916a1.544,1.544,0,0,1-1.147-.523,1.918,1.918,0,0,1,0-2.527l8.084-8.908L.475,3.05a1.918,1.918,0,0,1,0-2.527,1.518,1.518,0,0,1,2.293,0L12,10.695a1.918,1.918,0,0,1,0,2.527L2.768,23.393a1.546,1.546,0,0,1-1.147.523" transform="translate(4.103 0)" fill="#833343"/>
          </g>
        </g>
        <rect id="Rectángulo_46641-2" data-name="Rectángulo 46641" width="67.382" height="3.417" rx="1.708" transform="translate(13.667 0) rotate(90)" fill="#833343"/>
      </g>
      <path id="Trazado_600829-2" data-name="Trazado 600829" d="M1.149,16.944a1.094,1.094,0,0,1-.812-.371,1.359,1.359,0,0,1,0-1.791L6.064,8.472.337,2.161a1.359,1.359,0,0,1,0-1.79,1.076,1.076,0,0,1,1.625,0L8.5,7.577a1.359,1.359,0,0,1,0,1.79L1.961,16.574a1.1,1.1,0,0,1-.812.371" transform="translate(20.5 60.561) rotate(90)" fill="#833343"/>
    </g>
    <g id="Grupo_161206" data-name="Grupo 161206" transform="translate(952.004 3313.458) rotate(-90)">
      <g id="Grupo_160582-3" data-name="Grupo 160582" transform="translate(0 0)">
        <g id="Grupo_160578-3" data-name="Grupo 160578" transform="translate(23.916 60.56) rotate(90)">
          <g id="Grupo_160577-3" data-name="Grupo 160577" transform="translate(0)" clip-path="url(#clip-path-3)">
            <path id="Trazado_600822-3" data-name="Trazado 600822" d="M1.622,23.916a1.544,1.544,0,0,1-1.147-.523,1.918,1.918,0,0,1,0-2.527l8.084-8.908L.475,3.05a1.918,1.918,0,0,1,0-2.527,1.518,1.518,0,0,1,2.293,0L12,10.695a1.918,1.918,0,0,1,0,2.527L2.768,23.393a1.546,1.546,0,0,1-1.147.523" transform="translate(4.103 0)" fill="#144567"/>
          </g>
        </g>
        <rect id="Rectángulo_46641-3" data-name="Rectángulo 46641" width="67.382" height="3.417" rx="1.708" transform="translate(13.667 0) rotate(90)" fill="#144567"/>
      </g>
      <path id="Trazado_600829-3" data-name="Trazado 600829" d="M1.149,16.944a1.094,1.094,0,0,1-.812-.371,1.359,1.359,0,0,1,0-1.791L6.064,8.472.337,2.161a1.359,1.359,0,0,1,0-1.79,1.076,1.076,0,0,1,1.625,0L8.5,7.577a1.359,1.359,0,0,1,0,1.79L1.961,16.574a1.1,1.1,0,0,1-.812.371" transform="translate(20.5 60.561) rotate(90)" fill="#144567"/>
    </g>
    <g id="Grupo_161209" data-name="Grupo 161209" transform="translate(647.996 3533) rotate(90)">
      <g id="Grupo_160582-4" data-name="Grupo 160582" transform="translate(0 0)">
        <g id="Grupo_160578-4" data-name="Grupo 160578" transform="translate(23.916 60.56) rotate(90)">
          <g id="Grupo_160577-4" data-name="Grupo 160577" transform="translate(0)" clip-path="url(#clip-path-4)">
            <path id="Trazado_600822-4" data-name="Trazado 600822" d="M1.622,23.916a1.544,1.544,0,0,1-1.147-.523,1.918,1.918,0,0,1,0-2.527l8.084-8.908L.475,3.05a1.918,1.918,0,0,1,0-2.527,1.518,1.518,0,0,1,2.293,0L12,10.695a1.918,1.918,0,0,1,0,2.527L2.768,23.393a1.546,1.546,0,0,1-1.147.523" transform="translate(4.103 0)" fill="#395e56"/>
          </g>
        </g>
        <rect id="Rectángulo_46641-4" data-name="Rectángulo 46641" width="67.382" height="3.417" rx="1.708" transform="translate(13.667 0) rotate(90)" fill="#395e56"/>
      </g>
      <path id="Trazado_600829-4" data-name="Trazado 600829" d="M1.149,16.944a1.094,1.094,0,0,1-.812-.371,1.359,1.359,0,0,1,0-1.791L6.064,8.472.337,2.161a1.359,1.359,0,0,1,0-1.79,1.076,1.076,0,0,1,1.625,0L8.5,7.577a1.359,1.359,0,0,1,0,1.79L1.961,16.574a1.1,1.1,0,0,1-.812.371" transform="translate(20.5 60.561) rotate(90)" fill="#395e56"/>
    </g>
    <g id="Grupo_161207" data-name="Grupo 161207" transform="translate(1165.042 3358.932)">
      <g id="Grupo_160582-5" data-name="Grupo 160582" transform="translate(0 0)">
        <g id="Grupo_160578-5" data-name="Grupo 160578" transform="translate(23.916 102.455) rotate(90)">
          <g id="Grupo_160577-5" data-name="Grupo 160577" transform="translate(0)" clip-path="url(#clip-path-4)">
            <path id="Trazado_600822-5" data-name="Trazado 600822" d="M1.622,23.916a1.544,1.544,0,0,1-1.147-.523,1.918,1.918,0,0,1,0-2.527l8.084-8.908L.475,3.05a1.918,1.918,0,0,1,0-2.527,1.518,1.518,0,0,1,2.293,0L12,10.695a1.918,1.918,0,0,1,0,2.527L2.768,23.393a1.546,1.546,0,0,1-1.147.523" transform="translate(4.103 0)" fill="#395e56"/>
          </g>
        </g>
        <rect id="Rectángulo_46641-5" data-name="Rectángulo 46641" width="109.276" height="3.417" rx="1.708" transform="translate(13.667) rotate(90)" fill="#395e56"/>
      </g>
      <path id="Trazado_600829-5" data-name="Trazado 600829" d="M1.149,16.944a1.094,1.094,0,0,1-.812-.371,1.359,1.359,0,0,1,0-1.791L6.064,8.472.337,2.161a1.359,1.359,0,0,1,0-1.79,1.076,1.076,0,0,1,1.625,0L8.5,7.577a1.359,1.359,0,0,1,0,1.79L1.961,16.574a1.1,1.1,0,0,1-.812.371" transform="translate(20.5 102.455) rotate(90)" fill="#395e56"/>
    </g>
    <g id="Grupo_161210" data-name="Grupo 161210" transform="translate(431.458 3477.962) rotate(180)">
      <g id="Grupo_160582-6" data-name="Grupo 160582" transform="translate(0 0)">
        <g id="Grupo_160578-6" data-name="Grupo 160578" transform="translate(23.916 102.454) rotate(90)">
          <g id="Grupo_160577-6" data-name="Grupo 160577" transform="translate(0)" clip-path="url(#clip-path-3)">
            <path id="Trazado_600822-6" data-name="Trazado 600822" d="M1.622,23.916a1.544,1.544,0,0,1-1.147-.523,1.918,1.918,0,0,1,0-2.527l8.084-8.908L.475,3.05a1.918,1.918,0,0,1,0-2.527,1.518,1.518,0,0,1,2.293,0L12,10.695a1.918,1.918,0,0,1,0,2.527L2.768,23.393a1.546,1.546,0,0,1-1.147.523" transform="translate(4.103 0)" fill="#144567"/>
          </g>
        </g>
        <rect id="Rectángulo_46641-6" data-name="Rectángulo 46641" width="109.276" height="3.417" rx="1.708" transform="translate(13.667 0) rotate(90)" fill="#144567"/>
      </g>
      <path id="Trazado_600829-6" data-name="Trazado 600829" d="M1.149,16.944a1.094,1.094,0,0,1-.812-.371,1.359,1.359,0,0,1,0-1.791L6.064,8.472.337,2.161a1.359,1.359,0,0,1,0-1.79,1.076,1.076,0,0,1,1.625,0L8.5,7.577a1.359,1.359,0,0,1,0,1.79L1.961,16.574a1.1,1.1,0,0,1-.812.371" transform="translate(20.5 102.455) rotate(90)" fill="#144567"/>
    </g>
    <path id="Trazado_603555" data-name="Trazado 603555" d="M5.669,11.352H3.329V16h-2.1V3.914h4.25a4.944,4.944,0,0,1,3.229.939A3.321,3.321,0,0,1,9.845,7.57,3.4,3.4,0,0,1,9.26,9.6a3.724,3.724,0,0,1-1.631,1.259l2.714,5.033V16H8.093ZM3.329,9.658H5.487a2.4,2.4,0,0,0,1.66-.535,1.867,1.867,0,0,0,.6-1.465,1.988,1.988,0,0,0-.552-1.5,2.345,2.345,0,0,0-1.648-.548H3.329ZM15.6,16.166a4.173,4.173,0,0,1-3.109-1.208A4.381,4.381,0,0,1,11.3,11.742v-.249a5.389,5.389,0,0,1,.519-2.4,3.949,3.949,0,0,1,1.457-1.648,3.851,3.851,0,0,1,2.092-.589A3.525,3.525,0,0,1,18.2,8.023a4.949,4.949,0,0,1,1,3.312v.813H13.331a2.7,2.7,0,0,0,.743,1.76,2.23,2.23,0,0,0,1.639.647,2.731,2.731,0,0,0,2.258-1.121l1.087,1.038a3.631,3.631,0,0,1-1.44,1.249A4.509,4.509,0,0,1,15.6,16.166Zm-.241-7.695a1.7,1.7,0,0,0-1.341.581,3.012,3.012,0,0,0-.652,1.619h3.843v-.149a2.452,2.452,0,0,0-.54-1.531A1.686,1.686,0,0,0,15.356,8.471Zm7.936-3.636V7.019h1.585V8.513H23.292v5.014a1.1,1.1,0,0,0,.2.743.943.943,0,0,0,.726.228,3.107,3.107,0,0,0,.706-.083v1.561a4.968,4.968,0,0,1-1.328.191q-2.324,0-2.324-2.565V8.513H19.8V7.019h1.478V4.835ZM31.12,8.861a4.991,4.991,0,0,0-.822-.066A1.85,1.85,0,0,0,28.43,9.857V16H26.413V7.019h1.926l.05,1a2.273,2.273,0,0,1,2.025-1.17,1.888,1.888,0,0,1,.714.116Zm.6,2.565a5.3,5.3,0,0,1,.523-2.378,3.819,3.819,0,0,1,1.469-1.627,4.14,4.14,0,0,1,2.175-.569,3.923,3.923,0,0,1,2.951,1.17,4.6,4.6,0,0,1,1.224,3.1l.008.473a5.343,5.343,0,0,1-.51,2.374A3.773,3.773,0,0,1,38.1,15.593a4.17,4.17,0,0,1-2.2.573A3.9,3.9,0,0,1,32.859,14.9a4.848,4.848,0,0,1-1.141-3.374Zm2.017.174a3.619,3.619,0,0,0,.573,2.171,1.862,1.862,0,0,0,1.594.784,1.842,1.842,0,0,0,1.59-.8,4,4,0,0,0,.569-2.333,3.572,3.572,0,0,0-.585-2.158,1.973,1.973,0,0,0-3.158-.012A3.922,3.922,0,0,0,33.734,11.6ZM47.14,16a3.113,3.113,0,0,1-.232-.838,3.393,3.393,0,0,1-4.565.232,2.47,2.47,0,0,1-.855-1.909,2.55,2.55,0,0,1,1.067-2.2,5.169,5.169,0,0,1,3.051-.768h1.237V9.924a1.573,1.573,0,0,0-.39-1.116,1.547,1.547,0,0,0-1.187-.419,1.777,1.777,0,0,0-1.129.344,1.066,1.066,0,0,0-.44.876H41.678a2.239,2.239,0,0,1,.49-1.382A3.263,3.263,0,0,1,43.5,7.218a4.68,4.68,0,0,1,1.88-.365,3.769,3.769,0,0,1,2.515.793,2.827,2.827,0,0,1,.963,2.229v4.051a4.591,4.591,0,0,0,.34,1.934V16Zm-2.216-1.453a2.294,2.294,0,0,0,1.125-.291,1.941,1.941,0,0,0,.793-.78V11.783H45.754a2.973,2.973,0,0,0-1.685.39,1.264,1.264,0,0,0-.564,1.1,1.179,1.179,0,0,0,.386.926A1.5,1.5,0,0,0,44.924,14.547ZM53.117,16H51.1V3.25h2.017Zm4.341,0H55.441V7.019h2.017ZM55.316,4.686a1.071,1.071,0,0,1,.295-.772,1.113,1.113,0,0,1,.843-.307,1.127,1.127,0,0,1,.847.307,1.062,1.062,0,0,1,.3.772,1.038,1.038,0,0,1-.3.76,1.136,1.136,0,0,1-.847.3,1.122,1.122,0,0,1-.843-.3A1.046,1.046,0,0,1,55.316,4.686ZM61.55,7.019l.058.938a3.232,3.232,0,0,1,2.59-1.1A2.483,2.483,0,0,1,66.664,8.23a3.186,3.186,0,0,1,2.756-1.378,2.8,2.8,0,0,1,2.212.822,3.618,3.618,0,0,1,.743,2.424V16H70.357V10.156A1.786,1.786,0,0,0,69.984,8.9a1.635,1.635,0,0,0-1.237-.4,1.679,1.679,0,0,0-1.125.369,1.948,1.948,0,0,0-.61.967L67.021,16H65V10.09A1.439,1.439,0,0,0,63.385,8.5a1.776,1.776,0,0,0-1.718.988V16H59.649V7.019ZM78.4,16.166a4.173,4.173,0,0,1-3.109-1.208A4.381,4.381,0,0,1,74.1,11.742v-.249a5.389,5.389,0,0,1,.519-2.4,3.949,3.949,0,0,1,1.457-1.648,3.851,3.851,0,0,1,2.092-.589A3.525,3.525,0,0,1,81,8.023a4.949,4.949,0,0,1,1,3.312v.813H76.135a2.7,2.7,0,0,0,.743,1.76,2.23,2.23,0,0,0,1.639.647,2.731,2.731,0,0,0,2.258-1.121l1.087,1.038a3.631,3.631,0,0,1-1.44,1.249A4.509,4.509,0,0,1,78.4,16.166ZM78.16,8.471a1.7,1.7,0,0,0-1.341.581,3.012,3.012,0,0,0-.652,1.619h3.843v-.149a2.452,2.452,0,0,0-.54-1.531A1.686,1.686,0,0,0,78.16,8.471Zm7.28-1.453L85.5,8.056a3.229,3.229,0,0,1,2.615-1.2q2.806,0,2.855,3.212V16H88.951V10.181a1.85,1.85,0,0,0-.369-1.266A1.554,1.554,0,0,0,87.374,8.5a1.944,1.944,0,0,0-1.818,1.1V16H83.539V7.019ZM95.55,4.835V7.019h1.585V8.513H95.55v5.014a1.1,1.1,0,0,0,.2.743.943.943,0,0,0,.726.228,3.107,3.107,0,0,0,.706-.083v1.561a4.968,4.968,0,0,1-1.328.191q-2.324,0-2.324-2.565V8.513H92.056V7.019h1.478V4.835ZM104.042,16a3.113,3.113,0,0,1-.232-.838,3.393,3.393,0,0,1-4.565.232,2.47,2.47,0,0,1-.855-1.909,2.55,2.55,0,0,1,1.067-2.2,5.169,5.169,0,0,1,3.051-.768h1.237V9.924a1.573,1.573,0,0,0-.39-1.116,1.547,1.547,0,0,0-1.187-.419,1.777,1.777,0,0,0-1.129.344,1.066,1.066,0,0,0-.44.876H98.58a2.239,2.239,0,0,1,.49-1.382A3.263,3.263,0,0,1,100.4,7.218a4.68,4.68,0,0,1,1.88-.365,3.769,3.769,0,0,1,2.515.793,2.827,2.827,0,0,1,.963,2.229v4.051a4.591,4.591,0,0,0,.34,1.934V16Zm-2.216-1.453a2.294,2.294,0,0,0,1.125-.291,1.941,1.941,0,0,0,.793-.78V11.783h-1.087a2.973,2.973,0,0,0-1.685.39,1.264,1.264,0,0,0-.564,1.1,1.179,1.179,0,0,0,.386.926A1.5,1.5,0,0,0,101.826,14.547Zm9.737.008a1.824,1.824,0,0,0,1.253-.44,1.5,1.5,0,0,0,.531-1.087h1.9a2.963,2.963,0,0,1-.523,1.565,3.43,3.43,0,0,1-1.328,1.15,3.958,3.958,0,0,1-1.81.423,3.829,3.829,0,0,1-2.988-1.22,4.84,4.84,0,0,1-1.1-3.37v-.208a4.759,4.759,0,0,1,1.1-3.283,3.8,3.8,0,0,1,2.988-1.233,3.69,3.69,0,0,1,2.611.934,3.345,3.345,0,0,1,1.058,2.453h-1.9a1.847,1.847,0,0,0-.527-1.27,1.7,1.7,0,0,0-1.258-.5,1.775,1.775,0,0,0-1.511.71,3.621,3.621,0,0,0-.54,2.154v.324a3.681,3.681,0,0,0,.527,2.179A1.773,1.773,0,0,0,111.563,14.556ZM118.917,16H116.9V7.019h2.017ZM116.775,4.686a1.071,1.071,0,0,1,.295-.772,1.113,1.113,0,0,1,.843-.307,1.127,1.127,0,0,1,.847.307,1.062,1.062,0,0,1,.3.772,1.038,1.038,0,0,1-.3.76,1.136,1.136,0,0,1-.847.3,1.122,1.122,0,0,1-.843-.3A1.046,1.046,0,0,1,116.775,4.686Zm3.959,6.74a5.3,5.3,0,0,1,.523-2.378,3.819,3.819,0,0,1,1.469-1.627,4.14,4.14,0,0,1,2.175-.569,3.923,3.923,0,0,1,2.951,1.17,4.6,4.6,0,0,1,1.224,3.1l.008.473a5.343,5.343,0,0,1-.51,2.374,3.773,3.773,0,0,1-1.461,1.619,4.17,4.17,0,0,1-2.2.573,3.9,3.9,0,0,1-3.042-1.266,4.848,4.848,0,0,1-1.141-3.374Zm2.017.174a3.619,3.619,0,0,0,.573,2.171,1.862,1.862,0,0,0,1.594.784,1.842,1.842,0,0,0,1.59-.8,4,4,0,0,0,.569-2.333,3.572,3.572,0,0,0-.585-2.158,1.973,1.973,0,0,0-3.158-.012A3.922,3.922,0,0,0,122.752,11.6Zm2.706-8.351h2.3l-2.3,2.515-1.619,0Zm7.205,3.769.058,1.038a3.229,3.229,0,0,1,2.615-1.2q2.806,0,2.855,3.212V16h-2.017V10.181a1.85,1.85,0,0,0-.369-1.266A1.554,1.554,0,0,0,134.6,8.5a1.944,1.944,0,0,0-1.818,1.1V16h-2.017V7.019Z" transform="translate(348 3292)" fill="#12263f"/>
    <path id="Trazado_603556" data-name="Trazado 603556" d="M7.545,12.887a1.459,1.459,0,0,0-.56-1.229,6.741,6.741,0,0,0-2.021-.872A9.76,9.76,0,0,1,2.64,9.808,3.1,3.1,0,0,1,.988,7.1,2.945,2.945,0,0,1,2.179,4.694a4.821,4.821,0,0,1,3.092-.946,5.223,5.223,0,0,1,2.25.465A3.692,3.692,0,0,1,9.073,5.537a3.4,3.4,0,0,1,.564,1.905H7.545A1.894,1.894,0,0,0,6.952,5.96a2.45,2.45,0,0,0-1.7-.535,2.558,2.558,0,0,0-1.6.44,1.465,1.465,0,0,0-.569,1.229A1.325,1.325,0,0,0,3.7,8.2a7.076,7.076,0,0,0,2.025.863,9.317,9.317,0,0,1,2.266.955,3.6,3.6,0,0,1,1.253,1.229,3.2,3.2,0,0,1,.4,1.623,2.876,2.876,0,0,1-1.158,2.4,5.023,5.023,0,0,1-3.142.892,5.9,5.9,0,0,1-2.411-.486,4.051,4.051,0,0,1-1.71-1.341,3.341,3.341,0,0,1-.61-1.992h2.1A1.955,1.955,0,0,0,3.4,13.941a2.981,2.981,0,0,0,1.951.564,2.59,2.59,0,0,0,1.648-.444A1.433,1.433,0,0,0,7.545,12.887ZM16.66,16a3.113,3.113,0,0,1-.232-.838,3.14,3.14,0,0,1-2.357,1,3.169,3.169,0,0,1-2.208-.772,2.47,2.47,0,0,1-.855-1.909,2.55,2.55,0,0,1,1.067-2.2,5.169,5.169,0,0,1,3.051-.768h1.237V9.924a1.573,1.573,0,0,0-.39-1.116,1.547,1.547,0,0,0-1.187-.419,1.777,1.777,0,0,0-1.129.344,1.066,1.066,0,0,0-.44.876H11.2a2.239,2.239,0,0,1,.49-1.382A3.263,3.263,0,0,1,13.02,7.218a4.68,4.68,0,0,1,1.88-.365,3.769,3.769,0,0,1,2.515.793,2.827,2.827,0,0,1,.963,2.229v4.051a4.591,4.591,0,0,0,.34,1.934V16Zm-2.216-1.453a2.294,2.294,0,0,0,1.125-.291,1.941,1.941,0,0,0,.793-.78V11.783H15.273a2.973,2.973,0,0,0-1.685.39,1.264,1.264,0,0,0-.564,1.1,1.179,1.179,0,0,0,.386.926A1.5,1.5,0,0,0,14.443,14.547Zm8.575-9.712V7.019H24.6V8.513H23.018v5.014a1.1,1.1,0,0,0,.2.743.943.943,0,0,0,.726.228,3.107,3.107,0,0,0,.706-.083v1.561a4.968,4.968,0,0,1-1.328.191Q21,16.166,21,13.6V8.513H19.523V7.019H21V4.835ZM28.289,16H26.272V7.019h2.017ZM26.147,4.686a1.071,1.071,0,0,1,.295-.772,1.113,1.113,0,0,1,.843-.307,1.127,1.127,0,0,1,.847.307,1.062,1.062,0,0,1,.3.772,1.038,1.038,0,0,1-.3.76,1.136,1.136,0,0,1-.847.3,1.122,1.122,0,0,1-.843-.3A1.046,1.046,0,0,1,26.147,4.686Zm9.372,8.874a.914.914,0,0,0-.444-.822,4.723,4.723,0,0,0-1.473-.5,7.574,7.574,0,0,1-1.718-.548,2.293,2.293,0,0,1-1.511-2.117,2.391,2.391,0,0,1,.979-1.942,3.872,3.872,0,0,1,2.49-.78,4.029,4.029,0,0,1,2.6.8,2.529,2.529,0,0,1,.992,2.067H35.419a1.243,1.243,0,0,0-.432-.967,1.654,1.654,0,0,0-1.146-.386,1.787,1.787,0,0,0-1.083.307.968.968,0,0,0-.419.822.818.818,0,0,0,.39.722,5.365,5.365,0,0,0,1.577.519,7.466,7.466,0,0,1,1.864.623,2.639,2.639,0,0,1,1,.867,2.212,2.212,0,0,1,.328,1.229,2.34,2.34,0,0,1-1,1.963,4.283,4.283,0,0,1-2.631.751,4.644,4.644,0,0,1-1.967-.4,3.238,3.238,0,0,1-1.345-1.1,2.594,2.594,0,0,1-.481-1.5h1.959a1.421,1.421,0,0,0,.54,1.1,2.1,2.1,0,0,0,1.32.386,2.04,2.04,0,0,0,1.212-.3A.938.938,0,0,0,35.519,13.56ZM39.968,16V8.513H38.6V7.019h1.37V6.2a3.085,3.085,0,0,1,.83-2.308,3.18,3.18,0,0,1,2.324-.813,4.662,4.662,0,0,1,1.129.149L44.2,4.8a3.973,3.973,0,0,0-.772-.066,1.3,1.3,0,0,0-1.444,1.486v.8h1.826V8.513H41.985V16Zm10.683,0a3.113,3.113,0,0,1-.232-.838,3.393,3.393,0,0,1-4.565.232A2.47,2.47,0,0,1,45,13.485a2.55,2.55,0,0,1,1.067-2.2,5.169,5.169,0,0,1,3.051-.768h1.237V9.924a1.573,1.573,0,0,0-.39-1.116,1.547,1.547,0,0,0-1.187-.419,1.777,1.777,0,0,0-1.129.344,1.066,1.066,0,0,0-.44.876H45.189a2.239,2.239,0,0,1,.49-1.382,3.263,3.263,0,0,1,1.332-1.009,4.68,4.68,0,0,1,1.88-.365,3.769,3.769,0,0,1,2.515.793,2.827,2.827,0,0,1,.963,2.229v4.051a4.591,4.591,0,0,0,.34,1.934V16Zm-2.216-1.453a2.294,2.294,0,0,0,1.125-.291,1.941,1.941,0,0,0,.793-.78V11.783H49.265a2.973,2.973,0,0,0-1.685.39,1.264,1.264,0,0,0-.564,1.1,1.179,1.179,0,0,0,.386.926A1.5,1.5,0,0,0,48.435,14.547Zm9.737.008a1.824,1.824,0,0,0,1.253-.44,1.5,1.5,0,0,0,.531-1.087h1.9a2.963,2.963,0,0,1-.523,1.565,3.43,3.43,0,0,1-1.328,1.15,3.958,3.958,0,0,1-1.81.423,3.829,3.829,0,0,1-2.988-1.22,4.84,4.84,0,0,1-1.1-3.37v-.208a4.759,4.759,0,0,1,1.1-3.283,3.8,3.8,0,0,1,2.988-1.233,3.69,3.69,0,0,1,2.611.934,3.345,3.345,0,0,1,1.058,2.453h-1.9a1.847,1.847,0,0,0-.527-1.27,1.7,1.7,0,0,0-1.258-.5,1.775,1.775,0,0,0-1.511.71,3.621,3.621,0,0,0-.54,2.154v.324a3.682,3.682,0,0,0,.527,2.179A1.773,1.773,0,0,0,58.172,14.556Zm8.9,0a1.824,1.824,0,0,0,1.253-.44,1.5,1.5,0,0,0,.531-1.087h1.9a2.963,2.963,0,0,1-.523,1.565,3.43,3.43,0,0,1-1.328,1.15,3.958,3.958,0,0,1-1.81.423,3.829,3.829,0,0,1-2.988-1.22,4.84,4.84,0,0,1-1.1-3.37v-.208a4.759,4.759,0,0,1,1.1-3.283,3.8,3.8,0,0,1,2.988-1.233,3.69,3.69,0,0,1,2.611.934,3.345,3.345,0,0,1,1.058,2.453h-1.9a1.847,1.847,0,0,0-.527-1.27,1.7,1.7,0,0,0-1.258-.5,1.775,1.775,0,0,0-1.511.71,3.621,3.621,0,0,0-.54,2.154v.324a3.681,3.681,0,0,0,.527,2.179A1.773,1.773,0,0,0,67.07,14.556ZM74.425,16H72.408V7.019h2.017ZM72.283,4.686a1.071,1.071,0,0,1,.295-.772,1.113,1.113,0,0,1,.843-.307,1.127,1.127,0,0,1,.847.307,1.062,1.062,0,0,1,.3.772,1.038,1.038,0,0,1-.3.76,1.136,1.136,0,0,1-.847.3,1.122,1.122,0,0,1-.843-.3A1.046,1.046,0,0,1,72.283,4.686Zm3.959,6.74a5.3,5.3,0,0,1,.523-2.378,3.819,3.819,0,0,1,1.469-1.627,4.14,4.14,0,0,1,2.175-.569,3.923,3.923,0,0,1,2.951,1.17,4.6,4.6,0,0,1,1.224,3.1l.008.473a5.343,5.343,0,0,1-.51,2.374,3.773,3.773,0,0,1-1.461,1.619,4.17,4.17,0,0,1-2.2.573A3.9,3.9,0,0,1,77.384,14.9a4.848,4.848,0,0,1-1.141-3.374Zm2.017.174a3.619,3.619,0,0,0,.573,2.171,1.862,1.862,0,0,0,1.594.784,1.842,1.842,0,0,0,1.59-.8,4,4,0,0,0,.569-2.333A3.572,3.572,0,0,0,82,9.268a1.973,1.973,0,0,0-3.158-.012A3.922,3.922,0,0,0,78.26,11.6ZM80.966,3.25h2.3l-2.3,2.515-1.619,0Zm7.205,3.769.058,1.038a3.229,3.229,0,0,1,2.615-1.2q2.806,0,2.855,3.212V16H91.682V10.181a1.85,1.85,0,0,0-.369-1.266A1.554,1.554,0,0,0,90.1,8.5a1.944,1.944,0,0,0-1.818,1.1V16H86.27V7.019Zm11.438,4.424a5.34,5.34,0,0,1,.963-3.333,3.085,3.085,0,0,1,2.582-1.258,2.931,2.931,0,0,1,2.308,1V3.25h2.017V16h-1.826l-.1-.93a2.973,2.973,0,0,1-2.416,1.1,3.068,3.068,0,0,1-2.552-1.27A5.535,5.535,0,0,1,99.609,11.443Zm2.017.174a3.739,3.739,0,0,0,.527,2.137,1.71,1.71,0,0,0,1.5.768,1.9,1.9,0,0,0,1.81-1.1V9.583A1.876,1.876,0,0,0,103.668,8.5a1.723,1.723,0,0,0-1.511.776A4.163,4.163,0,0,0,101.626,11.617Zm11.912,4.549a4.173,4.173,0,0,1-3.109-1.208,4.381,4.381,0,0,1-1.191-3.217v-.249a5.389,5.389,0,0,1,.519-2.4,3.949,3.949,0,0,1,1.457-1.648,3.851,3.851,0,0,1,2.092-.589,3.525,3.525,0,0,1,2.835,1.17,4.949,4.949,0,0,1,1,3.312v.813h-5.869a2.7,2.7,0,0,0,.743,1.76,2.23,2.23,0,0,0,1.639.647,2.731,2.731,0,0,0,2.258-1.121L117,14.473a3.631,3.631,0,0,1-1.44,1.249A4.509,4.509,0,0,1,113.538,16.166ZM113.3,8.471a1.7,1.7,0,0,0-1.341.581,3.012,3.012,0,0,0-.652,1.619h3.843v-.149a2.452,2.452,0,0,0-.54-1.531A1.686,1.686,0,0,0,113.3,8.471ZM120.851,16h-2.017V3.25h2.017Zm10.119-1.444a1.824,1.824,0,0,0,1.253-.44,1.5,1.5,0,0,0,.531-1.087h1.9a2.963,2.963,0,0,1-.523,1.565,3.43,3.43,0,0,1-1.328,1.15,3.958,3.958,0,0,1-1.81.423,3.829,3.829,0,0,1-2.988-1.22,4.84,4.84,0,0,1-1.1-3.37v-.208A4.759,4.759,0,0,1,128,8.085a3.8,3.8,0,0,1,2.988-1.233,3.69,3.69,0,0,1,2.611.934,3.345,3.345,0,0,1,1.058,2.453h-1.9a1.847,1.847,0,0,0-.527-1.27,1.7,1.7,0,0,0-1.258-.5,1.775,1.775,0,0,0-1.511.71,3.621,3.621,0,0,0-.54,2.154v.324a3.682,3.682,0,0,0,.527,2.179A1.773,1.773,0,0,0,130.97,14.556ZM138.324,16h-2.017V3.25h2.017Zm4.341,0h-2.017V7.019h2.017ZM140.524,4.686a1.07,1.07,0,0,1,.295-.772,1.113,1.113,0,0,1,.843-.307,1.127,1.127,0,0,1,.847.307,1.062,1.062,0,0,1,.3.772,1.038,1.038,0,0,1-.3.76,1.136,1.136,0,0,1-.847.3,1.122,1.122,0,0,1-.843-.3A1.046,1.046,0,0,1,140.524,4.686Zm8.292,11.48a4.173,4.173,0,0,1-3.109-1.208,4.381,4.381,0,0,1-1.191-3.217v-.249a5.389,5.389,0,0,1,.519-2.4,3.949,3.949,0,0,1,1.457-1.648,3.851,3.851,0,0,1,2.092-.589,3.525,3.525,0,0,1,2.835,1.17,4.949,4.949,0,0,1,1,3.312v.813H146.55a2.7,2.7,0,0,0,.743,1.76,2.23,2.23,0,0,0,1.639.647,2.731,2.731,0,0,0,2.258-1.121l1.087,1.038a3.631,3.631,0,0,1-1.44,1.249A4.509,4.509,0,0,1,148.816,16.166Zm-.241-7.695a1.7,1.7,0,0,0-1.341.581,3.012,3.012,0,0,0-.652,1.619h3.843v-.149a2.452,2.452,0,0,0-.54-1.531A1.686,1.686,0,0,0,148.576,8.471Zm7.28-1.453.058,1.038a3.229,3.229,0,0,1,2.615-1.2q2.806,0,2.855,3.212V16h-2.017V10.181A1.85,1.85,0,0,0,159,8.915,1.554,1.554,0,0,0,157.79,8.5a1.944,1.944,0,0,0-1.818,1.1V16h-2.017V7.019Zm10.11-2.183V7.019h1.585V8.513h-1.585v5.014a1.1,1.1,0,0,0,.2.743.943.943,0,0,0,.726.228,3.107,3.107,0,0,0,.706-.083v1.561a4.968,4.968,0,0,1-1.328.191q-2.324,0-2.324-2.565V8.513h-1.478V7.019h1.478V4.835Zm7.081,11.331a4.173,4.173,0,0,1-3.109-1.208,4.381,4.381,0,0,1-1.191-3.217v-.249a5.389,5.389,0,0,1,.519-2.4,3.949,3.949,0,0,1,1.457-1.648,3.851,3.851,0,0,1,2.092-.589,3.525,3.525,0,0,1,2.835,1.17,4.949,4.949,0,0,1,1,3.312v.813H170.78a2.7,2.7,0,0,0,.743,1.76,2.23,2.23,0,0,0,1.639.647,2.731,2.731,0,0,0,2.258-1.121l1.087,1.038a3.631,3.631,0,0,1-1.44,1.249A4.509,4.509,0,0,1,173.046,16.166Zm-.241-7.695a1.7,1.7,0,0,0-1.341.581,3.012,3.012,0,0,0-.652,1.619h3.843v-.149a2.452,2.452,0,0,0-.54-1.531A1.686,1.686,0,0,0,172.806,8.471Z" transform="translate(711 3293)" fill="#12263f"/>
    <path id="Trazado_603557" data-name="Trazado 603557" d="M10.833,10.272a7.46,7.46,0,0,1-.544,2.976,4.847,4.847,0,0,1-1.523,2l2.075,1.619L9.479,18.092,6.906,16.058a5.213,5.213,0,0,1-1.087.108,4.825,4.825,0,0,1-2.611-.718A4.716,4.716,0,0,1,1.432,13.4,7.183,7.183,0,0,1,.8,10.339V9.658a7.351,7.351,0,0,1,.627-3.121A4.71,4.71,0,0,1,3.192,4.466,4.8,4.8,0,0,1,5.8,3.748a4.887,4.887,0,0,1,2.635.71A4.65,4.65,0,0,1,10.2,6.5a7.336,7.336,0,0,1,.631,3.1ZM8.724,9.642a5.248,5.248,0,0,0-.764-3.1A2.509,2.509,0,0,0,5.8,5.491,2.469,2.469,0,0,0,3.681,6.558,5.165,5.165,0,0,0,2.9,9.567v.706a5.3,5.3,0,0,0,.768,3.063,2.474,2.474,0,0,0,2.154,1.1,2.478,2.478,0,0,0,2.154-1.062,5.356,5.356,0,0,0,.751-3.1Zm9.488,5.479a3.128,3.128,0,0,1-2.523,1.046,2.788,2.788,0,0,1-2.212-.855,3.637,3.637,0,0,1-.751-2.474V7.019h2.017v5.794q0,1.71,1.419,1.71a1.993,1.993,0,0,0,1.984-1.054V7.019h2.017V16h-1.9Zm7.96,1.046a4.173,4.173,0,0,1-3.109-1.208,4.381,4.381,0,0,1-1.191-3.217v-.249a5.389,5.389,0,0,1,.519-2.4,3.949,3.949,0,0,1,1.457-1.648,3.851,3.851,0,0,1,2.092-.589,3.525,3.525,0,0,1,2.835,1.17,4.949,4.949,0,0,1,1,3.312v.813H23.906a2.7,2.7,0,0,0,.743,1.76,2.23,2.23,0,0,0,1.639.647,2.731,2.731,0,0,0,2.258-1.121l1.087,1.038a3.631,3.631,0,0,1-1.44,1.249A4.509,4.509,0,0,1,26.172,16.166Zm-.241-7.695a1.7,1.7,0,0,0-1.341.581,3.012,3.012,0,0,0-.652,1.619h3.843v-.149a2.452,2.452,0,0,0-.54-1.531A1.686,1.686,0,0,0,25.932,8.471Zm7.512-1.453V16.8a2.955,2.955,0,0,1-.685,2.1,2.625,2.625,0,0,1-2,.726,4.031,4.031,0,0,1-1.071-.141V17.893a3.108,3.108,0,0,0,.714.075q1,0,1.029-1.1V7.019ZM31.252,4.686a1.071,1.071,0,0,1,.295-.772,1.113,1.113,0,0,1,.843-.307,1.127,1.127,0,0,1,.847.307,1.062,1.062,0,0,1,.3.772,1.038,1.038,0,0,1-.3.76,1.136,1.136,0,0,1-.847.3,1.122,1.122,0,0,1-.843-.3A1.046,1.046,0,0,1,31.252,4.686ZM40.964,16a3.113,3.113,0,0,1-.232-.838,3.393,3.393,0,0,1-4.565.232,2.47,2.47,0,0,1-.855-1.909,2.55,2.55,0,0,1,1.067-2.2,5.169,5.169,0,0,1,3.051-.768h1.237V9.924a1.573,1.573,0,0,0-.39-1.116,1.547,1.547,0,0,0-1.187-.419,1.777,1.777,0,0,0-1.129.344,1.066,1.066,0,0,0-.44.876H35.5a2.239,2.239,0,0,1,.49-1.382,3.263,3.263,0,0,1,1.332-1.009,4.68,4.68,0,0,1,1.88-.365,3.769,3.769,0,0,1,2.515.793,2.827,2.827,0,0,1,.963,2.229v4.051a4.591,4.591,0,0,0,.34,1.934V16Zm-2.216-1.453a2.294,2.294,0,0,0,1.125-.291,1.941,1.941,0,0,0,.793-.78V11.783H39.578a2.973,2.973,0,0,0-1.685.39,1.264,1.264,0,0,0-.564,1.1,1.179,1.179,0,0,0,.386.926A1.5,1.5,0,0,0,38.748,14.547ZM49.83,13.56a.914.914,0,0,0-.444-.822,4.723,4.723,0,0,0-1.473-.5,7.574,7.574,0,0,1-1.718-.548,2.293,2.293,0,0,1-1.511-2.117,2.391,2.391,0,0,1,.979-1.942,3.872,3.872,0,0,1,2.49-.78,4.029,4.029,0,0,1,2.6.8,2.529,2.529,0,0,1,.992,2.067H49.73a1.243,1.243,0,0,0-.432-.967,1.654,1.654,0,0,0-1.146-.386,1.787,1.787,0,0,0-1.083.307.968.968,0,0,0-.419.822.818.818,0,0,0,.39.722,5.365,5.365,0,0,0,1.577.519,7.466,7.466,0,0,1,1.864.623,2.639,2.639,0,0,1,1,.867,2.212,2.212,0,0,1,.328,1.229,2.34,2.34,0,0,1-1,1.963,4.283,4.283,0,0,1-2.631.751,4.644,4.644,0,0,1-1.967-.4,3.238,3.238,0,0,1-1.345-1.1,2.594,2.594,0,0,1-.481-1.5h1.959a1.421,1.421,0,0,0,.54,1.1,2.1,2.1,0,0,0,1.32.386,2.04,2.04,0,0,0,1.212-.3A.938.938,0,0,0,49.83,13.56Z" transform="translate(1153 3294)" fill="#12263f"/>
    <path id="Trazado_603558" data-name="Trazado 603558" d="M7.545,12.887a1.459,1.459,0,0,0-.56-1.229,6.741,6.741,0,0,0-2.021-.872A9.76,9.76,0,0,1,2.64,9.808,3.1,3.1,0,0,1,.988,7.1,2.945,2.945,0,0,1,2.179,4.694a4.821,4.821,0,0,1,3.092-.946,5.223,5.223,0,0,1,2.25.465A3.692,3.692,0,0,1,9.073,5.537a3.4,3.4,0,0,1,.564,1.905H7.545A1.894,1.894,0,0,0,6.952,5.96a2.45,2.45,0,0,0-1.7-.535,2.558,2.558,0,0,0-1.6.44,1.465,1.465,0,0,0-.569,1.229A1.325,1.325,0,0,0,3.7,8.2a7.076,7.076,0,0,0,2.025.863,9.317,9.317,0,0,1,2.266.955,3.6,3.6,0,0,1,1.253,1.229,3.2,3.2,0,0,1,.4,1.623,2.876,2.876,0,0,1-1.158,2.4,5.023,5.023,0,0,1-3.142.892,5.9,5.9,0,0,1-2.411-.486,4.051,4.051,0,0,1-1.71-1.341,3.341,3.341,0,0,1-.61-1.992h2.1A1.955,1.955,0,0,0,3.4,13.941a2.981,2.981,0,0,0,1.951.564,2.59,2.59,0,0,0,1.648-.444A1.433,1.433,0,0,0,7.545,12.887Zm7.7,3.279a4.173,4.173,0,0,1-3.109-1.208,4.381,4.381,0,0,1-1.191-3.217v-.249a5.389,5.389,0,0,1,.519-2.4,3.949,3.949,0,0,1,1.457-1.648,3.851,3.851,0,0,1,2.092-.589,3.525,3.525,0,0,1,2.835,1.17,4.949,4.949,0,0,1,1,3.312v.813H12.982a2.7,2.7,0,0,0,.743,1.76,2.23,2.23,0,0,0,1.639.647,2.731,2.731,0,0,0,2.258-1.121l1.087,1.038a3.631,3.631,0,0,1-1.44,1.249A4.509,4.509,0,0,1,15.249,16.166Zm-.241-7.695a1.7,1.7,0,0,0-1.341.581,3.012,3.012,0,0,0-.652,1.619h3.843v-.149a2.452,2.452,0,0,0-.54-1.531A1.686,1.686,0,0,0,15.008,8.471Zm10.11.39a4.991,4.991,0,0,0-.822-.066,1.85,1.85,0,0,0-1.868,1.063V16H20.412V7.019h1.926l.05,1a2.273,2.273,0,0,1,2.025-1.17,1.888,1.888,0,0,1,.714.116Zm4.59,4.582,1.9-6.425h2.083L30.58,16H28.829L25.691,7.019h2.092ZM37.1,16H35.079V7.019H37.1ZM34.955,4.686a1.071,1.071,0,0,1,.295-.772,1.113,1.113,0,0,1,.843-.307,1.127,1.127,0,0,1,.847.307,1.062,1.062,0,0,1,.3.772,1.038,1.038,0,0,1-.3.76,1.136,1.136,0,0,1-.847.3,1.122,1.122,0,0,1-.843-.3A1.046,1.046,0,0,1,34.955,4.686Zm8.027,9.87a1.824,1.824,0,0,0,1.253-.44,1.5,1.5,0,0,0,.531-1.087h1.9a2.963,2.963,0,0,1-.523,1.565,3.43,3.43,0,0,1-1.328,1.15,3.958,3.958,0,0,1-1.81.423,3.829,3.829,0,0,1-2.988-1.22,4.84,4.84,0,0,1-1.1-3.37v-.208a4.759,4.759,0,0,1,1.1-3.283A3.8,3.8,0,0,1,43,6.853a3.69,3.69,0,0,1,2.611.934,3.345,3.345,0,0,1,1.058,2.453h-1.9a1.847,1.847,0,0,0-.527-1.27,1.7,1.7,0,0,0-1.258-.5,1.775,1.775,0,0,0-1.511.71,3.621,3.621,0,0,0-.54,2.154v.324a3.682,3.682,0,0,0,.527,2.179A1.773,1.773,0,0,0,42.981,14.556ZM50.336,16H48.319V7.019h2.017ZM48.194,4.686a1.071,1.071,0,0,1,.295-.772,1.113,1.113,0,0,1,.843-.307,1.127,1.127,0,0,1,.847.307,1.062,1.062,0,0,1,.3.772,1.038,1.038,0,0,1-.3.76,1.136,1.136,0,0,1-.847.3,1.122,1.122,0,0,1-.843-.3A1.046,1.046,0,0,1,48.194,4.686Zm3.959,6.74a5.3,5.3,0,0,1,.523-2.378,3.819,3.819,0,0,1,1.469-1.627,4.14,4.14,0,0,1,2.175-.569,3.923,3.923,0,0,1,2.951,1.17,4.6,4.6,0,0,1,1.224,3.1l.008.473a5.343,5.343,0,0,1-.51,2.374,3.773,3.773,0,0,1-1.461,1.619,4.17,4.17,0,0,1-2.2.573A3.9,3.9,0,0,1,53.3,14.9a4.848,4.848,0,0,1-1.141-3.374Zm2.017.174a3.619,3.619,0,0,0,.573,2.171,1.862,1.862,0,0,0,1.594.784,1.842,1.842,0,0,0,1.59-.8,4,4,0,0,0,.569-2.333,3.572,3.572,0,0,0-.585-2.158,1.973,1.973,0,0,0-3.158-.012A3.922,3.922,0,0,0,54.171,11.6ZM71.81,16a3.113,3.113,0,0,1-.232-.838,3.393,3.393,0,0,1-4.565.232,2.47,2.47,0,0,1-.855-1.909,2.55,2.55,0,0,1,1.067-2.2,5.169,5.169,0,0,1,3.051-.768h1.237V9.924a1.573,1.573,0,0,0-.39-1.116,1.547,1.547,0,0,0-1.187-.419,1.777,1.777,0,0,0-1.129.344,1.066,1.066,0,0,0-.44.876H66.348a2.239,2.239,0,0,1,.49-1.382A3.263,3.263,0,0,1,68.17,7.218a4.68,4.68,0,0,1,1.88-.365,3.769,3.769,0,0,1,2.515.793,2.827,2.827,0,0,1,.963,2.229v4.051a4.591,4.591,0,0,0,.34,1.934V16Zm-2.216-1.453a2.294,2.294,0,0,0,1.125-.291,1.941,1.941,0,0,0,.793-.78V11.783H70.424a2.973,2.973,0,0,0-1.685.39,1.264,1.264,0,0,0-.564,1.1,1.179,1.179,0,0,0,.386.926A1.5,1.5,0,0,0,69.594,14.547ZM77.787,16H75.77V3.25h2.017Zm10.119-1.444a1.824,1.824,0,0,0,1.253-.44,1.5,1.5,0,0,0,.531-1.087h1.9a2.963,2.963,0,0,1-.523,1.565,3.43,3.43,0,0,1-1.328,1.15,3.958,3.958,0,0,1-1.81.423,3.829,3.829,0,0,1-2.988-1.22,4.84,4.84,0,0,1-1.1-3.37v-.208a4.759,4.759,0,0,1,1.1-3.283,3.8,3.8,0,0,1,2.988-1.233,3.69,3.69,0,0,1,2.611.934,3.345,3.345,0,0,1,1.058,2.453h-1.9a1.847,1.847,0,0,0-.527-1.27,1.7,1.7,0,0,0-1.258-.5,1.775,1.775,0,0,0-1.511.71,3.621,3.621,0,0,0-.54,2.154v.324a3.681,3.681,0,0,0,.527,2.179A1.773,1.773,0,0,0,87.905,14.556ZM95.26,16H93.243V3.25H95.26ZM99.6,16H97.584V7.019H99.6ZM97.459,4.686a1.071,1.071,0,0,1,.295-.772,1.113,1.113,0,0,1,.843-.307,1.127,1.127,0,0,1,.847.307,1.062,1.062,0,0,1,.3.772,1.038,1.038,0,0,1-.3.76,1.136,1.136,0,0,1-.847.3,1.122,1.122,0,0,1-.843-.3A1.046,1.046,0,0,1,97.459,4.686Zm8.292,11.48a4.173,4.173,0,0,1-3.109-1.208,4.381,4.381,0,0,1-1.191-3.217v-.249a5.389,5.389,0,0,1,.519-2.4,3.949,3.949,0,0,1,1.457-1.648,3.851,3.851,0,0,1,2.092-.589,3.525,3.525,0,0,1,2.835,1.17,4.949,4.949,0,0,1,1,3.312v.813h-5.869a2.7,2.7,0,0,0,.743,1.76,2.23,2.23,0,0,0,1.639.647,2.731,2.731,0,0,0,2.258-1.121l1.087,1.038a3.631,3.631,0,0,1-1.44,1.249A4.509,4.509,0,0,1,105.752,16.166Zm-.241-7.695a1.7,1.7,0,0,0-1.341.581,3.012,3.012,0,0,0-.652,1.619h3.843v-.149a2.452,2.452,0,0,0-.54-1.531A1.686,1.686,0,0,0,105.511,8.471Zm7.28-1.453.058,1.038a3.229,3.229,0,0,1,2.615-1.2q2.806,0,2.855,3.212V16H116.3V10.181a1.85,1.85,0,0,0-.369-1.266,1.554,1.554,0,0,0-1.208-.411,1.944,1.944,0,0,0-1.818,1.1V16H110.89V7.019ZM122.9,4.835V7.019h1.585V8.513H122.9v5.014a1.1,1.1,0,0,0,.2.743.943.943,0,0,0,.726.228,3.107,3.107,0,0,0,.706-.083v1.561a4.968,4.968,0,0,1-1.328.191q-2.324,0-2.324-2.565V8.513h-1.478V7.019h1.478V4.835Zm7.081,11.331a4.173,4.173,0,0,1-3.109-1.208,4.381,4.381,0,0,1-1.191-3.217v-.249a5.389,5.389,0,0,1,.519-2.4,3.949,3.949,0,0,1,1.457-1.648,3.851,3.851,0,0,1,2.092-.589,3.525,3.525,0,0,1,2.835,1.17,4.949,4.949,0,0,1,1,3.312v.813h-5.869a2.7,2.7,0,0,0,.743,1.76,2.23,2.23,0,0,0,1.639.647,2.731,2.731,0,0,0,2.258-1.121l1.087,1.038A3.631,3.631,0,0,1,132,15.722,4.509,4.509,0,0,1,129.982,16.166Zm-.241-7.695a1.7,1.7,0,0,0-1.341.581,3.012,3.012,0,0,0-.652,1.619h3.843v-.149a2.452,2.452,0,0,0-.54-1.531A1.686,1.686,0,0,0,129.741,8.471Z" transform="translate(1110 3533)" fill="#12263f"/>
    <path id="Trazado_603559" data-name="Trazado 603559" d="M10.451,12.065a4.364,4.364,0,0,1-1.428,3.017,4.867,4.867,0,0,1-3.312,1.083,4.713,4.713,0,0,1-2.544-.685,4.5,4.5,0,0,1-1.7-1.947A7.024,7.024,0,0,1,.847,10.6V9.476a7.075,7.075,0,0,1,.606-3.013A4.567,4.567,0,0,1,3.192,4.454a4.851,4.851,0,0,1,2.619-.706A4.672,4.672,0,0,1,9.031,4.831,4.527,4.527,0,0,1,10.451,7.9H8.359a2.985,2.985,0,0,0-.76-1.88,2.51,2.51,0,0,0-1.789-.577,2.452,2.452,0,0,0-2.1,1A5,5,0,0,0,2.955,9.38v1.072a5.308,5.308,0,0,0,.7,2.991,2.328,2.328,0,0,0,2.054,1.03,2.715,2.715,0,0,0,1.859-.556,2.9,2.9,0,0,0,.789-1.851Zm1.3-.639a5.3,5.3,0,0,1,.523-2.378,3.819,3.819,0,0,1,1.469-1.627,4.14,4.14,0,0,1,2.175-.569,3.923,3.923,0,0,1,2.951,1.17,4.6,4.6,0,0,1,1.224,3.1l.008.473a5.343,5.343,0,0,1-.51,2.374,3.773,3.773,0,0,1-1.461,1.619,4.17,4.17,0,0,1-2.2.573A3.9,3.9,0,0,1,12.9,14.9a4.848,4.848,0,0,1-1.141-3.374Zm2.017.174a3.619,3.619,0,0,0,.573,2.171,1.862,1.862,0,0,0,1.594.784,1.842,1.842,0,0,0,1.59-.8,4,4,0,0,0,.569-2.333,3.572,3.572,0,0,0-.585-2.158,1.973,1.973,0,0,0-3.158-.012A3.922,3.922,0,0,0,13.771,11.6ZM16.477,3.25h2.3l-2.3,2.515-1.619,0Zm4.956,8.193A5.34,5.34,0,0,1,22.4,8.11a3.085,3.085,0,0,1,2.582-1.258,2.931,2.931,0,0,1,2.308,1V3.25H29.3V16H27.476l-.1-.93a2.973,2.973,0,0,1-2.416,1.1,3.068,3.068,0,0,1-2.552-1.27A5.535,5.535,0,0,1,21.433,11.443Zm2.017.174a3.739,3.739,0,0,0,.527,2.137,1.71,1.71,0,0,0,1.5.768,1.9,1.9,0,0,0,1.81-1.1V9.583A1.876,1.876,0,0,0,25.492,8.5a1.723,1.723,0,0,0-1.511.776A4.163,4.163,0,0,0,23.45,11.617ZM33.552,16H31.535V7.019h2.017ZM31.41,4.686a1.071,1.071,0,0,1,.295-.772,1.113,1.113,0,0,1,.843-.307,1.127,1.127,0,0,1,.847.307,1.062,1.062,0,0,1,.3.772,1.038,1.038,0,0,1-.3.76,1.136,1.136,0,0,1-.847.3,1.122,1.122,0,0,1-.843-.3A1.046,1.046,0,0,1,31.41,4.686Zm3.984,6.757A5.253,5.253,0,0,1,36.378,8.1a3.157,3.157,0,0,1,2.611-1.249A2.958,2.958,0,0,1,41.4,7.923l.091-.9h1.818v8.708a3.619,3.619,0,0,1-1.1,2.789,4.189,4.189,0,0,1-2.968,1.021,4.783,4.783,0,0,1-1.93-.411,3.429,3.429,0,0,1-1.432-1.075l.955-1.212a2.883,2.883,0,0,0,2.291,1.1,2.228,2.228,0,0,0,1.585-.544,2.084,2.084,0,0,0,.581-1.6v-.606a2.97,2.97,0,0,1-2.324.971,3.15,3.15,0,0,1-2.577-1.253A5.423,5.423,0,0,1,35.395,11.443Zm2.009.174a3.616,3.616,0,0,0,.552,2.129,1.775,1.775,0,0,0,1.531.776,1.941,1.941,0,0,0,1.81-1.046V9.525A1.913,1.913,0,0,0,39.5,8.5a1.782,1.782,0,0,0-1.548.789A4.049,4.049,0,0,0,37.4,11.617Zm7.6-.191a5.3,5.3,0,0,1,.523-2.378A3.819,3.819,0,0,1,47,7.421a4.14,4.14,0,0,1,2.175-.569,3.923,3.923,0,0,1,2.951,1.17,4.6,4.6,0,0,1,1.224,3.1l.008.473a5.343,5.343,0,0,1-.51,2.374,3.773,3.773,0,0,1-1.461,1.619,4.17,4.17,0,0,1-2.2.573A3.9,3.9,0,0,1,46.148,14.9a4.848,4.848,0,0,1-1.141-3.374Zm2.017.174a3.619,3.619,0,0,0,.573,2.171,1.862,1.862,0,0,0,1.594.784,1.842,1.842,0,0,0,1.59-.8,4,4,0,0,0,.569-2.333,3.572,3.572,0,0,0-.585-2.158A1.973,1.973,0,0,0,47.6,9.256,3.922,3.922,0,0,0,47.024,11.6Zm11.9-.158a5.34,5.34,0,0,1,.963-3.333,3.085,3.085,0,0,1,2.582-1.258,2.931,2.931,0,0,1,2.308,1V3.25h2.017V16H64.962l-.1-.93a2.973,2.973,0,0,1-2.416,1.1,3.068,3.068,0,0,1-2.552-1.27A5.535,5.535,0,0,1,58.919,11.443Zm2.017.174a3.739,3.739,0,0,0,.527,2.137,1.71,1.71,0,0,0,1.5.768,1.9,1.9,0,0,0,1.81-1.1V9.583A1.876,1.876,0,0,0,62.978,8.5a1.723,1.723,0,0,0-1.511.776A4.163,4.163,0,0,0,60.936,11.617Zm11.912,4.549a4.173,4.173,0,0,1-3.109-1.208,4.381,4.381,0,0,1-1.191-3.217v-.249a5.389,5.389,0,0,1,.519-2.4,3.949,3.949,0,0,1,1.457-1.648,3.851,3.851,0,0,1,2.092-.589,3.525,3.525,0,0,1,2.835,1.17,4.949,4.949,0,0,1,1,3.312v.813H70.582a2.7,2.7,0,0,0,.743,1.76,2.23,2.23,0,0,0,1.639.647,2.731,2.731,0,0,0,2.258-1.121l1.087,1.038a3.631,3.631,0,0,1-1.44,1.249A4.509,4.509,0,0,1,72.848,16.166Zm-.241-7.695a1.7,1.7,0,0,0-1.341.581,3.012,3.012,0,0,0-.652,1.619h3.843v-.149a2.452,2.452,0,0,0-.54-1.531A1.686,1.686,0,0,0,72.607,8.471Zm13.331,6.084a1.824,1.824,0,0,0,1.253-.44,1.5,1.5,0,0,0,.531-1.087h1.9a2.963,2.963,0,0,1-.523,1.565,3.43,3.43,0,0,1-1.328,1.15,3.958,3.958,0,0,1-1.81.423,3.829,3.829,0,0,1-2.988-1.22,4.84,4.84,0,0,1-1.1-3.37v-.208a4.759,4.759,0,0,1,1.1-3.283,3.8,3.8,0,0,1,2.988-1.233,3.69,3.69,0,0,1,2.611.934,3.345,3.345,0,0,1,1.058,2.453h-1.9a1.847,1.847,0,0,0-.527-1.27,1.7,1.7,0,0,0-1.258-.5,1.775,1.775,0,0,0-1.511.71,3.621,3.621,0,0,0-.54,2.154v.324a3.681,3.681,0,0,0,.527,2.179A1.773,1.773,0,0,0,85.938,14.556Zm4.831-3.129a5.3,5.3,0,0,1,.523-2.378,3.819,3.819,0,0,1,1.469-1.627,4.14,4.14,0,0,1,2.175-.569,3.923,3.923,0,0,1,2.951,1.17,4.6,4.6,0,0,1,1.224,3.1l.008.473a5.343,5.343,0,0,1-.51,2.374,3.773,3.773,0,0,1-1.461,1.619,4.17,4.17,0,0,1-2.2.573A3.9,3.9,0,0,1,91.91,14.9a4.848,4.848,0,0,1-1.141-3.374Zm2.017.174a3.619,3.619,0,0,0,.573,2.171,1.862,1.862,0,0,0,1.594.784,1.842,1.842,0,0,0,1.59-.8,4,4,0,0,0,.569-2.333,3.572,3.572,0,0,0-.585-2.158,1.973,1.973,0,0,0-3.158-.012A3.922,3.922,0,0,0,92.786,11.6ZM102.7,7.019l.058,1.038a3.229,3.229,0,0,1,2.615-1.2q2.806,0,2.855,3.212V16h-2.017V10.181a1.85,1.85,0,0,0-.369-1.266,1.554,1.554,0,0,0-1.208-.411,1.944,1.944,0,0,0-1.818,1.1V16H100.8V7.019Zm7.205,4.424a5.34,5.34,0,0,1,.963-3.333,3.085,3.085,0,0,1,2.582-1.258,2.931,2.931,0,0,1,2.308,1V3.25h2.017V16h-1.826l-.1-.93a2.973,2.973,0,0,1-2.416,1.1,3.068,3.068,0,0,1-2.552-1.27A5.535,5.535,0,0,1,109.9,11.443Zm2.017.174a3.739,3.739,0,0,0,.527,2.137,1.71,1.71,0,0,0,1.5.768,1.9,1.9,0,0,0,1.81-1.1V9.583A1.876,1.876,0,0,0,113.961,8.5a1.723,1.723,0,0,0-1.511.776A4.163,4.163,0,0,0,111.919,11.617Zm13.4,3.5a3.128,3.128,0,0,1-2.523,1.046,2.788,2.788,0,0,1-2.212-.855,3.637,3.637,0,0,1-.751-2.474V7.019h2.017v5.794q0,1.71,1.419,1.71a1.993,1.993,0,0,0,1.984-1.054V7.019h2.017V16h-1.9Zm7.695-.564a1.824,1.824,0,0,0,1.253-.44,1.5,1.5,0,0,0,.531-1.087h1.9a2.963,2.963,0,0,1-.523,1.565,3.43,3.43,0,0,1-1.328,1.15,3.958,3.958,0,0,1-1.81.423,3.829,3.829,0,0,1-2.988-1.22,4.84,4.84,0,0,1-1.1-3.37v-.208a4.759,4.759,0,0,1,1.1-3.283,3.8,3.8,0,0,1,2.988-1.233,3.69,3.69,0,0,1,2.611.934,3.345,3.345,0,0,1,1.058,2.453h-1.9a1.847,1.847,0,0,0-.527-1.27,1.7,1.7,0,0,0-1.258-.5,1.775,1.775,0,0,0-1.511.71,3.621,3.621,0,0,0-.54,2.154v.324a3.682,3.682,0,0,0,.527,2.179A1.773,1.773,0,0,0,133.012,14.556Zm7.736-9.72V7.019h1.585V8.513h-1.585v5.014a1.1,1.1,0,0,0,.2.743.943.943,0,0,0,.726.228,3.107,3.107,0,0,0,.706-.083v1.561a4.968,4.968,0,0,1-1.328.191q-2.324,0-2.324-2.565V8.513h-1.478V7.019h1.478V4.835ZM149.24,16a3.113,3.113,0,0,1-.232-.838,3.393,3.393,0,0,1-4.565.232,2.47,2.47,0,0,1-.855-1.909,2.55,2.55,0,0,1,1.067-2.2,5.169,5.169,0,0,1,3.051-.768h1.237V9.924a1.573,1.573,0,0,0-.39-1.116,1.547,1.547,0,0,0-1.187-.419,1.777,1.777,0,0,0-1.129.344,1.066,1.066,0,0,0-.44.876h-2.017a2.239,2.239,0,0,1,.49-1.382A3.263,3.263,0,0,1,145.6,7.218a4.68,4.68,0,0,1,1.88-.365A3.769,3.769,0,0,1,150,7.645a2.827,2.827,0,0,1,.963,2.229v4.051a4.591,4.591,0,0,0,.34,1.934V16Zm-2.216-1.453a2.294,2.294,0,0,0,1.125-.291,1.941,1.941,0,0,0,.793-.78V11.783h-1.087a2.973,2.973,0,0,0-1.685.39,1.264,1.264,0,0,0-.564,1.1,1.179,1.179,0,0,0,.386.926A1.5,1.5,0,0,0,147.023,14.547Zm9.9-3.1a5.34,5.34,0,0,1,.963-3.333,3.085,3.085,0,0,1,2.582-1.258,2.931,2.931,0,0,1,2.308,1V3.25H164.8V16h-1.826l-.1-.93a2.973,2.973,0,0,1-2.416,1.1A3.068,3.068,0,0,1,157.9,14.9,5.535,5.535,0,0,1,156.926,11.443Zm2.017.174a3.739,3.739,0,0,0,.527,2.137,1.71,1.71,0,0,0,1.5.768,1.9,1.9,0,0,0,1.81-1.1V9.583A1.876,1.876,0,0,0,160.985,8.5a1.723,1.723,0,0,0-1.511.776A4.163,4.163,0,0,0,158.943,11.617Zm11.912,4.549a4.173,4.173,0,0,1-3.109-1.208,4.381,4.381,0,0,1-1.191-3.217v-.249a5.389,5.389,0,0,1,.519-2.4,3.949,3.949,0,0,1,1.457-1.648,3.851,3.851,0,0,1,2.092-.589,3.525,3.525,0,0,1,2.835,1.17,4.949,4.949,0,0,1,1,3.312v.813h-5.869a2.7,2.7,0,0,0,.743,1.76,2.23,2.23,0,0,0,1.639.647,2.731,2.731,0,0,0,2.258-1.121l1.087,1.038a3.631,3.631,0,0,1-1.44,1.249A4.509,4.509,0,0,1,170.855,16.166Zm-.241-7.695a1.7,1.7,0,0,0-1.341.581,3.012,3.012,0,0,0-.652,1.619h3.843v-.149a2.452,2.452,0,0,0-.54-1.531A1.686,1.686,0,0,0,170.614,8.471ZM182.4,16h-2.017V3.25H182.4Zm7.562,0a3.113,3.113,0,0,1-.232-.838,3.393,3.393,0,0,1-4.565.232,2.47,2.47,0,0,1-.855-1.909,2.55,2.55,0,0,1,1.067-2.2,5.169,5.169,0,0,1,3.051-.768h1.237V9.924a1.573,1.573,0,0,0-.39-1.116,1.547,1.547,0,0,0-1.187-.419,1.777,1.777,0,0,0-1.129.344,1.066,1.066,0,0,0-.44.876H184.5a2.239,2.239,0,0,1,.49-1.382,3.263,3.263,0,0,1,1.332-1.009,4.68,4.68,0,0,1,1.88-.365,3.769,3.769,0,0,1,2.515.793,2.827,2.827,0,0,1,.963,2.229v4.051a4.591,4.591,0,0,0,.34,1.934V16Zm-2.216-1.453a2.294,2.294,0,0,0,1.125-.291,1.941,1.941,0,0,0,.793-.78V11.783h-1.087a2.973,2.973,0,0,0-1.685.39,1.264,1.264,0,0,0-.564,1.1,1.179,1.179,0,0,0,.386.926A1.5,1.5,0,0,0,187.747,14.547ZM6.068,37.56a.914.914,0,0,0-.444-.822,4.723,4.723,0,0,0-1.473-.5,7.574,7.574,0,0,1-1.718-.548A2.293,2.293,0,0,1,.921,33.575,2.391,2.391,0,0,1,1.9,31.633a3.872,3.872,0,0,1,2.49-.78,4.029,4.029,0,0,1,2.6.8,2.529,2.529,0,0,1,.992,2.067H5.968a1.243,1.243,0,0,0-.432-.967,1.654,1.654,0,0,0-1.146-.386,1.787,1.787,0,0,0-1.083.307.968.968,0,0,0-.419.822.818.818,0,0,0,.39.722,5.365,5.365,0,0,0,1.577.519,7.466,7.466,0,0,1,1.864.623,2.639,2.639,0,0,1,1,.867,2.212,2.212,0,0,1,.328,1.229,2.34,2.34,0,0,1-1,1.963,4.283,4.283,0,0,1-2.631.751,4.644,4.644,0,0,1-1.967-.4,3.238,3.238,0,0,1-1.345-1.1,2.594,2.594,0,0,1-.481-1.5H2.582a1.421,1.421,0,0,0,.54,1.1,2.1,2.1,0,0,0,1.32.386,2.04,2.04,0,0,0,1.212-.3A.938.938,0,0,0,6.068,37.56ZM15.174,40a3.113,3.113,0,0,1-.232-.838,3.14,3.14,0,0,1-2.357,1,3.169,3.169,0,0,1-2.208-.772,2.47,2.47,0,0,1-.855-1.909,2.55,2.55,0,0,1,1.067-2.2,5.169,5.169,0,0,1,3.051-.768h1.237v-.589a1.573,1.573,0,0,0-.39-1.116,1.547,1.547,0,0,0-1.187-.419,1.777,1.777,0,0,0-1.129.344,1.066,1.066,0,0,0-.44.876H9.712a2.239,2.239,0,0,1,.49-1.382,3.263,3.263,0,0,1,1.332-1.009,4.68,4.68,0,0,1,1.88-.365,3.769,3.769,0,0,1,2.515.793,2.827,2.827,0,0,1,.963,2.229v4.051a4.591,4.591,0,0,0,.34,1.934V40Zm-2.216-1.453a2.294,2.294,0,0,0,1.125-.291,1.941,1.941,0,0,0,.793-.78V35.783H13.788a2.973,2.973,0,0,0-1.685.39,1.264,1.264,0,0,0-.564,1.1,1.179,1.179,0,0,0,.386.926A1.5,1.5,0,0,0,12.958,38.547Zm8.575-9.712v2.183h1.585v1.494H21.532v5.014a1.1,1.1,0,0,0,.2.743.943.943,0,0,0,.726.228,3.107,3.107,0,0,0,.706-.083v1.561a4.968,4.968,0,0,1-1.328.191q-2.324,0-2.324-2.565V32.513H18.038V31.019h1.478V28.835ZM26.8,40H24.786V31.019H26.8ZM24.662,28.686a1.071,1.071,0,0,1,.295-.772,1.113,1.113,0,0,1,.843-.307,1.127,1.127,0,0,1,.847.307,1.062,1.062,0,0,1,.3.772,1.038,1.038,0,0,1-.3.76,1.136,1.136,0,0,1-.847.3,1.122,1.122,0,0,1-.843-.3A1.046,1.046,0,0,1,24.662,28.686Zm9.372,8.874a.914.914,0,0,0-.444-.822,4.723,4.723,0,0,0-1.473-.5,7.574,7.574,0,0,1-1.718-.548,2.293,2.293,0,0,1-1.511-2.117,2.391,2.391,0,0,1,.979-1.942,3.872,3.872,0,0,1,2.49-.78,4.029,4.029,0,0,1,2.6.8,2.529,2.529,0,0,1,.992,2.067H33.934a1.243,1.243,0,0,0-.432-.967,1.654,1.654,0,0,0-1.146-.386,1.787,1.787,0,0,0-1.083.307.968.968,0,0,0-.419.822.818.818,0,0,0,.39.722,5.365,5.365,0,0,0,1.577.519,7.466,7.466,0,0,1,1.864.623,2.639,2.639,0,0,1,1,.867,2.212,2.212,0,0,1,.328,1.229,2.34,2.34,0,0,1-1,1.963,4.283,4.283,0,0,1-2.631.751,4.644,4.644,0,0,1-1.967-.4,3.238,3.238,0,0,1-1.345-1.1,2.594,2.594,0,0,1-.481-1.5h1.959a1.421,1.421,0,0,0,.54,1.1,2.1,2.1,0,0,0,1.32.386,2.04,2.04,0,0,0,1.212-.3A.938.938,0,0,0,34.033,37.56ZM38.482,40V32.513h-1.37V31.019h1.37V30.2a3.085,3.085,0,0,1,.83-2.308,3.18,3.18,0,0,1,2.324-.813,4.662,4.662,0,0,1,1.129.149l-.05,1.577a3.973,3.973,0,0,0-.772-.066A1.3,1.3,0,0,0,40.5,30.222v.8h1.826v1.494H40.5V40Zm10.683,0a3.113,3.113,0,0,1-.232-.838,3.393,3.393,0,0,1-4.565.232,2.47,2.47,0,0,1-.855-1.909,2.55,2.55,0,0,1,1.067-2.2,5.169,5.169,0,0,1,3.051-.768h1.237v-.589a1.573,1.573,0,0,0-.39-1.116,1.547,1.547,0,0,0-1.187-.419,1.777,1.777,0,0,0-1.129.344,1.066,1.066,0,0,0-.44.876H43.7a2.239,2.239,0,0,1,.49-1.382,3.263,3.263,0,0,1,1.332-1.009,4.68,4.68,0,0,1,1.88-.365,3.769,3.769,0,0,1,2.515.793,2.827,2.827,0,0,1,.963,2.229v4.051a4.591,4.591,0,0,0,.34,1.934V40Zm-2.216-1.453a2.294,2.294,0,0,0,1.125-.291,1.941,1.941,0,0,0,.793-.78V35.783H47.779a2.973,2.973,0,0,0-1.685.39,1.264,1.264,0,0,0-.564,1.1,1.179,1.179,0,0,0,.386.926A1.5,1.5,0,0,0,46.949,38.547Zm9.737.008a1.824,1.824,0,0,0,1.253-.44,1.5,1.5,0,0,0,.531-1.087h1.9a2.963,2.963,0,0,1-.523,1.565,3.43,3.43,0,0,1-1.328,1.15,3.958,3.958,0,0,1-1.81.423,3.829,3.829,0,0,1-2.988-1.22,4.84,4.84,0,0,1-1.1-3.37v-.208a4.759,4.759,0,0,1,1.1-3.283A3.8,3.8,0,0,1,56.7,30.853a3.69,3.69,0,0,1,2.611.934,3.345,3.345,0,0,1,1.058,2.453h-1.9a1.847,1.847,0,0,0-.527-1.27,1.7,1.7,0,0,0-1.258-.5,1.775,1.775,0,0,0-1.511.71,3.621,3.621,0,0,0-.54,2.154v.324a3.682,3.682,0,0,0,.527,2.179A1.773,1.773,0,0,0,56.686,38.556Zm8.9,0a1.824,1.824,0,0,0,1.253-.44,1.5,1.5,0,0,0,.531-1.087h1.9a2.963,2.963,0,0,1-.523,1.565,3.43,3.43,0,0,1-1.328,1.15,3.958,3.958,0,0,1-1.81.423,3.829,3.829,0,0,1-2.988-1.22,4.84,4.84,0,0,1-1.1-3.37v-.208a4.759,4.759,0,0,1,1.1-3.283A3.8,3.8,0,0,1,65.6,30.853a3.69,3.69,0,0,1,2.611.934,3.345,3.345,0,0,1,1.058,2.453h-1.9a1.847,1.847,0,0,0-.527-1.27,1.7,1.7,0,0,0-1.258-.5,1.775,1.775,0,0,0-1.511.71,3.621,3.621,0,0,0-.54,2.154v.324a3.682,3.682,0,0,0,.527,2.179A1.773,1.773,0,0,0,65.584,38.556ZM72.939,40H70.922V31.019h2.017ZM70.8,28.686a1.071,1.071,0,0,1,.295-.772,1.113,1.113,0,0,1,.843-.307,1.127,1.127,0,0,1,.847.307,1.062,1.062,0,0,1,.3.772,1.038,1.038,0,0,1-.3.76,1.136,1.136,0,0,1-.847.3,1.122,1.122,0,0,1-.843-.3A1.046,1.046,0,0,1,70.8,28.686Zm3.959,6.74a5.3,5.3,0,0,1,.523-2.378,3.819,3.819,0,0,1,1.469-1.627,4.14,4.14,0,0,1,2.175-.569,3.923,3.923,0,0,1,2.951,1.17,4.6,4.6,0,0,1,1.224,3.1l.008.473a5.343,5.343,0,0,1-.51,2.374,3.773,3.773,0,0,1-1.461,1.619,4.17,4.17,0,0,1-2.2.573A3.9,3.9,0,0,1,75.9,38.9a4.848,4.848,0,0,1-1.141-3.374Zm2.017.174a3.619,3.619,0,0,0,.573,2.171,1.862,1.862,0,0,0,1.594.784,1.842,1.842,0,0,0,1.59-.8,4,4,0,0,0,.569-2.333,3.572,3.572,0,0,0-.585-2.158,1.973,1.973,0,0,0-3.158-.012A3.922,3.922,0,0,0,76.774,35.6ZM79.48,27.25h2.3l-2.3,2.515-1.619,0Zm7.205,3.769.058,1.038a3.229,3.229,0,0,1,2.615-1.2q2.806,0,2.855,3.212V40H90.2V34.181a1.85,1.85,0,0,0-.369-1.266,1.554,1.554,0,0,0-1.208-.411,1.944,1.944,0,0,0-1.818,1.1V40H84.784V31.019Zm11.438,4.424a5.34,5.34,0,0,1,.963-3.333,3.085,3.085,0,0,1,2.582-1.258,2.931,2.931,0,0,1,2.308,1v-4.6h2.017V40h-1.826l-.1-.93a2.973,2.973,0,0,1-2.416,1.1A3.068,3.068,0,0,1,99.1,38.9,5.535,5.535,0,0,1,98.124,35.443Zm2.017.174a3.739,3.739,0,0,0,.527,2.137,1.71,1.71,0,0,0,1.5.768,1.9,1.9,0,0,0,1.81-1.1V33.583a1.876,1.876,0,0,0-1.793-1.079,1.723,1.723,0,0,0-1.511.776A4.163,4.163,0,0,0,100.141,35.617Zm11.912,4.549a4.173,4.173,0,0,1-3.109-1.208,4.381,4.381,0,0,1-1.191-3.217v-.249a5.389,5.389,0,0,1,.519-2.4,3.949,3.949,0,0,1,1.457-1.648,3.851,3.851,0,0,1,2.092-.589,3.525,3.525,0,0,1,2.835,1.17,4.949,4.949,0,0,1,1,3.312v.813h-5.869a2.7,2.7,0,0,0,.743,1.76,2.23,2.23,0,0,0,1.639.647,2.731,2.731,0,0,0,2.258-1.121l1.087,1.038a3.631,3.631,0,0,1-1.44,1.249A4.509,4.509,0,0,1,112.052,40.166Zm-.241-7.695a1.7,1.7,0,0,0-1.341.581,3.012,3.012,0,0,0-.652,1.619h3.843v-.149a2.452,2.452,0,0,0-.54-1.531A1.686,1.686,0,0,0,111.812,32.471ZM119.365,40h-2.017V27.25h2.017Zm10.119-1.444a1.824,1.824,0,0,0,1.253-.44,1.5,1.5,0,0,0,.531-1.087h1.9a2.963,2.963,0,0,1-.523,1.565,3.43,3.43,0,0,1-1.328,1.15,3.958,3.958,0,0,1-1.81.423,3.829,3.829,0,0,1-2.988-1.22,4.84,4.84,0,0,1-1.1-3.37v-.208a4.759,4.759,0,0,1,1.1-3.283,3.8,3.8,0,0,1,2.988-1.233,3.69,3.69,0,0,1,2.611.934,3.345,3.345,0,0,1,1.058,2.453h-1.9a1.847,1.847,0,0,0-.527-1.27,1.7,1.7,0,0,0-1.258-.5,1.775,1.775,0,0,0-1.511.71,3.621,3.621,0,0,0-.54,2.154v.324a3.681,3.681,0,0,0,.527,2.179A1.773,1.773,0,0,0,129.484,38.556ZM136.838,40h-2.017V27.25h2.017Zm4.341,0h-2.017V31.019h2.017Zm-2.142-11.314a1.07,1.07,0,0,1,.295-.772,1.113,1.113,0,0,1,.843-.307,1.127,1.127,0,0,1,.847.307,1.062,1.062,0,0,1,.3.772,1.038,1.038,0,0,1-.3.76,1.136,1.136,0,0,1-.847.3,1.122,1.122,0,0,1-.843-.3A1.046,1.046,0,0,1,139.038,28.686Zm8.292,11.48a4.173,4.173,0,0,1-3.109-1.208,4.381,4.381,0,0,1-1.191-3.217v-.249a5.389,5.389,0,0,1,.519-2.4,3.949,3.949,0,0,1,1.457-1.648,3.851,3.851,0,0,1,2.092-.589,3.525,3.525,0,0,1,2.835,1.17,4.949,4.949,0,0,1,1,3.312v.813h-5.869a2.7,2.7,0,0,0,.743,1.76,2.23,2.23,0,0,0,1.639.647,2.731,2.731,0,0,0,2.258-1.121l1.087,1.038a3.631,3.631,0,0,1-1.44,1.249A4.509,4.509,0,0,1,147.331,40.166Zm-.241-7.695a1.7,1.7,0,0,0-1.341.581,3.012,3.012,0,0,0-.652,1.619h3.843v-.149a2.452,2.452,0,0,0-.54-1.531A1.686,1.686,0,0,0,147.09,32.471Zm7.28-1.453.058,1.038a3.229,3.229,0,0,1,2.615-1.2q2.806,0,2.855,3.212V40h-2.017V34.181a1.85,1.85,0,0,0-.369-1.266A1.554,1.554,0,0,0,156.3,32.5a1.944,1.944,0,0,0-1.818,1.1V40h-2.017V31.019Zm10.11-2.183v2.183h1.585v1.494H164.48v5.014a1.1,1.1,0,0,0,.2.743.943.943,0,0,0,.726.228,3.107,3.107,0,0,0,.706-.083v1.561a4.968,4.968,0,0,1-1.328.191q-2.324,0-2.324-2.565V32.513h-1.478V31.019h1.478V28.835Zm7.081,11.331a4.173,4.173,0,0,1-3.109-1.208,4.381,4.381,0,0,1-1.191-3.217v-.249a5.389,5.389,0,0,1,.519-2.4,3.949,3.949,0,0,1,1.457-1.648,3.851,3.851,0,0,1,2.092-.589,3.525,3.525,0,0,1,2.835,1.17,4.949,4.949,0,0,1,1,3.312v.813h-5.869a2.7,2.7,0,0,0,.743,1.76,2.23,2.23,0,0,0,1.639.647,2.731,2.731,0,0,0,2.258-1.121l1.087,1.038a3.631,3.631,0,0,1-1.44,1.249A4.509,4.509,0,0,1,171.561,40.166Zm-.241-7.695a1.7,1.7,0,0,0-1.341.581,3.012,3.012,0,0,0-.652,1.619h3.843v-.149a2.452,2.452,0,0,0-.54-1.531A1.686,1.686,0,0,0,171.32,32.471Z" transform="translate(695 3520)" fill="#12263f"/>
    <path id="Trazado_603560" data-name="Trazado 603560" d="M10.451,12.065a4.364,4.364,0,0,1-1.428,3.017,4.867,4.867,0,0,1-3.312,1.083,4.713,4.713,0,0,1-2.544-.685,4.5,4.5,0,0,1-1.7-1.947A7.024,7.024,0,0,1,.847,10.6V9.476a7.075,7.075,0,0,1,.606-3.013A4.567,4.567,0,0,1,3.192,4.454a4.851,4.851,0,0,1,2.619-.706A4.672,4.672,0,0,1,9.031,4.831,4.527,4.527,0,0,1,10.451,7.9H8.359a2.985,2.985,0,0,0-.76-1.88,2.51,2.51,0,0,0-1.789-.577,2.452,2.452,0,0,0-2.1,1A5,5,0,0,0,2.955,9.38v1.072a5.308,5.308,0,0,0,.7,2.991,2.328,2.328,0,0,0,2.054,1.03,2.715,2.715,0,0,0,1.859-.556,2.9,2.9,0,0,0,.789-1.851Zm1.3-.639a5.3,5.3,0,0,1,.523-2.378,3.819,3.819,0,0,1,1.469-1.627,4.14,4.14,0,0,1,2.175-.569,3.923,3.923,0,0,1,2.951,1.17,4.6,4.6,0,0,1,1.224,3.1l.008.473a5.343,5.343,0,0,1-.51,2.374,3.773,3.773,0,0,1-1.461,1.619,4.17,4.17,0,0,1-2.2.573A3.9,3.9,0,0,1,12.9,14.9a4.848,4.848,0,0,1-1.141-3.374Zm2.017.174a3.619,3.619,0,0,0,.573,2.171,1.862,1.862,0,0,0,1.594.784,1.842,1.842,0,0,0,1.59-.8,4,4,0,0,0,.569-2.333,3.572,3.572,0,0,0-.585-2.158,1.973,1.973,0,0,0-3.158-.012A3.922,3.922,0,0,0,13.771,11.6Zm9.911-4.582.058,1.038a3.229,3.229,0,0,1,2.615-1.2q2.806,0,2.855,3.212V16H27.193V10.181a1.85,1.85,0,0,0-.369-1.266A1.554,1.554,0,0,0,25.616,8.5a1.944,1.944,0,0,0-1.818,1.1V16H21.781V7.019Zm13.4-2.167a10.962,10.962,0,0,0-1.461-.116q-1.627,0-1.627,1.527v.755h1.826V8.513H33.992V16H31.975V8.513H30.6V7.019h1.37V6.213a3.007,3.007,0,0,1,.9-2.328,3.618,3.618,0,0,1,2.519-.809,30.331,30.331,0,0,1,3.7.4V16H37.08ZM43.471,16H41.454V7.019h2.017ZM41.33,4.686a1.071,1.071,0,0,1,.295-.772,1.113,1.113,0,0,1,.843-.307,1.127,1.127,0,0,1,.847.307,1.062,1.062,0,0,1,.3.772,1.038,1.038,0,0,1-.3.76,1.136,1.136,0,0,1-.847.3,1.122,1.122,0,0,1-.843-.3A1.046,1.046,0,0,1,41.33,4.686Zm8.027,9.87a1.824,1.824,0,0,0,1.253-.44,1.5,1.5,0,0,0,.531-1.087h1.9a2.963,2.963,0,0,1-.523,1.565,3.43,3.43,0,0,1-1.328,1.15,3.958,3.958,0,0,1-1.81.423,3.829,3.829,0,0,1-2.988-1.22,4.84,4.84,0,0,1-1.1-3.37v-.208a4.759,4.759,0,0,1,1.1-3.283,3.8,3.8,0,0,1,2.988-1.233,3.69,3.69,0,0,1,2.611.934,3.345,3.345,0,0,1,1.058,2.453h-1.9a1.847,1.847,0,0,0-.527-1.27,1.7,1.7,0,0,0-1.258-.5,1.775,1.775,0,0,0-1.511.71,3.621,3.621,0,0,0-.54,2.154v.324a3.682,3.682,0,0,0,.527,2.179A1.773,1.773,0,0,0,49.356,14.556Zm7.736-9.72V7.019h1.585V8.513H57.093v5.014a1.1,1.1,0,0,0,.2.743.943.943,0,0,0,.726.228,3.107,3.107,0,0,0,.706-.083v1.561a4.968,4.968,0,0,1-1.328.191q-2.324,0-2.324-2.565V8.513H53.6V7.019h1.478V4.835Zm2.5,6.591a5.3,5.3,0,0,1,.523-2.378,3.819,3.819,0,0,1,1.469-1.627,4.14,4.14,0,0,1,2.175-.569,3.923,3.923,0,0,1,2.951,1.17,4.6,4.6,0,0,1,1.224,3.1l.008.473a5.343,5.343,0,0,1-.51,2.374,3.773,3.773,0,0,1-1.461,1.619,4.17,4.17,0,0,1-2.2.573A3.9,3.9,0,0,1,60.733,14.9a4.848,4.848,0,0,1-1.141-3.374Zm2.017.174a3.619,3.619,0,0,0,.573,2.171,1.862,1.862,0,0,0,1.594.784,1.842,1.842,0,0,0,1.59-.8,4,4,0,0,0,.569-2.333,3.572,3.572,0,0,0-.585-2.158,1.973,1.973,0,0,0-3.158-.012A3.922,3.922,0,0,0,61.608,11.6Z" transform="translate(380 3531)" fill="#12263f"/>
    <g id="Grupo_161253" data-name="Grupo 161253" transform="translate(748 3366.184)">
      <g id="Grupo_161252" data-name="Grupo 161252" clip-path="url(#clip-path-7)">
        <path id="Trazado_603140" data-name="Trazado 603140" d="M35.481,76.538c-3.73,3.909-7.986,5.241-13.142,3.851.034.413.049.774.094,1.132.306,2.438.648,4.871.92,7.313a4.859,4.859,0,0,1-5.064,5.609q-6.585.021-13.17,0A4.91,4.91,0,0,1,.062,88.632q1.56-12.167,3.07-24.341c.288-2.305,1.2-3.265,3.556-3.628V59.029c-2.116.137-4.112-.084-5.544-1.865A4.99,4.99,0,0,1,0,53.746c.119-3.06,2.159-4.57,6.327-4.863.657-.986,1.05-2.08,1.828-2.605a7.65,7.65,0,0,1,2.972-.72,10.485,10.485,0,0,1,1.683-.016c2.489,0,3.553.853,4.126,3.345,5.838.115,8.079,4.1,9.338,8.936,1.326-2.089,2.484-4.222,3.941-6.125a12.049,12.049,0,0,1,6.1-3.894,20.418,20.418,0,0,1-4.966-8.58,27.447,27.447,0,0,1-.965-6.1c-.137-4.914-.077-9.835-.039-14.752A18.517,18.517,0,0,1,48.695.025a86.7,86.7,0,0,1,9.572.225A18.22,18.22,0,0,1,73.951,15.983a88.388,88.388,0,0,1,.222,9.047c0,3.4.072,6.821-.176,10.211a20.216,20.216,0,0,1-5.235,11.94c-.158.182-.3.376-.505.631a12.168,12.168,0,0,1,6.07,3.905c1.435,1.88,2.58,3.982,3.883,6.036.278-.758.615-1.6.9-2.467,1.347-4.061,4.151-6.2,8.158-6.4.649-.979,1.037-2.088,1.817-2.6a8.22,8.22,0,0,1,3.076-.727,9.67,9.67,0,0,1,1.578-.015c2.5,0,3.572.86,4.131,3.372,2.027-.121,4,.056,5.441,1.783a4.994,4.994,0,0,1,1.216,3.391c-.057,3.105-2.069,4.631-6.665,5.009v1.509c2.575.6,3.222,1.288,3.558,3.923q1.552,12.168,3.066,24.34a4.849,4.849,0,0,1-5,5.574q-6.638.028-13.276,0A4.9,4.9,0,0,1,81.2,88.6q.491-3.705.952-7.415a5.888,5.888,0,0,0,0-.726c-6.268.955-7.221.683-13.118-3.782-.318,1.845-.484,3.661-.965,5.39-.629,2.262-.073,3.763,1.724,5.412a35.958,35.958,0,0,1,9.959,16.705,2.284,2.284,0,0,1,.043.345H24.571c.792-2.053,1.47-4.06,2.33-5.986a36.175,36.175,0,0,1,9.351-12.578,1.521,1.521,0,0,0,.556-1.636c-.458-2.507-.861-5.025-1.327-7.788M60.7,49.32c0,1.14.012,2.016,0,2.892a5.053,5.053,0,0,1-5.153,5.13c-1.791.021-3.588.09-5.372-.025a2.629,2.629,0,0,0-2.7,1.371c3.206,2.556,3.915,5.72,2.178,9.468.3.178.564.337.83.493a6.72,6.72,0,0,1,3.2,7.766,41.808,41.808,0,0,1-2.134,4.831c-6.766-1.2-9.247-6.058-6.835-11.087-4.427-3.047-4.892-4.591-3.16-10.6a10.436,10.436,0,0,1-4.508-8.372c-5.363,1.624-6.458,6.543-8.761,10.663l5.484,2.35V60.72h3.306c.057,8.078,2.013,15.758,3.1,23.544h24.2c1.1-7.852,3.048-15.532,3.1-23.468h3.368v3.378L76.364,61.8a84.755,84.755,0,0,0-4.337-7.529A8.573,8.573,0,0,0,68.292,51.5a77.716,77.716,0,0,0-7.6-2.184m-1.213-7.246c.045.2.084.361.121.527.737,3.288.733,3.3,4.063,4.017a1.524,1.524,0,0,0,1.177-.3,17.4,17.4,0,0,0,5.927-12.714c.139-5.23.116-10.468.013-15.7A14.935,14.935,0,0,0,57.961,3.621a75.789,75.789,0,0,0-9.148-.226,15.144,15.144,0,0,0-15.089,15.1q-.042,7.218,0,14.437A18,18,0,0,0,37.819,44.4c.825,1.026,2.112,1.836,2.537,2.985.446,1.207.062,2.706.13,4.073a6.457,6.457,0,0,0,2.833,5.159,1.056,1.056,0,0,0,.9.1A5.316,5.316,0,0,0,46.9,50.209a9.236,9.236,0,0,0-2.033-2.875,1.914,1.914,0,0,1-.589-2.2c.338-.986.528-2.022.787-3.055-.222-.147-.392-.265-.568-.375a14.445,14.445,0,0,1-7.24-11.265c-.312-3.451-.148-6.946-.16-10.422-.018-4.952,1.87-7.591,6.54-9.214a1.983,1.983,0,0,0,.277-.149V6.808H47.1a31.594,31.594,0,0,0,.343,3.683A3.708,3.708,0,0,0,49.712,13.1a3.857,3.857,0,0,0,3.614-.089c-1.206-1.954-1.144-4.064-1-6.2h3.315c0,.809-.013,1.573,0,2.336a4.122,4.122,0,0,0,2.592,3.987,4.035,4.035,0,0,0,4.737-.941A16.718,16.718,0,0,0,64.3,10.537l2.615,2.448-1.371,1.493A11.011,11.011,0,0,1,67.453,21.4c-.061,2.035-.059,4.076,0,6.111.171,6.357-2.451,11.177-7.967,14.562m15.542,59.072a3.06,3.06,0,0,0-.11-.445,33.737,33.737,0,0,0-9.381-12.644,1.9,1.9,0,0,0-1.145-.34q-12.109-.029-24.217.005a2.187,2.187,0,0,0-1.309.462A33.818,33.818,0,0,0,29.833,100.2c-.132.294-.236.6-.372.949ZM64.249,24.8l-.183-.015c0-1.509.111-3.03-.037-4.525a15.959,15.959,0,0,0-.869-3.209c-.17-.529-.527-.7-1.149-.51a7.437,7.437,0,0,1-5.805-.624,1.3,1.3,0,0,0-1.018.008,7.608,7.608,0,0,1-9.339-1.572,1.265,1.265,0,0,0-.874-.37A5.065,5.065,0,0,0,40.473,19c-.031,3.3-.013,6.6,0,9.9a11.226,11.226,0,0,0,.169,1.671A11.8,11.8,0,0,0,51.53,40.459a11.621,11.621,0,0,0,12.076-8.77,50.572,50.572,0,0,0,.643-6.884M75.2,65.976c-1.6.689-2.962,1.242-4.288,1.875a1.332,1.332,0,0,0-.594.847c-.75,3.641-.74,3.643,1.913,6.225.151.147.3.3.461.432a8.572,8.572,0,0,0,9.239,1.509,1.284,1.284,0,0,0,.923-1.217c.418-3.661.961-7.308,1.335-10.973.226-2.222,1.125-3.714,3.407-4.007V52.323A4.961,4.961,0,0,0,82.649,55.5c-.629,1.56-1.163,3.158-1.739,4.739l-3.456,9.472L74.32,68.572l.877-2.6m-58.29-5.327c2.343.552,3.061,1.34,3.362,3.7.485,3.795.941,7.592,1.467,11.381a1.56,1.56,0,0,0,.774,1.047,8.355,8.355,0,0,0,9.314-1.422,32.1,32.1,0,0,0,2.54-2.522,1.3,1.3,0,0,0,.347-.9c-.118-1.115-.309-2.223-.508-3.328-.045-.247-.178-.594-.368-.681-1.419-.649-2.863-1.243-4.492-1.937l.862,2.6-3.121,1.119c-.406-1.1-.786-2.109-1.155-3.125-1.307-3.59-2.59-7.19-3.924-10.771a4.869,4.869,0,0,0-5.1-3.439ZM3.419,89.116c2.149-1.789,4.061-3.417,6.019-4.987a1.705,1.705,0,0,0,.69-1.513c-.023-5.824-.014-11.648-.014-17.472V64.137H6.539c-1.031,8.255-2.058,16.477-3.12,24.979M98,64.164h-3.58V65.38c0,5.613.027,11.227-.026,16.84a2.454,2.454,0,0,0,1.045,2.2c1.862,1.46,3.653,3.009,5.674,4.69C100.054,80.63,99.03,72.428,98,64.164m-10.33-.03c-1.03,8.256-2.053,16.447-3.112,24.932,2.083-1.77,3.9-3.356,5.774-4.881a1.831,1.831,0,0,0,.731-1.6c-.024-5.8-.013-11.593-.016-17.39,0-.34-.03-.68-.048-1.057ZM19.975,89.05l-3.11-24.894h-3.38v1.2c0,4.883.17,9.775-.068,14.646-.128,2.62.547,4.453,2.751,5.876a40.748,40.748,0,0,1,3.808,3.17M50.345,53.97c1.854,0,3.57.03,5.283-.011a1.638,1.638,0,0,0,1.687-1.765A28.466,28.466,0,0,0,57.3,48.3c-.186-1.649-.583-3.275-.911-5.026a15.656,15.656,0,0,1-8.329-.011c0,.93-.316,1.944.053,2.382a9.4,9.4,0,0,1,2.236,8.322M10.187,60.634H13.43V48.961H10.187ZM94.345,49H91.1V60.673h3.244ZM6.453,90.984H17.026L11.793,86.54l-5.34,4.443m91.714.092L92.745,86.53l-5.325,4.546H98.167ZM44.747,61.193c-1.644,2.39-.894,5.1,1.6,5.772,1.549-2.49.873-4.937-1.6-5.772m4.915,15.963c1.616-2.532.961-4.944-1.532-5.851-1.644,2.323-1.03,4.743,1.532,5.851M6.687,55.633V52.315c-1.1.026-2.31-.409-2.973.747a2.152,2.152,0,0,0,0,1.819c.661,1.158,1.875.727,2.976.752m91.1-3.27V55.6c2.4.171,3.373-.33,3.364-1.639s-1.014-1.816-3.364-1.6" transform="translate(0 0)" fill="#144567"/>
        <path id="Trazado_603141" data-name="Trazado 603141" d="M155.742,96.056h16.764c.321,3.59-.662,6.6-3.717,8.62a7.93,7.93,0,0,1-9.03.182c-3.261-1.981-4.329-5.055-4.017-8.8m13.018,3.4H159.5a4.9,4.9,0,0,0,9.256,0" transform="translate(-111.861 -69.015)" fill="#144567"/>
        <path id="Trazado_603142" data-name="Trazado 603142" d="M203.655,73.537a1.679,1.679,0,1,1,1.6,1.759,1.7,1.7,0,0,1-1.6-1.759" transform="translate(-146.321 -51.687)" fill="#144567"/>
        <path id="Trazado_603143" data-name="Trazado 603143" d="M157.461,75.3a1.678,1.678,0,1,1,1.636-1.72,1.694,1.694,0,0,1-1.636,1.72" transform="translate(-111.899 -51.691)" fill="#144567"/>
      </g>
    </g>
  </g>
</svg>
