<svg xmlns="http://www.w3.org/2000/svg" xmlns:xlink="http://www.w3.org/1999/xlink" width="1031" height="424" viewBox="0 0 1031 424">
  <defs>
    <clipPath id="clip-path">
      <rect id="Rectángulo_47178" data-name="Rectángulo 47178" width="53.413" height="63.742" fill="#144567"/>
    </clipPath>
    <clipPath id="clip-path-2">
      <rect id="Rectángulo_47179" data-name="Rectángulo 47179" width="62.06" height="63.742" fill="#144567"/>
    </clipPath>
    <clipPath id="clip-path-3">
      <rect id="Rectángulo_47180" data-name="Rectángulo 47180" width="67.91" height="54.838" fill="#144567"/>
    </clipPath>
    <clipPath id="clip-path-4">
      <rect id="Rectángulo_47181" data-name="Rectángulo 47181" width="64.518" height="64.53" fill="#144567"/>
    </clipPath>
    <clipPath id="clip-path-5">
      <rect id="Rectángulo_47198" data-name="Rectángulo 47198" width="59.774" height="59.805" fill="#144567"/>
    </clipPath>
  </defs>
  <g id="Grupo_161251" data-name="Grupo 161251" transform="translate(-284 -2009)">
    <g id="Rectángulo_47132" data-name="Rectángulo 47132" transform="translate(579 2009)" fill="none" stroke="#144567" stroke-width="2" stroke-dasharray="3">
      <rect width="440" height="424" stroke="none"/>
      <rect x="1" y="1" width="438" height="422" fill="none"/>
    </g>
    <path id="Trazado_603048" data-name="Trazado 603048" d="M68.089,0H516V116H0Z" transform="translate(284 2025)" fill="#def8f3"/>
    <path id="Trazado_603049" data-name="Trazado 603049" d="M68.089,0H516V116H0Z" transform="translate(284 2297.745)" fill="#def8f3"/>
    <path id="Trazado_603050" data-name="Trazado 603050" d="M68.089,0H516V116H0Z" transform="translate(1315 2277) rotate(180)" fill="#def8f3"/>
    <path id="Trazado_603051" data-name="Trazado 603051" d="M26.338,0,0,45.618,26.338,91.236H79.013l26.338-45.618L79.013,0Z" transform="translate(311.324 2037.416)" fill="#144567"/>
    <path id="Trazado_603052" data-name="Trazado 603052" d="M26.338,0,0,45.618,26.338,91.236H79.013l26.338-45.618L79.013,0Z" transform="translate(311.324 2310.161)" fill="#144567"/>
    <path id="Trazado_603053" data-name="Trazado 603053" d="M26.337,0,0,45.618,26.337,91.236H79.013l26.338-45.618L79.013,0Z" transform="translate(1287.675 2264.951) rotate(180)" fill="#833343"/>
    <path id="Intersección_3" data-name="Intersección 3" d="M23.017,92.07,0,52.2,30.64,0H76.172l26.579,46.035L76.172,92.07Z" transform="translate(314 2037)" fill="#fff"/>
    <path id="Intersección_4" data-name="Intersección 4" d="M23.017,92.07,0,52.2,30.64,0H76.172l26.579,46.035L76.172,92.07Z" transform="translate(314 2310)" fill="#fff"/>
    <path id="Intersección_5" data-name="Intersección 5" d="M23.017,92.07,0,52.2,30.64,0H76.172l26.579,46.035L76.172,92.07Z" transform="translate(1284.751 2265.07) rotate(180)" fill="#fff"/>
    <path id="Trazado_603058" data-name="Trazado 603058" d="M447.911,0H0V116H516Z" transform="translate(799 2025)" fill="#f6efe9"/>
    <path id="Trazado_603059" data-name="Trazado 603059" d="M79.013,0l26.337,45.618L79.013,91.236H26.338L0,45.618,26.338,0Z" transform="translate(1182.324 2037.416)" fill="#144567"/>
    <path id="Intersección_4-2" data-name="Intersección 4" d="M23.017,0,0,39.87l30.64,52.2H76.172l26.579-46.035L76.172,0Z" transform="translate(1284.751 2129.07) rotate(180)" fill="#fff"/>
    <path id="Trazado_603060" data-name="Trazado 603060" d="M447.911,0H0V116H516Z" transform="translate(800 2277) rotate(180)" fill="#f6efe9"/>
    <path id="Trazado_603061" data-name="Trazado 603061" d="M79.013,0l26.337,45.618L79.013,91.236H26.338L0,45.618,26.338,0Z" transform="translate(416.675 2264.957) rotate(180)" fill="#833343"/>
    <path id="Intersección_6" data-name="Intersección 6" d="M23.017,0,0,39.87l30.64,52.2H76.172l26.579-46.035L76.172,0Z" transform="translate(314 2173)" fill="#fff"/>
    <text id="Contexto_de_una_organización:_entorno_interno_y_externo_en_el_cual_interactúa_la_organización." data-name="Contexto de una organización: entorno interno y externo, en el cual interactúa la organización." transform="translate(439 2185)" fill="#12263f" font-size="17" font-family="Roboto-Bold, Roboto" font-weight="700"><tspan x="0" y="16">Contexto de una organización: </tspan><tspan y="16" font-family="Roboto-Regular, Roboto" font-weight="400">entorno </tspan><tspan x="0" y="40" font-family="Roboto-Regular, Roboto" font-weight="400">interno y externo, en el cual interactúa la </tspan><tspan x="0" y="64" font-family="Roboto-Regular, Roboto" font-weight="400">organización.</tspan></text>
    <rect id="Rectángulo_47133" data-name="Rectángulo 47133" width="4" height="95" transform="translate(798 2036)" fill="#833343"/>
    <rect id="Rectángulo_47135" data-name="Rectángulo 47135" width="4" height="95" transform="translate(802 2266) rotate(180)" fill="#144567"/>
    <text id="Calidad:_capacidad_de_satisfacer_a_los_clientes_mediante_el_valor_percibido_y_el_beneficio_para_el_cliente._" data-name="Calidad: capacidad de satisfacer a los clientes, mediante el valor percibido y el beneficio para el cliente. " transform="translate(439 2049)" fill="#12263f" font-size="17" font-family="Roboto-Bold, Roboto" font-weight="700"><tspan x="0" y="16">Calidad: </tspan><tspan y="16" font-family="Roboto-Regular, Roboto" font-weight="400">capacidad de satisfacer a los </tspan><tspan x="0" y="40" font-family="Roboto-Regular, Roboto" font-weight="400">clientes, mediante el valor percibido y el </tspan><tspan x="0" y="64" font-family="Roboto-Regular, Roboto" font-weight="400">beneficio para el cliente. </tspan></text>
    <text id="Sistema_de_gestión_de_calidad:_gestiona_los_procesos_que_interactúan_para_generar_valor_a_las_organizaciones." data-name="Sistema de gestión de calidad: gestiona los procesos que interactúan para generar valor a las organizaciones." transform="translate(833 2050)" fill="#12263f" font-size="17" font-family="Roboto-Bold, Roboto" font-weight="700"><tspan x="0" y="16">Sistema de gestión de calidad: </tspan><tspan y="16" font-family="Roboto-Regular, Roboto" font-weight="400">gestiona </tspan><tspan x="0" y="40" font-family="Roboto-Regular, Roboto" font-weight="400">los procesos que interactúan para generar </tspan><tspan x="0" y="64" font-family="Roboto-Regular, Roboto" font-weight="400">valor a las organizaciones.</tspan></text>
    <text id="Partes_interesadas:_son_las_persona_u_organizaciones_que_pueden_afectar_positiva_o_negativamente_la_organización." data-name="Partes interesadas: son las persona u organizaciones que pueden afectar positiva o negativamente la organización." transform="translate(833 2185)" fill="#12263f" font-size="17" font-family="Roboto-Bold, Roboto" font-weight="700"><tspan x="0" y="16">Partes interesadas: </tspan><tspan y="16" font-family="Roboto-Regular, Roboto" font-weight="400">son las persona u </tspan><tspan x="0" y="40" font-family="Roboto-Regular, Roboto" font-weight="400">organizaciones que pueden afectar </tspan><tspan x="0" y="64" font-family="Roboto-Regular, Roboto" font-weight="400">positiva o negativamente la organización.</tspan></text>
    <text id="Apoyo:_el_soporte_del_SGC_son_las_personas_procesos_toma_de_decisiones_y_comunicación._" data-name="Apoyo: el soporte del SGC son las personas, procesos, toma de decisiones y comunicación. " transform="translate(439 2322)" fill="#12263f" font-size="17" font-family="Roboto-Bold, Roboto" font-weight="700"><tspan x="0" y="16">Apoyo:</tspan><tspan y="16" xml:space="preserve" font-family="Roboto-Regular, Roboto" font-weight="400"> el soporte del SGC son las </tspan><tspan x="0" y="40" font-family="Roboto-Regular, Roboto" font-weight="400">personas, procesos, toma de decisiones y </tspan><tspan x="0" y="64" font-family="Roboto-Regular, Roboto" font-weight="400">comunicación. </tspan></text>
    <g id="Grupo_161236" data-name="Grupo 161236" transform="translate(1207 2051)">
      <g id="Grupo_161235" data-name="Grupo 161235" clip-path="url(#clip-path)">
        <path id="Trazado_603122" data-name="Trazado 603122" d="M15.749,63.743a6.112,6.112,0,0,1-.768-.863q-1.237-2.048-2.41-4.136a.642.642,0,0,0-.819-.4c-1.646.329-3.3.622-4.96.858a1.619,1.619,0,0,1-1.111-.328c-.376-.3-.279-.769-.077-1.2q2.684-5.742,5.352-11.491c.095-.2.182-.411.308-.7-.473-.259-.908-.533-1.372-.744-.962-.436-1.938-.842-2.91-1.254-3.546-1.5-4.915-3.922-4.395-7.743a28.169,28.169,0,0,0,.39-3.457,6.125,6.125,0,0,0-.484-2.331c-.487-1.184-1.14-2.3-1.711-3.45A6.362,6.362,0,0,1,2.144,18.67q1.35-1.29,2.726-2.552a4.648,4.648,0,0,0,1.447-2.48c.3-1.355.612-2.708.965-4.049a6.331,6.331,0,0,1,5.872-4.74c1.388-.07,2.775-.157,4.163-.241a4.431,4.431,0,0,0,2.443-.981q1.462-1.11,2.937-2.2a6.36,6.36,0,0,1,8-.016c1.019.749,2.029,1.511,3.037,2.276a4.55,4.55,0,0,0,2.647.943c1.368.054,2.734.146,4.1.236a6.4,6.4,0,0,1,5.758,5.123c.29,1.23.589,2.457.863,3.691a4.48,4.48,0,0,0,1.379,2.38Q49.9,17.368,51.3,18.7a6.365,6.365,0,0,1,1.373,7.735c-.475.967-.923,1.951-1.465,2.879a5.671,5.671,0,0,0-.706,3.945c.181,1.082.27,2.18.4,3.271a6.314,6.314,0,0,1-3.656,6.6c-1.276.594-2.586,1.116-3.874,1.686-.373.165-.722.385-1.124.6.828,1.784,1.627,3.507,2.428,5.229,1.074,2.31,2.144,4.622,3.23,6.927a1.146,1.146,0,0,1,.018,1.285,1.175,1.175,0,0,1-1.3.342c-1.631-.3-3.269-.557-4.9-.867a.543.543,0,0,0-.688.317c-.809,1.423-1.625,2.843-2.472,4.244a5.637,5.637,0,0,1-.783.85h-.623a6.644,6.644,0,0,1-.744-1.024q-2.31-4.884-4.568-9.793a1.057,1.057,0,0,0-.745-.65c-1.017-.283-2.026-.595-3.033-.909a4.515,4.515,0,0,0-2.809.023c-.906.292-1.818.57-2.738.812a1.169,1.169,0,0,0-.828.734q-2.26,4.907-4.569,9.792a6.213,6.213,0,0,1-.759,1.014Zm17.6-12.921a4.553,4.553,0,0,0,4.094-2.011q1.076-1.6,2.111-3.226a6.682,6.682,0,0,1,3.181-2.675c1.207-.5,2.408-1.007,3.594-1.549a4.31,4.31,0,0,0,2.589-4.7c-.143-1.11-.236-2.227-.41-3.332a7.247,7.247,0,0,1,.861-4.8c.533-.958,1-1.952,1.492-2.936a4.337,4.337,0,0,0-.963-5.483q-1.372-1.311-2.766-2.6a6.577,6.577,0,0,1-2-3.506q-.415-1.88-.878-3.75a4.3,4.3,0,0,0-3.882-3.406c-1.324-.093-2.649-.188-3.975-.232a6.645,6.645,0,0,1-3.914-1.389q-1.509-1.15-3.038-2.273a4.33,4.33,0,0,0-5.518.029Q22.379,4.141,20.839,5.3a6.244,6.244,0,0,1-3.377,1.293c-1.365.094-2.732.17-4.1.241A4.323,4.323,0,0,0,9.147,10.31c-.3,1.227-.593,2.456-.865,3.689a6.627,6.627,0,0,1-2.035,3.554c-.9.827-1.789,1.67-2.676,2.513A4.359,4.359,0,0,0,2.6,25.7c.576,1.148,1.16,2.292,1.733,3.441a5.956,5.956,0,0,1,.65,3.31c-.141,1.381-.306,2.76-.476,4.139A4.35,4.35,0,0,0,7.3,41.462c1.142.491,2.277,1,3.426,1.468a6.539,6.539,0,0,1,3.094,2.591q1.024,1.6,2.075,3.175a4.321,4.321,0,0,0,5.131,1.886c1.232-.359,2.46-.735,3.687-1.112a6.594,6.594,0,0,1,3.978,0c.435.135.869.273,1.307.4,1.249.36,2.5.714,3.352.957M45.42,56.955l-4.542-9.747c-.453.692-.866,1.264-1.219,1.871a6.8,6.8,0,0,1-5.667,3.731l3.623,7.783c.761-1.308,1.475-2.518,2.17-3.739a1.167,1.167,0,0,1,1.393-.638c1.359.267,2.729.479,4.243.74M15.944,60.6l3.607-7.759a6.468,6.468,0,0,1-4.558-2.083,23.655,23.655,0,0,1-1.486-2.067c-.29-.415-.564-.84-.9-1.336L8.163,56.9c.257-.015.422-.01.58-.038,1.185-.2,2.368-.414,3.552-.622.862-.151,1.08-.054,1.521.7.69,1.179,1.375,2.361,2.127,3.653" transform="translate(0 -0.001)" fill="#144567"/>
        <path id="Trazado_603123" data-name="Trazado 603123" d="M76.128,91.181A16.848,16.848,0,1,1,92.966,74.3,16.854,16.854,0,0,1,76.128,91.181M76.12,89.19A14.857,14.857,0,1,0,61.254,74.3,14.864,14.864,0,0,0,76.12,89.19" transform="translate(-49.409 -47.927)" fill="#144567"/>
        <path id="Trazado_603124" data-name="Trazado 603124" d="M104.972,118.11c2.414-2.342,4.751-4.606,7.085-6.875a3.344,3.344,0,1,1,4.754,4.7c-2.218,2.267-4.456,4.516-6.686,6.771-.831.84-1.658,1.684-2.5,2.516a3.337,3.337,0,0,1-4.972.019q-2.564-2.538-5.1-5.1a3.344,3.344,0,0,1,2.056-5.692,3.269,3.269,0,0,1,2.752,1.038c.906.908,1.808,1.82,2.608,2.625m10.881-4.393a1.378,1.378,0,0,0-2.489-.967q-3.629,3.672-7.267,7.334c-.758.763-1.187.764-1.937.016-1.072-1.068-2.134-2.147-3.215-3.206a1.334,1.334,0,0,0-1.99-.066,1.349,1.349,0,0,0,.055,1.949q2.533,2.569,5.1,5.1a1.315,1.315,0,0,0,2.034,0q4.63-4.65,9.229-9.331a3.23,3.23,0,0,0,.48-.829" transform="translate(-80.502 -91.852)" fill="#144567"/>
      </g>
    </g>
    <g id="Grupo_161238" data-name="Grupo 161238" transform="translate(334 2051)">
      <g id="Grupo_161237" data-name="Grupo 161237" clip-path="url(#clip-path-2)">
        <path id="Trazado_603125" data-name="Trazado 603125" d="M54.87,124.154c1.592.719,3.266,1.335,4.794,2.206,1.511.862,2.875,1.983,4.307,2.992a22.449,22.449,0,0,1,1.739-1.635c4.094-3.153,8.57-3.76,13.185-1.445a11.556,11.556,0,0,1,6.736,11.422,12.108,12.108,0,0,1-12.889,11.68,11.868,11.868,0,0,1-9.452-5.416,1.192,1.192,0,0,0-1.138-.591q-16.131.025-32.262.012c-1.212,0-1.543-.369-1.383-1.551.069-.508.131-1.02.248-1.519q2.8-12.005,14.519-15.866l.583-.195c-3.926-2.517-5.956-6.023-5.634-10.672a10.628,10.628,0,0,1,4.052-7.676,11.122,11.122,0,1,1,12.6,18.253m7.817,7.111a18.806,18.806,0,0,0-20.008-4.478,18.475,18.475,0,0,0-11.945,14.484H61.857c-1.006-4.763-.915-5.834.83-10.006m-13.408-7.709a9.051,9.051,0,1,0-9.051-9.029,9.091,9.091,0,0,0,9.051,9.029m34.335,13.6a10.18,10.18,0,1,0-10.159,10.194,10.159,10.159,0,0,0,10.159-10.194" transform="translate(-23.579 -85.653)" fill="#144567"/>
        <path id="Trazado_603126" data-name="Trazado 603126" d="M107.625,14.018c-1.177.77-2.313,1.5-3.43,2.249a1.539,1.539,0,0,1-1.9.179c-.573-.392-.7-.947-.437-1.9.3-1.114.585-2.234.921-3.338a.8.8,0,0,0-.346-1.014c-.974-.735-1.9-1.528-2.864-2.28a1.423,1.423,0,0,1-.591-1.632,1.4,1.4,0,0,1,1.426-.987c1.219-.058,2.439-.148,3.658-.15a.826.826,0,0,0,.9-.668c.406-1.149.867-2.277,1.287-3.421a1.413,1.413,0,0,1,2.737.007c.44,1.182.908,2.354,1.332,3.541a.683.683,0,0,0,.737.531c1.22.025,2.439.091,3.658.154.868.044,1.371.367,1.552,1a1.482,1.482,0,0,1-.658,1.67c-.994.78-1.984,1.565-2.946,2.383a.813.813,0,0,0-.218.673c.293,1.226.63,2.442.97,3.657a1.489,1.489,0,0,1-.432,1.743,1.44,1.44,0,0,1-1.837-.095c-1.167-.757-2.328-1.521-3.527-2.305m-5.531-6.733c.81.656,1.449,1.222,2.137,1.718a1.7,1.7,0,0,1,.7,2.121c-.27.834-.46,1.694-.717,2.666.911-.594,1.706-1.1,2.484-1.626a1.483,1.483,0,0,1,1.845,0c.439.306.893.591,1.343.879.325.208.656.406,1.146.708-.276-1.017-.47-1.847-.73-2.655a1.674,1.674,0,0,1,.689-2.067c.7-.512,1.353-1.082,2.174-1.745-1.046-.046-1.9-.107-2.749-.115A1.717,1.717,0,0,1,108.6,5.852c-.265-.83-.614-1.633-.978-2.582-.331.867-.606,1.585-.879,2.3-.539,1.414-.718,1.539-2.255,1.6-.737.03-1.474.068-2.393.11" transform="translate(-81.928 0)" fill="#144567"/>
        <path id="Trazado_603127" data-name="Trazado 603127" d="M8.682,38.027a1.4,1.4,0,0,1,1.383,1c.458,1.2.924,2.392,1.353,3.6a.7.7,0,0,0,.74.541c1.219.033,2.438.1,3.657.155.853.038,1.365.354,1.551,1a1.475,1.475,0,0,1-.653,1.67c-.976.767-1.932,1.559-2.911,2.322a.633.633,0,0,0-.272.8c.359,1.186.66,2.389.98,3.587.228.852.085,1.394-.477,1.778a1.462,1.462,0,0,1-1.786-.118c-1.049-.7-2.117-1.376-3.162-2.085a.556.556,0,0,0-.735,0c-1.063.719-2.142,1.414-3.22,2.111a1.375,1.375,0,0,1-1.779.056A1.434,1.434,0,0,1,2.9,52.767c.344-1.213.66-2.434,1.01-3.645a.645.645,0,0,0-.264-.809c-.952-.728-1.875-1.493-2.808-2.246-.754-.609-.978-1.152-.752-1.808.213-.618.739-.908,1.661-.944,1.177-.045,2.352-.118,3.529-.152a.691.691,0,0,0,.74-.535c.427-1.209.909-2.4,1.36-3.6a1.376,1.376,0,0,1,1.308-1m5.568,7.286c-1.094-.059-2-.135-2.913-.15a1.588,1.588,0,0,1-1.61-1.206c-.3-.849-.634-1.683-1.007-2.664-.392,1.022-.74,1.892-1.059,2.772a1.5,1.5,0,0,1-1.487,1.09c-.931.031-1.861.1-2.975.16.829.671,1.5,1.252,2.212,1.781a1.626,1.626,0,0,1,.636,1.968c-.26.866-.475,1.746-.744,2.749.838-.546,1.579-.977,2.262-1.485a1.746,1.746,0,0,1,2.338.018c.669.5,1.4.918,2.233,1.457-.263-.975-.434-1.791-.706-2.572A1.74,1.74,0,0,1,12.141,47c.685-.489,1.317-1.051,2.11-1.692" transform="translate(0 -31.497)" fill="#144567"/>
        <path id="Trazado_603128" data-name="Trazado 603128" d="M215.252,44.89a6.181,6.181,0,0,1-.809,1.072c-.956.825-1.952,1.6-2.949,2.378a.632.632,0,0,0-.266.8c.358,1.186.663,2.389.983,3.586a1.438,1.438,0,0,1-.484,1.778,1.465,1.465,0,0,1-1.786-.123c-1.031-.69-2.084-1.349-3.107-2.05a.636.636,0,0,0-.844,0c-1.043.71-2.114,1.38-3.163,2.082a1.419,1.419,0,0,1-2.23-1.629c.325-1.218.651-2.437,1.007-3.646a.641.641,0,0,0-.27-.805c-1-.771-1.977-1.572-2.956-2.37a1.422,1.422,0,0,1-.6-1.685,1.466,1.466,0,0,1,1.467-.938c1.241-.043,2.481-.12,3.722-.155a.692.692,0,0,0,.738-.539c.421-1.188.9-2.356,1.337-3.538a1.415,1.415,0,0,1,2.736,0c.45,1.2.893,2.4,1.387,3.587a.892.892,0,0,0,.625.458c1.28.1,2.565.128,3.848.193a1.609,1.609,0,0,1,1.608,1.535m-8.837-3.567c-.377.988-.719,1.816-1.01,2.662a1.583,1.583,0,0,1-1.609,1.207c-.909.017-1.816.093-2.906.153.787.635,1.408,1.186,2.081,1.666a1.749,1.749,0,0,1,.736,2.222c-.277.811-.451,1.657-.7,2.608.763-.5,1.448-.866,2.043-1.347a1.97,1.97,0,0,1,2.775.021c.587.466,1.252.832,2.012,1.329-.263-.98-.428-1.8-.705-2.579a1.767,1.767,0,0,1,.755-2.271c.668-.475,1.286-1.022,2.067-1.65-1.148-.063-2.1-.124-3.055-.165a1.435,1.435,0,0,1-1.4-1.026c-.334-.9-.686-1.795-1.083-2.829" transform="translate(-163.746 -31.526)" fill="#144567"/>
        <path id="Trazado_603129" data-name="Trazado 603129" d="M251.149,270.6a4.739,4.739,0,0,1,.45-.677c1.393-1.422,2.783-2.848,4.2-4.243a2.677,2.677,0,0,1,3.824,3.748q-3.288,3.385-6.636,6.713a2.631,2.631,0,0,1-3.851-.036q-1.812-1.774-3.588-3.586a2.685,2.685,0,1,1,3.808-3.784c.563.551,1.092,1.136,1.79,1.866m-.078,4.35a2.673,2.673,0,0,0,.513-.314q3.261-3.274,6.507-6.563a.615.615,0,0,0,.027-.963.6.6,0,0,0-.908.069c-.122.12-.243.24-.364.362q-2.441,2.46-4.883,4.919a1.079,1.079,0,0,1-1.769,0c-.733-.719-1.456-1.449-2.179-2.178-.318-.32-.672-.53-1.05-.145s-.161.733.159,1.05c1.124,1.116,2.238,2.24,3.364,3.352a4.3,4.3,0,0,0,.583.409" transform="translate(-202.692 -219.39)" fill="#144567"/>
      </g>
    </g>
    <g id="Grupo_161240" data-name="Grupo 161240" transform="translate(333 2330.373)">
      <g id="Grupo_161239" data-name="Grupo 161239" clip-path="url(#clip-path-3)">
        <path id="Trazado_603130" data-name="Trazado 603130" d="M0,10.827A17.525,17.525,0,0,1,.575,9.005,6.672,6.672,0,0,1,9.043,5.444c.163.061.322.133.3-.028C9.862,5,10.387,4.6,10.9,4.18A7.48,7.48,0,0,1,18.351,2.76a.85.85,0,0,0,1.026-.2A9.063,9.063,0,0,1,34.2,5.987a.986.986,0,0,0,.96.761,18.116,18.116,0,0,1,15.085,13.71c.169.732.41,1,1.2.96,1.651-.077,3.308-.023,5.07-.023,0-.767.013-1.485,0-2.2a1.434,1.434,0,0,1,2.475-1.235c2.681,1.985,5.373,3.955,8.058,5.934,1.162.857,1.151,1.793-.031,2.651-2.683,1.945-5.373,3.88-8.052,5.83a1.429,1.429,0,0,1-2.449-1.23c.014-.68,0-1.36,0-2.079H53.369c.364.662.695,1.269,1.031,1.872a2.8,2.8,0,0,1-2.5,4.251c-.879.008-1.758,0-2.724,0,0,1.186.01,2.305,0,3.425a5.746,5.746,0,0,1-2.42,4.842,5.368,5.368,0,0,1-3.148,1.069c-1.039.015-2.078.022-3.116,0-.4-.008-.554.12-.541.528.024.7.007,1.406.007,2.216.733,0,1.408,0,2.084,0a2.334,2.334,0,0,1,2.586,2.582c.009.84.017,1.68,0,2.52a2.325,2.325,0,0,1-2.463,2.454c-.972.017-1.945.011-2.917,0-.785-.009-1.224-.375-1.228-.995s.419-.982,1.215-.989c.928-.008,1.857-.014,2.785,0,.455.008.638-.182.628-.632-.016-.729-.037-1.461.006-2.188.037-.628-.222-.78-.813-.778-5.437.019-10.874.011-16.311.011-1.1,0-2.21.017-3.315-.007-.488-.011-.678.168-.662.655.023.729.034,1.46,0,2.188-.03.591.214.759.779.756,3.823-.018,7.647-.009,11.47-.008a4.692,4.692,0,0,1,.728.026.88.88,0,0,1,.793.845.891.891,0,0,1-.645,1.027,2.373,2.373,0,0,1-.717.086q-5.868.007-11.736,0a2.367,2.367,0,0,1-2.652-2.6c-.009-.818-.013-1.636,0-2.454a2.313,2.313,0,0,1,2.529-2.5c.305,0,.611,0,.932,0a1.252,1.252,0,0,0,.084-.289c0-1.7.021-3.4-.01-5.106-.018-1-.1-1.04-1.058-1.04-1.039,0-2.077,0-3.116,0-.9,0-1.347-.341-1.335-1.006.012-.645.475-.978,1.374-.982.638,0,1.276,0,2.109,0-.4-.37-.7-.61-.95-.888-.7-.765-1.407-1.527-2.063-2.329a1,1,0,0,0-.878-.439c-2.011.018-4.022.012-6.034.007-1.3,0-1.747-.461-1.752-1.762,0-.433,0-.865,0-1.446L2.431,37.029,9.4,42.158c0-.7-.009-1.253,0-1.809a1.358,1.358,0,0,1,1.478-1.495c.972-.022,1.945-.019,2.917,0a1,1,0,0,1,1.107.978c.01.612-.4.988-1.138,1-.767.013-1.535,0-2.379,0,0,.82-.006,1.565,0,2.31a1.449,1.449,0,0,1-.746,1.444,1.412,1.412,0,0,1-1.6-.223C6.268,42.319,3.487,40.283.718,38.23A6.15,6.15,0,0,1,0,37.488v-.8a5.5,5.5,0,0,1,.81-.93c2.723-2,5.468-3.966,8.2-5.952a1.435,1.435,0,0,1,1.6-.26,1.474,1.474,0,0,1,.78,1.491c-.012.7,0,1.4,0,2.132h5.1a18.519,18.519,0,0,1-2.05-9.115h-.779c-1.811,0-3.622-.021-5.433,0a6.466,6.466,0,0,1-6.656-7.6.76.76,0,0,0-.07-.559A8.08,8.08,0,0,1,0,12.551V10.827M16.452,24.058a15.106,15.106,0,0,0,.964,6.3,15.979,15.979,0,0,0,5.359,7.259,5.629,5.629,0,0,1,2.339,4.867c-.032,1.348-.008,2.7,0,4.045,0,.234.024.467.036.693H37.967c0-.845-.014-1.639,0-2.432a2.127,2.127,0,0,1,2.259-2.239c.994-.012,1.989,0,2.984,0A3.775,3.775,0,0,0,47.186,38.6c.012-1.083-.009-2.167.006-3.249a2.045,2.045,0,0,1,2.115-2.144c.8-.022,1.591,0,2.387-.008,1.074-.011,1.382-.548.853-1.5-1.087-1.947-2.206-3.877-3.254-5.845a4.539,4.539,0,0,1-.493-1.746A16.1,16.1,0,0,0,39.249,9.978a13.775,13.775,0,0,0-4.44-1.268l-.2,2.443c.3.016.556.031.817.044A6.419,6.419,0,0,1,41.5,16.829a6.264,6.264,0,0,1-4.811,6.959,32.031,32.031,0,0,1-5.275.261c-.784.022-1.223-.371-1.227-.991s.421-.983,1.216-.988c1.238-.009,2.476.027,3.713-.012a4.444,4.444,0,1,0-.093-8.887c-.486-.007-.973,0-1.459,0-1.222-.012-1.605-.543-1.2-1.693a6.743,6.743,0,0,0,.326-3.459,6.794,6.794,0,0,0-5.111-5.749,6.793,6.793,0,0,0-7.43,2.379c-.565.665-.857.729-1.665.317a5.519,5.519,0,0,0-3.008-.628,5.576,5.576,0,0,0-4.247,2.429,6.749,6.749,0,0,1,1.13,8.392,6.629,6.629,0,0,1-3.926,2.957,6.82,6.82,0,0,1-4.995-.564c.028.321.03.541.069.755a4.475,4.475,0,0,0,4.669,3.761q8.885.012,17.769,0a5.144,5.144,0,0,1,.728.023.971.971,0,0,1,.132,1.889,3.019,3.019,0,0,1-.786.073c-3.16,0-6.319,0-9.566,0m34.169-.674a13.693,13.693,0,0,0,.475,1.639c.235.544.6,1.031.857,1.566a.729.729,0,0,0,.774.453c1.347-.021,2.694-.011,4.041-.007,1.263,0,1.729.465,1.736,1.707,0,.451,0,.9,0,1.5L65.473,25.2,58.5,20.076c0,.671,0,1.174,0,1.676-.01,1.122-.491,1.617-1.614,1.628-1.391.013-2.782,0-4.174,0h-2.1M1.99,11.7a4.716,4.716,0,0,0,4.7,4.678A4.69,4.69,0,0,0,6.658,7,4.709,4.709,0,0,0,1.99,11.7" transform="translate(0 0)" fill="#144567"/>
        <path id="Trazado_603131" data-name="Trazado 603131" d="M111.144,68.692c-2.119,0-4.237.005-6.356,0-.722,0-1.174-.385-1.2-.967-.023-.61.444-1.015,1.2-1.016q4.469-.006,8.937,0c1.28,0,2.56-.005,3.84,0,.73,0,1.149.374,1.148.986s-.426.994-1.15,1c-2.141.01-4.281,0-6.422,0" transform="translate(-88.847 -57.208)" fill="#144567"/>
        <path id="Trazado_603132" data-name="Trazado 603132" d="M111.13,93.369c-2.1,0-4.191.015-6.286-.015a1.642,1.642,0,0,1-1.011-.342.927.927,0,0,1,.45-1.562,3.112,3.112,0,0,1,.787-.066q6.055-.006,12.11,0c.154,0,.309,0,.463.008.683.058,1.06.44,1.035,1.038a.945.945,0,0,1-1.063.934c-1.367.019-2.735.007-4.1.008H111.13" transform="translate(-88.812 -78.374)" fill="#144567"/>
        <path id="Trazado_603133" data-name="Trazado 603133" d="M109.573,118.152c-1.588,0-3.177,0-4.765,0-.765,0-1.227-.391-1.218-1s.474-.983,1.242-.984q4.732-.007,9.464,0c.792,0,1.224.352,1.235.975.012.65-.428,1.009-1.259,1.011-1.566,0-3.133,0-4.7,0" transform="translate(-88.845 -99.628)" fill="#144567"/>
        <path id="Trazado_603134" data-name="Trazado 603134" d="M25.195,68.308c.643-.653,1.3-1.334,1.975-2,.563-.561,1.114-.619,1.563-.185s.4,1.016-.137,1.564q-1.3,1.321-2.624,2.624c-.621.61-1.081.6-1.708-.014q-.968-.953-1.92-1.922a1,1,0,1,1,1.4-1.4c.446.427.884.863,1.327,1.294.013.013.037.013.122.041" transform="translate(-18.813 -56.463)" fill="#144567"/>
      </g>
    </g>
    <g id="Grupo_161245" data-name="Grupo 161245" transform="translate(1201 2187)">
      <g id="Grupo_161244" data-name="Grupo 161244" clip-path="url(#clip-path-4)">
        <path id="Trazado_603135" data-name="Trazado 603135" d="M64.519,15.25a27.42,27.42,0,0,1-.762,3.167,13.688,13.688,0,0,1-11.612,9.411c-.518.076-.531.312-.53.7q.01,5.858,0,11.717c0,1.411-.3,1.709-1.692,1.709H38.788a.749.749,0,0,0-.083.208,57.931,57.931,0,0,0,.621,11.478c.594,3.088.993,6.213,1.47,9.323.165,1.073-.276,1.562-1.386,1.565q-2.331.006-4.663,0c-1,0-1.329-.308-1.48-1.318q-.448-2.987-.908-5.972a2.866,2.866,0,0,0-.146-.359c-.172,1.068-.32,1.954-.457,2.843-.185,1.2-.355,2.407-.545,3.609-.141.89-.5,1.194-1.394,1.2q-2.394.008-4.788,0c-1.056,0-1.488-.507-1.327-1.561q1.013-6.625,2.04-13.247a2.15,2.15,0,0,0,.054-.31c0-2.453,0-4.907,0-7.455h-.763q-5.292,0-10.585,0c-1.225,0-1.568-.344-1.569-1.579,0-3.927-.009-7.853.009-11.78,0-.5-.087-.708-.659-.779A13.958,13.958,0,0,1,12.1.131c.205-.028.407-.087.61-.131h2.521c.534.1,1.072.18,1.6.3a13.954,13.954,0,0,1,2.816,26.4,46.858,46.858,0,0,1-4.564,1.41v6.265h12.34a6.548,6.548,0,0,1-1.611-4.526,6.149,6.149,0,0,1,1.925-4.318,6.319,6.319,0,0,1,8.039-.789,6.2,6.2,0,0,1,2.851,4.481A6.527,6.527,0,0,1,37.1,34.37H49.418V27.931c-.122-.03-.2-.057-.282-.068A13.942,13.942,0,0,1,45.449,1c1.232-.445,2.543-.67,3.818-1h2.521c.182.042.362.1.546.126a13.726,13.726,0,0,1,11.3,9.093,28.2,28.2,0,0,1,.881,3.511ZM50.813,25.809A11.83,11.83,0,1,0,38.719,14.258,11.865,11.865,0,0,0,50.813,25.809M29.184,62.354c.654-4.272,1.3-8.481,1.942-12.691.128-.837.52-1.273,1.147-1.259.6.014.977.439,1.1,1.242q.523,3.454,1.048,6.908c.3,1.924.6,3.847.9,5.789h3.194c-.432-2.82-.863-5.6-1.28-8.376a46.453,46.453,0,0,1-.663-4.858c-.112-2.6-.032-5.208-.029-7.812,0-1.15.348-1.493,1.51-1.494q5.326,0,10.651,0h.716V36.587H15.094V39.8H15.9q5.326,0,10.651,0c1.028,0,1.4.377,1.4,1.413q.008,3.938,0,7.877a3.748,3.748,0,0,1-.021.566q-.643,4.2-1.295,8.4c-.219,1.422-.432,2.844-.653,4.3ZM25.8,13.982a11.836,11.836,0,1,0-11.84,11.836A11.894,11.894,0,0,0,25.8,13.982m6.439,11.845a4.289,4.289,0,1,0,4.3,4.278,4.3,4.3,0,0,0-4.3-4.278" transform="translate(0)" fill="#144567"/>
        <path id="Trazado_603136" data-name="Trazado 603136" d="M269.732,54.306l-4.5,4.561-1.533-1.52,4.523-4.505-4.664-4.632,1.622-1.582,4.507,4.547,4.536-4.531,1.52,1.519-4.5,4.5,4.617,4.611-1.58,1.582-4.545-4.549" transform="translate(-219.187 -38.778)" fill="#144567"/>
        <path id="Trazado_603137" data-name="Trazado 603137" d="M53.248,45.683A7.531,7.531,0,1,1,45.5,38.3a7.561,7.561,0,0,1,7.75,7.385m-2.157.133a5.374,5.374,0,1,0-5.361,5.38,5.425,5.425,0,0,0,5.361-5.38" transform="translate(-31.757 -31.846)" fill="#144567"/>
      </g>
    </g>
    <g id="Grupo_161248" data-name="Grupo 161248" transform="translate(335 2188)">
      <g id="Grupo_161247" data-name="Grupo 161247" clip-path="url(#clip-path-5)">
        <path id="Trazado_603138" data-name="Trazado 603138" d="M54,31.644c.375-.243.624-.409.877-.567a2.8,2.8,0,0,1,3.805.71,2.728,2.728,0,0,1-.643,3.806q-2.7,2.073-5.454,4.084a1.073,1.073,0,0,0-.5.993c.024,2.372-.005,4.745.021,7.118.008.744-.141,1.317-.948,1.473v8.633h8.615V59.8H0V57.935H8.62V49.27c-.842-.168-.948-.8-.938-1.573.028-2.372,0-4.745.02-7.118a.924.924,0,0,0-.424-.848q-2.814-2.077-5.6-4.191A2.639,2.639,0,0,1,.6,32.833a2.6,2.6,0,0,1,1.789-2.1A2.645,2.645,0,0,1,4.757,31c.3.187.6.386.973.626.012-.276.029-.485.029-.695q0-9.38,0-18.76c0-1.134.2-1.353,1.3-1.542q4.959-.85,9.914-1.718a2.756,2.756,0,0,0,.365-.12c0-.611,0-1.213,0-1.814.008-.833.344-1.177,1.167-1.182,1.186-.007,2.372,0,3.658,0V5.205c0-1.327,0-2.654,0-3.981C22.176.346,22.5,0,23.361,0Q29.907,0,36.453,0c.818,0,1.159.353,1.162,1.188.006,1.506,0,3.011,0,4.6h3.142c.221,0,.443-.008.664,0a.961.961,0,0,1,1.016,1.028c.018.642,0,1.285,0,2,.812.149,1.611.3,2.413.44q3.947.687,7.9,1.367c1.04.18,1.247.424,1.247,1.478q0,9.38,0,18.76v.775M40.513,7.765H19.3c-.01.121-.021.2-.021.278,0,4.765-.006,9.53.013,14.295a1.216,1.216,0,0,0,.329.713,5.8,5.8,0,0,1-4.363,9.763,5.785,5.785,0,0,1-1.414-11.356,6.09,6.09,0,0,1,3.466.085V10.808L7.691,12.5V32.133A1.673,1.673,0,0,0,9.315,33.78q5.731.008,11.461-.01a1.01,1.01,0,0,0,.662-.284A4.973,4.973,0,0,1,25.25,31.85q4.645.009,9.29,0a4.946,4.946,0,0,1,3.808,1.64.861.861,0,0,0,.545.28q5.851.024,11.7.005a1.679,1.679,0,0,0,1.5-1.584V12.484L42.472,10.81v10.7a12.905,12.905,0,0,1,1.449-.247,6.472,6.472,0,0,1,1.438.077,5.764,5.764,0,1,1-5.191,1.707,1.344,1.344,0,0,0,.331-.831c.02-4.644.014-9.288.014-13.933V7.765m9.653,39.5v-.691c0-2.17.021-4.34-.012-6.51a1.675,1.675,0,0,1,.749-1.523c1.956-1.442,3.885-2.922,5.819-4.393.549-.417.665-.86.369-1.28s-.763-.442-1.326-.067c-1.22.813-2.446,1.617-3.649,2.454a2.481,2.481,0,0,1-1.51.469c-3.5-.021-6.993-.01-10.49-.01h-.57V37.18q0,2.893,0,5.787a3.924,3.924,0,0,1-2.773,4.178c-.023.01-.029.059-.058.12ZM20.251,35.713H19.6c-3.5,0-7,.013-10.5-.017a2.57,2.57,0,0,1-1.278-.389c-1.292-.813-2.542-1.692-3.812-2.54-.556-.371-1.038-.331-1.324.087s-.161.858.381,1.279c.048.037.1.071.145.107C5.139,35.7,7.056,37.162,8.988,38.6a1.439,1.439,0,0,1,.642,1.272c-.02,2.251-.008,4.5-.008,6.755v.632H23.059c0-.051.006-.081,0-.084-.163-.076-.328-.147-.491-.222a3.576,3.576,0,0,1-2.292-3.213c-.087-2.649-.024-5.3-.024-8.03m4.8.015v9.595h9.7V35.748H36.66v9.305a1.766,1.766,0,0,0,.947-1.581c.017-2.311.025-4.623,0-6.934a2.619,2.619,0,0,0-1.937-2.561,28.937,28.937,0,0,0-3.705-.26c.27,1.916.537,3.663.746,5.417a1.925,1.925,0,0,1-.219,1.127c-.517.882-1.112,1.72-1.69,2.565a.993.993,0,0,1-1.829,0c-.544-.8-1.055-1.614-1.613-2.4a1.782,1.782,0,0,1-.307-1.414c.276-1.72.507-3.446.762-5.209-1.067,0-2.1-.069-3.11.017a2.8,2.8,0,0,0-2.519,2.717c-.034,2.311-.02,4.623,0,6.934a1.782,1.782,0,0,0,.965,1.6V35.728Zm.037,22.184c.6,0,1.143-.019,1.682.007.343.016.429-.133.488-.443.544-2.819,1.11-5.633,1.664-8.45.12-.611.462-.957.976-.953s.84.349.962.969q.832,4.225,1.683,8.446c.031.155.191.4.3.4.612.04,1.228.019,1.841.019V47.33h-9.6Zm24.084-8.644H39.6v8.618h2.1c.577-2.276,1.151-4.531,1.72-6.787.131-.518.407-.894.978-.894a.965.965,0,0,1,.98.882c.18.782.383,1.559.575,2.337l1.1,4.456h2.119ZM10.63,49.252v8.637h2.092c.058-.21.113-.4.162-.593.521-2.041,1.047-4.08,1.556-6.124.134-.538.378-.955.98-.967.639-.013.9.42,1.026.983.09.411.2.819.3,1.228l1.344,5.449h2.12V49.252ZM44.372,30.886a3.86,3.86,0,1,0-3.858-3.877,3.867,3.867,0,0,0,3.858,3.877m-25.1-3.875a3.861,3.861,0,1,0-3.86,3.875,3.868,3.868,0,0,0,3.86-3.875M24.129,5.75H35.638V1.962H24.129Zm13.447,43.5h-.894v8.635h.894ZM22.211,57.865h.9V49.253h-.9Zm7.722-17.2a8.973,8.973,0,0,0,.6-.879,1.541,1.541,0,0,0,.256-.8c-.155-1.291-.364-2.575-.563-3.861-.07-.451-.164-.9-.247-1.347l-.191.006c-.045.244-.1.488-.134.733-.184,1.207-.279,2.435-.571,3.615a2.444,2.444,0,0,0,.847,2.536m.71,17.212-.684-3.372-.137.012-.672,3.36ZM15.49,55.443l-.149-.006-.606,2.431h1.359l-.6-2.426m28.2,2.445H45.06l-.62-2.464-.143.017-.6,2.447" transform="translate(0 0)" fill="#144567"/>
        <path id="Trazado_603139" data-name="Trazado 603139" d="M155.329,131.373a5.79,5.79,0,1,1,5.82-5.7,5.8,5.8,0,0,1-5.82,5.7m3.89-5.766a3.86,3.86,0,1,0-3.9,3.836,3.865,3.865,0,0,0,3.9-3.836" transform="translate(-125.466 -100.487)" fill="#144567"/>
        <rect id="Rectángulo_47182" data-name="Rectángulo 47182" width="1.874" height="1.842" transform="translate(44.386 17.424)" fill="#144567"/>
        <rect id="Rectángulo_47183" data-name="Rectángulo 47183" width="1.834" height="1.877" transform="translate(48.281 17.415)" fill="#144567"/>
        <rect id="Rectángulo_47184" data-name="Rectángulo 47184" width="1.851" height="1.877" transform="translate(13.518 17.403)" fill="#144567"/>
        <rect id="Rectángulo_47185" data-name="Rectángulo 47185" width="1.877" height="1.847" transform="translate(9.653 17.421)" fill="#144567"/>
        <rect id="Rectángulo_47186" data-name="Rectángulo 47186" width="1.867" height="1.856" transform="translate(48.262 13.556)" fill="#144567"/>
        <rect id="Rectángulo_47187" data-name="Rectángulo 47187" width="1.862" height="1.873" transform="translate(44.414 13.548)" fill="#144567"/>
        <rect id="Rectángulo_47188" data-name="Rectángulo 47188" width="1.862" height="1.873" transform="translate(36.691 13.548)" fill="#144567"/>
        <rect id="Rectángulo_47189" data-name="Rectángulo 47189" width="1.862" height="1.852" transform="translate(32.829 13.547)" fill="#144567"/>
        <rect id="Rectángulo_47190" data-name="Rectángulo 47190" width="1.852" height="1.862" transform="translate(25.101 13.542)" fill="#144567"/>
        <rect id="Rectángulo_47191" data-name="Rectángulo 47191" width="1.877" height="1.844" transform="translate(21.228 13.551)" fill="#144567"/>
        <rect id="Rectángulo_47192" data-name="Rectángulo 47192" width="1.86" height="1.855" transform="translate(13.513 13.559)" fill="#144567"/>
        <rect id="Rectángulo_47193" data-name="Rectángulo 47193" width="1.862" height="1.873" transform="translate(9.661 13.548)" fill="#144567"/>
        <rect id="Rectángulo_47194" data-name="Rectángulo 47194" width="1.862" height="1.873" transform="translate(36.68 9.676)" fill="#144567"/>
        <rect id="Rectángulo_47195" data-name="Rectángulo 47195" width="1.845" height="1.876" transform="translate(32.838 9.674)" fill="#144567"/>
        <rect id="Rectángulo_47196" data-name="Rectángulo 47196" width="1.859" height="1.869" transform="translate(25.098 9.678)" fill="#144567"/>
        <rect id="Rectángulo_47197" data-name="Rectángulo 47197" width="1.856" height="1.854" transform="translate(21.255 9.696)" fill="#144567"/>
      </g>
    </g>
  </g>
</svg>
