<svg xmlns="http://www.w3.org/2000/svg" width="101" height="101" viewBox="0 0 101 101">
  <g id="Grupo_161137" data-name="Grupo 161137" transform="translate(-750 -6235)">
    <circle id="Elipse_1150" data-name="Elipse 1150" cx="50.5" cy="50.5" r="50.5" transform="translate(750 6235)" fill="#fff"/>
    <g id="Grupo_160902" data-name="Grupo 160902" transform="translate(762.814 6248.507)">
      <path id="Trazado_602194" data-name="Trazado 602194" d="M182.675,99.174l-12.138-7.838L156.76,113.981Z" transform="translate(-109.725 -63.931)" fill="#f6caba"/>
      <path id="Trazado_602195" data-name="Trazado 602195" d="M156.76,132.029V157.07l9.1-5.183,11.788-6.711.02-.011,5.012-2.855V117.271Z" transform="translate(-109.725 -82.084)" fill="#f6caba"/>
      <path id="Trazado_602196" data-name="Trazado 602196" d="M6.2,104.569,51.374,130.64V105.6L6.231,79.511Z" transform="translate(-4.339 -55.654)" fill="#a57f6b"/>
      <path id="Trazado_602197" data-name="Trazado 602197" d="M59.784,26.5l14.588,8.688L60,26.113ZM14.859,0,0,26.045,45.141,52.133,59.784,26.5,30,8.759Z" transform="translate(0)" fill="#353534"/>
      <path id="Trazado_602198" data-name="Trazado 602198" d="M14.858,0,0,26.045,45.141,52.133,60,26.113Z" transform="translate(0.001 0)" fill="#414040"/>
      <path id="Trazado_602199" data-name="Trazado 602199" d="M150.448,113.05v2.109l15.37-26.429,13.861,8.638V96.1L165.309,87.03Z" transform="translate(-105.306 -60.917)" fill="#353534"/>
      <path id="Trazado_602200" data-name="Trazado 602200" d="M0,88.9,45.141,115v-2.109L0,86.8Z" transform="translate(0 -60.759)" fill="#353534"/>
      <path id="Trazado_602201" data-name="Trazado 602201" d="M62.708,146.1v14.676l-5.673-3.228-.139-.082-.278-.158-.59-.337V142.3Z" transform="translate(-39.216 -99.6)" fill="#a57f6b"/>
      <path id="Trazado_602202" data-name="Trazado 602202" d="M65.058,151.526v13.453l-5.673-3.229V148.3Z" transform="translate(-41.567 -103.801)" fill="#353534"/>
      <path id="Trazado_602203" data-name="Trazado 602203" d="M23.79,137.956v6.7l-6.811-2.772v-6.7Z" transform="translate(-11.884 -94.623)" fill="#fff"/>
      <path id="Trazado_602204" data-name="Trazado 602204" d="M20.446,135.207l1.4-.8-6.392-3.665-1.412.8Z" transform="translate(-9.832 -91.516)" fill="#a26f64"/>
      <path id="Trazado_602205" data-name="Trazado 602205" d="M36.747,142.96l-.005,7.328-1.414.792v-7.323Z" transform="translate(-24.727 -100.066)" fill="#a57f6b"/>
      <path id="Trazado_602206" data-name="Trazado 602206" d="M15.408,139.955l-1.416.791v-7.32l1.416.808Z" transform="translate(-9.793 -93.392)" fill="#a26f64"/>
      <path id="Trazado_602207" data-name="Trazado 602207" d="M15.408,155.187l4.986,2.851v1.6l-6.4-3.66Z" transform="translate(-9.793 -108.624)" fill="#a26f64"/>
      <path id="Trazado_602208" data-name="Trazado 602208" d="M13.992,133.425v7.32l6.4,3.66v-7.323Zm5.966,10.232-5.53-3.162v-6.324l5.53,3.162Z" transform="translate(-9.794 -93.392)" fill="#f6caba"/>
      <path id="Trazado_602209" data-name="Trazado 602209" d="M16.731,118.537l-5.055,5.569-3.36-1.938-.632-.363-.276-.161-4.733-2.73,4.733-4.721.641-.64,0,0Z" transform="translate(-1.872 -79.481)" fill="#414040"/>
      <path id="Trazado_602210" data-name="Trazado 602210" d="M37.73,130.909l-5.055,5.547v-.719l5.055-5.569" transform="translate(-22.871 -91.112)" fill="#353534"/>
      <path id="Trazado_602211" data-name="Trazado 602211" d="M11.677,136.615l-9-5.192v.714l9,5.2Z" transform="translate(-1.873 -91.991)" fill="#353534"/>
      <path id="Trazado_602212" data-name="Trazado 602212" d="M111.063,183.886v6.7l-6.813-2.775v-6.7Z" transform="translate(-72.97 -126.772)" fill="#fff"/>
      <path id="Trazado_602213" data-name="Trazado 602213" d="M107.714,181.13l1.405-.8-6.392-3.668-1.414.805Z" transform="translate(-70.915 -123.658)" fill="#a26f64"/>
      <path id="Trazado_602214" data-name="Trazado 602214" d="M124.018,188.89l0,7.328-1.414.792v-7.323Z" transform="translate(-85.814 -132.214)" fill="#a57f6b"/>
      <path id="Trazado_602215" data-name="Trazado 602215" d="M102.68,185.88l-1.414.792v-7.323l1.414.81Z" transform="translate(-70.881 -125.536)" fill="#a26f64"/>
      <path id="Trazado_602216" data-name="Trazado 602216" d="M102.68,201.117l4.987,2.852v1.6l-6.4-3.659Z" transform="translate(-70.881 -140.773)" fill="#a26f64"/>
      <path id="Trazado_602217" data-name="Trazado 602217" d="M101.265,179.35v7.323l6.4,3.659v-7.323Zm5.965,10.234-5.529-3.163V180.1l5.529,3.162Z" transform="translate(-70.881 -125.537)" fill="#f6caba"/>
      <path id="Trazado_602218" data-name="Trazado 602218" d="M104,164.468l-5.055,5.568L95.588,168.1l-.63-.366-.275-.158-4.734-2.729,4.734-4.721.638-.64,0,0Z" transform="translate(-62.96 -111.629)" fill="#414040"/>
      <path id="Trazado_602219" data-name="Trazado 602219" d="M125,176.841l-5.055,5.544v-.718L125,176.1" transform="translate(-83.957 -123.263)" fill="#353534"/>
      <path id="Trazado_602220" data-name="Trazado 602220" d="M98.95,182.546l-9-5.189v.712l9,5.195Z" transform="translate(-62.96 -124.142)" fill="#353534"/>
    </g>
  </g>
</svg>
