<svg xmlns="http://www.w3.org/2000/svg" width="101" height="101" viewBox="0 0 101 101">
  <g id="Grupo_161158" data-name="Grupo 161158" transform="translate(-750 -5590)">
    <circle id="Elipse_1142" data-name="Elipse 1142" cx="50.5" cy="50.5" r="50.5" transform="translate(750 5590)" fill="#fff"/>
    <g id="Grupo_160914" data-name="Grupo 160914" transform="translate(0 -427)">
      <g id="Grupo_160913" data-name="Grupo 160913" transform="translate(770.428 6019.568)">
        <path id="Trazado_602457" data-name="Trazado 602457" d="M60.979,42.543V82.087l16.663,9.53V52.07Z" transform="translate(-46.548 -32.475)" fill="#f6caba"/>
        <path id="Trazado_602458" data-name="Trazado 602458" d="M77.642,21.211,94.281,11.67,77.642,2.116,60.979,11.683Z" transform="translate(-46.548 -1.615)" fill="#414040"/>
        <path id="Trazado_602459" data-name="Trazado 602459" d="M88.783,25.87l13.056-7.486-13.056-7.5L75.711,18.394Z" transform="translate(-57.793 -8.312)" fill="#f6caba"/>
        <path id="Trazado_602460" data-name="Trazado 602460" d="M148.028,42.488l.024,39.557-16.663,9.53V52.028Z" transform="translate(-100.295 -32.433)" fill="#a57f6b"/>
        <path id="Trazado_602461" data-name="Trazado 602461" d="M76.913,7.688,88.292,1.157,99.655,7.679,88.292,14.2ZM88.283,0,74.907,7.677l13.376,7.648,13.359-7.661Z" transform="translate(-57.18)" fill="#414040"/>
        <path id="Trazado_602462" data-name="Trazado 602462" d="M88.282,7.381l-13.376,7.68,13.376,7.648,13.359-7.658Zm-11.37,7.69L88.291,8.54l11.363,6.523L88.291,21.58Z" transform="translate(-57.179 -5.634)" fill="#414040"/>
        <path id="Trazado_602463" data-name="Trazado 602463" d="M74.907,32.441v2.607L88.283,42.7V40.089Z" transform="translate(-57.18 -24.764)" fill="#f6caba"/>
        <path id="Trazado_602464" data-name="Trazado 602464" d="M131.428,40.048v2.594l13.359-7.663V32.387Z" transform="translate(-100.325 -24.723)" fill="#a57f6b"/>
        <path id="Trazado_602465" data-name="Trazado 602465" d="M131.465,4.888V6.637l9.839,5.648,1.524-.874Z" transform="translate(-100.353 -3.731)" fill="#e0a98e"/>
        <path id="Trazado_602466" data-name="Trazado 602466" d="M83.383,11.419,94.762,4.888V6.637L84.9,12.285Z" transform="translate(-63.65 -3.731)" fill="#a57f6b"/>
        <path id="Trazado_602467" data-name="Trazado 602467" d="M69.33,62.291v4.983l-3.222-1.836-.525-.3V60.155Z" transform="translate(-50.063 -45.919)" fill="#b1b0b0"/>
        <path id="Trazado_602468" data-name="Trazado 602468" d="M71.023,63.256v4.436L67.8,65.854V61.423Z" transform="translate(-51.756 -46.887)" fill="#fff"/>
        <path id="Trazado_602469" data-name="Trazado 602469" d="M89.4,73.341v4.986l-3.219-1.838-.527-.3V71.205Z" transform="translate(-65.381 -54.354)" fill="#b1b0b0"/>
        <path id="Trazado_602470" data-name="Trazado 602470" d="M91.1,74.3v4.437L87.877,76.9V72.461Z" transform="translate(-67.08 -55.313)" fill="#fff"/>
        <path id="Trazado_602471" data-name="Trazado 602471" d="M109.046,83.611V88.6l-3.222-1.836-.525-.3V81.476Z" transform="translate(-80.38 -62.194)" fill="#b1b0b0"/>
        <path id="Trazado_602472" data-name="Trazado 602472" d="M110.74,84.568V89l-3.222-1.837V82.732Z" transform="translate(-82.074 -63.153)" fill="#fff"/>
        <path id="Trazado_602473" data-name="Trazado 602473" d="M69.33,115.523v4.986l-3.222-1.839-.525-.3v-4.984Z" transform="translate(-50.063 -86.553)" fill="#b1b0b0"/>
        <path id="Trazado_602474" data-name="Trazado 602474" d="M71.023,116.479v4.436L67.8,119.077v-4.435Z" transform="translate(-51.756 -87.512)" fill="#fff"/>
        <path id="Trazado_602475" data-name="Trazado 602475" d="M89.4,126.573v4.986l-3.219-1.839-.527-.3v-4.984Z" transform="translate(-65.381 -94.988)" fill="#b1b0b0"/>
        <path id="Trazado_602476" data-name="Trazado 602476" d="M91.1,127.528v4.437l-3.219-1.836v-4.436Z" transform="translate(-67.08 -95.947)" fill="#fff"/>
        <path id="Trazado_602477" data-name="Trazado 602477" d="M109.046,136.843v4.986l-3.222-1.836-.525-.3v-4.985Z" transform="translate(-80.38 -102.829)" fill="#b1b0b0"/>
        <path id="Trazado_602478" data-name="Trazado 602478" d="M110.74,137.807v4.438l-3.222-1.839v-4.434Z" transform="translate(-82.074 -103.794)" fill="#fff"/>
        <path id="Trazado_602479" data-name="Trazado 602479" d="M69.541,88V92.98l-3.22-1.836-.527-.3V85.86Z" transform="translate(-50.224 -65.541)" fill="#b1b0b0"/>
        <path id="Trazado_602480" data-name="Trazado 602480" d="M71.239,88.971v4.436l-3.22-1.838V87.135Z" transform="translate(-51.922 -66.514)" fill="#fff"/>
        <path id="Trazado_602481" data-name="Trazado 602481" d="M89.616,99.046v4.984L86.4,102.194l-.527-.3V96.911Z" transform="translate(-65.548 -73.977)" fill="#b1b0b0"/>
        <path id="Trazado_602482" data-name="Trazado 602482" d="M91.314,100.019v4.438l-3.219-1.838V98.185Z" transform="translate(-67.247 -74.949)" fill="#fff"/>
        <path id="Trazado_602483" data-name="Trazado 602483" d="M109.254,109.319V114.3l-3.22-1.837-.527-.3v-4.986Z" transform="translate(-80.538 -81.817)" fill="#b1b0b0"/>
        <path id="Trazado_602484" data-name="Trazado 602484" d="M110.954,110.294v4.434l-3.22-1.836v-4.436Z" transform="translate(-82.238 -82.789)" fill="#fff"/>
        <path id="Trazado_602485" data-name="Trazado 602485" d="M178.493,61.493v4.986l3.219-1.835.526-.3V59.358Z" transform="translate(-136.251 -45.311)" fill="#b1b0b0"/>
        <path id="Trazado_602486" data-name="Trazado 602486" d="M178.493,64.78v4.437l3.219-1.836V62.945Z" transform="translate(-136.251 -48.048)" fill="#fff"/>
        <path id="Trazado_602487" data-name="Trazado 602487" d="M158.411,72.552v4.983l3.221-1.839.526-.3V70.416Z" transform="translate(-120.923 -53.752)" fill="#b1b0b0"/>
        <path id="Trazado_602488" data-name="Trazado 602488" d="M158.411,73.536v4.434l3.221-1.835V71.7Z" transform="translate(-120.923 -54.731)" fill="#fff"/>
        <path id="Trazado_602489" data-name="Trazado 602489" d="M138.776,82.821V87.8l3.219-1.837.527-.3V80.685Z" transform="translate(-105.934 -61.59)" fill="#b1b0b0"/>
        <path id="Trazado_602490" data-name="Trazado 602490" d="M138.776,83.811v4.437l3.219-1.839V81.977Z" transform="translate(-105.934 -62.576)" fill="#fff"/>
        <path id="Trazado_602491" data-name="Trazado 602491" d="M178.541,87.2v4.986l3.219-1.836.526-.3V85.064Z" transform="translate(-136.289 -64.933)" fill="#b1b0b0"/>
        <path id="Trazado_602492" data-name="Trazado 602492" d="M178.541,88.19v4.438l3.219-1.839V86.356Z" transform="translate(-136.289 -65.919)" fill="#fff"/>
        <path id="Trazado_602493" data-name="Trazado 602493" d="M158.463,98.251v4.982l3.222-1.836.525-.3V96.114Z" transform="translate(-120.962 -73.368)" fill="#b1b0b0"/>
        <path id="Trazado_602494" data-name="Trazado 602494" d="M158.463,99.241v4.437l3.222-1.839V97.406Z" transform="translate(-120.962 -74.354)" fill="#fff"/>
        <path id="Trazado_602495" data-name="Trazado 602495" d="M138.823,108.529v4.984l3.221-1.839.525-.3v-4.983Z" transform="translate(-105.97 -81.215)" fill="#b1b0b0"/>
        <path id="Trazado_602496" data-name="Trazado 602496" d="M138.823,109.509v4.436l3.221-1.835v-4.437Z" transform="translate(-105.97 -82.192)" fill="#fff"/>
        <path id="Trazado_602497" data-name="Trazado 602497" d="M178.514,114.231v4.986l3.22-1.838.525-.3V112.1Z" transform="translate(-136.268 -85.567)" fill="#b1b0b0"/>
        <path id="Trazado_602498" data-name="Trazado 602498" d="M178.514,115.221v4.438l3.22-1.838v-4.434Z" transform="translate(-136.268 -86.553)" fill="#fff"/>
        <path id="Trazado_602499" data-name="Trazado 602499" d="M158.442,125.281v4.986l3.221-1.839.526-.3v-4.984Z" transform="translate(-120.946 -94.002)" fill="#b1b0b0"/>
        <path id="Trazado_602500" data-name="Trazado 602500" d="M158.442,126.272v4.436l3.221-1.836v-4.437Z" transform="translate(-120.946 -94.988)" fill="#fff"/>
        <path id="Trazado_602501" data-name="Trazado 602501" d="M138.791,135.561v4.985l3.222-1.838.525-.3v-4.983Z" transform="translate(-105.946 -101.849)" fill="#b1b0b0"/>
        <path id="Trazado_602502" data-name="Trazado 602502" d="M138.791,136.544v4.437l3.222-1.836v-4.436Z" transform="translate(-105.946 -102.829)" fill="#fff"/>
        <path id="Trazado_602503" data-name="Trazado 602503" d="M178.563,139.94v4.983l3.22-1.838.527-.3V137.8Z" transform="translate(-136.305 -105.19)" fill="#b1b0b0"/>
        <path id="Trazado_602504" data-name="Trazado 602504" d="M178.563,140.922v4.434l3.22-1.835v-4.437Z" transform="translate(-136.305 -106.169)" fill="#fff"/>
        <path id="Trazado_602505" data-name="Trazado 602505" d="M158.491,150.987v4.986l3.221-1.835.526-.3v-4.986Z" transform="translate(-120.983 -113.625)" fill="#b1b0b0"/>
        <path id="Trazado_602506" data-name="Trazado 602506" d="M158.491,151.977v4.439l3.221-1.838v-4.434Z" transform="translate(-120.983 -114.611)" fill="#fff"/>
        <path id="Trazado_602507" data-name="Trazado 602507" d="M138.852,161.26v4.984l3.219-1.837.526-.3v-4.986Z" transform="translate(-105.992 -121.465)" fill="#b1b0b0"/>
        <path id="Trazado_602508" data-name="Trazado 602508" d="M138.852,162.25v4.437l3.219-1.837v-4.436Z" transform="translate(-105.992 -122.451)" fill="#fff"/>
        <path id="Trazado_602509" data-name="Trazado 602509" d="M76.595,183.2v8.389l-3.243-1.847-.079-.045-.159-.089-.339-.193v-8.393Z" transform="translate(-55.552 -138.183)" fill="#a57f6b"/>
        <path id="Trazado_602510" data-name="Trazado 602510" d="M78.456,187.23v7.688l-1-.571-.747-.424h0l-.8-.456-.145-.081-.551-.314v-7.688l2.586,1.473Z" transform="translate(-57.414 -141.511)" fill="#353534"/>
        <path id="Trazado_602511" data-name="Trazado 602511" d="M92.589,192.283v8.391l-3.1-1.773-.078-.045-.159-.09-.337-.194v-8.39Z" transform="translate(-67.874 -145.175)" fill="#a57f6b"/>
        <path id="Trazado_602512" data-name="Trazado 602512" d="M92.715,195.345v7.692l-3.244-1.846V193.5l.759.434Z" transform="translate(-68.297 -147.705)" fill="#353534"/>
        <path id="Trazado_602513" data-name="Trazado 602513" d="M78.456,191.981V193l-3.243,1.847v-1.764l2.586-1.471Z" transform="translate(-57.414 -146.262)" fill="#727271"/>
        <path id="Trazado_602514" data-name="Trazado 602514" d="M90.231,193.932l-.131.075-.629.356V193.5Z" transform="translate(-68.297 -147.706)" fill="#727271"/>
        <path id="Trazado_602515" data-name="Trazado 602515" d="M78.155,214.86l2.547-1.45v1.764l-1,.567-.747-.424h0Z" transform="translate(-59.659 -162.905)" fill="#727271"/>
        <path id="Trazado_602516" data-name="Trazado 602516" d="M92.715,205.286v1.764l-.244.142-.265.148-.134.071-2.6,1.482v-1.762Z" transform="translate(-68.297 -156.704)" fill="#727271"/>
        <path id="Trazado_602517" data-name="Trazado 602517" d="M68.087,173.88l-6.959-4-4.309,4.3,7.217,4.159Z" transform="translate(-43.373 -129.68)" fill="#414040"/>
        <path id="Trazado_602518" data-name="Trazado 602518" d="M91.365,187.366l-4.052,4.443v-.574l4.052-4.464" transform="translate(-66.65 -142.572)" fill="#353534"/>
        <path id="Trazado_602519" data-name="Trazado 602519" d="M64.036,192.217l-7.217-4.159v.571l7.217,4.163Z" transform="translate(-43.373 -143.553)" fill="#353534"/>
        <path id="Trazado_602520" data-name="Trazado 602520" d="M57.166,222.04v.753l7.485,4.3v-.751Z" transform="translate(-43.637 -169.493)" fill="#e0a98e"/>
        <path id="Trazado_602521" data-name="Trazado 602521" d="M64.651,219.5l3.691-2.117-7.482-4.313-3.694,2.123Z" transform="translate(-43.637 -162.645)" fill="#353534"/>
        <path id="Trazado_602522" data-name="Trazado 602522" d="M92.486,231.295l0,.754-3.7,2.114v-.751Z" transform="translate(-67.781 -176.558)" fill="#a57f6b"/>
        <path id="Trazado_602523" data-name="Trazado 602523" d="M.009,206.265v1.29L0,222.115l29.311,16.87V206.993L.019,190.112Z" transform="translate(0 -145.121)" fill="#f6caba"/>
        <path id="Trazado_602524" data-name="Trazado 602524" d="M143.713,194.733v-.005l-19.86,11.438v31.992l16.352-9.435v0l13.48-7.708v-4.247h0v.019l-.476.272-.009,0h0l-.328.191-.492.282,0,0-5.284,3.023v-7.548l.174-.1.174-.1.037-.024.13-.072.045-.026.129-.071.314-.181.173-.1.037-.022.175-.1.122-.071.175-.1.311-.179.173-.1.037-.023.082-.045.017-.011.076-.044.086-.049.127-.072.017-.01.446-.256.016-.009.254-.147,0,0,.8-.458,2.457-1.41v-4.992l0,0-.01,0-6.585,3.768v-7.55l2.467-1.414.864-.494h0l.8-.459,2.456-1.409.024-.014v-7.65Z" transform="translate(-94.543 -144.293)" fill="#a57f6b"/>
        <path id="Trazado_602525" data-name="Trazado 602525" d="M.08,165.19l29.29,16.881,16.35-9.43h0l13.48-7.709L48.032,158.5l-16.32,9.437L13.54,157.464Z" transform="translate(-0.061 -120.199)" fill="#414040"/>
        <path id="Trazado_602526" data-name="Trazado 602526" d="M14.6,173.568l1.539.879L40.4,188.3l7.679-4.391v0l17.007-9.783,1.528-.871-7.157-4.107L42.939,178.77,24.256,168.127Z" transform="translate(-11.145 -128.339)" fill="#f6caba"/>
        <path id="Trazado_602527" data-name="Trazado 602527" d="M21.1,180.082l24.263,13.854,7.679-4.391v0l17.007-9.783-5.629-3.233L47.9,186.152,29.22,175.509Z" transform="translate(-16.108 -133.974)" fill="#353534"/>
        <path id="Trazado_602528" data-name="Trazado 602528" d="M150.866,172.461v1.745l-16.519,9.619v-1.747Z" transform="translate(-102.553 -131.647)" fill="#a57f6b"/>
        <path id="Trazado_602529" data-name="Trazado 602529" d="M.037,259.658l29.3,16.865v-1.289L.037,258.367Z" transform="translate(-0.028 -197.223)" fill="#fff"/>
        <path id="Trazado_602530" data-name="Trazado 602530" d="M221.971,244.92l6.585-3.768-6.585-3.782Z" transform="translate(-169.44 -181.195)" fill="#353534"/>
        <path id="Trazado_602531" data-name="Trazado 602531" d="M102.553,270.59v7.548l-6.6-3.776v-7.546l2.458,1.405.024.013.3.172,1.272.723.328.191Z" transform="translate(-73.244 -203.672)" fill="#353534"/>
        <path id="Trazado_602532" data-name="Trazado 602532" d="M130.437,274.344v0l-6.6,3.772V270.57l2.467-1.416.862-.492,0,0,.8-.459,2.456-1.409,0,2.82v.446l0,1.69v2.6Z" transform="translate(-94.532 -203.654)" fill="#f6caba"/>
        <path id="Trazado_602533" data-name="Trazado 602533" d="M102.554,290.318l6.588-3.778-6.588-3.785-6.6,3.789Z" transform="translate(-73.247 -215.839)" fill="#fff"/>
        <path id="Trazado_602534" data-name="Trazado 602534" d="M135.125,273.2l.8-.458.676.388.4.227.027.017,1.357.779.012.007V278.9l-.009-.006-1.18-.674-1.08-.619-.492-.282-1.375-.785,0,0v-1.582l.862-.5v-1.244Z" transform="translate(-102.485 -208.198)" fill="#353534"/>
        <path id="Trazado_602535" data-name="Trazado 602535" d="M135.125,274.682v2.8l0,0h0l-.2.121-.656.395v-2.83l.862-.492Z" transform="translate(-102.485 -209.677)" fill="#e0a98e"/>
        <path id="Trazado_602536" data-name="Trazado 602536" d="M134.266,287.06l4.137,2.366v-1l-3.279-1.883Z" transform="translate(-102.491 -218.728)" fill="#f6caba"/>
        <path id="Trazado_602537" data-name="Trazado 602537" d="M137.9,273.2l.8-.458.676.388v3.73l-.715-.414-.25-.142-.122-.07-.392-.225h0v-2.806Z" transform="translate(-105.264 -208.198)" fill="#414040"/>
        <path id="Trazado_602538" data-name="Trazado 602538" d="M137.909,273.2l.8-.458.676.388.4.227-.4.233-1.474.851,0,0v-1.244Z" transform="translate(-105.268 -208.198)" fill="#727271"/>
        <path id="Trazado_602539" data-name="Trazado 602539" d="M139.56,282.2l2.885-1.642v1.691l-1.4.814Z" transform="translate(-106.533 -214.163)" fill="#727271"/>
        <path id="Trazado_602540" data-name="Trazado 602540" d="M103.641,273.7l-1.27-.723-.3-.172-1.356.784v3.124l2.02-1.153,1.232-.724v-.944Z" transform="translate(-76.883 -208.246)" fill="#b1b0b0"/>
        <path id="Trazado_602541" data-name="Trazado 602541" d="M103.641,273.662v.951l-2.923,1.691v-2.782l1.33-.769.024.013.3.172Z" transform="translate(-76.883 -208.204)" fill="#fff"/>
        <path id="Trazado_602542" data-name="Trazado 602542" d="M127.394,301.233l.213.121v-3.222l-.213-.121Z" transform="translate(-97.246 -227.485)" fill="#e0a98e"/>
        <path id="Trazado_602543" data-name="Trazado 602543" d="M127.608,297.215l.486-.283-.209-.123-.489.284Z" transform="translate(-97.246 -226.568)" fill="#353534"/>
        <path id="Trazado_602544" data-name="Trazado 602544" d="M128.779,297.328l0,3.227-.491.278v-3.222Z" transform="translate(-97.932 -226.964)" fill="#a57f6b"/>
        <path id="Trazado_602545" data-name="Trazado 602545" d="M122.912,303.8l.213.12V300.7l-.213-.121Z" transform="translate(-93.824 -229.443)" fill="#e0a98e"/>
        <path id="Trazado_602546" data-name="Trazado 602546" d="M123.125,299.778l.486-.281-.208-.126-.491.285Z" transform="translate(-93.825 -228.524)" fill="#353534"/>
        <path id="Trazado_602547" data-name="Trazado 602547" d="M124.3,299.9l0,3.224-.49.28v-3.224Z" transform="translate(-94.51 -228.93)" fill="#a57f6b"/>
        <path id="Trazado_602548" data-name="Trazado 602548" d="M131.783,298.706l.211.119V295.6l-.211-.121Z" transform="translate(-100.596 -225.554)" fill="#e0a98e"/>
        <path id="Trazado_602549" data-name="Trazado 602549" d="M131.994,294.684l.487-.281-.209-.126-.489.285Z" transform="translate(-100.596 -224.635)" fill="#353534"/>
        <path id="Trazado_602550" data-name="Trazado 602550" d="M133.161,294.809l0,3.224-.492.279v-3.222Z" transform="translate(-101.276 -225.041)" fill="#a57f6b"/>
        <path id="Trazado_602551" data-name="Trazado 602551" d="M136.17,296.258l.213.119v-3.222l-.213-.12Z" transform="translate(-103.945 -223.686)" fill="#e0a98e"/>
        <path id="Trazado_602552" data-name="Trazado 602552" d="M136.383,292.236l.487-.279-.21-.127-.489.285Z" transform="translate(-103.945 -222.767)" fill="#353534"/>
        <path id="Trazado_602553" data-name="Trazado 602553" d="M137.555,292.367l0,3.222-.491.279v-3.222Z" transform="translate(-104.63 -223.177)" fill="#a57f6b"/>
        <path id="Trazado_602554" data-name="Trazado 602554" d="M140.3,293.922l.212.121v-3.222l-.212-.121Z" transform="translate(-107.098 -221.904)" fill="#e0a98e"/>
        <path id="Trazado_602555" data-name="Trazado 602555" d="M140.512,289.9l.485-.281-.208-.126-.49.286Z" transform="translate(-107.097 -220.982)" fill="#353534"/>
        <path id="Trazado_602556" data-name="Trazado 602556" d="M141.68,290.026l0,3.222-.49.281v-3.222Z" transform="translate(-107.781 -221.39)" fill="#a57f6b"/>
        <path id="Trazado_602557" data-name="Trazado 602557" d="M144.5,291.565l.212.119v-3.22l-.212-.124Z" transform="translate(-110.302 -220.102)" fill="#e0a98e"/>
        <path id="Trazado_602558" data-name="Trazado 602558" d="M144.709,287.547l.486-.28-.208-.128-.49.284Z" transform="translate(-110.301 -219.186)" fill="#353534"/>
        <path id="Trazado_602559" data-name="Trazado 602559" d="M145.878,287.679l0,3.224-.49.276v-3.22Z" transform="translate(-110.984 -219.598)" fill="#a57f6b"/>
        <path id="Trazado_602560" data-name="Trazado 602560" d="M148.01,289.593l.211.121V286.49l-.211-.121Z" transform="translate(-112.982 -218.598)" fill="#e0a98e"/>
        <path id="Trazado_602561" data-name="Trazado 602561" d="M148.22,285.573l.486-.28-.208-.125-.489.284Z" transform="translate(-112.982 -217.681)" fill="#353534"/>
        <path id="Trazado_602562" data-name="Trazado 602562" d="M149.386,285.7l0,3.224-.491.281v-3.225Z" transform="translate(-113.662 -218.085)" fill="#a57f6b"/>
        <path id="Trazado_602563" data-name="Trazado 602563" d="M119.976,298.564v3.221l.213-.121v-3.222Z" transform="translate(-91.583 -227.814)" fill="#e0a98e"/>
        <path id="Trazado_602564" data-name="Trazado 602564" d="M118.408,297.645l-.486-.281.209-.127.489.285Z" transform="translate(-90.015 -226.894)" fill="#353534"/>
        <path id="Trazado_602565" data-name="Trazado 602565" d="M117.907,297.772l0,3.223.491.279v-3.221Z" transform="translate(-90 -227.302)" fill="#a57f6b"/>
        <path id="Trazado_602566" data-name="Trazado 602566" d="M115.591,296.035v3.221l.211-.119v-3.224Z" transform="translate(-88.236 -225.883)" fill="#e0a98e"/>
        <path id="Trazado_602567" data-name="Trazado 602567" d="M114.025,295.115l-.486-.282.208-.126.49.285Z" transform="translate(-86.669 -224.963)" fill="#353534"/>
        <path id="Trazado_602568" data-name="Trazado 602568" d="M113.523,295.239l0,3.224.491.279v-3.221Z" transform="translate(-86.653 -225.369)" fill="#a57f6b"/>
        <path id="Trazado_602569" data-name="Trazado 602569" d="M111.2,293.588v3.22l.213-.12v-3.223Z" transform="translate(-84.885 -224.015)" fill="#e0a98e"/>
        <path id="Trazado_602570" data-name="Trazado 602570" d="M109.634,292.668l-.486-.282.208-.126.491.285Z" transform="translate(-83.318 -223.095)" fill="#353534"/>
        <path id="Trazado_602571" data-name="Trazado 602571" d="M109.135,292.792l0,3.227.49.276v-3.22Z" transform="translate(-83.304 -223.501)" fill="#a57f6b"/>
        <path id="Trazado_602572" data-name="Trazado 602572" d="M107.078,291.261v3.224l.212-.124v-3.219Z" transform="translate(-81.738 -222.242)" fill="#e0a98e"/>
        <path id="Trazado_602573" data-name="Trazado 602573" d="M105.508,290.335l-.487-.281.208-.125.491.287Z" transform="translate(-80.167 -221.316)" fill="#353534"/>
        <path id="Trazado_602574" data-name="Trazado 602574" d="M105.008,290.457l0,3.225.491.28v-3.224Z" transform="translate(-80.154 -221.719)" fill="#a57f6b"/>
        <path id="Trazado_602575" data-name="Trazado 602575" d="M102.881,288.9v3.222l.211-.12v-3.222Z" transform="translate(-78.534 -220.442)" fill="#e0a98e"/>
        <path id="Trazado_602576" data-name="Trazado 602576" d="M101.311,287.987l-.487-.282.208-.123.49.284Z" transform="translate(-76.963 -219.524)" fill="#353534"/>
        <path id="Trazado_602577" data-name="Trazado 602577" d="M100.81,288.1l0,3.226.491.279v-3.223Z" transform="translate(-76.95 -219.92)" fill="#a57f6b"/>
        <path id="Trazado_602578" data-name="Trazado 602578" d="M99.371,286.923v3.222l.213-.122V286.8Z" transform="translate(-75.854 -218.927)" fill="#e0a98e"/>
        <path id="Trazado_602579" data-name="Trazado 602579" d="M97.8,286.006l-.487-.281.208-.127.492.284Z" transform="translate(-74.283 -218.01)" fill="#353534"/>
        <path id="Trazado_602580" data-name="Trazado 602580" d="M97.3,286.136l0,3.222.492.281v-3.222Z" transform="translate(-74.269 -218.42)" fill="#a57f6b"/>
        <path id="Trazado_602581" data-name="Trazado 602581" d="M121.942,298.614l0,.346.46.265,0-.344Z" transform="translate(-93.082 -227.946)" fill="#e0a98e"/>
        <path id="Trazado_602582" data-name="Trazado 602582" d="M122.409,287.117l6.4-3.643-.454-.271-6.407,3.647Z" transform="translate(-93.09 -216.182)" fill="#353534"/>
        <path id="Trazado_602583" data-name="Trazado 602583" d="M130.284,284.35l0,.349-6.407,3.638,0-.344Z" transform="translate(-94.563 -217.057)" fill="#f6caba"/>
        <path id="Trazado_602584" data-name="Trazado 602584" d="M124.369,298.614l0,.346-.46.265,0-.344Z" transform="translate(-94.585 -227.946)" fill="#a57f6b"/>
        <path id="Trazado_602585" data-name="Trazado 602585" d="M103.254,287.117l-6.4-3.643.457-.271,6.407,3.647Z" transform="translate(-73.931 -216.182)" fill="#353534"/>
        <path id="Trazado_602586" data-name="Trazado 602586" d="M96.844,284.35l0,.349,6.408,3.638,0-.344Z" transform="translate(-73.924 -217.057)" fill="#f6caba"/>
        <path id="Trazado_602587" data-name="Trazado 602587" d="M102.064,326.907v7.548l-6.6-3.774v-7.545l2.457,1.4.026.013.3.174,1.27.724.329.189Z" transform="translate(-72.871 -246.663)" fill="#353534"/>
        <path id="Trazado_602588" data-name="Trazado 602588" d="M129.948,330.659l0,0-6.595,3.771v-7.547l2.468-1.418.862-.492,0,0,.8-.458,2.46-1.407,0,2.821,0,.444v1.691l0,1.594Z" transform="translate(-94.158 -246.642)" fill="#f6caba"/>
        <path id="Trazado_602589" data-name="Trazado 602589" d="M102.064,346.634l6.591-3.778-6.591-3.782-6.6,3.788Z" transform="translate(-72.874 -258.83)" fill="#fff"/>
        <path id="Trazado_602590" data-name="Trazado 602590" d="M134.632,329.512l.8-.458.679.393.4.225.027.015,1.355.782.013.006v4.734l-.01-.006-1.178-.676-1.082-.617-.491-.283-1.376-.785,0,0v0l0-1.579.86-.5,0-1.244Z" transform="translate(-102.108 -251.182)" fill="#353534"/>
        <path id="Trazado_602591" data-name="Trazado 602591" d="M134.632,330.989V333.8l0,0h0l-.2.123-.659.393,0-1.579v-1.25l.862-.492Z" transform="translate(-102.108 -252.659)" fill="#e0a98e"/>
        <path id="Trazado_602592" data-name="Trazado 602592" d="M133.777,343.378l4.137,2.364v-1l-3.279-1.88Z" transform="translate(-102.118 -261.718)" fill="#f6caba"/>
        <path id="Trazado_602593" data-name="Trazado 602593" d="M137.414,329.512l.8-.458.679.393v3.725l-.718-.41-.248-.144-.122-.07-.395-.227h0v-1.562l0-1.244Z" transform="translate(-104.89 -251.182)" fill="#414040"/>
        <path id="Trazado_602594" data-name="Trazado 602594" d="M137.416,329.512l.8-.458.679.393.4.225-.4.232-1.477.853,0,0,0-1.244Z" transform="translate(-104.892 -251.182)" fill="#727271"/>
        <path id="Trazado_602595" data-name="Trazado 602595" d="M139.076,338.518l2.883-1.643v1.691l-1.4.811Z" transform="translate(-106.163 -257.152)" fill="#727271"/>
        <path id="Trazado_602596" data-name="Trazado 602596" d="M103.152,330.023l-1.269-.724-.3-.171-1.356.783v3.124l2.021-1.154,1.231-.722v-.944Z" transform="translate(-76.51 -251.237)" fill="#b1b0b0"/>
        <path id="Trazado_602597" data-name="Trazado 602597" d="M103.154,329.972v.95l-2.922,1.69v-2.781l1.329-.771.026.013.3.174Z" transform="translate(-76.512 -251.186)" fill="#fff"/>
        <path id="Trazado_602598" data-name="Trazado 602598" d="M126.91,357.549l.211.121v-3.224l-.211-.119Z" transform="translate(-96.876 -270.474)" fill="#e0a98e"/>
        <path id="Trazado_602599" data-name="Trazado 602599" d="M127.121,353.529l.487-.278-.208-.125-.49.284Z" transform="translate(-96.876 -269.557)" fill="#353534"/>
        <path id="Trazado_602600" data-name="Trazado 602600" d="M128.287,353.656l0,3.224-.491.278v-3.224Z" transform="translate(-97.556 -269.962)" fill="#a57f6b"/>
        <path id="Trazado_602601" data-name="Trazado 602601" d="M122.422,360.115l.212.121v-3.22l-.212-.123Z" transform="translate(-93.45 -272.432)" fill="#e0a98e"/>
        <path id="Trazado_602602" data-name="Trazado 602602" d="M122.634,356.1l.487-.283-.208-.125-.491.284Z" transform="translate(-93.451 -271.515)" fill="#353534"/>
        <path id="Trazado_602603" data-name="Trazado 602603" d="M123.8,356.219l0,3.225-.491.278V356.5Z" transform="translate(-94.134 -271.918)" fill="#a57f6b"/>
        <path id="Trazado_602604" data-name="Trazado 602604" d="M131.295,355.02l.212.121v-3.22l-.212-.123Z" transform="translate(-100.223 -268.543)" fill="#e0a98e"/>
        <path id="Trazado_602605" data-name="Trazado 602605" d="M131.507,351l.486-.283-.208-.125-.49.284Z" transform="translate(-100.224 -267.626)" fill="#353534"/>
        <path id="Trazado_602606" data-name="Trazado 602606" d="M132.677,351.124l0,3.225-.489.278v-3.22Z" transform="translate(-100.907 -268.029)" fill="#a57f6b"/>
        <path id="Trazado_602607" data-name="Trazado 602607" d="M135.686,352.573l.213.121v-3.221l-.213-.123Z" transform="translate(-103.575 -266.675)" fill="#e0a98e"/>
        <path id="Trazado_602608" data-name="Trazado 602608" d="M135.9,348.554l.485-.282-.208-.126-.489.285Z" transform="translate(-103.575 -265.755)" fill="#353534"/>
        <path id="Trazado_602609" data-name="Trazado 602609" d="M137.069,348.677l0,3.222-.489.281v-3.221Z" transform="translate(-104.261 -266.16)" fill="#a57f6b"/>
        <path id="Trazado_602610" data-name="Trazado 602610" d="M139.81,350.234l.211.119v-3.221l-.211-.123Z" transform="translate(-106.724 -264.888)" fill="#e0a98e"/>
        <path id="Trazado_602611" data-name="Trazado 602611" d="M140.021,346.215l.487-.28-.207-.127-.491.284Z" transform="translate(-106.723 -263.971)" fill="#353534"/>
        <path id="Trazado_602612" data-name="Trazado 602612" d="M141.188,346.346l0,3.224-.491.276v-3.221Z" transform="translate(-107.403 -264.381)" fill="#a57f6b"/>
        <path id="Trazado_602613" data-name="Trazado 602613" d="M144.006,347.889l.213.123v-3.223l-.213-.121Z" transform="translate(-109.926 -263.101)" fill="#e0a98e"/>
        <path id="Trazado_602614" data-name="Trazado 602614" d="M144.219,343.873l.487-.283-.208-.123-.492.284Z" transform="translate(-109.926 -262.184)" fill="#353534"/>
        <path id="Trazado_602615" data-name="Trazado 602615" d="M145.391,343.986l0,3.227-.491.279v-3.223Z" transform="translate(-110.612 -262.58)" fill="#a57f6b"/>
        <path id="Trazado_602616" data-name="Trazado 602616" d="M147.512,345.91l.213.121v-3.222l-.213-.12Z" transform="translate(-112.602 -261.589)" fill="#e0a98e"/>
        <path id="Trazado_602617" data-name="Trazado 602617" d="M147.725,341.89l.485-.283-.207-.123-.491.285Z" transform="translate(-112.603 -260.67)" fill="#353534"/>
        <path id="Trazado_602618" data-name="Trazado 602618" d="M148.895,342l0,3.227-.49.279v-3.223Z" transform="translate(-113.288 -261.066)" fill="#a57f6b"/>
        <path id="Trazado_602619" data-name="Trazado 602619" d="M119.492,354.878V358.1l.211-.123v-3.222Z" transform="translate(-91.214 -270.802)" fill="#e0a98e"/>
        <path id="Trazado_602620" data-name="Trazado 602620" d="M117.922,353.957l-.487-.281.207-.126.491.285Z" transform="translate(-89.644 -269.881)" fill="#353534"/>
        <path id="Trazado_602621" data-name="Trazado 602621" d="M117.422,354.084l0,3.225.491.28v-3.224Z" transform="translate(-89.63 -270.288)" fill="#a57f6b"/>
        <path id="Trazado_602622" data-name="Trazado 602622" d="M115.1,352.352v3.222l.213-.124v-3.222Z" transform="translate(-87.862 -268.871)" fill="#e0a98e"/>
        <path id="Trazado_602623" data-name="Trazado 602623" d="M113.536,351.442l-.485-.283.207-.123.492.282Z" transform="translate(-86.297 -267.961)" fill="#353534"/>
        <path id="Trazado_602624" data-name="Trazado 602624" d="M113.037,351.555l0,3.227.49.279v-3.222Z" transform="translate(-86.283 -268.357)" fill="#a57f6b"/>
        <path id="Trazado_602625" data-name="Trazado 602625" d="M110.711,349.909v3.224l.212-.123v-3.22Z" transform="translate(-84.511 -267.01)" fill="#e0a98e"/>
        <path id="Trazado_602626" data-name="Trazado 602626" d="M109.145,348.992l-.485-.281.207-.123.491.284Z" transform="translate(-82.945 -266.093)" fill="#353534"/>
        <path id="Trazado_602627" data-name="Trazado 602627" d="M108.646,349.108l0,3.224.49.28v-3.224Z" transform="translate(-82.931 -266.489)" fill="#a57f6b"/>
        <path id="Trazado_602628" data-name="Trazado 602628" d="M106.586,347.57v3.223l.213-.123v-3.22Z" transform="translate(-81.362 -265.224)" fill="#e0a98e"/>
        <path id="Trazado_602629" data-name="Trazado 602629" d="M105.016,346.653l-.487-.282.209-.123.49.284Z" transform="translate(-79.792 -264.306)" fill="#353534"/>
        <path id="Trazado_602630" data-name="Trazado 602630" d="M104.523,346.767l0,3.227.489.278v-3.223Z" transform="translate(-79.786 -264.702)" fill="#a57f6b"/>
        <path id="Trazado_602631" data-name="Trazado 602631" d="M102.387,345.22v3.222l.212-.121V345.1Z" transform="translate(-78.156 -263.429)" fill="#e0a98e"/>
        <path id="Trazado_602632" data-name="Trazado 602632" d="M100.818,344.3l-.486-.283.208-.123.49.284Z" transform="translate(-76.588 -262.513)" fill="#353534"/>
        <path id="Trazado_602633" data-name="Trazado 602633" d="M100.318,344.417l0,3.224.491.281V344.7Z" transform="translate(-76.574 -262.909)" fill="#a57f6b"/>
        <path id="Trazado_602634" data-name="Trazado 602634" d="M98.883,343.242v3.22l.211-.12V343.12Z" transform="translate(-75.482 -261.918)" fill="#e0a98e"/>
        <path id="Trazado_602635" data-name="Trazado 602635" d="M97.311,342.323l-.487-.282.208-.126.491.285Z" transform="translate(-73.91 -260.999)" fill="#353534"/>
        <path id="Trazado_602636" data-name="Trazado 602636" d="M96.812,342.445l0,3.224.491.279v-3.22Z" transform="translate(-73.898 -261.404)" fill="#a57f6b"/>
        <path id="Trazado_602637" data-name="Trazado 602637" d="M121.452,354.93v.346l.46.268,0-.349Z" transform="translate(-92.709 -270.934)" fill="#e0a98e"/>
        <path id="Trazado_602638" data-name="Trazado 602638" d="M121.917,343.424l6.4-3.64-.455-.274-6.407,3.649Z" transform="translate(-92.714 -259.163)" fill="#353534"/>
        <path id="Trazado_602639" data-name="Trazado 602639" d="M129.8,340.668v.35l-6.405,3.638,0-.349Z" transform="translate(-94.191 -260.047)" fill="#f6caba"/>
        <path id="Trazado_602640" data-name="Trazado 602640" d="M123.879,354.93l0,.346-.46.268,0-.349Z" transform="translate(-94.212 -270.934)" fill="#a57f6b"/>
        <path id="Trazado_602641" data-name="Trazado 602641" d="M102.769,343.424l-6.4-3.64.456-.274,6.405,3.649Z" transform="translate(-73.561 -259.163)" fill="#353534"/>
        <path id="Trazado_602642" data-name="Trazado 602642" d="M96.363,340.668v.35l6.407,3.638,0-.349Z" transform="translate(-73.557 -260.047)" fill="#f6caba"/>
        <path id="Trazado_602643" data-name="Trazado 602643" d="M54.009,266.976v2.731l-5.355-2.556V264.42Z" transform="translate(-37.14 -201.843)" fill="#fff"/>
        <path id="Trazado_602644" data-name="Trazado 602644" d="M52.294,265.363l.573-.323-5.182-2.925-.578.33Z" transform="translate(-35.959 -200.084)" fill="#a26f64"/>
        <path id="Trazado_602645" data-name="Trazado 602645" d="M69.6,274.476l0,2.984-.577.325V274.8Z" transform="translate(-52.69 -209.519)" fill="#a57f6b"/>
        <path id="Trazado_602646" data-name="Trazado 602646" d="M47.685,266.171l-.578.323v-2.986l.578.329Z" transform="translate(-35.96 -201.147)" fill="#a26f64"/>
        <path id="Trazado_602647" data-name="Trazado 602647" d="M47.685,274.761l4.609,2.588V278l-5.187-2.919Z" transform="translate(-35.96 -209.737)" fill="#a26f64"/>
        <path id="Trazado_602648" data-name="Trazado 602648" d="M47.107,263.508v2.986l5.187,2.919v-2.986Zm5.01,5.6-4.832-2.715v-2.581l4.832,2.717Z" transform="translate(-35.959 -201.147)" fill="#f6caba"/>
        <path id="Trazado_602649" data-name="Trazado 602649" d="M54.07,249.8v2.732l-5.355-2.558v-2.732Z" transform="translate(-37.186 -188.732)" fill="#fff"/>
        <path id="Trazado_602650" data-name="Trazado 602650" d="M52.363,248.189l.574-.324-5.183-2.925-.576.332Z" transform="translate(-36.013 -186.973)" fill="#a26f64"/>
        <path id="Trazado_602651" data-name="Trazado 602651" d="M69.659,257.3l0,2.987-.578.322v-2.984Z" transform="translate(-52.736 -196.408)" fill="#a57f6b"/>
        <path id="Trazado_602652" data-name="Trazado 602652" d="M47.753,249l-.576.323v-2.984l.576.329Z" transform="translate(-36.013 -188.043)" fill="#a26f64"/>
        <path id="Trazado_602653" data-name="Trazado 602653" d="M47.753,257.585l4.609,2.591v.651l-5.185-2.919Z" transform="translate(-36.013 -196.626)" fill="#a26f64"/>
        <path id="Trazado_602654" data-name="Trazado 602654" d="M47.178,246.341v2.984l5.185,2.919v-2.984Zm5.008,5.6-4.831-2.717v-2.576l4.831,2.714Z" transform="translate(-36.013 -188.043)" fill="#f6caba"/>
        <path id="Trazado_602655" data-name="Trazado 602655" d="M25.92,252.916v2.732l-5.354-2.558v-2.732Z" transform="translate(-15.699 -191.109)" fill="#fff"/>
        <path id="Trazado_602656" data-name="Trazado 602656" d="M24.205,251.311l.573-.325L19.6,248.063l-.578.326Z" transform="translate(-14.517 -189.358)" fill="#a26f64"/>
        <path id="Trazado_602657" data-name="Trazado 602657" d="M41.512,260.411l0,2.987-.576.323v-2.985Z" transform="translate(-31.251 -198.783)" fill="#a57f6b"/>
        <path id="Trazado_602658" data-name="Trazado 602658" d="M19.6,252.106l-.578.322v-2.986l.578.33Z" transform="translate(-14.517 -190.41)" fill="#a26f64"/>
        <path id="Trazado_602659" data-name="Trazado 602659" d="M19.6,260.7l4.61,2.59v.652l-5.188-2.92Z" transform="translate(-14.517 -199.003)" fill="#a26f64"/>
        <path id="Trazado_602660" data-name="Trazado 602660" d="M19.017,249.443v2.986l5.188,2.92v-2.985Zm5.01,5.6L19.2,252.326v-2.577l4.832,2.715Z" transform="translate(-14.517 -190.411)" fill="#f6caba"/>
        <path id="Trazado_602661" data-name="Trazado 602661" d="M25.977,235.749v2.731l-5.356-2.559v-2.73Z" transform="translate(-15.741 -178.005)" fill="#fff"/>
        <path id="Trazado_602662" data-name="Trazado 602662" d="M24.274,234.134l.573-.325-5.183-2.922-.576.331Z" transform="translate(-14.571 -176.246)" fill="#a26f64"/>
        <path id="Trazado_602663" data-name="Trazado 602663" d="M41.573,243.235l0,2.989-.577.322v-2.986Z" transform="translate(-31.297 -185.672)" fill="#a57f6b"/>
        <path id="Trazado_602664" data-name="Trazado 602664" d="M19.663,234.945l-.576.322v-2.982l.576.329Z" transform="translate(-14.57 -177.314)" fill="#a26f64"/>
        <path id="Trazado_602665" data-name="Trazado 602665" d="M19.663,243.524l4.61,2.591v.652l-5.186-2.921Z" transform="translate(-14.57 -185.892)" fill="#a26f64"/>
        <path id="Trazado_602666" data-name="Trazado 602666" d="M19.088,232.286v2.982l5.186,2.921V235.2Zm5.009,5.6-4.833-2.714V232.59l4.833,2.717Z" transform="translate(-14.571 -177.314)" fill="#f6caba"/>
        <path id="Trazado_602667" data-name="Trazado 602667" d="M50.952,325.352v2.731L45.6,325.526v-2.731Z" transform="translate(-34.807 -246.403)" fill="#fff"/>
        <path id="Trazado_602668" data-name="Trazado 602668" d="M49.245,323.741l.574-.322L44.635,320.5l-.575.329Z" transform="translate(-33.634 -244.649)" fill="#a26f64"/>
        <path id="Trazado_602669" data-name="Trazado 602669" d="M66.543,332.848l0,2.986-.577.323V333.17Z" transform="translate(-50.357 -254.077)" fill="#a57f6b"/>
        <path id="Trazado_602670" data-name="Trazado 602670" d="M44.635,324.548l-.575.324v-2.987l.575.329Z" transform="translate(-33.633 -245.71)" fill="#a26f64"/>
        <path id="Trazado_602671" data-name="Trazado 602671" d="M44.635,333.136l4.61,2.589v.652L44.06,333.46Z" transform="translate(-33.633 -254.297)" fill="#a26f64"/>
        <path id="Trazado_602672" data-name="Trazado 602672" d="M44.061,321.886v2.987l5.185,2.916V324.8Zm5.008,5.6-4.831-2.717V322.19l4.831,2.717Z" transform="translate(-33.634 -245.71)" fill="#f6caba"/>
        <path id="Trazado_602673" data-name="Trazado 602673" d="M51.013,308.181v2.732l-5.355-2.556v-2.732Z" transform="translate(-34.853 -233.297)" fill="#fff"/>
        <path id="Trazado_602674" data-name="Trazado 602674" d="M49.3,306.57l.573-.324-5.183-2.925-.577.329Z" transform="translate(-33.677 -231.538)" fill="#a26f64"/>
        <path id="Trazado_602675" data-name="Trazado 602675" d="M66.608,315.681l0,2.987-.576.322v-2.985Z" transform="translate(-50.408 -240.973)" fill="#a57f6b"/>
        <path id="Trazado_602676" data-name="Trazado 602676" d="M44.694,307.374l-.577.323V304.71l.577.329Z" transform="translate(-33.676 -232.598)" fill="#a26f64"/>
        <path id="Trazado_602677" data-name="Trazado 602677" d="M44.694,315.966l4.61,2.59v.652l-5.187-2.919Z" transform="translate(-33.676 -241.191)" fill="#a26f64"/>
        <path id="Trazado_602678" data-name="Trazado 602678" d="M44.117,304.71V307.7l5.187,2.919v-2.985Zm5.009,5.6L44.294,307.6v-2.58l4.832,2.716Z" transform="translate(-33.677 -232.599)" fill="#f6caba"/>
        <path id="Trazado_602679" data-name="Trazado 602679" d="M22.86,311.288v2.734l-5.357-2.56V308.73Z" transform="translate(-13.361 -235.667)" fill="#fff"/>
        <path id="Trazado_602680" data-name="Trazado 602680" d="M21.156,309.69l.574-.325-5.183-2.92-.575.327Z" transform="translate(-12.191 -233.922)" fill="#a26f64"/>
        <path id="Trazado_602681" data-name="Trazado 602681" d="M38.452,318.783l0,2.989-.578.322v-2.986Z" transform="translate(-28.915 -243.341)" fill="#a57f6b"/>
        <path id="Trazado_602682" data-name="Trazado 602682" d="M16.546,310.486l-.576.324v-2.986l.576.329Z" transform="translate(-12.191 -234.976)" fill="#a26f64"/>
        <path id="Trazado_602683" data-name="Trazado 602683" d="M16.546,319.071l4.609,2.589v.654L15.97,319.4Z" transform="translate(-12.191 -243.561)" fill="#a26f64"/>
        <path id="Trazado_602684" data-name="Trazado 602684" d="M15.971,307.824v2.986l5.185,2.919v-2.986Zm5.008,5.6-4.831-2.717v-2.577l4.831,2.715Z" transform="translate(-12.191 -234.976)" fill="#f6caba"/>
        <path id="Trazado_602685" data-name="Trazado 602685" d="M22.925,294.128v2.732L17.57,294.3v-2.729Z" transform="translate(-13.412 -222.571)" fill="#fff"/>
        <path id="Trazado_602686" data-name="Trazado 602686" d="M21.212,292.515l.573-.324L16.6,289.268l-.577.329Z" transform="translate(-12.233 -220.811)" fill="#a26f64"/>
        <path id="Trazado_602687" data-name="Trazado 602687" d="M38.516,301.616l0,2.988-.577.323v-2.987Z" transform="translate(-28.964 -230.237)" fill="#a57f6b"/>
        <path id="Trazado_602688" data-name="Trazado 602688" d="M16.6,293.319l-.577.322v-2.984l.577.329Z" transform="translate(-12.233 -221.872)" fill="#a26f64"/>
        <path id="Trazado_602689" data-name="Trazado 602689" d="M16.6,301.9l4.61,2.591v.652l-5.187-2.921Z" transform="translate(-12.233 -230.457)" fill="#a26f64"/>
        <path id="Trazado_602690" data-name="Trazado 602690" d="M16.025,290.658v2.984l5.187,2.921v-2.987Zm5.01,5.6L16.2,293.543v-2.582l4.831,2.717Z" transform="translate(-12.233 -221.872)" fill="#f6caba"/>
        <path id="Trazado_602691" data-name="Trazado 602691" d="M243.32,238.054v3.224l.211-.121v-3.222Z" transform="translate(-185.737 -181.626)" fill="#e0a98e"/>
        <path id="Trazado_602692" data-name="Trazado 602692" d="M241.75,237.137l-.487-.28.208-.123.49.284Z" transform="translate(-184.167 -180.709)" fill="#353534"/>
        <path id="Trazado_602693" data-name="Trazado 602693" d="M241.25,237.255l0,3.224.491.281v-3.224Z" transform="translate(-184.154 -181.107)" fill="#a57f6b"/>
        <path id="Trazado_602694" data-name="Trazado 602694" d="M238.929,235.525v3.224l.213-.121v-3.222Z" transform="translate(-182.385 -179.695)" fill="#e0a98e"/>
        <path id="Trazado_602695" data-name="Trazado 602695" d="M237.364,234.609l-.485-.28.207-.123.492.284Z" transform="translate(-180.82 -178.779)" fill="#353534"/>
        <path id="Trazado_602696" data-name="Trazado 602696" d="M236.865,234.727l0,3.226.49.278v-3.224Z" transform="translate(-180.806 -179.177)" fill="#a57f6b"/>
        <path id="Trazado_602697" data-name="Trazado 602697" d="M234.543,233.077V236.3l.211-.121v-3.222Z" transform="translate(-179.037 -177.828)" fill="#e0a98e"/>
        <path id="Trazado_602698" data-name="Trazado 602698" d="M232.974,232.158l-.486-.278.207-.125.491.285Z" transform="translate(-177.468 -176.909)" fill="#353534"/>
        <path id="Trazado_602699" data-name="Trazado 602699" d="M232.473,232.285l0,3.224.491.278v-3.224Z" transform="translate(-177.453 -177.314)" fill="#a57f6b"/>
        <path id="Trazado_602700" data-name="Trazado 602700" d="M230.594,232.037l-.174.1v2.891l.211-.123v-2.891Z" transform="translate(-175.89 -177.108)" fill="#e0a98e"/>
        <path id="Trazado_602701" data-name="Trazado 602701" d="M228.838,232.537v2.891l-.49-.28,0-2.331.174-.1Z" transform="translate(-174.308 -177.506)" fill="#a57f6b"/>
        <path id="Trazado_602702" data-name="Trazado 602702" d="M226.388,234.452l-.175.1v1.763l.213-.124v-1.764Z" transform="translate(-172.679 -178.95)" fill="#e0a98e"/>
        <path id="Trazado_602703" data-name="Trazado 602703" d="M224.637,234.957v1.762l-.488-.279v-1.208l.044-.025.13-.072Z" transform="translate(-171.103 -179.353)" fill="#a57f6b"/>
        <path id="Trazado_602704" data-name="Trazado 602704" d="M222.889,236.458l-.173.1v.822l.211-.121v-.822Z" transform="translate(-170.01 -180.483)" fill="#e0a98e"/>
        <path id="Trazado_602705" data-name="Trazado 602705" d="M221.971,237.049v.625l.177.1v-.822Z" transform="translate(-169.44 -180.874)" fill="#a57f6b"/>
        <path id="Trazado_602706" data-name="Trazado 602706" d="M247.246,238.365l0,.346.46-.267,0-.346Z" transform="translate(-188.734 -181.751)" fill="#a57f6b"/>
        <path id="Trazado_602707" data-name="Trazado 602707" d="M232.964,230.226l-.015.008,2.9,1.652.464.263.024.013.438-.254.009-.007.014-.006-.014-.007,0,0h0l-.46-.265-2.9-1.647Z" transform="translate(-177.82 -175.548)" fill="#353534"/>
        <path id="Trazado_602708" data-name="Trazado 602708" d="M235.348,233.3v.049l-.02-.011-.018-.01h0l-.209-.12-.079-.042-.393-.222-.071-.04-.139-.081h0l-.108-.064-.376-.214-.341-.191-.213-.122-.486-.278-.34-.191-.211-.119h0l-.154-.09-.025-.012-.306-.174,0,0-.2-.11.018-.01.075-.043.085-.049.128-.075,2.9,1.652.464.263.024.013v.053Z" transform="translate(-176.832 -176.394)" fill="#f6caba"/>
        <path id="Trazado_602709" data-name="Trazado 602709" d="M225.592,254.923l.211.123v-3.222l-.211-.121Z" transform="translate(-172.205 -192.135)" fill="#e0a98e"/>
        <path id="Trazado_602710" data-name="Trazado 602710" d="M225.8,250.907l.486-.282-.207-.124-.491.284Z" transform="translate(-172.204 -191.218)" fill="#353534"/>
        <path id="Trazado_602711" data-name="Trazado 602711" d="M226.97,251.023l0,3.227-.491.278V251.3Z" transform="translate(-172.885 -191.617)" fill="#a57f6b"/>
        <path id="Trazado_602712" data-name="Trazado 602712" d="M221.971,257.984l.009,0v-3.221l-.009,0Z" transform="translate(-169.44 -194.471)" fill="#e0a98e"/>
        <path id="Trazado_602713" data-name="Trazado 602713" d="M222.466,253.2l-.469.271h0v0l-.014.009-.009,0v-.236l.027-.014.26-.148Z" transform="translate(-169.44 -193.184)" fill="#353534"/>
        <path id="Trazado_602714" data-name="Trazado 602714" d="M222.494,253.595l0,3.225-.491.277v-3.221Z" transform="translate(-169.468 -193.58)" fill="#a57f6b"/>
        <path id="Trazado_602715" data-name="Trazado 602715" d="M229.977,252.4l.213.121v-3.222l-.213-.121Z" transform="translate(-175.552 -190.205)" fill="#e0a98e"/>
        <path id="Trazado_602716" data-name="Trazado 602716" d="M230.19,248.377l.486-.281-.208-.125-.49.284Z" transform="translate(-175.552 -189.288)" fill="#353534"/>
        <path id="Trazado_602717" data-name="Trazado 602717" d="M231.363,248.5l0,3.225-.49.278v-3.222Z" transform="translate(-176.238 -189.691)" fill="#a57f6b"/>
        <path id="Trazado_602718" data-name="Trazado 602718" d="M234.367,249.946l.211.124v-3.222l-.211-.121Z" transform="translate(-178.903 -188.337)" fill="#e0a98e"/>
        <path id="Trazado_602719" data-name="Trazado 602719" d="M234.578,245.928l.488-.283-.209-.124-.491.285Z" transform="translate(-178.903 -187.417)" fill="#353534"/>
        <path id="Trazado_602720" data-name="Trazado 602720" d="M235.747,246.043l0,3.227-.492.278v-3.222Z" transform="translate(-179.584 -187.816)" fill="#a57f6b"/>
        <path id="Trazado_602721" data-name="Trazado 602721" d="M238.492,247.616l.213.12v-3.223l-.213-.119Z" transform="translate(-182.051 -186.557)" fill="#e0a98e"/>
        <path id="Trazado_602722" data-name="Trazado 602722" d="M238.705,243.587l.486-.281-.208-.126-.491.287Z" transform="translate(-182.052 -185.63)" fill="#353534"/>
        <path id="Trazado_602723" data-name="Trazado 602723" d="M239.877,243.712l0,3.224-.489.28v-3.223Z" transform="translate(-182.737 -186.036)" fill="#a57f6b"/>
        <path id="Trazado_602724" data-name="Trazado 602724" d="M242.695,245.259l.211.119v-3.219l-.211-.124Z" transform="translate(-185.26 -184.755)" fill="#e0a98e"/>
        <path id="Trazado_602725" data-name="Trazado 602725" d="M242.906,241.241l.487-.283-.208-.125-.49.284Z" transform="translate(-185.26 -183.839)" fill="#353534"/>
        <path id="Trazado_602726" data-name="Trazado 602726" d="M244.072,241.361l0,3.224-.491.278v-3.22Z" transform="translate(-185.94 -184.242)" fill="#a57f6b"/>
        <path id="Trazado_602727" data-name="Trazado 602727" d="M246.2,243.285l.212.121v-3.222l-.212-.121Z" transform="translate(-187.934 -183.251)" fill="#e0a98e"/>
        <path id="Trazado_602728" data-name="Trazado 602728" d="M246.2,239.145l.212.12.487-.28-.207-.126Z" transform="translate(-187.934 -182.332)" fill="#353534"/>
        <path id="Trazado_602729" data-name="Trazado 602729" d="M247.091,239.67v3.222l.491-.278,0-3.224Z" transform="translate(-188.616 -182.737)" fill="#a57f6b"/>
        <path id="Trazado_602730" data-name="Trazado 602730" d="M221.971,253.71l.009,0,.014.008h0v-.346l-.027-.015Z" transform="translate(-169.44 -193.404)" fill="#e0a98e"/>
        <path id="Trazado_602731" data-name="Trazado 602731" d="M227.932,236.906l-.467.267-.231.127-.071.045-.139.078,0,0-.484.274-.341.191-.213.123-.489.277-.337.191-.213.124-.489.275,0,0-2.483,1.411v.5l.027.014,2.794-1.587.154-.088.213-.121.335-.193v0h0l.489-.276.213-.121.338-.192.486-.277.212-.121.394-.223.3-.172.467-.265,0,0-.009-.007-.443-.265Z" transform="translate(-169.44 -180.835)" fill="#353534"/>
        <path id="Trazado_602732" data-name="Trazado 602732" d="M222.076,241.684l0,.346,6.407-3.638,0-.348Z" transform="translate(-169.519 -181.71)" fill="#f6caba"/>
        <path id="Trazado_602733" data-name="Trazado 602733" d="M222.086,297.918l6.585-3.765-6.585-3.783Z" transform="translate(-169.528 -221.652)" fill="#353534"/>
        <path id="Trazado_602734" data-name="Trazado 602734" d="M243.429,291.041v3.22l.212-.12v-3.222Z" transform="translate(-185.82 -222.071)" fill="#e0a98e"/>
        <path id="Trazado_602735" data-name="Trazado 602735" d="M241.861,290.121l-.486-.282.208-.126.491.285Z" transform="translate(-184.252 -221.151)" fill="#353534"/>
        <path id="Trazado_602736" data-name="Trazado 602736" d="M241.364,290.245l0,3.227.49.275v-3.22Z" transform="translate(-184.242 -221.557)" fill="#a57f6b"/>
        <path id="Trazado_602737" data-name="Trazado 602737" d="M239.044,288.512v3.222l.212-.123v-3.222Z" transform="translate(-182.473 -220.14)" fill="#e0a98e"/>
        <path id="Trazado_602738" data-name="Trazado 602738" d="M237.475,287.6l-.487-.282.209-.124.489.283Z" transform="translate(-180.903 -219.228)" fill="#353534"/>
        <path id="Trazado_602739" data-name="Trazado 602739" d="M236.976,287.716l0,3.227.491.278V288Z" transform="translate(-180.891 -219.626)" fill="#a57f6b"/>
        <path id="Trazado_602740" data-name="Trazado 602740" d="M234.652,286.069v3.222l.213-.123v-3.22Z" transform="translate(-179.121 -218.277)" fill="#e0a98e"/>
        <path id="Trazado_602741" data-name="Trazado 602741" d="M233.085,285.15l-.486-.283.208-.124.49.285Z" transform="translate(-177.553 -217.358)" fill="#353534"/>
        <path id="Trazado_602742" data-name="Trazado 602742" d="M232.586,285.266l0,3.227.49.279v-3.223Z" transform="translate(-177.54 -217.756)" fill="#a57f6b"/>
        <path id="Trazado_602743" data-name="Trazado 602743" d="M230.7,285.027l-.175.1v2.891l.212-.123v-2.891Z" transform="translate(-175.973 -217.557)" fill="#e0a98e"/>
        <path id="Trazado_602744" data-name="Trazado 602744" d="M228.951,285.526v2.891l-.489-.278.005-2.334.174-.1Z" transform="translate(-174.395 -217.955)" fill="#a57f6b"/>
        <path id="Trazado_602745" data-name="Trazado 602745" d="M226.5,287.449l-.175.1v1.764l.212-.123v-1.762Z" transform="translate(-172.765 -219.407)" fill="#e0a98e"/>
        <path id="Trazado_602746" data-name="Trazado 602746" d="M224.748,287.941V289.7l-.489-.28,0-1.206.044-.025.129-.072Z" transform="translate(-171.186 -219.798)" fill="#a57f6b"/>
        <path id="Trazado_602747" data-name="Trazado 602747" d="M223,289.443l-.174.1v.817l.212-.119v-.823Z" transform="translate(-170.094 -220.927)" fill="#e0a98e"/>
        <path id="Trazado_602748" data-name="Trazado 602748" d="M222.086,290.047v.62l.175.1v-.817Z" transform="translate(-169.528 -221.33)" fill="#a57f6b"/>
        <path id="Trazado_602749" data-name="Trazado 602749" d="M247.365,291.36v.346l.46-.267,0-.344Z" transform="translate(-188.825 -222.205)" fill="#a57f6b"/>
        <path id="Trazado_602750" data-name="Trazado 602750" d="M233.079,283.207l-.014.011,2.9,1.652.465.261.025.014.438-.252.009-.009.013-.006-.013-.006,0,0h0l-.461-.264-2.9-1.651Z" transform="translate(-177.908 -215.99)" fill="#353534"/>
        <path id="Trazado_602751" data-name="Trazado 602751" d="M235.459,286.3v.05l-.02-.012-.018-.011,0,0-.209-.118-.078-.043-.394-.225-.071-.037-.139-.081h0l-.106-.061-.379-.217-.338-.194-.214-.118-.487-.278-.34-.194-.209-.116h0l-.153-.089-.025-.013-.307-.177v0l-.2-.108.018-.01.075-.045.086-.049.128-.073,2.9,1.652.465.261.024.014v.3Z" transform="translate(-176.917 -216.845)" fill="#f6caba"/>
        <path id="Trazado_602752" data-name="Trazado 602752" d="M225.7,307.909l.213.119v-3.22l-.213-.123Z" transform="translate(-172.288 -232.58)" fill="#e0a98e"/>
        <path id="Trazado_602753" data-name="Trazado 602753" d="M225.914,303.891l.486-.28-.208-.127-.491.284Z" transform="translate(-172.288 -231.663)" fill="#353534"/>
        <path id="Trazado_602754" data-name="Trazado 602754" d="M227.086,304.022l0,3.221-.491.279V304.3Z" transform="translate(-172.973 -232.073)" fill="#a57f6b"/>
        <path id="Trazado_602755" data-name="Trazado 602755" d="M222.086,310.974l.008,0v-3.222l-.008,0Z" transform="translate(-169.528 -234.92)" fill="#e0a98e"/>
        <path id="Trazado_602756" data-name="Trazado 602756" d="M222.581,306.181l-.471.27h0v0l-.015.008-.008,0v-.235l.028-.015.259-.151Z" transform="translate(-169.528 -233.626)" fill="#353534"/>
        <path id="Trazado_602757" data-name="Trazado 602757" d="M222.6,306.584l0,3.225-.49.278v-3.22Z" transform="translate(-169.553 -234.029)" fill="#a57f6b"/>
        <path id="Trazado_602758" data-name="Trazado 602758" d="M230.089,305.384l.212.121v-3.222l-.212-.121Z" transform="translate(-175.638 -230.654)" fill="#e0a98e"/>
        <path id="Trazado_602759" data-name="Trazado 602759" d="M230.3,301.36l.486-.281-.208-.127-.49.286Z" transform="translate(-175.637 -229.73)" fill="#353534"/>
        <path id="Trazado_602760" data-name="Trazado 602760" d="M231.47,301.489l0,3.222-.491.281V301.77Z" transform="translate(-176.32 -230.14)" fill="#a57f6b"/>
        <path id="Trazado_602761" data-name="Trazado 602761" d="M234.477,302.931l.212.121V299.83l-.212-.124Z" transform="translate(-178.987 -228.779)" fill="#e0a98e"/>
        <path id="Trazado_602762" data-name="Trazado 602762" d="M234.688,298.912l.488-.281-.209-.127-.491.284Z" transform="translate(-178.986 -227.862)" fill="#353534"/>
        <path id="Trazado_602763" data-name="Trazado 602763" d="M235.858,299.042l0,3.222-.492.281v-3.222Z" transform="translate(-179.669 -228.272)" fill="#a57f6b"/>
        <path id="Trazado_602764" data-name="Trazado 602764" d="M238.6,300.6l.213.123V297.5l-.213-.123Z" transform="translate(-182.135 -226.999)" fill="#e0a98e"/>
        <path id="Trazado_602765" data-name="Trazado 602765" d="M238.815,296.587l.486-.281-.208-.123-.491.282Z" transform="translate(-182.135 -226.089)" fill="#353534"/>
        <path id="Trazado_602766" data-name="Trazado 602766" d="M239.988,296.7l0,3.226-.49.278v-3.222Z" transform="translate(-182.822 -226.487)" fill="#a57f6b"/>
        <path id="Trazado_602767" data-name="Trazado 602767" d="M242.8,298.253l.212.124v-3.224l-.212-.119Z" transform="translate(-185.344 -225.212)" fill="#e0a98e"/>
        <path id="Trazado_602768" data-name="Trazado 602768" d="M243.017,294.229l.487-.281-.209-.125-.489.286Z" transform="translate(-185.344 -224.288)" fill="#353534"/>
        <path id="Trazado_602769" data-name="Trazado 602769" d="M244.188,294.351l0,3.224-.491.281v-3.224Z" transform="translate(-186.028 -224.691)" fill="#a57f6b"/>
        <path id="Trazado_602770" data-name="Trazado 602770" d="M246.316,296.276l.211.12v-3.224l-.211-.118Z" transform="translate(-188.024 -223.701)" fill="#e0a98e"/>
        <path id="Trazado_602771" data-name="Trazado 602771" d="M246.316,292.134l.211.118.486-.278-.207-.126Z" transform="translate(-188.024 -222.781)" fill="#353534"/>
        <path id="Trazado_602772" data-name="Trazado 602772" d="M247.207,292.657v3.224l.491-.278,0-3.224Z" transform="translate(-188.704 -223.186)" fill="#a57f6b"/>
        <path id="Trazado_602773" data-name="Trazado 602773" d="M222.086,306.7l.008,0,.015.008v-.036l0-.244v-.063l-.028-.017Z" transform="translate(-169.528 -233.853)" fill="#e0a98e"/>
        <path id="Trazado_602774" data-name="Trazado 602774" d="M228.045,289.9l-.466.265-.23.129-.071.043-.139.076,0,0-.485.276-.338.192L226.1,291l-.489.28-.337.194-.212.119-.489.278,0,0-2.483,1.411v.5l.028.017,2.792-1.59.154-.087.212-.121.336-.193v0h0l.489-.276.213-.121.336-.191.487-.278.213-.121.394-.223.3-.173.466-.263,0,0-.009,0-.445-.266Z" transform="translate(-169.528 -221.288)" fill="#353534"/>
        <path id="Trazado_602775" data-name="Trazado 602775" d="M222.192,294.676l0,.343,6.406-3.638,0-.348Z" transform="translate(-169.607 -222.159)" fill="#f6caba"/>
        <path id="Trazado_602776" data-name="Trazado 602776" d="M159.168,253.946v3.982l12.112-6.5v-3.982Z" transform="translate(-121.5 -188.885)" fill="#fff"/>
        <path id="Trazado_602777" data-name="Trazado 602777" d="M159.564,252.256l-.6-.34,11.933-6.885.605.346Z" transform="translate(-121.343 -187.043)" fill="#a26f64"/>
        <path id="Trazado_602778" data-name="Trazado 602778" d="M158.963,274.124l0,4.25.6.337v-4.247Z" transform="translate(-121.343 -209.251)" fill="#a57f6b"/>
        <path id="Trazado_602779" data-name="Trazado 602779" d="M209.41,250.4l.605.337v-4.247l-.605.346Z" transform="translate(-159.852 -188.158)" fill="#a26f64"/>
        <path id="Trazado_602780" data-name="Trazado 602780" d="M172.859,263.013l-11.332,6.534v.683l11.937-6.879Z" transform="translate(-123.301 -200.769)" fill="#a26f64"/>
        <path id="Trazado_602781" data-name="Trazado 602781" d="M161.527,253.372v4.247l11.937-6.879v-4.247Zm.186.108,11.565-6.668v3.819L161.713,257.3Z" transform="translate(-123.301 -188.159)" fill="#f6caba"/>
        <path id="Trazado_602782" data-name="Trazado 602782" d="M161.729,306.939v3.982l12.113-6.5v-3.98Z" transform="translate(-123.455 -229.339)" fill="#fff"/>
        <path id="Trazado_602783" data-name="Trazado 602783" d="M162.128,305.254l-.6-.34,11.933-6.883.6.343Z" transform="translate(-123.301 -227.501)" fill="#a26f64"/>
        <path id="Trazado_602784" data-name="Trazado 602784" d="M161.527,327.116l0,4.249.6.337v-4.247Z" transform="translate(-123.301 -249.702)" fill="#a57f6b"/>
        <path id="Trazado_602785" data-name="Trazado 602785" d="M211.977,303.39l.605.339v-4.247l-.605.345Z" transform="translate(-161.811 -228.607)" fill="#a26f64"/>
        <path id="Trazado_602786" data-name="Trazado 602786" d="M175.425,316l-11.332,6.535v.683l11.937-6.879Z" transform="translate(-125.26 -241.214)" fill="#a26f64"/>
        <path id="Trazado_602787" data-name="Trazado 602787" d="M164.094,306.361v4.247l11.937-6.879v-4.247Zm.186.106,11.565-6.667v3.822L164.28,310.29Z" transform="translate(-125.26 -228.607)" fill="#f6caba"/>
      </g>
    </g>
  </g>
</svg>
