<svg xmlns="http://www.w3.org/2000/svg" xmlns:xlink="http://www.w3.org/1999/xlink" width="1030" height="527" viewBox="0 0 1030 527">
  <defs>
    <clipPath id="clip-path">
      <rect id="Rectángulo_47084" data-name="Rectángulo 47084" width="100.5" height="100.49" fill="#144567"/>
    </clipPath>
  </defs>
  <g id="Grupo_161135" data-name="Grupo 161135" transform="translate(2112 4677)">
    <g id="Grupo_160930" data-name="Grupo 160930" transform="translate(-2397 -12410)">
      <rect id="Rectángulo_46944" data-name="Rectángulo 46944" width="1030" height="527" transform="translate(285 7733)" fill="#fff"/>
      <text id="Estructura_organizacional_funcional" data-name="Estructura organizacional funcional" transform="translate(663 7760)" fill="#12263f" font-size="17" font-family="Roboto-Bold, Roboto" font-weight="700"><tspan x="0" y="0">Estructura organizacional funcional</tspan></text>
      <path id="Trazado_602788" data-name="Trazado 602788" d="M-11959-9548v20" transform="translate(-9198.43 19967.715) rotate(90)" fill="none" stroke="#144567" stroke-width="2"/>
      <path id="Trazado_602789" data-name="Trazado 602789" d="M0,0V34.865" transform="translate(702 8008.715) rotate(90)" fill="none" stroke="#144567" stroke-width="2"/>
      <path id="Trazado_602790" data-name="Trazado 602790" d="M-11959-9548v20" transform="translate(-8508.001 19967.715) rotate(90)" fill="none" stroke="#144567" stroke-width="2"/>
      <path id="Trazado_602791" data-name="Trazado 602791" d="M-11959-9548v20" transform="translate(-9198.43 20060.555) rotate(90)" fill="none" stroke="#144567" stroke-width="2"/>
      <path id="Trazado_602792" data-name="Trazado 602792" d="M0,0V34.865" transform="translate(702 8101.555) rotate(90)" fill="none" stroke="#144567" stroke-width="2"/>
      <path id="Trazado_602793" data-name="Trazado 602793" d="M-11959-9548v20" transform="translate(-8508.001 20060.555) rotate(90)" fill="none" stroke="#144567" stroke-width="2"/>
      <path id="Trazado_602794" data-name="Trazado 602794" d="M-11959-9548v59.221" transform="translate(12759.285 17388.654)" fill="none" stroke="#144567" stroke-width="2"/>
      <path id="Trazado_602795" data-name="Trazado 602795" d="M-12010.147-9518.388V-9548h-336.783" transform="translate(13146.237 17418.262)" fill="none" stroke="#144567" stroke-width="2"/>
      <path id="Trazado_602796" data-name="Trazado 602796" d="M-11959-9518.388V-9548h352.158" transform="translate(12405.842 17418.262)" fill="none" stroke="#144567" stroke-width="2"/>
      <rect id="Rectángulo_46945" data-name="Rectángulo 46945" width="190" height="50" rx="8" transform="translate(705 7899.874)" fill="#def8f3"/>
      <rect id="Rectángulo_46946" data-name="Rectángulo 46946" width="187.769" height="50" rx="8" transform="translate(1042 7899.874)" fill="#def8f3"/>
      <text id="Ventas" transform="translate(774 7915.874)" fill="#12263f" font-size="16" font-family="Roboto-Medium, Roboto" font-weight="500"><tspan x="0" y="15">Ventas</tspan></text>
      <text id="Finanzas_" data-name="Finanzas " transform="translate(1100 7915.874)" fill="#12263f" font-size="16" font-family="Roboto-Medium, Roboto" font-weight="500"><tspan x="0" y="15">Finanzas </tspan></text>
      <rect id="Rectángulo_46947" data-name="Rectángulo 46947" width="230.429" height="72" rx="15" transform="translate(350 7972.715)" fill="#f6efe9"/>
      <rect id="Rectángulo_46948" data-name="Rectángulo 46948" width="230.429" height="72" rx="15" transform="translate(702 7972.715)" fill="#f6efe9"/>
      <rect id="Rectángulo_46949" data-name="Rectángulo 46949" width="230.429" height="72" rx="15" transform="translate(1040 7972.715)" fill="#f6efe9"/>
      <rect id="Rectángulo_46950" data-name="Rectángulo 46950" width="230.429" height="72" rx="15" transform="translate(349.571 8065.556)" fill="#f6efe9"/>
      <rect id="Rectángulo_46951" data-name="Rectángulo 46951" width="230.429" height="72" rx="15" transform="translate(702 8065.556)" fill="#f6efe9"/>
      <rect id="Rectángulo_46952" data-name="Rectángulo 46952" width="230.429" height="72" rx="15" transform="translate(1040 8065.556)" fill="#f6efe9"/>
      <rect id="Rectángulo_46953" data-name="Rectángulo 46953" width="230.429" height="72" rx="15" transform="translate(349.571 8158.396)" fill="#f6efe9"/>
      <rect id="Rectángulo_46954" data-name="Rectángulo 46954" width="230.429" height="72" rx="15" transform="translate(702 8158.396)" fill="#f6efe9"/>
      <rect id="Rectángulo_46955" data-name="Rectángulo 46955" width="230.429" height="72" rx="15" transform="translate(1040 8158.396)" fill="#f6efe9"/>
      <text id="Marketing_" data-name="Marketing " transform="translate(1117 7998.715)" fill="#12263f" font-size="16" font-family="Roboto-Italic, Roboto" font-style="italic"><tspan x="0" y="17">Marketing </tspan></text>
      <text id="Marketing_2" data-name="Marketing " transform="translate(779 7998.715)" fill="#12263f" font-size="16" font-family="Roboto-Italic, Roboto" font-style="italic"><tspan x="0" y="17">Marketing </tspan></text>
      <text id="Marketing_3" data-name="Marketing " transform="translate(426 7998.715)" fill="#12263f" font-size="16" font-family="Roboto-Italic, Roboto" font-style="italic"><tspan x="0" y="17">Marketing </tspan></text>
      <text id="Ventas-2" data-name="Ventas" transform="translate(1128 8091.556)" fill="#12263f" font-size="16" font-family="Roboto-Regular, Roboto"><tspan x="0" y="15">Ventas</tspan></text>
      <text id="Ventas-3" data-name="Ventas" transform="translate(790 8091.556)" fill="#12263f" font-size="16" font-family="Roboto-Regular, Roboto"><tspan x="0" y="15">Ventas</tspan></text>
      <text id="Ventas-4" data-name="Ventas" transform="translate(438 8091.556)" fill="#12263f" font-size="16" font-family="Roboto-Regular, Roboto"><tspan x="0" y="15">Ventas</tspan></text>
      <text id="Finanzas" transform="translate(1120 8184.396)" fill="#12263f" font-size="16" font-family="Roboto-Regular, Roboto"><tspan x="0" y="15">Finanzas</tspan></text>
      <text id="Finanzas-2" data-name="Finanzas" transform="translate(782 8184.396)" fill="#12263f" font-size="16" font-family="Roboto-Regular, Roboto"><tspan x="0" y="15">Finanzas</tspan></text>
      <text id="Finanzas-3" data-name="Finanzas" transform="translate(430 8184.396)" fill="#12263f" font-size="16" font-family="Roboto-Regular, Roboto"><tspan x="0" y="15">Finanzas</tspan></text>
      <path id="Trazado_602797" data-name="Trazado 602797" d="M-11959-9548v36.841" transform="translate(-8729.875 19859.875) rotate(90)" fill="none" stroke="#144567" stroke-width="2"/>
      <path id="Trazado_602798" data-name="Trazado 602798" d="M-11959-9548v36.841" transform="translate(-8393.491 19859.875) rotate(90)" fill="none" stroke="#144567" stroke-width="2"/>
      <path id="Trazado_602799" data-name="Trazado 602799" d="M-3567.8-4627.626H-3590V-4358.6h21.3" transform="translate(3919.571 12553)" fill="none" stroke="#144567" stroke-width="2"/>
      <path id="Trazado_602800" data-name="Trazado 602800" d="M-3552.931-4627.626H-3590V-4358.6h35.568" transform="translate(4257.135 12553)" fill="none" stroke="#144567" stroke-width="2"/>
      <path id="Trazado_602801" data-name="Trazado 602801" d="M-3567.8-4627.626H-3590V-4358.6h21.3" transform="translate(4610 12553)" fill="none" stroke="#144567" stroke-width="2"/>
      <rect id="Rectángulo_46956" data-name="Rectángulo 46956" width="190" height="50" rx="8" transform="translate(350 7899.874)" fill="#def8f3"/>
      <text id="Marketing_4" data-name="Marketing " transform="translate(405 7915.874)" fill="#12263f" font-size="16" font-family="Roboto-BoldItalic, Roboto" font-weight="700" font-style="italic"><tspan x="0" y="17">Marketing </tspan></text>
      <path id="Trazado_602802" data-name="Trazado 602802" d="M-11959-9548v36.841" transform="translate(-9082.738 19859.875) rotate(90)" fill="none" stroke="#144567" stroke-width="2"/>
      <rect id="Rectángulo_46957" data-name="Rectángulo 46957" width="190" height="60" rx="8" transform="translate(705 7790)" fill="#144567"/>
      <text id="CEO" transform="translate(780 7808)" fill="#fff" font-size="20" font-family="Roboto-Medium, Roboto" font-weight="500"><tspan x="0" y="19">CEO</tspan></text>
      <path id="Trazado_602803" data-name="Trazado 602803" d="M-11959-9548v36.841" transform="translate(-8732.313 19742) rotate(90)" fill="none" stroke="#144567" stroke-width="2"/>
    </g>
    <g id="Grupo_161131" data-name="Grupo 161131" transform="translate(-2069.5 -4648)">
      <g id="Grupo_161130" data-name="Grupo 161130" clip-path="url(#clip-path)">
        <path id="Trazado_603015" data-name="Trazado 603015" d="M0,228.9c.172-.62.325-1.245.519-1.859a11.23,11.23,0,0,1,10.555-7.928c3.4-.064,6.8,0,10.2-.033a4.8,4.8,0,0,0,1.7-.323q16.037-6.422,32.058-12.883c.212-.085.42-.181.633-.262,1.759-.669,3,.166,3.009,2.05.012,4.314.027,8.629-.016,12.942-.008.839.179,1.219,1.048,1.493a8.784,8.784,0,0,1,5.844,8.247,8.893,8.893,0,0,1-5.883,8.337c-.306.1-.614.2-.99.324v5.781c0,2.647-.047,5.3.021,7.941a2.663,2.663,0,0,1-1.392,2.667H56.126a3.125,3.125,0,0,0-.406-.236q-15.253-6.146-30.511-12.283a6.883,6.883,0,0,0-.693-.193c0,3.4-.022,6.735.012,10.067a2.464,2.464,0,0,1-1.567,2.645H14.13a2.383,2.383,0,0,1-1.578-2.536c.031-3.368.011-6.736.011-10.1v-1.109c-.58,0-1.033.01-1.485,0A11.281,11.281,0,0,1,.519,233.7c-.192-.614-.347-1.24-.519-1.86V228.9m45.966-15.112c-.3.1-.454.144-.6.2q-10.08,4.058-20.166,8.1a.974.974,0,0,0-.692,1.1c.018,4.74.028,9.48-.009,14.22a1.208,1.208,0,0,0,.92,1.337q11.96,4.764,23.894,9.589c1.779.715,3.558,1.428,5.391,2.163V210.232c-1.371.551-2.652,1.112-3.967,1.574a1.134,1.134,0,0,0-.861,1.288c.026,6.538.019,13.076.013,19.614,0,1.541-.729,2.446-1.93,2.455s-1.956-.912-1.991-2.424c-.005-.229,0-.458,0-.686V213.785Zm-25.425,9.364c-3.516,0-6.956-.2-10.361.055a7.24,7.24,0,0,0-.04,14.339c3.148.271,6.331.137,9.5.177.285,0,.57-.026.9-.043Zm-.015,18.58H16.568v9.709h3.958Zm38.225-15.711v8.747a4.762,4.762,0,0,0,2.866-4.674,4.573,4.573,0,0,0-2.866-4.073" transform="translate(0 -154.901)" fill="#144567"/>
        <path id="Trazado_603016" data-name="Trazado 603016" d="M49.833,49.073c-.655,0-1.172,0-1.689,0a4.731,4.731,0,0,1-5.031-5.046q-.02-11.28,0-22.561c0-2.518,0-5.035,0-7.553.007-3.376,1.906-5.262,5.308-5.263q15.6,0,31.193,0h.926a23.065,23.065,0,0,1,1.026-4.026c1.451-3.18,4.1-4.6,7.551-4.607q14.714-.009,29.428,0c2.158,0,4.317-.033,6.474.008a7.82,7.82,0,0,1,7.957,7.967q.079,11.231,0,22.463a7.834,7.834,0,0,1-8.2,8.02c-6.409.021-12.817.005-19.226.005h-1.237c0,.38,0,.721,0,1.062-.024,1.8.072,3.606-.106,5.387a4.557,4.557,0,0,1-4.576,4.141c-.326.014-.654.007-.981.007q-18.539,0-37.079-.014a2.056,2.056,0,0,0-1.627.661c-2.1,2.151-4.22,4.289-6.39,6.372a3.323,3.323,0,0,1-1.761.9c-1.141.135-1.925-.817-1.948-2.2-.03-1.86-.008-3.721-.008-5.717m57-14.521q8.879,0,17.758,0c2.922,0,4.472-1.555,4.474-4.482q.006-10.792,0-21.584c0-3-1.528-4.546-4.508-4.547q-17.659,0-35.319,0c-2.988,0-4.522,1.538-4.523,4.532q0,10.743,0,21.486c0,3.072,1.511,4.594,4.558,4.6q8.781,0,17.561,0m-6.454,3.924H99.233q-4.954,0-9.909,0c-5.232,0-8.531-3.285-8.536-8.492q-.007-8.143,0-16.287v-1.04a2.43,2.43,0,0,0-.382-.079q-16.139-.006-32.278-.011c-.8,0-1.1.374-1.1,1.145q.013,15.158,0,30.316c0,.784.333,1.139,1.121,1.125q1.668-.03,3.336,0a2.011,2.011,0,0,1,2.266,2.223c.024.9,0,1.8,0,2.7a35.088,35.088,0,0,0,3.981-3.708,3.7,3.7,0,0,1,2.942-1.238q18.984.047,37.969.019c.262,0,.585.1.772-.023.361-.23.9-.57.917-.885.086-1.884.043-3.774.043-5.766" transform="translate(-32.511 0)" fill="#144567"/>
        <path id="Trazado_603017" data-name="Trazado 603017" d="M297.317,303.259c-1.73,0-3.46.016-5.19-.005a2.069,2.069,0,0,1-2.275-1.59,1.927,1.927,0,0,1,2-2.313c2.415-.038,4.831-.014,7.246-.015,1.175,0,2.35-.017,3.525.006a1.957,1.957,0,1,1,.082,3.9c-1.794.053-3.59.013-5.385.013Z" transform="translate(-218.578 -225.758)" fill="#144567"/>
        <path id="Trazado_603018" data-name="Trazado 603018" d="M282.81,351.465a10.1,10.1,0,0,1-1.676-1.007c-1.236-1.158-2.425-2.366-3.6-3.582a1.97,1.97,0,1,1,2.781-2.744c1.237,1.2,2.453,2.431,3.661,3.664a1.781,1.781,0,0,1,.449,2.223,7.49,7.49,0,0,1-1.612,1.447" transform="translate(-208.76 -258.967)" fill="#144567"/>
        <path id="Trazado_603019" data-name="Trazado 603019" d="M284.668,240.275a9.39,9.39,0,0,1-.954,1.621c-1.139,1.212-2.324,2.381-3.521,3.535a1.959,1.959,0,0,1-2.948.124,1.983,1.983,0,0,1,.188-2.882c1.179-1.219,2.385-2.412,3.6-3.6a1.754,1.754,0,0,1,2.229-.408,7.529,7.529,0,0,1,1.407,1.6" transform="translate(-208.698 -179.822)" fill="#144567"/>
        <path id="Trazado_603020" data-name="Trazado 603020" d="M191.033,345.275a1.979,1.979,0,0,1-1.892,1.987,2,2,0,0,1-1.973-1.918,1.965,1.965,0,0,1,1.9-1.971,1.94,1.94,0,0,1,1.96,1.9" transform="translate(-141.165 -258.976)" fill="#144567"/>
        <path id="Trazado_603021" data-name="Trazado 603021" d="M268.133,48.541c0-2.449-.011-4.9,0-7.347.012-2.027,1.474-2.9,3.221-1.9q6.412,3.67,12.8,7.386c1.76,1.023,1.779,2.733.037,3.749q-6.425,3.746-12.88,7.44c-1.685.963-3.162.075-3.175-1.882-.017-2.482,0-4.963,0-7.445m4.022-4.26v8.577l7.42-4.293-7.42-4.284" transform="translate(-202.226 -29.323)" fill="#144567"/>
        <path id="Trazado_603022" data-name="Trazado 603022" d="M95.448,83.853c3.106,0,6.212-.006,9.318,0a2.073,2.073,0,0,1,2.24,1.376,1.947,1.947,0,0,1-1.946,2.532c-1.371.05-2.746.013-4.119.013H86.424c-.294,0-.59.015-.882-.011a1.94,1.94,0,0,1-1.925-1.95,1.9,1.9,0,0,1,1.925-1.942c1.207-.057,2.419-.019,3.628-.02q3.139,0,6.277,0" transform="translate(-63.065 -63.234)" fill="#144567"/>
        <path id="Trazado_603023" data-name="Trazado 603023" d="M91.719,132.511c-1.929,0-3.857.01-5.786,0-1.458-.01-2.316-.75-2.316-1.959s.859-1.954,2.317-1.957q5.737-.016,11.474,0c1.422,0,2.34.793,2.339,1.959s-.918,1.948-2.341,1.958c-1.9.013-3.792,0-5.688,0" transform="translate(-63.065 -96.979)" fill="#144567"/>
        <path id="Trazado_603024" data-name="Trazado 603024" d="M167.3,130.56a1.92,1.92,0,1,1-1.965-1.9,1.943,1.943,0,0,1,1.965,1.9" transform="translate(-123.282 -97.038)" fill="#144567"/>
      </g>
    </g>
  </g>
</svg>
