<svg xmlns="http://www.w3.org/2000/svg" xmlns:xlink="http://www.w3.org/1999/xlink" width="1031" height="424" viewBox="0 0 1031 424">
  <defs>
    <clipPath id="clip-path">
      <rect id="Rectángulo_47126" data-name="Rectángulo 47126" width="54.917" height="54.903" fill="#144567"/>
    </clipPath>
    <clipPath id="clip-path-2">
      <rect id="Rectángulo_47127" data-name="Rectángulo 47127" width="58.479" height="58.065" fill="#144567"/>
    </clipPath>
    <clipPath id="clip-path-3">
      <rect id="Rectángulo_47129" data-name="Rectángulo 47129" width="56.766" height="63.912" fill="#144567"/>
    </clipPath>
    <clipPath id="clip-path-4">
      <rect id="Rectángulo_47130" data-name="Rectángulo 47130" width="57.212" height="57.395" fill="#144567"/>
    </clipPath>
    <clipPath id="clip-path-5">
      <rect id="Rectángulo_47131" data-name="Rectángulo 47131" width="55.463" height="55.49" fill="#144567"/>
    </clipPath>
    <clipPath id="clip-path-6">
      <rect id="Rectángulo_47136" data-name="Rectángulo 47136" width="60.081" height="60.14" fill="#144567"/>
    </clipPath>
  </defs>
  <g id="Grupo_161183" data-name="Grupo 161183" transform="translate(-285 -10602)">
    <g id="Rectángulo_47132" data-name="Rectángulo 47132" transform="translate(580 10602)" fill="none" stroke="#144567" stroke-width="2" stroke-dasharray="3">
      <rect width="440" height="424" stroke="none"/>
      <rect x="1" y="1" width="438" height="422" fill="none"/>
    </g>
    <path id="Trazado_603048" data-name="Trazado 603048" d="M68.089,0H516V116H0Z" transform="translate(285 10618)" fill="#def8f3"/>
    <path id="Trazado_603049" data-name="Trazado 603049" d="M68.089,0H516V116H0Z" transform="translate(285 10890.745)" fill="#def8f3"/>
    <path id="Trazado_603050" data-name="Trazado 603050" d="M68.089,0H516V116H0Z" transform="translate(1316 10870.373) rotate(180)" fill="#def8f3"/>
    <path id="Trazado_603051" data-name="Trazado 603051" d="M26.338,0,0,45.618,26.338,91.236H79.013l26.338-45.618L79.013,0Z" transform="translate(312.324 10630.416)" fill="#144567"/>
    <path id="Trazado_603052" data-name="Trazado 603052" d="M26.338,0,0,45.618,26.338,91.236H79.013l26.338-45.618L79.013,0Z" transform="translate(312.324 10903.161)" fill="#144567"/>
    <path id="Trazado_603053" data-name="Trazado 603053" d="M26.337,0,0,45.618,26.337,91.236H79.013l26.338-45.618L79.013,0Z" transform="translate(1288.675 10857.951) rotate(180)" fill="#833343"/>
    <path id="Intersección_3" data-name="Intersección 3" d="M23.017,92.07,0,52.2,30.64,0H76.172l26.579,46.035L76.172,92.07Z" transform="translate(315.404 10630)" fill="#fff"/>
    <path id="Intersección_4" data-name="Intersección 4" d="M23.017,92.07,0,52.2,30.64,0H76.172l26.579,46.035L76.172,92.07Z" transform="translate(315 10903)" fill="#fff"/>
    <path id="Intersección_5" data-name="Intersección 5" d="M23.017,92.07,0,52.2,30.64,0H76.172l26.579,46.035L76.172,92.07Z" transform="translate(1285.751 10858.07) rotate(180)" fill="#fff"/>
    <g id="Grupo_161166" data-name="Grupo 161166" transform="translate(800 10618)">
      <path id="Trazado_603058" data-name="Trazado 603058" d="M447.911,0H0V116H516Z" fill="#f6efe9"/>
      <path id="Trazado_603059" data-name="Trazado 603059" d="M79.013,0l26.337,45.618L79.013,91.236H26.338L0,45.618,26.338,0Z" transform="translate(383.324 12.416)" fill="#144567"/>
      <path id="Intersección_4-2" data-name="Intersección 4" d="M23.017,0,0,39.87l30.64,52.2H76.172l26.579-46.035L76.172,0Z" transform="translate(485.596 104.07) rotate(180)" fill="#fff"/>
    </g>
    <g id="Grupo_161167" data-name="Grupo 161167" transform="translate(800 10891)">
      <path id="Trazado_603058-2" data-name="Trazado 603058" d="M447.911,0H0V116H516Z" fill="#f6efe9"/>
      <path id="Trazado_603059-2" data-name="Trazado 603059" d="M79.013,0l26.337,45.618L79.013,91.236H26.338L0,45.618,26.338,0Z" transform="translate(383.324 12.416)" fill="#144567"/>
      <path id="Intersección_4-3" data-name="Intersección 4" d="M23.017,0,0,39.87l30.64,52.2H76.172l26.579-46.035L76.172,0Z" transform="translate(485.596 104.07) rotate(180)" fill="#fff"/>
    </g>
    <path id="Trazado_603060" data-name="Trazado 603060" d="M447.911,0H0V116H516Z" transform="translate(801 10870.373) rotate(180)" fill="#f6efe9"/>
    <path id="Trazado_603061" data-name="Trazado 603061" d="M79.013,0l26.337,45.618L79.013,91.236H26.338L0,45.618,26.338,0Z" transform="translate(417.675 10857.957) rotate(180)" fill="#833343"/>
    <path id="Intersección_6" data-name="Intersección 6" d="M23.017,0,0,39.87l30.64,52.2H76.172l26.579-46.035L76.172,0Z" transform="translate(315.404 10766.303)" fill="#fff"/>
    <text id="Objetivos_estratégicos:_son_los_objetivos_y_metas_a_largo_plazo_de_las_empresas_las_cuales_permiten_cumplir_la_misión_o_visión_de_la_empresa." data-name="Objetivos estratégicos: son los objetivos y metas a largo plazo de las empresas, las cuales permiten cumplir la misión o visión de la empresa." transform="translate(440 10766)" fill="#12263f" font-size="17" font-family="Roboto-Bold, Roboto" font-weight="700"><tspan x="0" y="16">Objetivos estratégicos: </tspan><tspan y="16" font-family="Roboto-Regular, Roboto" font-weight="400">son los objetivos y </tspan><tspan x="0" y="40" font-family="Roboto-Regular, Roboto" font-weight="400">metas a largo plazo de las empresas, las </tspan><tspan x="0" y="64" font-family="Roboto-Regular, Roboto" font-weight="400">cuales permiten cumplir la misión o visión </tspan><tspan x="0" y="88" font-family="Roboto-Regular, Roboto" font-weight="400">de la empresa.</tspan></text>
    <rect id="Rectángulo_47133" data-name="Rectángulo 47133" width="4" height="95" transform="translate(799 10629)" fill="#833343"/>
    <rect id="Rectángulo_47134" data-name="Rectángulo 47134" width="4" height="95" transform="translate(799 10902)" fill="#833343"/>
    <rect id="Rectángulo_47135" data-name="Rectángulo 47135" width="4" height="95" transform="translate(803 10859) rotate(180)" fill="#144567"/>
    <text id="Misión:_describe_lo_que_hace_la_empresa_su_razón_de_ser._" data-name="Misión: describe lo que hace la empresa, su razón de ser. " transform="translate(440 10654)" fill="#12263f" font-size="17" font-family="Roboto-Bold, Roboto" font-weight="700"><tspan x="0" y="16">Misión: </tspan><tspan y="16" font-family="Roboto-Regular, Roboto" font-weight="400">describe lo que hace la empresa, </tspan><tspan x="0" y="40" font-family="Roboto-Regular, Roboto" font-weight="400">su razón de ser. </tspan></text>
    <text id="Visión:_lo_que_desea_lograr_o_como_se_ve_en_el_largo_tiempo." data-name="Visión: lo que desea lograr o como se ve en el largo tiempo." transform="translate(834 10654)" fill="#12263f" font-size="17" font-family="Roboto-Bold, Roboto" font-weight="700"><tspan x="0" y="16">Visión: </tspan><tspan y="16" font-family="Roboto-Regular, Roboto" font-weight="400">lo que desea lograr o como se ve </tspan><tspan x="0" y="40" font-family="Roboto-Regular, Roboto" font-weight="400">en el largo tiempo.</tspan></text>
    <text id="Valores_corporativos:_principios_y_valores_que_caracterizan_a_una_empresa._" data-name="Valores corporativos: principios y valores que caracterizan a una empresa. " transform="translate(834 10786.366)" fill="#12263f" font-size="17" font-family="Roboto-Bold, Roboto" font-weight="700"><tspan x="0" y="16">Valores corporativos:</tspan><tspan y="16" xml:space="preserve" font-family="Roboto-Regular, Roboto" font-weight="400"> principios y valores </tspan><tspan x="0" y="40" font-family="Roboto-Regular, Roboto" font-weight="400">que caracterizan a una empresa. </tspan></text>
    <text id="Políticas:_son_los_lineamientos_con_el_cual_se_rige_el_marco_normativo_de_una_empresa." data-name="Políticas: son los lineamientos con el cual se rige el marco normativo de una empresa." transform="translate(440 10915)" fill="#12263f" font-size="17" font-family="Roboto-Bold, Roboto" font-weight="700"><tspan x="0" y="16">Políticas: </tspan><tspan y="16" font-family="Roboto-Regular, Roboto" font-weight="400">son los lineamientos con el cual </tspan><tspan x="0" y="40" font-family="Roboto-Regular, Roboto" font-weight="400">se rige el marco normativo de una </tspan><tspan x="0" y="64" font-family="Roboto-Regular, Roboto" font-weight="400">empresa.</tspan></text>
    <text id="Código_de_ética:_se_establecen_normas_por_medio_de_la_cual_se_rige_la_empresa_y_las_personas." data-name="Código de ética: se establecen normas por medio de la cual se rige la empresa y las personas." transform="translate(834 10915.245)" fill="#12263f" font-size="17" font-family="Roboto-Bold, Roboto" font-weight="700"><tspan x="0" y="16">Código de ética: </tspan><tspan y="16" font-family="Roboto-Regular, Roboto" font-weight="400">se establecen normas </tspan><tspan x="0" y="40" font-family="Roboto-Regular, Roboto" font-weight="400">por medio de la cual se rige la empresa y </tspan><tspan x="0" y="64" font-family="Roboto-Regular, Roboto" font-weight="400">las personas.</tspan></text>
    <g id="Grupo_161168" data-name="Grupo 161168" transform="translate(2.657 14.73)">
      <g id="Grupo_161170" data-name="Grupo 161170" transform="translate(334.884 10633.927)">
        <g id="Grupo_161169" data-name="Grupo 161169" clip-path="url(#clip-path)">
          <path id="Trazado_603070" data-name="Trazado 603070" d="M54.917,28.958c-.14,1.059-.235,2.127-.428,3.176A26.907,26.907,0,0,1,42.222,50.576,25.807,25.807,0,0,1,26.94,54.883C16.7,54.484,8.869,49.858,3.627,41.032A25.362,25.362,0,0,1,.02,26.9,26.905,26.905,0,0,1,12.857,4.237,26.3,26.3,0,0,1,25.328.089,3.047,3.047,0,0,0,25.74,0h3.433c1,.14,2.017.239,3.012.431,1.1.212,2.2.484,3.279.777a1.38,1.38,0,0,1,1.085,1.785,1.4,1.4,0,0,1-1.879.831,23.98,23.98,0,0,0-8.412-1.039A24.239,24.239,0,0,0,9.571,10.4,23.231,23.231,0,0,0,2.849,25.232c-.679,10.349,3.478,18.348,12.4,23.691a22.844,22.844,0,0,0,16.007,2.947c9.22-1.6,15.694-6.812,19.227-15.485A23.616,23.616,0,0,0,51.1,20.319a1.421,1.421,0,0,1,1.289-2.005,1.35,1.35,0,0,1,1.284,1.03,26.879,26.879,0,0,1,1.142,5.93c.018.229.066.455.1.682Z" transform="translate(0)" fill="#144567"/>
          <path id="Trazado_603071" data-name="Trazado 603071" d="M97.336,115.351a19.35,19.35,0,0,1-18.9-16.066A19.121,19.121,0,0,1,94.669,77.14,28.552,28.552,0,0,1,98.358,77a1.439,1.439,0,0,1,1.473,1.031,1.3,1.3,0,0,1-1.426,1.716A15.724,15.724,0,0,0,89.57,81.62,16.41,16.41,0,1,0,113.528,98.47a22.8,22.8,0,0,0,.112-3.414,1.433,1.433,0,0,1,1.232-1.6,1.328,1.328,0,0,1,1.508,1.37,23.372,23.372,0,0,1-.251,4.638c-1.7,8.118-6.629,13.239-14.665,15.3a36.276,36.276,0,0,1-4.127.585" transform="translate(-69.761 -68.73)" fill="#144567"/>
          <path id="Trazado_603072" data-name="Trazado 603072" d="M264.06,28.828c0,.59.025,1.181-.008,1.769-.024.416.136.513.524.505,1.126-.023,2.252,0,3.378-.011a1.381,1.381,0,0,1,1.469.847,1.431,1.431,0,0,1-.44,1.644q-3.951,3.934-7.884,7.886a1.828,1.828,0,0,1-1.389.569c-1.358-.011-2.717.009-4.075-.012a1.239,1.239,0,0,0-.985.4q-4.173,4.2-8.372,8.383c-.089.088-.176.178-.266.265a1.381,1.381,0,1,1-1.918-1.947q4.3-4.307,8.612-8.6a1.289,1.289,0,0,0,.419-1.031c-.025-1.34,0-2.68-.013-4.02a1.881,1.881,0,0,1,.588-1.435q3.937-3.91,7.849-7.846a1.448,1.448,0,0,1,1.686-.455,1.383,1.383,0,0,1,.829,1.481c-.012.536,0,1.072,0,1.609m-2.724,1.559a.886.886,0,0,0-.174.08q-2.563,2.555-5.121,5.116a.529.529,0,0,0-.168.314c-.012,1.119-.008,2.237-.008,3.39,1.157,0,2.245.012,3.332-.013a.843.843,0,0,0,.483-.275q2.418-2.4,4.819-4.812c.091-.091.161-.2.294-.371-.733,0-1.373.01-2.012,0a1.358,1.358,0,0,1-1.443-1.445c-.01-.64,0-1.28,0-1.983" transform="translate(-217.365 -22.871)" fill="#144567"/>
          <path id="Trazado_603073" data-name="Trazado 603073" d="M165.382,174.746a10.93,10.93,0,0,1-1.923-21.685,12.782,12.782,0,0,1,1.756-.185,1.376,1.376,0,1,1,.085,2.733,8.427,8.427,0,0,0-3.318.755,8.2,8.2,0,1,0,11.629,7.746,1.524,1.524,0,0,1,.894-1.564,1.366,1.366,0,0,1,1.861,1.408,10.939,10.939,0,0,1-10.985,10.792" transform="translate(-137.876 -136.449)" fill="#144567"/>
        </g>
      </g>
    </g>
    <g id="Grupo_161169-2" data-name="Grupo 161169" transform="translate(1205.225 10646.968)">
      <g id="Grupo_161172" data-name="Grupo 161172" clip-path="url(#clip-path-2)">
        <path id="Trazado_603074" data-name="Trazado 603074" d="M58.479,29.719c-.9,2.846-3.031,4.783-5.106,6.725a31.192,31.192,0,0,1-9.93,6.155.8.8,0,0,0-.624.89c.029,2.3.013,4.605.013,6.908v.689c1.252,0,2.463.015,3.672-.022.134,0,.3-.285.383-.469a4.156,4.156,0,1,1,5.2,5.566,4.113,4.113,0,0,1-5.143-2.215.81.81,0,0,0-.913-.589c-1.293.042-2.588.014-3.882.014-1.271,0-1.6-.321-1.6-1.572q0-3.739,0-7.479v-.681a39.22,39.22,0,0,1-10.119,1.648c-.016.2-.04.359-.04.522,0,1.161.016,2.322-.011,3.482a.729.729,0,0,0,.526.835,4.035,4.035,0,0,1,2.481,3.94,4.123,4.123,0,0,1-2.707,3.743,4.152,4.152,0,0,1-3.171-7.668c.189-.087.381-.166.582-.253V45.3A39.675,39.675,0,0,1,17.94,43.629v.663q0,3.739,0,7.479c0,1.291-.316,1.6-1.627,1.6H11.828c-.078.17-.156.337-.23.506a4.15,4.15,0,1,1-4.646-5.707,4.1,4.1,0,0,1,4.621,2.41.7.7,0,0,0,.788.519c1.078-.036,2.159-.012,3.3-.012v-.667c0-2.3-.015-4.605.012-6.908a.8.8,0,0,0-.6-.907A31.829,31.829,0,0,1,1.413,32.454c-.14-.18-.27-.368-.4-.558a4.519,4.519,0,0,1,.006-5.719,28.206,28.206,0,0,1,6.3-6.4,32.624,32.624,0,0,1,7.85-4.363.625.625,0,0,0,.492-.69c-.024-2.417-.011-4.834-.013-7.25,0-.148-.013-.3-.022-.495-1.229,0-2.423-.015-3.616.02-.14,0-.321.265-.4.443A4.16,4.16,0,1,1,7.6,1.674a4.083,4.083,0,0,1,3.955,2.471.776.776,0,0,0,.872.562c1.331-.03,2.664-.012,4-.01,1.176,0,1.513.345,1.514,1.542,0,2.7,0,5.4,0,8.191a39.517,39.517,0,0,1,10.129-1.654V8.159A4.179,4.179,0,0,1,25.261,5.33a4.154,4.154,0,1,1,5.692,2.587.811.811,0,0,0-.58.917c.038,1.291.013,2.583.013,3.938a39.349,39.349,0,0,1,10.161,1.656V9.748q0-1.713,0-3.425c0-1.313.307-1.626,1.6-1.626h4.523l.234-.53A4.149,4.149,0,1,1,51.512,9.9a4.1,4.1,0,0,1-4.58-2.389.739.739,0,0,0-.83-.545c-1.062.036-2.127.012-3.236.012-.013.194-.034.358-.034.522,0,2.4.015,4.8-.016,7.193-.006.472.212.6.576.75a31.734,31.734,0,0,1,12,8.191,32.841,32.841,0,0,1,2.486,3.256,6.958,6.958,0,0,1,.6,1.458ZM40.542,16.852l-.09.13a4.912,4.912,0,0,1,.447.354,16.342,16.342,0,0,1,3.889,6.106,1.124,1.124,0,0,1-.421,1.4,1.073,1.073,0,0,1-1.406-.144,2.856,2.856,0,0,1-.41-.739c-2.424-5.4-6.3-8.781-12.472-8.9a17.676,17.676,0,0,0-4.483.254,14.138,14.138,0,0,0-10.5,15.5c.882,7.046,7.163,12.4,13.375,12.254C31.866,43,35,42.564,37.751,40.439a14.587,14.587,0,0,0,4.877-6.54,1.15,1.15,0,0,1,1.523-.805,1.131,1.131,0,0,1,.6,1.6,19.6,19.6,0,0,1-1.426,2.909c-.829,1.265-1.813,2.427-2.7,3.586-.092-.013-.055,0-.025-.005.111-.027.221-.058.328-.1a30.819,30.819,0,0,0,13.981-9.577c1.675-2.049,1.668-2.917-.016-4.984a29.542,29.542,0,0,0-8.237-6.955,31.916,31.916,0,0,0-6.122-2.724m-22.5-.015c-.193.054-.319.082-.44.124A30.746,30.746,0,0,0,3.574,26.551c-1.681,2.059-1.676,2.911.011,4.979a30.131,30.131,0,0,0,11.594,8.633c.908.394,1.843.723,2.766,1.082a16.788,16.788,0,0,1,.1-24.41m-8.4-11.03a1.863,1.863,0,1,0-3.725.068,1.863,1.863,0,0,0,3.725-.068m42.923.031a1.863,1.863,0,1,0-1.887,1.854,1.862,1.862,0,0,0,1.887-1.854M9.646,52.27A1.863,1.863,0,1,0,7.78,54.117,1.873,1.873,0,0,0,9.646,52.27m41.085-1.893a1.845,1.845,0,0,0-1.888,1.854,1.863,1.863,0,0,0,3.726.048,1.841,1.841,0,0,0-1.838-1.9M31.1,4.178a1.862,1.862,0,1,0-1.858,1.847A1.839,1.839,0,0,0,31.1,4.178m0,49.725a1.862,1.862,0,1,0-1.823,1.872A1.855,1.855,0,0,0,31.1,53.9" transform="translate(0 -0.001)" fill="#144567"/>
        <path id="Trazado_603075" data-name="Trazado 603075" d="M130.851,136.071c0,.713.006,1.414,0,2.115a1.15,1.15,0,1,1-2.28.014c-.007-.7,0-1.4,0-2.129a7.978,7.978,0,0,1-6.594-6.594c-.677,0-1.376,0-2.075,0-.817-.006-1.353-.467-1.348-1.148s.54-1.128,1.363-1.133c.682,0,1.365,0,2.057,0a7.976,7.976,0,0,1,6.6-6.593c0-.689,0-1.388,0-2.088.006-.812.476-1.349,1.16-1.334a1.184,1.184,0,0,1,1.121,1.318c.007.7,0,1.4,0,2.1a8.016,8.016,0,0,1,6.594,6.6c.688,0,1.426-.045,2.154.02a1.852,1.852,0,0,1,1,.432.95.95,0,0,1,.156,1.164,1.1,1.1,0,0,1-1.048.664c-.757.007-1.514,0-2.257,0a8.006,8.006,0,0,1-6.594,6.6m4.348-7.75a5.49,5.49,0,1,0-5.506,5.5,5.479,5.479,0,0,0,5.506-5.5" transform="translate(-100.465 -99.301)" fill="#144567"/>
        <path id="Trazado_603076" data-name="Trazado 603076" d="M285.143,183.985a1.117,1.117,0,0,1,1.129-1.16,1.139,1.139,0,1,1-.011,2.277,1.122,1.122,0,0,1-1.118-1.118" transform="translate(-241.642 -154.933)" fill="#144567"/>
      </g>
    </g>
    <g id="Grupo_161170-2" data-name="Grupo 161170" transform="translate(335.693 10780.044)">
      <g id="Grupo_161176" data-name="Grupo 161176" clip-path="url(#clip-path-3)">
        <path id="Trazado_603078" data-name="Trazado 603078" d="M56.752,26.667a2.748,2.748,0,0,0-2.35-2.744c-.99-.163-2.165-.35-3.375-.5-.375-.046-.493-.146-.57-.485A20.706,20.706,0,0,0,47.8,16.558c-.15-.24-.143-.342.039-.577.659-.847,1.268-1.685,2-2.691a2.8,2.8,0,0,0-.267-3.85C48.852,8.7,48.1,7.949,47.331,7.2a2.793,2.793,0,0,0-3.849-.267c-.869.63-1.792,1.3-2.688,2a.4.4,0,0,1-.578.037,20.749,20.749,0,0,0-6.382-2.653c-.339-.077-.445-.2-.491-.564-.125-1-.284-2.074-.5-3.374A2.756,2.756,0,0,0,30.112.016c-1.2-.021-2.369-.021-3.477,0A2.754,2.754,0,0,0,23.921,2.4c-.195,1.182-.362,2.347-.515,3.431-.042.3-.1.4-.37.463A21.146,21.146,0,0,0,16.481,9.01a.287.287,0,0,1-.421-.019c-.907-.694-1.863-1.4-2.843-2.1a2.771,2.771,0,0,0-3.75.282c-.712.688-1.459,1.434-2.283,2.281a2.792,2.792,0,0,0-.284,3.8c.812,1.126,1.45,1.987,2.068,2.79.143.186.146.266.015.474a21.341,21.341,0,0,0-2.7,6.495c-.066.284-.152.363-.438.4-1.2.156-2.406.343-3.433.506a2.768,2.768,0,0,0-2.4,2.764C0,27.807,0,28.955.012,30.092a2.732,2.732,0,0,0,2.334,2.745c1.136.2,2.254.362,3.494.535.278.039.375.1.442.385a21.156,21.156,0,0,0,2.7,6.495c.132.21.123.3-.049.527-.619.808-1.283,1.7-2.03,2.741a2.793,2.793,0,0,0,.278,3.8c.678.7,1.381,1.392,2.06,2.064l.131.13a2.816,2.816,0,0,0,3.944.3c.4-.289.795-.582,1.191-.875.491-.363,1-.739,1.5-1.1a.92.92,0,0,1,.3-.146c.695.361,1.389.753,2.061,1.133l.415.234A5.784,5.784,0,0,0,17.7,52.8l0,.06a.57.57,0,0,1-.256.3,3.3,3.3,0,0,0-1.933,3.157,4.518,4.518,0,0,0,.126.863c.012.055.024.11.035.166a3.4,3.4,0,0,0-2.31,3.614c0,.158,0,.316,0,.474.005.329.01.668-.011,1a1.413,1.413,0,0,0,.791,1.454l.054.028H42.564l.054-.028a1.417,1.417,0,0,0,.791-1.45c-.019-.375-.016-.761-.014-1.134,0-.3,0-.6,0-.9a3.152,3.152,0,0,0-1.324-2.516,5.372,5.372,0,0,0-.8-.462l-.183-.093c.45-2.077,0-3.047-1.919-4.234a.552.552,0,0,1-.108-.334,5.292,5.292,0,0,0-.7-3.112c-.122-.187-.245-.374-.37-.563l-.018-.027.511-.279c.6-.329,1.176-.64,1.742-.98a.376.376,0,0,1,.538.024c.823.637,1.719,1.3,2.742,2.032a2.8,2.8,0,0,0,3.848-.3c.741-.725,1.471-1.461,2.149-2.147a2.813,2.813,0,0,0,.276-3.994l-.339-.463c-.524-.717-1.066-1.459-1.62-2.175a.367.367,0,0,1-.033-.528,21.445,21.445,0,0,0,2.7-6.5c.062-.265.131-.33.388-.365,1.146-.156,2.378-.332,3.617-.557a2.706,2.706,0,0,0,2.258-2.683c.02-1.106.02-2.243,0-3.475M54.4,28.718c0,.369,0,.738,0,1.107,0,.57-.092.67-.684.759l-1.1.168c-.982.152-2,.308-3,.44a1.327,1.327,0,0,0-1.237,1.169,20.121,20.121,0,0,1-3.072,7.394,1.3,1.3,0,0,0,.057,1.65c.7.925,1.4,1.875,2.071,2.794l.395.537c.379.515.372.625-.066,1.069-.646.653-1.307,1.311-1.925,1.925-.48.477-.584.485-1.113.1l-.636-.466c-.871-.638-1.771-1.3-2.646-1.96a1.406,1.406,0,0,0-1.752-.058c-.706.435-1.429.843-2.193,1.274l-.76.43L35.66,44.46l.04-.021c.138-.073.254-.134.371-.191a17.7,17.7,0,0,0,9.756-18.455,17.249,17.249,0,0,0-4.836-9.71,17.657,17.657,0,0,0-9.69-5.068,17.349,17.349,0,0,0-7.947.483c-1.267.379-1.2,1.178-1.112,1.5a1.093,1.093,0,0,0,.513.7A1.607,1.607,0,0,0,24,13.756,15.268,15.268,0,0,1,35.244,42.02c-.061.029-.128.055-.234.093l-.286-4.275c1.164-.214,1.681-.473,1.653-1.257-.027-.761-.54-1.006-1.6-1.179q0-.08,0-.16c0-.33-.007-.671.013-.99a.338.338,0,0,1,.134-.135c2.1-.981,2.731-2.293,2.147-4.5.112-.064.228-.13.341-.2A3.206,3.206,0,0,0,39.043,26.6c.013-1.807.014-3.6,0-5.328a2.11,2.11,0,0,0-2.2-2.193c-.747-.012-1.5-.012-2.237,0a2.1,2.1,0,0,0-2.189,2.129c-.018.442-.013.874-.009,1.331q0,.183,0,.368h-.578v-.286c0-.391,0-.783,0-1.176a2.167,2.167,0,0,0-2.353-2.367c-.773,0-1.53-.008-2.3,0a2.16,2.16,0,0,0-2.261,2.267c-.006.408,0,.809,0,1.233q0,.164,0,.33h-.575v-.279c0-.379,0-.754,0-1.13a2.178,2.178,0,0,0-2.413-2.423h-.363c-.531,0-1.081,0-1.623,0A2.114,2.114,0,0,0,17.72,21.3c-.006.9,0,1.8,0,2.7,0,.814,0,1.628,0,2.442a3.305,3.305,0,0,0,1.9,3.114l.033.018c-.018.15-.04.3-.061.442a5.14,5.14,0,0,0-.083,1.278,3.1,3.1,0,0,0,2.041,2.683c.434.168.5.322.459.672a4.919,4.919,0,0,0-.013.675c0,.031,0,.061,0,.093-.672.031-1.573.087-1.593,1.249-.015.853.714,1.051,1.642,1.152l-.287,4.357c-.222-.134-.447-.265-.671-.4-.571-.334-1.161-.679-1.7-1.068A14.992,14.992,0,0,1,13.13,27.936,15.28,15.28,0,0,1,20.206,15.5l.1-.062c.075-.046.151-.093.223-.144a1.188,1.188,0,0,0,.456-1.659,1.111,1.111,0,0,0-.7-.522,1.384,1.384,0,0,0-1.049.215,17.182,17.182,0,0,0-8.164,11.822,17.465,17.465,0,0,0,9.822,19.19c.064.031.126.065.209.11l-1.071,2.6c-.25-.142-.5-.279-.74-.416-.747-.418-1.453-.812-2.139-1.243a1.5,1.5,0,0,0-1.915.066c-.791.614-1.614,1.215-2.41,1.8l-.765.56c-.549.4-.653.4-1.118-.062-.79-.783-1.4-1.39-1.968-1.968-.413-.418-.42-.532-.061-1.021l.472-.643c.636-.868,1.294-1.766,1.958-2.635a1.4,1.4,0,0,0,.061-1.809,19.569,19.569,0,0,1-3-7.225,1.423,1.423,0,0,0-1.359-1.277c-.843-.1-1.7-.236-2.525-.366-.462-.072-.923-.145-1.385-.212-.707-.1-.772-.176-.774-.864,0-.308,0-.615,0-.923,0-.612.007-1.245-.01-1.87-.013-.476.152-.668.63-.733.789-.107,1.588-.229,2.361-.347.5-.076,1-.152,1.5-.225,1.114-.162,1.366-.395,1.587-1.464a20.033,20.033,0,0,1,2.854-6.9c.617-.947.607-1.228-.075-2.152q-.339-.459-.676-.919c-.536-.729-1.09-1.483-1.647-2.217a.612.612,0,0,1,.061-.97c.724-.692,1.419-1.387,2.066-2.065a.685.685,0,0,1,.483-.266.838.838,0,0,1,.487.213c.533.4,1.081.807,1.61,1.2.565.416,1.15.845,1.717,1.277a1.36,1.36,0,0,0,1.755.059,19.669,19.669,0,0,1,7.282-3.02,1.4,1.4,0,0,0,1.244-1.32c.1-.8.227-1.614.348-2.4.074-.483.149-.966.219-1.45.118-.817.181-.874.971-.875.866,0,1.733,0,2.6,0,.665,0,.753.077.854.727l.08.518c.182,1.171.37,2.382.53,3.576a1.3,1.3,0,0,0,1.134,1.2,19.866,19.866,0,0,1,7.4,3.062,1.335,1.335,0,0,0,1.7-.057c.913-.691,1.852-1.38,2.76-2.047l.57-.418c.5-.37.588-.365,1.016.057.3.294.594.592.89.889.382.384.777.782,1.173,1.166a.591.591,0,0,1,.057.924c-.382.506-.763,1.024-1.131,1.526-.436.594-.887,1.208-1.341,1.8a1.4,1.4,0,0,0-.064,1.808,19.9,19.9,0,0,1,3.006,7.225c.191.961.549,1.17,1.526,1.31.573.082,1.145.17,1.717.257.72.11,1.465.223,2.2.325.452.062.609.244.6.7-.012.6-.01,1.215-.008,1.806M38.405,57.044a1.888,1.888,0,0,1-.682.151c-.3.019-.6.015-.9.011-.128,0-.257,0-.385,0H33.477q-7.035,0-14.068,0h-.056a3.489,3.489,0,0,1-.7-.044.967.967,0,0,1-.8-1.033.945.945,0,0,1,.955-.882c.881-.014,1.778-.011,2.646-.01H22.59c.049,0,.1,0,.15,0a4.185,4.185,0,0,0,.43-.009,1.175,1.175,0,0,0,1.154-1.207,1.133,1.133,0,0,0-1.214-1.139c-.61-.012-1.229-.01-1.828-.007H20.1a3.633,3.633,0,0,1,.682-2.565,20.309,20.309,0,0,0,3.575-11.793c0-.244,0-.481.01-.695H32.43q0,.152,0,.3c0,.388-.005.789,0,1.183a20.12,20.12,0,0,0,3.646,11.141,3.391,3.391,0,0,1,.59,2.425H27.231a3.809,3.809,0,0,0-.449.013,1.1,1.1,0,0,0-1.054,1.068,1.112,1.112,0,0,0,.88,1.22,2.4,2.4,0,0,0,.651.057h.089q5.233,0,10.465,0a1,1,0,0,1,1.065.734.943.943,0,0,1-.474,1.074M24.391,34.322h7.981v1.072H24.391Zm-2.327-4.048a1.84,1.84,0,0,1,1.011-.383c1.077-.029,2.174-.026,3.236-.023.653,0,1.306,0,1.958,0a1.311,1.311,0,0,0,1.087-.511,1.112,1.112,0,0,0,.127-1.028,1.271,1.271,0,0,0-1.363-.818h-.011q-2.592.008-5.186,0H21.487c-1.175,0-1.413-.234-1.414-1.387,0-1.13,0-2.26,0-3.4V21.471h1.919q0,.161,0,.32c0,.42,0,.816,0,1.222a2.111,2.111,0,0,0,2.3,2.3,3.015,3.015,0,0,0,2.418-.622,2.883,2.883,0,0,0,.57-2.337c-.017-.236-.013-.479-.008-.735q0-.069,0-.14h2.2q0,.176,0,.35c0,.43,0,.875,0,1.311A2.018,2.018,0,0,0,31.6,25.3c.32.009.657.009,1,0a2.039,2.039,0,0,0,2.166-2.184c.01-.422.007-.842,0-1.287q0-.192,0-.391h1.919V22.5q0,.587,0,1.174c0,.908,0,1.815,0,2.723,0,.788-.331,1.112-1.126,1.118-.629,0-1.258,0-1.887,0q-.6,0-1.207,0c-1.31,0-1.519.729-1.527,1.161a1.078,1.078,0,0,0,.289.805,1.638,1.638,0,0,0,1.2.392c.177,0,.354,0,.531,0,.272,0,.552,0,.827,0a1.053,1.053,0,0,1,1.154,1.011A1.014,1.014,0,0,1,33.808,31.9c-1.5.013-3.034.01-4.514.008l-1.674,0H26.557c-1.213,0-2.426,0-3.639,0a1,1,0,0,1-1.009-.616.83.83,0,0,1,.155-1.011M41.028,61.53H15.743c0-.073,0-.147-.006-.22a5.914,5.914,0,0,1,.021-.968.868.868,0,0,1,.827-.769,3.806,3.806,0,0,1,.545-.019h.163q3.083,0,6.163,0c5.121.005,10.417.012,15.626-.024.937-.008,1.466.109,1.714.374s.287.769.232,1.62" transform="translate(0 0)" fill="#144567"/>
      </g>
    </g>
    <g id="Grupo_161171" data-name="Grupo 161171" transform="translate(1206 10782.999)">
      <g id="Grupo_161178" data-name="Grupo 161178" transform="translate(0 0.001)" clip-path="url(#clip-path-4)">
        <path id="Trazado_603079" data-name="Trazado 603079" d="M6.624,207.18H0v-1.9H7.149c1.175,0,1.418.244,1.431,1.439,0,.135,0,.271,0,.474h2.356c1.227,0,1.449.221,1.471,1.46,0,.115.015.229.015.234a26.479,26.479,0,0,1,3.231-.741,7.244,7.244,0,0,1,5.763,1.949c.534.477,1.044.986,1.53,1.512a1.148,1.148,0,0,0,.942.376q4.992-.018,9.983,0c.849,0,1.7.092,2.644.146.023-.044.11-.192.181-.347.647-1.432,1.362-2.839,1.921-4.305a4.242,4.242,0,0,1,6.525-2.162,3.991,3.991,0,0,1,3.138-1.988,3.639,3.639,0,0,1,3.249,1.492A13.625,13.625,0,0,1,54,204.557a3.321,3.321,0,0,1,2.95,2.283,3.532,3.532,0,0,1-.6,3.649,5.077,5.077,0,0,1-.407.438Q50.873,216,45.8,221.073a23.5,23.5,0,0,1-14.437,7,23.623,23.623,0,0,1-18.45-5.728c-.133-.113-.269-.223-.506-.418,0,.808,0,1.512,0,2.216,0,.9-.329,1.22-1.227,1.224-.836,0-1.672,0-2.6,0,0,.63.013,1.239,0,1.847a.926.926,0,0,1-.947,1.013c-2.527.016-5.055.007-7.619.007v-1.9H6.624Zm16.335,11.494h.67q5.559,0,11.118,0a2.407,2.407,0,0,0,2.4-1.619,2.382,2.382,0,0,0-2.321-3.159q-5.738-.019-11.477.006a1.776,1.776,0,0,1-1.419-.6c-.6-.64-1.218-1.263-1.869-1.849a5.818,5.818,0,0,0-7.235-.352.906.906,0,0,0-.429.834c.021,2.271,0,4.543.026,6.814a1.3,1.3,0,0,0,.342.816A21.521,21.521,0,0,0,25.02,226c6.623,1.053,12.7-.405,17.728-4.824,4.229-3.714,8.073-7.867,12.052-11.861a2.1,2.1,0,0,0,.44-1.357,1.5,1.5,0,0,0-1.138-1.454,1.753,1.753,0,0,0-1.9.512c-2.659,2.667-5.329,5.322-7.984,7.993a18.715,18.715,0,0,1-5.854,4.059,1.766,1.766,0,0,0-.5.317,4.482,4.482,0,0,1-3.214,1.2c-3.706-.011-7.412,0-11.118-.005-.191,0-.382-.017-.57-.026ZM8.62,223.409h1.844V209.136H8.62ZM50.2,206.369a1.812,1.812,0,0,0-3.242-.263q-3.687,4.92-7.351,9.858a3.042,3.042,0,0,0-.164.273l.134.121c4-2.852,7.023-6.744,10.623-9.989M38.653,214.04l5.314-7.133a2.146,2.146,0,0,0-3.338.825c-.775,1.655-1.486,3.341-2.273,4.991a.9.9,0,0,0,.3,1.318" transform="translate(0 -170.843)" fill="#144567"/>
        <path id="Trazado_603080" data-name="Trazado 603080" d="M92.674,14.822l9.093-9.082c-.752,0-1.435,0-2.117,0-.931,0-1.245-.321-1.248-1.262,0-1.116-.007-2.231,0-3.347C98.41.352,98.758,0,99.543,0Q105.1,0,110.659,0c.78,0,1.131.353,1.132,1.135q.008,5.558,0,11.116c0,.781-.353,1.131-1.132,1.136q-1.733.013-3.466,0c-.782-.005-1.127-.352-1.136-1.131-.008-.711,0-1.422,0-2.252-.237.219-.395.354-.541.5Q99.6,16.424,93.68,22.34c-.856.856-1.243.842-2.053-.058q-3.6-4-7.2-7.994c-.131-.146-.269-.284-.429-.452l-5.093,5.1c-.887.888-1.769,1.781-2.664,2.66a.978.978,0,0,1-1.6,0q-1.32-1.3-2.62-2.62a.975.975,0,0,1,.009-1.6q5.594-5.6,11.2-11.2c.617-.616,1.114-.585,1.722.089q3.661,4.061,7.317,8.127c.132.146.27.288.408.434m.023,5.785,7.415-7.41q3.044-3.043,6.086-6.088a.991.991,0,0,1,1.176-.328,1.009,1.009,0,0,1,.6,1.069c-.011.6,0,1.2,0,1.793v1.8h1.871v-9.5H100.35V3.828c1.187,0,2.339.009,3.49,0,.513-.006.96.08,1.179.611s-.074.9-.429,1.259q-5.5,5.491-10.991,10.988c-.745.744-1.188.731-1.889-.048q-2.838-3.155-5.676-6.31c-.664-.738-1.331-1.473-1.89-2.091l-9.978,9.98,1.375,1.534A5.856,5.856,0,0,1,76,19.141q3.565-3.578,7.141-7.146c.711-.711,1.177-.7,1.848.05q1.739,1.933,3.476,3.867c1.4,1.553,2.8,3.1,4.23,4.7" transform="translate(-60.167 0)" fill="#144567"/>
        <path id="Trazado_603081" data-name="Trazado 603081" d="M143.246,149.88h-1.857V133.69h-1.921v14.277H137.55v-.634q0-7.113,0-14.227c0-1.1.276-1.372,1.376-1.372s2.192-.009,3.288,0a.958.958,0,0,1,1.071,1.075q.008,8.428,0,16.857a1.367,1.367,0,0,1-.039.21" transform="translate(-115.577 -110.689)" fill="#144567"/>
        <path id="Trazado_603082" data-name="Trazado 603082" d="M286.952,111.08h-1.843V97.761h-1.921v13.32H281.3c-.009-.19-.026-.381-.026-.572q0-6.695,0-13.39c0-1.018.3-1.312,1.315-1.314,1.116,0,2.232-.009,3.347,0A.945.945,0,0,1,287,96.822q.011,7.053,0,14.107a.71.71,0,0,1-.047.152" transform="translate(-236.339 -80.498)" fill="#144567"/>
        <path id="Trazado_603083" data-name="Trazado 603083" d="M191.139,170.006H189.3V157.643h-1.921v12.364h-1.891c-.009-.192-.026-.383-.026-.574q0-6.216,0-12.433c0-1.017.3-1.311,1.316-1.313,1.116,0,2.232-.009,3.347,0a.946.946,0,0,1,1.069,1.015q.011,6.575,0,13.15a.673.673,0,0,1-.048.15" transform="translate(-155.831 -130.816)" fill="#144567"/>
        <path id="Trazado_603084" data-name="Trazado 603084" d="M95.32,161.164H93.5v-9.509H91.582v9.474H89.67c-.008-.171-.025-.362-.025-.553q0-4.782,0-9.563c0-1.016.3-1.31,1.317-1.312,1.116,0,2.232-.009,3.347,0a.946.946,0,0,1,1.068,1.015c.009,3.427,0,6.854,0,10.28a.785.785,0,0,1-.053.165" transform="translate(-75.323 -125.784)" fill="#144567"/>
        <path id="Trazado_603085" data-name="Trazado 603085" d="M237.21,133.675h-1.921v9.493h-1.9c-.01-.171-.03-.344-.03-.517q0-4.812,0-9.623c0-.985.3-1.293,1.274-1.295,1.136,0,2.271-.01,3.407,0a.945.945,0,0,1,1.052,1.031c.01,3.088,0,6.176,0,9.265a.977.977,0,0,1-.045.192H237.21Z" transform="translate(-196.084 -110.687)" fill="#144567"/>
      </g>
    </g>
    <g id="Grupo_161172-2" data-name="Grupo 161172" transform="translate(339 10921)">
      <g id="Grupo_161180" data-name="Grupo 161180" clip-path="url(#clip-path-5)">
        <path id="Trazado_603086" data-name="Trazado 603086" d="M23.4,0a6.63,6.63,0,0,1,3.245,2.116c2.736,2.778,5.518,5.511,8.26,8.284a4.327,4.327,0,0,1-1.3,7.109,3.856,3.856,0,0,1-2.328.291.812.812,0,0,0-.859.266,12.041,12.041,0,0,1-.994.88,3.388,3.388,0,0,1,1.043,5.285q3.546,3.1,7.095,6.2,4.856,4.237,9.713,8.472c1.972,1.72,3.948,3.434,5.912,5.163a6.335,6.335,0,0,1,2.272,4.793,6.526,6.526,0,0,1-4.185,6.19,6.4,6.4,0,0,1-7.125-1.7c-3.416-3.87-6.79-7.779-10.18-11.673q-4.783-5.494-9.563-10.99c-.059-.068-.123-.131-.182-.194-2.331,1.345-3.736,1.093-5.3-1.042-.36.4-.724.777-1.041,1.187a.8.8,0,0,0-.1.542A4.33,4.33,0,0,1,10.4,34.913c-3.035-3.016-6.05-6.052-9.082-9.072A5.478,5.478,0,0,1,0,23.406v-1.3a.826.826,0,0,0,.072-.145,4.309,4.309,0,0,1,5.145-3.488.7.7,0,0,0,.5-.2Q12,12,18.264,5.711a.794.794,0,0,0,.179-.6A4.332,4.332,0,0,1,20.69.521,11.475,11.475,0,0,1,22.1,0ZM7.524,19.655,16.6,28.729,28.728,16.6,19.646,7.526,7.524,19.655M42.241,37.378,29,25.823,25.817,29l11.54,13.259,4.884-4.884M41.7,47.272c1.417,1.614,2.763,3.266,4.236,4.8a4.237,4.237,0,0,0,6.033-.005,4.183,4.183,0,0,0,.092-6.057c-1.524-1.479-3.188-2.815-4.792-4.212a.1.1,0,0,0-.068-.013l-5.5,5.491M20.562,4.346a2.251,2.251,0,0,0,.769,1.668q4.12,4.107,8.228,8.226c.306.306.6.626.926.911a2.152,2.152,0,0,0,3.476-.945,2.2,2.2,0,0,0-.662-2.359Q29.06,7.63,24.84,3.393A10.018,10.018,0,0,0,24.1,2.68a2.045,2.045,0,0,0-2.326-.286,2.064,2.064,0,0,0-1.212,1.953M4.305,20.565a2.07,2.07,0,0,0-1.948,1.3,2.033,2.033,0,0,0,.454,2.391q4.577,4.606,9.182,9.184a2.159,2.159,0,1,0,3.053-3.053Q10.471,25.778,5.868,21.2a2.063,2.063,0,0,0-1.563-.633M20.881,27.9a1.107,1.107,0,0,0,.633,1.163,1.043,1.043,0,0,0,1.24-.25q3.029-3.022,6.048-6.054a1.067,1.067,0,0,0,.052-1.551,1.088,1.088,0,0,0-1.592.042q-3.017,3-6.008,6.018a2.46,2.46,0,0,0-.372.632M40.156,45.477l5.294-5.3-1.42-1.235-5.123,5.1,1.249,1.436" transform="translate(0 -0.001)" fill="#144567"/>
        <path id="Trazado_603087" data-name="Trazado 603087" d="M0,303.531a16.989,16.989,0,0,1,.588-1.67,5.283,5.283,0,0,1,2.232-2.332,12.011,12.011,0,0,1-.555-1.521,3.732,3.732,0,0,1,3.57-4.542q9.316-.043,18.633,0A3.774,3.774,0,0,1,27.732,299c-.081.156-.169.309-.229.417a18.679,18.679,0,0,1,1.511,1.351,5.919,5.919,0,0,1,1.293,4.764,1.006,1.006,0,0,1-.938.908,3.1,3.1,0,0,1-.487.014q-13.7,0-27.408.011A1.484,1.484,0,0,1,0,305.7v-2.167m28.163.733c-.014-.185-.014-.345-.041-.5a3.228,3.228,0,0,0-3.225-2.723q-9.741-.012-19.482,0c-.072,0-.144,0-.216.005a3.154,3.154,0,0,0-2.973,3.22Zm-13.006-8.644q-4.491,0-8.982,0a1.637,1.637,0,1,0-.008,3.249q8.982,0,17.964,0a1.64,1.64,0,1,0,.008-3.25q-4.491,0-8.982,0" transform="translate(0 -250.978)" fill="#144567"/>
        <path id="Trazado_603088" data-name="Trazado 603088" d="M102.187,74.824a1.164,1.164,0,0,1,.973,1.694,2.061,2.061,0,0,1-.342.416q-2.121,2.13-4.249,4.253a2.613,2.613,0,0,1-.238.221,1.075,1.075,0,0,1-1.471-.07,1.04,1.04,0,0,1-.019-1.467c.41-.456.858-.878,1.291-1.312,1.059-1.06,2.109-2.129,3.185-3.172a5.179,5.179,0,0,1,.869-.563" transform="translate(-82.576 -63.996)" fill="#144567"/>
        <path id="Trazado_603089" data-name="Trazado 603089" d="M76.578,130.539a1.047,1.047,0,0,1-1.084-1.039,1.068,1.068,0,0,1,1.081-1.1,1.1,1.1,0,0,1,1.071,1.075,1.079,1.079,0,0,1-1.069,1.069" transform="translate(-64.569 -109.814)" fill="#144567"/>
      </g>
    </g>
    <g id="Grupo_161182" data-name="Grupo 161182" transform="translate(1206 10917)">
      <g id="Grupo_161181" data-name="Grupo 161181" clip-path="url(#clip-path-6)">
        <path id="Trazado_603090" data-name="Trazado 603090" d="M60.08,45.106a26.335,26.335,0,0,1-1.071,3.32,9.783,9.783,0,0,1-10.426,5.337,9.9,9.9,0,0,1-8.135-8.38,5.913,5.913,0,0,1,.194-2.54Q43.9,31.887,47.123,20.918c.049-.167.085-.337.138-.547H36.822v.714q0,9.044,0,18.089c0,1.1-.424,1.689-1.2,1.664q-1.142-.036-1.144-1.666c0-1.29,0-2.58,0-3.917H25.58v17.8h3.255v-.653q0-6.607,0-13.214a3.032,3.032,0,0,1,.078-.812,1.139,1.139,0,0,1,2.178-.011,2.967,2.967,0,0,1,.085.811q.007,6.607,0,13.214v.667h3.289v-.6c0-1.135-.01-2.271,0-3.406a1.178,1.178,0,1,1,2.34,0c.016,1.327,0,2.653,0,4.044h4.025c1.282,0,1.64.358,1.642,1.637,0,1.312.005,2.623,0,3.935-.006,1.048-.42,1.472-1.453,1.472q-11.012,0-22.024,0c-1.055,0-1.472-.407-1.478-1.446q-.013-2.085,0-4.17c.007-1.006.429-1.422,1.437-1.426,1.386-.006,2.772,0,4.194,0V20.379H12.8c.045.184.082.366.135.544.493,1.668,1,3.33,1.477,5a1.152,1.152,0,0,1-1.295,1.556,1.273,1.273,0,0,1-.986-1.043q-.923-3.12-1.866-6.234a4.959,4.959,0,0,0-.531-1.25L2.69,42.845h14.2c-.069-.283-.12-.54-.193-.79-.611-2.081-1.239-4.157-1.836-6.242-.274-.956.264-1.7,1.148-1.644a1.121,1.121,0,0,1,1.059.874c.866,2.9,1.812,5.787,2.528,8.726a6.677,6.677,0,0,1-.778,4.266A9.849,9.849,0,0,1,.448,47.127,7.3,7.3,0,0,1,.3,42.533c2.775-9.225,5.478-18.472,8.2-27.712.376-1.274.578-1.43,1.89-1.43H24.838a11.419,11.419,0,0,1-.827-1.443,7.2,7.2,0,0,1-.625-2.117c-.117-1.883-.363-3.8.417-5.62a6.654,6.654,0,0,1,5.06-4.1A2.712,2.712,0,0,0,29.187,0h1.644a.95.95,0,0,0,.208.094,6.646,6.646,0,0,1,5.594,5.7,14.7,14.7,0,0,1,.042,3.455,12.666,12.666,0,0,1-.7,2.757,7.859,7.859,0,0,1-.807,1.385H49.74c1.151,0,1.414.2,1.744,1.317q3.479,11.808,6.96,23.616c.53,1.8,1.09,3.582,1.636,5.372v1.41m-2.749-2.26-7.051-23.9-.14.019L43.1,42.847ZM31.441,15.763c.011.128.012.187.022.244.529,3,1.054,6.007,1.593,9.009a2.159,2.159,0,0,1-.295,1.622c-.561.894-1.065,1.824-1.607,2.729a1.2,1.2,0,0,1-2.255.011c-.573-.956-1.167-1.9-1.672-2.894a2.383,2.383,0,0,1-.236-1.336c.237-1.644.558-3.275.846-4.912.26-1.479.517-2.958.779-4.46H11.394l.667,2.21h.709q5.578,0,11.157,0c1.22,0,1.618.4,1.619,1.62q0,6.254,0,12.507v.7h8.928V32.13q0-6.254,0-12.507c0-1.255.388-1.635,1.661-1.637h1.82c3.171,0,6.342,0,9.513-.008.187,0,.5-.066.539-.179.238-.653.413-1.33.621-2.036ZM2.432,45.245a7.515,7.515,0,0,0,7.838,6.3c3.962-.248,6.748-3.663,6.866-6.3Zm55.156,0H42.84c.306,3.38,3.741,6.308,7.372,6.309s7.054-2.913,7.376-6.309M19.907,57.761H40.1v-2.3H19.907Zm5.782-49.42a4.378,4.378,0,0,0,5.785,4.785A4.647,4.647,0,0,0,34.355,7.92a.664.664,0,0,0-.3-.317c-.549-.338-1.116-.648-1.662-.992a.481.481,0,0,0-.665.057,6.6,6.6,0,0,1-3.383,1.514c-.865.119-1.748.109-2.655.159m8.155-3.6a4.3,4.3,0,0,0-4.877-2.256c-1.7.422-3.185,2.032-3.144,3.422A5.661,5.661,0,0,0,30.89,4.248a1.176,1.176,0,0,1,1.678-.243c.391.213.771.445,1.276.738M30.085,21.772l-.124-.011c-.174.968-.3,1.949-.538,2.9-.2.795.178,1.32.693,2.047a4.8,4.8,0,0,0,.531-1.6c-.089-1.119-.362-2.223-.561-3.333" transform="translate(0)" fill="#144567"/>
        <path id="Trazado_603091" data-name="Trazado 603091" d="M236.708,292.617a1.165,1.165,0,1,1-2.33-.011,1.165,1.165,0,0,1,2.33.011" transform="translate(-199.897 -248.574)" fill="#144567"/>
        <path id="Trazado_603092" data-name="Trazado 603092" d="M92.492,203.656a1.163,1.163,0,0,1-1.152-1.161,1.182,1.182,0,0,1,1.152-1.169,1.211,1.211,0,0,1,1.163,1.169,1.192,1.192,0,0,1-1.164,1.161" transform="translate(-77.902 -171.708)" fill="#144567"/>
        <path id="Trazado_603093" data-name="Trazado 603093" d="M194.286,68.225a2.016,2.016,0,0,1-1.761-.745,1.084,1.084,0,0,1-.019-1.311,1.131,1.131,0,0,1,1.164-.508,2.291,2.291,0,0,0,.623.026,1.179,1.179,0,0,1,1.331.6,1.1,1.1,0,0,1-.3,1.422,5.619,5.619,0,0,1-1.034.518" transform="translate(-164.005 -55.991)" fill="#144567"/>
      </g>
    </g>
  </g>
</svg>
