<svg xmlns="http://www.w3.org/2000/svg" width="101" height="101" viewBox="0 0 101 101">
  <g id="Grupo_161156" data-name="Grupo 161156" transform="translate(-750 -5870)">
    <circle id="Elipse_1147" data-name="Elipse 1147" cx="50.5" cy="50.5" r="50.5" transform="translate(750 5870)" fill="#fff"/>
    <g id="Grupo_160912" data-name="Grupo 160912" transform="translate(767.219 5887.942)">
      <path id="Trazado_602378" data-name="Trazado 602378" d="M0,124.575l23.356,13.36V111.217L0,97.86Z" transform="translate(0 -70.461)" fill="#f6caba"/>
      <path id="Trazado_602379" data-name="Trazado 602379" d="M0,35.375,23.356,48.732,65.528,24.465,42.2,11.077Z" transform="translate(0 -7.976)" fill="#414040"/>
      <path id="Trazado_602380" data-name="Trazado 602380" d="M32.372,51.958,71.06,29.686,51.217,18.3,12.5,40.6Z" transform="translate(-9 -13.174)" fill="#f6caba"/>
      <path id="Trazado_602381" data-name="Trazado 602381" d="M83.42,83.161v26.718l42.205-24.251-.034-26.734Z" transform="translate(-60.064 -42.404)" fill="#a57f6b"/>
      <path id="Trazado_602382" data-name="Trazado 602382" d="M3.5,24.483l38.717-22.3L62.06,13.574,23.372,35.846ZM0,24.46,23.356,37.817,65.528,13.551,42.2.161Z" transform="translate(0 -0.116)" fill="#414040"/>
      <path id="Trazado_602383" data-name="Trazado 602383" d="M3.5,35.4,42.217,13.1,62.06,24.487,23.372,46.759ZM0,35.375,23.356,48.732,65.528,24.465,42.2,11.077Z" transform="translate(0 -7.976)" fill="#414040"/>
      <path id="Trazado_602384" data-name="Trazado 602384" d="M0,91.737,23.356,105.1V100.3L0,86.946Z" transform="translate(0 -62.602)" fill="#f6caba"/>
      <path id="Trazado_602385" data-name="Trazado 602385" d="M83.42,72.252v4.528L125.591,52.51V47.986Z" transform="translate(-60.064 -34.55)" fill="#a57f6b"/>
      <path id="Trazado_602386" data-name="Trazado 602386" d="M150.783,7.39v3.054l17.18,9.862,2.663-1.526Z" transform="translate(-108.566 -5.321)" fill="#e0a98e"/>
      <path id="Trazado_602387" data-name="Trazado 602387" d="M12.5,29.687l38.717-22.3v3.054L15.142,31.2Z" transform="translate(-9 -5.32)" fill="#a57f6b"/>
      <path id="Trazado_602388" data-name="Trazado 602388" d="M10.7,121.727v6.986L6.19,126.14l-.738-.419v-6.987Z" transform="translate(-3.925 -85.49)" fill="#b1b0b0"/>
      <path id="Trazado_602389" data-name="Trazado 602389" d="M12.584,122.815v6.22l-4.512-2.576v-6.218Z" transform="translate(-5.812 -86.575)" fill="#fff"/>
      <path id="Trazado_602390" data-name="Trazado 602390" d="M34.488,134.815V141.8l-4.512-2.577-.737-.417v-6.989Z" transform="translate(-21.052 -94.911)" fill="#b1b0b0"/>
      <path id="Trazado_602391" data-name="Trazado 602391" d="M36.36,135.908v6.218l-4.514-2.574v-6.218Z" transform="translate(-22.93 -96.003)" fill="#fff"/>
      <path id="Trazado_602392" data-name="Trazado 602392" d="M57.762,146.992v6.987L53.247,151.4l-.737-.416V144Z" transform="translate(-37.808 -103.682)" fill="#b1b0b0"/>
      <path id="Trazado_602393" data-name="Trazado 602393" d="M59.636,148.077V154.3l-4.512-2.577v-6.215Z" transform="translate(-39.69 -104.767)" fill="#fff"/>
      <path id="Trazado_602394" data-name="Trazado 602394" d="M191.045,103.9v18.919l4.514-2.574.739-.419V100.911Z" transform="translate(-137.555 -72.657)" fill="#b1b0b0"/>
      <path id="Trazado_602395" data-name="Trazado 602395" d="M191.045,104.955v18.151l4.514-2.574V102.384Z" transform="translate(-137.555 -73.718)" fill="#fff"/>
      <path id="Trazado_602396" data-name="Trazado 602396" d="M167.268,116.995v19.058l4.513-2.574.737-.419V114Z" transform="translate(-120.435 -82.081)" fill="#b1b0b0"/>
      <path id="Trazado_602397" data-name="Trazado 602397" d="M167.268,118.041v18.292l4.513-2.576v-18.29Z" transform="translate(-120.435 -83.138)" fill="#fff"/>
      <path id="Trazado_602398" data-name="Trazado 602398" d="M144,129.376v19.181l4.512-2.574.737-.419V126.169Z" transform="translate(-103.682 -90.843)" fill="#b1b0b0"/>
      <path id="Trazado_602399" data-name="Trazado 602399" d="M144,130.43v18.415l4.512-2.573V127.648Z" transform="translate(-103.682 -91.908)" fill="#fff"/>
      <path id="Trazado_602400" data-name="Trazado 602400" d="M10.957,152.176v6.99l-4.512-2.574-.739-.422v-6.987Z" transform="translate(-4.109 -107.413)" fill="#b1b0b0"/>
      <path id="Trazado_602401" data-name="Trazado 602401" d="M12.839,153.263v6.22l-4.512-2.576v-6.215Z" transform="translate(-5.996 -108.5)" fill="#fff"/>
      <path id="Trazado_602402" data-name="Trazado 602402" d="M34.739,165.272v6.987l-4.514-2.574-.737-.419V162.28Z" transform="translate(-21.231 -116.844)" fill="#b1b0b0"/>
      <path id="Trazado_602403" data-name="Trazado 602403" d="M36.621,166.349v6.22L32.108,170v-6.217Z" transform="translate(-23.118 -117.922)" fill="#fff"/>
      <path id="Trazado_602404" data-name="Trazado 602404" d="M58.015,177.451v6.99L53.5,181.863l-.737-.419v-6.983Z" transform="translate(-37.991 -125.614)" fill="#b1b0b0"/>
      <path id="Trazado_602405" data-name="Trazado 602405" d="M59.9,178.529v6.218l-4.512-2.574v-6.215Z" transform="translate(-39.878 -126.693)" fill="#fff"/>
      <path id="Trazado_602406" data-name="Trazado 602406" d="M124.166,170.2v11.2l-2.776,1.58-1.95,1.109v-11.2Z" transform="translate(-85.998 -122.544)" fill="#353534"/>
      <path id="Trazado_602407" data-name="Trazado 602407" d="M103.934,181.778v11.2l-.486.274-4.239,2.419V184.47l1.453-.827Z" transform="translate(-71.432 -130.883)" fill="#353534"/>
      <path id="Trazado_602408" data-name="Trazado 602408" d="M99.21,200.291l4.725,2.7v3.32l-.487.274-4.238-2.42Z" transform="translate(-71.433 -144.212)" fill="#727271"/>
      <path id="Trazado_602409" data-name="Trazado 602409" d="M121.39,212.978l-1.95,1.109V211.86Z" transform="translate(-85.998 -152.542)" fill="#727271"/>
      <path id="Trazado_602410" data-name="Trazado 602410" d="M104.4,183.644l3.272-1.865v3.737Z" transform="translate(-75.168 -130.883)" fill="#727271"/>
      <path id="Trazado_602411" data-name="Trazado 602411" d="M124.166,185.908v3.875l-4.727-2.7v-3.875Z" transform="translate(-85.998 -131.911)" fill="#727271"/>
      <path id="Trazado_602412" data-name="Trazado 602412" d="M30.688,37.133V54.008l14.754,8.438V45.573Z" transform="translate(-22.096 -26.736)" fill="#f6caba"/>
      <path id="Trazado_602413" data-name="Trazado 602413" d="M45.443,23.8l14.732-8.453L45.443,6.886,30.689,15.355Z" transform="translate(-22.096 -4.958)" fill="#414040"/>
      <path id="Trazado_602414" data-name="Trazado 602414" d="M51.14,25.835l12.533-7.19L51.14,11.453l-12.552,7.2Z" transform="translate(-27.784 -8.246)" fill="#f6caba"/>
      <path id="Trazado_602415" data-name="Trazado 602415" d="M98.116,37.087l.022,16.888L83.384,62.413V45.54Z" transform="translate(-60.038 -26.703)" fill="#a57f6b"/>
      <path id="Trazado_602416" data-name="Trazado 602416" d="M32.9,8.483,45.452,1.278l12.533,7.2L45.452,15.66ZM45.442,0,30.688,8.467,45.442,16.9,60.174,8.457Z" transform="translate(-22.096)" fill="#414040"/>
      <path id="Trazado_602417" data-name="Trazado 602417" d="M45.443,6.887,30.689,15.355,45.443,23.8l14.732-8.453ZM32.9,15.371l12.552-7.2,12.533,7.192-12.533,7.19Z" transform="translate(-22.097 -4.959)" fill="#414040"/>
      <path id="Trazado_602418" data-name="Trazado 602418" d="M30.688,30.242v3.026l14.754,8.437V38.68Z" transform="translate(-22.096 -21.775)" fill="#f6caba"/>
      <path id="Trazado_602419" data-name="Trazado 602419" d="M83.384,38.654v2.858l14.732-8.448V30.206Z" transform="translate(-60.038 -21.749)" fill="#a57f6b"/>
      <path id="Trazado_602420" data-name="Trazado 602420" d="M83.42,4.563V6.493L94.27,12.72l1.682-.962Z" transform="translate(-60.064 -3.286)" fill="#e0a98e"/>
      <path id="Trazado_602421" data-name="Trazado 602421" d="M38.588,11.769l12.552-7.2V6.493L40.257,12.72Z" transform="translate(-27.784 -3.286)" fill="#a57f6b"/>
      <path id="Trazado_602422" data-name="Trazado 602422" d="M37.452,52.208v4.414L34.6,54.993l-.467-.261V50.317Z" transform="translate(-24.577 -36.229)" fill="#b1b0b0"/>
      <path id="Trazado_602423" data-name="Trazado 602423" d="M38.652,54.623v3.929L35.8,56.923V53Z" transform="translate(-25.778 -38.159)" fill="#fff"/>
      <path id="Trazado_602424" data-name="Trazado 602424" d="M52.474,60.478v4.411l-2.853-1.624L49.156,63V58.587Z" transform="translate(-35.393 -42.183)" fill="#b1b0b0"/>
      <path id="Trazado_602425" data-name="Trazado 602425" d="M53.671,62.895v3.924l-2.853-1.624V61.267Z" transform="translate(-36.59 -44.113)" fill="#fff"/>
      <path id="Trazado_602426" data-name="Trazado 602426" d="M67.176,68.164v4.415l-2.853-1.627-.465-.267V66.274Z" transform="translate(-45.978 -47.718)" fill="#b1b0b0"/>
      <path id="Trazado_602427" data-name="Trazado 602427" d="M68.372,68.912v3.927L65.52,71.215V67.287Z" transform="translate(-47.175 -48.447)" fill="#fff"/>
      <path id="Trazado_602428" data-name="Trazado 602428" d="M37.614,71.44v4.412l-2.851-1.625-.465-.266V69.546Z" transform="translate(-24.694 -50.074)" fill="#b1b0b0"/>
      <path id="Trazado_602429" data-name="Trazado 602429" d="M38.81,73.87V77.8l-2.851-1.625V72.248Z" transform="translate(-25.891 -52.02)" fill="#fff"/>
      <path id="Trazado_602430" data-name="Trazado 602430" d="M52.632,79.716v4.415L49.781,82.5l-.467-.263V77.825Z" transform="translate(-35.506 -56.035)" fill="#b1b0b0"/>
      <path id="Trazado_602431" data-name="Trazado 602431" d="M53.833,82.133v3.93l-2.851-1.63V80.508Z" transform="translate(-36.707 -57.967)" fill="#fff"/>
      <path id="Trazado_602432" data-name="Trazado 602432" d="M67.337,87.4v4.414l-2.85-1.627-.465-.267V85.513Z" transform="translate(-46.096 -61.57)" fill="#b1b0b0"/>
      <path id="Trazado_602433" data-name="Trazado 602433" d="M68.534,88.148v3.93l-2.85-1.625V86.525Z" transform="translate(-47.293 -62.299)" fill="#fff"/>
      <path id="Trazado_602434" data-name="Trazado 602434" d="M118.633,51.615V56.03l2.85-1.63.465-.263V49.723Z" transform="translate(-85.417 -35.802)" fill="#b1b0b0"/>
      <path id="Trazado_602435" data-name="Trazado 602435" d="M118.633,52.3v3.928l2.85-1.625V50.675Z" transform="translate(-85.417 -36.487)" fill="#fff"/>
      <path id="Trazado_602436" data-name="Trazado 602436" d="M103.61,59.877V64.29l2.852-1.628.465-.264V57.983Z" transform="translate(-74.601 -41.749)" fill="#b1b0b0"/>
      <path id="Trazado_602437" data-name="Trazado 602437" d="M103.61,60.57V64.5l2.852-1.627V58.945Z" transform="translate(-74.601 -42.441)" fill="#fff"/>
      <path id="Trazado_602438" data-name="Trazado 602438" d="M88.909,67.567v4.412l2.852-1.625.465-.263V65.674Z" transform="translate(-64.016 -47.286)" fill="#b1b0b0"/>
      <path id="Trazado_602439" data-name="Trazado 602439" d="M88.909,68.257v3.929l2.852-1.629V66.632Z" transform="translate(-64.016 -47.976)" fill="#fff"/>
      <path id="Trazado_602440" data-name="Trazado 602440" d="M118.669,70.846V75.26l2.852-1.627.464-.267V68.955Z" transform="translate(-85.444 -49.649)" fill="#b1b0b0"/>
      <path id="Trazado_602441" data-name="Trazado 602441" d="M118.669,71.535v3.928l2.852-1.624V69.913Z" transform="translate(-85.444 -50.338)" fill="#fff"/>
      <path id="Trazado_602442" data-name="Trazado 602442" d="M103.644,79.118V83.53l2.852-1.625.466-.267V77.224Z" transform="translate(-74.625 -55.603)" fill="#b1b0b0"/>
      <path id="Trazado_602443" data-name="Trazado 602443" d="M103.644,79.8v3.927L106.5,82.1V78.174Z" transform="translate(-74.625 -56.287)" fill="#fff"/>
      <path id="Trazado_602444" data-name="Trazado 602444" d="M88.945,86.805v4.412L91.8,89.593l.465-.266V84.912Z" transform="translate(-64.042 -61.138)" fill="#b1b0b0"/>
      <path id="Trazado_602445" data-name="Trazado 602445" d="M88.945,87.495v3.928L91.8,89.8V85.87Z" transform="translate(-64.042 -61.827)" fill="#fff"/>
      <path id="Trazado_602446" data-name="Trazado 602446" d="M106.69,202.706v13.073l.354-.205V202.5Z" transform="translate(-76.819 -145.806)" fill="#e0a98e"/>
      <path id="Trazado_602447" data-name="Trazado 602447" d="M104.6,201.479l-.813-.468.346-.211.82.477Z" transform="translate(-74.729 -144.579)" fill="#353534"/>
      <path id="Trazado_602448" data-name="Trazado 602448" d="M103.762,214.626l.82.467V202.02l-.813-.468Z" transform="translate(-74.71 -145.12)" fill="#a57f6b"/>
      <path id="Trazado_602449" data-name="Trazado 602449" d="M145.469,180.829V193.9l.354-.2V180.976l-.224-.221Z" transform="translate(-104.74 -130.147)" fill="#e0a98e"/>
      <path id="Trazado_602450" data-name="Trazado 602450" d="M142.562,178.806l.814.472.13-.073-.6-.6Z" transform="translate(-102.647 -128.596)" fill="#353534"/>
      <path id="Trazado_602451" data-name="Trazado 602451" d="M142.547,179.331l-.006,13.075.819.465V179.8Z" transform="translate(-102.632 -129.121)" fill="#a57f6b"/>
      <path id="Trazado_602452" data-name="Trazado 602452" d="M84.685,164.949l6.523,7.185,4.337-2.5.818-.469.353-.207,6.109-3.524-6.109-6.1-.825-.823,0-.005Z" transform="translate(-60.974 -114.129)" fill="#414040"/>
      <path id="Trazado_602453" data-name="Trazado 602453" d="M84.685,182.458l6.524,7.154v-.925L84.685,181.5" transform="translate(-60.974 -130.684)" fill="#353534"/>
      <path id="Trazado_602454" data-name="Trazado 602454" d="M107.986,189.937l11.616-6.7v.921l-11.616,6.7Z" transform="translate(-77.751 -131.935)" fill="#353534"/>
      <path id="Trazado_602455" data-name="Trazado 602455" d="M31.889,52.693l-6.524,7.185-4.337-2.5-.817-.47-.353-.206-6.11-3.52,6.11-6.1.824-.826,0-.005Z" transform="translate(-9.899 -33.303)" fill="#414040"/>
      <path id="Trazado_602456" data-name="Trazado 602456" d="M25.366,77.687,13.749,70.993v.919l11.617,6.7Z" transform="translate(-9.9 -51.116)" fill="#353534"/>
    </g>
  </g>
</svg>
