<svg xmlns="http://www.w3.org/2000/svg" width="101" height="101" viewBox="0 0 101 101">
  <g id="Grupo_161155" data-name="Grupo 161155" transform="translate(-750 -6010)">
    <circle id="Elipse_1145" data-name="Elipse 1145" cx="50.5" cy="50.5" r="50.5" transform="translate(750 6010)" fill="#fff"/>
    <g id="Grupo_160911" data-name="Grupo 160911" transform="translate(27.979 -590.255)">
      <g id="Grupo_160910" data-name="Grupo 160910" transform="translate(739 6618.134)">
        <path id="Trazado_602353" data-name="Trazado 602353" d="M0,133.43l23.53,13.458V119.974L0,106.519Z" transform="translate(0 -78.37)" fill="#f6caba"/>
        <path id="Trazado_602354" data-name="Trazado 602354" d="M0,38.371,23.53,51.827,66.008,27.381,42.514,13.895Z" transform="translate(0 -10.223)" fill="#414040"/>
        <path id="Trazado_602355" data-name="Trazado 602355" d="M89.041,89.374v26.914l42.511-24.427-.017-13.171v-.029l-.012-8.243v-1.01l-.007-4.479Z" transform="translate(-65.511 -47.77)" fill="#a57f6b"/>
        <path id="Trazado_602356" data-name="Trazado 602356" d="M3.528,26.75l39-22.463L62.513,15.762,23.544,38.2ZM0,26.727,23.53,40.184,66.008,15.738,42.514,2.251Z" transform="translate(0 -1.656)" fill="#414040"/>
        <path id="Trazado_602357" data-name="Trazado 602357" d="M3.528,38.392l39-22.459L62.513,27.4,23.544,49.84ZM0,38.372,23.53,51.827,66.008,27.381,42.514,13.9Z" transform="translate(0 -10.223)" fill="#414040"/>
        <path id="Trazado_602358" data-name="Trazado 602358" d="M0,99.7l23.53,13.458V108.33L0,94.873Z" transform="translate(0 -69.802)" fill="#f6caba"/>
        <path id="Trazado_602359" data-name="Trazado 602359" d="M89.041,77.733v4.56l42.478-24.448V53.287Z" transform="translate(-65.511 -39.205)" fill="#a57f6b"/>
        <path id="Trazado_602360" data-name="Trazado 602360" d="M160.934,9.955v3.079l17.305,9.931,2.68-1.535Z" transform="translate(-118.406 -7.325)" fill="#e0a98e"/>
        <path id="Trazado_602361" data-name="Trazado 602361" d="M13.35,32.418l39-22.463v3.079l-36.338,20.9Z" transform="translate(-9.822 -7.325)" fill="#a57f6b"/>
        <path id="Trazado_602362" data-name="Trazado 602362" d="M89.041,146.44v9.273l5.989-3.419,9.376-5.484v-9.27Z" transform="translate(-65.511 -101.194)" fill="#b1b0b0"/>
        <path id="Trazado_602363" data-name="Trazado 602363" d="M89.041,147.984v8.25l14.387-8.342v-8.254Z" transform="translate(-65.511 -102.738)" fill="#fff"/>
        <path id="Trazado_602364" data-name="Trazado 602364" d="M203.977,88.9v9.27l5.99-3.416,6.132-3.589v-.029l-.012-8.243V81.88Z" transform="translate(-150.074 -60.242)" fill="#b1b0b0"/>
        <path id="Trazado_602365" data-name="Trazado 602365" d="M203.977,88.869V97.12L216.1,90.087l-.012-8.243Z" transform="translate(-150.074 -60.216)" fill="#fff"/>
        <path id="Trazado_602366" data-name="Trazado 602366" d="M35.515,46.624,73.741,24.816,54.63,13.84,16.522,35.759Z" transform="translate(-12.156 -10.183)" fill="#f6caba"/>
        <path id="Trazado_602367" data-name="Trazado 602367" d="M90.145,83.459V97.582l1.894,1.083V84.544Z" transform="translate(-66.323 -61.405)" fill="#414040"/>
        <path id="Trazado_602368" data-name="Trazado 602368" d="M128.839,0,90.144,22.055l1.894,1.085L130.714,1.1Z" transform="translate(-66.323 0)" fill="#414040"/>
        <path id="Trazado_602369" data-name="Trazado 602369" d="M135.987,4.173l.018,13.9L97.311,40.331V26.21Z" transform="translate(-71.596 -3.07)" fill="#353534"/>
        <path id="Trazado_602370" data-name="Trazado 602370" d="M172.1,160.011v.005l-.009,0-3.576,2.044-1.281.734-5.907,3.378V153.86l3.558-2.04.077-.042,1.039-.6,2.784-1.595v-.005l1.061-.607,2.237-1.283.006,3.8-2.241-1.3.007,4.406,2.241,1.3Z" transform="translate(-118.697 -108.664)" fill="#353534"/>
        <path id="Trazado_602371" data-name="Trazado 602371" d="M195.816,160.02l-2.253-1.346v-9.689l2.237-1.28Z" transform="translate(-142.412 -108.672)" fill="#e0a98e"/>
        <path id="Trazado_602372" data-name="Trazado 602372" d="M172.1,190.583l-10.761,6.153v-2.607l8.531-4.9Z" transform="translate(-118.704 -139.226)" fill="#f6caba"/>
        <path id="Trazado_602373" data-name="Trazado 602373" d="M.025,131.953l.989.56,22.534,12.26V135.4L.025,122.582Z" transform="translate(-0.019 -90.188)" fill="#b1b0b0"/>
        <path id="Trazado_602374" data-name="Trazado 602374" d="M26.3,137.008v8.343L3.768,133.088v-8.335Z" transform="translate(-2.772 -91.786)" fill="#fff"/>
        <path id="Trazado_602375" data-name="Trazado 602375" d="M182.872,162.239l-1.345.772-2.515,1.447v-9.7l2.784-1.595,1.06-.612,0,1.223.007,4.407Z" transform="translate(-131.708 -112.236)" fill="#414040"/>
        <path id="Trazado_602376" data-name="Trazado 602376" d="M179.975,159.88l-3.853-2.229-1.039-.6,1.039-.6,2.784-1.595,1.062.611Z" transform="translate(-128.817 -113.939)" fill="#727271"/>
        <path id="Trazado_602377" data-name="Trazado 602377" d="M168.834,179.565l-7.5-4.271v4.4l3.637,2.11Z" transform="translate(-118.698 -128.971)" fill="#727271"/>
      </g>
    </g>
  </g>
</svg>
