<svg xmlns="http://www.w3.org/2000/svg" width="101" height="101" viewBox="0 0 101 101">
  <g id="Grupo_161157" data-name="Grupo 161157" transform="translate(-750 -5730)">
    <circle id="Elipse_1146" data-name="Elipse 1146" cx="50.5" cy="50.5" r="50.5" transform="translate(750 5730)" fill="#fff"/>
    <g id="Grupo_160900" data-name="Grupo 160900" transform="translate(769.854 5740.283)">
      <path id="Trazado_602011" data-name="Trazado 602011" d="M0,120.937,18.994,131.8V86.723L0,75.862Z" transform="translate(0 -51.481)" fill="#a57f6b"/>
      <path id="Trazado_602012" data-name="Trazado 602012" d="M0,25.594,18.994,36.455,60.263,12.671,41.3,1.786Z" transform="translate(0 -1.212)" fill="#414040"/>
      <path id="Trazado_602013" data-name="Trazado 602013" d="M27.263,39.124,64.45,17.678,49.568,9.139,12.362,30.6Z" transform="translate(-8.389 -6.202)" fill="#f6caba"/>
      <path id="Trazado_602014" data-name="Trazado 602014" d="M59.1,59.437v45.075l41.3-23.771-.028-45.089Z" transform="translate(-40.105 -24.194)" fill="#f6caba"/>
      <path id="Trazado_602015" data-name="Trazado 602015" d="M13.982,21.668,49.257,1.317,62.209,8.751,26.954,29.085ZM49.248,0,11.7,21.657l15.245,8.721L64.473,8.737Z" transform="translate(-7.939)" fill="#414040"/>
      <path id="Trazado_602016" data-name="Trazado 602016" d="M49.248,6.2,11.7,27.854l15.245,8.72L64.473,14.937ZM13.982,27.869,49.257,7.518l12.952,7.434L26.954,35.285Z" transform="translate(-7.939 -4.205)" fill="#414040"/>
      <path id="Trazado_602017" data-name="Trazado 602017" d="M11.7,67.384v3.128l15.245,8.717V76.1Z" transform="translate(-7.939 -45.728)" fill="#f6caba"/>
      <path id="Trazado_602018" data-name="Trazado 602018" d="M59.133,48.826v2.954L96.662,30.141V27.185Z" transform="translate(-40.128 -18.448)" fill="#a57f6b"/>
      <path id="Trazado_602019" data-name="Trazado 602019" d="M128.559,4.1v2l11.214,6.436,1.739-1Z" transform="translate(-87.241 -2.78)" fill="#e0a98e"/>
      <path id="Trazado_602020" data-name="Trazado 602020" d="M18.8,24.448,54.076,4.1v2L20.526,25.436Z" transform="translate(-12.758 -2.78)" fill="#a57f6b"/>
      <path id="Trazado_602021" data-name="Trazado 602021" d="M72.973,107.81v6.379l6.488-2.644v-6.373Z" transform="translate(-49.52 -71.371)" fill="#fff"/>
      <path id="Trazado_602022" data-name="Trazado 602022" d="M73.985,105.463l-1.336-.758,6.084-3.491,1.346.768Z" transform="translate(-49.3 -68.685)" fill="#a26f64"/>
      <path id="Trazado_602023" data-name="Trazado 602023" d="M72.648,112.077l0,6.976L74,119.8v-6.97Z" transform="translate(-49.3 -76.056)" fill="#a57f6b"/>
      <path id="Trazado_602024" data-name="Trazado 602024" d="M91.629,109.822l1.344.751V103.6l-1.344.769Z" transform="translate(-62.18 -70.307)" fill="#a26f64"/>
      <path id="Trazado_602025" data-name="Trazado 602025" d="M81.6,122.951l-4.75,2.711v1.522l6.094-3.482Z" transform="translate(-52.151 -83.436)" fill="#a26f64"/>
      <path id="Trazado_602026" data-name="Trazado 602026" d="M76.85,107.085v6.97l6.094-3.482V103.6Zm.415.24,5.264-3.012v6.022l-5.264,3.01Z" transform="translate(-52.151 -70.307)" fill="#f6caba"/>
      <path id="Trazado_602027" data-name="Trazado 602027" d="M99.082,92.734v6.377l6.488-2.64V90.094Z" transform="translate(-67.238 -61.139)" fill="#fff"/>
      <path id="Trazado_602028" data-name="Trazado 602028" d="M100.093,90.392l-1.337-.762,6.084-3.49,1.346.767Z" transform="translate(-67.017 -58.456)" fill="#a26f64"/>
      <path id="Trazado_602029" data-name="Trazado 602029" d="M98.756,97l.006,6.976,1.345.755V97.761Z" transform="translate(-67.017 -65.824)" fill="#a57f6b"/>
      <path id="Trazado_602030" data-name="Trazado 602030" d="M117.733,94.744l1.345.752v-6.97l-1.345.77Z" transform="translate(-79.895 -60.075)" fill="#a26f64"/>
      <path id="Trazado_602031" data-name="Trazado 602031" d="M107.707,107.873l-4.748,2.715v1.521l6.093-3.484Z" transform="translate(-69.869 -73.204)" fill="#a26f64"/>
      <path id="Trazado_602032" data-name="Trazado 602032" d="M102.959,92.011V98.98l6.093-3.484v-6.97Zm.415.236,5.263-3.01v6.019l-5.263,3.011Z" transform="translate(-69.869 -60.075)" fill="#f6caba"/>
      <path id="Trazado_602033" data-name="Trazado 602033" d="M126.258,77.305v6.381l6.488-2.639v-6.38Z" transform="translate(-85.68 -50.67)" fill="#fff"/>
      <path id="Trazado_602034" data-name="Trazado 602034" d="M127.266,74.965l-1.336-.758,6.084-3.493,1.344.766Z" transform="translate(-85.457 -47.987)" fill="#a26f64"/>
      <path id="Trazado_602035" data-name="Trazado 602035" d="M125.93,81.582l0,6.973,1.346.755V82.34Z" transform="translate(-85.457 -55.362)" fill="#a57f6b"/>
      <path id="Trazado_602036" data-name="Trazado 602036" d="M144.9,79.315l1.347.752V73.1l-1.347.77Z" transform="translate(-98.328 -49.605)" fill="#a26f64"/>
      <path id="Trazado_602037" data-name="Trazado 602037" d="M134.875,92.444l-4.746,2.715v1.522l6.093-3.485Z" transform="translate(-88.307 -62.734)" fill="#a26f64"/>
      <path id="Trazado_602038" data-name="Trazado 602038" d="M130.129,76.582v6.97l6.093-3.485V73.1Zm.414.24,5.265-3.012v6.022l-5.265,3.011Z" transform="translate(-88.307 -49.604)" fill="#f6caba"/>
      <path id="Trazado_602039" data-name="Trazado 602039" d="M154.256,62.455v6.379l6.485-2.639v-6.38Z" transform="translate(-104.68 -40.591)" fill="#fff"/>
      <path id="Trazado_602040" data-name="Trazado 602040" d="M155.254,60.119l-1.338-.757,6.086-3.5,1.345.768Z" transform="translate(-104.449 -37.912)" fill="#a26f64"/>
      <path id="Trazado_602041" data-name="Trazado 602041" d="M153.916,66.741l.005,6.975,1.346.752V67.5Z" transform="translate(-104.449 -45.291)" fill="#a57f6b"/>
      <path id="Trazado_602042" data-name="Trazado 602042" d="M172.9,64.47l1.345.755V58.256l-1.345.769Z" transform="translate(-117.329 -39.533)" fill="#a26f64"/>
      <path id="Trazado_602043" data-name="Trazado 602043" d="M162.869,77.591,158.12,80.31v1.522l6.094-3.485Z" transform="translate(-107.302 -52.654)" fill="#a26f64"/>
      <path id="Trazado_602044" data-name="Trazado 602044" d="M158.119,61.74v6.97l6.094-3.485V58.256Zm.415.237,5.264-3.009v6.021L158.534,68Z" transform="translate(-107.301 -39.533)" fill="#f6caba"/>
      <path id="Trazado_602045" data-name="Trazado 602045" d="M72.959,140.6v6.379l6.486-2.643v-6.374Z" transform="translate(-49.511 -93.622)" fill="#fff"/>
      <path id="Trazado_602046" data-name="Trazado 602046" d="M73.97,138.251l-1.335-.758L78.717,134l1.346.767Z" transform="translate(-49.291 -90.933)" fill="#a26f64"/>
      <path id="Trazado_602047" data-name="Trazado 602047" d="M72.635,144.87l0,6.976,1.342.752v-6.97Z" transform="translate(-49.291 -98.31)" fill="#a57f6b"/>
      <path id="Trazado_602048" data-name="Trazado 602048" d="M91.605,142.6l1.345.753v-6.971l-1.345.77Z" transform="translate(-62.164 -92.552)" fill="#a26f64"/>
      <path id="Trazado_602049" data-name="Trazado 602049" d="M81.575,155.731l-4.75,2.715v1.522l6.1-3.485Z" transform="translate(-52.134 -105.681)" fill="#a26f64"/>
      <path id="Trazado_602050" data-name="Trazado 602050" d="M76.824,139.87v6.97l6.1-3.485v-6.97Zm.416.236L82.5,137.1v6.022l-5.265,3.009Z" transform="translate(-52.134 -92.552)" fill="#f6caba"/>
      <path id="Trazado_602051" data-name="Trazado 602051" d="M99.082,126.037v6.38l6.488-2.641V123.4Z" transform="translate(-67.238 -83.739)" fill="#fff"/>
      <path id="Trazado_602052" data-name="Trazado 602052" d="M100.093,123.695l-1.337-.757,6.084-3.5,1.346.767Z" transform="translate(-67.017 -81.055)" fill="#a26f64"/>
      <path id="Trazado_602053" data-name="Trazado 602053" d="M98.756,130.319l.006,6.973,1.345.753v-6.969Z" transform="translate(-67.017 -88.436)" fill="#a57f6b"/>
      <path id="Trazado_602054" data-name="Trazado 602054" d="M117.733,128.047l1.345.752v-6.97l-1.345.772Z" transform="translate(-79.895 -82.674)" fill="#a26f64"/>
      <path id="Trazado_602055" data-name="Trazado 602055" d="M107.707,141.177l-4.748,2.717v1.52l6.093-3.485Z" transform="translate(-69.869 -95.804)" fill="#a26f64"/>
      <path id="Trazado_602056" data-name="Trazado 602056" d="M102.959,125.314v6.969l6.093-3.484v-6.97Zm.415.239,5.263-3.009v6.019l-5.263,3.012Z" transform="translate(-69.869 -82.674)" fill="#f6caba"/>
      <path id="Trazado_602057" data-name="Trazado 602057" d="M126.258,110.62V117l6.488-2.639V107.98Z" transform="translate(-85.68 -73.276)" fill="#fff"/>
      <path id="Trazado_602058" data-name="Trazado 602058" d="M127.266,108.271l-1.336-.756,6.084-3.494,1.344.767Z" transform="translate(-85.457 -70.59)" fill="#a26f64"/>
      <path id="Trazado_602059" data-name="Trazado 602059" d="M125.93,114.893l0,6.976,1.346.749v-6.97Z" transform="translate(-85.457 -77.968)" fill="#a57f6b"/>
      <path id="Trazado_602060" data-name="Trazado 602060" d="M144.9,112.625l1.347.755v-6.97l-1.347.77Z" transform="translate(-98.328 -72.21)" fill="#a26f64"/>
      <path id="Trazado_602061" data-name="Trazado 602061" d="M134.875,125.749l-4.746,2.717v1.52l6.093-3.483Z" transform="translate(-88.307 -85.335)" fill="#a26f64"/>
      <path id="Trazado_602062" data-name="Trazado 602062" d="M130.129,109.891v6.971l6.093-3.483v-6.97Zm.414.24,5.265-3.009v6.019l-5.265,3.011Z" transform="translate(-88.307 -72.21)" fill="#f6caba"/>
      <path id="Trazado_602063" data-name="Trazado 602063" d="M154.256,95.767v6.376l6.485-2.639V93.127Z" transform="translate(-104.68 -63.197)" fill="#fff"/>
      <path id="Trazado_602064" data-name="Trazado 602064" d="M155.254,93.422l-1.338-.757L160,89.17l1.345.768Z" transform="translate(-104.449 -60.512)" fill="#a26f64"/>
      <path id="Trazado_602065" data-name="Trazado 602065" d="M153.916,100.044l.005,6.975,1.346.753V100.8Z" transform="translate(-104.449 -67.891)" fill="#a57f6b"/>
      <path id="Trazado_602066" data-name="Trazado 602066" d="M172.9,97.776l1.345.752V91.559l-1.345.769Z" transform="translate(-117.329 -62.133)" fill="#a26f64"/>
      <path id="Trazado_602067" data-name="Trazado 602067" d="M162.869,110.9l-4.749,2.715v1.522l6.094-3.485Z" transform="translate(-107.302 -75.26)" fill="#a26f64"/>
      <path id="Trazado_602068" data-name="Trazado 602068" d="M158.119,95.043v6.971l6.094-3.485V91.559Zm.415.237,5.264-3.009v6.021l-5.264,3.009Z" transform="translate(-107.301 -62.133)" fill="#f6caba"/>
      <path id="Trazado_602069" data-name="Trazado 602069" d="M72.959,174.2v6.382l6.486-2.643v-6.376Z" transform="translate(-49.511 -116.423)" fill="#fff"/>
      <path id="Trazado_602070" data-name="Trazado 602070" d="M73.97,171.857l-1.335-.758,6.082-3.493,1.346.766Z" transform="translate(-49.291 -113.739)" fill="#a26f64"/>
      <path id="Trazado_602071" data-name="Trazado 602071" d="M72.635,178.475l0,6.973,1.342.755v-6.97Z" transform="translate(-49.291 -121.115)" fill="#a57f6b"/>
      <path id="Trazado_602072" data-name="Trazado 602072" d="M91.605,176.209l1.345.756v-6.974l-1.345.773Z" transform="translate(-62.164 -115.357)" fill="#a26f64"/>
      <path id="Trazado_602073" data-name="Trazado 602073" d="M81.575,189.338l-4.75,2.715v1.522l6.1-3.482Z" transform="translate(-52.134 -128.487)" fill="#a26f64"/>
      <path id="Trazado_602074" data-name="Trazado 602074" d="M76.824,173.476v6.97l6.1-3.482v-6.973Zm.416.24L82.5,170.7v6.022l-5.265,3.01Z" transform="translate(-52.134 -115.358)" fill="#f6caba"/>
      <path id="Trazado_602075" data-name="Trazado 602075" d="M99.082,159.646v6.377l6.488-2.641v-6.376Z" transform="translate(-67.238 -106.546)" fill="#fff"/>
      <path id="Trazado_602076" data-name="Trazado 602076" d="M100.093,157.306l-1.337-.761,6.084-3.493,1.346.766Z" transform="translate(-67.017 -103.863)" fill="#a26f64"/>
      <path id="Trazado_602077" data-name="Trazado 602077" d="M98.756,163.919l.006,6.976,1.345.755v-6.97Z" transform="translate(-67.017 -111.237)" fill="#a57f6b"/>
      <path id="Trazado_602078" data-name="Trazado 602078" d="M117.733,161.652l1.345.752v-6.971l-1.345.77Z" transform="translate(-79.895 -105.479)" fill="#a26f64"/>
      <path id="Trazado_602079" data-name="Trazado 602079" d="M107.707,174.782,102.96,177.5v1.524l6.093-3.487Z" transform="translate(-69.869 -118.609)" fill="#a26f64"/>
      <path id="Trazado_602080" data-name="Trazado 602080" d="M102.959,158.923v6.97l6.093-3.487v-6.97Zm.415.233,5.263-3.01v6.023l-5.263,3.009Z" transform="translate(-69.869 -105.48)" fill="#f6caba"/>
      <path id="Trazado_602081" data-name="Trazado 602081" d="M126.258,144.218v6.376l6.488-2.637v-6.38Z" transform="translate(-85.68 -96.076)" fill="#fff"/>
      <path id="Trazado_602082" data-name="Trazado 602082" d="M127.266,141.877l-1.336-.758,6.084-3.5,1.344.767Z" transform="translate(-85.457 -93.392)" fill="#a26f64"/>
      <path id="Trazado_602083" data-name="Trazado 602083" d="M125.93,148.5l0,6.972,1.346.757v-6.97Z" transform="translate(-85.457 -100.776)" fill="#a57f6b"/>
      <path id="Trazado_602084" data-name="Trazado 602084" d="M144.9,146.225l1.347.753v-6.97l-1.347.769Z" transform="translate(-98.328 -95.011)" fill="#a26f64"/>
      <path id="Trazado_602085" data-name="Trazado 602085" d="M134.875,159.352l-4.746,2.719v1.522l6.093-3.489Z" transform="translate(-88.307 -108.138)" fill="#a26f64"/>
      <path id="Trazado_602086" data-name="Trazado 602086" d="M130.129,143.5v6.97l6.093-3.489v-6.97Zm.414.236,5.265-3.009v6.022l-5.265,3.009Z" transform="translate(-88.307 -95.012)" fill="#f6caba"/>
      <path id="Trazado_602087" data-name="Trazado 602087" d="M154.256,129.373v6.382l6.485-2.643v-6.376Z" transform="translate(-104.68 -86.004)" fill="#fff"/>
      <path id="Trazado_602088" data-name="Trazado 602088" d="M155.254,127.036l-1.338-.758L160,122.787l1.345.767Z" transform="translate(-104.449 -83.324)" fill="#a26f64"/>
      <path id="Trazado_602089" data-name="Trazado 602089" d="M153.916,133.649l.005,6.976,1.346.752v-6.971Z" transform="translate(-104.449 -90.696)" fill="#a57f6b"/>
      <path id="Trazado_602090" data-name="Trazado 602090" d="M172.9,131.389l1.345.752v-6.967l-1.345.767Z" transform="translate(-117.329 -84.944)" fill="#a26f64"/>
      <path id="Trazado_602091" data-name="Trazado 602091" d="M162.869,144.512l-4.749,2.715v1.523l6.094-3.485Z" transform="translate(-107.302 -98.067)" fill="#a26f64"/>
      <path id="Trazado_602092" data-name="Trazado 602092" d="M158.119,128.656v6.97l6.094-3.485v-6.967Zm.415.239,5.264-3.013V131.9l-5.264,3.01Z" transform="translate(-107.301 -84.944)" fill="#f6caba"/>
      <path id="Trazado_602093" data-name="Trazado 602093" d="M38.651,111.717v2.393l-6.813-2.774v-2.39Z" transform="translate(-21.606 -73.933)" fill="#fff"/>
      <path id="Trazado_602094" data-name="Trazado 602094" d="M35.458,109.258l1.4-.8L30.471,104.8l-1.414.8Z" transform="translate(-19.718 -71.115)" fill="#a26f64"/>
      <path id="Trazado_602095" data-name="Trazado 602095" d="M50.378,116.2l.009,3.02-1.413.793V117Z" transform="translate(-33.235 -78.857)" fill="#a57f6b"/>
      <path id="Trazado_602096" data-name="Trazado 602096" d="M30.471,109.519l-1.414.793V107.3l1.414.807Z" transform="translate(-19.718 -72.813)" fill="#a26f64"/>
      <path id="Trazado_602097" data-name="Trazado 602097" d="M30.471,114.211l4.987,2.854v1.6L29.057,115Z" transform="translate(-19.718 -77.505)" fill="#a26f64"/>
      <path id="Trazado_602098" data-name="Trazado 602098" d="M29.057,107.3v3.015l6.4,3.661v-3.018Zm5.967,5.926-5.531-3.162v-2.02l5.531,3.165Z" transform="translate(-19.718 -72.813)" fill="#f6caba"/>
      <path id="Trazado_602099" data-name="Trazado 602099" d="M13.555,134.5v2.4l-6.811-2.773V131.73Z" transform="translate(-4.577 -89.393)" fill="#fff"/>
      <path id="Trazado_602100" data-name="Trazado 602100" d="M10.358,132.032l1.4-.8-6.393-3.671-1.413.805Z" transform="translate(-2.684 -86.568)" fill="#a26f64"/>
      <path id="Trazado_602101" data-name="Trazado 602101" d="M25.281,138.987l.01,3.021-1.413.791v-3.017Z" transform="translate(-16.203 -94.318)" fill="#a57f6b"/>
      <path id="Trazado_602102" data-name="Trazado 602102" d="M5.368,132.3l-1.413.789v-3.018l1.413.807Z" transform="translate(-2.684 -88.267)" fill="#a26f64"/>
      <path id="Trazado_602103" data-name="Trazado 602103" d="M5.368,137l4.99,2.85v1.6l-6.4-3.661Z" transform="translate(-2.684 -92.973)" fill="#a26f64"/>
      <path id="Trazado_602104" data-name="Trazado 602104" d="M3.955,130.071v3.018l6.4,3.66v-3.017ZM9.92,136l-5.528-3.162v-2.021l5.528,3.166Z" transform="translate(-2.684 -88.268)" fill="#f6caba"/>
      <path id="Trazado_602105" data-name="Trazado 602105" d="M32.854,176.118v2.4l-6.813-2.776v-2.393Z" transform="translate(-17.672 -117.633)" fill="#fff"/>
      <path id="Trazado_602106" data-name="Trazado 602106" d="M29.654,173.661l1.4-.8-6.39-3.67L23.25,170Z" transform="translate(-15.778 -114.816)" fill="#a26f64"/>
      <path id="Trazado_602107" data-name="Trazado 602107" d="M44.578,180.61l.012,3.021-1.413.794v-3.016Z" transform="translate(-29.3 -122.564)" fill="#a57f6b"/>
      <path id="Trazado_602108" data-name="Trazado 602108" d="M24.666,173.929l-1.416.793v-3.015l1.416.807Z" transform="translate(-15.778 -116.522)" fill="#a26f64"/>
      <path id="Trazado_602109" data-name="Trazado 602109" d="M24.666,178.621l4.988,2.854v1.6l-6.4-3.661Z" transform="translate(-15.778 -121.214)" fill="#a26f64"/>
      <path id="Trazado_602110" data-name="Trazado 602110" d="M23.25,171.706v3.015l6.4,3.662v-3.016Zm5.968,5.926-5.53-3.159v-2.02l5.53,3.164Z" transform="translate(-15.778 -116.521)" fill="#f6caba"/>
      <path id="Trazado_602111" data-name="Trazado 602111" d="M129.438,21.079V25.01l3.435,1.963v-3.93Z" transform="translate(-87.838 -14.304)" fill="#e0a98e"/>
      <path id="Trazado_602112" data-name="Trazado 602112" d="M132.873,18.878l3.43-1.969-3.43-1.969-3.435,1.973Z" transform="translate(-87.838 -10.139)" fill="#353534"/>
      <path id="Trazado_602113" data-name="Trazado 602113" d="M143.557,21.066,143.562,25l-3.436,1.963v-3.93Z" transform="translate(-95.091 -14.296)" fill="#a57f6b"/>
      <path id="Trazado_602114" data-name="Trazado 602114" d="M143.2,165.464V175.5l-2.484,1.415-1.745.992V167.87Z" transform="translate(-94.304 -112.285)" fill="#353534"/>
      <path id="Trazado_602115" data-name="Trazado 602115" d="M127.411,174.5v10.032l-.436.248-3.8,2.164V176.91l1.3-.739Z" transform="translate(-83.591 -118.419)" fill="#353534"/>
      <path id="Trazado_602116" data-name="Trazado 602116" d="M123.18,188.943l4.231,2.419v2.972l-.436.249-3.8-2.171Z" transform="translate(-83.591 -128.219)" fill="#727271"/>
      <path id="Trazado_602117" data-name="Trazado 602117" d="M140.712,198.968l-1.745.992v-1.992Z" transform="translate(-94.304 -134.343)" fill="#727271"/>
      <path id="Trazado_602118" data-name="Trazado 602118" d="M127.23,176.172l2.929-1.668v3.341Z" transform="translate(-86.34 -118.42)" fill="#727271"/>
      <path id="Trazado_602119" data-name="Trazado 602119" d="M143.2,178.034V181.5l-4.229-2.418v-3.467Z" transform="translate(-94.304 -119.175)" fill="#727271"/>
    </g>
  </g>
</svg>
