<svg xmlns="http://www.w3.org/2000/svg" xmlns:xlink="http://www.w3.org/1999/xlink" width="820" height="232" viewBox="0 0 820 232">
  <defs>
    <clipPath id="clip-path">
      <rect id="Rectángulo_46628" data-name="Rectángulo 46628" width="18.266" height="23.916" fill="#144567"/>
    </clipPath>
    <clipPath id="clip-path-2">
      <rect id="Rectángulo_46628-2" data-name="Rectángulo 46628" width="18.266" height="23.916" fill="#636363"/>
    </clipPath>
    <clipPath id="clip-path-3">
      <rect id="Rectángulo_46628-3" data-name="Rectángulo 46628" width="18.266" height="23.916" fill="#395e56"/>
    </clipPath>
    <clipPath id="clip-path-4">
      <rect id="Rectángulo_46628-4" data-name="Rectángulo 46628" width="18.266" height="23.916" fill="#833343"/>
    </clipPath>
    <clipPath id="clip-path-5">
      <rect id="Rectángulo_46673" data-name="Rectángulo 46673" width="93.119" height="93.077" fill="#144567"/>
    </clipPath>
  </defs>
  <g id="Grupo_160610" data-name="Grupo 160610" transform="translate(-390 -4655)">
    <rect id="Rectángulo_46661" data-name="Rectángulo 46661" width="335" height="55" transform="translate(875 4655)" fill="#f6efe9"/>
    <rect id="Rectángulo_46664" data-name="Rectángulo 46664" width="335" height="55" transform="translate(390 4655)" fill="#e2e8ec"/>
    <rect id="Rectángulo_46662" data-name="Rectángulo 46662" width="335" height="55" transform="translate(875 4832)" fill="#e2e8ec"/>
    <rect id="Rectángulo_46663" data-name="Rectángulo 46663" width="335" height="55" transform="translate(390 4832)" fill="#f6efe9"/>
    <path id="Trazado_603498" data-name="Trazado 603498" d="M4.964,10.613A7.494,7.494,0,0,1,1.98,9.164a2.768,2.768,0,0,1-.934-2.121A2.923,2.923,0,0,1,2.187,4.682a4.536,4.536,0,0,1,2.968-.934,4.951,4.951,0,0,1,2.22.481A3.651,3.651,0,0,1,8.886,5.558a3.4,3.4,0,0,1,.535,1.851h-1.6a2.21,2.21,0,0,0-.7-1.729,2.835,2.835,0,0,0-1.967-.629,2.9,2.9,0,0,0-1.839.52,1.734,1.734,0,0,0-.66,1.443,1.56,1.56,0,0,0,.627,1.252A6.147,6.147,0,0,0,5.416,9.2a9.9,9.9,0,0,1,2.357.935,3.577,3.577,0,0,1,1.262,1.191,3.04,3.04,0,0,1,.411,1.6A2.824,2.824,0,0,1,8.3,15.282a4.884,4.884,0,0,1-3.063.884,5.681,5.681,0,0,1-2.324-.477,3.911,3.911,0,0,1-1.664-1.307A3.191,3.191,0,0,1,.664,12.5h1.6a2.082,2.082,0,0,0,.809,1.731,3.408,3.408,0,0,0,2.162.635,3.133,3.133,0,0,0,1.934-.515,1.672,1.672,0,0,0,.672-1.4,1.641,1.641,0,0,0-.623-1.374A7.178,7.178,0,0,0,4.964,10.613ZM16.792,16a3.226,3.226,0,0,1-.216-.946,3.426,3.426,0,0,1-2.557,1.112,3.17,3.17,0,0,1-2.179-.751,2.43,2.43,0,0,1-.851-1.905,2.539,2.539,0,0,1,1.067-2.179,5.029,5.029,0,0,1,3-.776h1.494V9.849a1.725,1.725,0,0,0-.481-1.282,1.935,1.935,0,0,0-1.419-.477,2.239,2.239,0,0,0-1.378.415,1.223,1.223,0,0,0-.556,1H11.173a2.119,2.119,0,0,1,.477-1.3,3.258,3.258,0,0,1,1.295-.992,4.356,4.356,0,0,1,1.8-.365,3.551,3.551,0,0,1,2.432.776,2.8,2.8,0,0,1,.913,2.137V13.9a5.054,5.054,0,0,0,.315,1.967V16Zm-2.548-1.17a2.7,2.7,0,0,0,1.37-.374,2.259,2.259,0,0,0,.938-.971V11.642h-1.2q-2.822,0-2.822,1.652a1.4,1.4,0,0,0,.481,1.129A1.85,1.85,0,0,0,14.244,14.83Zm8.334-9.986V7.019h1.677V8.206H22.578v5.577a1.247,1.247,0,0,0,.224.81.943.943,0,0,0,.764.27,3.718,3.718,0,0,0,.73-.1V16a4.478,4.478,0,0,1-1.179.165,1.912,1.912,0,0,1-1.552-.623,2.675,2.675,0,0,1-.523-1.768V8.206H19.407V7.019h1.635V4.844ZM27.716,16H26.181V7.019h1.536ZM26.056,4.636a.917.917,0,0,1,.228-.631.857.857,0,0,1,.677-.257.87.87,0,0,1,.681.257.907.907,0,0,1,.232.631.877.877,0,0,1-.232.623.886.886,0,0,1-.681.249.872.872,0,0,1-.677-.249A.886.886,0,0,1,26.056,4.636ZM35.4,13.618a1.13,1.13,0,0,0-.469-.967,4.514,4.514,0,0,0-1.635-.594,7.731,7.731,0,0,1-1.851-.6,2.633,2.633,0,0,1-1.013-.83,1.986,1.986,0,0,1-.328-1.146,2.33,2.33,0,0,1,.934-1.868,3.647,3.647,0,0,1,2.386-.764,3.753,3.753,0,0,1,2.478.789,2.5,2.5,0,0,1,.95,2.017H35.312a1.386,1.386,0,0,0-.535-1.087,2.006,2.006,0,0,0-1.349-.457,2.1,2.1,0,0,0-1.312.365,1.15,1.15,0,0,0-.473.955.932.932,0,0,0,.44.838,5.413,5.413,0,0,0,1.59.54,8.283,8.283,0,0,1,1.864.614,2.718,2.718,0,0,1,1.058.859,2.112,2.112,0,0,1,.344,1.224,2.3,2.3,0,0,1-.963,1.93,4.039,4.039,0,0,1-2.5.726,4.523,4.523,0,0,1-1.909-.382,3.105,3.105,0,0,1-1.3-1.067,2.571,2.571,0,0,1-.469-1.482h1.536a1.59,1.59,0,0,0,.618,1.224,2.4,2.4,0,0,0,1.523.452,2.476,2.476,0,0,0,1.4-.353A1.084,1.084,0,0,0,35.4,13.618ZM39.694,16V8.206H38.275V7.019h1.419V6.1a3.058,3.058,0,0,1,.772-2.233,2.916,2.916,0,0,1,2.183-.789,4.055,4.055,0,0,1,1.054.14l-.083,1.238a4.41,4.41,0,0,0-.83-.075,1.5,1.5,0,0,0-1.154.437,1.773,1.773,0,0,0-.407,1.253v.949h1.917V8.206H41.23V16Zm10.691,0a3.226,3.226,0,0,1-.216-.946,3.426,3.426,0,0,1-2.557,1.112,3.17,3.17,0,0,1-2.179-.751,2.43,2.43,0,0,1-.851-1.905,2.539,2.539,0,0,1,1.067-2.179,5.029,5.029,0,0,1,3-.776h1.494V9.849a1.725,1.725,0,0,0-.481-1.282,1.935,1.935,0,0,0-1.419-.477,2.239,2.239,0,0,0-1.378.415,1.223,1.223,0,0,0-.556,1H44.766a2.119,2.119,0,0,1,.477-1.3,3.258,3.258,0,0,1,1.295-.992,4.356,4.356,0,0,1,1.8-.365,3.551,3.551,0,0,1,2.432.776,2.8,2.8,0,0,1,.913,2.137V13.9A5.054,5.054,0,0,0,52,15.867V16Zm-2.548-1.17a2.7,2.7,0,0,0,1.37-.374,2.259,2.259,0,0,0,.938-.971V11.642h-1.2q-2.822,0-2.822,1.652a1.4,1.4,0,0,0,.481,1.129A1.85,1.85,0,0,0,47.837,14.83Zm9.853.083a2.212,2.212,0,0,0,1.436-.5,1.752,1.752,0,0,0,.681-1.245H61.26a2.785,2.785,0,0,1-.531,1.469,3.5,3.5,0,0,1-1.307,1.112,3.772,3.772,0,0,1-1.731.415,3.7,3.7,0,0,1-2.918-1.224,4.877,4.877,0,0,1-1.083-3.349v-.257A5.407,5.407,0,0,1,54.171,9a3.667,3.667,0,0,1,1.382-1.585,3.926,3.926,0,0,1,2.129-.564,3.6,3.6,0,0,1,2.511.9,3.234,3.234,0,0,1,1.067,2.349H59.807a2.116,2.116,0,0,0-.66-1.432,2.053,2.053,0,0,0-1.465-.56,2.149,2.149,0,0,0-1.814.843,3.957,3.957,0,0,0-.643,2.436v.291a3.878,3.878,0,0,0,.639,2.391A2.16,2.16,0,0,0,57.69,14.913Zm8.9,0a2.212,2.212,0,0,0,1.436-.5,1.752,1.752,0,0,0,.681-1.245h1.453a2.785,2.785,0,0,1-.531,1.469,3.5,3.5,0,0,1-1.307,1.112,3.772,3.772,0,0,1-1.731.415,3.7,3.7,0,0,1-2.918-1.224,4.877,4.877,0,0,1-1.083-3.349v-.257A5.407,5.407,0,0,1,63.069,9a3.667,3.667,0,0,1,1.382-1.585,3.926,3.926,0,0,1,2.129-.564,3.6,3.6,0,0,1,2.511.9,3.234,3.234,0,0,1,1.067,2.349H68.706a2.116,2.116,0,0,0-.66-1.432,2.053,2.053,0,0,0-1.465-.56,2.149,2.149,0,0,0-1.814.843,3.957,3.957,0,0,0-.643,2.436v.291a3.878,3.878,0,0,0,.639,2.391A2.16,2.16,0,0,0,66.589,14.913ZM73.553,16H72.018V7.019h1.536ZM71.893,4.636a.917.917,0,0,1,.228-.631.857.857,0,0,1,.677-.257.87.87,0,0,1,.681.257.907.907,0,0,1,.232.631.877.877,0,0,1-.232.623.886.886,0,0,1-.681.249.872.872,0,0,1-.677-.249A.886.886,0,0,1,71.893,4.636Zm3.71,6.79a5.3,5.3,0,0,1,.519-2.374,3.87,3.87,0,0,1,1.444-1.627,3.932,3.932,0,0,1,2.113-.573,3.788,3.788,0,0,1,2.968,1.27A4.886,4.886,0,0,1,83.78,11.5v.108a5.351,5.351,0,0,1-.5,2.353,3.813,3.813,0,0,1-1.436,1.623,3.977,3.977,0,0,1-2.146.581,3.778,3.778,0,0,1-2.959-1.27A4.861,4.861,0,0,1,75.6,11.534Zm1.544.183a3.842,3.842,0,0,0,.693,2.4A2.349,2.349,0,0,0,81.555,14a4.2,4.2,0,0,0,.689-2.569,3.836,3.836,0,0,0-.7-2.395,2.23,2.23,0,0,0-1.864-.917,2.205,2.205,0,0,0-1.834.9A4.17,4.17,0,0,0,77.147,11.609ZM80.376,3.25h1.859L80.011,5.69l-1.237,0Zm6.782,3.769.05,1.129A3.273,3.273,0,0,1,89.9,6.853q2.847,0,2.872,3.212V16H91.234V10.057a2.068,2.068,0,0,0-.444-1.436,1.78,1.78,0,0,0-1.357-.465,2.216,2.216,0,0,0-1.312.4,2.706,2.706,0,0,0-.88,1.046V16H85.706V7.019Z" transform="translate(505 4672)" fill="#12263f"/>
    <path id="Trazado_603499" data-name="Trazado 603499" d="M8.234,12.414H3V16.7H9.081V18H1.4V5.914H9v1.3H3V11.11H8.234Zm7.819,3.2a1.131,1.131,0,0,0-.469-.967,4.514,4.514,0,0,0-1.635-.594,7.731,7.731,0,0,1-1.851-.6,2.633,2.633,0,0,1-1.013-.83,1.986,1.986,0,0,1-.328-1.146,2.33,2.33,0,0,1,.934-1.868,3.647,3.647,0,0,1,2.386-.764,3.753,3.753,0,0,1,2.478.789,2.5,2.5,0,0,1,.95,2.017H15.962a1.386,1.386,0,0,0-.535-1.087,2.006,2.006,0,0,0-1.349-.457,2.1,2.1,0,0,0-1.312.365,1.15,1.15,0,0,0-.473.955.932.932,0,0,0,.44.838,5.413,5.413,0,0,0,1.59.54,8.283,8.283,0,0,1,1.864.614,2.718,2.718,0,0,1,1.058.859,2.112,2.112,0,0,1,.344,1.224,2.3,2.3,0,0,1-.963,1.93,4.039,4.039,0,0,1-2.5.726,4.523,4.523,0,0,1-1.909-.382,3.105,3.105,0,0,1-1.3-1.067,2.571,2.571,0,0,1-.469-1.482h1.536A1.59,1.59,0,0,0,12.6,16.46a2.4,2.4,0,0,0,1.523.452,2.476,2.476,0,0,0,1.4-.353A1.084,1.084,0,0,0,16.054,15.618Zm5.62-8.774V9.019H23.35v1.187H21.673v5.577a1.247,1.247,0,0,0,.224.81.943.943,0,0,0,.764.27,3.718,3.718,0,0,0,.73-.1V18a4.478,4.478,0,0,1-1.179.165,1.912,1.912,0,0,1-1.552-.623,2.675,2.675,0,0,1-.523-1.768v-5.57H18.5V9.019h1.635V6.844ZM29.484,10.4a4.6,4.6,0,0,0-.755-.058,2.024,2.024,0,0,0-2.05,1.287V18H25.143V9.019h1.494l.025,1.038a2.391,2.391,0,0,1,2.142-1.2,1.569,1.569,0,0,1,.681.116ZM36.108,18a3.226,3.226,0,0,1-.216-.946,3.426,3.426,0,0,1-2.557,1.112,3.17,3.17,0,0,1-2.179-.751,2.43,2.43,0,0,1-.851-1.905,2.539,2.539,0,0,1,1.067-2.179,5.029,5.029,0,0,1,3-.776h1.494v-.706a1.725,1.725,0,0,0-.481-1.282,1.935,1.935,0,0,0-1.419-.477,2.239,2.239,0,0,0-1.378.415,1.223,1.223,0,0,0-.556,1H30.489a2.119,2.119,0,0,1,.477-1.3,3.258,3.258,0,0,1,1.295-.992,4.356,4.356,0,0,1,1.8-.365,3.551,3.551,0,0,1,2.432.776,2.8,2.8,0,0,1,.913,2.137V15.9a5.054,5.054,0,0,0,.315,1.967V18ZM33.56,16.83a2.7,2.7,0,0,0,1.37-.374,2.259,2.259,0,0,0,.938-.971V13.642h-1.2q-2.822,0-2.822,1.652a1.4,1.4,0,0,0,.481,1.129A1.85,1.85,0,0,0,33.56,16.83Zm8.334-9.986V9.019h1.677v1.187H41.894v5.577a1.247,1.247,0,0,0,.224.81.943.943,0,0,0,.764.27,3.718,3.718,0,0,0,.73-.1V18a4.478,4.478,0,0,1-1.179.165,1.912,1.912,0,0,1-1.552-.623,2.675,2.675,0,0,1-.523-1.768v-5.57H38.723V9.019h1.635V6.844Zm7.2,11.322a3.924,3.924,0,0,1-2.972-1.2,4.452,4.452,0,0,1-1.146-3.208v-.282a5.39,5.39,0,0,1,.51-2.386,3.982,3.982,0,0,1,1.428-1.644A3.59,3.59,0,0,1,48.9,8.853a3.364,3.364,0,0,1,2.723,1.154,5,5,0,0,1,.971,3.3v.639H46.509a3.193,3.193,0,0,0,.776,2.146,2.44,2.44,0,0,0,1.888.818,2.675,2.675,0,0,0,1.378-.332,3.462,3.462,0,0,0,.988-.88l.938.73A3.772,3.772,0,0,1,49.091,18.166ZM48.9,10.114a2.048,2.048,0,0,0-1.561.677,3.288,3.288,0,0,0-.78,1.9h4.5v-.116a2.925,2.925,0,0,0-.631-1.814A1.928,1.928,0,0,0,48.9,10.114Zm5.1,3.32a5.279,5.279,0,0,1,.971-3.341,3.348,3.348,0,0,1,5.138-.079l.075-1h1.4v8.766a3.654,3.654,0,0,1-1.033,2.748,3.814,3.814,0,0,1-2.777,1,4.619,4.619,0,0,1-1.9-.415,3.272,3.272,0,0,1-1.419-1.137l.8-.921a3,3,0,0,0,2.416,1.22,2.353,2.353,0,0,0,1.747-.631,2.411,2.411,0,0,0,.627-1.776V17.1a3.156,3.156,0,0,1-2.515,1.063A3.068,3.068,0,0,1,54.98,16.9,5.55,5.55,0,0,1,54,13.435Zm1.544.174A4.027,4.027,0,0,0,56.171,16a2.023,2.023,0,0,0,1.743.867,2.249,2.249,0,0,0,2.133-1.32v-4.1a2.276,2.276,0,0,0-2.117-1.287,2.041,2.041,0,0,0-1.751.872A4.386,4.386,0,0,0,55.549,13.609ZM65.576,18H64.041V9.019h1.536ZM63.916,6.636a.917.917,0,0,1,.228-.631.857.857,0,0,1,.677-.257.87.87,0,0,1,.681.257.907.907,0,0,1,.232.631.877.877,0,0,1-.232.623.886.886,0,0,1-.681.249.872.872,0,0,1-.677-.249A.886.886,0,0,1,63.916,6.636ZM73.578,18a3.226,3.226,0,0,1-.216-.946,3.426,3.426,0,0,1-2.557,1.112,3.17,3.17,0,0,1-2.179-.751,2.43,2.43,0,0,1-.851-1.905,2.539,2.539,0,0,1,1.067-2.179,5.029,5.029,0,0,1,3-.776h1.494v-.706a1.725,1.725,0,0,0-.481-1.282,1.935,1.935,0,0,0-1.419-.477,2.239,2.239,0,0,0-1.378.415,1.223,1.223,0,0,0-.556,1H67.958a2.119,2.119,0,0,1,.477-1.3,3.258,3.258,0,0,1,1.295-.992,4.356,4.356,0,0,1,1.8-.365,3.551,3.551,0,0,1,2.432.776,2.8,2.8,0,0,1,.913,2.137V15.9a5.054,5.054,0,0,0,.315,1.967V18ZM71.03,16.83a2.7,2.7,0,0,0,1.37-.374,2.259,2.259,0,0,0,.938-.971V13.642h-1.2q-2.822,0-2.822,1.652a1.4,1.4,0,0,0,.481,1.129A1.85,1.85,0,0,0,71.03,16.83Zm11.48-1.212a1.131,1.131,0,0,0-.469-.967,4.514,4.514,0,0,0-1.635-.594,7.731,7.731,0,0,1-1.851-.6,2.633,2.633,0,0,1-1.013-.83,1.986,1.986,0,0,1-.328-1.146,2.33,2.33,0,0,1,.934-1.868,3.647,3.647,0,0,1,2.386-.764,3.753,3.753,0,0,1,2.478.789,2.5,2.5,0,0,1,.95,2.017H82.418a1.386,1.386,0,0,0-.535-1.087,2.006,2.006,0,0,0-1.349-.457,2.1,2.1,0,0,0-1.312.365,1.15,1.15,0,0,0-.473.955.932.932,0,0,0,.44.838,5.413,5.413,0,0,0,1.59.54,8.283,8.283,0,0,1,1.864.614,2.718,2.718,0,0,1,1.058.859,2.112,2.112,0,0,1,.344,1.224,2.3,2.3,0,0,1-.963,1.93,4.039,4.039,0,0,1-2.5.726,4.523,4.523,0,0,1-1.909-.382,3.105,3.105,0,0,1-1.3-1.067,2.571,2.571,0,0,1-.469-1.482h1.536a1.59,1.59,0,0,0,.618,1.224,2.4,2.4,0,0,0,1.523.452,2.476,2.476,0,0,0,1.4-.353A1.084,1.084,0,0,0,82.51,15.618Zm7.371-2.183a5.261,5.261,0,0,1,.979-3.324,3.333,3.333,0,0,1,5.063-.178V5.25h1.536V18H96.048l-.075-.963a3.127,3.127,0,0,1-2.565,1.129,3.068,3.068,0,0,1-2.544-1.278,5.321,5.321,0,0,1-.984-3.337Zm1.536.174A3.984,3.984,0,0,0,92.047,16a2.039,2.039,0,0,0,1.743.863,2.24,2.24,0,0,0,2.133-1.312V11.426a2.257,2.257,0,0,0-2.117-1.27,2.049,2.049,0,0,0-1.76.872A4.386,4.386,0,0,0,91.417,13.609Zm12.152,4.557a3.924,3.924,0,0,1-2.972-1.2,4.452,4.452,0,0,1-1.146-3.208v-.282a5.39,5.39,0,0,1,.51-2.386,3.982,3.982,0,0,1,1.428-1.644,3.59,3.59,0,0,1,1.988-.594,3.364,3.364,0,0,1,2.723,1.154,5,5,0,0,1,.971,3.3v.639h-6.084a3.193,3.193,0,0,0,.776,2.146,2.44,2.44,0,0,0,1.888.818,2.675,2.675,0,0,0,1.378-.332,3.462,3.462,0,0,0,.988-.88l.938.73A3.772,3.772,0,0,1,103.569,18.166Zm-.191-8.052a2.048,2.048,0,0,0-1.561.677,3.288,3.288,0,0,0-.78,1.9h4.5v-.116a2.925,2.925,0,0,0-.631-1.814A1.928,1.928,0,0,0,103.378,10.114Zm11.737-1.1-.191,1a3.512,3.512,0,0,1,2.731-1.162,2.771,2.771,0,0,1,1.448.39,1.914,1.914,0,0,1,.818,1.054,3.708,3.708,0,0,1,2.98-1.444,2.375,2.375,0,0,1,1.984.9,3.232,3.232,0,0,1,.473,2.341l-.988,5.9h-1.494l.979-5.918a3.127,3.127,0,0,0,0-.789q-.158-1.129-1.478-1.154a2.269,2.269,0,0,0-1.49.51,2.361,2.361,0,0,0-.859,1.382L119.008,18H117.5l1-5.91a1.9,1.9,0,0,0-.278-1.419,1.463,1.463,0,0,0-1.2-.515,2.46,2.46,0,0,0-2.233,1.278L113.646,18h-1.5L113.7,9.019ZM132.182,18a2.012,2.012,0,0,1-.058-.473l.025-.473a3.682,3.682,0,0,1-2.623,1.112,2.684,2.684,0,0,1-1.93-.751,2.274,2.274,0,0,1-.677-1.839,2.765,2.765,0,0,1,1.249-2.229,5.318,5.318,0,0,1,3.067-.8l1.569.008.1-.714a1.641,1.641,0,0,0-.311-1.274,1.5,1.5,0,0,0-1.183-.486,2.317,2.317,0,0,0-1.365.378,1.607,1.607,0,0,0-.726,1.042l-1.511.008a2.408,2.408,0,0,1,.614-1.4,3.574,3.574,0,0,1,1.386-.946,4.478,4.478,0,0,1,1.751-.32,2.978,2.978,0,0,1,2.183.851,2.639,2.639,0,0,1,.656,2.171l-.73,4.449-.042.639a3.134,3.134,0,0,0,.1.9l-.017.141Zm-2.357-1.162a2.62,2.62,0,0,0,1.365-.344,3.457,3.457,0,0,0,1.108-1l.324-1.851-1.137-.008a4.308,4.308,0,0,0-2.175.448,1.651,1.651,0,0,0-.855,1.27,1.286,1.286,0,0,0,.295,1.05A1.4,1.4,0,0,0,129.824,16.838Zm11.5-6.45-.706-.075a2.571,2.571,0,0,0-2.274,1.3L137.245,18h-1.5L137.3,9.019l1.453-.008-.224,1.046a2.685,2.685,0,0,1,2.25-1.22,2.756,2.756,0,0,1,.714.125Zm3.3,3.47-1.179,1.054L142.915,18h-1.5l2.216-12.75h1.5L143.8,12.87l.921-.93,3.188-2.922h1.951l-4.125,3.827L148.576,18h-1.644Zm9.106,4.308a3.238,3.238,0,0,1-2.623-1.237,4.256,4.256,0,0,1-.8-3.08l.042-.357a5.976,5.976,0,0,1,.793-2.44,4.611,4.611,0,0,1,1.59-1.664,3.709,3.709,0,0,1,2.025-.535,2.856,2.856,0,0,1,2.175.921,3.789,3.789,0,0,1,.863,2.407,7.034,7.034,0,0,1-.033,1.079l-.091.689H151.8a3.034,3.034,0,0,0,.4,2.075,1.907,1.907,0,0,0,1.648.888,3.2,3.2,0,0,0,2.457-1.2l.863.73a3.95,3.95,0,0,1-1.457,1.274A4.129,4.129,0,0,1,153.73,18.166Zm.955-8.06a2.195,2.195,0,0,0-1.623.631,4.484,4.484,0,0,0-1.1,1.951l4.366.008.033-.133a2.457,2.457,0,0,0-.336-1.739A1.581,1.581,0,0,0,154.685,10.106Zm7.944-3.262-.382,2.175h1.635l-.208,1.187h-1.627l-.938,5.586a1.948,1.948,0,0,0-.008.4.633.633,0,0,0,.706.647,4.3,4.3,0,0,0,.73-.083l-.116,1.253a4.087,4.087,0,0,1-1.1.149,1.569,1.569,0,0,1-1.345-.66,2.552,2.552,0,0,1-.349-1.731l.913-5.562H158.96l.208-1.187h1.585l.382-2.175ZM165.758,18h-1.494l1.561-8.981h1.494ZM167,5.74a.822.822,0,0,1,.635.228.854.854,0,0,1,.253.643.886.886,0,0,1-.888.9.828.828,0,0,1-.639-.224.812.812,0,0,1-.241-.631.942.942,0,0,1,.249-.647A.878.878,0,0,1,167,5.74Zm4.2,3.271-.216,1.137a3.541,3.541,0,0,1,2.756-1.295,2.228,2.228,0,0,1,1.876.88,3.418,3.418,0,0,1,.448,2.382L175.08,18h-1.5l.988-5.9a3.147,3.147,0,0,0,.008-.755,1.241,1.241,0,0,0-1.37-1.186A2.828,2.828,0,0,0,170.83,11.6L169.718,18h-1.5l1.561-8.981Zm6.641,4.482a7.32,7.32,0,0,1,.793-2.552,4.146,4.146,0,0,1,1.444-1.6,3.348,3.348,0,0,1,1.864-.494,2.763,2.763,0,0,1,2.357,1.179l.3-1h1.378l-1.494,8.791a4.37,4.37,0,0,1-1.395,2.752,3.928,3.928,0,0,1-2.847.984,4.043,4.043,0,0,1-1.747-.432,3.322,3.322,0,0,1-1.316-1.137l.855-.921a2.695,2.695,0,0,0,3.964.639,3.084,3.084,0,0,0,.984-1.793l.166-.8a3.4,3.4,0,0,1-2.565,1.063,2.641,2.641,0,0,1-1.457-.452,2.751,2.751,0,0,1-.959-1.237,5.057,5.057,0,0,1-.374-1.805A9.281,9.281,0,0,1,177.836,13.493Zm1.453.85a3.16,3.16,0,0,0,.411,1.836,1.553,1.553,0,0,0,1.316.684,2.721,2.721,0,0,0,2.316-1.318l.706-4.12a1.887,1.887,0,0,0-1.8-1.277,2.331,2.331,0,0,0-2,.995,5.183,5.183,0,0,0-.926,2.777Zm15.456,1.408,2.092-6.732h1.644l-3.611,10.368q-.838,2.241-2.665,2.241l-.291-.025-.573-.108V20.25l.415.033a2.043,2.043,0,0,0,1.216-.315,2.283,2.283,0,0,0,.718-1.154l.34-.913-3.2-8.882H192.5Zm16.9-2.142a5.378,5.378,0,0,1-.938,3.3,3.006,3.006,0,0,1-2.54,1.253,3.294,3.294,0,0,1-2.573-1.038v4.325h-1.536V9.019h1.4l.075,1a3.163,3.163,0,0,1,2.606-1.162,3.063,3.063,0,0,1,2.561,1.22,5.437,5.437,0,0,1,.942,3.4Zm-1.536-.174a3.968,3.968,0,0,0-.647-2.4,2.086,2.086,0,0,0-1.776-.88,2.257,2.257,0,0,0-2.092,1.237v4.292a2.262,2.262,0,0,0,2.108,1.229,2.076,2.076,0,0,0,1.756-.876A4.332,4.332,0,0,0,210.109,13.435Zm9.031,3.677a3.262,3.262,0,0,1-2.631,1.054,2.792,2.792,0,0,1-2.187-.834,3.611,3.611,0,0,1-.76-2.469V9.019H215.1v5.8q0,2.042,1.66,2.042a2.3,2.3,0,0,0,2.341-1.312V9.019h1.536V18h-1.461Zm11.43-3.5a5.34,5.34,0,0,1-.946,3.308,3.024,3.024,0,0,1-2.54,1.249,3.131,3.131,0,0,1-2.631-1.2L224.378,18h-1.411V5.25H224.5v4.756a3.113,3.113,0,0,1,2.565-1.154,3.042,3.042,0,0,1,2.569,1.237,5.5,5.5,0,0,1,.934,3.387Zm-1.536-.174a4.15,4.15,0,0,0-.606-2.424,2.006,2.006,0,0,0-1.743-.855,2.255,2.255,0,0,0-2.183,1.411v3.885a2.318,2.318,0,0,0,2.2,1.411,2,2,0,0,0,1.718-.855A4.413,4.413,0,0,0,229.035,13.435ZM234.173,18h-1.536V5.25h1.536Zm4.125,0h-1.536V9.019H238.3Zm-1.66-11.364a.917.917,0,0,1,.228-.631.857.857,0,0,1,.677-.257.87.87,0,0,1,.681.257.907.907,0,0,1,.232.631.877.877,0,0,1-.232.623.886.886,0,0,1-.681.249.872.872,0,0,1-.677-.249A.886.886,0,0,1,236.639,6.636Zm7.72,10.276a2.212,2.212,0,0,0,1.436-.5,1.752,1.752,0,0,0,.681-1.245h1.453a2.785,2.785,0,0,1-.531,1.469,3.5,3.5,0,0,1-1.307,1.112,3.772,3.772,0,0,1-1.731.415,3.7,3.7,0,0,1-2.918-1.224,4.877,4.877,0,0,1-1.083-3.349v-.257A5.407,5.407,0,0,1,240.839,11a3.667,3.667,0,0,1,1.382-1.585,3.926,3.926,0,0,1,2.129-.564,3.6,3.6,0,0,1,2.511.9,3.234,3.234,0,0,1,1.067,2.349h-1.453a2.116,2.116,0,0,0-.66-1.432,2.053,2.053,0,0,0-1.465-.56,2.149,2.149,0,0,0-1.814.843,3.957,3.957,0,0,0-.643,2.436v.291a3.878,3.878,0,0,0,.639,2.391A2.16,2.16,0,0,0,244.358,16.913ZM251.323,18h-1.536V9.019h1.536Zm-1.66-11.364a.917.917,0,0,1,.228-.631.857.857,0,0,1,.677-.257.87.87,0,0,1,.681.257.907.907,0,0,1,.232.631.877.877,0,0,1-.232.623.886.886,0,0,1-.681.249.872.872,0,0,1-.677-.249A.886.886,0,0,1,249.663,6.636Zm3.744,6.8a5.261,5.261,0,0,1,.979-3.324,3.333,3.333,0,0,1,5.063-.178V5.25h1.536V18h-1.411l-.075-.963a3.127,3.127,0,0,1-2.565,1.129,3.068,3.068,0,0,1-2.544-1.278,5.321,5.321,0,0,1-.984-3.337Zm1.536.174A3.984,3.984,0,0,0,255.573,16a2.039,2.039,0,0,0,1.743.863,2.24,2.24,0,0,0,2.133-1.312V11.426a2.257,2.257,0,0,0-2.117-1.27,2.049,2.049,0,0,0-1.76.872A4.386,4.386,0,0,0,254.942,13.609ZM268.912,18a3.226,3.226,0,0,1-.216-.946,3.426,3.426,0,0,1-2.557,1.112,3.17,3.17,0,0,1-2.179-.751,2.43,2.43,0,0,1-.851-1.905,2.539,2.539,0,0,1,1.067-2.179,5.029,5.029,0,0,1,3-.776h1.494v-.706a1.725,1.725,0,0,0-.481-1.282,1.935,1.935,0,0,0-1.419-.477,2.239,2.239,0,0,0-1.378.415,1.223,1.223,0,0,0-.556,1h-1.544a2.119,2.119,0,0,1,.477-1.3,3.258,3.258,0,0,1,1.295-.992,4.356,4.356,0,0,1,1.8-.365,3.551,3.551,0,0,1,2.432.776,2.8,2.8,0,0,1,.913,2.137V15.9a5.054,5.054,0,0,0,.315,1.967V18Zm-2.548-1.17a2.7,2.7,0,0,0,1.37-.374,2.26,2.26,0,0,0,.938-.971V13.642h-1.2q-2.822,0-2.822,1.652a1.4,1.4,0,0,0,.481,1.129A1.85,1.85,0,0,0,266.364,16.83Zm5.877-3.4a5.261,5.261,0,0,1,.979-3.324,3.333,3.333,0,0,1,5.063-.178V5.25h1.536V18h-1.411l-.075-.963a3.127,3.127,0,0,1-2.565,1.129,3.068,3.068,0,0,1-2.544-1.278,5.321,5.321,0,0,1-.984-3.337Zm1.536.174A3.984,3.984,0,0,0,274.407,16a2.039,2.039,0,0,0,1.743.863,2.24,2.24,0,0,0,2.133-1.312V11.426a2.257,2.257,0,0,0-2.117-1.27,2.049,2.049,0,0,0-1.76.872A4.386,4.386,0,0,0,273.776,13.609Z" transform="translate(900 4672)" fill="#12263f"/>
    <path id="Trazado_603500" data-name="Trazado 603500" d="M10.293,12.165a4.447,4.447,0,0,1-1.415,2.959,4.638,4.638,0,0,1-3.167,1.042A4.259,4.259,0,0,1,2.279,14.63,6.178,6.178,0,0,1,.988,10.521V9.359A6.886,6.886,0,0,1,1.59,6.4,4.5,4.5,0,0,1,3.3,4.433a4.75,4.75,0,0,1,2.557-.685A4.367,4.367,0,0,1,8.94,4.823,4.5,4.5,0,0,1,10.293,7.8h-1.6a3.472,3.472,0,0,0-.9-2.1,2.725,2.725,0,0,0-1.938-.649,2.851,2.851,0,0,0-2.395,1.13A5.187,5.187,0,0,0,2.59,9.4v1.171A5.332,5.332,0,0,0,3.412,13.7a2.655,2.655,0,0,0,2.3,1.163,3.067,3.067,0,0,0,2.038-.6,3.34,3.34,0,0,0,.942-2.1Zm1.527-.739a5.3,5.3,0,0,1,.519-2.374,3.87,3.87,0,0,1,1.444-1.627A3.932,3.932,0,0,1,15.9,6.853a3.788,3.788,0,0,1,2.968,1.27A4.886,4.886,0,0,1,20,11.5v.108a5.351,5.351,0,0,1-.5,2.353,3.813,3.813,0,0,1-1.436,1.623,3.977,3.977,0,0,1-2.146.581,3.778,3.778,0,0,1-2.959-1.27,4.861,4.861,0,0,1-1.133-3.362Zm1.544.183a3.842,3.842,0,0,0,.693,2.4A2.349,2.349,0,0,0,17.772,14a4.2,4.2,0,0,0,.689-2.569,3.836,3.836,0,0,0-.7-2.395A2.23,2.23,0,0,0,15.9,8.114a2.205,2.205,0,0,0-1.834.9A4.17,4.17,0,0,0,13.364,11.609Zm10.011-4.59.05,1.129a3.273,3.273,0,0,1,2.689-1.295q2.847,0,2.872,3.212V16H27.451V10.057a2.068,2.068,0,0,0-.444-1.436,1.78,1.78,0,0,0-1.357-.465,2.216,2.216,0,0,0-1.312.4,2.706,2.706,0,0,0-.88,1.046V16H21.922V7.019ZM30.9,11.426a5.3,5.3,0,0,1,.519-2.374,3.87,3.87,0,0,1,1.444-1.627,3.932,3.932,0,0,1,2.113-.573,3.788,3.788,0,0,1,2.968,1.27A4.886,4.886,0,0,1,39.072,11.5v.108a5.351,5.351,0,0,1-.5,2.353,3.813,3.813,0,0,1-1.436,1.623,3.977,3.977,0,0,1-2.146.581,3.778,3.778,0,0,1-2.959-1.27A4.861,4.861,0,0,1,30.9,11.534Zm1.544.183a3.842,3.842,0,0,0,.693,2.4A2.349,2.349,0,0,0,36.847,14a4.2,4.2,0,0,0,.689-2.569,3.836,3.836,0,0,0-.7-2.395,2.23,2.23,0,0,0-1.864-.917,2.205,2.205,0,0,0-1.834.9A4.17,4.17,0,0,0,32.439,11.609Zm12.161,3.3a2.212,2.212,0,0,0,1.436-.5,1.752,1.752,0,0,0,.681-1.245h1.453a2.785,2.785,0,0,1-.531,1.469,3.5,3.5,0,0,1-1.307,1.112,3.772,3.772,0,0,1-1.731.415,3.7,3.7,0,0,1-2.918-1.224A4.877,4.877,0,0,1,40.6,11.592v-.257A5.407,5.407,0,0,1,41.081,9a3.667,3.667,0,0,1,1.382-1.585,3.926,3.926,0,0,1,2.129-.564,3.6,3.6,0,0,1,2.511.9,3.234,3.234,0,0,1,1.067,2.349H46.717a2.116,2.116,0,0,0-.66-1.432,2.053,2.053,0,0,0-1.465-.56,2.149,2.149,0,0,0-1.814.843,3.957,3.957,0,0,0-.643,2.436v.291a3.878,3.878,0,0,0,.639,2.391A2.16,2.16,0,0,0,44.6,14.913ZM51.564,16H50.029V7.019h1.536ZM49.9,4.636a.917.917,0,0,1,.228-.631.857.857,0,0,1,.677-.257.87.87,0,0,1,.681.257.907.907,0,0,1,.232.631.877.877,0,0,1-.232.623.886.886,0,0,1-.681.249.872.872,0,0,1-.677-.249A.886.886,0,0,1,49.9,4.636Zm5.562,2.382.042,1a3.317,3.317,0,0,1,2.665-1.162A2.568,2.568,0,0,1,60.737,8.3,3.4,3.4,0,0,1,61.9,7.251a3.445,3.445,0,0,1,1.7-.4q2.955,0,3,3.129V16H65.07V10.073a2.062,2.062,0,0,0-.44-1.44,1.937,1.937,0,0,0-1.478-.477,2.036,2.036,0,0,0-1.419.51,2.071,2.071,0,0,0-.656,1.374V16H59.533V10.115a1.713,1.713,0,0,0-1.917-1.959,2.055,2.055,0,0,0-2.067,1.287V16H54.013V7.019ZM70.59,16H69.054V7.019H70.59ZM68.93,4.636a.917.917,0,0,1,.228-.631.857.857,0,0,1,.677-.257.87.87,0,0,1,.681.257.907.907,0,0,1,.232.631.877.877,0,0,1-.232.623.886.886,0,0,1-.681.249.872.872,0,0,1-.677-.249A.886.886,0,0,1,68.93,4.636Zm7.844,11.53a3.924,3.924,0,0,1-2.972-1.2,4.452,4.452,0,0,1-1.146-3.208v-.282a5.39,5.39,0,0,1,.51-2.386,3.982,3.982,0,0,1,1.428-1.644,3.59,3.59,0,0,1,1.988-.594,3.364,3.364,0,0,1,2.723,1.154,5,5,0,0,1,.971,3.3v.639H74.192a3.193,3.193,0,0,0,.776,2.146,2.44,2.44,0,0,0,1.888.818,2.675,2.675,0,0,0,1.378-.332,3.462,3.462,0,0,0,.988-.88l.938.73A3.772,3.772,0,0,1,76.774,16.166Zm-.191-8.052a2.048,2.048,0,0,0-1.561.677,3.288,3.288,0,0,0-.78,1.9h4.5v-.116a2.925,2.925,0,0,0-.631-1.814A1.928,1.928,0,0,0,76.583,8.114Zm6.923-1.1.05,1.129a3.273,3.273,0,0,1,2.689-1.295q2.847,0,2.872,3.212V16H87.582V10.057a2.068,2.068,0,0,0-.444-1.436,1.78,1.78,0,0,0-1.357-.465,2.216,2.216,0,0,0-1.312.4,2.706,2.706,0,0,0-.88,1.046V16H82.053V7.019ZM93.517,4.844V7.019h1.677V8.206H93.517v5.577a1.247,1.247,0,0,0,.224.81.943.943,0,0,0,.764.27,3.718,3.718,0,0,0,.73-.1V16a4.478,4.478,0,0,1-1.179.165,1.912,1.912,0,0,1-1.552-.623,2.675,2.675,0,0,1-.523-1.768V8.206H90.346V7.019h1.635V4.844Zm2.9,6.583a5.3,5.3,0,0,1,.519-2.374,3.87,3.87,0,0,1,1.444-1.627,3.932,3.932,0,0,1,2.113-.573,3.788,3.788,0,0,1,2.968,1.27A4.886,4.886,0,0,1,104.59,11.5v.108a5.351,5.351,0,0,1-.5,2.353,3.813,3.813,0,0,1-1.436,1.623,3.977,3.977,0,0,1-2.146.581,3.778,3.778,0,0,1-2.959-1.27,4.861,4.861,0,0,1-1.133-3.362Zm1.544.183a3.842,3.842,0,0,0,.693,2.4A2.349,2.349,0,0,0,102.365,14a4.2,4.2,0,0,0,.689-2.569,3.836,3.836,0,0,0-.7-2.395,2.23,2.23,0,0,0-1.864-.917,2.205,2.205,0,0,0-1.834.9A4.17,4.17,0,0,0,97.958,11.609Zm12.393-.174a5.261,5.261,0,0,1,.979-3.324,3.333,3.333,0,0,1,5.063-.178V3.25h1.536V16h-1.411l-.075-.963a3.127,3.127,0,0,1-2.565,1.129,3.068,3.068,0,0,1-2.544-1.278,5.321,5.321,0,0,1-.984-3.337Zm1.536.174A3.984,3.984,0,0,0,112.517,14a2.039,2.039,0,0,0,1.743.863,2.24,2.24,0,0,0,2.133-1.312V9.426a2.257,2.257,0,0,0-2.117-1.27,2.049,2.049,0,0,0-1.76.872A4.386,4.386,0,0,0,111.886,11.609Zm12.152,4.557a3.924,3.924,0,0,1-2.972-1.2,4.452,4.452,0,0,1-1.146-3.208v-.282a5.39,5.39,0,0,1,.51-2.386,3.982,3.982,0,0,1,1.428-1.644,3.59,3.59,0,0,1,1.988-.594,3.364,3.364,0,0,1,2.723,1.154,5,5,0,0,1,.971,3.3v.639h-6.084a3.193,3.193,0,0,0,.776,2.146,2.44,2.44,0,0,0,1.888.818,2.675,2.675,0,0,0,1.378-.332,3.462,3.462,0,0,0,.988-.88l.938.73A3.772,3.772,0,0,1,124.039,16.166Zm-.191-8.052a2.048,2.048,0,0,0-1.561.677,3.288,3.288,0,0,0-.78,1.9h4.5v-.116a2.925,2.925,0,0,0-.631-1.814A1.928,1.928,0,0,0,123.848,8.114ZM130.986,16h-1.536V3.25h1.536Zm14.252-4.391a5.378,5.378,0,0,1-.938,3.3,3.006,3.006,0,0,1-2.54,1.253,3.294,3.294,0,0,1-2.573-1.038v4.325h-1.536V7.019h1.4l.075,1a3.163,3.163,0,0,1,2.606-1.162,3.063,3.063,0,0,1,2.561,1.22,5.437,5.437,0,0,1,.942,3.4Zm-1.536-.174a3.968,3.968,0,0,0-.647-2.4,2.086,2.086,0,0,0-1.776-.88,2.257,2.257,0,0,0-2.092,1.237v4.292a2.262,2.262,0,0,0,2.108,1.229,2.076,2.076,0,0,0,1.756-.876A4.332,4.332,0,0,0,143.7,11.435ZM151.531,8.4a4.6,4.6,0,0,0-.755-.058,2.024,2.024,0,0,0-2.05,1.287V16h-1.536V7.019h1.494l.025,1.038a2.391,2.391,0,0,1,2.142-1.2,1.569,1.569,0,0,1,.681.116Zm.838,3.03a5.3,5.3,0,0,1,.519-2.374,3.87,3.87,0,0,1,1.444-1.627,3.932,3.932,0,0,1,2.113-.573,3.788,3.788,0,0,1,2.968,1.27,4.886,4.886,0,0,1,1.133,3.378v.108a5.351,5.351,0,0,1-.5,2.353,3.813,3.813,0,0,1-1.436,1.623,3.977,3.977,0,0,1-2.146.581A3.778,3.778,0,0,1,153.5,14.9a4.861,4.861,0,0,1-1.133-3.362Zm1.544.183a3.842,3.842,0,0,0,.693,2.4A2.349,2.349,0,0,0,158.321,14a4.2,4.2,0,0,0,.689-2.569,3.836,3.836,0,0,0-.7-2.395,2.23,2.23,0,0,0-1.864-.917,2.205,2.205,0,0,0-1.834.9A4.17,4.17,0,0,0,153.913,11.609Zm8.185-.174a5.261,5.261,0,0,1,.979-3.324,3.333,3.333,0,0,1,5.063-.178V3.25h1.536V16h-1.411l-.075-.963a3.127,3.127,0,0,1-2.565,1.129,3.068,3.068,0,0,1-2.544-1.278,5.321,5.321,0,0,1-.984-3.337Zm1.536.174A3.984,3.984,0,0,0,164.264,14a2.039,2.039,0,0,0,1.743.863,2.24,2.24,0,0,0,2.133-1.312V9.426a2.257,2.257,0,0,0-2.117-1.27,2.049,2.049,0,0,0-1.76.872A4.386,4.386,0,0,0,163.633,11.609Zm13.97,3.5a3.262,3.262,0,0,1-2.631,1.054,2.792,2.792,0,0,1-2.187-.834,3.611,3.611,0,0,1-.76-2.469V7.019h1.536v5.8q0,2.042,1.66,2.042a2.3,2.3,0,0,0,2.341-1.312V7.019H179.1V16h-1.461Zm7.429-.2a2.212,2.212,0,0,0,1.436-.5,1.752,1.752,0,0,0,.681-1.245H188.6a2.785,2.785,0,0,1-.531,1.469,3.5,3.5,0,0,1-1.307,1.112,3.772,3.772,0,0,1-1.731.415,3.7,3.7,0,0,1-2.918-1.224,4.877,4.877,0,0,1-1.083-3.349v-.257A5.407,5.407,0,0,1,181.513,9,3.667,3.667,0,0,1,182.9,7.417a3.926,3.926,0,0,1,2.129-.564,3.6,3.6,0,0,1,2.511.9,3.234,3.234,0,0,1,1.067,2.349h-1.453a2.116,2.116,0,0,0-.66-1.432,2.053,2.053,0,0,0-1.465-.56,2.149,2.149,0,0,0-1.814.843,3.957,3.957,0,0,0-.643,2.436v.291a3.878,3.878,0,0,0,.639,2.391A2.16,2.16,0,0,0,185.033,14.913Zm7.379-10.069V7.019h1.677V8.206h-1.677v5.577a1.247,1.247,0,0,0,.224.81.943.943,0,0,0,.764.27,3.718,3.718,0,0,0,.73-.1V16a4.478,4.478,0,0,1-1.179.165,1.912,1.912,0,0,1-1.552-.623,2.675,2.675,0,0,1-.523-1.768V8.206h-1.635V7.019h1.635V4.844Zm2.9,6.583a5.3,5.3,0,0,1,.519-2.374,3.87,3.87,0,0,1,1.444-1.627,3.932,3.932,0,0,1,2.113-.573,3.788,3.788,0,0,1,2.968,1.27,4.886,4.886,0,0,1,1.133,3.378v.108a5.351,5.351,0,0,1-.5,2.353,3.813,3.813,0,0,1-1.436,1.623,3.977,3.977,0,0,1-2.146.581,3.778,3.778,0,0,1-2.959-1.27,4.861,4.861,0,0,1-1.133-3.362Zm1.544.183a3.842,3.842,0,0,0,.693,2.4A2.349,2.349,0,0,0,201.261,14a4.2,4.2,0,0,0,.689-2.569,3.836,3.836,0,0,0-.7-2.395,2.23,2.23,0,0,0-1.864-.917,2.205,2.205,0,0,0-1.834.9A4.17,4.17,0,0,0,196.853,11.609Zm12.36-.183a5.3,5.3,0,0,1,.519-2.374,3.87,3.87,0,0,1,1.444-1.627,3.932,3.932,0,0,1,2.113-.573,3.788,3.788,0,0,1,2.968,1.27,4.886,4.886,0,0,1,1.133,3.378v.108a5.351,5.351,0,0,1-.5,2.353,3.813,3.813,0,0,1-1.436,1.623,3.977,3.977,0,0,1-2.146.581,3.778,3.778,0,0,1-2.959-1.27,4.861,4.861,0,0,1-1.133-3.362Zm1.544.183a3.842,3.842,0,0,0,.693,2.4A2.349,2.349,0,0,0,215.165,14a4.2,4.2,0,0,0,.689-2.569,3.836,3.836,0,0,0-.7-2.395,2.23,2.23,0,0,0-1.864-.917,2.205,2.205,0,0,0-1.834.9A4.17,4.17,0,0,0,210.757,11.609Zm18,2.009a1.13,1.13,0,0,0-.469-.967,4.514,4.514,0,0,0-1.635-.594,7.731,7.731,0,0,1-1.851-.6,2.633,2.633,0,0,1-1.013-.83,1.986,1.986,0,0,1-.328-1.146,2.33,2.33,0,0,1,.934-1.868,3.647,3.647,0,0,1,2.386-.764,3.753,3.753,0,0,1,2.478.789,2.5,2.5,0,0,1,.95,2.017h-1.544a1.386,1.386,0,0,0-.535-1.087,2.006,2.006,0,0,0-1.349-.457,2.1,2.1,0,0,0-1.312.365,1.15,1.15,0,0,0-.473.955.932.932,0,0,0,.44.838,5.413,5.413,0,0,0,1.59.54,8.283,8.283,0,0,1,1.864.614,2.718,2.718,0,0,1,1.058.859,2.112,2.112,0,0,1,.344,1.224,2.3,2.3,0,0,1-.963,1.93,4.039,4.039,0,0,1-2.5.726,4.523,4.523,0,0,1-1.909-.382,3.105,3.105,0,0,1-1.3-1.067,2.571,2.571,0,0,1-.469-1.482h1.536a1.59,1.59,0,0,0,.618,1.224,2.4,2.4,0,0,0,1.523.452,2.476,2.476,0,0,0,1.4-.353A1.084,1.084,0,0,0,228.753,13.618Zm7.263,2.548a3.924,3.924,0,0,1-2.972-1.2,4.452,4.452,0,0,1-1.146-3.208v-.282a5.39,5.39,0,0,1,.51-2.386,3.982,3.982,0,0,1,1.428-1.644,3.59,3.59,0,0,1,1.988-.594,3.364,3.364,0,0,1,2.723,1.154,5,5,0,0,1,.971,3.3v.639h-6.084a3.193,3.193,0,0,0,.776,2.146,2.44,2.44,0,0,0,1.888.818,2.675,2.675,0,0,0,1.378-.332,3.462,3.462,0,0,0,.988-.88l.938.73A3.772,3.772,0,0,1,236.016,16.166Zm-.191-8.052a2.048,2.048,0,0,0-1.561.677,3.288,3.288,0,0,0-.78,1.9h4.5v-.116a2.925,2.925,0,0,0-.631-1.814A1.928,1.928,0,0,0,235.825,8.114Zm9.812.282a4.6,4.6,0,0,0-.755-.058,2.024,2.024,0,0,0-2.05,1.287V16H241.3V7.019h1.494l.025,1.038a2.391,2.391,0,0,1,2.142-1.2,1.569,1.569,0,0,1,.681.116Zm4.524,5.52,2.225-6.9h1.569L250.733,16h-1.17l-3.254-8.981h1.569ZM257.1,16h-1.536V7.019H257.1ZM255.44,4.636a.917.917,0,0,1,.228-.631.857.857,0,0,1,.677-.257.87.87,0,0,1,.681.257.907.907,0,0,1,.232.631.877.877,0,0,1-.232.623.886.886,0,0,1-.681.249.872.872,0,0,1-.677-.249A.886.886,0,0,1,255.44,4.636Zm7.72,10.276a2.212,2.212,0,0,0,1.436-.5,1.752,1.752,0,0,0,.681-1.245h1.453a2.785,2.785,0,0,1-.531,1.469,3.5,3.5,0,0,1-1.307,1.112,3.772,3.772,0,0,1-1.731.415,3.7,3.7,0,0,1-2.918-1.224,4.877,4.877,0,0,1-1.083-3.349v-.257A5.407,5.407,0,0,1,259.64,9a3.667,3.667,0,0,1,1.382-1.585,3.926,3.926,0,0,1,2.129-.564,3.6,3.6,0,0,1,2.511.9,3.234,3.234,0,0,1,1.067,2.349h-1.453a2.116,2.116,0,0,0-.66-1.432,2.053,2.053,0,0,0-1.465-.56,2.149,2.149,0,0,0-1.814.843,3.957,3.957,0,0,0-.643,2.436v.291a3.878,3.878,0,0,0,.639,2.391A2.16,2.16,0,0,0,263.16,14.913ZM270.124,16h-1.536V7.019h1.536Zm-1.66-11.364a.917.917,0,0,1,.228-.631.857.857,0,0,1,.677-.257.87.87,0,0,1,.681.257.907.907,0,0,1,.232.631.877.877,0,0,1-.232.623.886.886,0,0,1-.681.249.872.872,0,0,1-.677-.249A.886.886,0,0,1,268.464,4.636Zm3.71,6.79a5.305,5.305,0,0,1,.519-2.374,3.87,3.87,0,0,1,1.444-1.627,3.932,3.932,0,0,1,2.113-.573,3.788,3.788,0,0,1,2.968,1.27,4.886,4.886,0,0,1,1.133,3.378v.108a5.351,5.351,0,0,1-.5,2.353,3.813,3.813,0,0,1-1.436,1.623,3.977,3.977,0,0,1-2.146.581,3.778,3.778,0,0,1-2.959-1.27,4.861,4.861,0,0,1-1.133-3.362Zm1.544.183a3.842,3.842,0,0,0,.693,2.4A2.349,2.349,0,0,0,278.126,14a4.2,4.2,0,0,0,.689-2.569,3.836,3.836,0,0,0-.7-2.395,2.23,2.23,0,0,0-1.864-.917,2.205,2.205,0,0,0-1.834.9A4.17,4.17,0,0,0,273.718,11.609Z" transform="translate(900 4850)" fill="#12263f"/>
    <path id="Trazado_603501" data-name="Trazado 603501" d="M10.293,12.165a4.447,4.447,0,0,1-1.415,2.959,4.638,4.638,0,0,1-3.167,1.042A4.259,4.259,0,0,1,2.279,14.63,6.178,6.178,0,0,1,.988,10.521V9.359A6.886,6.886,0,0,1,1.59,6.4,4.5,4.5,0,0,1,3.3,4.433a4.75,4.75,0,0,1,2.557-.685A4.367,4.367,0,0,1,8.94,4.823,4.5,4.5,0,0,1,10.293,7.8h-1.6a3.472,3.472,0,0,0-.9-2.1,2.725,2.725,0,0,0-1.938-.649,2.851,2.851,0,0,0-2.395,1.13A5.187,5.187,0,0,0,2.59,9.4v1.171A5.332,5.332,0,0,0,3.412,13.7a2.655,2.655,0,0,0,2.3,1.163,3.067,3.067,0,0,0,2.038-.6,3.34,3.34,0,0,0,.942-2.1Zm1.527-.739a5.3,5.3,0,0,1,.519-2.374,3.87,3.87,0,0,1,1.444-1.627A3.932,3.932,0,0,1,15.9,6.853a3.788,3.788,0,0,1,2.968,1.27A4.886,4.886,0,0,1,20,11.5v.108a5.351,5.351,0,0,1-.5,2.353,3.813,3.813,0,0,1-1.436,1.623,3.977,3.977,0,0,1-2.146.581,3.778,3.778,0,0,1-2.959-1.27,4.861,4.861,0,0,1-1.133-3.362Zm1.544.183a3.842,3.842,0,0,0,.693,2.4A2.349,2.349,0,0,0,17.772,14a4.2,4.2,0,0,0,.689-2.569,3.836,3.836,0,0,0-.7-2.395A2.23,2.23,0,0,0,15.9,8.114a2.205,2.205,0,0,0-1.834.9A4.17,4.17,0,0,0,13.364,11.609Zm10-4.59.042,1a3.317,3.317,0,0,1,2.665-1.162A2.568,2.568,0,0,1,28.638,8.3,3.4,3.4,0,0,1,29.8,7.251a3.445,3.445,0,0,1,1.7-.4q2.955,0,3,3.129V16H32.971V10.073a2.062,2.062,0,0,0-.44-1.44,1.937,1.937,0,0,0-1.478-.477,2.036,2.036,0,0,0-1.419.51,2.071,2.071,0,0,0-.656,1.374V16H27.434V10.115a1.713,1.713,0,0,0-1.917-1.959A2.055,2.055,0,0,0,23.45,9.442V16H21.914V7.019Zm19,8.093a3.262,3.262,0,0,1-2.631,1.054,2.792,2.792,0,0,1-2.187-.834,3.611,3.611,0,0,1-.76-2.469V7.019h1.536v5.8q0,2.042,1.66,2.042a2.3,2.3,0,0,0,2.341-1.312V7.019h1.536V16H42.4Zm5.279-8.093.05,1.129a3.273,3.273,0,0,1,2.689-1.295q2.847,0,2.872,3.212V16H51.722V10.057a2.068,2.068,0,0,0-.444-1.436,1.78,1.78,0,0,0-1.357-.465,2.216,2.216,0,0,0-1.312.4,2.706,2.706,0,0,0-.88,1.046V16H46.194V7.019ZM57.242,16H55.707V7.019h1.536ZM55.582,4.636a.917.917,0,0,1,.228-.631.857.857,0,0,1,.677-.257.87.87,0,0,1,.681.257.907.907,0,0,1,.232.631.877.877,0,0,1-.232.623.886.886,0,0,1-.681.249.872.872,0,0,1-.677-.249A.886.886,0,0,1,55.582,4.636ZM63.3,14.913a2.212,2.212,0,0,0,1.436-.5,1.752,1.752,0,0,0,.681-1.245h1.453a2.785,2.785,0,0,1-.531,1.469,3.5,3.5,0,0,1-1.307,1.112,3.772,3.772,0,0,1-1.731.415,3.7,3.7,0,0,1-2.918-1.224A4.877,4.877,0,0,1,59.3,11.592v-.257A5.407,5.407,0,0,1,59.782,9a3.667,3.667,0,0,1,1.382-1.585,3.926,3.926,0,0,1,2.129-.564,3.6,3.6,0,0,1,2.511.9,3.234,3.234,0,0,1,1.067,2.349H65.418a2.116,2.116,0,0,0-.66-1.432,2.053,2.053,0,0,0-1.465-.56,2.149,2.149,0,0,0-1.814.843,3.957,3.957,0,0,0-.643,2.436v.291a3.878,3.878,0,0,0,.639,2.391A2.16,2.16,0,0,0,63.3,14.913ZM74.143,16a3.226,3.226,0,0,1-.216-.946,3.426,3.426,0,0,1-2.557,1.112,3.17,3.17,0,0,1-2.179-.751,2.43,2.43,0,0,1-.851-1.905,2.539,2.539,0,0,1,1.067-2.179,5.029,5.029,0,0,1,3-.776H73.9V9.849a1.725,1.725,0,0,0-.481-1.282A1.935,1.935,0,0,0,72,8.089a2.239,2.239,0,0,0-1.378.415,1.223,1.223,0,0,0-.556,1H68.523A2.119,2.119,0,0,1,69,8.21,3.258,3.258,0,0,1,70.3,7.218a4.356,4.356,0,0,1,1.8-.365,3.551,3.551,0,0,1,2.432.776,2.8,2.8,0,0,1,.913,2.137V13.9a5.054,5.054,0,0,0,.315,1.967V16Zm-2.548-1.17a2.7,2.7,0,0,0,1.37-.374,2.259,2.259,0,0,0,.938-.971V11.642H72.7q-2.822,0-2.822,1.652a1.4,1.4,0,0,0,.481,1.129A1.85,1.85,0,0,0,71.594,14.83Zm9.853.083a2.212,2.212,0,0,0,1.436-.5,1.752,1.752,0,0,0,.681-1.245h1.453a2.785,2.785,0,0,1-.531,1.469,3.5,3.5,0,0,1-1.307,1.112,3.772,3.772,0,0,1-1.731.415,3.7,3.7,0,0,1-2.918-1.224,4.877,4.877,0,0,1-1.083-3.349v-.257A5.407,5.407,0,0,1,77.928,9,3.667,3.667,0,0,1,79.31,7.417a3.926,3.926,0,0,1,2.129-.564,3.6,3.6,0,0,1,2.511.9,3.234,3.234,0,0,1,1.067,2.349H83.564a2.116,2.116,0,0,0-.66-1.432,2.053,2.053,0,0,0-1.465-.56,2.149,2.149,0,0,0-1.814.843,3.957,3.957,0,0,0-.643,2.436v.291a3.878,3.878,0,0,0,.639,2.391A2.16,2.16,0,0,0,81.447,14.913ZM88.412,16H86.876V7.019h1.536ZM86.751,4.636a.917.917,0,0,1,.228-.631.857.857,0,0,1,.677-.257.87.87,0,0,1,.681.257.907.907,0,0,1,.232.631.877.877,0,0,1-.232.623.886.886,0,0,1-.681.249.872.872,0,0,1-.677-.249A.886.886,0,0,1,86.751,4.636Zm3.71,6.79a5.3,5.3,0,0,1,.519-2.374,3.87,3.87,0,0,1,1.444-1.627,3.932,3.932,0,0,1,2.113-.573,3.788,3.788,0,0,1,2.968,1.27A4.886,4.886,0,0,1,98.638,11.5v.108a5.351,5.351,0,0,1-.5,2.353A3.813,3.813,0,0,1,96.7,15.585a3.977,3.977,0,0,1-2.146.581,3.778,3.778,0,0,1-2.959-1.27,4.861,4.861,0,0,1-1.133-3.362Zm1.544.183a3.842,3.842,0,0,0,.693,2.4A2.349,2.349,0,0,0,96.414,14a4.2,4.2,0,0,0,.689-2.569,3.836,3.836,0,0,0-.7-2.395,2.23,2.23,0,0,0-1.864-.917,2.205,2.205,0,0,0-1.834.9A4.17,4.17,0,0,0,92.006,11.609ZM95.235,3.25h1.859L94.87,5.69l-1.237,0Zm6.782,3.769.05,1.129a3.273,3.273,0,0,1,2.689-1.295q2.847,0,2.872,3.212V16h-1.536V10.057a2.068,2.068,0,0,0-.444-1.436,1.78,1.78,0,0,0-1.357-.465,2.216,2.216,0,0,0-1.312.4A2.706,2.706,0,0,0,102.1,9.6V16h-1.536V7.019Zm15.738,7.894a2.212,2.212,0,0,0,1.436-.5,1.752,1.752,0,0,0,.681-1.245h1.453a2.785,2.785,0,0,1-.531,1.469,3.5,3.5,0,0,1-1.307,1.112,3.772,3.772,0,0,1-1.731.415,3.7,3.7,0,0,1-2.918-1.224,4.877,4.877,0,0,1-1.083-3.349v-.257A5.407,5.407,0,0,1,114.235,9a3.667,3.667,0,0,1,1.382-1.585,3.926,3.926,0,0,1,2.129-.564,3.6,3.6,0,0,1,2.511.9,3.234,3.234,0,0,1,1.067,2.349h-1.453a2.116,2.116,0,0,0-.66-1.432,2.053,2.053,0,0,0-1.465-.56,2.149,2.149,0,0,0-1.814.843,3.957,3.957,0,0,0-.643,2.436v.291a3.878,3.878,0,0,0,.639,2.391A2.16,2.16,0,0,0,117.755,14.913Zm4.889-3.486a5.3,5.3,0,0,1,.519-2.374,3.87,3.87,0,0,1,1.444-1.627,3.932,3.932,0,0,1,2.113-.573,3.788,3.788,0,0,1,2.968,1.27A4.886,4.886,0,0,1,130.82,11.5v.108a5.351,5.351,0,0,1-.5,2.353,3.813,3.813,0,0,1-1.436,1.623,3.977,3.977,0,0,1-2.146.581,3.778,3.778,0,0,1-2.959-1.27,4.861,4.861,0,0,1-1.133-3.362Zm1.544.183a3.842,3.842,0,0,0,.693,2.4A2.349,2.349,0,0,0,128.6,14a4.2,4.2,0,0,0,.689-2.569,3.836,3.836,0,0,0-.7-2.395,2.23,2.23,0,0,0-1.864-.917,2.205,2.205,0,0,0-1.834.9A4.17,4.17,0,0,0,124.188,11.609ZM134.2,7.019l.05,1.129a3.273,3.273,0,0,1,2.689-1.295q2.847,0,2.872,3.212V16h-1.536V10.057a2.068,2.068,0,0,0-.444-1.436,1.78,1.78,0,0,0-1.357-.465,2.216,2.216,0,0,0-1.312.4,2.706,2.706,0,0,0-.88,1.046V16h-1.536V7.019Zm15.863,9.147a3.924,3.924,0,0,1-2.972-1.2,4.452,4.452,0,0,1-1.146-3.208v-.282a5.39,5.39,0,0,1,.51-2.386,3.982,3.982,0,0,1,1.428-1.644,3.59,3.59,0,0,1,1.988-.594,3.364,3.364,0,0,1,2.723,1.154,5,5,0,0,1,.971,3.3v.639H147.48a3.193,3.193,0,0,0,.776,2.146,2.44,2.44,0,0,0,1.888.818,2.675,2.675,0,0,0,1.378-.332,3.462,3.462,0,0,0,.988-.88l.938.73A3.772,3.772,0,0,1,150.062,16.166Zm-.191-8.052a2.048,2.048,0,0,0-1.561.677,3.288,3.288,0,0,0-.78,1.9h4.5v-.116a2.925,2.925,0,0,0-.631-1.814A1.928,1.928,0,0,0,149.871,8.114ZM157.009,16h-1.536V3.25h1.536Zm10.268-1.087a2.212,2.212,0,0,0,1.436-.5,1.752,1.752,0,0,0,.681-1.245h1.453a2.785,2.785,0,0,1-.531,1.469,3.5,3.5,0,0,1-1.307,1.112,3.772,3.772,0,0,1-1.731.415,3.7,3.7,0,0,1-2.918-1.224,4.877,4.877,0,0,1-1.083-3.349v-.257A5.407,5.407,0,0,1,163.758,9a3.667,3.667,0,0,1,1.382-1.585,3.926,3.926,0,0,1,2.129-.564,3.6,3.6,0,0,1,2.511.9,3.234,3.234,0,0,1,1.067,2.349h-1.453a2.116,2.116,0,0,0-.66-1.432,2.053,2.053,0,0,0-1.465-.56,2.149,2.149,0,0,0-1.814.843,3.957,3.957,0,0,0-.643,2.436v.291a3.878,3.878,0,0,0,.639,2.391A2.16,2.16,0,0,0,167.277,14.913ZM174.242,16h-1.536V3.25h1.536Zm4.125,0h-1.536V7.019h1.536Zm-1.66-11.364a.917.917,0,0,1,.228-.631.857.857,0,0,1,.677-.257.87.87,0,0,1,.681.257.907.907,0,0,1,.232.631.877.877,0,0,1-.232.623.886.886,0,0,1-.681.249.872.872,0,0,1-.677-.249A.886.886,0,0,1,176.707,4.636Zm7.844,11.53a3.924,3.924,0,0,1-2.972-1.2,4.452,4.452,0,0,1-1.146-3.208v-.282a5.39,5.39,0,0,1,.51-2.386,3.982,3.982,0,0,1,1.428-1.644,3.59,3.59,0,0,1,1.988-.594,3.364,3.364,0,0,1,2.723,1.154,5,5,0,0,1,.971,3.3v.639H181.97a3.193,3.193,0,0,0,.776,2.146,2.44,2.44,0,0,0,1.888.818,2.675,2.675,0,0,0,1.378-.332A3.462,3.462,0,0,0,187,13.7l.938.73A3.772,3.772,0,0,1,184.551,16.166Zm-.191-8.052a2.048,2.048,0,0,0-1.561.677,3.288,3.288,0,0,0-.78,1.9h4.5v-.116a2.925,2.925,0,0,0-.631-1.814A1.928,1.928,0,0,0,184.36,8.114Zm6.923-1.1.05,1.129a3.273,3.273,0,0,1,2.689-1.295q2.847,0,2.872,3.212V16h-1.536V10.057a2.068,2.068,0,0,0-.444-1.436,1.78,1.78,0,0,0-1.357-.465,2.216,2.216,0,0,0-1.312.4,2.706,2.706,0,0,0-.88,1.046V16h-1.536V7.019Zm10.011-2.175V7.019h1.677V8.206h-1.677v5.577a1.247,1.247,0,0,0,.224.81.943.943,0,0,0,.764.27,3.718,3.718,0,0,0,.73-.1V16a4.478,4.478,0,0,1-1.179.165,1.912,1.912,0,0,1-1.552-.623,2.675,2.675,0,0,1-.523-1.768V8.206h-1.635V7.019h1.635V4.844Zm7.2,11.322a3.924,3.924,0,0,1-2.972-1.2,4.452,4.452,0,0,1-1.146-3.208v-.282a5.39,5.39,0,0,1,.51-2.386,3.982,3.982,0,0,1,1.428-1.644,3.59,3.59,0,0,1,1.988-.594,3.364,3.364,0,0,1,2.723,1.154,5,5,0,0,1,.971,3.3v.639h-6.084a3.193,3.193,0,0,0,.776,2.146,2.44,2.44,0,0,0,1.888.818,2.675,2.675,0,0,0,1.378-.332,3.462,3.462,0,0,0,.988-.88l.938.73A3.772,3.772,0,0,1,208.491,16.166ZM208.3,8.114a2.048,2.048,0,0,0-1.561.677,3.288,3.288,0,0,0-.78,1.9h4.5v-.116a2.925,2.925,0,0,0-.631-1.814A1.928,1.928,0,0,0,208.3,8.114Z" transform="translate(449 4850)" fill="#12263f"/>
    <g id="Grupo_160597" data-name="Grupo 160597" transform="translate(99 3102.918)">
      <g id="Grupo_160582" data-name="Grupo 160582" transform="translate(932 1634)">
        <g id="Grupo_160578" data-name="Grupo 160578" transform="translate(23.916 54.166) rotate(90)">
          <g id="Grupo_160577" data-name="Grupo 160577" transform="translate(0 0)" clip-path="url(#clip-path)">
            <path id="Trazado_600822" data-name="Trazado 600822" d="M1.787,23.916A1.787,1.787,0,0,1,.523,20.866l8.908-8.908L.523,3.05A1.787,1.787,0,0,1,3.05.523L13.222,10.695a1.787,1.787,0,0,1,0,2.527L3.05,23.393a1.784,1.784,0,0,1-1.263.523" transform="translate(4.521 0)" fill="#144567"/>
          </g>
        </g>
        <rect id="Rectángulo_46641" data-name="Rectángulo 46641" width="61.683" height="3.417" rx="1.708" transform="translate(13.667) rotate(90)" fill="#144567"/>
      </g>
      <path id="Trazado_600829" data-name="Trazado 600829" d="M1.266,16.944a1.266,1.266,0,0,1-.9-2.161L6.682,8.472.371,2.161A1.266,1.266,0,0,1,2.161.371L9.367,7.577a1.266,1.266,0,0,1,0,1.79L2.161,16.574a1.264,1.264,0,0,1-.9.371" transform="translate(952.5 1688.167) rotate(90)" fill="#144567"/>
    </g>
    <g id="Grupo_160600" data-name="Grupo 160600" transform="translate(1501.917 6443.35) rotate(180)">
      <g id="Grupo_160582-2" data-name="Grupo 160582" transform="translate(932 1634)">
        <g id="Grupo_160578-2" data-name="Grupo 160578" transform="translate(23.916 54.166) rotate(90)">
          <g id="Grupo_160577-2" data-name="Grupo 160577" transform="translate(0 0)" clip-path="url(#clip-path-2)">
            <path id="Trazado_600822-2" data-name="Trazado 600822" d="M1.787,23.916A1.787,1.787,0,0,1,.523,20.866l8.908-8.908L.523,3.05A1.787,1.787,0,0,1,3.05.523L13.222,10.695a1.787,1.787,0,0,1,0,2.527L3.05,23.393a1.784,1.784,0,0,1-1.263.523" transform="translate(4.521 0)" fill="#636363"/>
          </g>
        </g>
        <rect id="Rectángulo_46641-2" data-name="Rectángulo 46641" width="61.683" height="3.417" rx="1.708" transform="translate(13.667) rotate(90)" fill="#636363"/>
      </g>
      <path id="Trazado_600829-2" data-name="Trazado 600829" d="M1.266,16.944a1.266,1.266,0,0,1-.9-2.161L6.682,8.472.371,2.161A1.266,1.266,0,0,1,2.161.371L9.367,7.577a1.266,1.266,0,0,1,0,1.79L2.161,16.574a1.264,1.264,0,0,1-.9.371" transform="translate(952.5 1688.167) rotate(90)" fill="#636363"/>
    </g>
    <g id="Grupo_160598" data-name="Grupo 160598" transform="translate(2493.854 3914.083) rotate(90)">
      <g id="Grupo_160582-3" data-name="Grupo 160582" transform="translate(932 1634)">
        <g id="Grupo_160578-3" data-name="Grupo 160578" transform="translate(23.916 104.02) rotate(90)">
          <g id="Grupo_160577-3" data-name="Grupo 160577" transform="translate(0 0)" clip-path="url(#clip-path-3)">
            <path id="Trazado_600822-3" data-name="Trazado 600822" d="M1.787,23.916A1.787,1.787,0,0,1,.523,20.866l8.908-8.908L.523,3.05A1.787,1.787,0,0,1,3.05.523L13.222,10.695a1.787,1.787,0,0,1,0,2.527L3.05,23.393a1.784,1.784,0,0,1-1.263.523" transform="translate(4.521 0)" fill="#395e56"/>
          </g>
        </g>
        <rect id="Rectángulo_46641-3" data-name="Rectángulo 46641" width="111.537" height="3.417" rx="1.708" transform="translate(13.667) rotate(90)" fill="#395e56"/>
      </g>
      <path id="Trazado_600829-3" data-name="Trazado 600829" d="M1.266,16.944a1.266,1.266,0,0,1-.9-2.161L6.682,8.472.371,2.161A1.266,1.266,0,0,1,2.161.371L9.367,7.577a1.266,1.266,0,0,1,0,1.79L2.161,16.574a1.264,1.264,0,0,1-.9.371" transform="translate(952.5 1738.02) rotate(90)" fill="#395e56"/>
    </g>
    <g id="Grupo_160599" data-name="Grupo 160599" transform="translate(-896.433 5627.917) rotate(-90)">
      <g id="Grupo_160582-4" data-name="Grupo 160582" transform="translate(932 1634)">
        <g id="Grupo_160578-4" data-name="Grupo 160578" transform="translate(23.916 104.02) rotate(90)">
          <g id="Grupo_160577-4" data-name="Grupo 160577" transform="translate(0 0)" clip-path="url(#clip-path-4)">
            <path id="Trazado_600822-4" data-name="Trazado 600822" d="M1.787,23.916A1.787,1.787,0,0,1,.523,20.866l8.908-8.908L.523,3.05A1.787,1.787,0,0,1,3.05.523L13.222,10.695a1.787,1.787,0,0,1,0,2.527L3.05,23.393a1.784,1.784,0,0,1-1.263.523" transform="translate(4.521 0)" fill="#833343"/>
          </g>
        </g>
        <rect id="Rectángulo_46641-4" data-name="Rectángulo 46641" width="111.537" height="3.417" rx="1.708" transform="translate(13.667) rotate(90)" fill="#833343"/>
      </g>
      <path id="Trazado_600829-4" data-name="Trazado 600829" d="M1.266,16.944a1.266,1.266,0,0,1-.9-2.161L6.682,8.472.371,2.161A1.266,1.266,0,0,1,2.161.371L9.367,7.577a1.266,1.266,0,0,1,0,1.79L2.161,16.574a1.264,1.264,0,0,1-.9.371" transform="translate(952.5 1738.02) rotate(90)" fill="#833343"/>
    </g>
    <g id="Grupo_160607" data-name="Grupo 160607" transform="translate(753.44 4726.596)">
      <g id="Grupo_160606" data-name="Grupo 160606" clip-path="url(#clip-path-5)">
        <path id="Trazado_600848" data-name="Trazado 600848" d="M25.421,21.648A33.217,33.217,0,0,1,44.8,13.986a25.909,25.909,0,0,0-.041-2.9c-.032-.283-.518-.566-.85-.754a5.518,5.518,0,0,1-2.714-6.214,5.528,5.528,0,0,1,10.682-.04,5.35,5.35,0,0,1-2.677,6.2,1.436,1.436,0,0,0-.916,1.61c.057.651.012,1.311.012,2.09a33.03,33.03,0,0,1,19.425,7.734c1.743-1.615,3.468-3.211,5.189-4.81,1.936-1.8,3.84-3.632,5.819-5.383a1.643,1.643,0,0,0,.582-1.948,5.374,5.374,0,0,1,2.758-6.156,5.524,5.524,0,0,1,7.03,8.142,5.875,5.875,0,0,1-6.36,1.981,1.427,1.427,0,0,0-1.165.142c-3.717,3.405-7.4,6.853-11.082,10.292a1.089,1.089,0,0,0-.129.226,33.084,33.084,0,0,1,8.984,20.6,20.506,20.506,0,0,0,2.592-.038c.293-.038.6-.478.781-.8a5.443,5.443,0,0,1,5.471-2.876,5.288,5.288,0,0,1,4.648,3.794,5.481,5.481,0,0,1-2.895,6.651A5.319,5.319,0,0,1,83.017,49.5a2.073,2.073,0,0,0-2.377-1.228,10.344,10.344,0,0,1-1.265.008A33.229,33.229,0,0,1,70.569,69.2c.467.382.921.7,1.315,1.081q5.1,4.93,10.173,9.888a1.4,1.4,0,0,0,1.539.435A5.414,5.414,0,0,1,89.7,83.3a5.5,5.5,0,1,1-9.9.628,2.472,2.472,0,0,0-.019-1.081c-.013-.107-.186-.2-.286-.292L68.184,71.57c-.974.736-1.891,1.475-2.853,2.147A31.773,31.773,0,0,1,49.257,79.5c-.781.059-.966.325-.987,1.069a2.272,2.272,0,0,0,1.276,2.47A5.178,5.178,0,0,1,51.808,89.2a5.487,5.487,0,0,1-5.446,3.88,5.5,5.5,0,0,1-2.63-10.233c.37-.222.942-.449,1.009-.762a6.43,6.43,0,0,0,0-2.172c-.022-.162-.535-.348-.834-.373a32.563,32.563,0,0,1-16.766-6.255c-.7-.509-1.37-1.062-2.116-1.643-.211.183-.418.348-.607.531-3.468,3.367-6.923,6.746-10.411,10.092a1.223,1.223,0,0,0-.363,1.43c.617,2.249-.387,6.355-3.31,7.128A5.607,5.607,0,0,1,3.474,87.6,5.3,5.3,0,0,1,4.5,81.866a5.365,5.365,0,0,1,5.506-1.631,1.518,1.518,0,0,0,1.179-.15c3.7-3.529,7.353-7.1,11.017-10.664a2.358,2.358,0,0,0,.22-.32,33.033,33.033,0,0,1-8.7-20.817,20.018,20.018,0,0,0-2.6.04c-.29.039-.58.5-.766.833a5.52,5.52,0,0,1-6.005,2.781,5.6,5.6,0,0,1-4.32-4.791,5.54,5.54,0,0,1,3.368-5.691A5.37,5.37,0,0,1,10.231,43.8c.426.782.864,1.148,1.755,1.02a11.068,11.068,0,0,1,1.6-.014c.424-2.231.767-4.381,1.257-6.5a31.621,31.621,0,0,1,1.266-3.852c.474-1.274,1.38-1.767,2.39-1.4,1.028.374,1.379,1.423.876,2.7a28.238,28.238,0,0,0,.13,22.327C24.137,68.708,32.374,74.85,43.952,75.958a29.286,29.286,0,0,0,7.732-58.009A28.777,28.777,0,0,0,26.16,25.733a2,2,0,0,1-2.232.691,1.751,1.751,0,0,1-1.1-2.025c.027-.232-.226-.554-.432-.747q-5.407-5.061-10.853-10.08a1.64,1.64,0,0,0-1.078-.259c-.619.025-1.233.23-1.852.244a5.052,5.052,0,0,1-5.523-5.3,5.494,5.494,0,1,1,10.981.278,1.556,1.556,0,0,1-.065.618c-.7,1.323.12,2.035,1,2.841,3.466,3.162,6.885,6.376,10.409,9.652M3.522,46.555a1.975,1.975,0,0,0,1.955,2,2.022,2.022,0,0,0,.074-4.043,1.985,1.985,0,0,0-2.03,2.038m86.05.018a1.978,1.978,0,0,0-2.006-2.056,2.022,2.022,0,0,0,.038,4.044,1.97,1.97,0,0,0,1.968-1.988M48.561,5.547a2.017,2.017,0,0,0-4.032-.07,2.016,2.016,0,0,0,4.032.07M8.49,10.308a2.047,2.047,0,0,0,2.13-1.956A2.1,2.1,0,0,0,8.687,6.287,2.087,2.087,0,0,0,6.559,8.259a2.047,2.047,0,0,0,1.931,2.05m.144,77.28a2.094,2.094,0,0,0,1.983-2.014,2.129,2.129,0,0,0-2.072-2.04,2.027,2.027,0,0,0,.089,4.054m37.872,1.964a1.967,1.967,0,0,0,2.055-2,2.017,2.017,0,0,0-4.033.026,1.967,1.967,0,0,0,1.978,1.973M82.629,8.262a2,2,0,1,0,4,.084,2,2,0,1,0-4-.084m.219,77.7a2,2,0,1,0,1.961-2.042,2.057,2.057,0,0,0-1.961,2.042" transform="translate(0 0)" fill="#144567"/>
        <path id="Trazado_600849" data-name="Trazado 600849" d="M115.835,136.049V115.113l-3.532,1.972c-1.334.746-2.65,1.525-4.008,2.224a1.309,1.309,0,0,0-.815,1.368c.038,3.65.019,7.3.018,10.951,0,2.05-.527,2.567-2.613,2.572-.762,0-1.524,0-2.542,0,.567.783,1.009,1.411,1.469,2.024a4.51,4.51,0,0,1,.9,3.829,4.38,4.38,0,0,1-3.419,3.55,4.476,4.476,0,0,1-4.914-1.72c-1.681-2.257-3.3-4.56-4.921-6.862a2,2,0,0,0-1.491-.947,4.719,4.719,0,0,1-4.179-4.389c-.129-2.7-.145-5.425-.006-8.128a4.9,4.9,0,0,1,5.148-4.571c4.277-.02,8.554-.029,12.83.011a5.352,5.352,0,0,0,2.853-.735c3.188-1.84,6.411-3.619,9.625-5.415,1.949-1.089,3.177-.378,3.177,1.838q0,12.881,0,25.761c0,2.278-1.222,2.98-3.233,1.859-2.427-1.353-4.864-2.688-7.262-4.09a2.264,2.264,0,0,1-1.111-1.25,2.478,2.478,0,0,1,.529-1.755,1.524,1.524,0,0,1,2.012-.176c1.461.8,2.911,1.624,4.369,2.434.327.182.665.345,1.119.579M103.926,120.5c-4.453,0-8.8-.015-13.138.011-1.064.006-1.563.6-1.575,1.784-.021,2.12-.014,4.24,0,6.36.007,1.55.5,2.034,2.086,2.037q5.162.01,10.324,0h2.309Zm-8.664,13.814c1.348,1.883,2.6,3.662,3.887,5.415a1.1,1.1,0,0,0,1.722.248,1.075,1.075,0,0,0,.132-1.651,24.274,24.274,0,0,1-1.983-2.664c-.843-1.548-2.1-1.674-3.758-1.349" transform="translate(-61.803 -79.595)" fill="#144567"/>
        <path id="Trazado_600850" data-name="Trazado 600850" d="M218.884,105.249a5.531,5.531,0,0,1,1.276,1.265,1.443,1.443,0,0,1-.516,1.941c-2.529,1.573-5.079,3.113-7.661,4.6a1.718,1.718,0,0,1-1.739-2.929c2.524-1.579,5.091-3.091,7.65-4.614a4.841,4.841,0,0,1,.99-.259" transform="translate(-151.165 -75.919)" fill="#144567"/>
        <path id="Trazado_600851" data-name="Trazado 600851" d="M220.292,202.824c-.027,1.758-1.413,2.508-2.713,1.781-1.364-.762-2.688-1.595-4.027-2.4-1.012-.608-2.034-1.2-3.027-1.838a1.744,1.744,0,1,1,1.745-3.018c2.4,1.4,4.785,2.825,7.13,4.313a3.674,3.674,0,0,1,.892,1.161" transform="translate(-151.175 -142.151)" fill="#144567"/>
        <path id="Trazado_600852" data-name="Trazado 600852" d="M215.25,161.221c-1.147,0-2.3.023-3.441-.006a1.777,1.777,0,0,1-1.948-1.728,1.741,1.741,0,0,1,1.93-1.73q3.493-.028,6.987,0a1.731,1.731,0,1,1,.018,3.45c-1.181.034-2.364.008-3.545.008v.006" transform="translate(-151.378 -113.783)" fill="#144567"/>
      </g>
    </g>
  </g>
</svg>
