<svg xmlns="http://www.w3.org/2000/svg" xmlns:xlink="http://www.w3.org/1999/xlink" width="1030" height="494.691" viewBox="0 0 1030 494.691">
  <defs>
    <linearGradient id="linear-gradient" x1="0.506" y1="1.027" x2="0.5" gradientUnits="objectBoundingBox">
      <stop offset="0" stop-color="#def8f3"/>
      <stop offset="1" stop-color="#fff"/>
    </linearGradient>
    <linearGradient id="linear-gradient-2" x1="0.506" y1="1.027" x2="0.5" gradientUnits="objectBoundingBox">
      <stop offset="0" stop-color="#def8f3"/>
      <stop offset="0.414" stop-color="#e4f9f5"/>
      <stop offset="1" stop-color="#edfbf8"/>
    </linearGradient>
    <clipPath id="clip-path">
      <path id="Trazado_600868" data-name="Trazado 600868" d="M17,0h996c9.389,0,17,9.3,17,20.765V473.926c0,11.468-7.611,20.765-17,20.765H17c-9.389,0-17-9.3-17-20.765V20.765C0,9.3,7.611,0,17,0Z" fill="url(#linear-gradient)"/>
    </clipPath>
    <clipPath id="clip-path-2">
      <rect id="Rectángulo_46730" data-name="Rectángulo 46730" width="101.611" height="101.596" fill="#144567"/>
    </clipPath>
    <clipPath id="clip-path-3">
      <rect id="Rectángulo_46732" data-name="Rectángulo 46732" width="53.861" height="93.201" fill="#144567"/>
    </clipPath>
    <clipPath id="clip-path-4">
      <rect id="Rectángulo_47285" data-name="Rectángulo 47285" width="192.875" height="197.379" fill="none"/>
    </clipPath>
    <clipPath id="clip-path-5">
      <rect id="Rectángulo_46733" data-name="Rectángulo 46733" width="91.34" height="91.44" fill="#144567"/>
    </clipPath>
    <clipPath id="clip-path-6">
      <rect id="Rectángulo_47288" data-name="Rectángulo 47288" width="67.309" height="96" fill="#144567"/>
    </clipPath>
    <clipPath id="clip-path-7">
      <rect id="Rectángulo_47289" data-name="Rectángulo 47289" width="67.027" height="64.41" fill="#144567"/>
    </clipPath>
  </defs>
  <g id="Grupo_161386" data-name="Grupo 161386" transform="translate(-285 -8202)">
    <g id="Grupo_160628" data-name="Grupo 160628" transform="translate(0 2231)">
      <path id="Trazado_600867" data-name="Trazado 600867" d="M17,0h996c9.389,0,17,9.3,17,20.765V473.926c0,11.468-7.611,20.765-17,20.765H17c-9.389,0-17-9.3-17-20.765V20.765C0,9.3,7.611,0,17,0Z" transform="translate(285 5971)" fill="url(#linear-gradient-2)"/>
      <g id="Enmascarar_grupo_67" data-name="Enmascarar grupo 67" transform="translate(285 5971)" clip-path="url(#clip-path)">
        <path id="Trazado_113530" data-name="Trazado 113530" d="M1842.37,0V22.458h-7.909V50.777h-21.969V84.952h-13.184v85.926L1773.827,199.2V245.58h-15.38V200.665l-44.379-49.312V94.717h-20.209V82.024h-31.639v9.764h-19.332V202.129h-22.849V164.046h-15.818l-27.243,30.268v37.108h-16.7V68.352l-52.729,58.587h-21.968V104.481h-14.059v23.436h-24.607v64.444h-18.454v-53.7h-28.121V167.95h-36.03v13.672h-15.818v13.672h-23.726v44.915h-14.062V124.989l-87.878-16.6v12.7h-10.545V290.009h-16.7V193.34h-16.7v44.919h-13.181v61.515h-13.184V201.151H1116.5v-9.764H1077.94v47.722l-21.2-23.554h-34.934l-19.551,21.725V117.174H961.83v89.834H947.987v60.787l-18.232,20.261V206.522l-24.167-26.854L880.1,207.986v98.623H858.134V253.88H833.527v39.058H822.1V223.612H811.119v39.547L783.434,232.4V203.1h14.94v-8.543H697.534l-20.872,23.19v32.711L652.5,223.612H630.527V210.429H594.057l-10.983,12.2v34.179H569.893V207.986l-29.88-33.2V52.73H446.862V254.855H432.8V233.373L420.5,219.7V202.129H411.71v15.622H401.6V173.322l-17.136-19.04V124.989H362.5v27.34H351.075V125.964H338.331v27.829l-19.769,21.972H303.619v16.6h-8.787v111.32H277.256V198.222l-12.3-13.668V113.271h-8.786v71.283L246.5,195.293v104.48H218.377V110.342L197.287,86.9V41.987H133.135V80.07h-21.09v29.293h-29v127.43H73.16V181.865L47.453,210.429h-14.5V337.856H10.545V226.54H0V414.473H2045.81V153.3H1994.4V277.316h-21.091V237.28l-34.271,38.083V237.28h-21.093V88.859h-49.209v-66.4h-17.579V0Z" transform="translate(-445 118.481)" fill="#91e8d6" opacity="0.15"/>
        <path id="Trazado_600882" data-name="Trazado 600882" d="M108.758,0,22.983,27.521,0,130.232l62.791,75.191L148.565,177.9,171.55,75.188Z" transform="translate(543.45 280.886)" fill="#fff" opacity="0.41"/>
        <path id="Trazado_600883" data-name="Trazado 600883" d="M100.788,0,21.3,25.5,0,120.689,58.19,190.37l79.489-25.5,21.3-95.186Z" transform="translate(277.021 135.348)" fill="#fff" opacity="0.41"/>
      </g>
    </g>
    <path id="Rectángulo_46682" data-name="Rectángulo 46682" d="M0,0H400a0,0,0,0,1,0,0V29a26,26,0,0,1-26,26H23A23,23,0,0,1,0,32V0A0,0,0,0,1,0,0Z" transform="translate(600 8202)" fill="#91e8d6"/>
    <path id="Trazado_603509" data-name="Trazado 603509" d="M5.528,10.654a5.151,5.151,0,0,1-.257,1.786,3.47,3.47,0,0,1-.917,1.3,9.675,9.675,0,0,0-.9.914,2.384,2.384,0,0,0-.357.607,1.833,1.833,0,0,0-.12.674,1.142,1.142,0,0,0,1.278,1.305,1.381,1.381,0,0,0,1.017-.374,1.464,1.464,0,0,0,.394-1.048h2.4A3.2,3.2,0,0,1,7.047,18.3,3.987,3.987,0,0,1,4.3,19.2a4.081,4.081,0,0,1-2.748-.843,3,3,0,0,1-.979-2.405,3.7,3.7,0,0,1,1.27-2.592l.805-.773a2.129,2.129,0,0,0,.577-.781A3.424,3.424,0,0,0,3.4,10.654Zm.3-2.536a1.189,1.189,0,0,1-.382.91,1.357,1.357,0,0,1-.963.356,1.357,1.357,0,0,1-.963-.356,1.189,1.189,0,0,1-.382-.91,1.208,1.208,0,0,1,.369-.91,1.347,1.347,0,0,1,.975-.356,1.347,1.347,0,0,1,.975.356A1.208,1.208,0,0,1,5.827,8.118Zm13.622,2.113a7.282,7.282,0,0,1-.548,2.943,5.052,5.052,0,0,1-1.519,2l2.009,1.577-1.585,1.4-2.573-2.067a5.447,5.447,0,0,1-.913.075,5.028,5.028,0,0,1-2.681-.722,4.8,4.8,0,0,1-1.826-2.063A7.087,7.087,0,0,1,9.156,10.3V9.7A7.258,7.258,0,0,1,9.8,6.558a4.79,4.79,0,0,1,1.818-2.083A5,5,0,0,1,14.3,3.748a5,5,0,0,1,2.685.726,4.79,4.79,0,0,1,1.818,2.083,7.237,7.237,0,0,1,.643,3.134Zm-2.523-.548a5.086,5.086,0,0,0-.681-2.889A2.218,2.218,0,0,0,14.3,5.807a2.219,2.219,0,0,0-1.934.975,5.028,5.028,0,0,0-.689,2.86v.589A5.15,5.15,0,0,0,12.36,13.1a2.212,2.212,0,0,0,1.959,1.021,2.192,2.192,0,0,0,1.926-.984,5.12,5.12,0,0,0,.681-2.868Zm9.571,5.4a3.008,3.008,0,0,1-2.457,1.079,2.837,2.837,0,0,1-2.2-.83,3.543,3.543,0,0,1-.776-2.432V7.019h2.4v5.809q0,1.4,1.278,1.4a1.732,1.732,0,0,0,1.677-.848V7.019H28.82V16H26.563Zm8.268,1.079a4.409,4.409,0,0,1-3.217-1.212,4.308,4.308,0,0,1-1.241-3.229v-.232a5.426,5.426,0,0,1,.523-2.42,3.838,3.838,0,0,1,1.482-1.644A4.159,4.159,0,0,1,34.5,6.853a3.727,3.727,0,0,1,2.9,1.162,4.722,4.722,0,0,1,1.058,3.3v.979H32.738a2.229,2.229,0,0,0,.7,1.411,2.12,2.12,0,0,0,1.482.531,2.589,2.589,0,0,0,2.167-1l1.179,1.32a3.6,3.6,0,0,1-1.461,1.191A4.793,4.793,0,0,1,34.764,16.166ZM34.49,8.787a1.5,1.5,0,0,0-1.158.484,2.5,2.5,0,0,0-.569,1.384H36.1v-.192a1.786,1.786,0,0,0-.432-1.238A1.547,1.547,0,0,0,34.49,8.787Zm.216-5.537H37.32l-2.3,2.573H33.07ZM46.924,4.811V7.019H48.46v1.76H46.924v4.482a1.07,1.07,0,0,0,.191.714.959.959,0,0,0,.73.216,3.826,3.826,0,0,0,.706-.058V15.95a4.939,4.939,0,0,1-1.453.216,2.29,2.29,0,0,1-2.573-2.548V8.778H43.214V7.019h1.312V4.811ZM53.93,16.166a4.409,4.409,0,0,1-3.217-1.212,4.308,4.308,0,0,1-1.241-3.229v-.232A5.426,5.426,0,0,1,50,9.073a3.838,3.838,0,0,1,1.482-1.644,4.159,4.159,0,0,1,2.187-.577,3.727,3.727,0,0,1,2.9,1.162,4.722,4.722,0,0,1,1.058,3.3v.979H51.9a2.229,2.229,0,0,0,.7,1.411,2.12,2.12,0,0,0,1.482.531,2.589,2.589,0,0,0,2.167-1l1.179,1.32a3.6,3.6,0,0,1-1.461,1.191A4.793,4.793,0,0,1,53.93,16.166Zm-.274-7.379A1.5,1.5,0,0,0,52.5,9.27a2.5,2.5,0,0,0-.569,1.384h3.337v-.192a1.786,1.786,0,0,0-.432-1.238A1.547,1.547,0,0,0,53.656,8.787Zm.216-5.537h2.615l-2.3,2.573H52.237Zm8.849,10.982a1.573,1.573,0,0,0,1.079-.365,1.28,1.28,0,0,0,.432-.971h2.25a3.077,3.077,0,0,1-.5,1.673,3.286,3.286,0,0,1-1.341,1.179,4.2,4.2,0,0,1-1.88.419,3.9,3.9,0,0,1-3.038-1.224,4.845,4.845,0,0,1-1.112-3.383V11.4a4.79,4.79,0,0,1,1.1-3.312,3.854,3.854,0,0,1,3.03-1.237,3.778,3.778,0,0,1,2.7.959,3.4,3.4,0,0,1,1.033,2.552h-2.25A1.648,1.648,0,0,0,63.8,9.225a1.6,1.6,0,0,0-2.362.173,3.541,3.541,0,0,0-.427,1.983v.249a3.586,3.586,0,0,0,.423,2A1.463,1.463,0,0,0,62.721,14.232Zm7.338-7.213.075,1.038a3.136,3.136,0,0,1,2.582-1.2,2.606,2.606,0,0,1,2.125.838,3.912,3.912,0,0,1,.714,2.507V16h-2.4V10.256a1.556,1.556,0,0,0-.332-1.108,1.486,1.486,0,0,0-1.1-.344,1.65,1.65,0,0,0-1.519.863V16H67.8V7.019ZM79.9,16H77.5V7.019H79.9ZM77.355,4.694a1.181,1.181,0,0,1,.361-.888,1.556,1.556,0,0,1,1.963,0,1.175,1.175,0,0,1,.365.888,1.178,1.178,0,0,1-.369.9,1.539,1.539,0,0,1-1.951,0A1.178,1.178,0,0,1,77.355,4.694Zm8.259,9.538a1.573,1.573,0,0,0,1.079-.365,1.28,1.28,0,0,0,.432-.971h2.25a3.077,3.077,0,0,1-.5,1.673,3.286,3.286,0,0,1-1.341,1.179,4.2,4.2,0,0,1-1.88.419,3.9,3.9,0,0,1-3.038-1.224,4.845,4.845,0,0,1-1.112-3.383V11.4a4.79,4.79,0,0,1,1.1-3.312,3.854,3.854,0,0,1,3.03-1.237,3.778,3.778,0,0,1,2.7.959,3.4,3.4,0,0,1,1.033,2.552h-2.25a1.648,1.648,0,0,0-.432-1.139,1.6,1.6,0,0,0-2.362.173A3.541,3.541,0,0,0,83.9,11.38v.249a3.586,3.586,0,0,0,.423,2A1.463,1.463,0,0,0,85.614,14.232ZM95.949,16a2.664,2.664,0,0,1-.241-.805,2.9,2.9,0,0,1-2.266.971,3.189,3.189,0,0,1-2.187-.764,2.456,2.456,0,0,1-.867-1.926,2.538,2.538,0,0,1,1.058-2.191,5.222,5.222,0,0,1,3.059-.772h1.1V10a1.48,1.48,0,0,0-.32-1,1.257,1.257,0,0,0-1.009-.374,1.429,1.429,0,0,0-.95.291.987.987,0,0,0-.344.8h-2.4a2.41,2.41,0,0,1,.481-1.444A3.182,3.182,0,0,1,92.429,7.23,4.961,4.961,0,0,1,94.4,6.853a3.92,3.92,0,0,1,2.635.834,2.918,2.918,0,0,1,.975,2.345v3.893a4.294,4.294,0,0,0,.357,1.934V16Zm-1.984-1.668a2.066,2.066,0,0,0,.979-.237,1.554,1.554,0,0,0,.664-.635V11.916h-.9q-1.8,0-1.917,1.245l-.008.141a.96.96,0,0,0,.315.739A1.225,1.225,0,0,0,93.965,14.332Zm10.758-.813a.773.773,0,0,0-.436-.693,4.95,4.95,0,0,0-1.4-.452q-3.2-.672-3.2-2.723a2.468,2.468,0,0,1,.992-2,4,4,0,0,1,2.594-.8,4.307,4.307,0,0,1,2.735.805A2.538,2.538,0,0,1,107.03,9.75h-2.4A1.161,1.161,0,0,0,104.3,8.9a1.405,1.405,0,0,0-1.038-.336,1.436,1.436,0,0,0-.938.274.865.865,0,0,0-.332.7.739.739,0,0,0,.378.643,3.885,3.885,0,0,0,1.274.423,10.407,10.407,0,0,1,1.511.4,2.482,2.482,0,0,1,1.9,2.416A2.343,2.343,0,0,1,106,15.406a4.548,4.548,0,0,1-2.723.76,4.75,4.75,0,0,1-2-.4,3.363,3.363,0,0,1-1.374-1.1,2.565,2.565,0,0,1-.5-1.515h2.274a1.252,1.252,0,0,0,.473.979,1.877,1.877,0,0,0,1.179.34,1.737,1.737,0,0,0,1.042-.261A.814.814,0,0,0,104.723,13.518Zm7.736-2.075A5.413,5.413,0,0,1,113.4,8.1a3.057,3.057,0,0,1,2.577-1.245,2.751,2.751,0,0,1,2.167.979V3.25h2.407V16h-2.167l-.116-.955a2.823,2.823,0,0,1-2.308,1.121,3.049,3.049,0,0,1-2.544-1.249A5.587,5.587,0,0,1,112.459,11.443Zm2.4.179a3.546,3.546,0,0,0,.44,1.937,1.433,1.433,0,0,0,1.278.673,1.605,1.605,0,0,0,1.569-.939V9.743a1.582,1.582,0,0,0-1.552-.939Q114.858,8.8,114.858,11.621Zm11.688,4.545a4.409,4.409,0,0,1-3.217-1.212,4.308,4.308,0,0,1-1.241-3.229v-.232a5.426,5.426,0,0,1,.523-2.42,3.838,3.838,0,0,1,1.482-1.644,4.159,4.159,0,0,1,2.187-.577,3.727,3.727,0,0,1,2.9,1.162,4.722,4.722,0,0,1,1.058,3.3v.979H124.52a2.229,2.229,0,0,0,.7,1.411,2.12,2.12,0,0,0,1.482.531,2.589,2.589,0,0,0,2.167-1l1.179,1.32a3.6,3.6,0,0,1-1.461,1.191A4.793,4.793,0,0,1,126.545,16.166Zm-.274-7.379a1.5,1.5,0,0,0-1.158.484,2.5,2.5,0,0,0-.569,1.384h3.337v-.192a1.786,1.786,0,0,0-.432-1.238A1.547,1.547,0,0,0,126.271,8.787ZM139.2,13.07l1.668-6.051h2.507L140.341,16H138.05l-3.03-8.981h2.507Zm9.255,3.1a4.409,4.409,0,0,1-3.217-1.212,4.308,4.308,0,0,1-1.241-3.229v-.232a5.426,5.426,0,0,1,.523-2.42A3.838,3.838,0,0,1,146,7.429a4.159,4.159,0,0,1,2.187-.577,3.727,3.727,0,0,1,2.9,1.162,4.722,4.722,0,0,1,1.058,3.3v.979h-5.719a2.228,2.228,0,0,0,.7,1.411,2.12,2.12,0,0,0,1.482.531,2.589,2.589,0,0,0,2.167-1l1.179,1.32a3.6,3.6,0,0,1-1.461,1.191A4.793,4.793,0,0,1,148.451,16.166Zm-.274-7.379a1.5,1.5,0,0,0-1.158.484,2.5,2.5,0,0,0-.569,1.384h3.337v-.192a1.786,1.786,0,0,0-.432-1.238A1.547,1.547,0,0,0,148.177,8.787Zm7.537-1.768.075,1.038a3.136,3.136,0,0,1,2.582-1.2,2.606,2.606,0,0,1,2.125.838,3.912,3.912,0,0,1,.714,2.507V16h-2.4V10.256a1.556,1.556,0,0,0-.332-1.108,1.486,1.486,0,0,0-1.1-.344,1.65,1.65,0,0,0-1.519.863V16h-2.4V7.019ZM165.9,4.811V7.019h1.536v1.76H165.9v4.482a1.07,1.07,0,0,0,.191.714.959.959,0,0,0,.73.216,3.826,3.826,0,0,0,.706-.058V15.95a4.939,4.939,0,0,1-1.453.216,2.29,2.29,0,0,1-2.573-2.548V8.778h-1.312V7.019H163.5V4.811ZM173.976,16a2.664,2.664,0,0,1-.241-.805,2.9,2.9,0,0,1-2.266.971,3.189,3.189,0,0,1-2.187-.764,2.456,2.456,0,0,1-.867-1.926,2.538,2.538,0,0,1,1.058-2.191,5.222,5.222,0,0,1,3.059-.772h1.1V10a1.48,1.48,0,0,0-.32-1,1.257,1.257,0,0,0-1.009-.374,1.429,1.429,0,0,0-.95.291.987.987,0,0,0-.344.8h-2.4a2.41,2.41,0,0,1,.481-1.444,3.182,3.182,0,0,1,1.361-1.042,4.961,4.961,0,0,1,1.976-.378,3.92,3.92,0,0,1,2.635.834,2.918,2.918,0,0,1,.975,2.345v3.893a4.294,4.294,0,0,0,.357,1.934V16Zm-1.984-1.668a2.066,2.066,0,0,0,.979-.237,1.554,1.554,0,0,0,.664-.635V11.916h-.9q-1.8,0-1.917,1.245l-.008.141a.96.96,0,0,0,.315.739A1.225,1.225,0,0,0,171.992,14.332Zm14.991-.813a.773.773,0,0,0-.436-.693,4.95,4.95,0,0,0-1.4-.452q-3.2-.672-3.2-2.723a2.468,2.468,0,0,1,.992-2,4,4,0,0,1,2.594-.8,4.307,4.307,0,0,1,2.735.805,2.538,2.538,0,0,1,1.025,2.092h-2.4a1.161,1.161,0,0,0-.332-.851,1.405,1.405,0,0,0-1.038-.336,1.436,1.436,0,0,0-.938.274.865.865,0,0,0-.332.7.739.739,0,0,0,.378.643,3.885,3.885,0,0,0,1.274.423,10.407,10.407,0,0,1,1.511.4,2.482,2.482,0,0,1,1.9,2.416,2.343,2.343,0,0,1-1.054,1.988,4.548,4.548,0,0,1-2.723.76,4.75,4.75,0,0,1-2-.4,3.363,3.363,0,0,1-1.374-1.1,2.565,2.565,0,0,1-.5-1.515h2.274a1.252,1.252,0,0,0,.473.979,1.877,1.877,0,0,0,1.179.34,1.737,1.737,0,0,0,1.042-.261A.814.814,0,0,0,186.983,13.518Zm8.01,2.648a4.409,4.409,0,0,1-3.217-1.212,4.308,4.308,0,0,1-1.241-3.229v-.232a5.426,5.426,0,0,1,.523-2.42,3.838,3.838,0,0,1,1.482-1.644,4.159,4.159,0,0,1,2.187-.577,3.727,3.727,0,0,1,2.9,1.162,4.722,4.722,0,0,1,1.058,3.3v.979h-5.719a2.228,2.228,0,0,0,.7,1.411,2.12,2.12,0,0,0,1.482.531,2.589,2.589,0,0,0,2.167-1l1.179,1.32a3.6,3.6,0,0,1-1.461,1.191A4.793,4.793,0,0,1,194.994,16.166Zm-.274-7.379a1.5,1.5,0,0,0-1.158.484,2.5,2.5,0,0,0-.569,1.384h3.337v-.192a1.786,1.786,0,0,0-.432-1.238A1.547,1.547,0,0,0,194.72,8.787Zm17.647,2.806a5.387,5.387,0,0,1-.942,3.324,3.021,3.021,0,0,1-2.544,1.249,2.8,2.8,0,0,1-2.2-.946v4.233h-2.4V7.019h2.225l.083.88a2.819,2.819,0,0,1,2.274-1.046,3.041,3.041,0,0,1,2.582,1.229,5.532,5.532,0,0,1,.921,3.387Zm-2.4-.174a3.535,3.535,0,0,0-.444-1.934,1.446,1.446,0,0,0-1.291-.681,1.571,1.571,0,0,0-1.552.863v3.677a1.6,1.6,0,0,0,1.569.888Q209.968,14.232,209.968,11.418Zm9.264,3.669a3.008,3.008,0,0,1-2.457,1.079,2.837,2.837,0,0,1-2.2-.83,3.543,3.543,0,0,1-.776-2.432V7.019h2.4v5.809q0,1.4,1.278,1.4a1.732,1.732,0,0,0,1.677-.848V7.019h2.407V16H219.3Zm8.268,1.079a4.409,4.409,0,0,1-3.217-1.212,4.308,4.308,0,0,1-1.241-3.229v-.232a5.426,5.426,0,0,1,.523-2.42,3.838,3.838,0,0,1,1.482-1.644,4.159,4.159,0,0,1,2.187-.577,3.727,3.727,0,0,1,2.9,1.162,4.722,4.722,0,0,1,1.058,3.3v.979h-5.719a2.228,2.228,0,0,0,.7,1.411,2.12,2.12,0,0,0,1.482.531,2.589,2.589,0,0,0,2.167-1L231,14.547a3.6,3.6,0,0,1-1.461,1.191A4.793,4.793,0,0,1,227.5,16.166Zm-.274-7.379a1.5,1.5,0,0,0-1.158.484,2.5,2.5,0,0,0-.569,1.384h3.337v-.192a1.786,1.786,0,0,0-.432-1.238A1.547,1.547,0,0,0,227.226,8.787Zm4.956,2.656a5.413,5.413,0,0,1,.942-3.345A3.057,3.057,0,0,1,235.7,6.853a2.751,2.751,0,0,1,2.167.979V3.25h2.407V16h-2.167l-.116-.955a2.823,2.823,0,0,1-2.308,1.121,3.049,3.049,0,0,1-2.544-1.249A5.587,5.587,0,0,1,232.181,11.443Zm2.4.179a3.546,3.546,0,0,0,.44,1.937,1.433,1.433,0,0,0,1.278.673,1.605,1.605,0,0,0,1.569-.939V9.743a1.582,1.582,0,0,0-1.552-.939Q234.58,8.8,234.58,11.621Zm11.688,4.545a4.409,4.409,0,0,1-3.217-1.212,4.308,4.308,0,0,1-1.241-3.229v-.232a5.426,5.426,0,0,1,.523-2.42,3.838,3.838,0,0,1,1.482-1.644A4.159,4.159,0,0,1,246,6.853a3.727,3.727,0,0,1,2.9,1.162,4.722,4.722,0,0,1,1.058,3.3v.979h-5.719a2.228,2.228,0,0,0,.7,1.411,2.12,2.12,0,0,0,1.482.531,2.589,2.589,0,0,0,2.167-1l1.179,1.32a3.6,3.6,0,0,1-1.461,1.191A4.793,4.793,0,0,1,246.268,16.166Zm-.274-7.379a1.5,1.5,0,0,0-1.158.484,2.5,2.5,0,0,0-.569,1.384H247.6v-.192a1.786,1.786,0,0,0-.432-1.238A1.547,1.547,0,0,0,245.994,8.787Zm7.537-1.768.075,1.038a3.136,3.136,0,0,1,2.582-1.2,2.606,2.606,0,0,1,2.125.838,3.912,3.912,0,0,1,.714,2.507V16h-2.4V10.256a1.556,1.556,0,0,0-.332-1.108,1.486,1.486,0,0,0-1.1-.344,1.65,1.65,0,0,0-1.519.863V16h-2.4V7.019Zm16.925,8.068A3.008,3.008,0,0,1,268,16.166a2.837,2.837,0,0,1-2.2-.83,3.544,3.544,0,0,1-.776-2.432V7.019h2.4v5.809q0,1.4,1.278,1.4a1.732,1.732,0,0,0,1.677-.848V7.019h2.407V16h-2.258Zm9-1.569a.773.773,0,0,0-.436-.693,4.95,4.95,0,0,0-1.4-.452q-3.2-.672-3.2-2.723a2.468,2.468,0,0,1,.992-2,4,4,0,0,1,2.594-.8,4.307,4.307,0,0,1,2.735.805,2.537,2.537,0,0,1,1.025,2.092h-2.4a1.161,1.161,0,0,0-.332-.851,1.405,1.405,0,0,0-1.038-.336,1.436,1.436,0,0,0-.938.274.865.865,0,0,0-.332.7.739.739,0,0,0,.378.643,3.885,3.885,0,0,0,1.274.423,10.407,10.407,0,0,1,1.511.4,2.482,2.482,0,0,1,1.9,2.416,2.343,2.343,0,0,1-1.054,1.988,4.548,4.548,0,0,1-2.723.76,4.75,4.75,0,0,1-2-.4,3.363,3.363,0,0,1-1.374-1.1,2.565,2.565,0,0,1-.5-1.515h2.274a1.252,1.252,0,0,0,.473.979,1.877,1.877,0,0,0,1.179.34A1.737,1.737,0,0,0,279.1,14.2.814.814,0,0,0,279.454,13.518ZM288.535,16a2.664,2.664,0,0,1-.241-.805,2.9,2.9,0,0,1-2.266.971,3.189,3.189,0,0,1-2.187-.764,2.456,2.456,0,0,1-.867-1.926,2.538,2.538,0,0,1,1.058-2.191,5.222,5.222,0,0,1,3.059-.772h1.1V10a1.48,1.48,0,0,0-.32-1,1.257,1.257,0,0,0-1.009-.374,1.429,1.429,0,0,0-.95.291.987.987,0,0,0-.344.8h-2.4a2.41,2.41,0,0,1,.481-1.444,3.182,3.182,0,0,1,1.361-1.042,4.961,4.961,0,0,1,1.976-.378,3.92,3.92,0,0,1,2.635.834,2.918,2.918,0,0,1,.975,2.345v3.893a4.294,4.294,0,0,0,.357,1.934V16Zm-1.984-1.668a2.066,2.066,0,0,0,.979-.237,1.554,1.554,0,0,0,.664-.635V11.916h-.9q-1.8,0-1.917,1.245l-.008.141a.96.96,0,0,0,.315.739A1.225,1.225,0,0,0,286.551,14.332Zm10.94-5.063a6.517,6.517,0,0,0-.863-.066,1.757,1.757,0,0,0-1.785.921V16h-2.4V7.019h2.266l.066,1.071a2.223,2.223,0,0,1,2-1.237,2.514,2.514,0,0,1,.747.108ZM300.6,12.3a4.994,4.994,0,0,1,.282-1.853,3.8,3.8,0,0,1,1.033-1.358,5.284,5.284,0,0,0,1-1.089,1.709,1.709,0,0,0,.249-.886q0-1.405-1.295-1.405a1.312,1.312,0,0,0-.984.379A1.488,1.488,0,0,0,300.5,7.13H298.1a3.2,3.2,0,0,1,1.025-2.484,4.735,4.735,0,0,1,5.483-.046,3.03,3.03,0,0,1,.971,2.405,2.928,2.928,0,0,1-.315,1.334,5.494,5.494,0,0,1-1.1,1.392l-.672.64a2.279,2.279,0,0,0-.722,1.421l-.033.507Zm-.241,2.544a1.208,1.208,0,0,1,.378-.914,1.479,1.479,0,0,1,1.934,0,1.29,1.29,0,0,1,.008,1.816,1.515,1.515,0,0,1-1.951,0A1.2,1.2,0,0,1,300.364,14.842Z" transform="translate(641 8219)" fill="#12263f"/>
    <rect id="Rectángulo_46685" data-name="Rectángulo 46685" width="610" height="4" transform="translate(495 8202)" fill="#66b9a8"/>
    <rect id="Rectángulo_46713" data-name="Rectángulo 46713" width="170" height="53" transform="translate(495 8275)" fill="#fff"/>
    <rect id="Rectángulo_47286" data-name="Rectángulo 47286" width="170" height="53" transform="translate(935 8275)" fill="#fff"/>
    <rect id="Rectángulo_47287" data-name="Rectángulo 47287" width="170" height="53" transform="translate(955 8423)" fill="#fff"/>
    <rect id="Rectángulo_47283" data-name="Rectángulo 47283" width="170" height="53" transform="translate(475 8423)" fill="#fff"/>
    <rect id="Rectángulo_46722" data-name="Rectángulo 46722" width="190" height="65" transform="translate(705 8553)" fill="#fff"/>
    <path id="Trazado_603506" data-name="Trazado 603506" d="M7.994,13.186H3.312L2.333,16H.149L4.715,3.914H6.6L11.173,16H8.981ZM3.9,11.493H7.4L5.653,6.479ZM14.493,16H12.476V7.019h2.017ZM12.352,4.686a1.071,1.071,0,0,1,.295-.772,1.113,1.113,0,0,1,.843-.307,1.127,1.127,0,0,1,.847.307,1.062,1.062,0,0,1,.3.772,1.038,1.038,0,0,1-.3.76,1.136,1.136,0,0,1-.847.3,1.122,1.122,0,0,1-.843-.3A1.046,1.046,0,0,1,12.352,4.686Zm3.959,6.757a5.34,5.34,0,0,1,.963-3.333,3.085,3.085,0,0,1,2.582-1.258,2.931,2.931,0,0,1,2.308,1V3.25H24.18V16H22.354l-.1-.93a2.973,2.973,0,0,1-2.416,1.1,3.068,3.068,0,0,1-2.552-1.27A5.535,5.535,0,0,1,16.311,11.443Zm2.017.174a3.739,3.739,0,0,0,.527,2.137,1.71,1.71,0,0,0,1.5.768,1.9,1.9,0,0,0,1.81-1.1V9.583A1.876,1.876,0,0,0,20.37,8.5a1.723,1.723,0,0,0-1.511.776A4.163,4.163,0,0,0,18.328,11.617ZM31.651,16a3.113,3.113,0,0,1-.232-.838,3.393,3.393,0,0,1-4.565.232A2.47,2.47,0,0,1,26,13.485a2.55,2.55,0,0,1,1.067-2.2,5.169,5.169,0,0,1,3.051-.768h1.237V9.924a1.573,1.573,0,0,0-.39-1.116,1.547,1.547,0,0,0-1.187-.419,1.777,1.777,0,0,0-1.129.344,1.066,1.066,0,0,0-.44.876H26.189a2.239,2.239,0,0,1,.49-1.382,3.263,3.263,0,0,1,1.332-1.009,4.68,4.68,0,0,1,1.88-.365,3.769,3.769,0,0,1,2.515.793,2.827,2.827,0,0,1,.963,2.229v4.051a4.591,4.591,0,0,0,.34,1.934V16Zm-2.216-1.453a2.294,2.294,0,0,0,1.125-.291,1.941,1.941,0,0,0,.793-.78V11.783H30.265a2.973,2.973,0,0,0-1.685.39,1.264,1.264,0,0,0-.564,1.1,1.179,1.179,0,0,0,.386.926A1.5,1.5,0,0,0,29.435,14.547Z" transform="translate(558 8292)" fill="#12263f"/>
    <path id="Trazado_603508" data-name="Trazado 603508" d="M7.545,12.887a1.459,1.459,0,0,0-.56-1.229,6.741,6.741,0,0,0-2.021-.872A9.76,9.76,0,0,1,2.64,9.808,3.1,3.1,0,0,1,.988,7.1,2.945,2.945,0,0,1,2.179,4.694a4.821,4.821,0,0,1,3.092-.946,5.223,5.223,0,0,1,2.25.465A3.692,3.692,0,0,1,9.073,5.537a3.4,3.4,0,0,1,.564,1.905H7.545A1.894,1.894,0,0,0,6.952,5.96a2.45,2.45,0,0,0-1.7-.535,2.558,2.558,0,0,0-1.6.44,1.465,1.465,0,0,0-.569,1.229A1.325,1.325,0,0,0,3.7,8.2a7.076,7.076,0,0,0,2.025.863,9.317,9.317,0,0,1,2.266.955,3.6,3.6,0,0,1,1.253,1.229,3.2,3.2,0,0,1,.4,1.623,2.876,2.876,0,0,1-1.158,2.4,5.023,5.023,0,0,1-3.142.892,5.9,5.9,0,0,1-2.411-.486,4.051,4.051,0,0,1-1.71-1.341,3.341,3.341,0,0,1-.61-1.992h2.1A1.955,1.955,0,0,0,3.4,13.941a2.981,2.981,0,0,0,1.951.564,2.59,2.59,0,0,0,1.648-.444A1.433,1.433,0,0,0,7.545,12.887ZM19.158,11.6a5.348,5.348,0,0,1-.946,3.324,3.031,3.031,0,0,1-2.54,1.241,3.051,3.051,0,0,1-2.366-.971v4.258H11.289V7.019h1.859l.083.913a2.963,2.963,0,0,1,2.416-1.079,3.062,3.062,0,0,1,2.577,1.224,5.49,5.49,0,0,1,.934,3.4Zm-2.009-.174a3.746,3.746,0,0,0-.535-2.133A1.741,1.741,0,0,0,15.083,8.5a1.856,1.856,0,0,0-1.776,1.021V13.51A1.873,1.873,0,0,0,15.1,14.556a1.739,1.739,0,0,0,1.507-.776A4.124,4.124,0,0,0,17.149,11.426ZM23.01,16H20.993V7.019H23.01ZM20.868,4.686a1.071,1.071,0,0,1,.295-.772,1.113,1.113,0,0,1,.843-.307,1.127,1.127,0,0,1,.847.307,1.062,1.062,0,0,1,.3.772,1.038,1.038,0,0,1-.3.76,1.136,1.136,0,0,1-.847.3,1.122,1.122,0,0,1-.843-.3A1.046,1.046,0,0,1,20.868,4.686Zm6.209,2.333.058,1.038a3.229,3.229,0,0,1,2.615-1.2q2.806,0,2.855,3.212V16H30.588V10.181a1.85,1.85,0,0,0-.369-1.266A1.554,1.554,0,0,0,29.011,8.5a1.944,1.944,0,0,0-1.818,1.1V16H25.176V7.019Z" transform="translate(539 8440)" fill="#12263f"/>
    <path id="Trazado_603510" data-name="Trazado 603510" d="M7.994,13.186H3.312L2.333,16H.149L4.715,3.914H6.6L11.173,16H8.981ZM3.9,11.493H7.4L5.653,6.479ZM14.493,16H12.476V7.019h2.017ZM12.352,4.686a1.071,1.071,0,0,1,.295-.772,1.113,1.113,0,0,1,.843-.307,1.127,1.127,0,0,1,.847.307,1.062,1.062,0,0,1,.3.772,1.038,1.038,0,0,1-.3.76,1.136,1.136,0,0,1-.847.3,1.122,1.122,0,0,1-.843-.3A1.046,1.046,0,0,1,12.352,4.686Zm3.959,6.757a5.34,5.34,0,0,1,.963-3.333,3.085,3.085,0,0,1,2.582-1.258,2.931,2.931,0,0,1,2.308,1V3.25H24.18V16H22.354l-.1-.93a2.973,2.973,0,0,1-2.416,1.1,3.068,3.068,0,0,1-2.552-1.27A5.535,5.535,0,0,1,16.311,11.443Zm2.017.174a3.739,3.739,0,0,0,.527,2.137,1.71,1.71,0,0,0,1.5.768,1.9,1.9,0,0,0,1.81-1.1V9.583A1.876,1.876,0,0,0,20.37,8.5a1.723,1.723,0,0,0-1.511.776A4.163,4.163,0,0,0,18.328,11.617Zm7.579-.174A5.34,5.34,0,0,1,26.87,8.11a3.085,3.085,0,0,1,2.582-1.258,2.931,2.931,0,0,1,2.308,1V3.25h2.017V16H31.95l-.1-.93a2.973,2.973,0,0,1-2.416,1.1,3.068,3.068,0,0,1-2.552-1.27A5.535,5.535,0,0,1,25.907,11.443Zm2.017.174a3.739,3.739,0,0,0,.527,2.137,1.71,1.71,0,0,0,1.5.768,1.9,1.9,0,0,0,1.81-1.1V9.583A1.876,1.876,0,0,0,29.966,8.5a1.723,1.723,0,0,0-1.511.776A4.163,4.163,0,0,0,27.924,11.617ZM41.247,16a3.113,3.113,0,0,1-.232-.838,3.393,3.393,0,0,1-4.565.232,2.47,2.47,0,0,1-.855-1.909,2.55,2.55,0,0,1,1.067-2.2,5.169,5.169,0,0,1,3.051-.768h1.237V9.924a1.573,1.573,0,0,0-.39-1.116,1.547,1.547,0,0,0-1.187-.419,1.777,1.777,0,0,0-1.129.344,1.066,1.066,0,0,0-.44.876H35.785a2.239,2.239,0,0,1,.49-1.382,3.263,3.263,0,0,1,1.332-1.009,4.68,4.68,0,0,1,1.88-.365A3.769,3.769,0,0,1,42,7.645a2.827,2.827,0,0,1,.963,2.229v4.051a4.591,4.591,0,0,0,.34,1.934V16ZM39.03,14.547a2.294,2.294,0,0,0,1.125-.291,1.941,1.941,0,0,0,.793-.78V11.783H39.86a2.973,2.973,0,0,0-1.685.39,1.264,1.264,0,0,0-.564,1.1A1.179,1.179,0,0,0,38,14.2,1.5,1.5,0,0,0,39.03,14.547Z" transform="translate(1002 8292)" fill="#12263f"/>
    <path id="Trazado_603511" data-name="Trazado 603511" d="M7.994,13.186H3.312L2.333,16H.149L4.715,3.914H6.6L11.173,16H8.981ZM3.9,11.493H7.4L5.653,6.479ZM14.493,16H12.476V7.019h2.017ZM12.352,4.686a1.071,1.071,0,0,1,.295-.772,1.113,1.113,0,0,1,.843-.307,1.127,1.127,0,0,1,.847.307,1.062,1.062,0,0,1,.3.772,1.038,1.038,0,0,1-.3.76,1.136,1.136,0,0,1-.847.3,1.122,1.122,0,0,1-.843-.3A1.046,1.046,0,0,1,12.352,4.686Zm8.027,9.87a1.824,1.824,0,0,0,1.253-.44,1.5,1.5,0,0,0,.531-1.087h1.9a2.963,2.963,0,0,1-.523,1.565,3.43,3.43,0,0,1-1.328,1.15,3.958,3.958,0,0,1-1.81.423,3.829,3.829,0,0,1-2.988-1.22,4.84,4.84,0,0,1-1.1-3.37v-.208a4.759,4.759,0,0,1,1.1-3.283A3.8,3.8,0,0,1,20.4,6.853a3.69,3.69,0,0,1,2.611.934,3.345,3.345,0,0,1,1.058,2.453h-1.9a1.847,1.847,0,0,0-.527-1.27,1.7,1.7,0,0,0-1.258-.5,1.775,1.775,0,0,0-1.511.71,3.621,3.621,0,0,0-.54,2.154v.324a3.682,3.682,0,0,0,.527,2.179A1.773,1.773,0,0,0,20.378,14.556Zm4.831-3.113a5.34,5.34,0,0,1,.963-3.333,3.085,3.085,0,0,1,2.582-1.258,2.931,2.931,0,0,1,2.308,1V3.25h2.017V16H31.252l-.1-.93a2.973,2.973,0,0,1-2.416,1.1,3.068,3.068,0,0,1-2.552-1.27A5.535,5.535,0,0,1,25.209,11.443Zm2.017.174a3.739,3.739,0,0,0,.527,2.137,1.71,1.71,0,0,0,1.5.768,1.9,1.9,0,0,0,1.81-1.1V9.583A1.876,1.876,0,0,0,29.269,8.5a1.723,1.723,0,0,0-1.511.776A4.163,4.163,0,0,0,27.227,11.617Zm11.646,2.938a1.824,1.824,0,0,0,1.253-.44,1.5,1.5,0,0,0,.531-1.087h1.9a2.963,2.963,0,0,1-.523,1.565,3.43,3.43,0,0,1-1.328,1.15,3.958,3.958,0,0,1-1.81.423,3.829,3.829,0,0,1-2.988-1.22,4.84,4.84,0,0,1-1.1-3.37v-.208a4.759,4.759,0,0,1,1.1-3.283,3.8,3.8,0,0,1,2.988-1.233,3.69,3.69,0,0,1,2.611.934,3.345,3.345,0,0,1,1.058,2.453h-1.9a1.847,1.847,0,0,0-.527-1.27,1.7,1.7,0,0,0-1.258-.5,1.775,1.775,0,0,0-1.511.71,3.621,3.621,0,0,0-.54,2.154v.324a3.682,3.682,0,0,0,.527,2.179A1.773,1.773,0,0,0,38.873,14.556Z" transform="translate(1016 8440)" fill="#12263f"/>
    <path id="Trazado_603514" data-name="Trazado 603514" d="M7.545,12.887a1.459,1.459,0,0,0-.56-1.229,6.741,6.741,0,0,0-2.021-.872A9.76,9.76,0,0,1,2.64,9.808,3.1,3.1,0,0,1,.988,7.1,2.945,2.945,0,0,1,2.179,4.694a4.821,4.821,0,0,1,3.092-.946,5.223,5.223,0,0,1,2.25.465A3.692,3.692,0,0,1,9.073,5.537a3.4,3.4,0,0,1,.564,1.905H7.545A1.894,1.894,0,0,0,6.952,5.96a2.45,2.45,0,0,0-1.7-.535,2.558,2.558,0,0,0-1.6.44,1.465,1.465,0,0,0-.569,1.229A1.325,1.325,0,0,0,3.7,8.2a7.076,7.076,0,0,0,2.025.863,9.317,9.317,0,0,1,2.266.955,3.6,3.6,0,0,1,1.253,1.229,3.2,3.2,0,0,1,.4,1.623,2.876,2.876,0,0,1-1.158,2.4,5.023,5.023,0,0,1-3.142.892,5.9,5.9,0,0,1-2.411-.486,4.051,4.051,0,0,1-1.71-1.341,3.341,3.341,0,0,1-.61-1.992h2.1A1.955,1.955,0,0,0,3.4,13.941a2.981,2.981,0,0,0,1.951.564,2.59,2.59,0,0,0,1.648-.444A1.433,1.433,0,0,0,7.545,12.887ZM19.158,11.6a5.348,5.348,0,0,1-.946,3.324,3.031,3.031,0,0,1-2.54,1.241,3.051,3.051,0,0,1-2.366-.971v4.258H11.289V7.019h1.859l.083.913a2.963,2.963,0,0,1,2.416-1.079,3.062,3.062,0,0,1,2.577,1.224,5.49,5.49,0,0,1,.934,3.4Zm-2.009-.174a3.746,3.746,0,0,0-.535-2.133A1.741,1.741,0,0,0,15.083,8.5a1.856,1.856,0,0,0-1.776,1.021V13.51A1.873,1.873,0,0,0,15.1,14.556a1.739,1.739,0,0,0,1.507-.776A4.124,4.124,0,0,0,17.149,11.426ZM23.01,16H20.993V7.019H23.01ZM20.868,4.686a1.071,1.071,0,0,1,.295-.772,1.113,1.113,0,0,1,.843-.307,1.127,1.127,0,0,1,.847.307,1.062,1.062,0,0,1,.3.772,1.038,1.038,0,0,1-.3.76,1.136,1.136,0,0,1-.847.3,1.122,1.122,0,0,1-.843-.3A1.046,1.046,0,0,1,20.868,4.686Zm9.04,4.175a4.991,4.991,0,0,0-.822-.066,1.85,1.85,0,0,0-1.868,1.063V16H25.2V7.019h1.926l.05,1A2.273,2.273,0,0,1,29.2,6.853a1.888,1.888,0,0,1,.714.116Zm4.217-4.026V7.019H35.71V8.513H34.125v5.014a1.1,1.1,0,0,0,.2.743.943.943,0,0,0,.726.228,3.107,3.107,0,0,0,.706-.083v1.561a4.968,4.968,0,0,1-1.328.191q-2.324,0-2.324-2.565V8.513H30.63V7.019h1.478V4.835Z" transform="translate(779 8564)" fill="#12263f"/>
    <rect id="Rectángulo_46725" data-name="Rectángulo 46725" width="91" height="30" transform="translate(334 8328)" fill="#144567"/>
    <rect id="Rectángulo_46726" data-name="Rectángulo 46726" width="91" height="30" transform="translate(1174 8328)" fill="#144567"/>
    <rect id="Rectángulo_46728" data-name="Rectángulo 46728" width="91" height="30" transform="translate(955 8519)" fill="#144567"/>
    <rect id="Rectángulo_46729" data-name="Rectángulo 46729" width="91" height="30" transform="translate(544 8519)" fill="#144567"/>
    <path id="Trazado_603507" data-name="Trazado 603507" d="M8.077,12.837H3.013L1.876,16H.232L4.848,3.914H6.242L10.866,16H9.23Zm-4.582-1.3H7.6L5.545,5.881Zm12.36,3.378a2.212,2.212,0,0,0,1.436-.5,1.752,1.752,0,0,0,.681-1.245h1.453a2.785,2.785,0,0,1-.531,1.469,3.5,3.5,0,0,1-1.307,1.112,3.772,3.772,0,0,1-1.731.415,3.7,3.7,0,0,1-2.918-1.224,4.877,4.877,0,0,1-1.083-3.349v-.257A5.407,5.407,0,0,1,12.335,9a3.667,3.667,0,0,1,1.382-1.585,3.926,3.926,0,0,1,2.129-.564,3.6,3.6,0,0,1,2.511.9,3.234,3.234,0,0,1,1.067,2.349H17.971a2.116,2.116,0,0,0-.66-1.432,2.053,2.053,0,0,0-1.465-.56,2.149,2.149,0,0,0-1.814.843,3.957,3.957,0,0,0-.643,2.436v.291a3.878,3.878,0,0,0,.639,2.391A2.16,2.16,0,0,0,15.854,14.913Zm8.9,0a2.212,2.212,0,0,0,1.436-.5,1.752,1.752,0,0,0,.681-1.245h1.453a2.785,2.785,0,0,1-.531,1.469,3.5,3.5,0,0,1-1.307,1.112,3.772,3.772,0,0,1-1.731.415,3.7,3.7,0,0,1-2.918-1.224,4.877,4.877,0,0,1-1.083-3.349v-.257A5.407,5.407,0,0,1,21.233,9a3.667,3.667,0,0,1,1.382-1.585,3.926,3.926,0,0,1,2.129-.564,3.6,3.6,0,0,1,2.511.9,3.234,3.234,0,0,1,1.067,2.349H26.87a2.116,2.116,0,0,0-.66-1.432,2.053,2.053,0,0,0-1.465-.56,2.149,2.149,0,0,0-1.814.843,3.957,3.957,0,0,0-.643,2.436v.291a3.878,3.878,0,0,0,.639,2.391A2.16,2.16,0,0,0,24.753,14.913ZM31.717,16H30.182V7.019h1.536ZM30.057,4.636a.917.917,0,0,1,.228-.631.857.857,0,0,1,.677-.257.87.87,0,0,1,.681.257.907.907,0,0,1,.232.631.877.877,0,0,1-.232.623.886.886,0,0,1-.681.249.872.872,0,0,1-.677-.249A.886.886,0,0,1,30.057,4.636Zm3.71,6.79a5.3,5.3,0,0,1,.519-2.374,3.87,3.87,0,0,1,1.444-1.627,3.932,3.932,0,0,1,2.113-.573,3.788,3.788,0,0,1,2.968,1.27A4.886,4.886,0,0,1,41.944,11.5v.108a5.351,5.351,0,0,1-.5,2.353,3.813,3.813,0,0,1-1.436,1.623,3.977,3.977,0,0,1-2.146.581A3.778,3.778,0,0,1,34.9,14.9a4.861,4.861,0,0,1-1.133-3.362Zm1.544.183a3.842,3.842,0,0,0,.693,2.4A2.349,2.349,0,0,0,39.719,14a4.2,4.2,0,0,0,.689-2.569,3.836,3.836,0,0,0-.7-2.395,2.23,2.23,0,0,0-1.864-.917,2.205,2.205,0,0,0-1.834.9A4.17,4.17,0,0,0,35.312,11.609ZM38.541,3.25H40.4L38.175,5.69l-1.237,0Zm6.782,3.769.05,1.129a3.273,3.273,0,0,1,2.689-1.295q2.847,0,2.872,3.212V16H49.4V10.057a2.068,2.068,0,0,0-.444-1.436A1.78,1.78,0,0,0,47.6,8.156a2.216,2.216,0,0,0-1.312.4,2.706,2.706,0,0,0-.88,1.046V16H43.87V7.019Z" transform="translate(352 8333)" fill="#fff"/>
    <path id="Trazado_603512" data-name="Trazado 603512" d="M8.077,12.837H3.013L1.876,16H.232L4.848,3.914H6.242L10.866,16H9.23Zm-4.582-1.3H7.6L5.545,5.881Zm10.7-6.69V7.019h1.677V8.206H14.194v5.577a1.247,1.247,0,0,0,.224.81.943.943,0,0,0,.764.27,3.718,3.718,0,0,0,.73-.1V16a4.478,4.478,0,0,1-1.179.165,1.912,1.912,0,0,1-1.552-.623,2.675,2.675,0,0,1-.523-1.768V8.206H11.023V7.019h1.635V4.844Zm7.2,11.322a3.924,3.924,0,0,1-2.972-1.2,4.452,4.452,0,0,1-1.146-3.208v-.282a5.39,5.39,0,0,1,.51-2.386,3.982,3.982,0,0,1,1.428-1.644A3.59,3.59,0,0,1,21.2,6.853a3.364,3.364,0,0,1,2.723,1.154,5,5,0,0,1,.971,3.3v.639H18.81a3.193,3.193,0,0,0,.776,2.146,2.44,2.44,0,0,0,1.888.818,2.675,2.675,0,0,0,1.378-.332,3.462,3.462,0,0,0,.988-.88l.938.73A3.772,3.772,0,0,1,21.391,16.166ZM21.2,8.114a2.048,2.048,0,0,0-1.561.677,3.288,3.288,0,0,0-.78,1.9h4.5v-.116a2.925,2.925,0,0,0-.631-1.814A1.928,1.928,0,0,0,21.2,8.114Zm6.923-1.1.05,1.129a3.273,3.273,0,0,1,2.689-1.295q2.847,0,2.872,3.212V16H32.2V10.057a2.068,2.068,0,0,0-.444-1.436A1.78,1.78,0,0,0,30.4,8.156a2.216,2.216,0,0,0-1.312.4,2.706,2.706,0,0,0-.88,1.046V16H26.67V7.019Zm11.53,7.894a2.212,2.212,0,0,0,1.436-.5,1.752,1.752,0,0,0,.681-1.245h1.453a2.785,2.785,0,0,1-.531,1.469,3.5,3.5,0,0,1-1.307,1.112,3.772,3.772,0,0,1-1.731.415,3.7,3.7,0,0,1-2.918-1.224,4.877,4.877,0,0,1-1.083-3.349v-.257A5.407,5.407,0,0,1,36.133,9a3.667,3.667,0,0,1,1.382-1.585,3.926,3.926,0,0,1,2.129-.564,3.6,3.6,0,0,1,2.511.9,3.234,3.234,0,0,1,1.067,2.349H41.77a2.116,2.116,0,0,0-.66-1.432,2.053,2.053,0,0,0-1.465-.56,2.149,2.149,0,0,0-1.814.843,3.957,3.957,0,0,0-.643,2.436v.291a3.878,3.878,0,0,0,.639,2.391A2.16,2.16,0,0,0,39.653,14.913ZM46.617,16H45.082V7.019h1.536ZM44.957,4.636a.917.917,0,0,1,.228-.631.857.857,0,0,1,.677-.257.87.87,0,0,1,.681.257.907.907,0,0,1,.232.631.877.877,0,0,1-.232.623.886.886,0,0,1-.681.249.872.872,0,0,1-.677-.249A.886.886,0,0,1,44.957,4.636Zm3.71,6.79a5.3,5.3,0,0,1,.519-2.374,3.87,3.87,0,0,1,1.444-1.627,3.932,3.932,0,0,1,2.113-.573,3.788,3.788,0,0,1,2.968,1.27A4.886,4.886,0,0,1,56.844,11.5v.108a5.351,5.351,0,0,1-.5,2.353,3.813,3.813,0,0,1-1.436,1.623,3.977,3.977,0,0,1-2.146.581A3.778,3.778,0,0,1,49.8,14.9a4.861,4.861,0,0,1-1.133-3.362Zm1.544.183a3.842,3.842,0,0,0,.693,2.4A2.349,2.349,0,0,0,54.619,14a4.2,4.2,0,0,0,.689-2.569,3.836,3.836,0,0,0-.7-2.395,2.23,2.23,0,0,0-1.864-.917,2.205,2.205,0,0,0-1.834.9A4.17,4.17,0,0,0,50.211,11.609ZM53.44,3.25H55.3L53.075,5.69l-1.237,0Zm6.782,3.769.05,1.129a3.273,3.273,0,0,1,2.689-1.295q2.847,0,2.872,3.212V16H64.3V10.057a2.068,2.068,0,0,0-.444-1.436A1.78,1.78,0,0,0,62.5,8.156a2.216,2.216,0,0,0-1.312.4,2.706,2.706,0,0,0-.88,1.046V16H58.77V7.019Z" transform="translate(1186 8333)" fill="#fff"/>
    <path id="Trazado_603513" data-name="Trazado 603513" d="M3.113,16H1.519V3.914H3.113ZM7.238,7.019l.05,1.129A3.273,3.273,0,0,1,9.978,6.853q2.847,0,2.872,3.212V16H11.314V10.057a2.068,2.068,0,0,0-.444-1.436,1.78,1.78,0,0,0-1.357-.465,2.216,2.216,0,0,0-1.312.4A2.706,2.706,0,0,0,7.321,9.6V16H5.786V7.019ZM17.249,4.844V7.019h1.677V8.206H17.249v5.577a1.247,1.247,0,0,0,.224.81.943.943,0,0,0,.764.27,3.718,3.718,0,0,0,.73-.1V16a4.478,4.478,0,0,1-1.179.165,1.912,1.912,0,0,1-1.552-.623,2.675,2.675,0,0,1-.523-1.768V8.206H14.078V7.019h1.635V4.844Zm7.2,11.322a3.924,3.924,0,0,1-2.972-1.2,4.452,4.452,0,0,1-1.146-3.208v-.282a5.39,5.39,0,0,1,.51-2.386,3.982,3.982,0,0,1,1.428-1.644,3.59,3.59,0,0,1,1.988-.594,3.364,3.364,0,0,1,2.723,1.154,5,5,0,0,1,.971,3.3v.639H21.864a3.193,3.193,0,0,0,.776,2.146,2.44,2.44,0,0,0,1.888.818,2.675,2.675,0,0,0,1.378-.332,3.462,3.462,0,0,0,.988-.88l.938.73A3.772,3.772,0,0,1,24.446,16.166Zm-.191-8.052a2.048,2.048,0,0,0-1.561.677,3.288,3.288,0,0,0-.78,1.9h4.5v-.116a2.925,2.925,0,0,0-.631-1.814A1.928,1.928,0,0,0,24.255,8.114Zm9.812.282a4.6,4.6,0,0,0-.755-.058,2.024,2.024,0,0,0-2.05,1.287V16H29.725V7.019h1.494l.025,1.038a2.391,2.391,0,0,1,2.142-1.2,1.569,1.569,0,0,1,.681.116Zm4.98,7.77a3.924,3.924,0,0,1-2.972-1.2,4.452,4.452,0,0,1-1.146-3.208v-.282a5.39,5.39,0,0,1,.51-2.386,3.982,3.982,0,0,1,1.428-1.644,3.59,3.59,0,0,1,1.988-.594,3.364,3.364,0,0,1,2.723,1.154,5,5,0,0,1,.971,3.3v.639H36.465a3.193,3.193,0,0,0,.776,2.146,2.44,2.44,0,0,0,1.888.818,2.675,2.675,0,0,0,1.378-.332,3.462,3.462,0,0,0,.988-.88l.938.73A3.772,3.772,0,0,1,39.047,16.166Zm-.191-8.052a2.048,2.048,0,0,0-1.561.677,3.288,3.288,0,0,0-.78,1.9h4.5v-.116a2.925,2.925,0,0,0-.631-1.814A1.928,1.928,0,0,0,38.856,8.114ZM39.6,3.25h1.859L39.238,5.69,38,5.686Zm9.953,10.368a1.13,1.13,0,0,0-.469-.967,4.514,4.514,0,0,0-1.635-.594,7.731,7.731,0,0,1-1.851-.6,2.633,2.633,0,0,1-1.013-.83,1.986,1.986,0,0,1-.328-1.146,2.33,2.33,0,0,1,.934-1.868,3.647,3.647,0,0,1,2.386-.764,3.753,3.753,0,0,1,2.478.789,2.5,2.5,0,0,1,.95,2.017H49.464a1.386,1.386,0,0,0-.535-1.087,2.006,2.006,0,0,0-1.349-.457,2.1,2.1,0,0,0-1.312.365,1.15,1.15,0,0,0-.473.955.932.932,0,0,0,.44.838,5.413,5.413,0,0,0,1.59.54,8.283,8.283,0,0,1,1.864.614,2.718,2.718,0,0,1,1.058.859,2.112,2.112,0,0,1,.344,1.224,2.3,2.3,0,0,1-.963,1.93,4.039,4.039,0,0,1-2.5.726,4.523,4.523,0,0,1-1.909-.382,3.105,3.105,0,0,1-1.3-1.067,2.571,2.571,0,0,1-.469-1.482h1.536a1.59,1.59,0,0,0,.618,1.224,2.4,2.4,0,0,0,1.523.452,2.476,2.476,0,0,0,1.4-.353A1.084,1.084,0,0,0,49.556,13.618Z" transform="translate(973 8524)" fill="#fff"/>
    <path id="Trazado_603515" data-name="Trazado 603515" d="M1.4,16V3.914H4.814a5.492,5.492,0,0,1,2.789.7A4.716,4.716,0,0,1,9.475,6.6a6.457,6.457,0,0,1,.668,2.955v.772a6.48,6.48,0,0,1-.66,3A4.642,4.642,0,0,1,7.6,15.294,5.842,5.842,0,0,1,4.748,16ZM3,5.217V14.7H4.673A3.648,3.648,0,0,0,7.541,13.55a4.737,4.737,0,0,0,1.025-3.265V9.579a4.812,4.812,0,0,0-.967-3.2A3.441,3.441,0,0,0,4.856,5.217ZM16.037,16.166a3.924,3.924,0,0,1-2.972-1.2,4.452,4.452,0,0,1-1.146-3.208v-.282a5.39,5.39,0,0,1,.51-2.386,3.982,3.982,0,0,1,1.428-1.644,3.59,3.59,0,0,1,1.988-.594,3.364,3.364,0,0,1,2.723,1.154,5,5,0,0,1,.971,3.3v.639H13.456a3.193,3.193,0,0,0,.776,2.146,2.44,2.44,0,0,0,1.888.818,2.675,2.675,0,0,0,1.378-.332,3.462,3.462,0,0,0,.988-.88l.938.73A3.772,3.772,0,0,1,16.037,16.166Zm-.191-8.052a2.048,2.048,0,0,0-1.561.677,3.288,3.288,0,0,0-.78,1.9H18v-.116a2.925,2.925,0,0,0-.631-1.814A1.928,1.928,0,0,0,15.846,8.114Zm10.7,5.5a1.131,1.131,0,0,0-.469-.967,4.514,4.514,0,0,0-1.635-.594,7.731,7.731,0,0,1-1.851-.6,2.633,2.633,0,0,1-1.013-.83,1.986,1.986,0,0,1-.328-1.146,2.33,2.33,0,0,1,.934-1.868,3.647,3.647,0,0,1,2.386-.764,3.753,3.753,0,0,1,2.478.789A2.5,2.5,0,0,1,28,9.658H26.455a1.386,1.386,0,0,0-.535-1.087,2.006,2.006,0,0,0-1.349-.457,2.1,2.1,0,0,0-1.312.365,1.15,1.15,0,0,0-.473.955.932.932,0,0,0,.44.838,5.413,5.413,0,0,0,1.59.54,8.283,8.283,0,0,1,1.864.614,2.718,2.718,0,0,1,1.058.859,2.112,2.112,0,0,1,.344,1.224,2.3,2.3,0,0,1-.963,1.93,4.039,4.039,0,0,1-2.5.726,4.523,4.523,0,0,1-1.909-.382,3.105,3.105,0,0,1-1.3-1.067,2.571,2.571,0,0,1-.469-1.482h1.536A1.59,1.59,0,0,0,23.1,14.46a2.4,2.4,0,0,0,1.523.452,2.476,2.476,0,0,0,1.4-.353A1.084,1.084,0,0,0,26.546,13.618Zm7.263,2.548a3.924,3.924,0,0,1-2.972-1.2,4.452,4.452,0,0,1-1.146-3.208v-.282A5.39,5.39,0,0,1,30.2,9.09,3.982,3.982,0,0,1,31.63,7.446a3.59,3.59,0,0,1,1.988-.594,3.364,3.364,0,0,1,2.723,1.154,5,5,0,0,1,.971,3.3v.639H31.228A3.193,3.193,0,0,0,32,14.095a2.44,2.44,0,0,0,1.888.818,2.675,2.675,0,0,0,1.378-.332,3.462,3.462,0,0,0,.988-.88l.938.73A3.772,3.772,0,0,1,33.809,16.166Zm-.191-8.052a2.048,2.048,0,0,0-1.561.677,3.288,3.288,0,0,0-.78,1.9h4.5v-.116a2.925,2.925,0,0,0-.631-1.814A1.928,1.928,0,0,0,33.618,8.114Zm5.063,3.312A5.3,5.3,0,0,1,39.2,9.052a3.87,3.87,0,0,1,1.444-1.627,3.932,3.932,0,0,1,2.113-.573,3.788,3.788,0,0,1,2.968,1.27A4.886,4.886,0,0,1,46.858,11.5v.108a5.351,5.351,0,0,1-.5,2.353,3.813,3.813,0,0,1-1.436,1.623,3.977,3.977,0,0,1-2.146.581,3.778,3.778,0,0,1-2.959-1.27,4.861,4.861,0,0,1-1.133-3.362Zm1.544.183a3.842,3.842,0,0,0,.693,2.4A2.349,2.349,0,0,0,44.633,14a4.2,4.2,0,0,0,.689-2.569,3.836,3.836,0,0,0-.7-2.395,2.23,2.23,0,0,0-1.864-.917,2.205,2.205,0,0,0-1.834.9A4.17,4.17,0,0,0,40.226,11.609Z" transform="translate(565 8524)" fill="#fff"/>
    <g id="Grupo_160660" data-name="Grupo 160660" transform="translate(538.694 8567)">
      <g id="Grupo_160659" data-name="Grupo 160659" clip-path="url(#clip-path-2)">
        <path id="Trazado_600893" data-name="Trazado 600893" d="M75.261,210.929a2.377,2.377,0,0,1-.937-2.241c.045-1.388-.005-2.778.016-4.166a8.027,8.027,0,0,1,5.748-7.916c3.69-1.25,7.389-2.473,11.083-3.712,2.15-.721,2.807-1.784,2.948-4.027.16-2.521-.241-4.51-2.334-6.411-2.957-2.686-4.179-6.426-4.256-10.461-.015-.793-.026-1.588-.008-2.381.025-1.085.081-2.1-.968-2.908a2.549,2.549,0,0,1-.667-1.791c-.046-2.51-.119-5.035.085-7.532a9.471,9.471,0,0,1,9.247-8.561c5.159-.068,10.32-.079,15.478,0a11.266,11.266,0,0,1,11.007,11.17c.021,2.05-.013,4.1.012,6.15a3.572,3.572,0,0,1-1.209,2.812,1.883,1.883,0,0,0-.408,1.1,52.13,52.13,0,0,1-.656,5.886,15.554,15.554,0,0,1-5.318,8.291,1.922,1.922,0,0,0-.588,1.218c-.078,1.219-.038,2.446-.025,3.669a3.5,3.5,0,0,0,2.754,3.737c3.757,1.25,7.519,2.487,11.266,3.765a7.987,7.987,0,0,1,5.684,7.953c.006,1.422-.042,2.846.017,4.265a2.1,2.1,0,0,1-1.01,2.088h-.992a2.1,2.1,0,0,1-1-2.093c.058-1.386.018-2.777.014-4.165a5.082,5.082,0,0,0-3.792-5.278c-2.94-.991-5.892-1.95-8.822-2.97a1.023,1.023,0,0,0-1.329.385,16.212,16.212,0,0,1-25.064-.04.95.95,0,0,0-1.246-.35c-2.963,1.023-5.945,1.991-8.916,2.991a5.08,5.08,0,0,0-3.755,5.115c-.024,1.487-.037,2.976.006,4.463a1.9,1.9,0,0,1-1.069,1.944Zm43.434-44.3c0-2.568.155-4.987-.035-7.379a8.106,8.106,0,0,0-7.633-7.432c-5.322-.109-10.648-.084-15.97-.012A6.367,6.367,0,0,0,89,157.261c-.244,2.487-.1,5.013-.124,7.521,0,.031.1.063.213.127.213-.161.452-.328.675-.514,2.058-1.713,4.12-3.422,6.166-5.148A1.649,1.649,0,0,1,98,158.891a62.186,62.186,0,0,0,11.076,5.256A1.479,1.479,0,0,1,110.1,166.1a1.511,1.511,0,0,1-2.044.825,4.132,4.132,0,0,1-.466-.167c-3.176-1.46-6.36-2.9-9.515-4.4a1.06,1.06,0,0,0-1.379.117c-1.908,1.634-3.864,3.212-5.774,4.843a1.359,1.359,0,0,0-.411.9c-.035,1.421-.046,2.845.016,4.264a13.306,13.306,0,0,0,12.633,12.444c7.877.253,13.93-5.725,13.947-13.775,0-1.767,0-1.767-1.67-2.111-1.2-.246-1.8-.949-1.6-1.852.213-.932.981-1.308,2.206-1.075.84.16,1.679.328,2.647.517m-4.844,28.426c-3.448-1.918-3.474-5.186-3.307-8.512-6.271,1.833-6.6,1.833-13.323.067-.162,1.584-.2,3.2-.522,4.761a5.974,5.974,0,0,1-2.931,3.706,13.206,13.206,0,0,0,20.083-.022" transform="translate(-54.621 -109.333)" fill="#144567"/>
        <path id="Trazado_600894" data-name="Trazado 600894" d="M0,119.09c.429-.4.836-.828,1.292-1.2q3.547-2.864,7.115-5.7c1.042-.832,1.539-.851,2.544-.051,2.534,2.015,5.049,4.055,7.589,6.061a2.188,2.188,0,0,1,.9,1.871c-.02,3.536,0,7.071-.011,10.606,0,1.449-.5,1.926-1.994,1.927-5.156,0-10.311-.015-15.466.017A2,2,0,0,1,0,131.591v-12.5m16.453,10.494c0-2.992.011-5.862-.018-8.731a1.211,1.211,0,0,0-.4-.818c-1.914-1.57-3.865-3.095-5.782-4.662a.727.727,0,0,0-1.107.018c-.881.747-1.8,1.449-2.7,2.174-1.129.912-2.694,1.619-3.26,2.8-.581,1.215-.2,2.9-.21,4.376-.015,1.606,0,3.212,0,4.84Z" transform="translate(0 -81.984)" fill="#144567"/>
        <path id="Trazado_600895" data-name="Trazado 600895" d="M284.183,104.582l3.539,5.423c.98,1.5.975,1.656-.069,3.069q-1.621,2.192-3.237,4.389c-.166.227-.308.472-.608.934,2.314-.621,4.374-1.172,6.432-1.728,1.5-.405,1.78-.311,2.669.934q1.584,2.219,3.167,4.44c.184.258.391.5.758.964.053-.606.1-.951.111-1.3.088-1.882.186-3.765.248-5.648a1.819,1.819,0,0,1,1.447-1.867c2.144-.647,4.276-1.336,6.694-2.1-.572-.245-.882-.391-1.2-.513-1.757-.672-3.505-1.373-5.28-2a1.9,1.9,0,0,1-1.4-2.1c.046-2.174.014-4.349.014-6.719-.293.267-.487.447-.684.623a1.407,1.407,0,0,1-1.975.105,1.452,1.452,0,0,1-.245-2.04,3.26,3.26,0,0,1,3.675-1.5A3.131,3.131,0,0,1,300.5,101.1c.016,1.719,0,3.439-.05,5.158a.884.884,0,0,0,.693,1.006c1.555.551,3.09,1.16,4.629,1.758a3.153,3.153,0,0,1-.161,6.111c-1.571.506-3.143,1.013-4.729,1.467a.922.922,0,0,0-.771,1.042c-.032,1.586-.126,3.171-.216,4.755-.1,1.805-.881,2.89-2.33,3.3s-2.589-.082-3.635-1.538c-.906-1.262-1.833-2.51-2.7-3.8a1.03,1.03,0,0,0-1.373-.515c-1.638.506-3.306.923-4.971,1.336a3.055,3.055,0,0,1-3.392-1.247,3,3,0,0,1,.07-3.613c.973-1.376,1.958-2.747,3.015-4.059a1.136,1.136,0,0,0,.018-1.627c-.916-1.294-1.761-2.638-2.617-3.974a3.07,3.07,0,0,1-.021-3.785,3.117,3.117,0,0,1,3.732-1.017q3.061.995,6.108,2.032c1.118.379,1.568,1.118,1.257,1.992-.323.908-1.064,1.2-2.21.822-1.976-.647-3.945-1.317-5.918-1.973-.149-.05-.31-.063-.748-.149" transform="translate(-206.461 -71.901)" fill="#144567"/>
        <path id="Trazado_600896" data-name="Trazado 600896" d="M101.711,8.465a17.1,17.1,0,0,1-2.1,6.855c-.974,1.907-2.141,3.716-3.235,5.561a1.7,1.7,0,0,1-1.809.945c-4.176-.606-8.26-1.529-11.9-3.788-2.813-1.745-4.461-4.171-4.194-7.638a7.469,7.469,0,0,1,8.206-6.7c.558.071,1,.16,1.429-.463A7.315,7.315,0,0,1,96.489.372c3.234,1.036,5.231,3.857,5.222,8.093m-2.984.343c.037-3.446-1.356-5.272-3.668-5.754a4.52,4.52,0,0,0-5,2.691C89.4,7.249,89,7.418,87.38,6.876a4.481,4.481,0,0,0-5.964,4.376,4.937,4.937,0,0,0,2.644,4.154,24.518,24.518,0,0,0,9.675,3.253,1.043,1.043,0,0,0,.825-.452,44.8,44.8,0,0,0,2.662-4.846,43.832,43.832,0,0,0,1.5-4.553" transform="translate(-57.647 -0.001)" fill="#144567"/>
        <path id="Trazado_600897" data-name="Trazado 600897" d="M232.116,18.285c-.8,1.587-1.54,3.019-2.225,4.479a.934.934,0,0,0,.128.839c2.01,2.087,2.813,4.442,1.356,7.115-1.519,2.786-4.016,3.761-7.1,3.351-1.315,1.9-1.818,2.213-2.71,1.7-.853-.491-.9-1.186-.218-2.781-.856-.965-1.743-1.844-2.482-2.833-.775-1.036-.646-1.991.169-2.506.792-.5,1.563-.189,2.3.853.39.553.862,1.049,1.429,1.73.926-1.831,1.7-3.5,2.6-5.089a2.074,2.074,0,0,0-.154-2.708,4.533,4.533,0,0,1-.4-5.542,5.161,5.161,0,0,1,5.331-2.691c.859.108.881-.477,1.153-.9a1.517,1.517,0,0,1,2.034-.656,1.5,1.5,0,0,1,.609,1.969c-.108.275-.244.539-.387.85.422.477.881.945,1.281,1.458.711.911.689,1.805-.015,2.372-.739.595-1.523.418-2.286-.515-.1-.125-.209-.247-.414-.49m-6.434,12.8a3.258,3.258,0,0,0,3.227-2.072,2.309,2.309,0,0,0-.778-2.806l-2.449,4.878m1.97-10.565,1.678-3.351c-1.986.364-2.8,2.012-1.678,3.351" transform="translate(-160.471 -9.162)" fill="#144567"/>
        <path id="Trazado_600898" data-name="Trazado 600898" d="M85.648,102.423a1.534,1.534,0,0,1-2.208,1.56,2.919,2.919,0,0,1-.6-.507q-3.827-3.817-7.644-7.643c-.876-.878-.963-1.752-.268-2.415s1.478-.563,2.339.293q3.831,3.813,7.639,7.648a6.469,6.469,0,0,1,.748,1.064" transform="translate(-54.722 -68.341)" fill="#144567"/>
        <path id="Trazado_600899" data-name="Trazado 600899" d="M280.749,221.5c0,1.4-1.176,2.152-2.175,1.538-1.744-1.07-3.436-2.229-5.109-3.407a1.352,1.352,0,0,1-.332-1.942,1.374,1.374,0,0,1,1.989-.455q2.55,1.62,5.024,3.358a2.6,2.6,0,0,1,.6.908" transform="translate(-200.538 -159.474)" fill="#144567"/>
        <path id="Trazado_600900" data-name="Trazado 600900" d="M182.734,97c0,.793.023,1.588-.006,2.38a1.471,1.471,0,1,1-2.942.059q-.076-2.477,0-4.957a1.471,1.471,0,1,1,2.941.039c.031.825.007,1.652.007,2.479" transform="translate(-132.102 -68.353)" fill="#144567"/>
        <path id="Trazado_600901" data-name="Trazado 600901" d="M80.905,206.5a9.118,9.118,0,0,1-.835,1.274c-.953,1-1.937,1.977-2.931,2.94a1.48,1.48,0,0,1-2.262.151,1.509,1.509,0,0,1,.187-2.27,41.8,41.8,0,0,1,3.105-3.039,2.1,2.1,0,0,1,1.687-.273c.415.121.679.759,1.049,1.216" transform="translate(-54.712 -150.819)" fill="#144567"/>
        <path id="Trazado_600902" data-name="Trazado 600902" d="M245.072,117.469c.331.26.906.5,1.065.9a1.883,1.883,0,0,1-.1,1.542,10.828,10.828,0,0,1-1.93,1.96,1.312,1.312,0,0,1-1.809-.064,1.244,1.244,0,0,1-.333-1.763,21.5,21.5,0,0,1,2.191-2.255c.171-.162.484-.174.92-.316" transform="translate(-177.644 -86.331)" fill="#144567"/>
        <path id="Trazado_600903" data-name="Trazado 600903" d="M33.918,151.189c0,.165,0,.329,0,.494-.031,1.175-.566,1.817-1.5,1.8-.894-.014-1.431-.644-1.469-1.748a10.592,10.592,0,0,1,.015-1.382,1.444,1.444,0,0,1,1.548-1.447,1.426,1.426,0,0,1,1.394,1.491c.02.262,0,.527,0,.79h.008" transform="translate(-22.734 -109.435)" fill="#144567"/>
      </g>
    </g>
    <g id="Grupo_160661" data-name="Grupo 160661" transform="translate(353 8380)">
      <g id="Grupo_160661-2" data-name="Grupo 160661" clip-path="url(#clip-path-3)">
        <path id="Trazado_600904" data-name="Trazado 600904" d="M51.241,91.883c1.367-.147,2.163-.307,2.458-.736s.159-1.244-.175-2.51a6.831,6.831,0,0,0-4.88-5.187,2.016,2.016,0,0,1-1.518-1.476c-.681-1.986-1.34-4.015-1.978-5.978a132.566,132.566,0,0,0-6.516-17.269c-.946-1.938-1.8-3.927-2.573-5.788a4.708,4.708,0,0,1-.267-1.271c-.029-.237-.058-.481-.1-.75l-.1-.564.481.309c.24.154.447.289.633.41.344.224.615.4.89.565a4.813,4.813,0,0,0,3.887.52,4.689,4.689,0,0,0,2.89-2.5,4.792,4.792,0,0,0,.124-3.925,4.488,4.488,0,0,0-2.725-2.544,8.643,8.643,0,0,1-3.88-2.579,10.218,10.218,0,0,0-1.241-1.234,2.3,2.3,0,0,1-.881-2.091,13.99,13.99,0,0,0-3.761-10.634c-.4-.445-.273-1.305-.158-2.065.023-.15.045-.3.062-.43.058-.469,1.116-.639,1.127-.641a9.985,9.985,0,0,0,8.418-7.729A26.459,26.459,0,0,0,41.8,9.932,10.311,10.311,0,0,0,21.86,6.605a14.62,14.62,0,0,0-.687,5.479c0,.318,0,.637,0,.955a10.531,10.531,0,0,0,1.858,6.167l.032.045c.187.272.4.579.285.843-.14.321-.267.679-.389,1.026A5.429,5.429,0,0,1,21.58,23.6a9.352,9.352,0,0,0-3.74,7.455,3.051,3.051,0,0,1-.772,1.815,23.408,23.408,0,0,0-4.958,7.819c-.323.935-.734,1.851-1.132,2.737-.313.7-.637,1.419-.913,2.14a16.421,16.421,0,0,0-.914,3.2,4.144,4.144,0,0,0,3.334,5.07,4.429,4.429,0,0,0,3.571-1.1l.439-.336-.033.551c-.008.132-.012.247-.015.351a3.738,3.738,0,0,1-.044.546q-.427,2.343-.858,4.685c-.489,2.662-.995,5.415-1.48,8.124a7.344,7.344,0,0,1-1.316,3.381c-3.114,4.076-6.239,8.254-9.26,12.294Q2.048,84.258.6,86.186c-.863,1.152-.82,1.583.255,2.562a16.874,16.874,0,0,0,12.365,4.441c.913-.032,1.344-.472,1.4-1.428a7.307,7.307,0,0,0-2.2-5.981l-.2-.2.216-.177c.127-.1.244-.2.354-.282a5.959,5.959,0,0,0,.532-.449l1.617-1.611c2.607-2.6,5.3-5.282,7.92-7.956a3.721,3.721,0,0,0,.882-1.649c.3-1.231.549-2.5.786-3.73.1-.509.2-1.017.3-1.525l1.3-6.42L27.785,64.1c1.257,1.757,2.444,3.416,3.625,5.1a5.5,5.5,0,0,1,.708,1.4q2.588,7.723,5.156,15.452l1.886,5.663c.462,1.387.776,1.583,2.237,1.391l.948-.124c2.912-.382,5.923-.776,8.894-1.1M35.783,43.913l0-1.122.587-.347.363.452c.161.2.322.4.48.6a4.867,4.867,0,0,0,2.759,1.7,5.049,5.049,0,0,1,1.2.45,2.2,2.2,0,0,1,.881,3.018,2.276,2.276,0,0,1-1.378,1.107,2.122,2.122,0,0,1-.567.078,2.1,2.1,0,0,1-1.066-.293c-.955-.562-1.85-1.183-2.837-1.879a1.113,1.113,0,0,1-.406-.816c-.02-.985-.018-1.984-.015-2.951M39.25,11.834a7.974,7.974,0,0,1-2.67,7.391,7.371,7.371,0,0,1-4.887,1.9,9.113,9.113,0,0,1-2.906-.512l-.33-.111.208-.279c.195-.261.374-.511.547-.752a18,18,0,0,1,1.1-1.429,3.613,3.613,0,0,0,.958-2.831c-.059-.764-.046-1.514-.031-2.309.006-.344.013-.692.013-1.043v-.252h7.977Zm-9.7,12.679L24.7,22.676l.4-.273c.069-.047.138-.1.2-.158.2-.162.38-.314.59-.229,1.1.442,2.175.928,3.183,1.388.155.07.192.22.233.379.016.063.035.138.063.223ZM23.927,8.673a7.536,7.536,0,0,1,7.8-6.18,7.688,7.688,0,0,1,7.355,6.253l.05.295H36.348c-1.981,0-3.937,0-5.893,0-1.331,0-1.718.392-1.724,1.738,0,.251-.012.5-.022.756a8.2,8.2,0,0,0,.039,1.656c.419,2.577-.946,4.309-2.337,5.662l-.171.166-.176-.161a6.016,6.016,0,0,1-2.151-3.934,27.572,27.572,0,0,1,.014-6.253M21.519,27.348c1.049-1.815,2.161-2.259,4.106-1.638a10.735,10.735,0,0,1,7.634,10.275c.02,3.513.014,7.084.008,10.537q0,2.094-.006,4.189a1.352,1.352,0,0,1-.027.238c-.007.04-.015.084-.022.136l-.031.217H19.24l.015-.267c.028-.476.046-.944.064-1.406a28.775,28.775,0,0,1,.245-3.225,4.941,4.941,0,0,1,.593-1.512,8.029,8.029,0,0,0,.408-.858,9.7,9.7,0,0,1,3.682-4.578,40.916,40.916,0,0,0,3.721-3,5.213,5.213,0,0,0,1.348-6,5.352,5.352,0,0,0-5.241-3.245,8.3,8.3,0,0,0-1.557.324c-.243.067-.484.134-.725.189l-.567.132Zm-1.261,5.67c.184-.221.371-.45.561-.683.441-.54.9-1.1,1.382-1.637a2.927,2.927,0,0,1,2.129-1,2.838,2.838,0,0,1,2.084.877,2.763,2.763,0,0,1,.8,2.047,2.92,2.92,0,0,1-1.04,2.076c-.506.442-1.041.862-1.559,1.268q-.29.228-.578.456a1.479,1.479,0,0,1-.247.153l-.2.113-.139-.137L20.11,33.2ZM15.1,49.354l-.361.731c-.2.4-.631,1.277-1.544,1.277a1.7,1.7,0,0,1-.481-.074,1.629,1.629,0,0,1-1.079-2.121,12.351,12.351,0,0,1,.655-2.4l.387-.939c.955-2.321,1.942-4.722,3.053-7.019A12.656,12.656,0,0,1,17.313,36.5c.255-.319.519-.65.759-.98l.175-.241,3.21,3.276-.292.16a6,6,0,0,0-2.32,3.122c-.165.364-.337.741-.524,1.1-1.1,2.124-2.178,4.306-3.22,6.417m-3.308,41.3a14.135,14.135,0,0,1-8.636-3.24l-.189-.152,2.005-2.709.192.1c.525.28,1.052.555,1.58.829,1.253.652,2.549,1.326,3.78,2.066a3.442,3.442,0,0,1,1.529,2.828l.027.286Zm27.757-5.808-.571-1.685c-.363-1.07-.723-2.129-1.076-3.19q-.567-1.7-1.13-3.407c-.766-2.314-1.558-4.707-2.354-7.055a6.009,6.009,0,0,0-.777-1.515c-1.3-1.844-2.636-3.711-3.926-5.518q-1.488-2.083-2.972-4.17c-.449-.633-.861-1-1.524-.857-.6.126-.909.522-1.076,1.367-.777,3.942-1.628,8.161-2.759,13.682a2.123,2.123,0,0,1-.492,1.029c-2.871,2.9-5.82,5.854-8.672,8.709L10.108,84.35,6.519,82.566l.168-.24c.073-.1.14-.2.2-.294.131-.19.247-.36.37-.524q1.029-1.373,2.051-2.752c1.729-2.327,3.517-4.733,5.337-7.053a9.254,9.254,0,0,0,1.88-4.386c.513-3.118,1.1-6.277,1.658-9.333q.312-1.694.622-3.389a1.97,1.97,0,0,1,.111-.352c.022-.056.045-.117.069-.185l.059-.17h1.684l3,0c2.947,0,6,.007,8.992-.02a1.352,1.352,0,0,1,1.407.921A202.874,202.874,0,0,1,44.646,82.465c.051.162.088.321.131.5.02.089.042.183.068.285l.06.244Zm1.567,4.8c-.113-.469-.272-.936-.442-1.43-.078-.229-.159-.465-.239-.712l-.083-.256.262-.066c.633-.16,1.253-.322,1.864-.483,1.413-.37,2.747-.72,4.117-1.006,1.669-.347,3.642,1.146,4.4,3.33l.1.291-1.479.2c-.876.121-1.744.241-2.612.354-.591.076-1.182.149-1.773.222-.921.113-1.874.23-2.807.361a2.391,2.391,0,0,1-.328.026.926.926,0,0,1-.98-.834" transform="translate(0 0)" fill="#144567"/>
        <path id="Trazado_600905" data-name="Trazado 600905" d="M20.2,198.38l.889-2.275a11.026,11.026,0,0,1-6.547-10.588H12.1c-.22,5.655,3.148,11,8.106,12.864" transform="translate(-9.037 -138.683)" fill="#144567"/>
        <rect id="Rectángulo_46731" data-name="Rectángulo 46731" width="2.412" height="2.395" transform="translate(3.076 40.856)" fill="#144567"/>
      </g>
    </g>
    <path id="Trazado_600907" data-name="Trazado 600907" d="M-7448.466-3368.136v-31.575h-78.344" transform="translate(8191.81 11701.238)" fill="none" stroke="#2b8b77" stroke-width="2" stroke-dasharray="4"/>
    <path id="Trazado_603174" data-name="Trazado 603174" d="M-7526.81-3368.136v-31.575h78.344" transform="translate(8383.466 11701.238)" fill="none" stroke="#cfaa8b" stroke-width="2" stroke-dasharray="4"/>
    <path id="Trazado_600909" data-name="Trazado 600909" d="M-7449.694-3368v-31.712h-77.115" transform="translate(-6571.81 5052.789) rotate(180)" fill="none" stroke="#144567" stroke-width="2" stroke-dasharray="4"/>
    <path id="Trazado_600911" data-name="Trazado 600911" d="M-7473.28-3399.712h-53.529" transform="translate(4199.712 1026.19) rotate(-90)" fill="none" stroke="#a87e86" stroke-width="2" stroke-dasharray="4"/>
    <path id="Trazado_600910" data-name="Trazado 600910" d="M69.553,0H0" transform="translate(644.498 8447.527)" fill="none" stroke="#727997" stroke-width="2" stroke-dasharray="4"/>
    <path id="Trazado_600922" data-name="Trazado 600922" d="M-11959-9548v24.147" transform="translate(12894 17837.5)" fill="none" stroke="#cfaa8b" stroke-width="2"/>
    <path id="Trazado_600923" data-name="Trazado 600923" d="M-11959-9548v24.147" transform="translate(12623.498 17837.5)" fill="none" stroke="#144567" stroke-width="2"/>
    <path id="Trazado_600924" data-name="Trazado 600924" d="M-11959-9548v24.147" transform="translate(12914 17988.428)" fill="none" stroke="#144567" stroke-width="2"/>
    <path id="Trazado_600925" data-name="Trazado 600925" d="M-11959-9548v24.147" transform="translate(12603.498 17983.455)" fill="none" stroke="#727997" stroke-width="2"/>
    <path id="Trazado_600926" data-name="Trazado 600926" d="M-11959-9548v24.147" transform="translate(-8736.354 20511.527) rotate(90)" fill="none" stroke="#a87e86" stroke-width="2"/>
    <g id="Grupo_161378" data-name="Grupo 161378" transform="translate(895 8507.379) rotate(180)">
      <g id="Grupo_161379" data-name="Grupo 161379" clip-path="url(#clip-path-4)">
        <path id="Trazado_603169" data-name="Trazado 603169" d="M158.408,44.846l-4.143-31.731-7.81,1.02A96.24,96.24,0,0,0,41.775,16.9L63.087,44.907a61.085,61.085,0,0,1,62.778-2.138l.812,6.22Z" fill="#a87e86"/>
        <path id="Trazado_603170" data-name="Trazado 603170" d="M189.723,119.283A96.272,96.272,0,0,0,155.2,20.158l-.014.018,3.222,24.67-24.565,3.208A61.061,61.061,0,0,1,156.314,107.7l-5.838,2.664,13.287,29.111,29.111-13.287Z" fill="#727997"/>
        <path id="Trazado_603171" data-name="Trazado 603171" d="M163.763,139.474l-10.107-22.146a61.184,61.184,0,0,1-49.8,39.585l-4.728-4.788L76.362,174.61l22.485,22.769,5.264-5.2a96.32,96.32,0,0,0,82.595-62.917l-.313-.118Z" fill="#2b8b77"/>
        <path id="Trazado_603172" data-name="Trazado 603172" d="M66.352,20.16,34.639,15.882l-.979,7.261A96.358,96.358,0,0,0,3.809,123.137l33.163-11.9A61.1,61.1,0,0,1,55.253,50.953l6.821.92Z" fill="#144567"/>
        <path id="Trazado_603173" data-name="Trazado 603173" d="M76.362,174.61,93.8,157.386v-.049a61.135,61.135,0,0,1-53.6-36.677l2.958-6.233-28.91-13.72L.535,129.617l6.66,3.161a96.276,96.276,0,0,0,86.633,59.706V192.3Z" fill="#cfaa8b"/>
      </g>
    </g>
    <g id="Grupo_161380" data-name="Grupo 161380" transform="translate(-229 -16.246)">
      <g id="Grupo_160663" data-name="Grupo 160663" transform="translate(1184 8593.246)">
        <g id="Grupo_160662" data-name="Grupo 160662" clip-path="url(#clip-path-5)">
          <path id="Trazado_600912" data-name="Trazado 600912" d="M61.727,134.351q4.3-7.9,8.593-15.8c2.068-3.807,4.128-7.618,6.253-11.54-.341-.029-.589-.068-.838-.069-2.348,0-4.7.023-7.044-.02a1.217,1.217,0,0,0-1.237.756q-3.237,5.893-6.526,11.758a2.693,2.693,0,0,1-.85.988c-1.025.624-2.175-.146-2.229-1.493-.046-1.127-.012-2.258-.012-3.388,0-2.7.008-5.409,0-8.114-.018-4.854-3.193-8.049-8.023-8.076-1.217-.007-2.616-.342-3.6.144s-1.557,1.8-2.289,2.77q-5.91,7.823-11.808,15.655c-1.214,1.61-2.162,1.6-3.33-.027Q22.4,108.984,16.038,100.06a1.439,1.439,0,0,0-1.379-.724c-1.186.054-2.377.009-3.566.017a7.65,7.65,0,0,0-8.048,8.071q-.017,13.464-.008,26.928H0c0-9.067-.013-18.133.005-27.2A10.6,10.6,0,0,1,9.066,96.434a13.027,13.027,0,0,1,2.132-.121c2.7-.013,5.41,0,8.115-.008,2.328-.01,3.426-1.209,3.552-3.512a4.709,4.709,0,0,0-2.03-4.662C16.92,85.225,15.284,81,15.219,76.161c-.026-1.9.019-3.805-.014-5.707a2.041,2.041,0,0,1,1.31-2.1q12.461-5.828,24.9-11.7c1.331-.625,2.02-.362,2.657.934a12.9,12.9,0,0,1,1.509,5.546c.05,5.02.2,10.055-.1,15.06A13.78,13.78,0,0,1,39.106,88.93a1.987,1.987,0,0,0-1.069,2.089,11.059,11.059,0,0,1,.01,1.425c0,2.783,1.093,3.862,3.907,3.863,2.586,0,5.172-.015,7.758.009a14.718,14.718,0,0,1,2.481.194,10.5,10.5,0,0,1,8.656,10.032c.067,2.1.011,4.208.011,6.575.27-.38.409-.544.512-.727.813-1.45,1.612-2.908,2.428-4.356a17.326,17.326,0,0,0,2.029-5.062,10.243,10.243,0,0,1,9.782-8.16c4.663-.142,9.333-.04,14-.053a2,2,0,0,1,1.728,1.059V97.6a1.4,1.4,0,0,0-.144.314,10.521,10.521,0,0,1-10.279,8.99,1.336,1.336,0,0,0-1.285.826q-6.35,11.786-12.739,23.551c-.549,1.014-1.066,2.045-1.6,3.068Zm-19.8-74.561-4.806,2.262Q28.091,66.3,19.065,70.54c-.42.2-.846.323-.821.985.073,1.96-.019,3.927.1,5.883a12.144,12.144,0,0,0,24.246-.369c.123-4.4.074-8.8-.005-13.2a28.306,28.306,0,0,0-.664-4.049M19.269,99.37c1.444,2.02,2.761,3.882,4.112,5.719a1.033,1.033,0,0,0,.735.336q6.548.03,13.1,0a.977.977,0,0,0,.693-.255c1.444-1.872,2.856-3.768,4.386-5.8-2.342.024-4.317-.451-5.82-2.193-1.53-1.773-1.48-3.919-1.487-5.967a42.033,42.033,0,0,1-4.566.468,41.614,41.614,0,0,1-4.543-.479c.034,1.918.116,3.923-1.181,5.64a6.509,6.509,0,0,1-5.426,2.528M88.08,97.818c-4.086,0-8.123-.015-12.158.015a7.949,7.949,0,0,0-2.011.338c-2.618.719-4.931,3.306-5.106,5.686,4.125,0,8.25.074,12.37-.023a7.345,7.345,0,0,0,6.905-6.017M25.823,108.528l4.659,6.506,4.9-6.506Z" transform="translate(0 -42.912)" fill="#144567"/>
          <path id="Trazado_600914" data-name="Trazado 600914" d="M34.987,310.456c.022-1.245.064-2.49.051-3.735a1.645,1.645,0,0,0-.319-.8,15.522,15.522,0,0,1,.781-18.295c.017-.021.051-.029.149-.081l2.3,1.461a45.02,45.02,0,0,0-2.258,4.911,11.081,11.081,0,0,0,1.261,9.73,6.305,6.305,0,0,1,1.176,4.063,24.883,24.883,0,0,0,.07,2.748Z" transform="translate(-24.458 -219.016)" fill="#144567"/>
          <path id="Trazado_600915" data-name="Trazado 600915" d="M198.275,310.343c-.005-.3-.008-.594-.017-.89a11.338,11.338,0,0,1,1.448-6.575c2.435-4.081,1.938-8.36-.533-12.4-.293-.479-.6-.953-.931-1.486l2.523-1.6a16.365,16.365,0,0,1,3.419,8.523,15.263,15.263,0,0,1-2.646,10.035,1.777,1.777,0,0,0-.229.916c-.023,1.158,0,2.316,0,3.474Z" transform="translate(-150.997 -218.903)" fill="#144567"/>
          <path id="Trazado_600916" data-name="Trazado 600916" d="M65.344,47.349c.687-.036,1.246-.077,1.805-.093a7.608,7.608,0,0,0,7.342-7.865c-.008-5.915.166-11.842-.139-17.743A18.477,18.477,0,0,0,63.777,5.419C53.439.1,41.446,4.4,36.59,14.984a19.222,19.222,0,0,0-1.671,8.141c.008,5.411-.015,10.822.008,16.232A7.487,7.487,0,0,0,40.81,47.05a22.836,22.836,0,0,0,3.164.343v2.835a10.612,10.612,0,0,1-10.453-4.866,10.427,10.427,0,0,1-1.639-5.655c.01-5.975-.161-11.959.087-17.924A21.486,21.486,0,0,1,42.307,3.83,21.777,21.777,0,0,1,65.187,2.72,21.843,21.843,0,0,1,77.219,19.505a30.4,30.4,0,0,1,.311,4.616c.037,5.054.03,10.108.009,15.162a10.639,10.639,0,0,1-8.62,10.827,24.752,24.752,0,0,1-2.926.238c-.429.034-.672-.094-.656-.588.026-.768.007-1.537.007-2.412" transform="translate(-24.248 0)" fill="#144567"/>
        </g>
      </g>
      <path id="Trazado_603175" data-name="Trazado 603175" d="M271.37,24.12a8.661,8.661,0,0,1-2.357,4.59,8.049,8.049,0,0,1-5.777,2.142c-1.9,0-3.805-.033-5.706.025a2.126,2.126,0,0,0-1.3.536c-2.05,1.984-4.05,4.02-6.067,6.038-.168.168-.335.337-.509.5a1.348,1.348,0,0,1-1.706.318,2.178,2.178,0,0,1-.885-1.4c-.118-1.507-.049-3.028-.053-4.544,0-.443,0-.887,0-1.4-1.317-.062-2.584-.08-3.843-.188a7.373,7.373,0,0,1-6.728-6.907c-.134-3.443-.056-6.894-.066-10.341q-.008-2.5,0-4.993c.022-4.886,3.226-8.093,8.1-8.1C250.748.39,257.019.431,263.29.382a7.715,7.715,0,0,1,7.959,6.463,1.715,1.715,0,0,0,.121.328Zm-21.307,8.815.218.116c1.437-1.445,2.892-2.872,4.3-4.345a2.773,2.773,0,0,1,2.208-.913c2.2.04,4.4.035,6.6.007a4.616,4.616,0,0,0,4.941-4.977q.016-7.222,0-14.444a4.616,4.616,0,0,0-4.973-4.944c-2.5-.01-4.993,0-7.489,0-3.893,0-7.787-.017-11.68.007a4.472,4.472,0,0,0-4.729,4.236c-.065,5.289-.056,10.58,0,15.869a4.352,4.352,0,0,0,3.921,4.168,22.76,22.76,0,0,0,2.58.089c4.148-.027,4.173-.224,4.109,4.072-.005.354,0,.709,0,1.063" transform="translate(1013.97 8592.955)" fill="#144567"/>
    </g>
    <g id="Grupo_161382" data-name="Grupo 161382" transform="translate(1186 8380)">
      <g id="Grupo_161381" data-name="Grupo 161381" clip-path="url(#clip-path-6)">
        <path id="Trazado_603176" data-name="Trazado 603176" d="M14.7,96c-2.261-.963-3.146-2.145-3.023-4.079a5.647,5.647,0,0,1,.2-1,2.143,2.143,0,0,1,.205-.521c2.628-4.7,3.517-9.879,4.324-15.1.686-4.441,1.505-8.861,2.276-13.289.192-1.1.788-1.6,1.682-1.465.859.127,1.278.8,1.085,1.935-.955,5.631-1.936,11.257-2.907,16.885-.207,1.2-.411,2.4-.628,3.658H27.2l4.655-21.446a51.936,51.936,0,0,1-5.627-1.932A17.027,17.027,0,0,1,20.178,33.8a3.942,3.942,0,0,0,.528-1.507,9.185,9.185,0,0,0,.02-1.027,4.194,4.194,0,0,0-1.474-3.647q-8.7-8.6-17.315-17.289A5.933,5.933,0,1,1,10.2,1.82c2.988,2.934,5.93,5.914,8.891,8.874q3.348,3.347,6.7,6.693A10.71,10.71,0,0,0,41.5,17.4q4.49-4.46,8.953-8.946c.155-.155.3-.318.465-.463a1.407,1.407,0,0,1,2.082-.044,1.391,1.391,0,0,1-.09,2.013c-1.283,1.324-2.6,2.617-3.9,3.919-.859.856-1.726,1.7-2.531,2.5l4.4,4.4c.093-.081.285-.227.455-.4,3.98-3.975,7.97-7.94,11.918-11.946a4.486,4.486,0,0,0,1.124-1.881,2.947,2.947,0,0,0-1.5-3.335,3.079,3.079,0,0,0-3.646.455c-.556.5-1.051,1.072-1.616,1.563a1.272,1.272,0,0,1-1.79.02,1.215,1.215,0,0,1-.3-1.758c1.5-1.849,3.167-3.517,5.8-3.477a5.649,5.649,0,0,1,5.341,3.327A5.7,5.7,0,0,1,66,9.6a9.875,9.875,0,0,1-.951,1.033Q56.437,19.253,47.8,27.856a4.131,4.131,0,0,0-1.268,3,5.745,5.745,0,0,0,1.108,3.788,16.877,16.877,0,0,1,.127,19.27,2.184,2.184,0,0,0-.3,1.446q2.341,13.847,4.772,27.679a14.552,14.552,0,0,0,1,2.9c.544,1.328,1.088,2.663,1.753,3.931,1.219,2.325.783,5.049-2.412,6.129H42.644a4.891,4.891,0,0,1-3.534-4.048c-1.6-7.635-3.275-15.253-4.926-22.876-.138-.64-.3-1.274-.452-1.912a.678.678,0,0,0-.3.45c-1.744,8.018-3.531,16.027-5.2,24.061-.451,2.167-1.439,3.675-3.592,4.324Zm8.846-65.52c.548-.329.983-.621,1.445-.861a1.317,1.317,0,0,1,1.816.436,1.348,1.348,0,0,1-.335,1.909c-.193.157-.412.282-.621.419a14.258,14.258,0,1,0,17.234,1.274,13.855,13.855,0,0,0-10.812-3.513c-1.236.115-1.947-.326-2.015-1.26-.065-.9.515-1.408,1.709-1.537a16.472,16.472,0,0,1,9.179,1.666c.858.421,1.671.931,2.591,1.449-.05-3.684,3.111-5.176,4.911-7.487l-4.4-4.375a13.743,13.743,0,0,1-21.142.094L18.7,23.071c1.811,2.225,4.868,3.742,4.85,7.409m16.53,52.526h9.29L44.892,57.142a17.591,17.591,0,0,1-9.518,4.187l4.7,21.678M20.759,16.516C16.478,12.192,12.193,7.837,7.866,3.522a2.7,2.7,0,0,0-2.716-.6A3.109,3.109,0,0,0,3.859,8.267Q9.924,14.382,16.037,20.45c.145.146.316.265.449.375l4.274-4.31m5.823,69.375c-3.084,0-6.042-.009-9,.019a.84.84,0,0,0-.608.42c-.821,1.781-1.628,3.57-2.387,5.378a.977.977,0,0,0,.97,1.469c2.744.025,5.49.052,8.232-.033a1.752,1.752,0,0,0,1.343-.9c.569-2.059.969-4.164,1.45-6.354m14.12,0c.479,2.186.9,4.226,1.382,6.251a1.412,1.412,0,0,0,1.573,1.048c2.62-.006,5.239.006,7.859-.006,1.137,0,1.55-.6,1.112-1.624q-1.1-2.576-2.275-5.121c-.106-.23-.41-.523-.626-.525-2.959-.035-5.918-.023-9.025-.023" transform="translate(0 0)" fill="#144567"/>
        <path id="Trazado_603177" data-name="Trazado 603177" d="M117.466,9.289a9.386,9.386,0,0,1-1.677,6.555A8.438,8.438,0,0,1,100.576,11a26.13,26.13,0,0,1,.191-4.938A6.6,6.6,0,0,1,107.316.709a26.542,26.542,0,0,1,4.571.147,6.661,6.661,0,0,1,5.577,6.655c.011.593,0,1.186,0,1.779m-2.739-.04-.074-.006c0-.593.014-1.187,0-1.779a3.991,3.991,0,0,0-3.938-3.949c-1.123-.024-2.248-.022-3.372,0a3.977,3.977,0,0,0-3.963,3.92c-.029,1.154-.025,2.31,0,3.465a5.623,5.623,0,0,0,11.093,1.226,20.323,20.323,0,0,0,.257-2.876" transform="translate(-75.37 -0.512)" fill="#144567"/>
        <path id="Trazado_603178" data-name="Trazado 603178" d="M97.523,152.255c1.838-1.841,3.558-3.553,5.265-5.278a4.164,4.164,0,0,1,3.45-1.35,4.212,4.212,0,0,1,2.72,7.115c-1.086,1.163-2.239,2.262-3.364,3.388-1.544,1.545-3.08,3.1-4.637,4.631a4.5,4.5,0,0,1-6.734.01q-2.534-2.5-5.032-5.031a4.226,4.226,0,1,1,5.96-5.982c.794.784,1.54,1.618,2.372,2.5m10-2.541c-.373-.423-.658-1.038-1.046-1.113a2.156,2.156,0,0,0-1.663.386c-1.916,1.789-3.73,3.685-5.6,5.528a2.049,2.049,0,0,1-3.27,0c-.938-.916-1.845-1.864-2.79-2.773a1.4,1.4,0,0,0-2.149-.088,1.428,1.428,0,0,0,.159,2.084q2.53,2.569,5.1,5.1a1.684,1.684,0,0,0,2.639-.007q3.963-3.917,7.877-7.885a6.646,6.646,0,0,0,.737-1.227" transform="translate(-65.819 -109.144)" fill="#144567"/>
      </g>
    </g>
    <g id="Grupo_161384" data-name="Grupo 161384" transform="translate(766.486 8381.438)">
      <g id="Grupo_161383" data-name="Grupo 161383" clip-path="url(#clip-path-7)">
        <path id="Trazado_603179" data-name="Trazado 603179" d="M239.523,94.793c-.058.272-.125.543-.172.817a7.789,7.789,0,0,1-2.413,4.465c-1.737,1.622-3.562,3.153-5.252,4.82a26.263,26.263,0,0,0-2.542,3.136,4.192,4.192,0,0,0-.576,1.377c-.284,1.029-.231,1.1.652,1.7a3.224,3.224,0,0,1,1.5,2.759c.026,1.57.035,3.141,0,4.711a3.27,3.27,0,0,1-3.4,3.313q-7.427.014-14.854,0a3.223,3.223,0,0,1-3.364-3.2c-.063-1.633-.047-3.272-.007-4.907a3.279,3.279,0,0,1,2.215-3.068c.067-1.942.061-3.864.215-5.773a13.668,13.668,0,0,1,3.621-8.889A14.388,14.388,0,0,1,221.58,92.6a1.713,1.713,0,0,0,.884-.652c1.084-1.686,2.131-3.4,3.166-5.114a4.544,4.544,0,0,1,2.6-2.161c.411-.123.395-.4.418-.7.259-3.348.511-6.7.785-10.043a4.507,4.507,0,0,1,4.4-4.264,4.438,4.438,0,0,1,4.395,4.248c.369,5.111.7,10.225,1.048,15.337.061.888.165,1.774.249,2.66ZM225.8,110.528a9,9,0,0,1,2.42-5.76,29.053,29.053,0,0,1,2.356-2.449c1.466-1.369,2.988-2.679,4.465-4.036a5.612,5.612,0,0,0,1.844-4.058,19.684,19.684,0,0,0-.027-2.027c-.193-3.025-.4-6.049-.609-9.074-.206-3-.4-6.006-.633-9.006a1.851,1.851,0,0,0-1.781-1.831,1.832,1.832,0,0,0-1.772,1.769c-.291,3.411-.548,6.825-.794,10.24a.709.709,0,0,0,.3.541c2.7,1.574,3.365,4.182,1.73,6.84q-2.518,4.094-5.041,8.184a4.747,4.747,0,0,1-.4.6,1.3,1.3,0,0,1-2.193-1.318,4.27,4.27,0,0,1,.352-.625q2.552-4.149,5.111-8.295a2.108,2.108,0,0,0,.347-1.8,1.8,1.8,0,0,0-1.468-1.335A1.85,1.85,0,0,0,228,88c-.979,1.573-2.012,3.117-2.9,4.741a5.1,5.1,0,0,1-3.446,2.616c-3.7.974-6.24,3.252-7.065,7.1a35.043,35.043,0,0,0-.567,4.661c-.086,1.121-.017,2.254-.017,3.412Zm-5.942,8.745q3.6,0,7.194,0c.852,0,1.052-.191,1.056-1.023q.008-2.028,0-4.055c0-.806-.2-1.014-1-1.015q-7.194-.006-14.389,0c-.824,0-1.013.188-1.018,1q-.011,2.027,0,4.055c0,.863.183,1.042,1.031,1.042q3.564,0,7.129,0" transform="translate(-172.496 -57.484)" fill="#144567"/>
        <path id="Trazado_603180" data-name="Trazado 603180" d="M115.188,26.454c0,1.41,0,2.736,0,4.062,0,1.129-.452,1.572-1.6,1.573q-10.175,0-20.35,0c-1.215,0-1.631-.43-1.633-1.669,0-1.3,0-2.6,0-3.965H87.016c-.284,0-.567.005-.851,0a1.311,1.311,0,0,1-1.434-1.36c-.3-4.828,1.1-8.9,5.207-11.789a.726.726,0,0,0,.1-.142A8.123,8.123,0,0,1,88.62,6.137a8.034,8.034,0,0,1,3.312-4.71,8.264,8.264,0,0,1,11.484,2.234A8.188,8.188,0,0,1,109.76.02a7.933,7.933,0,0,1,5.55,1.737,8.217,8.217,0,0,1,1.432,11.45c.239.18.484.356.719.544a11.786,11.786,0,0,1,4.608,9.346q.022.916,0,1.832a1.35,1.35,0,0,1-1.539,1.521c-1.807.008-3.615,0-5.342,0M112.5,29.438c.455-3.175-1.657-7.262-4.445-8.593a.926.926,0,0,0-.688.112,7.843,7.843,0,0,1-7.585.137,1.389,1.389,0,0,0-1.726.163,9.256,9.256,0,0,0-3.827,8.181Zm-3.563-15.6a5.543,5.543,0,1,0-5.6,5.532,5.553,5.553,0,0,0,5.6-5.532m-7.427-8.024a5.445,5.445,0,0,0-6.455-2.987,5.537,5.537,0,0,0-3.972,6.4c.383,2.128,2.537,4.32,4.123,4.2.664-4.212,2.093-5.938,6.3-7.611m3.764.008a8.327,8.327,0,0,1,6.321,7.642c2-.135,3.993-2.448,4.21-4.869a5.6,5.6,0,0,0-4.248-5.823,5.474,5.474,0,0,0-6.283,3.05M109.922,18.9a9.477,9.477,0,0,1,3.389,3.544,2.286,2.286,0,0,0,2.647,1.414c1.139-.1,2.293-.021,3.426-.021a9.175,9.175,0,0,0-4.412-8.609.923.923,0,0,0-.634.03c-.924.31-1.841.641-2.754.982a.928.928,0,0,0-.482.331c-.4.741-.767,1.5-1.179,2.328M87.4,23.835c1.682,0,3.336.012,4.989-.019.167,0,.368-.243.487-.418a21.292,21.292,0,0,1,1.41-2.113c.783-.893,1.689-1.679,2.529-2.5-.359-.72-.732-1.5-1.141-2.261a.843.843,0,0,0-.446-.288c-.915-.335-1.832-.667-2.758-.97a.983.983,0,0,0-.688-.017A9.167,9.167,0,0,0,87.4,23.835" transform="translate(-69.881 0)" fill="#144567"/>
        <path id="Trazado_603181" data-name="Trazado 603181" d="M13.729,110.53h11.8c0-1,.073-2-.016-2.986a42.162,42.162,0,0,0-.666-5.366,8.611,8.611,0,0,0-5.886-6.469,16.914,16.914,0,0,0-1.865-.6,3.406,3.406,0,0,1-2.222-1.679c-1.091-1.811-2.215-3.6-3.327-5.4a1.862,1.862,0,0,0-2-.943,1.791,1.791,0,0,0-1.49,1.308,2.074,2.074,0,0,0,.321,1.8q2.583,4.168,5.144,8.351a3.557,3.557,0,0,1,.359.692,1.259,1.259,0,0,1-.535,1.48,1.272,1.272,0,0,1-1.618-.183,2.062,2.062,0,0,1-.273-.366c-1.808-2.931-3.636-5.85-5.412-8.8A4.481,4.481,0,0,1,7.885,84.9a.607.607,0,0,0,.389-.7c-.266-3.3-.517-6.609-.777-9.913A2.9,2.9,0,0,0,7.4,73.71a1.8,1.8,0,0,0-1.8-1.417,1.819,1.819,0,0,0-1.665,1.661c-.163,1.736-.265,3.479-.39,5.219-.046.631-.078,1.263-.132,1.893a1.317,1.317,0,0,1-1.374,1.282A1.288,1.288,0,0,1,.812,80.988c.153-2.525.25-5.059.56-7.566a4.332,4.332,0,0,1,4.5-3.748,4.5,4.5,0,0,1,4.208,4.11c.289,3.346.542,6.695.783,10.044.035.488.137.763.663.933a4.249,4.249,0,0,1,2.293,1.95c1.069,1.747,2.131,3.5,3.236,5.225a1.7,1.7,0,0,0,.876.661,14.679,14.679,0,0,1,6.3,3.305,12.563,12.563,0,0,1,3.622,7.859c.244,2.094.222,4.219.295,6.332a.8.8,0,0,0,.487.849,3.1,3.1,0,0,1,1.8,2.894c.028,1.592.047,3.186,0,4.777a3.246,3.246,0,0,1-3.425,3.277q-7.395.011-14.79,0a3.28,3.28,0,0,1-3.411-3.37c-.026-1.527-.022-3.054,0-4.581A3.179,3.179,0,0,1,10.7,110.9a.63.63,0,0,0,.388-.773,5.58,5.58,0,0,0-1.452-3.232c-1.358-1.469-2.815-2.849-4.255-4.241-.925-.894-1.905-1.729-2.839-2.615C.427,98.03-.132,95.473.025,92.685a1.258,1.258,0,0,1,1.366-1.207,1.274,1.274,0,0,1,1.231,1.277c.034.674.031,1.351.087,2.023a5.187,5.187,0,0,0,1.713,3.433c1.436,1.338,2.927,2.616,4.364,3.952a31.62,31.62,0,0,1,2.291,2.331,9.314,9.314,0,0,1,2.652,6.035m5.879,8.745q3.63,0,7.26,0c.741,0,.954-.194.96-.913q.018-2.126,0-4.251c-.006-.724-.213-.927-.953-.927q-7.26-.008-14.52,0c-.716,0-.928.225-.932.951-.009,1.374-.007,2.747,0,4.121,0,.832.2,1.019,1.057,1.02q3.565,0,7.129,0" transform="translate(0 -57.486)" fill="#144567"/>
        <path id="Trazado_603182" data-name="Trazado 603182" d="M3.632,160.839a1.276,1.276,0,0,1,1.309,1.248,1.326,1.326,0,0,1-1.29,1.354,1.338,1.338,0,0,1-1.317-1.334,1.3,1.3,0,0,1,1.3-1.269" transform="translate(-1.926 -132.711)" fill="#144567"/>
      </g>
    </g>
  </g>
</svg>
