<svg xmlns="http://www.w3.org/2000/svg" xmlns:xlink="http://www.w3.org/1999/xlink" width="167.17" height="167.17" viewBox="0 0 167.17 167.17">
  <defs>
    <linearGradient id="linear-gradient" x1="0.5" x2="0.5" y2="1" gradientUnits="objectBoundingBox">
      <stop offset="0" stop-color="#fff"/>
      <stop offset="1" stop-color="#ececec"/>
    </linearGradient>
    <clipPath id="clip-path">
      <rect id="Rectángulo_46844" data-name="Rectángulo 46844" width="106.583" height="98.41" fill="none"/>
    </clipPath>
  </defs>
  <g id="Grupo_160852" data-name="Grupo 160852" transform="translate(-1067 -6659)">
    <path id="Trazado_600881" data-name="Trazado 600881" d="M105.982,0,22.4,22.4,0,105.981,61.188,167.17l83.585-22.4,22.4-83.586Z" transform="translate(1067 6659)" fill="url(#linear-gradient)"/>
    <path id="Trazado_601792" data-name="Trazado 601792" d="M-.2-1.47,2.22-2.828v46l-2.279,1.25Z" transform="matrix(0.259, 0.966, -0.966, 0.259, 1133.693, 6659.925)" fill="#833343"/>
    <g id="Grupo_160843" data-name="Grupo 160843" transform="translate(1097.293 6690.59)">
      <g id="Grupo_160845" data-name="Grupo 160845" clip-path="url(#clip-path)">
        <path id="Trazado_601814" data-name="Trazado 601814" d="M37.154,18.555a12.786,12.786,0,0,1,1.353,13.532c-1.465,3.159-4.079,5.422-8.227,7.121a3.122,3.122,0,0,0-1.13.867c-.536.634-1.033,1.31-1.559,2.025-.223.3-.451.614-.688.929l-.48.638-.48-.638c-.243-.322-.478-.639-.709-.949-.574-.774-1.117-1.5-1.691-2.208a1.961,1.961,0,0,0-.8-.564c-4.611-1.7-7.45-4.206-8.934-7.894a13.132,13.132,0,0,1,.9-11.572,13.57,13.57,0,0,1,9.963-6.683,12.577,12.577,0,0,1,12.478,5.4" transform="translate(-9.005 -9.108)" fill="#91e8d6"/>
        <path id="Trazado_601815" data-name="Trazado 601815" d="M267.557,14.089h.048A13.446,13.446,0,0,1,280.49,24.2c1.479,5.917-1.113,11.476-6.763,14.506-.081.044-.163.091-.244.138a3.478,3.478,0,0,1-.944.424,5.333,5.333,0,0,0-3.3,2.716,12.293,12.293,0,0,1-.743,1.012c-.123.157-.252.32-.384.494l-.48.635-.479-.636c-.234-.311-.459-.617-.68-.917-.529-.717-1.028-1.395-1.564-2.036a2.437,2.437,0,0,0-.96-.7c-4.866-1.764-7.791-4.691-8.941-8.947a13.325,13.325,0,0,1,2.286-11.639,12.906,12.906,0,0,1,10.267-5.155" transform="translate(-178.082 -9.857)" fill="#f8b4c2"/>
        <path id="Trazado_601816" data-name="Trazado 601816" d="M140.543,219.444H88.1V186.457a13.452,13.452,0,0,1,13.452-13.452h27.245a11.749,11.749,0,0,1,11.749,11.749Z" transform="translate(-61.637 -121.042)" fill="#dcc0a8"/>
        <path id="Trazado_601817" data-name="Trazado 601817" d="M155.337,82.585a20.685,20.685,0,0,0-.517,2.112,10.244,10.244,0,0,1-3.906,7.042,1.69,1.69,0,0,0-.547,1.125c-.066,1.194-.044,2.4-.005,3.592a4.179,4.179,0,0,0,2.53,3.918c.3.143.615.272.925.4a5.522,5.522,0,0,1,3.719,5.57c0,.433,0,.867,0,1.282H161.1c.013-.271.039-.458.027-.642a5.868,5.868,0,0,1,4.267-6.447,4.247,4.247,0,0,0,2.921-4.34c.011-2.845.008-5.691.009-8.536,0-1.674,0-3.349,0-5.075Z" transform="translate(-105.173 -57.78)" fill="#ffdec2"/>
        <rect id="Rectángulo_46839" data-name="Rectángulo 46839" width="3.459" height="34.03" transform="translate(34.454 64.372)"/>
        <rect id="Rectángulo_46840" data-name="Rectángulo 46840" width="3.46" height="34.03" transform="translate(68.628 64.373)"/>
        <rect id="Rectángulo_46841" data-name="Rectángulo 46841" width="3.449" height="3.497" transform="translate(50.627 28.403)"/>
        <rect id="Rectángulo_46842" data-name="Rectángulo 46842" width="3.483" height="3.463" transform="translate(57.805 28.425)"/>
        <path id="Trazado_601818" data-name="Trazado 601818" d="M140.158,98.817c-.076-1.89-.435-4.251-.467-4.46-2.377-7.975-7.7-11.927-16.067-11.927h-5c-.369-2.749.233-3.174,2.052-3.909a7.6,7.6,0,0,0,5.021-7.537c.038-7.455.019-14.911.011-22.366,0-1.518-.665-2.155-2.22-2.157-4.608-.008-9.216-.023-13.824,0a8.956,8.956,0,0,0-9.124,9.107c-.028,5.058-.012,10.115,0,15.173a7.907,7.907,0,0,0,5.214,7.883c1.984.833,2.334,1.586,1.8,3.812-2.752,0-5.523-.086-8.288.019a14.661,14.661,0,0,0-12.394,6.968,31.53,31.53,0,0,0-2.224,4.727h0l-.053.123c-.1.366-.317,1.825-.317,7.628,0,5.6.053,14.2.081,18.357h.017V130.9h3.57v-3.794c0-9.741-.018-19.482.007-29.222a11.419,11.419,0,0,1,9.911-11.642,71.9,71.9,0,0,1,8.3-.217c.506-.009,1.013,0,1.57,0v1.505q0,15.96.021,31.92a4.072,4.072,0,0,0,.5,2.005c1,1.667,2.116,3.267,3.219,4.871,1,1.447,2.339,1.437,3.34-.019,1.018-1.481,2.064-2.949,2.969-4.5a5.027,5.027,0,0,0,.716-2.386c.047-10.677.031-21.355.031-32.032V86.026h5.531c7.516,0,12.454,4.937,12.456,12.449q0,15.567,0,31.133v1.3h3.629v-5.59s-.084-23.35.027-25.308ZM104.146,55.195a5.228,5.228,0,0,1,4.906-5.094c4.3-.113,8.6-.03,12.981-.03v3.581H120.5q-6.007,0-12.014,0c-1.863,0-2.243.3-2.707,2.127-.483,1.908-.953,3.818-1.429,5.727l-.219-.029c0-2.094-.051-4.19.013-6.283m8.95,67a6.725,6.725,0,0,1-1.827-4.635c.122-8.05.052-16.1.052-24.248h3.6v1.15c0,7.566-.065,15.133.044,22.7A6.51,6.51,0,0,1,113.1,122.2M111.414,86.05h3.419v3.5h-3.419Zm3.5-4.349c.012.184-.015.371-.027.643H111.32c0-.415,0-.849,0-1.282a5.521,5.521,0,0,0-3.719-5.57c-.311-.127-.621-.257-.925-.4a4.179,4.179,0,0,1-2.53-3.918c-.039-1.2-.061-2.4.005-3.592a1.69,1.69,0,0,1,.547-1.125,10.243,10.243,0,0,0,3.907-7.042,20.606,20.606,0,0,1,.517-2.112h12.99c0,1.727,0,3.4,0,5.075,0,2.845,0,5.691-.009,8.536a4.246,4.246,0,0,1-2.921,4.34,5.868,5.868,0,0,0-4.267,6.447" transform="translate(-58.959 -32.497)"/>
        <path id="Trazado_601819" data-name="Trazado 601819" d="M150.357,69.847l.219.029c.476-1.909.946-3.82,1.429-5.727.464-1.832.844-2.127,2.707-2.127q6.007,0,12.014,0h1.53V58.44c-4.381,0-8.683-.083-12.98.03a5.228,5.228,0,0,0-4.906,5.093c-.064,2.093-.013,4.188-.013,6.283" transform="translate(-105.183 -40.867)" fill="#af6848"/>
        <path id="Trazado_601820" data-name="Trazado 601820" d="M175.984,231.364a6.51,6.51,0,0,0,1.866-5.037c-.108-7.564-.044-15.131-.044-22.7v-1.15h-3.6c0,8.145.071,16.2-.052,24.248a6.725,6.725,0,0,0,1.827,4.635" transform="translate(-121.847 -141.665)" fill="#91e8d6"/>
        <rect id="Rectángulo_46843" data-name="Rectángulo 46843" width="3.419" height="3.499" transform="translate(52.455 53.553)" fill="#91e8d6"/>
        <path id="Trazado_601821" data-name="Trazado 601821" d="M15.139.156A17.689,17.689,0,0,0,0,16.81,17.4,17.4,0,0,0,11.02,33.373a3.562,3.562,0,0,1,1.417,1.082c1.189,1.541,2.374,3.125,3.52,4.656q.722.964,1.444,1.927l.016.021.051-.067q.681-.905,1.359-1.812C20,37.611,21.216,35.99,22.434,34.41a3.38,3.38,0,0,1,1.358-1.031,17.126,17.126,0,0,0,10.872-15.8A17.384,17.384,0,0,0,23.941,1.334,23.378,23.378,0,0,0,20.586.377C20.078.258,19.554.136,19.038,0H15.795l-.116.033a3.3,3.3,0,0,1-.539.123m13.01,9.29A12.786,12.786,0,0,1,29.5,22.978c-1.465,3.159-4.079,5.422-8.227,7.121a3.122,3.122,0,0,0-1.13.867c-.536.634-1.033,1.31-1.559,2.025-.223.3-.451.614-.688.929l-.48.638-.48-.638c-.243-.322-.478-.639-.709-.949-.574-.774-1.117-1.5-1.691-2.208a1.961,1.961,0,0,0-.8-.564c-4.611-1.7-7.45-4.206-8.934-7.894a13.132,13.132,0,0,1,.9-11.572,13.57,13.57,0,0,1,9.963-6.683,12.577,12.577,0,0,1,12.478,5.4" transform="translate(0)"/>
        <path id="Trazado_601822" data-name="Trazado 601822" d="M242.012,17.929a16.807,16.807,0,0,0,10.629,16.184,3.485,3.485,0,0,1,1.381,1.076c1.159,1.5,2.313,3.044,3.43,4.535q.689.92,1.379,1.839l.039.051.9-1.2c1.356-1.811,2.637-3.523,3.967-5.25a3.576,3.576,0,0,1,1.382-1.058A16.931,16.931,0,0,0,275.456,22.19c.122-.474.221-.97.317-1.45.043-.212.085-.424.129-.635V16.9c-.059-.28-.114-.561-.169-.843-.122-.626-.249-1.274-.416-1.887a17.02,17.02,0,0,0-14.4-12.562,2.081,2.081,0,0,1-.445-.122l-.042-.015h-3.141l-.078.025a2.584,2.584,0,0,1-.487.121,17.09,17.09,0,0,0-14.717,16.308M258.795,5.264h.048A13.446,13.446,0,0,1,271.728,15.37c1.479,5.917-1.113,11.476-6.763,14.506-.081.044-.162.091-.244.138a3.478,3.478,0,0,1-.944.424,5.333,5.333,0,0,0-3.3,2.716,12.3,12.3,0,0,1-.743,1.012c-.123.157-.252.32-.384.494l-.48.635-.479-.636c-.234-.311-.459-.617-.68-.917-.529-.717-1.028-1.395-1.564-2.036a2.437,2.437,0,0,0-.96-.7c-4.866-1.764-7.791-4.691-8.941-8.947a13.325,13.325,0,0,1,2.286-11.639,12.906,12.906,0,0,1,10.267-5.155" transform="translate(-169.32 -1.032)"/>
        <path id="Trazado_601823" data-name="Trazado 601823" d="M47.006,40.64l-2.737-2.755-8.376,8.4L32.874,43.13,30.3,45.711,36.1,51.539Z" transform="translate(-21.197 -26.506)"/>
        <path id="Trazado_601824" data-name="Trazado 601824" d="M287.247,49.851l2.739-2.734-3.531-3.382,3.434-3.377-2.726-2.723-3.481,3.6-3.39-3.523-2.658,2.657,3.586,3.494-3.5,3.316L280.538,50l3.406-3.533Z" transform="translate(-194.245 -26.331)"/>
      </g>
    </g>
  </g>
</svg>
