<svg xmlns="http://www.w3.org/2000/svg" xmlns:xlink="http://www.w3.org/1999/xlink" width="1030" height="354.001" viewBox="0 0 1030 354.001">
  <defs>
    <linearGradient id="linear-gradient" x1="0.5" y1="-0.152" x2="0.5" y2="1" gradientUnits="objectBoundingBox">
      <stop offset="0" stop-color="#f6efe9"/>
      <stop offset="1" stop-color="#fff"/>
    </linearGradient>
    <clipPath id="clip-path">
      <path id="Trazado_601776" data-name="Trazado 601776" d="M17,0h996c9.389,0,17,6.646,17,14.844V338.793c0,8.2-7.611,14.844-17,14.844H17c-9.389,0-17-6.646-17-14.844V14.844C0,6.646,7.611,0,17,0Z" fill="#dcc0a8"/>
    </clipPath>
    <linearGradient id="linear-gradient-2" x1="0.5" x2="0.5" y2="1" gradientUnits="objectBoundingBox">
      <stop offset="0" stop-color="#91e8d6"/>
      <stop offset="1" stop-color="#56ab99"/>
    </linearGradient>
    <clipPath id="clip-path-2">
      <rect id="Rectángulo_46628" data-name="Rectángulo 46628" width="26.731" height="35" fill="#395e56"/>
    </clipPath>
    <clipPath id="clip-path-3">
      <rect id="Rectángulo_46771" data-name="Rectángulo 46771" width="151.779" height="151.78" fill="#91e8d6"/>
    </clipPath>
  </defs>
  <g id="Grupo_160828" data-name="Grupo 160828" transform="translate(-285 -10318)">
    <rect id="Rectángulo_46770" data-name="Rectángulo 46770" width="1030" height="354" transform="translate(1315 10672) rotate(180)" fill="url(#linear-gradient)"/>
    <g id="Enmascarar_grupo_69" data-name="Enmascarar grupo 69" transform="translate(285 10318.364)" clip-path="url(#clip-path)">
      <path id="Trazado_601775" data-name="Trazado 601775" d="M1842.37,0V16.055h-7.909V36.3h-21.969V60.73h-13.184v61.426L1773.827,142.4v33.157h-15.38V143.448L1714.067,108.2V67.71h-20.209V58.636h-31.639v6.98h-19.332v78.879h-22.849V117.271h-15.818l-27.243,21.638v26.527h-16.7V48.863l-52.729,41.881h-21.968V74.69h-14.059V91.444h-24.607v46.069h-18.454V99.121h-28.121v20.941h-36.03v9.773h-15.818v9.773h-23.726v32.108h-14.062V89.35l-87.878-11.869v9.076h-10.545v120.76h-16.7V138.212h-16.7v32.111h-13.181V214.3h-13.184V143.8H1116.5v-6.98H1077.94V170.93l-21.2-16.838h-34.934l-19.551,15.531V83.764H961.83v64.219H947.987v43.454l-18.232,14.484V147.635l-24.167-19.2L880.1,148.682v70.5H858.134V181.49H833.527v27.921H822.1V159.852H811.118v28.271l-27.684-21.99V145.192h14.94v-6.107H697.534l-20.872,16.577v23.384L652.5,159.852H630.527v-9.424H594.057l-10.983,8.724v24.433H569.893v-34.9l-29.88-23.734V37.7H446.862V182.187H432.8V166.83l-12.3-9.771V144.495H411.71v11.167H401.6V123.9l-17.136-13.611V89.35H362.5v19.544H351.075V90.047H338.331v19.894l-19.769,15.707H303.619v11.864h-8.787v79.578H277.256V141.7l-12.3-9.771V80.973h-8.787v50.958l-9.667,7.677V214.3H218.377V78.88l-21.09-16.756V30.015H133.135V57.239h-21.09V78.18h-29v91.1H73.16V130.009l-25.707,20.42h-14.5v91.093H10.545V161.946H0V296.292H2045.81v-186.7H1994.4v88.652h-21.091V169.623l-34.272,27.224V169.623h-21.093V63.523h-49.209V16.055h-17.579V0Z" transform="translate(-445 84.697)" fill="#dcc0a8" opacity="0.15"/>
    </g>
    <path id="Trazado_601777" data-name="Trazado 601777" d="M8.785,76.736S-4.94,62.607,1.922,46.055,49.962-1.176,144.829.035,267.55,23.045,282.89,41.615s0,29.469-12.918,48.846-93.531,175.7-93.531,175.7-5.482,10.351-35.523,10.092S106.6,266.16,106.6,266.16Z" transform="translate(594 10640.653) rotate(-90)" fill="#91e8d6"/>
    <ellipse id="Elipse_5620" data-name="Elipse 5620" cx="134.488" cy="48.802" rx="134.488" ry="48.802" transform="translate(601.681 10628.628) rotate(-90)" fill="url(#linear-gradient-2)"/>
    <rect id="Rectángulo_46819" data-name="Rectángulo 46819" width="254" height="54" rx="16" transform="translate(390 10550)" fill="#144567"/>
    <rect id="Rectángulo_46820" data-name="Rectángulo 46820" width="254" height="54" rx="16" transform="translate(435 10469)" fill="#1e3e54"/>
    <rect id="Rectángulo_46821" data-name="Rectángulo 46821" width="222" height="66" rx="16" transform="translate(976 10554)" fill="#4a4a4a"/>
    <rect id="Rectángulo_46822" data-name="Rectángulo 46822" width="254" height="54" rx="16" transform="translate(390 10387)" fill="#144567"/>
    <path id="Trazado_603518" data-name="Trazado 603518" d="M8.292,10.6H3.329v3.719h5.8V16h-7.9V3.914H9.073V5.607H3.329V8.944H8.292Zm5.3,2.839,1.9-6.425h2.083L14.468,16H12.717L9.579,7.019h2.092ZM24.081,16a3.113,3.113,0,0,1-.232-.838,3.393,3.393,0,0,1-4.565.232,2.47,2.47,0,0,1-.855-1.909,2.55,2.55,0,0,1,1.067-2.2,5.169,5.169,0,0,1,3.051-.768h1.237V9.924a1.573,1.573,0,0,0-.39-1.116A1.547,1.547,0,0,0,22.2,8.388a1.777,1.777,0,0,0-1.129.344,1.066,1.066,0,0,0-.44.876H18.619a2.239,2.239,0,0,1,.49-1.382,3.263,3.263,0,0,1,1.332-1.009,4.68,4.68,0,0,1,1.88-.365,3.769,3.769,0,0,1,2.515.793A2.827,2.827,0,0,1,25.8,9.874v4.051a4.591,4.591,0,0,0,.34,1.934V16Zm-2.216-1.453a2.294,2.294,0,0,0,1.125-.291,1.941,1.941,0,0,0,.793-.78V11.783H22.694a2.973,2.973,0,0,0-1.685.39,1.264,1.264,0,0,0-.564,1.1,1.179,1.179,0,0,0,.386.926A1.5,1.5,0,0,0,21.864,14.547ZM30.057,16H28.04V3.25h2.017Zm7.637-.88a3.128,3.128,0,0,1-2.523,1.046,2.788,2.788,0,0,1-2.212-.855,3.637,3.637,0,0,1-.751-2.474V7.019h2.017v5.794q0,1.71,1.419,1.71a1.993,1.993,0,0,0,1.984-1.054V7.019h2.017V16h-1.9Zm9.372.88a3.113,3.113,0,0,1-.232-.838,3.393,3.393,0,0,1-4.565.232,2.47,2.47,0,0,1-.855-1.909,2.55,2.55,0,0,1,1.067-2.2,5.169,5.169,0,0,1,3.051-.768h1.237V9.924a1.573,1.573,0,0,0-.39-1.116,1.547,1.547,0,0,0-1.187-.419,1.777,1.777,0,0,0-1.129.344,1.066,1.066,0,0,0-.44.876H41.6a2.239,2.239,0,0,1,.49-1.382,3.263,3.263,0,0,1,1.332-1.009,4.68,4.68,0,0,1,1.88-.365,3.769,3.769,0,0,1,2.515.793,2.827,2.827,0,0,1,.963,2.229v4.051a4.591,4.591,0,0,0,.34,1.934V16Zm-2.216-1.453a2.294,2.294,0,0,0,1.125-.291,1.941,1.941,0,0,0,.793-.78V11.783H45.679a2.973,2.973,0,0,0-1.685.39,1.264,1.264,0,0,0-.564,1.1,1.179,1.179,0,0,0,.386.926A1.5,1.5,0,0,0,44.849,14.547Zm9.737.008a1.824,1.824,0,0,0,1.253-.44,1.5,1.5,0,0,0,.531-1.087h1.9a2.963,2.963,0,0,1-.523,1.565,3.43,3.43,0,0,1-1.328,1.15,3.958,3.958,0,0,1-1.81.423,3.829,3.829,0,0,1-2.988-1.22,4.84,4.84,0,0,1-1.1-3.37v-.208a4.759,4.759,0,0,1,1.1-3.283A3.8,3.8,0,0,1,54.6,6.853a3.69,3.69,0,0,1,2.611.934,3.345,3.345,0,0,1,1.058,2.453h-1.9a1.847,1.847,0,0,0-.527-1.27,1.7,1.7,0,0,0-1.258-.5,1.775,1.775,0,0,0-1.511.71,3.621,3.621,0,0,0-.54,2.154v.324a3.682,3.682,0,0,0,.527,2.179A1.773,1.773,0,0,0,54.586,14.556ZM61.94,16H59.923V7.019H61.94ZM59.8,4.686a1.071,1.071,0,0,1,.295-.772,1.113,1.113,0,0,1,.843-.307,1.127,1.127,0,0,1,.847.307,1.062,1.062,0,0,1,.3.772,1.038,1.038,0,0,1-.3.76,1.136,1.136,0,0,1-.847.3,1.122,1.122,0,0,1-.843-.3A1.046,1.046,0,0,1,59.8,4.686Zm3.959,6.74a5.3,5.3,0,0,1,.523-2.378A3.819,3.819,0,0,1,65.75,7.421a4.14,4.14,0,0,1,2.175-.569,3.923,3.923,0,0,1,2.951,1.17,4.6,4.6,0,0,1,1.224,3.1l.008.473a5.343,5.343,0,0,1-.51,2.374,3.773,3.773,0,0,1-1.461,1.619,4.17,4.17,0,0,1-2.2.573A3.9,3.9,0,0,1,64.9,14.9a4.848,4.848,0,0,1-1.141-3.374Zm2.017.174a3.619,3.619,0,0,0,.573,2.171,1.862,1.862,0,0,0,1.594.784,1.842,1.842,0,0,0,1.59-.8,4,4,0,0,0,.569-2.333,3.572,3.572,0,0,0-.585-2.158,1.973,1.973,0,0,0-3.158-.012A3.922,3.922,0,0,0,65.775,11.6ZM68.481,3.25h2.3l-2.3,2.515-1.619,0Zm7.205,3.769.058,1.038a3.229,3.229,0,0,1,2.615-1.2q2.806,0,2.855,3.212V16H79.2V10.181a1.85,1.85,0,0,0-.369-1.266A1.554,1.554,0,0,0,77.621,8.5a1.944,1.944,0,0,0-1.818,1.1V16H73.786V7.019Zm11.438,4.424a5.34,5.34,0,0,1,.963-3.333,3.085,3.085,0,0,1,2.582-1.258,2.931,2.931,0,0,1,2.308,1V3.25h2.017V16H93.168l-.1-.93a2.973,2.973,0,0,1-2.416,1.1A3.068,3.068,0,0,1,88.1,14.9,5.535,5.535,0,0,1,87.125,11.443Zm2.017.174a3.739,3.739,0,0,0,.527,2.137,1.71,1.71,0,0,0,1.5.768,1.9,1.9,0,0,0,1.81-1.1V9.583A1.876,1.876,0,0,0,91.184,8.5a1.723,1.723,0,0,0-1.511.776A4.163,4.163,0,0,0,89.142,11.617Zm11.912,4.549a4.173,4.173,0,0,1-3.109-1.208,4.381,4.381,0,0,1-1.191-3.217v-.249a5.389,5.389,0,0,1,.519-2.4,3.949,3.949,0,0,1,1.457-1.648,3.851,3.851,0,0,1,2.092-.589,3.525,3.525,0,0,1,2.835,1.17,4.949,4.949,0,0,1,1,3.312v.813H98.788a2.7,2.7,0,0,0,.743,1.76,2.23,2.23,0,0,0,1.639.647,2.731,2.731,0,0,0,2.258-1.121l1.087,1.038a3.631,3.631,0,0,1-1.44,1.249A4.509,4.509,0,0,1,101.054,16.166Zm-.241-7.695a1.7,1.7,0,0,0-1.341.581,3.012,3.012,0,0,0-.652,1.619h3.843v-.149a2.452,2.452,0,0,0-.54-1.531A1.686,1.686,0,0,0,100.813,8.471ZM108.367,16H106.35V3.25h2.017Zm6.051-4.557a5.34,5.34,0,0,1,.963-3.333,3.085,3.085,0,0,1,2.582-1.258,2.931,2.931,0,0,1,2.308,1V3.25h2.017V16h-1.826l-.1-.93a2.973,2.973,0,0,1-2.416,1.1,3.068,3.068,0,0,1-2.552-1.27A5.535,5.535,0,0,1,114.418,11.443Zm2.017.174a3.739,3.739,0,0,0,.527,2.137,1.71,1.71,0,0,0,1.5.768,1.9,1.9,0,0,0,1.81-1.1V9.583A1.876,1.876,0,0,0,118.477,8.5a1.723,1.723,0,0,0-1.511.776A4.163,4.163,0,0,0,116.435,11.617Zm11.912,4.549a4.173,4.173,0,0,1-3.109-1.208,4.381,4.381,0,0,1-1.191-3.217v-.249a5.389,5.389,0,0,1,.519-2.4,3.949,3.949,0,0,1,1.457-1.648,3.851,3.851,0,0,1,2.092-.589,3.525,3.525,0,0,1,2.835,1.17,4.949,4.949,0,0,1,1,3.312v.813h-5.869a2.7,2.7,0,0,0,.743,1.76,2.23,2.23,0,0,0,1.639.647,2.731,2.731,0,0,0,2.258-1.121l1.087,1.038a3.631,3.631,0,0,1-1.44,1.249A4.509,4.509,0,0,1,128.347,16.166Zm-.241-7.695a1.7,1.7,0,0,0-1.341.581,3.012,3.012,0,0,0-.652,1.619h3.843v-.149a2.452,2.452,0,0,0-.54-1.531A1.686,1.686,0,0,0,128.106,8.471Zm10.442,5.088a.914.914,0,0,0-.444-.822,4.723,4.723,0,0,0-1.473-.5,7.574,7.574,0,0,1-1.718-.548A2.293,2.293,0,0,1,133.4,9.575a2.391,2.391,0,0,1,.979-1.942,3.872,3.872,0,0,1,2.49-.78,4.029,4.029,0,0,1,2.6.8,2.529,2.529,0,0,1,.992,2.067h-2.017a1.243,1.243,0,0,0-.432-.967,1.654,1.654,0,0,0-1.146-.386,1.787,1.787,0,0,0-1.083.307.968.968,0,0,0-.419.822.818.818,0,0,0,.39.722,5.365,5.365,0,0,0,1.577.519,7.466,7.466,0,0,1,1.864.623,2.639,2.639,0,0,1,1,.867,2.212,2.212,0,0,1,.328,1.229,2.34,2.34,0,0,1-1,1.963,4.283,4.283,0,0,1-2.631.751,4.644,4.644,0,0,1-1.967-.4,3.238,3.238,0,0,1-1.345-1.1,2.594,2.594,0,0,1-.481-1.5h1.959a1.421,1.421,0,0,0,.54,1.1,2.1,2.1,0,0,0,1.32.386,2.04,2.04,0,0,0,1.212-.3A.938.938,0,0,0,138.548,13.56Zm7.695,2.606a4.173,4.173,0,0,1-3.109-1.208,4.381,4.381,0,0,1-1.191-3.217v-.249a5.389,5.389,0,0,1,.519-2.4,3.949,3.949,0,0,1,1.457-1.648,3.851,3.851,0,0,1,2.092-.589,3.525,3.525,0,0,1,2.835,1.17,4.949,4.949,0,0,1,1,3.312v.813h-5.869a2.7,2.7,0,0,0,.743,1.76,2.23,2.23,0,0,0,1.639.647,2.731,2.731,0,0,0,2.258-1.121l1.087,1.038a3.631,3.631,0,0,1-1.44,1.249A4.509,4.509,0,0,1,146.243,16.166ZM146,8.471a1.7,1.7,0,0,0-1.341.581,3.012,3.012,0,0,0-.652,1.619h3.843v-.149a2.452,2.452,0,0,0-.54-1.531A1.686,1.686,0,0,0,146,8.471Zm7.3-1.453.058.938a3.232,3.232,0,0,1,2.59-1.1A2.483,2.483,0,0,1,158.42,8.23a3.186,3.186,0,0,1,2.756-1.378,2.8,2.8,0,0,1,2.212.822,3.618,3.618,0,0,1,.743,2.424V16h-2.017V10.156a1.786,1.786,0,0,0-.374-1.253,1.635,1.635,0,0,0-1.237-.4,1.679,1.679,0,0,0-1.125.369,1.948,1.948,0,0,0-.61.967L158.777,16H156.76V10.09A1.439,1.439,0,0,0,155.142,8.5a1.776,1.776,0,0,0-1.718.988V16h-2.017V7.019Zm20.76,4.582a5.348,5.348,0,0,1-.946,3.324,3.287,3.287,0,0,1-4.906.27v4.258H166.2V7.019h1.859l.083.913a2.963,2.963,0,0,1,2.416-1.079,3.062,3.062,0,0,1,2.577,1.224,5.49,5.49,0,0,1,.934,3.4Zm-2.009-.174a3.746,3.746,0,0,0-.535-2.133,1.741,1.741,0,0,0-1.531-.789,1.856,1.856,0,0,0-1.776,1.021V13.51a1.873,1.873,0,0,0,1.793,1.046,1.739,1.739,0,0,0,1.507-.776A4.123,4.123,0,0,0,172.059,11.426Zm7.67,4.74a4.173,4.173,0,0,1-3.109-1.208,4.381,4.381,0,0,1-1.191-3.217v-.249a5.389,5.389,0,0,1,.519-2.4A3.949,3.949,0,0,1,177.4,7.442a3.851,3.851,0,0,1,2.092-.589,3.525,3.525,0,0,1,2.835,1.17,4.949,4.949,0,0,1,1,3.312v.813h-5.869a2.7,2.7,0,0,0,.743,1.76,2.23,2.23,0,0,0,1.639.647,2.731,2.731,0,0,0,2.258-1.121l1.087,1.038a3.631,3.631,0,0,1-1.44,1.249A4.509,4.509,0,0,1,179.729,16.166Zm-.241-7.695a1.7,1.7,0,0,0-1.341.581,3.012,3.012,0,0,0-.652,1.619h3.843v-.149a2.452,2.452,0,0,0-.54-1.531A1.686,1.686,0,0,0,179.488,8.471Zm7.28-1.453.058,1.038a3.229,3.229,0,0,1,2.615-1.2q2.806,0,2.855,3.212V16h-2.017V10.181a1.85,1.85,0,0,0-.369-1.266A1.554,1.554,0,0,0,188.7,8.5a1.944,1.944,0,0,0-1.818,1.1V16h-2.017V7.019Zm4.9-3.586a2.231,2.231,0,0,1-.527,1.519,1.681,1.681,0,0,1-1.324.606,1.972,1.972,0,0,1-.56-.071,3.564,3.564,0,0,1-.672-.32,3.323,3.323,0,0,0-.614-.3,1.465,1.465,0,0,0-.394-.05.7.7,0,0,0-.535.237.872.872,0,0,0-.22.618l-1.237-.066a2.3,2.3,0,0,1,.527-1.536,1.654,1.654,0,0,1,1.316-.623,2.449,2.449,0,0,1,1.141.374,2.413,2.413,0,0,0,1.1.374.717.717,0,0,0,.54-.237.874.874,0,0,0,.224-.627Zm2.308,7.994a5.3,5.3,0,0,1,.523-2.378,3.819,3.819,0,0,1,1.469-1.627,4.14,4.14,0,0,1,2.175-.569,3.923,3.923,0,0,1,2.951,1.17,4.6,4.6,0,0,1,1.224,3.1l.008.473a5.343,5.343,0,0,1-.51,2.374,3.773,3.773,0,0,1-1.461,1.619,4.17,4.17,0,0,1-2.2.573,3.9,3.9,0,0,1-3.042-1.266,4.848,4.848,0,0,1-1.141-3.374Zm2.017.174a3.619,3.619,0,0,0,.573,2.171,1.862,1.862,0,0,0,1.594.784,1.842,1.842,0,0,0,1.59-.8,4,4,0,0,0,.569-2.333,3.572,3.572,0,0,0-.585-2.158,1.973,1.973,0,0,0-3.158-.012A3.922,3.922,0,0,0,195.99,11.6Z" transform="translate(415 10567)" fill="#fff"/>
    <path id="Trazado_603517" data-name="Trazado 603517" d="M8.292,10.6H3.329v3.719h5.8V16h-7.9V3.914H9.073V5.607H3.329V8.944H8.292Zm4.225-3.586.058,1.038a3.229,3.229,0,0,1,2.615-1.2q2.806,0,2.855,3.212V16H16.029V10.181a1.85,1.85,0,0,0-.369-1.266A1.554,1.554,0,0,0,14.452,8.5a1.944,1.944,0,0,0-1.818,1.1V16H10.617V7.019ZM20.81,16V8.513H19.44V7.019h1.37V6.2a3.085,3.085,0,0,1,.83-2.308,3.18,3.18,0,0,1,2.324-.813,4.662,4.662,0,0,1,1.129.149L25.043,4.8a3.973,3.973,0,0,0-.772-.066,1.3,1.3,0,0,0-1.444,1.486v.8h1.826V8.513H22.827V16Zm4.939-4.574a5.3,5.3,0,0,1,.523-2.378,3.819,3.819,0,0,1,1.469-1.627,4.14,4.14,0,0,1,2.175-.569,3.923,3.923,0,0,1,2.951,1.17,4.6,4.6,0,0,1,1.224,3.1l.008.473a5.343,5.343,0,0,1-.51,2.374,3.773,3.773,0,0,1-1.461,1.619,4.17,4.17,0,0,1-2.2.573A3.9,3.9,0,0,1,26.89,14.9a4.848,4.848,0,0,1-1.141-3.374Zm2.017.174a3.619,3.619,0,0,0,.573,2.171,1.862,1.862,0,0,0,1.594.784,1.842,1.842,0,0,0,1.59-.8,4,4,0,0,0,.569-2.333,3.572,3.572,0,0,0-.585-2.158,1.973,1.973,0,0,0-3.158-.012A3.922,3.922,0,0,0,27.766,11.6Zm7.662-.166a5.307,5.307,0,0,1,.963-3.345A3.129,3.129,0,0,1,39,6.853a2.941,2.941,0,0,1,2.382,1.054l.116-.888h1.793V19.453H41.271V15.236a3.011,3.011,0,0,1-2.291.93A3.1,3.1,0,0,1,36.4,14.908,5.557,5.557,0,0,1,35.428,11.435Zm2.017.174a3.748,3.748,0,0,0,.544,2.162,1.733,1.733,0,0,0,1.507.784,1.911,1.911,0,0,0,1.776-1.021V9.451a1.912,1.912,0,0,0-1.76-.979A1.762,1.762,0,0,0,38,9.243,4.089,4.089,0,0,0,37.445,11.609ZM50.9,15.12a3.128,3.128,0,0,1-2.523,1.046,2.788,2.788,0,0,1-2.212-.855,3.637,3.637,0,0,1-.751-2.474V7.019h2.017v5.794q0,1.71,1.419,1.71a1.993,1.993,0,0,0,1.984-1.054V7.019h2.017V16h-1.9Zm7.96,1.046a4.173,4.173,0,0,1-3.109-1.208,4.381,4.381,0,0,1-1.191-3.217v-.249a5.389,5.389,0,0,1,.519-2.4,3.949,3.949,0,0,1,1.457-1.648,3.851,3.851,0,0,1,2.092-.589,3.525,3.525,0,0,1,2.835,1.17,4.949,4.949,0,0,1,1,3.312v.813H56.595a2.7,2.7,0,0,0,.743,1.76,2.23,2.23,0,0,0,1.639.647,2.731,2.731,0,0,0,2.258-1.121l1.087,1.038a3.631,3.631,0,0,1-1.44,1.249A4.509,4.509,0,0,1,58.861,16.166ZM58.62,8.471a1.7,1.7,0,0,0-1.341.581,3.012,3.012,0,0,0-.652,1.619h3.843v-.149a2.452,2.452,0,0,0-.54-1.531A1.686,1.686,0,0,0,58.62,8.471ZM73.628,16a3.113,3.113,0,0,1-.232-.838,3.393,3.393,0,0,1-4.565.232,2.47,2.47,0,0,1-.855-1.909,2.55,2.55,0,0,1,1.067-2.2,5.169,5.169,0,0,1,3.051-.768h1.237V9.924a1.573,1.573,0,0,0-.39-1.116,1.547,1.547,0,0,0-1.187-.419,1.777,1.777,0,0,0-1.129.344,1.066,1.066,0,0,0-.44.876H68.166a2.239,2.239,0,0,1,.49-1.382,3.263,3.263,0,0,1,1.332-1.009,4.68,4.68,0,0,1,1.88-.365,3.769,3.769,0,0,1,2.515.793,2.827,2.827,0,0,1,.963,2.229v4.051a4.591,4.591,0,0,0,.34,1.934V16Zm-2.216-1.453a2.294,2.294,0,0,0,1.125-.291,1.941,1.941,0,0,0,.793-.78V11.783H72.242a2.973,2.973,0,0,0-1.685.39,1.264,1.264,0,0,0-.564,1.1,1.179,1.179,0,0,0,.386.926A1.5,1.5,0,0,0,71.412,14.547ZM79.6,16H77.587V3.25H79.6ZM84.328,4.835V7.019h1.585V8.513H84.328v5.014a1.1,1.1,0,0,0,.2.743.943.943,0,0,0,.726.228,3.107,3.107,0,0,0,.706-.083v1.561a4.968,4.968,0,0,1-1.328.191q-2.324,0-2.324-2.565V8.513H80.833V7.019h1.478V4.835ZM92.819,16a3.113,3.113,0,0,1-.232-.838,3.393,3.393,0,0,1-4.565.232,2.47,2.47,0,0,1-.855-1.909,2.55,2.55,0,0,1,1.067-2.2,5.169,5.169,0,0,1,3.051-.768h1.237V9.924a1.573,1.573,0,0,0-.39-1.116,1.547,1.547,0,0,0-1.187-.419,1.777,1.777,0,0,0-1.129.344,1.066,1.066,0,0,0-.44.876H87.357a2.239,2.239,0,0,1,.49-1.382,3.263,3.263,0,0,1,1.332-1.009,4.68,4.68,0,0,1,1.88-.365,3.769,3.769,0,0,1,2.515.793,2.827,2.827,0,0,1,.963,2.229v4.051a4.591,4.591,0,0,0,.34,1.934V16ZM90.6,14.547a2.294,2.294,0,0,0,1.125-.291,1.941,1.941,0,0,0,.793-.78V11.783H91.433a2.973,2.973,0,0,0-1.685.39,1.264,1.264,0,0,0-.564,1.1,1.179,1.179,0,0,0,.386.926A1.5,1.5,0,0,0,90.6,14.547Zm9.9-3.1a5.34,5.34,0,0,1,.963-3.333,3.085,3.085,0,0,1,2.582-1.258,2.931,2.931,0,0,1,2.308,1V3.25h2.017V16h-1.826l-.1-.93a2.973,2.973,0,0,1-2.416,1.1,3.068,3.068,0,0,1-2.552-1.27A5.535,5.535,0,0,1,100.506,11.443Zm2.017.174a3.739,3.739,0,0,0,.527,2.137,1.71,1.71,0,0,0,1.5.768,1.9,1.9,0,0,0,1.81-1.1V9.583A1.876,1.876,0,0,0,104.565,8.5a1.723,1.723,0,0,0-1.511.776A4.163,4.163,0,0,0,102.523,11.617ZM112.625,16h-2.017V7.019h2.017ZM110.483,4.686a1.071,1.071,0,0,1,.295-.772,1.113,1.113,0,0,1,.843-.307,1.127,1.127,0,0,1,.847.307,1.062,1.062,0,0,1,.3.772,1.038,1.038,0,0,1-.3.76,1.136,1.136,0,0,1-.847.3,1.122,1.122,0,0,1-.843-.3A1.046,1.046,0,0,1,110.483,4.686Zm9.04,4.175a4.991,4.991,0,0,0-.822-.066,1.85,1.85,0,0,0-1.868,1.063V16h-2.017V7.019h1.926l.05,1a2.273,2.273,0,0,1,2.025-1.17,1.888,1.888,0,0,1,.714.116Zm5.072,7.3a4.173,4.173,0,0,1-3.109-1.208,4.381,4.381,0,0,1-1.191-3.217v-.249a5.389,5.389,0,0,1,.519-2.4,3.949,3.949,0,0,1,1.457-1.648,3.851,3.851,0,0,1,2.092-.589,3.525,3.525,0,0,1,2.835,1.17,4.949,4.949,0,0,1,1,3.312v.813h-5.869a2.7,2.7,0,0,0,.743,1.76,2.23,2.23,0,0,0,1.639.647,2.731,2.731,0,0,0,2.258-1.121l1.087,1.038a3.631,3.631,0,0,1-1.44,1.249A4.509,4.509,0,0,1,124.595,16.166Zm-.241-7.695a1.7,1.7,0,0,0-1.341.581,3.012,3.012,0,0,0-.652,1.619h3.843v-.149a2.452,2.452,0,0,0-.54-1.531A1.686,1.686,0,0,0,124.354,8.471Zm9.1,6.084a1.824,1.824,0,0,0,1.253-.44,1.5,1.5,0,0,0,.531-1.087h1.9a2.963,2.963,0,0,1-.523,1.565,3.43,3.43,0,0,1-1.328,1.15,3.958,3.958,0,0,1-1.81.423,3.829,3.829,0,0,1-2.988-1.22,4.84,4.84,0,0,1-1.1-3.37v-.208a4.759,4.759,0,0,1,1.1-3.283,3.8,3.8,0,0,1,2.988-1.233,3.69,3.69,0,0,1,2.611.934,3.345,3.345,0,0,1,1.058,2.453h-1.9a1.847,1.847,0,0,0-.527-1.27,1.7,1.7,0,0,0-1.258-.5,1.775,1.775,0,0,0-1.511.71,3.621,3.621,0,0,0-.54,2.154v.324a3.682,3.682,0,0,0,.527,2.179A1.773,1.773,0,0,0,133.452,14.556Zm8.9,0a1.824,1.824,0,0,0,1.253-.44,1.5,1.5,0,0,0,.531-1.087h1.9a2.963,2.963,0,0,1-.523,1.565,3.43,3.43,0,0,1-1.328,1.15,3.958,3.958,0,0,1-1.81.423,3.829,3.829,0,0,1-2.988-1.22,4.84,4.84,0,0,1-1.1-3.37v-.208a4.759,4.759,0,0,1,1.1-3.283,3.8,3.8,0,0,1,2.988-1.233,3.69,3.69,0,0,1,2.611.934,3.345,3.345,0,0,1,1.058,2.453h-1.9a1.847,1.847,0,0,0-.527-1.27,1.7,1.7,0,0,0-1.258-.5,1.775,1.775,0,0,0-1.511.71,3.621,3.621,0,0,0-.54,2.154v.324a3.682,3.682,0,0,0,.527,2.179A1.773,1.773,0,0,0,142.35,14.556ZM149.7,16h-2.017V7.019H149.7ZM147.563,4.686a1.07,1.07,0,0,1,.295-.772,1.113,1.113,0,0,1,.843-.307,1.127,1.127,0,0,1,.847.307,1.062,1.062,0,0,1,.3.772,1.038,1.038,0,0,1-.3.76,1.136,1.136,0,0,1-.847.3,1.122,1.122,0,0,1-.843-.3A1.046,1.046,0,0,1,147.563,4.686Zm3.959,6.74a5.3,5.3,0,0,1,.523-2.378,3.819,3.819,0,0,1,1.469-1.627,4.14,4.14,0,0,1,2.175-.569,3.923,3.923,0,0,1,2.951,1.17,4.6,4.6,0,0,1,1.224,3.1l.008.473a5.343,5.343,0,0,1-.51,2.374,3.773,3.773,0,0,1-1.461,1.619,4.17,4.17,0,0,1-2.2.573,3.9,3.9,0,0,1-3.042-1.266,4.848,4.848,0,0,1-1.141-3.374Zm2.017.174a3.619,3.619,0,0,0,.573,2.171,1.862,1.862,0,0,0,1.594.784,1.842,1.842,0,0,0,1.59-.8,4,4,0,0,0,.569-2.333,3.572,3.572,0,0,0-.585-2.158,1.973,1.973,0,0,0-3.158-.012A3.922,3.922,0,0,0,153.54,11.6Zm2.706-8.351h2.3l-2.3,2.515-1.619,0Zm7.205,3.769.058,1.038a3.229,3.229,0,0,1,2.615-1.2q2.806,0,2.855,3.212V16h-2.017V10.181a1.85,1.85,0,0,0-.369-1.266,1.554,1.554,0,0,0-1.208-.411,1.944,1.944,0,0,0-1.818,1.1V16H161.55V7.019Z" transform="translate(476 10486)" fill="#fff"/>
    <path id="Trazado_603516" data-name="Trazado 603516" d="M10.874,10.272a7.415,7.415,0,0,1-.614,3.117A4.644,4.644,0,0,1,8.5,15.448a4.829,4.829,0,0,1-2.627.718,4.84,4.84,0,0,1-2.619-.718A4.716,4.716,0,0,1,1.482,13.4a7.183,7.183,0,0,1-.635-3.063V9.658a7.351,7.351,0,0,1,.627-3.121A4.71,4.71,0,0,1,3.241,4.466,4.814,4.814,0,0,1,5.86,3.748a4.856,4.856,0,0,1,2.619.71A4.65,4.65,0,0,1,10.243,6.5a7.336,7.336,0,0,1,.631,3.1Zm-2.1-.631a5.283,5.283,0,0,0-.76-3.08A2.485,2.485,0,0,0,5.86,5.491,2.477,2.477,0,0,0,3.731,6.558a5.181,5.181,0,0,0-.784,3.017v.7a5.243,5.243,0,0,0,.776,3.08,2.5,2.5,0,0,0,2.154,1.087,2.47,2.47,0,0,0,2.146-1.062,5.356,5.356,0,0,0,.751-3.1ZM20.636,11.6a5.348,5.348,0,0,1-.946,3.324,3.031,3.031,0,0,1-2.54,1.241,3.051,3.051,0,0,1-2.366-.971v4.258H12.767V7.019h1.859l.083.913a2.963,2.963,0,0,1,2.416-1.079A3.062,3.062,0,0,1,19.7,8.077a5.49,5.49,0,0,1,.934,3.4Zm-2.009-.174a3.746,3.746,0,0,0-.535-2.133A1.741,1.741,0,0,0,16.56,8.5a1.856,1.856,0,0,0-1.776,1.021V13.51a1.873,1.873,0,0,0,1.793,1.046,1.739,1.739,0,0,0,1.507-.776A4.124,4.124,0,0,0,18.627,11.426Zm7.67,4.74a4.173,4.173,0,0,1-3.109-1.208A4.381,4.381,0,0,1,22,11.742v-.249a5.389,5.389,0,0,1,.519-2.4,3.949,3.949,0,0,1,1.457-1.648,3.851,3.851,0,0,1,2.092-.589A3.525,3.525,0,0,1,28.9,8.023a4.949,4.949,0,0,1,1,3.312v.813H24.031a2.7,2.7,0,0,0,.743,1.76,2.23,2.23,0,0,0,1.639.647,2.731,2.731,0,0,0,2.258-1.121l1.087,1.038a3.631,3.631,0,0,1-1.44,1.249A4.509,4.509,0,0,1,26.3,16.166Zm-.241-7.695a1.7,1.7,0,0,0-1.341.581,3.012,3.012,0,0,0-.652,1.619h3.843v-.149a2.452,2.452,0,0,0-.54-1.531A1.686,1.686,0,0,0,26.056,8.471Zm10.11.39a4.991,4.991,0,0,0-.822-.066,1.85,1.85,0,0,0-1.868,1.063V16H31.46V7.019h1.926l.05,1a2.273,2.273,0,0,1,2.025-1.17,1.888,1.888,0,0,1,.714.116ZM42.558,16a3.113,3.113,0,0,1-.232-.838,3.393,3.393,0,0,1-4.565.232,2.47,2.47,0,0,1-.855-1.909,2.55,2.55,0,0,1,1.067-2.2,5.169,5.169,0,0,1,3.051-.768h1.237V9.924a1.573,1.573,0,0,0-.39-1.116,1.547,1.547,0,0,0-1.187-.419,1.777,1.777,0,0,0-1.129.344,1.066,1.066,0,0,0-.44.876H37.1a2.239,2.239,0,0,1,.49-1.382,3.263,3.263,0,0,1,1.332-1.009,4.68,4.68,0,0,1,1.88-.365,3.769,3.769,0,0,1,2.515.793,2.827,2.827,0,0,1,.963,2.229v4.051a4.591,4.591,0,0,0,.34,1.934V16Zm-2.216-1.453a2.294,2.294,0,0,0,1.125-.291,1.941,1.941,0,0,0,.793-.78V11.783H41.172a2.973,2.973,0,0,0-1.685.39,1.264,1.264,0,0,0-.564,1.1,1.179,1.179,0,0,0,.386.926A1.5,1.5,0,0,0,40.342,14.547Zm9.737.008a1.824,1.824,0,0,0,1.253-.44,1.5,1.5,0,0,0,.531-1.087h1.9a2.963,2.963,0,0,1-.523,1.565,3.43,3.43,0,0,1-1.328,1.15,3.958,3.958,0,0,1-1.81.423,3.829,3.829,0,0,1-2.988-1.22,4.84,4.84,0,0,1-1.1-3.37v-.208a4.759,4.759,0,0,1,1.1-3.283A3.8,3.8,0,0,1,50.1,6.853a3.69,3.69,0,0,1,2.611.934,3.345,3.345,0,0,1,1.058,2.453h-1.9a1.847,1.847,0,0,0-.527-1.27,1.7,1.7,0,0,0-1.258-.5,1.775,1.775,0,0,0-1.511.71,3.621,3.621,0,0,0-.54,2.154v.324a3.682,3.682,0,0,0,.527,2.179A1.773,1.773,0,0,0,50.079,14.556ZM57.433,16H55.416V7.019h2.017ZM55.292,4.686a1.071,1.071,0,0,1,.295-.772,1.113,1.113,0,0,1,.843-.307,1.127,1.127,0,0,1,.847.307,1.062,1.062,0,0,1,.3.772,1.038,1.038,0,0,1-.3.76,1.136,1.136,0,0,1-.847.3,1.122,1.122,0,0,1-.843-.3A1.046,1.046,0,0,1,55.292,4.686Zm3.959,6.74a5.3,5.3,0,0,1,.523-2.378,3.819,3.819,0,0,1,1.469-1.627,4.14,4.14,0,0,1,2.175-.569,3.923,3.923,0,0,1,2.951,1.17,4.6,4.6,0,0,1,1.224,3.1l.008.473a5.343,5.343,0,0,1-.51,2.374,3.773,3.773,0,0,1-1.461,1.619,4.17,4.17,0,0,1-2.2.573A3.9,3.9,0,0,1,60.392,14.9a4.848,4.848,0,0,1-1.141-3.374Zm2.017.174a3.619,3.619,0,0,0,.573,2.171,1.862,1.862,0,0,0,1.594.784,1.842,1.842,0,0,0,1.59-.8,4,4,0,0,0,.569-2.333,3.572,3.572,0,0,0-.585-2.158,1.973,1.973,0,0,0-3.158-.012A3.922,3.922,0,0,0,61.268,11.6ZM63.974,3.25h2.3l-2.3,2.515-1.619,0Zm7.205,3.769.058,1.038a3.229,3.229,0,0,1,2.615-1.2q2.806,0,2.855,3.212V16H74.69V10.181a1.85,1.85,0,0,0-.369-1.266A1.554,1.554,0,0,0,73.113,8.5a1.944,1.944,0,0,0-1.818,1.1V16H69.278V7.019Z" transform="translate(477 10404)" fill="#fff"/>
    <g id="Grupo_160826" data-name="Grupo 160826" transform="translate(284 10483)">
      <g id="Grupo_160577" data-name="Grupo 160577" transform="translate(653.269)">
        <g id="Grupo_160577-2" data-name="Grupo 160577" clip-path="url(#clip-path-2)">
          <path id="Trazado_600822" data-name="Trazado 600822" d="M15.325,35a2.615,2.615,0,0,1-1.849-4.464L26.511,17.5,13.475,4.464a2.615,2.615,0,1,1,3.7-3.7L32.058,15.651a2.615,2.615,0,0,1,0,3.7L17.174,34.234A2.611,2.611,0,0,1,15.325,35" transform="translate(-6.094 0)" fill="#395e56"/>
        </g>
      </g>
      <rect id="Rectángulo_46640" data-name="Rectángulo 46640" width="58.269" height="5" rx="2.5" transform="translate(606 15)" fill="#395e56"/>
      <path id="Trazado_600828" data-name="Trazado 600828" d="M14.562,24.8a1.853,1.853,0,0,1-1.31-3.163L22.488,12.4,13.252,3.163a1.853,1.853,0,0,1,2.62-2.62L26.418,11.089a1.853,1.853,0,0,1,0,2.62L15.872,24.255a1.85,1.85,0,0,1-1.31.543" transform="translate(640.56 5)" fill="#395e56"/>
    </g>
    <path id="Trazado_603520" data-name="Trazado 603520" d="M7.545,12.887a1.459,1.459,0,0,0-.56-1.229,6.741,6.741,0,0,0-2.021-.872A9.76,9.76,0,0,1,2.64,9.808,3.1,3.1,0,0,1,.988,7.1,2.945,2.945,0,0,1,2.179,4.694a4.821,4.821,0,0,1,3.092-.946,5.223,5.223,0,0,1,2.25.465A3.692,3.692,0,0,1,9.073,5.537a3.4,3.4,0,0,1,.564,1.905H7.545A1.894,1.894,0,0,0,6.952,5.96a2.45,2.45,0,0,0-1.7-.535,2.558,2.558,0,0,0-1.6.44,1.465,1.465,0,0,0-.569,1.229A1.325,1.325,0,0,0,3.7,8.2a7.076,7.076,0,0,0,2.025.863,9.317,9.317,0,0,1,2.266.955,3.6,3.6,0,0,1,1.253,1.229,3.2,3.2,0,0,1,.4,1.623,2.876,2.876,0,0,1-1.158,2.4,5.023,5.023,0,0,1-3.142.892,5.9,5.9,0,0,1-2.411-.486,4.051,4.051,0,0,1-1.71-1.341,3.341,3.341,0,0,1-.61-1.992h2.1A1.955,1.955,0,0,0,3.4,13.941a2.981,2.981,0,0,0,1.951.564,2.59,2.59,0,0,0,1.648-.444A1.433,1.433,0,0,0,7.545,12.887Zm7.7,3.279a4.173,4.173,0,0,1-3.109-1.208,4.381,4.381,0,0,1-1.191-3.217v-.249a5.389,5.389,0,0,1,.519-2.4,3.949,3.949,0,0,1,1.457-1.648,3.851,3.851,0,0,1,2.092-.589,3.525,3.525,0,0,1,2.835,1.17,4.949,4.949,0,0,1,1,3.312v.813H12.982a2.7,2.7,0,0,0,.743,1.76,2.23,2.23,0,0,0,1.639.647,2.731,2.731,0,0,0,2.258-1.121l1.087,1.038a3.631,3.631,0,0,1-1.44,1.249A4.509,4.509,0,0,1,15.249,16.166Zm-.241-7.695a1.7,1.7,0,0,0-1.341.581,3.012,3.012,0,0,0-.652,1.619h3.843v-.149a2.452,2.452,0,0,0-.54-1.531A1.686,1.686,0,0,0,15.008,8.471Zm10.11.39a4.991,4.991,0,0,0-.822-.066,1.85,1.85,0,0,0-1.868,1.063V16H20.412V7.019h1.926l.05,1a2.273,2.273,0,0,1,2.025-1.17,1.888,1.888,0,0,1,.714.116Zm4.59,4.582,1.9-6.425h2.083L30.58,16H28.829L25.691,7.019h2.092ZM37.1,16H35.079V7.019H37.1ZM34.955,4.686a1.071,1.071,0,0,1,.295-.772,1.113,1.113,0,0,1,.843-.307,1.127,1.127,0,0,1,.847.307,1.062,1.062,0,0,1,.3.772,1.038,1.038,0,0,1-.3.76,1.136,1.136,0,0,1-.847.3,1.122,1.122,0,0,1-.843-.3A1.046,1.046,0,0,1,34.955,4.686Zm8.027,9.87a1.824,1.824,0,0,0,1.253-.44,1.5,1.5,0,0,0,.531-1.087h1.9a2.963,2.963,0,0,1-.523,1.565,3.43,3.43,0,0,1-1.328,1.15,3.958,3.958,0,0,1-1.81.423,3.829,3.829,0,0,1-2.988-1.22,4.84,4.84,0,0,1-1.1-3.37v-.208a4.759,4.759,0,0,1,1.1-3.283A3.8,3.8,0,0,1,43,6.853a3.69,3.69,0,0,1,2.611.934,3.345,3.345,0,0,1,1.058,2.453h-1.9a1.847,1.847,0,0,0-.527-1.27,1.7,1.7,0,0,0-1.258-.5,1.775,1.775,0,0,0-1.511.71,3.621,3.621,0,0,0-.54,2.154v.324a3.682,3.682,0,0,0,.527,2.179A1.773,1.773,0,0,0,42.981,14.556ZM50.336,16H48.319V7.019h2.017ZM48.194,4.686a1.071,1.071,0,0,1,.295-.772,1.113,1.113,0,0,1,.843-.307,1.127,1.127,0,0,1,.847.307,1.062,1.062,0,0,1,.3.772,1.038,1.038,0,0,1-.3.76,1.136,1.136,0,0,1-.847.3,1.122,1.122,0,0,1-.843-.3A1.046,1.046,0,0,1,48.194,4.686Zm3.959,6.74a5.3,5.3,0,0,1,.523-2.378,3.819,3.819,0,0,1,1.469-1.627,4.14,4.14,0,0,1,2.175-.569,3.923,3.923,0,0,1,2.951,1.17,4.6,4.6,0,0,1,1.224,3.1l.008.473a5.343,5.343,0,0,1-.51,2.374,3.773,3.773,0,0,1-1.461,1.619,4.17,4.17,0,0,1-2.2.573A3.9,3.9,0,0,1,53.3,14.9a4.848,4.848,0,0,1-1.141-3.374Zm2.017.174a3.619,3.619,0,0,0,.573,2.171,1.862,1.862,0,0,0,1.594.784,1.842,1.842,0,0,0,1.59-.8,4,4,0,0,0,.569-2.333,3.572,3.572,0,0,0-.585-2.158,1.973,1.973,0,0,0-3.158-.012A3.922,3.922,0,0,0,54.171,11.6ZM71.81,16a3.113,3.113,0,0,1-.232-.838,3.393,3.393,0,0,1-4.565.232,2.47,2.47,0,0,1-.855-1.909,2.55,2.55,0,0,1,1.067-2.2,5.169,5.169,0,0,1,3.051-.768h1.237V9.924a1.573,1.573,0,0,0-.39-1.116,1.547,1.547,0,0,0-1.187-.419,1.777,1.777,0,0,0-1.129.344,1.066,1.066,0,0,0-.44.876H66.348a2.239,2.239,0,0,1,.49-1.382A3.263,3.263,0,0,1,68.17,7.218a4.68,4.68,0,0,1,1.88-.365,3.769,3.769,0,0,1,2.515.793,2.827,2.827,0,0,1,.963,2.229v4.051a4.591,4.591,0,0,0,.34,1.934V16Zm-2.216-1.453a2.294,2.294,0,0,0,1.125-.291,1.941,1.941,0,0,0,.793-.78V11.783H70.424a2.973,2.973,0,0,0-1.685.39,1.264,1.264,0,0,0-.564,1.1,1.179,1.179,0,0,0,.386.926A1.5,1.5,0,0,0,69.594,14.547ZM77.787,16H75.77V3.25h2.017Zm15.846-3.935a4.364,4.364,0,0,1-1.428,3.017,4.867,4.867,0,0,1-3.312,1.083,4.713,4.713,0,0,1-2.544-.685,4.5,4.5,0,0,1-1.7-1.947,7.024,7.024,0,0,1-.623-2.93V9.476a7.075,7.075,0,0,1,.606-3.013,4.567,4.567,0,0,1,1.739-2.009,4.851,4.851,0,0,1,2.619-.706,4.672,4.672,0,0,1,3.221,1.083A4.527,4.527,0,0,1,93.633,7.9H91.541a2.985,2.985,0,0,0-.76-1.88,2.51,2.51,0,0,0-1.789-.577,2.452,2.452,0,0,0-2.1,1,5,5,0,0,0-.751,2.937v1.072a5.308,5.308,0,0,0,.7,2.991,2.328,2.328,0,0,0,2.054,1.03,2.715,2.715,0,0,0,1.859-.556,2.9,2.9,0,0,0,.789-1.851ZM97.459,16H95.442V3.25h2.017Zm4.341,0H99.784V7.019H101.8ZM99.659,4.686a1.071,1.071,0,0,1,.295-.772,1.113,1.113,0,0,1,.843-.307,1.127,1.127,0,0,1,.847.307,1.062,1.062,0,0,1,.3.772,1.038,1.038,0,0,1-.3.76,1.136,1.136,0,0,1-.847.3,1.122,1.122,0,0,1-.843-.3A1.046,1.046,0,0,1,99.659,4.686Zm8.292,11.48a4.173,4.173,0,0,1-3.109-1.208,4.381,4.381,0,0,1-1.191-3.217v-.249a5.389,5.389,0,0,1,.519-2.4,3.949,3.949,0,0,1,1.457-1.648,3.851,3.851,0,0,1,2.092-.589,3.525,3.525,0,0,1,2.835,1.17,4.949,4.949,0,0,1,1,3.312v.813h-5.869a2.7,2.7,0,0,0,.743,1.76,2.23,2.23,0,0,0,1.639.647,2.731,2.731,0,0,0,2.258-1.121l1.087,1.038a3.631,3.631,0,0,1-1.44,1.249A4.509,4.509,0,0,1,107.952,16.166Zm-.241-7.695a1.7,1.7,0,0,0-1.341.581,3.012,3.012,0,0,0-.652,1.619h3.843v-.149a2.452,2.452,0,0,0-.54-1.531A1.686,1.686,0,0,0,107.711,8.471Zm7.28-1.453.058,1.038a3.229,3.229,0,0,1,2.615-1.2q2.806,0,2.855,3.212V16H118.5V10.181a1.85,1.85,0,0,0-.369-1.266,1.554,1.554,0,0,0-1.208-.411,1.944,1.944,0,0,0-1.818,1.1V16H113.09V7.019ZM125.1,4.835V7.019h1.585V8.513H125.1v5.014a1.1,1.1,0,0,0,.2.743.943.943,0,0,0,.726.228,3.107,3.107,0,0,0,.706-.083v1.561a4.968,4.968,0,0,1-1.328.191q-2.324,0-2.324-2.565V8.513h-1.478V7.019h1.478V4.835Zm7.081,11.331a4.173,4.173,0,0,1-3.109-1.208,4.381,4.381,0,0,1-1.191-3.217v-.249a5.389,5.389,0,0,1,.519-2.4,3.949,3.949,0,0,1,1.457-1.648,3.851,3.851,0,0,1,2.092-.589,3.525,3.525,0,0,1,2.835,1.17,4.949,4.949,0,0,1,1,3.312v.813h-5.869a2.7,2.7,0,0,0,.743,1.76,2.23,2.23,0,0,0,1.639.647,2.731,2.731,0,0,0,2.258-1.121l1.087,1.038a3.631,3.631,0,0,1-1.44,1.249A4.509,4.509,0,0,1,132.182,16.166Zm-.241-7.695a1.7,1.7,0,0,0-1.341.581,3.012,3.012,0,0,0-.652,1.619h3.843v-.149a2.452,2.452,0,0,0-.54-1.531A1.686,1.686,0,0,0,131.941,8.471Z" transform="translate(1018 10565)" fill="#fff"/>
    <path id="Trazado_603519" data-name="Trazado 603519" d="M3.445,16H1.353V3.914H3.445Zm8.9-3.113a1.459,1.459,0,0,0-.56-1.229,6.741,6.741,0,0,0-2.021-.872,9.76,9.76,0,0,1-2.324-.979A3.1,3.1,0,0,1,5.786,7.1,2.945,2.945,0,0,1,6.977,4.694a4.821,4.821,0,0,1,3.092-.946,5.223,5.223,0,0,1,2.25.465,3.692,3.692,0,0,1,1.552,1.324,3.4,3.4,0,0,1,.564,1.905H12.343A1.894,1.894,0,0,0,11.75,5.96a2.45,2.45,0,0,0-1.7-.535,2.558,2.558,0,0,0-1.6.44,1.465,1.465,0,0,0-.569,1.229A1.325,1.325,0,0,0,8.5,8.2a7.076,7.076,0,0,0,2.025.863,9.317,9.317,0,0,1,2.266.955,3.6,3.6,0,0,1,1.253,1.229,3.2,3.2,0,0,1,.4,1.623,2.876,2.876,0,0,1-1.158,2.4,5.023,5.023,0,0,1-3.142.892,5.9,5.9,0,0,1-2.411-.486,4.051,4.051,0,0,1-1.71-1.341,3.341,3.341,0,0,1-.61-1.992h2.1a1.955,1.955,0,0,0,.681,1.594,2.981,2.981,0,0,0,1.951.564,2.59,2.59,0,0,0,1.648-.444A1.433,1.433,0,0,0,12.343,12.887Zm13.588-2.615a7.415,7.415,0,0,1-.614,3.117,4.644,4.644,0,0,1-1.756,2.059,5.15,5.15,0,0,1-5.246,0A4.716,4.716,0,0,1,16.539,13.4a7.183,7.183,0,0,1-.635-3.063V9.658a7.351,7.351,0,0,1,.627-3.121A4.71,4.71,0,0,1,18.3,4.466a5.161,5.161,0,0,1,5.238-.008A4.651,4.651,0,0,1,25.3,6.5a7.336,7.336,0,0,1,.631,3.1Zm-2.1-.631a5.283,5.283,0,0,0-.76-3.08,2.68,2.68,0,0,0-4.283,0A5.181,5.181,0,0,0,18,9.575v.7a5.243,5.243,0,0,0,.776,3.08,2.5,2.5,0,0,0,2.154,1.087,2.47,2.47,0,0,0,2.146-1.062,5.356,5.356,0,0,0,.751-3.1Zm13.821,1.3a3.3,3.3,0,0,1-4.906-.046A4.384,4.384,0,0,1,31.8,7.965,4.811,4.811,0,0,1,32.282,5.8a3.59,3.59,0,0,1,1.37-1.511,3.886,3.886,0,0,1,2.059-.54,3.491,3.491,0,0,1,2.9,1.361,5.734,5.734,0,0,1,1.071,3.644v.564A7.447,7.447,0,0,1,38.2,14.307a5.562,5.562,0,0,1-4.408,1.743h-.241V14.381h.291a4.13,4.13,0,0,0,2.739-.859A3.581,3.581,0,0,0,37.652,10.945Zm-1.942-.506a2.036,2.036,0,0,0,1.137-.349,2.3,2.3,0,0,0,.822-.963V8.338a3.786,3.786,0,0,0-.548-2.15A1.65,1.65,0,0,0,35.7,5.375a1.631,1.631,0,0,0-1.39.718,3.018,3.018,0,0,0-.519,1.814,2.981,2.981,0,0,0,.523,1.834A1.657,1.657,0,0,0,35.71,10.438Zm13.763.473a6.591,6.591,0,0,1-.975,3.93,3.445,3.445,0,0,1-2.968,1.324,3.49,3.49,0,0,1-2.951-1.291,6.311,6.311,0,0,1-1.017-3.823V8.961a6.492,6.492,0,0,1,.975-3.91,3.477,3.477,0,0,1,2.976-1.3,3.5,3.5,0,0,1,2.959,1.27,6.294,6.294,0,0,1,1,3.8ZM47.456,8.654a5.114,5.114,0,0,0-.465-2.494,1.777,1.777,0,0,0-2.93-.042,4.726,4.726,0,0,0-.49,2.345V11.2a5.246,5.246,0,0,0,.473,2.523,1.589,1.589,0,0,0,1.486.83,1.561,1.561,0,0,0,1.436-.768,4.936,4.936,0,0,0,.49-2.4Zm11.679,2.258a6.591,6.591,0,0,1-.975,3.93,3.445,3.445,0,0,1-2.968,1.324,3.49,3.49,0,0,1-2.951-1.291,6.311,6.311,0,0,1-1.017-3.823V8.961a6.492,6.492,0,0,1,.975-3.91,4.066,4.066,0,0,1,5.935-.033,6.294,6.294,0,0,1,1,3.8ZM57.118,8.654a5.114,5.114,0,0,0-.465-2.494,1.777,1.777,0,0,0-2.93-.042,4.726,4.726,0,0,0-.49,2.345V11.2a5.246,5.246,0,0,0,.473,2.523,1.589,1.589,0,0,0,1.486.83,1.561,1.561,0,0,0,1.436-.768,4.936,4.936,0,0,0,.49-2.4ZM66.381,16H64.373V6.291L61.409,7.3V5.607l4.715-1.735h.257Zm5.545-2.125a1.152,1.152,0,0,1,.872.32,1.11,1.11,0,0,1,.307.8,1.071,1.071,0,0,1-.307.784,1.36,1.36,0,0,1-1.727,0A1.053,1.053,0,0,1,70.756,15a1.11,1.11,0,0,1,.307-.8A1.141,1.141,0,0,1,71.926,13.875Zm0-7.047a1.152,1.152,0,0,1,.872.32,1.11,1.11,0,0,1,.307.8,1.071,1.071,0,0,1-.307.784,1.36,1.36,0,0,1-1.727,0,1.053,1.053,0,0,1-.315-.789,1.11,1.11,0,0,1,.307-.8A1.141,1.141,0,0,1,71.926,6.828ZM83.215,16H75.089V14.614l4.026-4.391A10.025,10.025,0,0,0,80.356,8.6a2.629,2.629,0,0,0,.369-1.307A1.986,1.986,0,0,0,80.24,5.9a1.684,1.684,0,0,0-1.307-.531,1.942,1.942,0,0,0-1.519.6,2.35,2.35,0,0,0-.54,1.635H74.856a3.953,3.953,0,0,1,.5-1.988,3.458,3.458,0,0,1,1.436-1.374,4.571,4.571,0,0,1,2.154-.49,4.088,4.088,0,0,1,2.777.884,3.069,3.069,0,0,1,1.017,2.445,4.148,4.148,0,0,1-.51,1.9,10.785,10.785,0,0,1-1.673,2.254L77.6,14.39h5.611Zm9.413-5.088a6.591,6.591,0,0,1-.975,3.93,3.445,3.445,0,0,1-2.968,1.324,3.49,3.49,0,0,1-2.951-1.291,6.312,6.312,0,0,1-1.017-3.823V8.961a6.492,6.492,0,0,1,.975-3.91,4.066,4.066,0,0,1,5.935-.033,6.294,6.294,0,0,1,1,3.8ZM90.611,8.654a5.114,5.114,0,0,0-.465-2.494,1.777,1.777,0,0,0-2.93-.042,4.726,4.726,0,0,0-.49,2.345V11.2a5.246,5.246,0,0,0,.473,2.523,1.589,1.589,0,0,0,1.486.83,1.561,1.561,0,0,0,1.436-.768,4.936,4.936,0,0,0,.49-2.4ZM99.875,16H97.866V6.291L94.9,7.3V5.607l4.715-1.735h.257Zm4.74-5.993.656-6.093h6.491V5.657h-4.814l-.332,2.889a3.732,3.732,0,0,1,1.893-.481,3.367,3.367,0,0,1,2.685,1.1,4.375,4.375,0,0,1,.959,2.972,4.027,4.027,0,0,1-1.062,2.934,3.878,3.878,0,0,1-2.914,1.092,4.061,4.061,0,0,1-2.752-.942,3.406,3.406,0,0,1-1.183-2.486h1.951a2.13,2.13,0,0,0,.631,1.349,1.919,1.919,0,0,0,1.345.469,1.734,1.734,0,0,0,1.448-.664,2.866,2.866,0,0,0,.519-1.81,2.533,2.533,0,0,0-.573-1.747,2,2,0,0,0-1.577-.643,2.2,2.2,0,0,0-1.76.714Z" transform="translate(1029 10587)" fill="#fff"/>
    <g id="Grupo_160827" data-name="Grupo 160827" transform="translate(1011.517 10387)">
      <g id="Grupo_160683" data-name="Grupo 160683" clip-path="url(#clip-path-3)">
        <path id="Trazado_600927" data-name="Trazado 600927" d="M151.78,75.895a75.683,75.683,0,0,1-27.44,58.4c-1.672,1.4-3.4,2.71-5.189,3.954a74.8,74.8,0,0,1-6.616,4.12q-2.042,1.12-4.169,2.129a75.45,75.45,0,0,1-28.139,7.17h-.078c-.806.038-1.6.067-2.408.086-.71.019-1.42.029-2.137.029a75.442,75.442,0,0,1-30.977-6.724c-1.8-.805-3.555-1.689-5.265-2.632q-2.888-1.589-5.6-3.41a74.151,74.151,0,0,1-6.222-4.635A75.887,75.887,0,1,1,151.78,75.895" transform="translate(0)" fill="#91e8d6"/>
        <path id="Trazado_600928" data-name="Trazado 600928" d="M122.35,126.934q-2.508,2.1-5.189,3.954a74.8,74.8,0,0,1-6.616,4.12q-2.042,1.122-4.169,2.129a75.45,75.45,0,0,1-28.139,7.17h-.078c-.806.038-1.6.068-2.408.086-.71.019-1.421.03-2.139.03A75.459,75.459,0,0,1,42.636,137.7c-1.8-.805-3.555-1.689-5.265-2.632q-2.888-1.588-5.6-3.41a73.976,73.976,0,0,1-6.222-4.635c2.079-11.329,4.8-23.834,6.782-24.175.517-.087,1.478-.32,2.731-.661.5-.135,1.058-.281,1.652-.446,3.681-1.01,8.909-2.545,13.6-3.945.407-.126.806-.243,1.2-.36,2.419-.729,4.636-1.4,6.354-1.914L61.33,94.47H86.564s.874.262,2.3.7c1.6.486,3.9,1.186,6.51,1.963h.01c.582.175,1.176.349,1.787.535,5.539,1.652,11.932,3.527,15.664,4.517.321.088.622.166.884.234.223.059.428.107.622.155.049.009.1.03.146.039.234.047.428.1.612.146s.341.069.467.087a.928.928,0,0,1,.524.35,2.861,2.861,0,0,1,.37.515,7.039,7.039,0,0,1,.572,1.137c.137.3.264.632.39.991q.1.264.2.553c.126.389.262.8.407,1.235.2.65.4,1.35.6,2.108.136.5.281,1.009.406,1.554.282,1.069.555,2.215.827,3.41.146.592.272,1.205.407,1.817s.273,1.252.41,1.884.252,1.284.387,1.924c.447,2.187.876,4.421,1.274,6.608" transform="translate(1.99 7.358)" fill="#005894"/>
        <path id="Trazado_600929" data-name="Trazado 600929" d="M94.237,51.006c0,18.237-8.333,22.614-21.087,22.614S50.058,66.723,50.058,51.4c0-15.6,10.338-22.223,23.093-22.223,11.4,0,21.087,7.985,21.087,21.83" transform="translate(3.899 2.272)"/>
        <path id="Trazado_600930" data-name="Trazado 600930" d="M60.811,81.283v23.1s9.319,14.757,10.446,14.757c1.539,0,10.445-14.284,10.445-14.284V76.742Z" transform="translate(4.736 5.977)" fill="#d69962"/>
        <path id="Trazado_600931" data-name="Trazado 600931" d="M89.81,64.3c0,15.506-8.063,28.077-18.007,28.077S53.8,79.806,53.8,64.3,61.856,36.222,71.8,36.222,89.81,48.792,89.81,64.3" transform="translate(4.19 2.821)" fill="#eeae77"/>
        <path id="Trazado_600932" data-name="Trazado 600932" d="M56.728,64.153c.52,5.033-.905,9.3-3.183,9.539S49,70.037,48.48,65s.905-9.3,3.182-9.54,4.547,3.655,5.066,8.689" transform="translate(3.767 4.319)"/>
        <path id="Trazado_600933" data-name="Trazado 600933" d="M85.155,64.153c-.52,5.033.905,9.3,3.184,9.539S92.885,70.037,93.4,65s-.905-9.3-3.183-9.54-4.547,3.655-5.066,8.689" transform="translate(6.624 4.319)"/>
        <path id="Trazado_600934" data-name="Trazado 600934" d="M37.623,118.564c0,1.613,0,3.274-.019,4.956-.019,3.595-.058,7.3-.233,10.988q-2.888-1.588-5.6-3.41a73.769,73.769,0,0,1-6.219-4.635c2.078-11.329,4.8-23.834,6.782-24.175.515-.087,1.478-.319,2.73-.661.233.583.447,1.2.65,1.846a50.65,50.65,0,0,1,1.906,15.09" transform="translate(1.99 7.915)" fill="#0069b0"/>
        <path id="Trazado_600935" data-name="Trazado 600935" d="M116.227,126.376q-2.508,2.1-5.189,3.954a74.8,74.8,0,0,1-6.616,4.12c-.244-5.383-.244-10.843-.244-15.886,0-7.355.932-12.874,2.536-16.937.321.088.622.166.884.234.223.059.428.107.622.155.049.009.1.03.146.039.234.047.428.1.612.146s.341.069.467.087a.928.928,0,0,1,.524.35,2.861,2.861,0,0,1,.37.515,7.038,7.038,0,0,1,.572,1.137c.137.3.264.632.39.991q.1.264.2.553c.136.389.272.8.407,1.235.2.65.4,1.35.6,2.108.144.5.281,1.009.406,1.554.282,1.069.555,2.215.827,3.41.146.592.272,1.205.407,1.817s.273,1.252.41,1.884.252,1.284.387,1.924c.447,2.187.876,4.421,1.274,6.608" transform="translate(8.114 7.915)" fill="#0069b0"/>
        <path id="Trazado_600936" data-name="Trazado 600936" d="M88.387,70.409S86.136,80.829,73.1,81.421" transform="translate(5.693 5.484)" fill="none" stroke="#000" stroke-miterlimit="10" stroke-width="2"/>
        <path id="Trazado_600937" data-name="Trazado 600937" d="M74.788,80.026c0,1.1-1.194,1.985-2.667,1.985s-2.665-.888-2.665-1.985,1.192-1.983,2.665-1.983,2.667.888,2.667,1.983" transform="translate(5.409 6.078)"/>
        <path id="Trazado_600938" data-name="Trazado 600938" d="M52.935,57.753S49.97,41.222,58.3,36s12.945-3.28,12.945-3.28,21.062-3.068,20.571,17.609c0,.068,0,.136,0,.2V57.18l-2.378,2.68s-2.224-14.089-5.867-14.987-10.949,1.37-18.238.4-7.572,1.558-8.819,4.747a38.054,38.054,0,0,0-2.278,9.143Z" transform="translate(4.083 2.521)" fill="#8c6756"/>
        <path id="Trazado_600939" data-name="Trazado 600939" d="M91.327,96.633c-5.753,15.236-19.569,23.387-19.569,23.387C59.856,113.8,53.85,98.5,53.073,96.4c-.058-.155-.087-.241-.087-.241l2.565-.506.2-.04,5.394-1.069,5.091-1.009L68.2,94.543l3.556,1.838,4-1.838,2.1-.96,4.246.96,6.782,1.536,2.391.543c.019,0,.029.011.049.011" transform="translate(4.127 7.285)" fill="#b0d3dc"/>
        <path id="Trazado_600940" data-name="Trazado 600940" d="M91.321,96.56c-2.97,22.887-19.569,44.757-19.569,44.757C59.85,135.1,53.844,98.425,53.067,96.326c.9-.272,1.73-.524,2.478-.747.068-.02.126-.04.194-.059l3.448-1.05H68.8l2.867,1.478,3.225-1.478h9.532s.874.263,2.3.7c1.186.36,2.75.835,4.548,1.379.019,0,.029.011.049.011" transform="translate(4.133 7.358)" fill="#b0d3dc"/>
        <path id="Trazado_600941" data-name="Trazado 600941" d="M58.427,40.783s6.467,14.568,30.315,10.046c0,0,.488-11.728-13.094-13.851s-17.221,3.4-17.221,3.4" transform="translate(4.55 2.842)" fill="#8c6756"/>
        <path id="Trazado_600942" data-name="Trazado 600942" d="M72.275,141.278l-16.242-46.3-9.69,2.659,9.79,15.71L52.9,114.42l16.169,29.9,3.314.067Z" transform="translate(3.609 7.397)" fill="#0069b0"/>
        <path id="Trazado_600943" data-name="Trazado 600943" d="M70.373,141.278l16.415-46.3L96.3,97.632l-9.79,15.71,3.234,1.078-16.169,29.9-3.314.067Z" transform="translate(5.472 7.397)" fill="#0069b0"/>
        <path id="Trazado_600944" data-name="Trazado 600944" d="M64.677,97.889l3.953,7.995L66.91,130.051l3.9,11.224,4.07-11.479L71.953,105.7l3.209-7.455-3.916-3.236Z" transform="translate(5.037 7.4)" fill="#833343"/>
        <path id="Trazado_600945" data-name="Trazado 600945" d="M85.371,96.445l-.091.127-6.642,8.822-8.462-9.542,6.151-3.679,4.755-3.016Z" transform="translate(5.465 6.944)" fill="#fff"/>
        <path id="Trazado_600946" data-name="Trazado 600946" d="M71.853,95.936l-9.485,9.234-5.48-9.687-.011-.015L60.72,88.83l4.916,3.139Z" transform="translate(4.43 6.918)" fill="#fff"/>
        <path id="Trazado_600947" data-name="Trazado 600947" d="M54.364,64.113c.447,4.323-.148,8.037-2.632,8.294s-5.927-3.041-6.374-7.365,2.161-8.038,4.648-8.3,3.913,3.042,4.358,7.366" transform="translate(3.529 4.418)" fill="#333"/>
        <path id="Trazado_600948" data-name="Trazado 600948" d="M87.572,64.113c-.446,4.323.147,8.037,2.633,8.294s5.926-3.041,6.372-7.365S94.416,57,91.93,56.747s-3.911,3.042-4.358,7.366" transform="translate(6.81 4.418)" fill="#333"/>
      </g>
    </g>
  </g>
</svg>
