<svg xmlns="http://www.w3.org/2000/svg" xmlns:xlink="http://www.w3.org/1999/xlink" width="295" height="307.073" viewBox="0 0 295 307.073">
  <defs>
    <clipPath id="clip-path">
      <rect id="Rectángulo_46929" data-name="Rectángulo 46929" width="295" height="307.073" transform="translate(0 -32.772)" fill="none"/>
    </clipPath>
  </defs>
  <g id="Grupo_161319" data-name="Grupo 161319" transform="translate(-1020 -1055.927)">
    <g id="Grupo_160890" data-name="Grupo 160890" transform="translate(738.33 -9854)">
      <g id="Grupo_160825" data-name="Grupo 160825" transform="translate(286 10912.001)">
        <path id="Trazado_600949" data-name="Trazado 600949" d="M103.129,0,21.793,21.793,0,103.128,59.541,162.67l81.335-21.794,21.8-81.336Z" transform="translate(-0.001 0.001)" fill="#f6efe9"/>
      </g>
      <path id="Trazado_113531" data-name="Trazado 113531" d="M0,1.169,2.083,0V39.595L.121,40.671Z" transform="matrix(0.259, 0.966, -0.966, 0.259, 345.407, 10912)" fill="#833343"/>
    </g>
    <g id="Grupo_160891" data-name="Grupo 160891">
      <g id="Grupo_160889" data-name="Grupo 160889" transform="translate(1020 1088.699)">
        <g id="Grupo_160888" data-name="Grupo 160888" clip-path="url(#clip-path)">
          <path id="Trazado_601867" data-name="Trazado 601867" d="M264.964,396.3H6.074a6.074,6.074,0,0,1,0-12.147H264.964a6.074,6.074,0,0,1,0,12.147" transform="translate(0 -121.995)" fill="#e6edff"/>
          <path id="Trazado_601868" data-name="Trazado 601868" d="M270.144,186.405c-.11-.075-.22-.15-.332-.223-7.855-5.22-17.112-7.231-26.038-9.744-8.29-2.335-17.6-5.473-23.968-12.371-7.739-8.384-6.66-19.933-3.684-30.432,3.123-11.018,6.072-22.112,4.69-33.812a69.533,69.533,0,0,0-15.185-36.2c-12.963-15.519-33.045-23.746-52.284-21.417-25.818,3.124-47.021,23.442-63.117,45.452C79.666,102.1,73.43,118.5,61.383,132.217c-11.909,13.556-25.288,25.772-35.312,41.133C12.727,193.8,6.231,219.87,10.562,244.44S30.714,291.431,52.38,300.3c13.8,5.649,28.933,5.764,43.691,5.808,30.652.091,61.346.181,91.9-2.473,20.108-1.747,40.482-4.788,58.8-13.9s34.535-25.121,40.541-45.906c5.968-20.65-.242-45.9-17.169-57.42" transform="translate(-2.931 -46.053)" fill="#def8f3"/>
          <path id="Trazado_601869" data-name="Trazado 601869" d="M21.057,161.39a10.225,10.225,0,0,0-2.633-4.517l-2.071-1.6a10.188,10.188,0,0,0-5.167-1.4H10.68a7.71,7.71,0,0,0-3.944.881,7.667,7.667,0,0,0-3.294,2.117,7.675,7.675,0,0,0-2.117,3.294,7.711,7.711,0,0,0-.882,3.944q.183,1.36.366,2.721a10.228,10.228,0,0,0,2.633,4.517l2.072,1.6a10.19,10.19,0,0,0,5.166,1.4h.506a7.717,7.717,0,0,0,3.944-.882,7.667,7.667,0,0,0,3.294-2.117,7.671,7.671,0,0,0,2.117-3.294,7.71,7.71,0,0,0,.882-3.944q-.183-1.361-.366-2.722" transform="translate(-0.139 -48.864)" fill="#91e8d6"/>
          <path id="Trazado_601870" data-name="Trazado 601870" d="M411.694,139.423a22.119,22.119,0,1,1-22.119-22.118,22.118,22.118,0,0,1,22.119,22.118" transform="translate(-116.694 -37.253)" fill="#91e8d6"/>
          <path id="Trazado_601872" data-name="Trazado 601872" d="M62.4,80.076c0-14-12.37-25.352-27.627-25.352S7.146,66.074,7.146,80.076s12.37,25.352,27.628,25.352S62.4,94.078,62.4,80.076" transform="translate(222.458 -74.537)" fill="#def8f3"/>
          <path id="Trazado_601873" data-name="Trazado 601873" d="M36.05,89.238,14.5,82.341a19.39,19.39,0,0,0-1.273,6.9c0,11.488,10.3,20.941,22.82,20.941a24.387,24.387,0,0,0,11.742-2.985Z" transform="translate(220.526 -83.307)" fill="#91e8d6"/>
          <path id="Trazado_601874" data-name="Trazado 601874" d="M48.4,91.874,60.3,109.746a21.875,21.875,0,0,0,8.009-7.625,19.614,19.614,0,0,0,2.919-10.247Z" transform="translate(209.356 -86.335)" fill="#bfd2ff"/>
          <path id="Trazado_601875" data-name="Trazado 601875" d="M48.594,83.222l22.818-.289a19.507,19.507,0,0,0-1.987-8.262,21.116,21.116,0,0,0-5.388-6.866Z" transform="translate(209.295 -78.691)" fill="#fefeff"/>
          <rect id="Rectángulo_46908" data-name="Rectángulo 46908" width="8.261" height="19.859" transform="translate(59.839 32.527)" fill="#dcc0a8"/>
          <rect id="Rectángulo_46909" data-name="Rectángulo 46909" width="8.261" height="29.576" transform="translate(72.61 22.809)" fill="#dcc0a8"/>
          <rect id="Rectángulo_46910" data-name="Rectángulo 46910" width="8.261" height="42.989" transform="translate(85.383 9.397)" fill="#dcc0a8"/>
          <rect id="Rectángulo_46911" data-name="Rectángulo 46911" width="8.261" height="24.187" transform="translate(98.154 28.199)" fill="#dcc0a8"/>
          <path id="Trazado_601876" data-name="Trazado 601876" d="M125.987,22.251V64.643h56.461" transform="translate(-70.575 -12.44)" fill="none" stroke="#628aec" stroke-miterlimit="10" stroke-width="0.876"/>
          <path id="Trazado_601877" data-name="Trazado 601877" d="M294.252,40.722a20.485,20.485,0,0,0-3.818,1.146,3.361,3.361,0,0,1,.22.283,3.409,3.409,0,1,1-5.948,3.264,20.753,20.753,0,0,0-2.746,2.909,3.3,3.3,0,0,1,.353.144,3.406,3.406,0,0,1-3.195,6.016,3.34,3.34,0,0,1-.36-.24,20.457,20.457,0,0,0-.932,3.923,3.293,3.293,0,0,1,.422-.058,3.406,3.406,0,1,1,.241,6.808,3.34,3.34,0,0,1-.483-.032,20.508,20.508,0,0,0,1.16,3.9A3.406,3.406,0,1,1,282.69,74.5a20.785,20.785,0,0,0,2.979,2.814,3.349,3.349,0,0,1,.2-.481,3.406,3.406,0,1,1,6.016,3.2,3.453,3.453,0,0,1-.31.464,20.474,20.474,0,0,0,4.008.94,3.405,3.405,0,1,1,6.7-.213,20.524,20.524,0,0,0,3.941-1.2,3.407,3.407,0,1,1,5.685-3.553,20.762,20.762,0,0,0,2.794-3,3.45,3.45,0,0,1-.468-.191,3.408,3.408,0,1,1,3.614-5.737,20.461,20.461,0,0,0,.907-3.967,3.3,3.3,0,0,1-.456.062,3.408,3.408,0,1,1,.208-6.778A20.479,20.479,0,0,0,317.319,53a3.315,3.315,0,0,1-.326.252,3.406,3.406,0,0,1-3.613-5.775,3.494,3.494,0,0,1,.364-.18,20.714,20.714,0,0,0-2.928-2.729,3.211,3.211,0,0,1-.14.343,3.406,3.406,0,0,1-6.016-3.2,3.354,3.354,0,0,1,.21-.314,20.489,20.489,0,0,0-3.881-.9,3.225,3.225,0,0,1,.047.344,3.406,3.406,0,1,1-6.807.241,3.245,3.245,0,0,1,.024-.37m3.519,6.376a13.88,13.88,0,1,1-13.381,14.363A13.881,13.881,0,0,1,297.771,47.1" transform="translate(-74.422 -3.536)" fill="#bfd2ff"/>
          <path id="Trazado_601878" data-name="Trazado 601878" d="M262.375,71.018c-.593-.433-1.33-.8-1.559-1.5-.369-1.125.836-2.294.538-3.44-.25-.962-1.392-1.351-2.375-1.5s-2.111-.283-2.672-1.1a5.369,5.369,0,0,1-.467-2.406,4.41,4.41,0,0,0-3.094-3.575c-1.708-.485-3.2,1.064-4.622,1.686a4.91,4.91,0,0,0-2.855,3.684,11.759,11.759,0,0,0,.256,4.875,35.05,35.05,0,0,1,.936,4.825,14.166,14.166,0,0,1-.772,5.148A5.381,5.381,0,0,0,245.9,81.6a4.9,4.9,0,0,0,3.051,1.9,16.666,16.666,0,0,0,7.06.662,9.507,9.507,0,0,0,5.848-3.094,7.661,7.661,0,0,0,2.326-3.2,6.044,6.044,0,0,0-1.81-6.839" transform="translate(-77.84 -18.23)" fill="#485070"/>
          <path id="Trazado_601879" data-name="Trazado 601879" d="M251.876,64.285a3.88,3.88,0,0,1-.358,2.989c-.169.293-.437.594-.775.57-.389-.027-.606-.454-.729-.824a13.328,13.328,0,0,1-.639-3.152c-.052-.656.071-1.842,1-1.615.723.176,1.312,1.4,1.5,2.032" transform="translate(-79.191 -19.761)" fill="#ff6ea1"/>
          <path id="Trazado_601880" data-name="Trazado 601880" d="M244.472,87.093c-.687,2.4-4.585,3.555-6.828.792-.275-.339-.53-.7-.778-1.056-2.419.476-6.016,1.529-7.632,3.491a6.159,6.159,0,0,0-1.008,2.228,88.737,88.737,0,0,0-2.1,8.721,1.979,1.979,0,0,0-.01,1.013,2.256,2.256,0,0,0,.837.919c3.342,2.635,4.22,6.89,5.32,10.737,1.669,5.837,2.439,13.913,4.108,19.751,5.469.42,28.251-4.748,30.992-7.148-3.931-7.078-7.112-19.848-8.359-28.732a46.248,46.248,0,0,0-3.446-10.874c-.337-.825-.641-2.73-1.266-3.264-.832-.711-8.771.491-9.612.519q.045.7.064,1.407a4.834,4.834,0,0,1-.286,1.5" transform="translate(-71.789 -26.5)" fill="#ff6ea1"/>
          <path id="Trazado_601881" data-name="Trazado 601881" d="M240.643,80.4a10.531,10.531,0,0,0-1.074-2.358,6.739,6.739,0,0,0,3.738-1.271,11.414,11.414,0,0,0,1.5-1.325c.167-.17.42-.6.687-.913-.36.42.527,2.785.7,3.268a8.67,8.67,0,0,0,1.617,2.815c.718.8,1.188.931,1.314,2.057a8.268,8.268,0,0,1-.521,3.609,3.442,3.442,0,0,1-1.245,1.793,3.184,3.184,0,0,1-2.509.222c-1.413-.37-3.351-1.548-3.857-3.025-.265-.774.033-1.17.1-1.963a7.662,7.662,0,0,0-.463-2.911" transform="translate(-76.08 -23.67)" fill="#ffc1a6"/>
          <path id="Trazado_601882" data-name="Trazado 601882" d="M241.119,82.925c0-.078,0-.158-.007-.239a10.964,10.964,0,0,0-1.544-4.642,6.739,6.739,0,0,0,3.739-1.271,11.456,11.456,0,0,0,1.5-1.325c.167-.17.42-.6.687-.913.04.439.1.873.179,1.3a9.168,9.168,0,0,1-4.559,7.088" transform="translate(-76.08 -23.67)" fill="#e3856d"/>
          <path id="Trazado_601883" data-name="Trazado 601883" d="M228.482,68.793a10.47,10.47,0,0,0,3.59,5.625,4.373,4.373,0,0,0,1.609.888,2.046,2.046,0,0,0,1.762-.3A3.181,3.181,0,0,0,236.3,72.6a20.232,20.232,0,0,0-.156-4.919,7.808,7.808,0,0,0-2.209-4.32c-.988-.913-3.7-2.239-4.892-.98-1.3,1.368-.962,4.777-.559,6.413" transform="translate(-72.445 -19.646)" fill="#485070"/>
          <path id="Trazado_601884" data-name="Trazado 601884" d="M230.7,65.405c.232-1.546,1.982-.4,3.4-1.054a6.729,6.729,0,0,1,3.561-.966A5.1,5.1,0,0,1,241,64.866c.233.245.447.5.646.748a17.663,17.663,0,0,1,1.439,2.848l.014.067A9.6,9.6,0,0,1,241.818,74a5.015,5.015,0,0,1-4.351,2.629,4.287,4.287,0,0,1-2.769-1.076,9.527,9.527,0,0,1-2.036-2.689c-.833-1.507-2.215-5.757-1.959-7.46" transform="translate(-73.254 -20.125)" fill="#ffc1a6"/>
          <path id="Trazado_601885" data-name="Trazado 601885" d="M236.941,65.817a22.919,22.919,0,0,1-4.976-1.409,5.6,5.6,0,0,1-2.679-2.655,2.889,2.889,0,0,1,.523-3.067,7.432,7.432,0,0,1,4.252-3.013c1.714-.451,3.858.214,5.5.785a6.7,6.7,0,0,1,3,1.953c1.338,1.617,1.793,4.4,1.688,6.446a11.07,11.07,0,0,1-.516,2.486c-.194.68-.541,1.453-1.333,1.551-.543.068-1.63-1.481-2.185-1.826a10.171,10.171,0,0,0-2.854-1.147q-.212-.054-.424-.1" transform="translate(-72.736 -17.633)" fill="#485070"/>
          <path id="Trazado_601886" data-name="Trazado 601886" d="M236.821,73.071a.495.495,0,1,0,.442-.543.5.5,0,0,0-.442.543" transform="translate(-75.207 -23.032)" fill="#485070"/>
          <path id="Trazado_601887" data-name="Trazado 601887" d="M237.442,71.234a1.526,1.526,0,0,0-.988.13" transform="translate(-75.091 -22.612)" fill="none" stroke="#485070" stroke-linecap="round" stroke-miterlimit="10" stroke-width="0.75"/>
          <path id="Trazado_601888" data-name="Trazado 601888" d="M232.334,74.279a.495.495,0,1,0,.442-.543.5.5,0,0,0-.442.543" transform="translate(-73.782 -23.416)" fill="#485070"/>
          <path id="Trazado_601889" data-name="Trazado 601889" d="M232.955,72.441a1.526,1.526,0,0,0-.988.13" transform="translate(-73.666 -22.995)" fill="none" stroke="#485070" stroke-linecap="round" stroke-miterlimit="10" stroke-width="0.75"/>
          <path id="Trazado_601890" data-name="Trazado 601890" d="M234.813,74.616a1.72,1.72,0,0,1-.2,1.267.505.505,0,0,0-.113.315.3.3,0,0,0,.261.222.855.855,0,0,0,.361-.054" transform="translate(-74.471 -23.696)" fill="none" stroke="#485070" stroke-linecap="round" stroke-miterlimit="10" stroke-width="0.75"/>
          <path id="Trazado_601891" data-name="Trazado 601891" d="M237.846,78.242a1.982,1.982,0,0,1-1.659.611" transform="translate(-75.006 -24.847)" fill="none" stroke="#485070" stroke-linecap="round" stroke-miterlimit="10" stroke-width="0.75"/>
          <path id="Trazado_601892" data-name="Trazado 601892" d="M247.365,70a1.816,1.816,0,1,1-1.992-1.622A1.817,1.817,0,0,1,247.365,70" transform="translate(-77.405 -21.71)" fill="#ffc1a6"/>
          <path id="Trazado_601893" data-name="Trazado 601893" d="M246.43,69.839a.78.78,0,0,0-.727,1.112.533.533,0,0,1,.931.345" transform="translate(-78.006 -22.179)" fill="none" stroke="#485070" stroke-linecap="round" stroke-linejoin="round" stroke-width="0.75"/>
          <path id="Trazado_601894" data-name="Trazado 601894" d="M241.012,336.483H97.052a5.964,5.964,0,0,1-5.964-5.964V249.745a5.964,5.964,0,0,1,5.964-5.964h143.96a5.964,5.964,0,0,1,5.964,5.964v80.773a5.964,5.964,0,0,1-5.964,5.964" transform="translate(-28.927 -77.418)" fill="#dce4ff"/>
          <rect id="Rectángulo_46912" data-name="Rectángulo 46912" width="155.888" height="92.702" rx="8.74" transform="translate(62.161 166.363)" fill="none" stroke="#485070" stroke-miterlimit="10" stroke-width="0.75"/>
          <path id="Trazado_601895" data-name="Trazado 601895" d="M253.146,379.794H74.178a7.441,7.441,0,0,0,7.441,7.441H245.7a7.441,7.441,0,0,0,7.441-7.441" transform="translate(-23.557 -120.612)" fill="#bac5ef"/>
          <path id="Trazado_601896" data-name="Trazado 601896" d="M253.146,379.794H74.178a7.441,7.441,0,0,0,7.441,7.441H245.7A7.441,7.441,0,0,0,253.146,379.794Z" transform="translate(-23.557 -120.612)" fill="none" stroke="#485070" stroke-miterlimit="10" stroke-width="0.75"/>
          <path id="Trazado_601897" data-name="Trazado 601897" d="M240.315,335.266H101.23a4.66,4.66,0,0,1-4.66-4.661V253.776a4.66,4.66,0,0,1,4.66-4.661H240.315a4.661,4.661,0,0,1,4.661,4.661v76.829a4.661,4.661,0,0,1-4.661,4.661" transform="translate(-30.668 -79.112)" fill="#545d78"/>
          <path id="Trazado_601898" data-name="Trazado 601898" d="M207.267,245.8a1.156,1.156,0,1,1-1.155-1.155,1.155,1.155,0,0,1,1.155,1.155" transform="translate(-65.088 -77.691)" fill="#333"/>
          <rect id="Rectángulo_46913" data-name="Rectángulo 46913" width="117.803" height="173.089" transform="translate(81.203 82.566)" fill="#fefeff"/>
          <path id="Trazado_601899" data-name="Trazado 601899" d="M202.018,342.724l-15.676-19.53L172.71,340.661l-11.817-12.769,1.544-1.43,10.136,10.952L186.319,319.8l15.267,19.021,8.861-18.093,18.706-3.308.366,2.073-17.652,3.121Z" transform="translate(-51.095 -100.804)" fill="#e6edff"/>
          <path id="Trazado_601900" data-name="Trazado 601900" d="M262.63,317.684a2.7,2.7,0,1,0-2.7,2.7,2.7,2.7,0,0,0,2.7-2.7" transform="translate(-81.688 -100.029)" fill="#ff6ea1"/>
          <path id="Trazado_601901" data-name="Trazado 601901" d="M222.448,350.383a2.7,2.7,0,1,0-2.7,2.7,2.7,2.7,0,0,0,2.7-2.7" transform="translate(-68.927 -110.414)" fill="#628aec"/>
          <path id="Trazado_601902" data-name="Trazado 601902" d="M235.529,322.395a2.7,2.7,0,1,0-2.7,2.7,2.7,2.7,0,0,0,2.7-2.7" transform="translate(-73.082 -101.526)" fill="#ffb861"/>
          <path id="Trazado_601903" data-name="Trazado 601903" d="M199.461,322.395a2.7,2.7,0,1,0-2.7,2.7,2.7,2.7,0,0,0,2.7-2.7" transform="translate(-61.627 -101.526)" fill="#ffb861"/>
          <path id="Trazado_601904" data-name="Trazado 601904" d="M180.025,347.368a2.7,2.7,0,1,0-2.7,2.7,2.7,2.7,0,0,0,2.7-2.7" transform="translate(-55.455 -109.456)" fill="#ff6ea1"/>
          <path id="Trazado_601905" data-name="Trazado 601905" d="M164.327,331.211a2.7,2.7,0,1,0-2.7,2.7,2.7,2.7,0,0,0,2.7-2.7" transform="translate(-50.47 -104.325)" fill="#3fd4c7"/>
          <path id="Trazado_601906" data-name="Trazado 601906" d="M145.463,307.455V344.3h82.218" transform="translate(-46.195 -97.639)" fill="none" stroke="#485070" stroke-miterlimit="10" stroke-width="0.75"/>
          <rect id="Rectángulo_46914" data-name="Rectángulo 46914" width="12.548" height="29.148" transform="translate(105.81 151.001)" fill="#ffb861"/>
          <rect id="Rectángulo_46915" data-name="Rectángulo 46915" width="12.548" height="43.413" transform="translate(125.208 136.736)" fill="#ff6ea1"/>
          <path id="Trazado_601907" data-name="Trazado 601907" d="M151.619,195.288a115.683,115.683,0,0,0,39.443-29.53" transform="translate(-48.15 -52.64)" fill="none" stroke="#485070" stroke-linecap="round" stroke-miterlimit="10" stroke-width="0.75"/>
          <path id="Trazado_601908" data-name="Trazado 601908" d="M209.974,163.781l-.893,2.543-.37-1.119-1.155-.233Z" transform="translate(-65.914 -52.012)" fill="#485070"/>
          <rect id="Rectángulo_46916" data-name="Rectángulo 46916" width="12.548" height="63.098" transform="translate(144.607 117.051)" fill="#3fd4c7"/>
          <rect id="Rectángulo_46917" data-name="Rectángulo 46917" width="12.548" height="35.501" transform="translate(164.006 144.647)" fill="#628aec"/>
          <path id="Trazado_601909" data-name="Trazado 601909" d="M144.227,173.244v62.017h83.84" transform="translate(-45.802 -55.017)" fill="none" stroke="#485070" stroke-miterlimit="10" stroke-width="0.75"/>
          <rect id="Rectángulo_46918" data-name="Rectángulo 46918" width="84.19" height="4.24" transform="translate(97.945 186.23)" fill="#e6edff"/>
          <rect id="Rectángulo_46919" data-name="Rectángulo 46919" width="50.595" height="4.24" transform="translate(114.643 102.302)" fill="#e6edff"/>
          <rect id="Rectángulo_46920" data-name="Rectángulo 46920" width="84.19" height="4.24" transform="translate(97.846 94.896)" fill="#e6edff"/>
          <rect id="Rectángulo_46921" data-name="Rectángulo 46921" width="84.19" height="4.24" transform="translate(97.945 194.003)" fill="#e6edff"/>
          <rect id="Rectángulo_46922" data-name="Rectángulo 46922" width="84.19" height="4.24" transform="translate(97.945 201.776)" fill="#e6edff"/>
          <path id="Trazado_601910" data-name="Trazado 601910" d="M260.418,83.76c-.981.231-1.955.5-2.923.778a1.147,1.147,0,0,0-.46.207,1.1,1.1,0,0,0-.287.627,12.644,12.644,0,0,0,2.215,9.644c.6.749,1.312,1.4,1.962,2.108s1.495,1.326,2.069,2.058a10.327,10.327,0,0,1,1.26,3.251,31.737,31.737,0,0,1,1.31,7.2c.1,1.621.18,3.465,1.424,4.51a3.669,3.669,0,0,0,4.458-.214,8.566,8.566,0,0,0,2.535-4.031,32.293,32.293,0,0,0,1.976-12.357c-.186-3.814-1.353-8.408-3.818-11.425a9.121,9.121,0,0,0-6.974-2.962,19.421,19.421,0,0,0-4.748.6" transform="translate(-81.471 -26.407)" fill="#ff6ea1"/>
          <path id="Trazado_601911" data-name="Trazado 601911" d="M265.64,110.69q1.358-7.35,2.717-14.7" transform="translate(-84.36 -30.484)" fill="none" stroke="#485070" stroke-miterlimit="10" stroke-width="0.75"/>
          <path id="Trazado_601912" data-name="Trazado 601912" d="M267.027,97.34l.94,2.4" transform="translate(-84.8 -30.912)" fill="none" stroke="#485070" stroke-miterlimit="10" stroke-width="0.75"/>
          <path id="Trazado_601913" data-name="Trazado 601913" d="M235.505,128a3.433,3.433,0,0,1,1.085-.2c3.31-.072,6.544-.414,9.884-.749,2.236-.225,4.474-.354,6.7-.386,1.8-.026,3.878.365,5.628-.129,1.853-.523,3.113-1.043,4.04-2.575a24.053,24.053,0,0,0,1.212-2.268,2.3,2.3,0,0,0,.314-1.39c-.144-.673-.888-1.082-1.617-1.35-1.553-.571-2.512-1.459-4.294-1.642a18.327,18.327,0,0,0-5.54.434c-3.55.745-7.1,1.052-10.587,2.089a93.5,93.5,0,0,0-11.422,4.473,11.924,11.924,0,0,0-3.755,2.269,3.927,3.927,0,0,0-.386,5.329,1.785,1.785,0,0,0,1.6.676c.653-.116,1.089-.975.541-1.23,3.585,1.381,3.68-2.3,6.592-3.349" transform="translate(-71.74 -37.232)" fill="#ffc1a6"/>
          <path id="Trazado_601914" data-name="Trazado 601914" d="M223.488,133.732l.025-.219-.164.4.14-.185" transform="translate(-70.929 -42.4)" fill="#ff6ea1"/>
          <path id="Trazado_601915" data-name="Trazado 601915" d="M228.911,92.681a2.371,2.371,0,0,0-.912-.949c-1.157-.676-3.588.364-4.63.937a6.982,6.982,0,0,0-.652.4,16.937,16.937,0,0,0-3.316,2.934c-.334.366-.659.738-.982,1.11-4.814,5.559-7.923,11.683-7.144,19.128.167,1.594.485,3.313,1.672,4.389a4.239,4.239,0,0,0,3.57.917,6.419,6.419,0,0,0,3.158-1.679l-.035.3.177-.435c1.9-1.842,2.343-4.391,2.8-6.871l0-.017,4.527-11.111c.721-1.77,3.049-6.637,1.761-9.059" transform="translate(-67.057 -29.061)" fill="#ff6ea1"/>
          <path id="Trazado_601916" data-name="Trazado 601916" d="M221.388,158.04c2.077-3.394-1.71-3.955-2.26-6.987a3.258,3.258,0,0,1-.012-1.106c.528-3.3.762-6.566,1.022-9.933q.262-3.382.82-6.721a41.2,41.2,0,0,0,.906-4.725c-.038-.5-.093-1-.174-1.482a5.175,5.175,0,0,0-3.117-2.546,5.95,5.95,0,0,0-5.457,1.086,14.961,14.961,0,0,0-1.011,1.815,18.857,18.857,0,0,0-.4,4.977c.124,3.628-.2,7.2.233,10.8a87.667,87.667,0,0,0,2.543,11.936,11.132,11.132,0,0,0,1.66,4.026,4.136,4.136,0,0,0,5.432,1.06,1.892,1.892,0,0,0,.989-1.509c0-.665-.808-1.208-1.171-.695" transform="translate(-67.225 -39.469)" fill="#ffc1a6"/>
          <path id="Trazado_601917" data-name="Trazado 601917" d="M226.329,122.7a38.744,38.744,0,0,1,5.184-12.552" transform="translate(-71.876 -34.981)" fill="none" stroke="#485070" stroke-miterlimit="10" stroke-width="0.75"/>
          <path id="Trazado_601918" data-name="Trazado 601918" d="M231.372,113.61l1.776-1.145" transform="translate(-73.477 -35.716)" fill="none" stroke="#485070" stroke-miterlimit="10" stroke-width="0.75"/>
          <path id="Trazado_601919" data-name="Trazado 601919" d="M71.792,236.9c2.54,2.9,3.581,6.817,4.445,10.484L79.584,261.6a16.88,16.88,0,0,1,.558,3.376,24.755,24.755,0,0,1-.9,5.932c-.552,2.266-1.908,2.126-3.927,1.926-3.192-.317-7.535-1.283-9.69-3.886a9.576,9.576,0,0,1-1.649-4.47q-.608-3.257-1.217-6.514c-1.658-8.872-3.316-18.022-1.44-26.851A16.837,16.837,0,0,1,71.792,236.9" transform="translate(-19.208 -73.394)" fill="#fff"/>
          <path id="Trazado_601920" data-name="Trazado 601920" d="M78.985,280.117c1.411.669,2.762,1.531,4.121,2.349,2.158,1.3,4.41,2.212,6.62,3.42a6.585,6.585,0,0,0,1.955.8c1.183.209,2.431-.236,3.622-.077a4.694,4.694,0,0,1,3.527,3.51c.972,3.16-1.3,1.984-2.812,1.707l-3.528-.648a105.132,105.132,0,0,0-13.8-1.5c-2.574-.133-7.108-.074-9.033-2.419-.936-1.14-1.971-6.112-.739-7.346a1.889,1.889,0,0,1,.79-.428,11.982,11.982,0,0,1,7.394-.115,14.181,14.181,0,0,1,1.88.744" transform="translate(-21.708 -88.553)" fill="#9c5240"/>
          <path id="Trazado_601921" data-name="Trazado 601921" d="M59.225,331.781H14.087a2.683,2.683,0,0,1,0-5.367H59.225a2.683,2.683,0,0,1,0,5.367" transform="translate(-3.622 -103.66)" fill="#485070"/>
          <path id="Trazado_601922" data-name="Trazado 601922" d="M8.355,273.019V257.178a4.323,4.323,0,0,1,4.323-4.323h35.3a4.323,4.323,0,0,1,4.323,4.323v15.841a4.323,4.323,0,0,1-4.323,4.323h-35.3a4.323,4.323,0,0,1-4.323-4.323" transform="translate(-2.653 -80.3)" fill="#485070"/>
          <rect id="Rectángulo_46923" data-name="Rectángulo 46923" width="2.73" height="32.579" transform="translate(11.328 193.062)" fill="#485070"/>
          <rect id="Rectángulo_46924" data-name="Rectángulo 46924" width="2.73" height="32.579" transform="translate(40.774 193.062)" fill="#485070"/>
          <rect id="Rectángulo_46925" data-name="Rectángulo 46925" width="2.73" height="39.573" transform="translate(30.255 226.772)" fill="#485070"/>
          <rect id="Rectángulo_46926" data-name="Rectángulo 46926" width="2.73" height="39.573" transform="translate(9.738 226.772)" fill="#485070"/>
          <rect id="Rectángulo_46927" data-name="Rectángulo 46927" width="2.73" height="39.573" transform="translate(53.493 226.772)" fill="#485070"/>
          <rect id="Rectángulo_46928" data-name="Rectángulo 46928" width="2.73" height="39.573" transform="translate(39.487 226.772)" fill="#485070"/>
          <path id="Trazado_601923" data-name="Trazado 601923" d="M116.614,352.653c-1.548.325-2.611.4-4.439.661-2.659.375-5.326.686-8,.917.7,4.81,1.332,9.04,1.494,9.891.7,3.684.313,12.917,1.958,16.42a25.855,25.855,0,0,0,5.606-.234c.994-9.235,1.81-18.5,3.382-27.654" transform="translate(-33.083 -111.993)" fill="#cf9378"/>
          <path id="Trazado_601924" data-name="Trazado 601924" d="M82.949,342.1a11.6,11.6,0,0,0,.173,2.258,12.4,12.4,0,0,0,8.339,3.537,14.363,14.363,0,0,0,5.135-.716q.294-5.406.642-10.808c.3-4.688.543-9.373,1.126-14.036a67.719,67.719,0,0,0,.068-12.6C97.237,305.151,94.2,303.9,94.2,303.9a120.644,120.644,0,0,0-15.016-4.795c-7.994-1.755-16.12-3.057-24.159-4.808-3.864-.841-10.329-.686-12.323,3.539-2.308,4.888,2.293,11.385,6,14.207,3.835,2.919,8.567,4.4,13.276,5.423a86.272,86.272,0,0,0,20.317,1.954c-.218,0,.651,20.984.661,22.674" transform="translate(-13.362 -93.332)" fill="#66a3f2"/>
          <path id="Trazado_601925" data-name="Trazado 601925" d="M82.278,319.46c.013-.013.027-.024.04-.037-1.485-1.475-2.888-3.037-4.373-4.512-2.211-2.194-4.358-4.456-6.554-6.666-4.363-4.391-8.748-8.76-13.015-13.243q-1.68-.343-3.355-.7c-3.864-.842-10.329-.687-12.323,3.538-2.308,4.888,2.293,11.385,6,14.207,3.834,2.92,8.567,4.4,13.275,5.424a86.238,86.238,0,0,0,20.317,1.954s-.008.023-.011.039" transform="translate(-13.362 -93.332)" fill="#485070"/>
          <path id="Trazado_601926" data-name="Trazado 601926" d="M101.076,330.062c.006-2.136.3-4.745.3-6.881" transform="translate(-32.099 -102.633)" fill="none" stroke="#485070" stroke-miterlimit="10" stroke-width="0.398"/>
          <path id="Trazado_601927" data-name="Trazado 601927" d="M100.122,303.36a99.811,99.811,0,0,0-19.328-4.675" transform="translate(-25.658 -94.854)" fill="none" stroke="#485070" stroke-miterlimit="10" stroke-width="0.75"/>
          <path id="Trazado_601928" data-name="Trazado 601928" d="M126.1,399.339H108.449a.656.656,0,0,1-.656-.656v-1.325h18.3Z" transform="translate(-34.232 -126.19)" fill="#b3b3b3"/>
          <path id="Trazado_601929" data-name="Trazado 601929" d="M125.7,394.877a1.932,1.932,0,0,0,.173-.291,2.509,2.509,0,0,0-.927-2.844,8.225,8.225,0,0,0-3.036-1.314,50.639,50.639,0,0,0-6.878-1.584c-.624-.085-7.288-.7-7.259-1l-.309,5.041a5.3,5.3,0,0,0-.008,1.989Z" transform="translate(-34.093 -123.169)" fill="#485070"/>
          <path id="Trazado_601930" data-name="Trazado 601930" d="M111.91,385.516a3.166,3.166,0,0,1,3.684-.1,3.938,3.938,0,0,1,1.625,3.415.933.933,0,0,1-.235.672,1.04,1.04,0,0,1-.695.177l-3.153.038c-.656.008-1.492.16-1.948-.43-.8-1.04-.058-2.989.723-3.77" transform="translate(-35.2 -122.225)" fill="#485070"/>
          <path id="Trazado_601931" data-name="Trazado 601931" d="M121.883,390.012a1.449,1.449,0,0,0-1.467.912" transform="translate(-38.241 -123.855)" fill="none" stroke="#b3b3b3" stroke-linecap="round" stroke-miterlimit="10" stroke-width="0.75"/>
          <path id="Trazado_601932" data-name="Trazado 601932" d="M123.124,391.948a1.88,1.88,0,0,1,1.553-.888" transform="translate(-39.101 -124.19)" fill="none" stroke="#b3b3b3" stroke-linecap="round" stroke-miterlimit="10" stroke-width="0.75"/>
          <path id="Trazado_601933" data-name="Trazado 601933" d="M126.515,392.421a1.066,1.066,0,0,1,.967-.66" transform="translate(-40.178 -124.412)" fill="none" stroke="#b3b3b3" stroke-linecap="round" stroke-miterlimit="10" stroke-width="0.75"/>
          <path id="Trazado_601934" data-name="Trazado 601934" d="M74.676,348.6q-3.515.5-7.049.82c1.78,8.758,2.6,17.676,4.054,26.49,2-.008,3.823-.431,5.949-.384.4-2.669,1.219-18.516,2.473-27.811a44.709,44.709,0,0,1-5.427.885" transform="translate(-21.476 -110.424)" fill="#cf9378"/>
          <path id="Trazado_601935" data-name="Trazado 601935" d="M56.759,343.354c.485,1.973,1.049,3.182,2.992,3.954a11.241,11.241,0,0,0,5.33.749,8.919,8.919,0,0,0,4.4-2.037s2.508-37.392-.612-42.183c-3.818-5.862-12.175-7.065-18.686-8.494-5.7-1.253-11.476-2.276-17.235-3.4-1.405,5.332-.39,11.6,1.647,16.518l.031.076a11.324,11.324,0,0,0,9.491,6.83,85.419,85.419,0,0,0,9.175.287c-.04,0,1.733,20.635,3.467,27.7" transform="translate(-10.256 -92.714)" fill="#66a3f2"/>
          <path id="Trazado_601936" data-name="Trazado 601936" d="M63.135,325.451c.007-2.136.3-4.744.3-6.881" transform="translate(-20.05 -101.169)" fill="none" stroke="#485070" stroke-miterlimit="10" stroke-width="0.398"/>
          <path id="Trazado_601937" data-name="Trazado 601937" d="M91.175,398.919H73.528a.656.656,0,0,1-.656-.656v-1.325h18.3Z" transform="translate(-23.142 -126.056)" fill="#b3b3b3"/>
          <path id="Trazado_601938" data-name="Trazado 601938" d="M90.778,394.457a1.932,1.932,0,0,0,.173-.291,2.509,2.509,0,0,0-.927-2.844,8.223,8.223,0,0,0-3.037-1.314,50.605,50.605,0,0,0-6.878-1.584c-.624-.085-7.288-.7-7.259-1l-.309,5.041a5.3,5.3,0,0,0-.008,1.989Z" transform="translate(-23.003 -123.036)" fill="#485070"/>
          <path id="Trazado_601939" data-name="Trazado 601939" d="M76.988,385.1a3.166,3.166,0,0,1,3.684-.1A3.938,3.938,0,0,1,82.3,388.41a.933.933,0,0,1-.235.672,1.04,1.04,0,0,1-.695.177l-3.154.038c-.656.008-1.492.16-1.948-.43-.8-1.04-.058-2.989.723-3.77" transform="translate(-24.11 -122.092)" fill="#485070"/>
          <path id="Trazado_601940" data-name="Trazado 601940" d="M86.962,389.593a1.449,1.449,0,0,0-1.467.912" transform="translate(-27.151 -123.722)" fill="none" stroke="#b3b3b3" stroke-linecap="round" stroke-miterlimit="10" stroke-width="0.75"/>
          <path id="Trazado_601941" data-name="Trazado 601941" d="M88.2,391.528a1.881,1.881,0,0,1,1.553-.888" transform="translate(-28.01 -124.056)" fill="none" stroke="#b3b3b3" stroke-linecap="round" stroke-miterlimit="10" stroke-width="0.75"/>
          <path id="Trazado_601942" data-name="Trazado 601942" d="M91.594,392a1.066,1.066,0,0,1,.967-.66" transform="translate(-29.088 -124.279)" fill="none" stroke="#b3b3b3" stroke-linecap="round" stroke-miterlimit="10" stroke-width="0.75"/>
          <path id="Trazado_601943" data-name="Trazado 601943" d="M30.749,279.5l.484,2.58c2.969-1.561,6.521-1.235,9.877-1.241a45.513,45.513,0,0,0,21.158-5.285,28.415,28.415,0,0,1-.79-5.421c-.01-1.869-.783-3.68-.783-5.555-.123-2.532-.025-5.068.1-7.6.236-4.791.56-9.637-.335-14.35a21.063,21.063,0,0,0-3.583-8.588,11.177,11.177,0,0,0-3.345-3.318c-1.387-.7-3.469-.47-5.03-.607a13.378,13.378,0,0,0-3.429-.008,11.48,11.48,0,0,0-3.885,1.639c-6.463,3.877-7.247,10.129-9.193,16.858-.972,3.361-2.494,6.542-3.469,9.9a19.093,19.093,0,0,0-.722,5.786c.043,1.765.721,3.34,1.046,5.075q.95,5.065,1.9,10.131" transform="translate(-8.828 -73.041)" fill="#fff"/>
          <path id="Trazado_601944" data-name="Trazado 601944" d="M58.911,238.962a6.221,6.221,0,0,0,4.354,1.457,2.727,2.727,0,0,0,1.533-.481,1.314,1.314,0,0,0,.491-1.441" transform="translate(-18.708 -75.74)" fill="none" stroke="#485070" stroke-linecap="round" stroke-miterlimit="10" stroke-width="0.398"/>
          <path id="Trazado_601945" data-name="Trazado 601945" d="M56.735,259.833A15.661,15.661,0,0,0,66.3,269.9" transform="translate(-18.017 -82.516)" fill="none" stroke="#485070" stroke-linecap="round" stroke-miterlimit="10" stroke-width="0.398"/>
          <path id="Trazado_601946" data-name="Trazado 601946" d="M62.872,265.059a7.256,7.256,0,0,0,4.717,2.536" transform="translate(-19.966 -84.175)" fill="none" stroke="#485070" stroke-linecap="round" stroke-miterlimit="10" stroke-width="0.398"/>
          <path id="Trazado_601947" data-name="Trazado 601947" d="M50.778,264.649a33.54,33.54,0,0,0,8.588,13.9" transform="translate(-16.126 -84.045)" fill="none" stroke="#485070" stroke-linecap="round" stroke-miterlimit="10" stroke-width="0.398"/>
          <path id="Trazado_601948" data-name="Trazado 601948" d="M72.575,238.8c1.856,3.194,1.879,5.012,2.3,7.83a59.672,59.672,0,0,1,.639,9.528c-.07,5.344-1.25,10.239-.057,15.54" transform="translate(-23.048 -75.837)" fill="none" stroke="#485070" stroke-miterlimit="10" stroke-width="0.398"/>
          <path id="Trazado_601949" data-name="Trazado 601949" d="M62.485,225.78a11.313,11.313,0,0,1,1.153-2.53,7.233,7.233,0,0,1-4.011-1.364,12.274,12.274,0,0,1-1.614-1.421c-.179-.182-.451-.646-.737-.98-.3,3.214-1.493,6.235-4.234,8.07a10.685,10.685,0,0,0,4.14,3.925c1.429.828,4.99,2.429,5.069-.465.026-.947-.35-1.823-.269-2.785a11.323,11.323,0,0,1,.5-2.451" transform="translate(-16.845 -69.702)" fill="#cf9378"/>
          <path id="Trazado_601950" data-name="Trazado 601950" d="M63.855,228.488c0-.085,0-.171.008-.257a11.76,11.76,0,0,1,1.657-4.98,7.232,7.232,0,0,1-4.012-1.363,12.328,12.328,0,0,1-1.614-1.422c-.179-.182-.451-.646-.737-.98-.043.471-.109.937-.192,1.4a9.84,9.84,0,0,0,4.891,7.606" transform="translate(-18.725 -69.702)" fill="#9c5240"/>
          <path id="Trazado_601951" data-name="Trazado 601951" d="M31.356,236.9c-2.54,2.9-3.581,6.817-4.445,10.484L23.564,261.6c-.387,1.642-1.007,3.887-.644,5.564a7.226,7.226,0,0,0,3.294,4.46,7.028,7.028,0,0,0,6.106.614c1.815-.843,3.891-1.7,5.208-3.291a9.582,9.582,0,0,0,1.649-4.47q.608-3.257,1.217-6.514c1.658-8.872,3.316-18.022,1.44-26.851A16.836,16.836,0,0,0,31.356,236.9" transform="translate(-7.244 -73.394)" fill="#fff"/>
          <path id="Trazado_601952" data-name="Trazado 601952" d="M47.957,252.5c-3.69.961-3.36,5.683-3.693,8.6A85.614,85.614,0,0,1,41.81,273.84" transform="translate(-13.278 -80.187)" fill="none" stroke="#485070" stroke-miterlimit="10" stroke-width="0.398"/>
          <path id="Trazado_601953" data-name="Trazado 601953" d="M46.757,254.523A7.04,7.04,0,0,1,49,251.231" transform="translate(-14.849 -79.784)" fill="none" stroke="#485070" stroke-miterlimit="10" stroke-width="0.398"/>
          <path id="Trazado_601954" data-name="Trazado 601954" d="M37.265,281.714c1.979.433,3.921,1.065,5.863,1.653,3.085.933,6.209,1.471,9.343,2.305a11.06,11.06,0,0,0,2.715.476c1.584.015,3.113-.626,4.7-.661a6.385,6.385,0,0,1,5.337,2.894c1.938,2.962-1.274,2.169-3.3,2.139l-4.73-.069a182.272,182.272,0,0,0-18.275.747c-3.377.284-9.265,1.075-12.27-.929-1.46-.973-3.866-5.713-2.526-7.129a2.536,2.536,0,0,1,.937-.55,20.214,20.214,0,0,1,9.6-1.308,23.8,23.8,0,0,1,2.6.431" transform="translate(-7.537 -89.292)" fill="#cf9378"/>
          <line id="Línea_147" data-name="Línea 147" x1="0.113" transform="translate(74.849 194.755)" fill="#dc8b77"/>
          <path id="Trazado_601955" data-name="Trazado 601955" d="M100.234,306.553H59.286a.827.827,0,0,1-.827-.827v-.282a.827.827,0,0,1,.827-.828h40.948a.827.827,0,0,1,.827.828v.282a.827.827,0,0,1-.827.827" transform="translate(-18.565 -96.738)" fill="#485070"/>
          <path id="Trazado_601956" data-name="Trazado 601956" d="M110.254,297.129H73.849l3.168-20.919a1.477,1.477,0,0,1,1.443-1.269h33.52a1.418,1.418,0,0,1,1.384,1.658Z" transform="translate(-23.452 -87.314)" fill="#757e96"/>
          <path id="Trazado_601957" data-name="Trazado 601957" d="M106.221,289.442a2.42,2.42,0,1,1-2.42-2.419,2.42,2.42,0,0,1,2.42,2.419" transform="translate(-32.196 -91.15)" fill="#fff"/>
          <path id="Trazado_601958" data-name="Trazado 601958" d="M71.451,208.51c-.417-1.624-2.159-.209-3.744-.754a7.235,7.235,0,0,0-3.906-.643,5.47,5.47,0,0,0-3.4,1.945c-.222.287-.423.578-.607.869a19,19,0,0,0-1.225,3.2c0,.025,0,.049-.008.073a10.307,10.307,0,0,0,1.965,5.7,5.38,5.38,0,0,0,4.931,2.33,4.6,4.6,0,0,0,2.839-1.45,10.226,10.226,0,0,0,1.879-3.093c.725-1.7,1.737-6.386,1.277-8.176" transform="translate(-18.597 -65.749)" fill="#cf9378"/>
          <path id="Trazado_601959" data-name="Trazado 601959" d="M62.829,207.35c.016-.072.027-.153.046-.244q.215-1.016.428-2.032c1.713,1.28,3.571,3.1,5.788,3.839a4.219,4.219,0,0,0,4.632-1.46,5.122,5.122,0,0,0,.48-.8,5.937,5.937,0,0,1,.3-.716,1.548,1.548,0,0,1-1.928-.422,6.407,6.407,0,0,1-.966-1.916,8.861,8.861,0,0,0-3.093-3.935,7.091,7.091,0,0,0-4.8-1.252,6.1,6.1,0,0,0-2.928,1.174,5.274,5.274,0,0,0-1.118,1.121c-.143.2-.745,1.286-.5,1.5a1.228,1.228,0,0,0-1.391-.038,2.874,2.874,0,0,0-.965,1.107,9.5,9.5,0,0,0-1.1,6.1,11.824,11.824,0,0,0,.822,2.6c.281.7.736,1.492,1.592,1.51,1.183.026,1.052-1.958,1.387-2.982.132-.4.1-.906.582-1.026s1.269.8,1.643.045a1.4,1.4,0,0,0,.009-.893,1.2,1.2,0,0,1,.057-.884c.016-.025.626,0,.719-.03a.415.415,0,0,0,.315-.355" transform="translate(-17.655 -62.995)" fill="#485070"/>
          <path id="Trazado_601960" data-name="Trazado 601960" d="M61.522,199.482a4.418,4.418,0,0,0-.48,4.378" transform="translate(-19.267 -63.35)" fill="none" stroke="#485070" stroke-linecap="round" stroke-miterlimit="10" stroke-width="0.75"/>
          <path id="Trazado_601961" data-name="Trazado 601961" d="M57.14,203.246a1.93,1.93,0,0,1,2.411.381" transform="translate(-18.146 -64.462)" fill="none" stroke="#485070" stroke-linecap="round" stroke-miterlimit="10" stroke-width="0.75"/>
          <path id="Trazado_601962" data-name="Trazado 601962" d="M71.2,217.059a.531.531,0,1,1-.531-.531.531.531,0,0,1,.531.531" transform="translate(-22.274 -68.763)" fill="#485070"/>
          <path id="Trazado_601963" data-name="Trazado 601963" d="M70.314,215.171a1.635,1.635,0,0,1,1.069.031" transform="translate(-22.33 -68.308)" fill="none" stroke="#485070" stroke-linecap="round" stroke-miterlimit="10" stroke-width="0.75"/>
          <path id="Trazado_601964" data-name="Trazado 601964" d="M76.121,217.858a.531.531,0,1,1-.531-.531.531.531,0,0,1,.531.531" transform="translate(-23.837 -69.017)" fill="#485070"/>
          <path id="Trazado_601965" data-name="Trazado 601965" d="M75.236,215.97A1.635,1.635,0,0,1,76.3,216" transform="translate(-23.893 -68.562)" fill="none" stroke="#485070" stroke-linecap="round" stroke-miterlimit="10" stroke-width="0.75"/>
          <path id="Trazado_601966" data-name="Trazado 601966" d="M73.758,218.48a1.85,1.85,0,0,0,.349,1.331.537.537,0,0,1,.154.323.318.318,0,0,1-.255.265.937.937,0,0,1-.391-.018" transform="translate(-23.378 -69.383)" fill="none" stroke="#485070" stroke-linecap="round" stroke-miterlimit="10" stroke-width="0.75"/>
          <path id="Trazado_601967" data-name="Trazado 601967" d="M70.313,222.749a2.129,2.129,0,0,0,1.838.472" transform="translate(-22.329 -70.739)" fill="none" stroke="#485070" stroke-linecap="round" stroke-miterlimit="10" stroke-width="0.75"/>
          <path id="Trazado_601968" data-name="Trazado 601968" d="M58.361,214.989a1.949,1.949,0,1,0,1.949-1.949,1.949,1.949,0,0,0-1.949,1.949" transform="translate(-18.534 -67.656)" fill="#cf9378"/>
          <path id="Trazado_601969" data-name="Trazado 601969" d="M60.633,214.671a.838.838,0,0,1,.9,1.108.572.572,0,0,0-.956.469" transform="translate(-19.236 -68.171)" fill="none" stroke="#485070" stroke-linecap="round" stroke-linejoin="round" stroke-width="0.75"/>
          <path id="Trazado_601970" data-name="Trazado 601970" d="M370.114,379.37c-.056-.246-7.025.973-7.8,1.093l-.085.073c-2.41,2.048-5.466,3.162-8.457,4.245a2.861,2.861,0,0,0-1.262.721c-1.358,1.593,1.525,2.279,2.547,2.364a19.31,19.31,0,0,0,4.951-.482c3.356-.59,6.781-.4,10.1-1.22a.579.579,0,0,0,.351-.18.593.593,0,0,0,.084-.306,20.626,20.626,0,0,0-.437-6.307" transform="translate(-111.836 -120.467)" fill="#485070"/>
          <path id="Trazado_601971" data-name="Trazado 601971" d="M354.166,281.9c1.682,16.772,4.752,33.986,6.673,50.743a28.617,28.617,0,0,0,9.171-.566c2.5-18.228,3.562-27.026,1.3-45.517-.231-1.9-.032-17.618-.1-19.637-.4-12.019,1.206-25.738-6.013-35.888-1.823-2.563-4.81-4.53-7.846-4.292a7.087,7.087,0,0,0-5.21,3.116c-3.729,5.061-1.649,18.813-.985,24.817.88,7.96,2.2,19.229,3,27.223" transform="translate(-111.145 -72.002)" fill="#757e96"/>
          <path id="Trazado_601972" data-name="Trazado 601972" d="M355.35,292.337c.681-2.909,1.514-5.785,2.335-8.657,2.871-10.049,4.056-20.378,5.492-30.707a47.283,47.283,0,0,0,.64-7.379c-.046-2.509-.375-5.032-.576-7.533a65.355,65.355,0,0,0-1.415-10.163,7.636,7.636,0,0,0-4.469-1.152,7.084,7.084,0,0,0-5.21,3.116c-3.729,5.062-1.649,18.814-.985,24.817.88,7.96,2.2,19.229,3,27.223.343,3.423.746,6.911,1.183,10.435" transform="translate(-111.145 -72.002)" fill="#545d78"/>
          <path id="Trazado_601973" data-name="Trazado 601973" d="M329.81,382.764a1.377,1.377,0,0,0-.207.013,27.057,27.057,0,0,1-6.731-.035,2.422,2.422,0,0,0-.856-.014,2.448,2.448,0,0,0-.7.336,20.138,20.138,0,0,1-6.807,2.6,8.633,8.633,0,0,0-3.968,1.277c-.513.411-.914,1.174-.522,1.7a1.362,1.362,0,0,0,.538.388c2.1.985,5.259.6,7.512.477,3.637-.2,7.241.018,10.827-.712a.918.918,0,0,0,.415-.162.966.966,0,0,0,.268-.556,27.344,27.344,0,0,0,.543-3.013c.046-.4.271-1.841,0-2.179a.394.394,0,0,0-.308-.122" transform="translate(-98.404 -121.533)" fill="#485070"/>
          <path id="Trazado_601974" data-name="Trazado 601974" d="M343.847,230.126c-8.272-.133-10.8,8.5-11.788,15.141q-3.12,21.036-4.377,42.291c-.416,7.039-.968,12.987-1.2,20.036-.247,7.237-.637,19.759-.323,26.958a.666.666,0,0,0,.113.413.658.658,0,0,0,.448.168,49.7,49.7,0,0,0,9.136.129.775.775,0,0,0,.408-.11c.132-.1-1.038-.553-.988-.708,2.328-7.186,3.919-20.032,4.649-27.541a162.958,162.958,0,0,1,10.645-45.485c5.855-13.7,9.164-31.038-6.723-31.293" transform="translate(-103.542 -73.081)" fill="#757e96"/>
          <path id="Trazado_601975" data-name="Trazado 601975" d="M357.1,277.147a218.7,218.7,0,0,0,8.532-24.308" transform="translate(-113.406 -80.295)" fill="none" stroke="#485070" stroke-miterlimit="10" stroke-width="0.75"/>
          <path id="Trazado_601976" data-name="Trazado 601976" d="M348.338,247.165l.08.012q1.134.185,2.273.33c.557.07,1.116.128,1.677.179l.551.049q.7.057,1.4.1c.265.015.53.026.794.038.207.008.414.02.622.026v-.005a52.194,52.194,0,0,0,10.666-.75c-.527-6.337-1.911-12.445-5.594-17.624-1.823-2.563-4.81-4.53-7.847-4.292a7.08,7.08,0,0,0-5.21,3.116,7.4,7.4,0,0,0-.732,1.279c-7.187-.162-10.356,7.078-11.958,13.185a27.319,27.319,0,0,0,5.148,2.342,48.478,48.478,0,0,0,8.125,2.017" transform="translate(-106.407 -71.52)" fill="#545d78"/>
          <path id="Trazado_601977" data-name="Trazado 601977" d="M358.974,162.164a11.272,11.272,0,0,0-.2-2.773,7.237,7.237,0,0,0,4.235.122,12.337,12.337,0,0,0,2.009-.768c.231-.109.648-.448,1.032-.661-.843,3.115-.777,6.364,1.151,9.041a10.678,10.678,0,0,1-5.249,2.233c-1.628.278-5.524.536-4.588-2.2.306-.9.964-1.586,1.224-2.516a11.313,11.313,0,0,0,.384-2.472" transform="translate(-113.444 -50.203)" fill="#f7b699"/>
          <path id="Trazado_601978" data-name="Trazado 601978" d="M363.344,160.183a7.215,7.215,0,0,1-3.969-.184,11.767,11.767,0,0,1-.186,5.245c-.024.084-.053.163-.083.244.16-.02.321-.048.482-.078a9.681,9.681,0,0,0,3.756-5.227" transform="translate(-114.042 -50.811)" fill="#c46e58"/>
          <path id="Trazado_601979" data-name="Trazado 601979" d="M355.921,141.857c.957-1.377,2.1.558,3.772.6a7.22,7.22,0,0,1,3.884.762,5.468,5.468,0,0,1,2.509,3.01c.108.347.194.689.266,1.026a18.991,18.991,0,0,1,.031,3.423l-.018.072a10.305,10.305,0,0,1-3.832,4.657,5.379,5.379,0,0,1-5.434.463,4.6,4.6,0,0,1-2.154-2.35,10.228,10.228,0,0,1-.682-3.554c-.087-1.846.6-6.591,1.657-8.108" transform="translate(-112.502 -44.893)" fill="#f7b699"/>
          <path id="Trazado_601980" data-name="Trazado 601980" d="M356.817,142.844c-1.31.189-2.376.4-3.578-.306a4.259,4.259,0,0,1-1.917-2.422,5.038,5.038,0,0,1-.169-.922,6.078,6.078,0,0,0-.028-.774,1.548,1.548,0,0,0,1.954.277,6.39,6.39,0,0,0,1.574-1.458,8.866,8.866,0,0,1,4.272-2.608,7.09,7.09,0,0,1,4.939.5,6.107,6.107,0,0,1,2.334,2.122,5.265,5.265,0,0,1,.656,1.441c.064.235.249,1.464-.053,1.576a1.227,1.227,0,0,1,1.317.45,2.869,2.869,0,0,1,.519,1.374,9.253,9.253,0,0,1-.605,4.9,37.039,37.039,0,0,1-1.658,3.4,5.5,5.5,0,0,1-2.249,2.225,8.064,8.064,0,0,1-3.976.474,2.777,2.777,0,0,1-2.7-1.706,5.592,5.592,0,0,1-.345-1.782c-.016-.252-.133-2.006.073-2.111a2.173,2.173,0,0,1-.8.285.739.739,0,0,1-.727-.352,1.094,1.094,0,0,1,.033-.786q.567-1.9,1.135-3.805" transform="translate(-111.508 -42.683)" fill="#485070"/>
          <path id="Trazado_601981" data-name="Trazado 601981" d="M374.139,138.406a4.416,4.416,0,0,1-1.078,4.271" transform="translate(-118.474 -43.954)" fill="none" stroke="#485070" stroke-linecap="round" stroke-miterlimit="10" stroke-width="0.75"/>
          <path id="Trazado_601982" data-name="Trazado 601982" d="M376.649,143.387a1.931,1.931,0,0,0-2.393-.485" transform="translate(-118.853 -45.311)" fill="none" stroke="#485070" stroke-linecap="round" stroke-miterlimit="10" stroke-width="0.75"/>
          <path id="Trazado_601983" data-name="Trazado 601983" d="M362.249,153.805A1.949,1.949,0,1,1,361.1,151.3a1.949,1.949,0,0,1,1.146,2.507" transform="translate(-113.841 -48.009)" fill="#f7b699"/>
          <path id="Trazado_601984" data-name="Trazado 601984" d="M361.706,153.037a.837.837,0,0,0-1.228.725.572.572,0,0,1,.732.774" transform="translate(-114.478 -48.57)" fill="none" stroke="#485070" stroke-linecap="round" stroke-linejoin="round" stroke-width="0.75"/>
          <path id="Trazado_601985" data-name="Trazado 601985" d="M323.659,184.748a1.8,1.8,0,0,1,1.152-1.34c.6-.21,1.619-.211,1.82-.816.1-.3.2-.416-.043-.622a1.5,1.5,0,0,0-.887-.31,2.644,2.644,0,0,0-2.431,1.351c-.143.265-.35.611-.639.527a.491.491,0,0,1-.281-.3,2.778,2.778,0,0,1,.586-2.425,4.1,4.1,0,0,1,1.333-1.52,3.956,3.956,0,0,1,2.239-.3,8.511,8.511,0,0,1,4.456,1.139c.341.24.652.52.993.762a10.947,10.947,0,0,0,2.921,1.305l-.951,3.3a.181.181,0,0,1-.27.154c-1.869-.457-4.027-.838-5.9-1.132a14.048,14.048,0,0,0-4.1.229" transform="translate(-102.332 -56.833)" fill="#f7b699"/>
          <path id="Trazado_601986" data-name="Trazado 601986" d="M338.2,180.113a11.813,11.813,0,0,0-2.546,7.67l3.6,1.437,1.24-5.707c.124-.572.633-1.789.307-2.262-.347-.5-2.025-.888-2.6-1.139" transform="translate(-106.594 -57.199)" fill="#fff"/>
          <path id="Trazado_601987" data-name="Trazado 601987" d="M351.269,184.648a26.1,26.1,0,0,0-3.1-1.629c-1.852-.832-3.8-1.514-5.661-2.158a18.264,18.264,0,0,0-2.174-.669c-2.025,2.161-2.737,5.831-2.493,8.906,2.135,1.872,5.262,2.981,7.617,4.452a25.327,25.327,0,0,0,4.074,2.256,7.186,7.186,0,0,0,4.564.392,2.9,2.9,0,0,0,1.892-1.417,3.315,3.315,0,0,0,.228-1.488,10.694,10.694,0,0,0-4.945-8.646" transform="translate(-107.274 -57.224)" fill="#545d78"/>
          <path id="Trazado_601988" data-name="Trazado 601988" d="M305.635,201.474a5.642,5.642,0,0,1-.4-4.729,2.067,2.067,0,0,1,1.161-1.312,1.818,1.818,0,0,1,1.889.779,8.7,8.7,0,0,1,.924,1.966,9.139,9.139,0,0,0,1.175,2.034,5.178,5.178,0,0,1,1.241,2.076,2.039,2.039,0,0,1-.566,1.778c-1.713,1.688-4.6-1.118-5.425-2.592" transform="translate(-96.825 -62.045)" fill="#f7b699"/>
          <path id="Trazado_601989" data-name="Trazado 601989" d="M323.077,197.006l-10.355,5.019-13.7-12.434,10.355-5.019Z" transform="translate(-94.961 -58.615)" fill="#f4ae2d"/>
          <path id="Trazado_601990" data-name="Trazado 601990" d="M322.144,197.033l-8.893,4.311L301.414,190.6l8.893-4.311Z" transform="translate(-95.721 -59.16)" fill="#fff"/>
          <path id="Trazado_601991" data-name="Trazado 601991" d="M312.652,189.315l-7.391,3.583-.721-.654,7.391-3.583Z" transform="translate(-96.713 -59.913)" fill="#c8ddf7"/>
          <path id="Trazado_601992" data-name="Trazado 601992" d="M318.185,194.338l-7.391,3.583-.721-.654,7.391-3.583Z" transform="translate(-98.47 -61.508)" fill="#c8ddf7"/>
          <path id="Trazado_601993" data-name="Trazado 601993" d="M320.018,196l-7.391,3.583-.721-.654,7.391-3.583Z" transform="translate(-99.053 -62.037)" fill="#c8ddf7"/>
          <path id="Trazado_601994" data-name="Trazado 601994" d="M321.851,197.665l-7.391,3.583-.721-.654,7.391-3.583Z" transform="translate(-99.635 -62.565)" fill="#c8ddf7"/>
          <path id="Trazado_601995" data-name="Trazado 601995" d="M323.684,199.329l-7.391,3.583-.721-.654,7.391-3.583Z" transform="translate(-100.217 -63.093)" fill="#c8ddf7"/>
          <path id="Trazado_601996" data-name="Trazado 601996" d="M325.517,200.993l-7.391,3.583-.721-.654,7.391-3.583Z" transform="translate(-100.799 -63.622)" fill="#c8ddf7"/>
          <path id="Trazado_601997" data-name="Trazado 601997" d="M309.678,186.655l-6.214,3.012-2.643-2.4,6.213-3.012Z" transform="translate(-95.533 -58.514)" fill="#485070"/>
          <path id="Trazado_601998" data-name="Trazado 601998" d="M307.321,200.532a3.055,3.055,0,0,0-.283.384c-.783,1.258.733,2.426,1.7,3.1a24.553,24.553,0,0,0,7.4,3.018c1.434.418,5.585-.605,4.439-2.857-.783-1.538-3.1-2.423-4.622-2.834a4.168,4.168,0,0,1-3.525-2.557c-.263-.712-.37-1.473-.6-2.2a1.071,1.071,0,0,0-.264-.486.414.414,0,0,0-.513-.057.572.572,0,0,0-.161.268c-.444,1.237.352,2.152-1.171,2.878-.506.241-1.06.374-1.55.645a3.11,3.11,0,0,0-.85.691" transform="translate(-97.438 -62.24)" fill="#f7b699"/>
          <path id="Trazado_601999" data-name="Trazado 601999" d="M317.885,200.681a11.811,11.811,0,0,0-1.706,7.9l3.737,1.041q.31-2.9.619-5.807c.061-.582.437-1.847.062-2.282-.4-.464-2.109-.664-2.712-.852" transform="translate(-100.374 -63.731)" fill="#fff"/>
          <path id="Trazado_602000" data-name="Trazado 602000" d="M355.745,166.906a4.681,4.681,0,0,1,2.767-.871l7.59-.707q.717,2.538,1.434,5.076c-.02-.071-8.206.254-8.986.229-.821-.025-3.484.242-3.828-.528-.381-.853.4-2.637,1.023-3.2" transform="translate(-112.618 -52.504)" fill="#fff"/>
          <path id="Trazado_602001" data-name="Trazado 602001" d="M365.684,210.319c.008-2.695.159-5.386.33-8.074.223-3.5.487-7,.532-10.512a71.033,71.033,0,0,0-.867-13.044c-.187-1.07-.41-2.128-.675-3.169-.055-.214-.113-.441-.175-.673-.806-1.934-2.336-4.5-4.376-5.64a7.854,7.854,0,0,0-1.022.018q-3.513.235-7,.774a5.853,5.853,0,0,0-3.9,1.673c-3,3.12-5.81,10.111-6.592,14.407-.748,4.1-.455,4.339-.882,8.478q-.762,7.391-2.152,14.7c-.781,4.1-1.95,8.558-5.358,10.975,5.649,2.372,11.367,4.763,17.42,5.709s12.572.313,17.721-3.008c-2.43-3.747-3.019-8.141-3.006-12.613" transform="translate(-105.926 -53.732)" fill="#757e96"/>
          <path id="Trazado_602002" data-name="Trazado 602002" d="M346.809,188.07a3.012,3.012,0,0,0-.943-1.177,2.6,2.6,0,0,0-1.557-.358c-2.369.106-4.244,2.039-5.509,4.045s-2.241,4.271-4.045,5.81c-3.149,2.686-10.727.493-14.249-.29-2.683,2.623-2.969,5.657-1.576,9.193,4.722,2.075,14.656,7,19.811,4.542a10.76,10.76,0,0,0,4.238-4.028,33.239,33.239,0,0,0,1.722-3.038,29.508,29.508,0,0,0,2.842-7.16,11.346,11.346,0,0,0-.733-7.539" transform="translate(-101.022 -59.237)" fill="#757e96"/>
          <path id="Trazado_602003" data-name="Trazado 602003" d="M356.538,175.626a4.99,4.99,0,0,0-6.169-.662c-1.11.7-1.674,2.135-2.247,3.276a31.741,31.741,0,0,0-1.79,4.332c-.505,1.537-.892,3.11-1.366,4.657-.777,2.535-1.788,5-2.369,7.588a13.427,13.427,0,0,0,.264,7.829c1.39,3.521,6.024,1.651,8.09-.308,1.778-1.688,2.631-4.1,3.423-6.424s1.591-4.661,2.386-6.991a27.521,27.521,0,0,0,1.58-7.09,8.14,8.14,0,0,0-1.8-6.206" transform="translate(-108.656 -55.32)" fill="#757e96"/>
          <path id="Trazado_602004" data-name="Trazado 602004" d="M344.843,190.888a49.4,49.4,0,0,1,5.721-14.7" transform="translate(-109.512 -55.954)" fill="none" stroke="#485070" stroke-miterlimit="10" stroke-width="0.75"/>
          <path id="Trazado_602005" data-name="Trazado 602005" d="M358.132,191.25l-3.051,8.21c-.731,1.965-1.424,4.477-2.809,6.1a32.388,32.388,0,0,1-4.357,4.708,8.317,8.317,0,0,1-5.8,1.965" transform="translate(-108.647 -60.736)" fill="none" stroke="#485070" stroke-miterlimit="10" stroke-width="0.75"/>
          <path id="Trazado_602006" data-name="Trazado 602006" d="M366.188,192.315A5.748,5.748,0,0,0,364,194.542" transform="translate(-115.597 -61.074)" fill="none" stroke="#485070" stroke-miterlimit="10" stroke-width="0.75"/>
          <path id="Trazado_602007" data-name="Trazado 602007" d="M319.921,186.685l-1.22.663.619-1.243,7.361-7.623a.418.418,0,0,1,.6.581Z" transform="translate(-101.211 -56.64)" fill="#485070"/>
        </g>
      </g>
    </g>
  </g>
</svg>
